G04 EAGLE Gerber X2 export*
G04 #@! %TF.Part,Single*
G04 #@! %TF.FileFunction,Copper,L1,Top,Mixed*
G04 #@! %TF.FilePolarity,Positive*
G04 #@! %TF.GenerationSoftware,Autodesk,EAGLE,8.6.0*
G04 #@! %TF.CreationDate,2018-03-03T07:28:53Z*
G75*
%MOMM*%
%FSLAX34Y34*%
%LPD*%
%AMOC8*
5,1,8,0,0,1.08239X$1,22.5*%
G01*
%ADD10R,1.200000X0.800000*%
%ADD11C,1.422400*%
%ADD12C,1.500000*%
%ADD13R,0.800000X1.200000*%
%ADD14R,0.406400X0.812800*%
%ADD15C,0.304800*%
%ADD16C,0.604000*%

G36*
X447538Y359877D02*
X447538Y359877D01*
X447574Y359874D01*
X447711Y359897D01*
X447849Y359913D01*
X447883Y359925D01*
X447918Y359931D01*
X448046Y359983D01*
X448177Y360030D01*
X448207Y360050D01*
X448241Y360063D01*
X448354Y360144D01*
X448470Y360219D01*
X448495Y360245D01*
X448524Y360266D01*
X448616Y360370D01*
X448712Y360470D01*
X448731Y360501D01*
X448754Y360528D01*
X448820Y360650D01*
X448891Y360769D01*
X448902Y360803D01*
X448919Y360835D01*
X448955Y360969D01*
X448997Y361101D01*
X449000Y361137D01*
X449009Y361171D01*
X449014Y361310D01*
X449025Y361448D01*
X449020Y361484D01*
X449021Y361520D01*
X448994Y361656D01*
X448973Y361793D01*
X448960Y361826D01*
X448953Y361861D01*
X448860Y362088D01*
X448754Y362295D01*
X448285Y363740D01*
X448244Y364001D01*
X457224Y364001D01*
X457250Y364004D01*
X457276Y364002D01*
X457423Y364024D01*
X457570Y364041D01*
X457595Y364049D01*
X457621Y364053D01*
X457758Y364108D01*
X457898Y364158D01*
X457920Y364172D01*
X457945Y364182D01*
X458066Y364267D01*
X458191Y364347D01*
X458209Y364366D01*
X458231Y364381D01*
X458330Y364491D01*
X458433Y364598D01*
X458447Y364620D01*
X458464Y364640D01*
X458536Y364770D01*
X458612Y364897D01*
X458620Y364922D01*
X458633Y364945D01*
X458673Y365088D01*
X458718Y365229D01*
X458720Y365255D01*
X458727Y365280D01*
X458747Y365524D01*
X458747Y366476D01*
X458744Y366502D01*
X458746Y366528D01*
X458724Y366675D01*
X458707Y366822D01*
X458698Y366847D01*
X458694Y366873D01*
X458640Y367011D01*
X458590Y367150D01*
X458575Y367172D01*
X458566Y367197D01*
X458481Y367318D01*
X458401Y367443D01*
X458382Y367461D01*
X458367Y367483D01*
X458257Y367582D01*
X458150Y367685D01*
X458127Y367699D01*
X458108Y367716D01*
X457978Y367788D01*
X457851Y367864D01*
X457826Y367872D01*
X457803Y367885D01*
X457660Y367925D01*
X457519Y367970D01*
X457493Y367972D01*
X457468Y367980D01*
X457224Y367999D01*
X448244Y367999D01*
X448285Y368260D01*
X448754Y369705D01*
X449444Y371059D01*
X450337Y372288D01*
X450856Y372807D01*
X450950Y372925D01*
X451047Y373040D01*
X451058Y373061D01*
X451073Y373080D01*
X451138Y373217D01*
X451206Y373350D01*
X451212Y373374D01*
X451222Y373396D01*
X451254Y373543D01*
X451290Y373688D01*
X451290Y373713D01*
X451295Y373736D01*
X451293Y373886D01*
X451295Y374037D01*
X451290Y374061D01*
X451289Y374085D01*
X451253Y374230D01*
X451221Y374377D01*
X451210Y374399D01*
X451204Y374423D01*
X451135Y374557D01*
X451071Y374692D01*
X451056Y374711D01*
X451045Y374733D01*
X450947Y374847D01*
X450854Y374965D01*
X450835Y374980D01*
X450819Y374998D01*
X450698Y375087D01*
X450580Y375180D01*
X450554Y375194D01*
X450539Y375205D01*
X450495Y375224D01*
X450362Y375292D01*
X446825Y376757D01*
X443857Y379725D01*
X442251Y383602D01*
X442251Y387798D01*
X443857Y391675D01*
X446825Y394643D01*
X447287Y394834D01*
X447354Y394871D01*
X447425Y394900D01*
X447505Y394956D01*
X447592Y395004D01*
X447648Y395055D01*
X447711Y395099D01*
X447777Y395172D01*
X447850Y395238D01*
X447893Y395301D01*
X447944Y395357D01*
X447992Y395444D01*
X448048Y395524D01*
X448076Y395595D01*
X448113Y395662D01*
X448140Y395757D01*
X448176Y395849D01*
X448187Y395924D01*
X448208Y395998D01*
X448220Y396147D01*
X448227Y396193D01*
X448225Y396213D01*
X448227Y396242D01*
X448227Y398675D01*
X448213Y398800D01*
X448206Y398927D01*
X448193Y398973D01*
X448187Y399021D01*
X448145Y399140D01*
X448110Y399262D01*
X448086Y399304D01*
X448070Y399349D01*
X448001Y399456D01*
X447940Y399566D01*
X447900Y399612D01*
X447881Y399642D01*
X447846Y399676D01*
X447781Y399752D01*
X447224Y400309D01*
X445723Y401810D01*
X445027Y403490D01*
X445027Y416930D01*
X445013Y417056D01*
X445006Y417182D01*
X444993Y417228D01*
X444987Y417276D01*
X444945Y417395D01*
X444910Y417517D01*
X444886Y417559D01*
X444870Y417605D01*
X444801Y417711D01*
X444740Y417821D01*
X444700Y417867D01*
X444681Y417897D01*
X444646Y417931D01*
X444581Y418007D01*
X442451Y420137D01*
X442451Y434663D01*
X444237Y436449D01*
X454763Y436449D01*
X456549Y434663D01*
X456549Y420137D01*
X454619Y418207D01*
X454540Y418108D01*
X454456Y418014D01*
X454432Y417972D01*
X454402Y417934D01*
X454348Y417820D01*
X454287Y417709D01*
X454274Y417663D01*
X454253Y417619D01*
X454227Y417496D01*
X454192Y417374D01*
X454187Y417313D01*
X454180Y417279D01*
X454181Y417231D01*
X454173Y417130D01*
X454173Y406925D01*
X454187Y406799D01*
X454194Y406673D01*
X454207Y406627D01*
X454213Y406579D01*
X454255Y406460D01*
X454290Y406338D01*
X454314Y406296D01*
X454330Y406251D01*
X454399Y406145D01*
X454460Y406034D01*
X454500Y405988D01*
X454519Y405958D01*
X454554Y405924D01*
X454619Y405848D01*
X456677Y403790D01*
X457373Y402110D01*
X457373Y396242D01*
X457381Y396166D01*
X457380Y396089D01*
X457401Y395993D01*
X457413Y395895D01*
X457438Y395823D01*
X457455Y395749D01*
X457497Y395660D01*
X457530Y395567D01*
X457572Y395503D01*
X457604Y395434D01*
X457666Y395357D01*
X457719Y395274D01*
X457774Y395221D01*
X457822Y395162D01*
X457899Y395101D01*
X457970Y395032D01*
X458035Y394993D01*
X458095Y394946D01*
X458228Y394878D01*
X458269Y394853D01*
X458287Y394848D01*
X458313Y394834D01*
X458775Y394643D01*
X461623Y391795D01*
X461643Y391779D01*
X461660Y391759D01*
X461780Y391671D01*
X461896Y391579D01*
X461920Y391567D01*
X461941Y391552D01*
X462077Y391493D01*
X462211Y391430D01*
X462237Y391424D01*
X462261Y391414D01*
X462407Y391388D01*
X462552Y391356D01*
X462578Y391357D01*
X462604Y391352D01*
X462752Y391360D01*
X462900Y391362D01*
X462926Y391369D01*
X462952Y391370D01*
X463094Y391411D01*
X463238Y391447D01*
X463261Y391459D01*
X463287Y391467D01*
X463416Y391539D01*
X463548Y391607D01*
X463568Y391624D01*
X463591Y391637D01*
X463777Y391795D01*
X466325Y394343D01*
X470202Y395949D01*
X474398Y395949D01*
X474861Y395757D01*
X474934Y395736D01*
X475004Y395706D01*
X475101Y395689D01*
X475196Y395662D01*
X475272Y395658D01*
X475347Y395644D01*
X475446Y395649D01*
X475544Y395645D01*
X475619Y395658D01*
X475695Y395662D01*
X475790Y395689D01*
X475887Y395707D01*
X475957Y395738D01*
X476030Y395759D01*
X476116Y395807D01*
X476206Y395846D01*
X476268Y395892D01*
X476334Y395929D01*
X476448Y396026D01*
X476486Y396054D01*
X476498Y396069D01*
X476521Y396087D01*
X490334Y409901D01*
X490350Y409921D01*
X490370Y409938D01*
X490458Y410058D01*
X490550Y410174D01*
X490562Y410197D01*
X490577Y410218D01*
X490636Y410355D01*
X490699Y410489D01*
X490705Y410514D01*
X490715Y410538D01*
X490741Y410685D01*
X490773Y410829D01*
X490772Y410855D01*
X490777Y410881D01*
X490769Y411030D01*
X490767Y411178D01*
X490760Y411203D01*
X490759Y411229D01*
X490718Y411372D01*
X490682Y411516D01*
X490670Y411539D01*
X490662Y411564D01*
X490590Y411694D01*
X490522Y411826D01*
X490505Y411846D01*
X490492Y411868D01*
X490334Y412055D01*
X488451Y413937D01*
X488451Y424463D01*
X490237Y426249D01*
X502808Y426249D01*
X502834Y426252D01*
X502860Y426250D01*
X503007Y426272D01*
X503154Y426289D01*
X503179Y426297D01*
X503205Y426301D01*
X503343Y426356D01*
X503482Y426406D01*
X503504Y426420D01*
X503529Y426430D01*
X503650Y426515D01*
X503775Y426595D01*
X503793Y426614D01*
X503815Y426629D01*
X503914Y426739D01*
X504017Y426846D01*
X504031Y426868D01*
X504048Y426888D01*
X504120Y427018D01*
X504196Y427145D01*
X504204Y427170D01*
X504217Y427193D01*
X504257Y427336D01*
X504302Y427477D01*
X504304Y427503D01*
X504312Y427528D01*
X504331Y427772D01*
X504331Y428628D01*
X504328Y428654D01*
X504330Y428680D01*
X504308Y428827D01*
X504291Y428974D01*
X504283Y428999D01*
X504279Y429025D01*
X504224Y429163D01*
X504174Y429302D01*
X504160Y429324D01*
X504150Y429349D01*
X504065Y429470D01*
X503985Y429595D01*
X503966Y429613D01*
X503951Y429635D01*
X503841Y429734D01*
X503734Y429837D01*
X503712Y429851D01*
X503692Y429868D01*
X503562Y429940D01*
X503435Y430016D01*
X503410Y430024D01*
X503387Y430037D01*
X503244Y430077D01*
X503103Y430122D01*
X503077Y430124D01*
X503052Y430132D01*
X502808Y430151D01*
X490237Y430151D01*
X488207Y432181D01*
X488108Y432260D01*
X488014Y432344D01*
X487972Y432368D01*
X487934Y432398D01*
X487820Y432452D01*
X487709Y432513D01*
X487663Y432526D01*
X487619Y432547D01*
X487496Y432573D01*
X487374Y432608D01*
X487313Y432613D01*
X487278Y432620D01*
X487230Y432619D01*
X487130Y432627D01*
X483372Y432627D01*
X483346Y432624D01*
X483320Y432626D01*
X483173Y432604D01*
X483026Y432587D01*
X483001Y432579D01*
X482975Y432575D01*
X482837Y432520D01*
X482698Y432470D01*
X482676Y432456D01*
X482651Y432446D01*
X482530Y432361D01*
X482405Y432281D01*
X482387Y432262D01*
X482365Y432247D01*
X482266Y432137D01*
X482163Y432030D01*
X482149Y432008D01*
X482132Y431988D01*
X482060Y431858D01*
X481984Y431731D01*
X481976Y431706D01*
X481963Y431683D01*
X481923Y431540D01*
X481878Y431399D01*
X481876Y431373D01*
X481868Y431348D01*
X481849Y431104D01*
X481849Y427837D01*
X480063Y426051D01*
X465537Y426051D01*
X463751Y427837D01*
X463751Y438363D01*
X465537Y440149D01*
X468762Y440149D01*
X468862Y440160D01*
X468962Y440162D01*
X469035Y440180D01*
X469108Y440189D01*
X469203Y440222D01*
X469300Y440247D01*
X469367Y440281D01*
X469437Y440306D01*
X469521Y440361D01*
X469610Y440407D01*
X469667Y440455D01*
X469729Y440495D01*
X469799Y440567D01*
X469876Y440632D01*
X469920Y440692D01*
X469972Y440746D01*
X470023Y440832D01*
X470083Y440913D01*
X470112Y440981D01*
X470150Y441045D01*
X470181Y441141D01*
X470221Y441233D01*
X470234Y441306D01*
X470257Y441377D01*
X470265Y441477D01*
X470282Y441576D01*
X470279Y441650D01*
X470285Y441724D01*
X470270Y441824D01*
X470265Y441924D01*
X470244Y441995D01*
X470233Y442069D01*
X470196Y442162D01*
X470168Y442259D01*
X470132Y442324D01*
X470104Y442393D01*
X470047Y442475D01*
X469998Y442563D01*
X469933Y442639D01*
X469905Y442679D01*
X469879Y442703D01*
X469839Y442749D01*
X468451Y444137D01*
X468451Y452207D01*
X468440Y452307D01*
X468438Y452407D01*
X468420Y452479D01*
X468411Y452553D01*
X468378Y452648D01*
X468353Y452745D01*
X468319Y452811D01*
X468294Y452881D01*
X468239Y452966D01*
X468193Y453055D01*
X468145Y453112D01*
X468105Y453174D01*
X468033Y453244D01*
X467968Y453320D01*
X467908Y453365D01*
X467854Y453416D01*
X467768Y453468D01*
X467687Y453528D01*
X467619Y453557D01*
X467555Y453595D01*
X467460Y453626D01*
X467367Y453666D01*
X467294Y453679D01*
X467223Y453701D01*
X467123Y453709D01*
X467024Y453727D01*
X466950Y453723D01*
X466876Y453729D01*
X466776Y453714D01*
X466676Y453709D01*
X466605Y453689D01*
X466531Y453678D01*
X466438Y453641D01*
X466341Y453613D01*
X466276Y453576D01*
X466207Y453549D01*
X466125Y453492D01*
X466037Y453443D01*
X465961Y453377D01*
X465921Y453350D01*
X465897Y453324D01*
X465851Y453284D01*
X464995Y452428D01*
X464916Y452329D01*
X464832Y452235D01*
X464808Y452193D01*
X464778Y452155D01*
X464724Y452041D01*
X464663Y451930D01*
X464650Y451884D01*
X464629Y451840D01*
X464603Y451716D01*
X464568Y451595D01*
X464563Y451534D01*
X464556Y451499D01*
X464557Y451451D01*
X464549Y451351D01*
X464549Y444137D01*
X462763Y442351D01*
X452237Y442351D01*
X450451Y444137D01*
X450451Y445304D01*
X450448Y445330D01*
X450450Y445356D01*
X450428Y445503D01*
X450411Y445650D01*
X450403Y445675D01*
X450399Y445701D01*
X450344Y445839D01*
X450294Y445978D01*
X450280Y446000D01*
X450270Y446025D01*
X450185Y446146D01*
X450105Y446271D01*
X450086Y446289D01*
X450071Y446311D01*
X449961Y446410D01*
X449854Y446513D01*
X449832Y446527D01*
X449812Y446544D01*
X449682Y446616D01*
X449555Y446692D01*
X449530Y446700D01*
X449507Y446713D01*
X449364Y446753D01*
X449223Y446798D01*
X449197Y446800D01*
X449172Y446808D01*
X448928Y446827D01*
X433790Y446827D01*
X432110Y447523D01*
X426392Y453241D01*
X426293Y453320D01*
X426199Y453404D01*
X426157Y453428D01*
X426119Y453458D01*
X426005Y453512D01*
X425894Y453573D01*
X425848Y453586D01*
X425804Y453607D01*
X425681Y453633D01*
X425559Y453668D01*
X425498Y453673D01*
X425463Y453680D01*
X425415Y453679D01*
X425315Y453687D01*
X422005Y453687D01*
X419877Y455815D01*
X419857Y455832D01*
X419840Y455852D01*
X419720Y455940D01*
X419604Y456032D01*
X419580Y456043D01*
X419559Y456059D01*
X419423Y456118D01*
X419289Y456181D01*
X419263Y456186D01*
X419239Y456197D01*
X419093Y456223D01*
X418948Y456254D01*
X418922Y456254D01*
X418896Y456258D01*
X418748Y456251D01*
X418600Y456248D01*
X418574Y456242D01*
X418548Y456241D01*
X418406Y456199D01*
X418262Y456163D01*
X418239Y456151D01*
X418213Y456144D01*
X418084Y456071D01*
X417952Y456004D01*
X417932Y455987D01*
X417909Y455974D01*
X417723Y455815D01*
X415595Y453687D01*
X412696Y453687D01*
X412670Y453684D01*
X412644Y453686D01*
X412497Y453664D01*
X412350Y453647D01*
X412325Y453639D01*
X412299Y453635D01*
X412161Y453580D01*
X412022Y453530D01*
X412000Y453516D01*
X411975Y453506D01*
X411854Y453421D01*
X411729Y453341D01*
X411711Y453322D01*
X411689Y453307D01*
X411590Y453197D01*
X411487Y453090D01*
X411473Y453068D01*
X411456Y453048D01*
X411384Y452918D01*
X411308Y452791D01*
X411300Y452766D01*
X411287Y452743D01*
X411247Y452600D01*
X411202Y452459D01*
X411200Y452433D01*
X411192Y452408D01*
X411173Y452164D01*
X411173Y446258D01*
X411184Y446158D01*
X411186Y446058D01*
X411204Y445985D01*
X411213Y445912D01*
X411246Y445817D01*
X411271Y445720D01*
X411305Y445653D01*
X411330Y445583D01*
X411385Y445499D01*
X411431Y445410D01*
X411479Y445353D01*
X411519Y445291D01*
X411591Y445221D01*
X411656Y445144D01*
X411716Y445100D01*
X411770Y445048D01*
X411856Y444997D01*
X411937Y444937D01*
X412005Y444908D01*
X412069Y444870D01*
X412165Y444839D01*
X412257Y444799D01*
X412330Y444786D01*
X412401Y444763D01*
X412501Y444755D01*
X412600Y444738D01*
X412674Y444741D01*
X412748Y444735D01*
X412848Y444750D01*
X412948Y444755D01*
X413019Y444776D01*
X413093Y444787D01*
X413186Y444824D01*
X413283Y444852D01*
X413348Y444888D01*
X413417Y444916D01*
X413499Y444973D01*
X413587Y445022D01*
X413663Y445087D01*
X413703Y445115D01*
X413727Y445141D01*
X413773Y445181D01*
X415505Y446913D01*
X422095Y446913D01*
X423881Y445127D01*
X423881Y441817D01*
X423895Y441691D01*
X423902Y441565D01*
X423915Y441519D01*
X423921Y441471D01*
X423963Y441352D01*
X423998Y441230D01*
X424022Y441188D01*
X424038Y441143D01*
X424107Y441036D01*
X424168Y440926D01*
X424208Y440880D01*
X424227Y440850D01*
X424262Y440816D01*
X424327Y440740D01*
X428172Y436895D01*
X428271Y436816D01*
X428365Y436732D01*
X428407Y436708D01*
X428445Y436678D01*
X428559Y436624D01*
X428670Y436563D01*
X428716Y436550D01*
X428760Y436529D01*
X428883Y436503D01*
X429005Y436468D01*
X429066Y436463D01*
X429101Y436456D01*
X429149Y436457D01*
X429249Y436449D01*
X436763Y436449D01*
X438549Y434663D01*
X438549Y420137D01*
X436763Y418351D01*
X426237Y418351D01*
X424451Y420137D01*
X424451Y427051D01*
X424437Y427177D01*
X424430Y427303D01*
X424417Y427349D01*
X424411Y427397D01*
X424369Y427516D01*
X424334Y427638D01*
X424310Y427680D01*
X424294Y427725D01*
X424225Y427831D01*
X424164Y427942D01*
X424124Y427988D01*
X424105Y428018D01*
X424070Y428052D01*
X424005Y428128D01*
X419892Y432241D01*
X419793Y432320D01*
X419699Y432404D01*
X419657Y432428D01*
X419619Y432458D01*
X419505Y432512D01*
X419394Y432573D01*
X419348Y432586D01*
X419304Y432607D01*
X419181Y432633D01*
X419059Y432668D01*
X418998Y432673D01*
X418963Y432680D01*
X418915Y432679D01*
X418815Y432687D01*
X417172Y432687D01*
X417146Y432684D01*
X417120Y432686D01*
X416973Y432664D01*
X416826Y432647D01*
X416801Y432639D01*
X416775Y432635D01*
X416637Y432580D01*
X416498Y432530D01*
X416476Y432516D01*
X416451Y432506D01*
X416330Y432421D01*
X416205Y432341D01*
X416187Y432322D01*
X416165Y432307D01*
X416066Y432197D01*
X415963Y432090D01*
X415949Y432068D01*
X415932Y432048D01*
X415860Y431918D01*
X415784Y431791D01*
X415776Y431766D01*
X415763Y431743D01*
X415723Y431600D01*
X415678Y431459D01*
X415676Y431433D01*
X415668Y431408D01*
X415649Y431164D01*
X415649Y427237D01*
X413863Y425451D01*
X399337Y425451D01*
X397374Y427414D01*
X397370Y427425D01*
X397285Y427546D01*
X397205Y427671D01*
X397186Y427689D01*
X397171Y427711D01*
X397061Y427810D01*
X396954Y427913D01*
X396932Y427927D01*
X396912Y427944D01*
X396782Y428016D01*
X396655Y428092D01*
X396630Y428100D01*
X396607Y428113D01*
X396464Y428153D01*
X396323Y428198D01*
X396297Y428200D01*
X396272Y428208D01*
X396028Y428227D01*
X391870Y428227D01*
X391744Y428213D01*
X391618Y428206D01*
X391572Y428193D01*
X391524Y428187D01*
X391405Y428145D01*
X391283Y428110D01*
X391241Y428086D01*
X391195Y428070D01*
X391089Y428001D01*
X390979Y427940D01*
X390933Y427900D01*
X390903Y427881D01*
X390869Y427846D01*
X390793Y427781D01*
X388763Y425751D01*
X374237Y425751D01*
X372173Y427815D01*
X372095Y427878D01*
X372022Y427948D01*
X371958Y427986D01*
X371900Y428032D01*
X371809Y428075D01*
X371723Y428126D01*
X371652Y428149D01*
X371585Y428181D01*
X371487Y428202D01*
X371391Y428233D01*
X371317Y428239D01*
X371244Y428254D01*
X371144Y428253D01*
X371044Y428261D01*
X370970Y428250D01*
X370896Y428248D01*
X370799Y428224D01*
X370699Y428209D01*
X370630Y428181D01*
X370558Y428163D01*
X370469Y428117D01*
X370375Y428080D01*
X370314Y428038D01*
X370248Y428004D01*
X370172Y427939D01*
X370089Y427881D01*
X370039Y427826D01*
X369983Y427778D01*
X369923Y427697D01*
X369856Y427622D01*
X369820Y427557D01*
X369775Y427498D01*
X369736Y427405D01*
X369687Y427317D01*
X369667Y427246D01*
X369637Y427178D01*
X369620Y427079D01*
X369592Y426982D01*
X369584Y426882D01*
X369576Y426835D01*
X369578Y426799D01*
X369573Y426738D01*
X369573Y420862D01*
X369584Y420762D01*
X369586Y420662D01*
X369604Y420589D01*
X369613Y420516D01*
X369646Y420421D01*
X369671Y420324D01*
X369705Y420257D01*
X369730Y420187D01*
X369785Y420103D01*
X369831Y420014D01*
X369879Y419957D01*
X369919Y419895D01*
X369991Y419825D01*
X370056Y419748D01*
X370116Y419704D01*
X370170Y419652D01*
X370256Y419601D01*
X370337Y419541D01*
X370405Y419512D01*
X370469Y419474D01*
X370565Y419443D01*
X370657Y419403D01*
X370730Y419390D01*
X370801Y419367D01*
X370901Y419359D01*
X371000Y419342D01*
X371074Y419345D01*
X371148Y419339D01*
X371248Y419354D01*
X371348Y419359D01*
X371419Y419380D01*
X371493Y419391D01*
X371586Y419428D01*
X371683Y419456D01*
X371748Y419492D01*
X371817Y419520D01*
X371899Y419577D01*
X371987Y419626D01*
X372063Y419691D01*
X372103Y419719D01*
X372127Y419745D01*
X372173Y419785D01*
X374237Y421849D01*
X388763Y421849D01*
X390549Y420063D01*
X390549Y409537D01*
X388763Y407751D01*
X388396Y407751D01*
X388370Y407748D01*
X388344Y407750D01*
X388197Y407728D01*
X388050Y407711D01*
X388025Y407703D01*
X387999Y407699D01*
X387861Y407644D01*
X387722Y407594D01*
X387700Y407580D01*
X387675Y407570D01*
X387554Y407485D01*
X387429Y407405D01*
X387411Y407386D01*
X387389Y407371D01*
X387290Y407261D01*
X387187Y407154D01*
X387173Y407132D01*
X387156Y407112D01*
X387084Y406982D01*
X387008Y406855D01*
X387000Y406830D01*
X386987Y406807D01*
X386947Y406664D01*
X386902Y406523D01*
X386900Y406497D01*
X386892Y406472D01*
X386873Y406228D01*
X386873Y395942D01*
X386881Y395866D01*
X386880Y395789D01*
X386901Y395693D01*
X386913Y395595D01*
X386938Y395523D01*
X386955Y395449D01*
X386997Y395360D01*
X387030Y395267D01*
X387072Y395203D01*
X387104Y395134D01*
X387166Y395057D01*
X387219Y394974D01*
X387274Y394921D01*
X387322Y394862D01*
X387399Y394801D01*
X387470Y394732D01*
X387535Y394693D01*
X387595Y394646D01*
X387728Y394578D01*
X387769Y394553D01*
X387787Y394548D01*
X387813Y394534D01*
X388275Y394343D01*
X391243Y391375D01*
X392849Y387498D01*
X392849Y383302D01*
X391243Y379425D01*
X388471Y376653D01*
X388455Y376632D01*
X388435Y376615D01*
X388346Y376496D01*
X388254Y376380D01*
X388243Y376356D01*
X388227Y376335D01*
X388169Y376199D01*
X388105Y376065D01*
X388100Y376039D01*
X388089Y376015D01*
X388063Y375869D01*
X388032Y375724D01*
X388032Y375698D01*
X388028Y375672D01*
X388035Y375523D01*
X388038Y375375D01*
X388044Y375350D01*
X388046Y375324D01*
X388087Y375181D01*
X388123Y375038D01*
X388135Y375014D01*
X388142Y374989D01*
X388215Y374859D01*
X388283Y374728D01*
X388300Y374708D01*
X388312Y374685D01*
X388471Y374499D01*
X391130Y371839D01*
X391142Y371819D01*
X391182Y371727D01*
X391226Y371667D01*
X391262Y371602D01*
X391330Y371528D01*
X391389Y371447D01*
X391446Y371399D01*
X391496Y371344D01*
X391579Y371287D01*
X391656Y371222D01*
X391722Y371188D01*
X391783Y371146D01*
X391876Y371109D01*
X391966Y371063D01*
X392038Y371045D01*
X392107Y371018D01*
X392206Y371003D01*
X392304Y370979D01*
X392378Y370978D01*
X392452Y370967D01*
X392552Y370975D01*
X392652Y370974D01*
X392725Y370990D01*
X392799Y370996D01*
X392895Y371027D01*
X392993Y371048D01*
X393060Y371080D01*
X393131Y371103D01*
X393217Y371155D01*
X393308Y371198D01*
X393366Y371244D01*
X393429Y371283D01*
X393501Y371353D01*
X393580Y371415D01*
X393626Y371474D01*
X393679Y371526D01*
X393734Y371610D01*
X393796Y371689D01*
X393842Y371778D01*
X393868Y371819D01*
X393878Y371847D01*
X396744Y374714D01*
X396987Y374814D01*
X397054Y374851D01*
X397125Y374880D01*
X397206Y374936D01*
X397292Y374984D01*
X397348Y375035D01*
X397411Y375079D01*
X397477Y375152D01*
X397550Y375218D01*
X397593Y375281D01*
X397644Y375337D01*
X397692Y375424D01*
X397748Y375504D01*
X397776Y375575D01*
X397813Y375642D01*
X397840Y375737D01*
X397876Y375829D01*
X397887Y375904D01*
X397908Y375978D01*
X397920Y376127D01*
X397927Y376173D01*
X397925Y376193D01*
X397927Y376222D01*
X397927Y381125D01*
X397927Y381127D01*
X397927Y381129D01*
X397907Y381305D01*
X397887Y381472D01*
X397887Y381473D01*
X397886Y381475D01*
X397811Y381708D01*
X397151Y383302D01*
X397151Y387498D01*
X398757Y391375D01*
X401725Y394343D01*
X405602Y395949D01*
X409798Y395949D01*
X413675Y394343D01*
X416812Y391206D01*
X416926Y391116D01*
X417037Y391021D01*
X417062Y391008D01*
X417085Y390990D01*
X417217Y390927D01*
X417346Y390860D01*
X417374Y390853D01*
X417400Y390841D01*
X417542Y390810D01*
X417683Y390774D01*
X417713Y390773D01*
X417741Y390767D01*
X417886Y390770D01*
X418032Y390767D01*
X418060Y390773D01*
X418089Y390773D01*
X418231Y390809D01*
X418373Y390839D01*
X418399Y390851D01*
X418427Y390858D01*
X418557Y390925D01*
X418689Y390987D01*
X418711Y391005D01*
X418737Y391018D01*
X418848Y391112D01*
X418962Y391202D01*
X418985Y391229D01*
X419003Y391244D01*
X419032Y391283D01*
X419121Y391388D01*
X419741Y392241D01*
X420859Y393359D01*
X422137Y394288D01*
X423546Y395005D01*
X425049Y395493D01*
X425401Y395549D01*
X425401Y386176D01*
X425404Y386150D01*
X425402Y386124D01*
X425424Y385977D01*
X425441Y385830D01*
X425449Y385805D01*
X425453Y385779D01*
X425508Y385642D01*
X425558Y385502D01*
X425572Y385480D01*
X425582Y385455D01*
X425667Y385334D01*
X425747Y385209D01*
X425766Y385191D01*
X425781Y385169D01*
X425891Y385070D01*
X425998Y384967D01*
X426020Y384953D01*
X426040Y384936D01*
X426170Y384864D01*
X426297Y384788D01*
X426322Y384780D01*
X426345Y384767D01*
X426440Y384740D01*
X426460Y384689D01*
X426510Y384550D01*
X426525Y384528D01*
X426534Y384503D01*
X426619Y384382D01*
X426699Y384257D01*
X426718Y384239D01*
X426733Y384217D01*
X426843Y384118D01*
X426950Y384015D01*
X426973Y384001D01*
X426992Y383984D01*
X427122Y383912D01*
X427249Y383836D01*
X427274Y383828D01*
X427297Y383815D01*
X427440Y383775D01*
X427581Y383730D01*
X427607Y383727D01*
X427632Y383720D01*
X427876Y383701D01*
X437249Y383701D01*
X437193Y383349D01*
X436705Y381846D01*
X435988Y380437D01*
X435059Y379159D01*
X433941Y378041D01*
X432663Y377112D01*
X431254Y376395D01*
X429720Y375896D01*
X429613Y375867D01*
X429463Y375829D01*
X429446Y375820D01*
X429427Y375815D01*
X429291Y375740D01*
X429153Y375669D01*
X429139Y375657D01*
X429122Y375648D01*
X429006Y375544D01*
X428888Y375443D01*
X428876Y375428D01*
X428862Y375415D01*
X428773Y375288D01*
X428681Y375163D01*
X428673Y375145D01*
X428662Y375130D01*
X428604Y374985D01*
X428543Y374843D01*
X428539Y374824D01*
X428532Y374806D01*
X428509Y374653D01*
X428481Y374500D01*
X428482Y374481D01*
X428479Y374462D01*
X428491Y374307D01*
X428499Y374152D01*
X428504Y374134D01*
X428506Y374114D01*
X428553Y373966D01*
X428596Y373817D01*
X428605Y373800D01*
X428611Y373782D01*
X428690Y373648D01*
X428766Y373513D01*
X428781Y373495D01*
X428789Y373482D01*
X428819Y373451D01*
X428924Y373327D01*
X429863Y372388D01*
X430756Y371159D01*
X431446Y369805D01*
X431915Y368360D01*
X431956Y368099D01*
X422976Y368099D01*
X422950Y368096D01*
X422924Y368098D01*
X422777Y368076D01*
X422630Y368059D01*
X422605Y368051D01*
X422579Y368047D01*
X422442Y367992D01*
X422302Y367942D01*
X422280Y367928D01*
X422255Y367918D01*
X422134Y367833D01*
X422009Y367753D01*
X421991Y367734D01*
X421969Y367719D01*
X421870Y367609D01*
X421767Y367502D01*
X421753Y367480D01*
X421736Y367460D01*
X421664Y367330D01*
X421588Y367203D01*
X421580Y367178D01*
X421567Y367155D01*
X421527Y367012D01*
X421482Y366871D01*
X421480Y366845D01*
X421473Y366820D01*
X421453Y366576D01*
X421453Y365624D01*
X421456Y365598D01*
X421454Y365572D01*
X421476Y365425D01*
X421493Y365278D01*
X421502Y365253D01*
X421506Y365227D01*
X421560Y365089D01*
X421610Y364950D01*
X421625Y364928D01*
X421634Y364903D01*
X421719Y364782D01*
X421799Y364657D01*
X421818Y364639D01*
X421833Y364617D01*
X421943Y364518D01*
X422050Y364415D01*
X422073Y364401D01*
X422092Y364384D01*
X422222Y364312D01*
X422349Y364236D01*
X422374Y364228D01*
X422397Y364215D01*
X422540Y364175D01*
X422681Y364130D01*
X422707Y364127D01*
X422732Y364120D01*
X422976Y364101D01*
X431956Y364101D01*
X431915Y363840D01*
X431446Y362395D01*
X431289Y362088D01*
X431277Y362054D01*
X431258Y362023D01*
X431216Y361891D01*
X431167Y361761D01*
X431163Y361725D01*
X431152Y361691D01*
X431141Y361553D01*
X431123Y361415D01*
X431127Y361380D01*
X431124Y361344D01*
X431145Y361207D01*
X431159Y361069D01*
X431170Y361035D01*
X431176Y360999D01*
X431227Y360870D01*
X431272Y360739D01*
X431291Y360709D01*
X431304Y360675D01*
X431383Y360562D01*
X431457Y360444D01*
X431483Y360419D01*
X431503Y360389D01*
X431606Y360296D01*
X431705Y360199D01*
X431735Y360180D01*
X431762Y360156D01*
X431884Y360088D01*
X432002Y360016D01*
X432036Y360005D01*
X432067Y359987D01*
X432201Y359949D01*
X432332Y359905D01*
X432368Y359902D01*
X432402Y359892D01*
X432646Y359873D01*
X447503Y359873D01*
X447538Y359877D01*
G37*
%LPC*%
G36*
X429399Y387699D02*
X429399Y387699D01*
X429399Y395549D01*
X429751Y395493D01*
X431254Y395005D01*
X432663Y394288D01*
X433941Y393359D01*
X435059Y392241D01*
X435988Y390963D01*
X436705Y389554D01*
X437193Y388051D01*
X437249Y387699D01*
X429399Y387699D01*
G37*
%LPD*%
%LPC*%
G36*
X474799Y417099D02*
X474799Y417099D01*
X474799Y421641D01*
X479135Y421641D01*
X479781Y421468D01*
X480360Y421133D01*
X480833Y420660D01*
X481168Y420081D01*
X481341Y419435D01*
X481341Y417099D01*
X474799Y417099D01*
G37*
%LPD*%
%LPC*%
G36*
X408599Y416499D02*
X408599Y416499D01*
X408599Y421041D01*
X412935Y421041D01*
X413581Y420868D01*
X414160Y420533D01*
X414633Y420060D01*
X414968Y419481D01*
X415141Y418835D01*
X415141Y416499D01*
X408599Y416499D01*
G37*
%LPD*%
%LPC*%
G36*
X464259Y417099D02*
X464259Y417099D01*
X464259Y419435D01*
X464432Y420081D01*
X464767Y420660D01*
X465240Y421133D01*
X465819Y421468D01*
X466465Y421641D01*
X470801Y421641D01*
X470801Y417099D01*
X464259Y417099D01*
G37*
%LPD*%
%LPC*%
G36*
X398059Y416499D02*
X398059Y416499D01*
X398059Y418835D01*
X398232Y419481D01*
X398567Y420060D01*
X399040Y420533D01*
X399619Y420868D01*
X400265Y421041D01*
X404601Y421041D01*
X404601Y416499D01*
X398059Y416499D01*
G37*
%LPD*%
%LPC*%
G36*
X474799Y408559D02*
X474799Y408559D01*
X474799Y413101D01*
X481341Y413101D01*
X481341Y410765D01*
X481168Y410119D01*
X480833Y409540D01*
X480360Y409067D01*
X479781Y408732D01*
X479135Y408559D01*
X474799Y408559D01*
G37*
%LPD*%
%LPC*%
G36*
X408599Y407959D02*
X408599Y407959D01*
X408599Y412501D01*
X415141Y412501D01*
X415141Y410165D01*
X414968Y409519D01*
X414633Y408940D01*
X414160Y408467D01*
X413581Y408132D01*
X412935Y407959D01*
X408599Y407959D01*
G37*
%LPD*%
%LPC*%
G36*
X466465Y408559D02*
X466465Y408559D01*
X465819Y408732D01*
X465240Y409067D01*
X464767Y409540D01*
X464432Y410119D01*
X464259Y410765D01*
X464259Y413101D01*
X470801Y413101D01*
X470801Y408559D01*
X466465Y408559D01*
G37*
%LPD*%
%LPC*%
G36*
X400265Y407959D02*
X400265Y407959D01*
X399619Y408132D01*
X399040Y408467D01*
X398567Y408940D01*
X398232Y409519D01*
X398059Y410165D01*
X398059Y412501D01*
X404601Y412501D01*
X404601Y407959D01*
X400265Y407959D01*
G37*
%LPD*%
D10*
X406600Y432500D03*
X406600Y414500D03*
X472800Y415100D03*
X472800Y433100D03*
D11*
X457700Y366000D03*
X477700Y366000D03*
X497700Y366000D03*
X422500Y366100D03*
X402500Y366100D03*
X382500Y366100D03*
D12*
X472300Y385400D03*
X497700Y385400D03*
X382300Y385400D03*
X407700Y385400D03*
D10*
X497500Y437200D03*
X497500Y419200D03*
X381500Y432800D03*
X381500Y414800D03*
D13*
X431500Y427400D03*
X449500Y427400D03*
X475500Y451400D03*
X457500Y451400D03*
D11*
X420200Y344400D03*
X440200Y344400D03*
X460200Y344400D03*
D14*
X418800Y439800D03*
X425300Y460800D03*
X412300Y460800D03*
D12*
X427400Y385700D03*
X452800Y385700D03*
D15*
X472800Y433100D02*
X475500Y435800D01*
X475500Y451400D01*
X476900Y437200D02*
X472800Y433100D01*
X476900Y437200D02*
X497500Y437200D01*
X497500Y441500D01*
X490300Y448700D01*
D16*
X490300Y448700D03*
D15*
X412300Y460800D02*
X406600Y455100D01*
X406600Y432500D01*
X406300Y432800D02*
X381500Y432800D01*
X406300Y432800D02*
X406600Y432500D01*
X412300Y460800D02*
X399800Y460800D01*
X391200Y452200D01*
D16*
X391200Y452200D03*
D15*
X402500Y380200D02*
X402500Y366100D01*
X402500Y380200D02*
X407700Y385400D01*
X477700Y366000D02*
X497100Y385400D01*
X497700Y385400D01*
X477700Y366000D02*
X467000Y355300D01*
X413300Y355300D02*
X402500Y366100D01*
X413300Y355300D02*
X467000Y355300D01*
X452800Y385700D02*
X452800Y401200D01*
X449600Y404400D01*
X449600Y427300D01*
X449500Y427400D01*
X431200Y427400D02*
X418800Y439800D01*
X431200Y427400D02*
X431500Y427400D01*
X460200Y344400D02*
X495304Y344400D01*
X508904Y358000D01*
X508904Y435000D01*
X508540Y439155D01*
X507581Y442734D01*
X504100Y450200D01*
X491700Y462600D01*
X468700Y462600D02*
X457500Y451400D01*
X468700Y462600D02*
X491700Y462600D01*
X434700Y451400D02*
X425300Y460800D01*
X434700Y451400D02*
X457500Y451400D01*
X371096Y374196D02*
X371096Y359000D01*
X371096Y374196D02*
X382300Y385400D01*
X385696Y344400D02*
X420200Y344400D01*
X385696Y344400D02*
X371096Y359000D01*
X382300Y385400D02*
X382300Y414000D01*
X381500Y414800D01*
X472300Y385400D02*
X497500Y410600D01*
X497500Y419200D01*
M02*
