G04 EAGLE Gerber X2 export*
G04 #@! %TF.Part,Single*
G04 #@! %TF.FileFunction,Legend,Top,1*
G04 #@! %TF.FilePolarity,Positive*
G04 #@! %TF.GenerationSoftware,Autodesk,EAGLE,8.6.0*
G04 #@! %TF.CreationDate,2018-03-03T07:28:53Z*
G75*
%MOMM*%
%FSLAX34Y34*%
%LPD*%
%AMOC8*
5,1,8,0,0,1.08239X$1,22.5*%
G01*
%ADD10C,0.127000*%
%ADD11R,0.508000X0.508000*%
%ADD12C,0.101600*%
%ADD13C,0.050800*%
%ADD14C,0.152400*%
%ADD15C,0.100000*%


D10*
X420951Y416335D02*
X420951Y415262D01*
X420949Y415197D01*
X420943Y415133D01*
X420933Y415069D01*
X420920Y415005D01*
X420902Y414943D01*
X420881Y414882D01*
X420857Y414822D01*
X420828Y414764D01*
X420796Y414707D01*
X420761Y414653D01*
X420723Y414601D01*
X420681Y414551D01*
X420637Y414504D01*
X420590Y414460D01*
X420540Y414418D01*
X420488Y414380D01*
X420434Y414345D01*
X420377Y414313D01*
X420319Y414284D01*
X420259Y414260D01*
X420198Y414239D01*
X420136Y414221D01*
X420072Y414208D01*
X420008Y414198D01*
X419944Y414192D01*
X419879Y414190D01*
X417197Y414190D01*
X417197Y414189D02*
X417132Y414191D01*
X417068Y414197D01*
X417004Y414207D01*
X416940Y414220D01*
X416878Y414238D01*
X416817Y414259D01*
X416757Y414284D01*
X416698Y414312D01*
X416642Y414344D01*
X416587Y414379D01*
X416535Y414417D01*
X416485Y414459D01*
X416438Y414503D01*
X416394Y414550D01*
X416352Y414600D01*
X416314Y414652D01*
X416279Y414707D01*
X416247Y414763D01*
X416219Y414822D01*
X416194Y414881D01*
X416173Y414943D01*
X416155Y415005D01*
X416142Y415069D01*
X416132Y415133D01*
X416126Y415197D01*
X416124Y415262D01*
X416125Y415262D02*
X416125Y416335D01*
X420951Y418993D02*
X420951Y421138D01*
X420951Y418993D02*
X416125Y418993D01*
X416125Y421138D01*
X418270Y420602D02*
X418270Y418993D01*
X416125Y423826D02*
X420951Y423826D01*
X418806Y425435D02*
X416125Y423826D01*
X418806Y425435D02*
X416125Y427043D01*
X420951Y427043D01*
X417197Y430129D02*
X416125Y431470D01*
X420951Y431470D01*
X420951Y432810D02*
X420951Y430129D01*
X463275Y416935D02*
X463275Y415862D01*
X463273Y415797D01*
X463267Y415733D01*
X463257Y415669D01*
X463244Y415605D01*
X463226Y415543D01*
X463205Y415482D01*
X463181Y415422D01*
X463152Y415364D01*
X463120Y415307D01*
X463085Y415253D01*
X463047Y415201D01*
X463005Y415151D01*
X462961Y415104D01*
X462914Y415060D01*
X462864Y415018D01*
X462812Y414980D01*
X462758Y414945D01*
X462701Y414913D01*
X462643Y414884D01*
X462583Y414860D01*
X462522Y414839D01*
X462460Y414821D01*
X462396Y414808D01*
X462332Y414798D01*
X462268Y414792D01*
X462203Y414790D01*
X459521Y414790D01*
X459521Y414789D02*
X459456Y414791D01*
X459392Y414797D01*
X459328Y414807D01*
X459264Y414820D01*
X459202Y414838D01*
X459141Y414859D01*
X459081Y414884D01*
X459022Y414912D01*
X458966Y414944D01*
X458911Y414979D01*
X458859Y415017D01*
X458809Y415059D01*
X458762Y415103D01*
X458718Y415150D01*
X458676Y415200D01*
X458638Y415252D01*
X458603Y415307D01*
X458571Y415363D01*
X458543Y415422D01*
X458518Y415481D01*
X458497Y415543D01*
X458479Y415605D01*
X458466Y415669D01*
X458456Y415733D01*
X458450Y415797D01*
X458448Y415862D01*
X458449Y415862D02*
X458449Y416935D01*
X463275Y419593D02*
X463275Y421738D01*
X463275Y419593D02*
X458449Y419593D01*
X458449Y421738D01*
X460594Y421202D02*
X460594Y419593D01*
X458449Y424426D02*
X463275Y424426D01*
X461130Y426035D02*
X458449Y424426D01*
X461130Y426035D02*
X458449Y427643D01*
X463275Y427643D01*
X458449Y432204D02*
X458451Y432272D01*
X458457Y432339D01*
X458466Y432406D01*
X458479Y432473D01*
X458496Y432538D01*
X458517Y432603D01*
X458541Y432666D01*
X458569Y432728D01*
X458600Y432788D01*
X458634Y432846D01*
X458672Y432902D01*
X458712Y432957D01*
X458756Y433008D01*
X458803Y433057D01*
X458852Y433104D01*
X458903Y433148D01*
X458958Y433188D01*
X459014Y433226D01*
X459072Y433260D01*
X459132Y433291D01*
X459194Y433319D01*
X459257Y433343D01*
X459322Y433364D01*
X459387Y433381D01*
X459454Y433394D01*
X459521Y433403D01*
X459588Y433409D01*
X459656Y433411D01*
X458449Y432204D02*
X458451Y432126D01*
X458457Y432048D01*
X458467Y431971D01*
X458480Y431894D01*
X458498Y431818D01*
X458519Y431743D01*
X458544Y431669D01*
X458573Y431597D01*
X458605Y431526D01*
X458641Y431457D01*
X458680Y431389D01*
X458723Y431324D01*
X458769Y431261D01*
X458818Y431200D01*
X458870Y431142D01*
X458925Y431087D01*
X458982Y431034D01*
X459042Y430985D01*
X459105Y430938D01*
X459170Y430895D01*
X459236Y430855D01*
X459305Y430818D01*
X459376Y430785D01*
X459448Y430755D01*
X459522Y430729D01*
X460594Y433008D02*
X460545Y433057D01*
X460493Y433104D01*
X460438Y433147D01*
X460381Y433188D01*
X460322Y433226D01*
X460261Y433260D01*
X460198Y433291D01*
X460134Y433319D01*
X460068Y433343D01*
X460002Y433363D01*
X459934Y433380D01*
X459865Y433393D01*
X459796Y433402D01*
X459726Y433408D01*
X459656Y433410D01*
X460594Y433008D02*
X463275Y430729D01*
X463275Y433410D01*
D11*
X457700Y366000D03*
X477700Y366000D03*
X497700Y366000D03*
X422500Y366100D03*
X402500Y366100D03*
X382500Y366100D03*
D10*
X465000Y390400D02*
X505000Y390400D01*
X505000Y400400D01*
X502500Y400400D01*
X467500Y400400D01*
X465000Y400400D01*
X465000Y390400D01*
X467500Y400400D02*
X469064Y425424D01*
X469093Y425811D01*
X469131Y426198D01*
X469179Y426584D01*
X469236Y426968D01*
X469303Y427351D01*
X469378Y427732D01*
X469463Y428111D01*
X469558Y428488D01*
X469661Y428862D01*
X469773Y429234D01*
X469895Y429603D01*
X470025Y429969D01*
X470164Y430332D01*
X470312Y430691D01*
X470469Y431046D01*
X470634Y431398D01*
X470808Y431746D01*
X470990Y432089D01*
X471180Y432427D01*
X471379Y432761D01*
X471586Y433090D01*
X471800Y433414D01*
X472023Y433732D01*
X472253Y434045D01*
X472491Y434353D01*
X472736Y434654D01*
X472988Y434949D01*
X473248Y435239D01*
X473514Y435521D01*
X473787Y435798D01*
X474067Y436067D01*
X474353Y436330D01*
X474646Y436585D01*
X474945Y436834D01*
X475249Y437075D01*
X475560Y437308D01*
X475876Y437534D01*
X476197Y437752D01*
X476524Y437962D01*
X476856Y438165D01*
X477192Y438359D01*
X477533Y438545D01*
X477879Y438722D01*
X478229Y438891D01*
X478583Y439052D01*
X478940Y439204D01*
X479301Y439347D01*
X479666Y439481D01*
X480034Y439607D01*
X480404Y439723D01*
X480778Y439830D01*
X481153Y439929D01*
X481532Y440018D01*
X481912Y440098D01*
X482294Y440168D01*
X482677Y440229D01*
X483062Y440281D01*
X483449Y440324D01*
X483836Y440357D01*
X484223Y440381D01*
X484612Y440395D01*
X485000Y440400D01*
X500936Y425424D02*
X502500Y400400D01*
X500936Y425424D02*
X500907Y425811D01*
X500869Y426198D01*
X500821Y426584D01*
X500764Y426968D01*
X500697Y427351D01*
X500622Y427732D01*
X500537Y428111D01*
X500442Y428488D01*
X500339Y428862D01*
X500227Y429234D01*
X500105Y429603D01*
X499975Y429969D01*
X499836Y430332D01*
X499688Y430691D01*
X499531Y431046D01*
X499366Y431398D01*
X499192Y431746D01*
X499010Y432089D01*
X498820Y432427D01*
X498621Y432761D01*
X498414Y433090D01*
X498200Y433414D01*
X497977Y433732D01*
X497747Y434045D01*
X497509Y434353D01*
X497264Y434654D01*
X497012Y434949D01*
X496752Y435239D01*
X496486Y435521D01*
X496213Y435798D01*
X495933Y436067D01*
X495647Y436330D01*
X495354Y436585D01*
X495055Y436834D01*
X494751Y437075D01*
X494440Y437308D01*
X494124Y437534D01*
X493803Y437752D01*
X493476Y437962D01*
X493144Y438165D01*
X492808Y438359D01*
X492467Y438545D01*
X492121Y438722D01*
X491771Y438891D01*
X491417Y439052D01*
X491060Y439204D01*
X490699Y439347D01*
X490334Y439481D01*
X489966Y439607D01*
X489596Y439723D01*
X489222Y439830D01*
X488847Y439929D01*
X488468Y440018D01*
X488088Y440098D01*
X487706Y440168D01*
X487323Y440229D01*
X486938Y440281D01*
X486551Y440324D01*
X486164Y440357D01*
X485777Y440381D01*
X485388Y440395D01*
X485000Y440400D01*
D12*
X460701Y370908D02*
X455508Y370908D01*
X455508Y382592D01*
X460701Y382592D01*
X459403Y377399D02*
X455508Y377399D01*
X508104Y370908D02*
X510701Y370908D01*
X508104Y370908D02*
X508005Y370910D01*
X507905Y370916D01*
X507806Y370925D01*
X507708Y370938D01*
X507610Y370955D01*
X507512Y370976D01*
X507416Y371001D01*
X507321Y371029D01*
X507227Y371061D01*
X507134Y371096D01*
X507042Y371135D01*
X506952Y371178D01*
X506864Y371223D01*
X506777Y371273D01*
X506693Y371325D01*
X506610Y371381D01*
X506530Y371439D01*
X506452Y371501D01*
X506377Y371566D01*
X506304Y371634D01*
X506234Y371704D01*
X506166Y371777D01*
X506101Y371852D01*
X506039Y371930D01*
X505981Y372010D01*
X505925Y372093D01*
X505873Y372177D01*
X505823Y372264D01*
X505778Y372352D01*
X505735Y372442D01*
X505696Y372534D01*
X505661Y372627D01*
X505629Y372721D01*
X505601Y372816D01*
X505576Y372912D01*
X505555Y373010D01*
X505538Y373108D01*
X505525Y373206D01*
X505516Y373305D01*
X505510Y373405D01*
X505508Y373504D01*
X505508Y379996D01*
X505510Y380095D01*
X505516Y380195D01*
X505525Y380294D01*
X505538Y380392D01*
X505555Y380490D01*
X505576Y380588D01*
X505601Y380684D01*
X505629Y380779D01*
X505661Y380873D01*
X505696Y380966D01*
X505735Y381058D01*
X505778Y381148D01*
X505823Y381236D01*
X505873Y381323D01*
X505925Y381407D01*
X505981Y381490D01*
X506039Y381570D01*
X506101Y381648D01*
X506166Y381723D01*
X506234Y381796D01*
X506304Y381866D01*
X506377Y381934D01*
X506452Y381999D01*
X506530Y382061D01*
X506610Y382119D01*
X506693Y382175D01*
X506777Y382227D01*
X506864Y382277D01*
X506952Y382322D01*
X507042Y382365D01*
X507134Y382404D01*
X507226Y382439D01*
X507321Y382471D01*
X507416Y382499D01*
X507512Y382524D01*
X507610Y382545D01*
X507708Y382562D01*
X507806Y382575D01*
X507905Y382584D01*
X508005Y382590D01*
X508104Y382592D01*
X510701Y382592D01*
D13*
X467106Y364868D02*
X467106Y358264D01*
X468940Y364868D02*
X465271Y364868D01*
X471471Y358264D02*
X474406Y358264D01*
X471471Y358264D02*
X471471Y364868D01*
X474406Y364868D01*
X473672Y361933D02*
X471471Y361933D01*
X477018Y364868D02*
X477018Y358264D01*
X477018Y364868D02*
X479953Y364868D01*
X479953Y361933D02*
X477018Y361933D01*
X483748Y364868D02*
X483748Y358264D01*
X485582Y364868D02*
X481913Y364868D01*
X491301Y359732D02*
X492768Y364868D01*
X491301Y359732D02*
X494970Y359732D01*
X493869Y361199D02*
X493869Y358264D01*
X497702Y358264D02*
X499536Y358264D01*
X499621Y358266D01*
X499705Y358272D01*
X499789Y358282D01*
X499873Y358295D01*
X499956Y358313D01*
X500038Y358334D01*
X500119Y358359D01*
X500199Y358388D01*
X500277Y358420D01*
X500353Y358456D01*
X500428Y358496D01*
X500501Y358539D01*
X500572Y358585D01*
X500641Y358634D01*
X500708Y358687D01*
X500772Y358743D01*
X500833Y358801D01*
X500891Y358862D01*
X500947Y358926D01*
X501000Y358993D01*
X501049Y359062D01*
X501095Y359133D01*
X501138Y359206D01*
X501178Y359281D01*
X501214Y359357D01*
X501246Y359435D01*
X501275Y359515D01*
X501300Y359596D01*
X501321Y359678D01*
X501339Y359761D01*
X501352Y359845D01*
X501362Y359929D01*
X501368Y360013D01*
X501370Y360098D01*
X501368Y360183D01*
X501362Y360267D01*
X501352Y360351D01*
X501339Y360435D01*
X501321Y360518D01*
X501300Y360600D01*
X501275Y360681D01*
X501246Y360761D01*
X501214Y360839D01*
X501178Y360915D01*
X501138Y360990D01*
X501095Y361063D01*
X501049Y361134D01*
X501000Y361203D01*
X500947Y361270D01*
X500891Y361334D01*
X500833Y361395D01*
X500772Y361453D01*
X500708Y361509D01*
X500641Y361562D01*
X500572Y361611D01*
X500501Y361657D01*
X500428Y361700D01*
X500353Y361740D01*
X500277Y361776D01*
X500199Y361808D01*
X500119Y361837D01*
X500038Y361862D01*
X499956Y361883D01*
X499873Y361901D01*
X499789Y361914D01*
X499705Y361924D01*
X499621Y361930D01*
X499536Y361932D01*
X499903Y364868D02*
X497702Y364868D01*
X499903Y364868D02*
X499979Y364866D01*
X500054Y364860D01*
X500129Y364851D01*
X500203Y364837D01*
X500277Y364820D01*
X500349Y364798D01*
X500421Y364774D01*
X500491Y364745D01*
X500559Y364713D01*
X500626Y364678D01*
X500691Y364639D01*
X500754Y364596D01*
X500814Y364551D01*
X500872Y364503D01*
X500928Y364451D01*
X500980Y364397D01*
X501030Y364340D01*
X501077Y364281D01*
X501121Y364220D01*
X501162Y364156D01*
X501199Y364090D01*
X501233Y364022D01*
X501263Y363953D01*
X501290Y363882D01*
X501313Y363810D01*
X501332Y363737D01*
X501347Y363663D01*
X501359Y363588D01*
X501367Y363513D01*
X501371Y363438D01*
X501371Y363362D01*
X501367Y363287D01*
X501359Y363212D01*
X501347Y363137D01*
X501332Y363063D01*
X501313Y362990D01*
X501290Y362918D01*
X501263Y362847D01*
X501233Y362778D01*
X501199Y362710D01*
X501162Y362644D01*
X501121Y362580D01*
X501077Y362519D01*
X501030Y362460D01*
X500980Y362403D01*
X500928Y362349D01*
X500872Y362297D01*
X500814Y362249D01*
X500754Y362204D01*
X500691Y362161D01*
X500626Y362122D01*
X500559Y362087D01*
X500491Y362055D01*
X500421Y362026D01*
X500349Y362002D01*
X500277Y361980D01*
X500203Y361963D01*
X500129Y361949D01*
X500054Y361940D01*
X499979Y361934D01*
X499903Y361932D01*
X499903Y361933D02*
X498435Y361933D01*
X504103Y361566D02*
X504105Y361711D01*
X504111Y361856D01*
X504120Y362001D01*
X504134Y362146D01*
X504151Y362290D01*
X504173Y362433D01*
X504198Y362577D01*
X504227Y362719D01*
X504259Y362860D01*
X504296Y363001D01*
X504336Y363140D01*
X504380Y363279D01*
X504427Y363416D01*
X504478Y363552D01*
X504533Y363686D01*
X504591Y363819D01*
X504653Y363951D01*
X504652Y363951D02*
X504678Y364020D01*
X504707Y364087D01*
X504740Y364153D01*
X504776Y364216D01*
X504816Y364278D01*
X504859Y364337D01*
X504905Y364394D01*
X504954Y364448D01*
X505006Y364500D01*
X505061Y364549D01*
X505118Y364594D01*
X505178Y364637D01*
X505240Y364676D01*
X505303Y364712D01*
X505369Y364745D01*
X505436Y364773D01*
X505505Y364799D01*
X505575Y364820D01*
X505646Y364838D01*
X505718Y364851D01*
X505791Y364861D01*
X505864Y364867D01*
X505937Y364869D01*
X505937Y364868D02*
X506010Y364866D01*
X506083Y364860D01*
X506156Y364850D01*
X506228Y364837D01*
X506299Y364819D01*
X506369Y364798D01*
X506437Y364772D01*
X506505Y364744D01*
X506570Y364711D01*
X506634Y364675D01*
X506696Y364636D01*
X506755Y364594D01*
X506812Y364548D01*
X506867Y364499D01*
X506919Y364448D01*
X506968Y364393D01*
X507014Y364336D01*
X507057Y364277D01*
X507097Y364216D01*
X507133Y364152D01*
X507166Y364087D01*
X507195Y364020D01*
X507221Y363951D01*
X507283Y363819D01*
X507341Y363686D01*
X507396Y363552D01*
X507447Y363416D01*
X507494Y363279D01*
X507538Y363140D01*
X507578Y363001D01*
X507615Y362860D01*
X507647Y362719D01*
X507676Y362577D01*
X507701Y362434D01*
X507723Y362290D01*
X507740Y362146D01*
X507754Y362001D01*
X507763Y361856D01*
X507769Y361711D01*
X507771Y361566D01*
X504103Y361566D02*
X504105Y361421D01*
X504111Y361276D01*
X504120Y361131D01*
X504134Y360986D01*
X504151Y360842D01*
X504173Y360699D01*
X504198Y360556D01*
X504226Y360413D01*
X504259Y360272D01*
X504296Y360131D01*
X504336Y359992D01*
X504380Y359853D01*
X504427Y359716D01*
X504478Y359580D01*
X504533Y359446D01*
X504591Y359313D01*
X504653Y359181D01*
X504652Y359182D02*
X504678Y359113D01*
X504707Y359046D01*
X504740Y358980D01*
X504776Y358917D01*
X504816Y358855D01*
X504859Y358796D01*
X504905Y358739D01*
X504954Y358685D01*
X505006Y358633D01*
X505061Y358584D01*
X505118Y358539D01*
X505178Y358496D01*
X505240Y358457D01*
X505303Y358421D01*
X505369Y358388D01*
X505436Y358360D01*
X505505Y358334D01*
X505575Y358313D01*
X505646Y358295D01*
X505718Y358282D01*
X505791Y358272D01*
X505864Y358266D01*
X505937Y358264D01*
X507221Y359181D02*
X507283Y359313D01*
X507341Y359446D01*
X507396Y359580D01*
X507447Y359716D01*
X507494Y359853D01*
X507538Y359992D01*
X507578Y360131D01*
X507615Y360272D01*
X507647Y360413D01*
X507676Y360555D01*
X507701Y360698D01*
X507723Y360842D01*
X507740Y360986D01*
X507754Y361131D01*
X507763Y361276D01*
X507769Y361421D01*
X507771Y361566D01*
X507221Y359181D02*
X507195Y359112D01*
X507166Y359045D01*
X507133Y358980D01*
X507097Y358916D01*
X507057Y358855D01*
X507014Y358796D01*
X506968Y358739D01*
X506919Y358684D01*
X506867Y358633D01*
X506812Y358584D01*
X506755Y358538D01*
X506696Y358496D01*
X506634Y358457D01*
X506570Y358421D01*
X506505Y358388D01*
X506437Y358360D01*
X506369Y358334D01*
X506299Y358313D01*
X506227Y358295D01*
X506156Y358282D01*
X506083Y358272D01*
X506010Y358266D01*
X505937Y358264D01*
X504469Y359732D02*
X507404Y363400D01*
X510503Y361566D02*
X510505Y361711D01*
X510511Y361856D01*
X510520Y362001D01*
X510534Y362146D01*
X510551Y362290D01*
X510573Y362433D01*
X510598Y362577D01*
X510627Y362719D01*
X510659Y362860D01*
X510696Y363001D01*
X510736Y363140D01*
X510780Y363279D01*
X510827Y363416D01*
X510878Y363552D01*
X510933Y363686D01*
X510991Y363819D01*
X511053Y363951D01*
X511079Y364020D01*
X511108Y364087D01*
X511141Y364153D01*
X511177Y364216D01*
X511217Y364278D01*
X511260Y364337D01*
X511306Y364394D01*
X511355Y364448D01*
X511407Y364500D01*
X511462Y364549D01*
X511519Y364594D01*
X511579Y364637D01*
X511641Y364676D01*
X511704Y364712D01*
X511770Y364745D01*
X511837Y364773D01*
X511906Y364799D01*
X511976Y364820D01*
X512047Y364838D01*
X512119Y364851D01*
X512192Y364861D01*
X512265Y364867D01*
X512338Y364869D01*
X512338Y364868D02*
X512411Y364866D01*
X512484Y364860D01*
X512557Y364850D01*
X512629Y364837D01*
X512700Y364819D01*
X512770Y364798D01*
X512838Y364772D01*
X512906Y364744D01*
X512971Y364711D01*
X513035Y364675D01*
X513097Y364636D01*
X513156Y364594D01*
X513213Y364548D01*
X513268Y364499D01*
X513320Y364448D01*
X513369Y364393D01*
X513415Y364336D01*
X513458Y364277D01*
X513498Y364216D01*
X513534Y364152D01*
X513567Y364087D01*
X513596Y364020D01*
X513622Y363951D01*
X513684Y363819D01*
X513742Y363686D01*
X513797Y363552D01*
X513848Y363416D01*
X513895Y363279D01*
X513939Y363140D01*
X513979Y363001D01*
X514016Y362860D01*
X514048Y362719D01*
X514077Y362577D01*
X514102Y362434D01*
X514124Y362290D01*
X514141Y362146D01*
X514155Y362001D01*
X514164Y361856D01*
X514170Y361711D01*
X514172Y361566D01*
X510504Y361566D02*
X510506Y361421D01*
X510512Y361276D01*
X510521Y361131D01*
X510535Y360986D01*
X510552Y360842D01*
X510574Y360699D01*
X510599Y360556D01*
X510627Y360413D01*
X510660Y360272D01*
X510697Y360131D01*
X510737Y359992D01*
X510781Y359853D01*
X510828Y359716D01*
X510879Y359580D01*
X510934Y359446D01*
X510992Y359313D01*
X511054Y359181D01*
X511053Y359182D02*
X511079Y359113D01*
X511108Y359046D01*
X511141Y358980D01*
X511177Y358917D01*
X511217Y358855D01*
X511260Y358796D01*
X511306Y358739D01*
X511355Y358685D01*
X511407Y358633D01*
X511462Y358584D01*
X511519Y358539D01*
X511579Y358496D01*
X511641Y358457D01*
X511704Y358421D01*
X511770Y358388D01*
X511837Y358360D01*
X511906Y358334D01*
X511976Y358313D01*
X512047Y358295D01*
X512119Y358282D01*
X512192Y358272D01*
X512265Y358266D01*
X512338Y358264D01*
X513622Y359181D02*
X513684Y359313D01*
X513742Y359446D01*
X513797Y359580D01*
X513848Y359716D01*
X513895Y359853D01*
X513939Y359992D01*
X513979Y360131D01*
X514016Y360272D01*
X514048Y360413D01*
X514077Y360555D01*
X514102Y360698D01*
X514124Y360842D01*
X514141Y360986D01*
X514155Y361131D01*
X514164Y361276D01*
X514170Y361421D01*
X514172Y361566D01*
X513622Y359181D02*
X513596Y359112D01*
X513567Y359045D01*
X513534Y358980D01*
X513498Y358916D01*
X513458Y358855D01*
X513415Y358796D01*
X513369Y358739D01*
X513320Y358684D01*
X513268Y358633D01*
X513213Y358584D01*
X513156Y358538D01*
X513097Y358496D01*
X513035Y358457D01*
X512971Y358421D01*
X512906Y358388D01*
X512838Y358360D01*
X512770Y358334D01*
X512700Y358313D01*
X512628Y358295D01*
X512557Y358282D01*
X512484Y358272D01*
X512411Y358266D01*
X512338Y358264D01*
X510870Y359732D02*
X513805Y363400D01*
D10*
X415000Y390400D02*
X375000Y390400D01*
X415000Y390400D02*
X415000Y400400D01*
X412500Y400400D01*
X377500Y400400D01*
X375000Y400400D01*
X375000Y390400D01*
X377500Y400400D02*
X379064Y425424D01*
X379093Y425811D01*
X379131Y426198D01*
X379179Y426584D01*
X379236Y426968D01*
X379303Y427351D01*
X379378Y427732D01*
X379463Y428111D01*
X379558Y428488D01*
X379661Y428862D01*
X379773Y429234D01*
X379895Y429603D01*
X380025Y429969D01*
X380164Y430332D01*
X380312Y430691D01*
X380469Y431046D01*
X380634Y431398D01*
X380808Y431746D01*
X380990Y432089D01*
X381180Y432427D01*
X381379Y432761D01*
X381586Y433090D01*
X381800Y433414D01*
X382023Y433732D01*
X382253Y434045D01*
X382491Y434353D01*
X382736Y434654D01*
X382988Y434949D01*
X383248Y435239D01*
X383514Y435521D01*
X383787Y435798D01*
X384067Y436067D01*
X384353Y436330D01*
X384646Y436585D01*
X384945Y436834D01*
X385249Y437075D01*
X385560Y437308D01*
X385876Y437534D01*
X386197Y437752D01*
X386524Y437962D01*
X386856Y438165D01*
X387192Y438359D01*
X387533Y438545D01*
X387879Y438722D01*
X388229Y438891D01*
X388583Y439052D01*
X388940Y439204D01*
X389301Y439347D01*
X389666Y439481D01*
X390034Y439607D01*
X390404Y439723D01*
X390778Y439830D01*
X391153Y439929D01*
X391532Y440018D01*
X391912Y440098D01*
X392294Y440168D01*
X392677Y440229D01*
X393062Y440281D01*
X393449Y440324D01*
X393836Y440357D01*
X394223Y440381D01*
X394612Y440395D01*
X395000Y440400D01*
X410936Y425424D02*
X412500Y400400D01*
X410936Y425424D02*
X410907Y425811D01*
X410869Y426198D01*
X410821Y426584D01*
X410764Y426968D01*
X410697Y427351D01*
X410622Y427732D01*
X410537Y428111D01*
X410442Y428488D01*
X410339Y428862D01*
X410227Y429234D01*
X410105Y429603D01*
X409975Y429969D01*
X409836Y430332D01*
X409688Y430691D01*
X409531Y431046D01*
X409366Y431398D01*
X409192Y431746D01*
X409010Y432089D01*
X408820Y432427D01*
X408621Y432761D01*
X408414Y433090D01*
X408200Y433414D01*
X407977Y433732D01*
X407747Y434045D01*
X407509Y434353D01*
X407264Y434654D01*
X407012Y434949D01*
X406752Y435239D01*
X406486Y435521D01*
X406213Y435798D01*
X405933Y436067D01*
X405647Y436330D01*
X405354Y436585D01*
X405055Y436834D01*
X404751Y437075D01*
X404440Y437308D01*
X404124Y437534D01*
X403803Y437752D01*
X403476Y437962D01*
X403144Y438165D01*
X402808Y438359D01*
X402467Y438545D01*
X402121Y438722D01*
X401771Y438891D01*
X401417Y439052D01*
X401060Y439204D01*
X400699Y439347D01*
X400334Y439481D01*
X399966Y439607D01*
X399596Y439723D01*
X399222Y439830D01*
X398847Y439929D01*
X398468Y440018D01*
X398088Y440098D01*
X397706Y440168D01*
X397323Y440229D01*
X396938Y440281D01*
X396551Y440324D01*
X396164Y440357D01*
X395777Y440381D01*
X395388Y440395D01*
X395000Y440400D01*
D12*
X370701Y370908D02*
X365508Y370908D01*
X365508Y382592D01*
X370701Y382592D01*
X369403Y377399D02*
X365508Y377399D01*
X418104Y370908D02*
X420701Y370908D01*
X418104Y370908D02*
X418005Y370910D01*
X417905Y370916D01*
X417806Y370925D01*
X417708Y370938D01*
X417610Y370955D01*
X417512Y370976D01*
X417416Y371001D01*
X417321Y371029D01*
X417227Y371061D01*
X417134Y371096D01*
X417042Y371135D01*
X416952Y371178D01*
X416864Y371223D01*
X416777Y371273D01*
X416693Y371325D01*
X416610Y371381D01*
X416530Y371439D01*
X416452Y371501D01*
X416377Y371566D01*
X416304Y371634D01*
X416234Y371704D01*
X416166Y371777D01*
X416101Y371852D01*
X416039Y371930D01*
X415981Y372010D01*
X415925Y372093D01*
X415873Y372177D01*
X415823Y372264D01*
X415778Y372352D01*
X415735Y372442D01*
X415696Y372534D01*
X415661Y372627D01*
X415629Y372721D01*
X415601Y372816D01*
X415576Y372912D01*
X415555Y373010D01*
X415538Y373108D01*
X415525Y373206D01*
X415516Y373305D01*
X415510Y373405D01*
X415508Y373504D01*
X415508Y379996D01*
X415510Y380095D01*
X415516Y380195D01*
X415525Y380294D01*
X415538Y380392D01*
X415555Y380490D01*
X415576Y380588D01*
X415601Y380684D01*
X415629Y380779D01*
X415661Y380873D01*
X415696Y380966D01*
X415735Y381058D01*
X415778Y381148D01*
X415823Y381236D01*
X415873Y381323D01*
X415925Y381407D01*
X415981Y381490D01*
X416039Y381570D01*
X416101Y381648D01*
X416166Y381723D01*
X416234Y381796D01*
X416304Y381866D01*
X416377Y381934D01*
X416452Y381999D01*
X416530Y382061D01*
X416610Y382119D01*
X416693Y382175D01*
X416777Y382227D01*
X416864Y382277D01*
X416952Y382322D01*
X417042Y382365D01*
X417134Y382404D01*
X417226Y382439D01*
X417321Y382471D01*
X417416Y382499D01*
X417512Y382524D01*
X417610Y382545D01*
X417708Y382562D01*
X417806Y382575D01*
X417905Y382584D01*
X418005Y382590D01*
X418104Y382592D01*
X420701Y382592D01*
D13*
X377106Y364868D02*
X377106Y358264D01*
X378940Y364868D02*
X375271Y364868D01*
X381471Y358264D02*
X384406Y358264D01*
X381471Y358264D02*
X381471Y364868D01*
X384406Y364868D01*
X383672Y361933D02*
X381471Y361933D01*
X387018Y364868D02*
X387018Y358264D01*
X387018Y364868D02*
X389953Y364868D01*
X389953Y361933D02*
X387018Y361933D01*
X393748Y364868D02*
X393748Y358264D01*
X395582Y364868D02*
X391913Y364868D01*
X401301Y359732D02*
X402768Y364868D01*
X401301Y359732D02*
X404970Y359732D01*
X403869Y361199D02*
X403869Y358264D01*
X407702Y358264D02*
X409536Y358264D01*
X409621Y358266D01*
X409705Y358272D01*
X409789Y358282D01*
X409873Y358295D01*
X409956Y358313D01*
X410038Y358334D01*
X410119Y358359D01*
X410199Y358388D01*
X410277Y358420D01*
X410353Y358456D01*
X410428Y358496D01*
X410501Y358539D01*
X410572Y358585D01*
X410641Y358634D01*
X410708Y358687D01*
X410772Y358743D01*
X410833Y358801D01*
X410891Y358862D01*
X410947Y358926D01*
X411000Y358993D01*
X411049Y359062D01*
X411095Y359133D01*
X411138Y359206D01*
X411178Y359281D01*
X411214Y359357D01*
X411246Y359435D01*
X411275Y359515D01*
X411300Y359596D01*
X411321Y359678D01*
X411339Y359761D01*
X411352Y359845D01*
X411362Y359929D01*
X411368Y360013D01*
X411370Y360098D01*
X411368Y360183D01*
X411362Y360267D01*
X411352Y360351D01*
X411339Y360435D01*
X411321Y360518D01*
X411300Y360600D01*
X411275Y360681D01*
X411246Y360761D01*
X411214Y360839D01*
X411178Y360915D01*
X411138Y360990D01*
X411095Y361063D01*
X411049Y361134D01*
X411000Y361203D01*
X410947Y361270D01*
X410891Y361334D01*
X410833Y361395D01*
X410772Y361453D01*
X410708Y361509D01*
X410641Y361562D01*
X410572Y361611D01*
X410501Y361657D01*
X410428Y361700D01*
X410353Y361740D01*
X410277Y361776D01*
X410199Y361808D01*
X410119Y361837D01*
X410038Y361862D01*
X409956Y361883D01*
X409873Y361901D01*
X409789Y361914D01*
X409705Y361924D01*
X409621Y361930D01*
X409536Y361932D01*
X409903Y364868D02*
X407702Y364868D01*
X409903Y364868D02*
X409979Y364866D01*
X410054Y364860D01*
X410129Y364851D01*
X410203Y364837D01*
X410277Y364820D01*
X410349Y364798D01*
X410421Y364774D01*
X410491Y364745D01*
X410559Y364713D01*
X410626Y364678D01*
X410691Y364639D01*
X410754Y364596D01*
X410814Y364551D01*
X410872Y364503D01*
X410928Y364451D01*
X410980Y364397D01*
X411030Y364340D01*
X411077Y364281D01*
X411121Y364220D01*
X411162Y364156D01*
X411199Y364090D01*
X411233Y364022D01*
X411263Y363953D01*
X411290Y363882D01*
X411313Y363810D01*
X411332Y363737D01*
X411347Y363663D01*
X411359Y363588D01*
X411367Y363513D01*
X411371Y363438D01*
X411371Y363362D01*
X411367Y363287D01*
X411359Y363212D01*
X411347Y363137D01*
X411332Y363063D01*
X411313Y362990D01*
X411290Y362918D01*
X411263Y362847D01*
X411233Y362778D01*
X411199Y362710D01*
X411162Y362644D01*
X411121Y362580D01*
X411077Y362519D01*
X411030Y362460D01*
X410980Y362403D01*
X410928Y362349D01*
X410872Y362297D01*
X410814Y362249D01*
X410754Y362204D01*
X410691Y362161D01*
X410626Y362122D01*
X410559Y362087D01*
X410491Y362055D01*
X410421Y362026D01*
X410349Y362002D01*
X410277Y361980D01*
X410203Y361963D01*
X410129Y361949D01*
X410054Y361940D01*
X409979Y361934D01*
X409903Y361932D01*
X409903Y361933D02*
X408435Y361933D01*
X414103Y361566D02*
X414105Y361711D01*
X414111Y361856D01*
X414120Y362001D01*
X414134Y362146D01*
X414151Y362290D01*
X414173Y362433D01*
X414198Y362577D01*
X414227Y362719D01*
X414259Y362860D01*
X414296Y363001D01*
X414336Y363140D01*
X414380Y363279D01*
X414427Y363416D01*
X414478Y363552D01*
X414533Y363686D01*
X414591Y363819D01*
X414653Y363951D01*
X414652Y363951D02*
X414678Y364020D01*
X414707Y364087D01*
X414740Y364153D01*
X414776Y364216D01*
X414816Y364278D01*
X414859Y364337D01*
X414905Y364394D01*
X414954Y364448D01*
X415006Y364500D01*
X415061Y364549D01*
X415118Y364594D01*
X415178Y364637D01*
X415240Y364676D01*
X415303Y364712D01*
X415369Y364745D01*
X415436Y364773D01*
X415505Y364799D01*
X415575Y364820D01*
X415646Y364838D01*
X415718Y364851D01*
X415791Y364861D01*
X415864Y364867D01*
X415937Y364869D01*
X415937Y364868D02*
X416010Y364866D01*
X416083Y364860D01*
X416156Y364850D01*
X416228Y364837D01*
X416299Y364819D01*
X416369Y364798D01*
X416437Y364772D01*
X416505Y364744D01*
X416570Y364711D01*
X416634Y364675D01*
X416696Y364636D01*
X416755Y364594D01*
X416812Y364548D01*
X416867Y364499D01*
X416919Y364448D01*
X416968Y364393D01*
X417014Y364336D01*
X417057Y364277D01*
X417097Y364216D01*
X417133Y364152D01*
X417166Y364087D01*
X417195Y364020D01*
X417221Y363951D01*
X417283Y363819D01*
X417341Y363686D01*
X417396Y363552D01*
X417447Y363416D01*
X417494Y363279D01*
X417538Y363140D01*
X417578Y363001D01*
X417615Y362860D01*
X417647Y362719D01*
X417676Y362577D01*
X417701Y362434D01*
X417723Y362290D01*
X417740Y362146D01*
X417754Y362001D01*
X417763Y361856D01*
X417769Y361711D01*
X417771Y361566D01*
X414103Y361566D02*
X414105Y361421D01*
X414111Y361276D01*
X414120Y361131D01*
X414134Y360986D01*
X414151Y360842D01*
X414173Y360699D01*
X414198Y360556D01*
X414226Y360413D01*
X414259Y360272D01*
X414296Y360131D01*
X414336Y359992D01*
X414380Y359853D01*
X414427Y359716D01*
X414478Y359580D01*
X414533Y359446D01*
X414591Y359313D01*
X414653Y359181D01*
X414652Y359182D02*
X414678Y359113D01*
X414707Y359046D01*
X414740Y358980D01*
X414776Y358917D01*
X414816Y358855D01*
X414859Y358796D01*
X414905Y358739D01*
X414954Y358685D01*
X415006Y358633D01*
X415061Y358584D01*
X415118Y358539D01*
X415178Y358496D01*
X415240Y358457D01*
X415303Y358421D01*
X415369Y358388D01*
X415436Y358360D01*
X415505Y358334D01*
X415575Y358313D01*
X415646Y358295D01*
X415718Y358282D01*
X415791Y358272D01*
X415864Y358266D01*
X415937Y358264D01*
X417221Y359181D02*
X417283Y359313D01*
X417341Y359446D01*
X417396Y359580D01*
X417447Y359716D01*
X417494Y359853D01*
X417538Y359992D01*
X417578Y360131D01*
X417615Y360272D01*
X417647Y360413D01*
X417676Y360555D01*
X417701Y360698D01*
X417723Y360842D01*
X417740Y360986D01*
X417754Y361131D01*
X417763Y361276D01*
X417769Y361421D01*
X417771Y361566D01*
X417221Y359181D02*
X417195Y359112D01*
X417166Y359045D01*
X417133Y358980D01*
X417097Y358916D01*
X417057Y358855D01*
X417014Y358796D01*
X416968Y358739D01*
X416919Y358684D01*
X416867Y358633D01*
X416812Y358584D01*
X416755Y358538D01*
X416696Y358496D01*
X416634Y358457D01*
X416570Y358421D01*
X416505Y358388D01*
X416437Y358360D01*
X416369Y358334D01*
X416299Y358313D01*
X416227Y358295D01*
X416156Y358282D01*
X416083Y358272D01*
X416010Y358266D01*
X415937Y358264D01*
X414469Y359732D02*
X417404Y363400D01*
X420503Y361566D02*
X420505Y361711D01*
X420511Y361856D01*
X420520Y362001D01*
X420534Y362146D01*
X420551Y362290D01*
X420573Y362433D01*
X420598Y362577D01*
X420627Y362719D01*
X420659Y362860D01*
X420696Y363001D01*
X420736Y363140D01*
X420780Y363279D01*
X420827Y363416D01*
X420878Y363552D01*
X420933Y363686D01*
X420991Y363819D01*
X421053Y363951D01*
X421079Y364020D01*
X421108Y364087D01*
X421141Y364153D01*
X421177Y364216D01*
X421217Y364278D01*
X421260Y364337D01*
X421306Y364394D01*
X421355Y364448D01*
X421407Y364500D01*
X421462Y364549D01*
X421519Y364594D01*
X421579Y364637D01*
X421641Y364676D01*
X421704Y364712D01*
X421770Y364745D01*
X421837Y364773D01*
X421906Y364799D01*
X421976Y364820D01*
X422047Y364838D01*
X422119Y364851D01*
X422192Y364861D01*
X422265Y364867D01*
X422338Y364869D01*
X422338Y364868D02*
X422411Y364866D01*
X422484Y364860D01*
X422557Y364850D01*
X422629Y364837D01*
X422700Y364819D01*
X422770Y364798D01*
X422838Y364772D01*
X422906Y364744D01*
X422971Y364711D01*
X423035Y364675D01*
X423097Y364636D01*
X423156Y364594D01*
X423213Y364548D01*
X423268Y364499D01*
X423320Y364448D01*
X423369Y364393D01*
X423415Y364336D01*
X423458Y364277D01*
X423498Y364216D01*
X423534Y364152D01*
X423567Y364087D01*
X423596Y364020D01*
X423622Y363951D01*
X423684Y363819D01*
X423742Y363686D01*
X423797Y363552D01*
X423848Y363416D01*
X423895Y363279D01*
X423939Y363140D01*
X423979Y363001D01*
X424016Y362860D01*
X424048Y362719D01*
X424077Y362577D01*
X424102Y362434D01*
X424124Y362290D01*
X424141Y362146D01*
X424155Y362001D01*
X424164Y361856D01*
X424170Y361711D01*
X424172Y361566D01*
X420504Y361566D02*
X420506Y361421D01*
X420512Y361276D01*
X420521Y361131D01*
X420535Y360986D01*
X420552Y360842D01*
X420574Y360699D01*
X420599Y360556D01*
X420627Y360413D01*
X420660Y360272D01*
X420697Y360131D01*
X420737Y359992D01*
X420781Y359853D01*
X420828Y359716D01*
X420879Y359580D01*
X420934Y359446D01*
X420992Y359313D01*
X421054Y359181D01*
X421053Y359182D02*
X421079Y359113D01*
X421108Y359046D01*
X421141Y358980D01*
X421177Y358917D01*
X421217Y358855D01*
X421260Y358796D01*
X421306Y358739D01*
X421355Y358685D01*
X421407Y358633D01*
X421462Y358584D01*
X421519Y358539D01*
X421579Y358496D01*
X421641Y358457D01*
X421704Y358421D01*
X421770Y358388D01*
X421837Y358360D01*
X421906Y358334D01*
X421976Y358313D01*
X422047Y358295D01*
X422119Y358282D01*
X422192Y358272D01*
X422265Y358266D01*
X422338Y358264D01*
X423622Y359181D02*
X423684Y359313D01*
X423742Y359446D01*
X423797Y359580D01*
X423848Y359716D01*
X423895Y359853D01*
X423939Y359992D01*
X423979Y360131D01*
X424016Y360272D01*
X424048Y360413D01*
X424077Y360555D01*
X424102Y360698D01*
X424124Y360842D01*
X424141Y360986D01*
X424155Y361131D01*
X424164Y361276D01*
X424170Y361421D01*
X424172Y361566D01*
X423622Y359181D02*
X423596Y359112D01*
X423567Y359045D01*
X423534Y358980D01*
X423498Y358916D01*
X423458Y358855D01*
X423415Y358796D01*
X423369Y358739D01*
X423320Y358684D01*
X423268Y358633D01*
X423213Y358584D01*
X423156Y358538D01*
X423097Y358496D01*
X423035Y358457D01*
X422971Y358421D01*
X422906Y358388D01*
X422838Y358360D01*
X422770Y358334D01*
X422700Y358313D01*
X422628Y358295D01*
X422557Y358282D01*
X422484Y358272D01*
X422411Y358266D01*
X422338Y358264D01*
X420870Y359732D02*
X423805Y363400D01*
D10*
X507025Y418936D02*
X511851Y418936D01*
X507025Y418936D02*
X507025Y420277D01*
X507027Y420348D01*
X507033Y420420D01*
X507042Y420490D01*
X507055Y420560D01*
X507072Y420630D01*
X507093Y420698D01*
X507117Y420765D01*
X507145Y420831D01*
X507176Y420895D01*
X507211Y420958D01*
X507249Y421018D01*
X507290Y421077D01*
X507334Y421133D01*
X507381Y421187D01*
X507430Y421238D01*
X507483Y421286D01*
X507538Y421332D01*
X507595Y421374D01*
X507655Y421414D01*
X507716Y421450D01*
X507780Y421483D01*
X507845Y421512D01*
X507911Y421538D01*
X507979Y421561D01*
X508048Y421580D01*
X508118Y421595D01*
X508188Y421606D01*
X508259Y421614D01*
X508330Y421618D01*
X508402Y421618D01*
X508473Y421614D01*
X508544Y421606D01*
X508614Y421595D01*
X508684Y421580D01*
X508753Y421561D01*
X508821Y421538D01*
X508887Y421512D01*
X508952Y421483D01*
X509016Y421450D01*
X509077Y421414D01*
X509137Y421374D01*
X509194Y421332D01*
X509249Y421286D01*
X509302Y421238D01*
X509351Y421187D01*
X509398Y421133D01*
X509442Y421077D01*
X509483Y421018D01*
X509521Y420958D01*
X509556Y420895D01*
X509587Y420831D01*
X509615Y420765D01*
X509639Y420698D01*
X509660Y420630D01*
X509677Y420560D01*
X509690Y420490D01*
X509699Y420420D01*
X509705Y420348D01*
X509707Y420277D01*
X509706Y420277D02*
X509706Y418936D01*
X509706Y420545D02*
X511851Y421617D01*
X511851Y424605D02*
X507025Y424605D01*
X507025Y425946D01*
X507027Y426017D01*
X507033Y426089D01*
X507042Y426159D01*
X507055Y426229D01*
X507072Y426299D01*
X507093Y426367D01*
X507117Y426434D01*
X507145Y426500D01*
X507176Y426564D01*
X507211Y426627D01*
X507249Y426687D01*
X507290Y426746D01*
X507334Y426802D01*
X507381Y426856D01*
X507430Y426907D01*
X507483Y426955D01*
X507538Y427001D01*
X507595Y427043D01*
X507655Y427083D01*
X507716Y427119D01*
X507780Y427152D01*
X507845Y427181D01*
X507911Y427207D01*
X507979Y427230D01*
X508048Y427249D01*
X508118Y427264D01*
X508188Y427275D01*
X508259Y427283D01*
X508330Y427287D01*
X508402Y427287D01*
X508473Y427283D01*
X508544Y427275D01*
X508614Y427264D01*
X508684Y427249D01*
X508753Y427230D01*
X508821Y427207D01*
X508887Y427181D01*
X508952Y427152D01*
X509016Y427119D01*
X509077Y427083D01*
X509137Y427043D01*
X509194Y427001D01*
X509249Y426955D01*
X509302Y426907D01*
X509351Y426856D01*
X509398Y426802D01*
X509442Y426746D01*
X509483Y426687D01*
X509521Y426627D01*
X509556Y426564D01*
X509587Y426500D01*
X509615Y426434D01*
X509639Y426367D01*
X509660Y426299D01*
X509677Y426229D01*
X509690Y426159D01*
X509699Y426089D01*
X509705Y426017D01*
X509707Y425946D01*
X509706Y425946D02*
X509706Y424605D01*
X509706Y426214D02*
X511851Y427286D01*
X511851Y430230D02*
X511851Y432375D01*
X511851Y430230D02*
X507025Y430230D01*
X507025Y432375D01*
X509170Y431839D02*
X509170Y430230D01*
X508097Y434783D02*
X507025Y436123D01*
X511851Y436123D01*
X511851Y434783D02*
X511851Y437464D01*
X395851Y414536D02*
X391025Y414536D01*
X391025Y415877D01*
X391027Y415948D01*
X391033Y416020D01*
X391042Y416090D01*
X391055Y416160D01*
X391072Y416230D01*
X391093Y416298D01*
X391117Y416365D01*
X391145Y416431D01*
X391176Y416495D01*
X391211Y416558D01*
X391249Y416618D01*
X391290Y416677D01*
X391334Y416733D01*
X391381Y416787D01*
X391430Y416838D01*
X391483Y416886D01*
X391538Y416932D01*
X391595Y416974D01*
X391655Y417014D01*
X391716Y417050D01*
X391780Y417083D01*
X391845Y417112D01*
X391911Y417138D01*
X391979Y417161D01*
X392048Y417180D01*
X392118Y417195D01*
X392188Y417206D01*
X392259Y417214D01*
X392330Y417218D01*
X392402Y417218D01*
X392473Y417214D01*
X392544Y417206D01*
X392614Y417195D01*
X392684Y417180D01*
X392753Y417161D01*
X392821Y417138D01*
X392887Y417112D01*
X392952Y417083D01*
X393016Y417050D01*
X393077Y417014D01*
X393137Y416974D01*
X393194Y416932D01*
X393249Y416886D01*
X393302Y416838D01*
X393351Y416787D01*
X393398Y416733D01*
X393442Y416677D01*
X393483Y416618D01*
X393521Y416558D01*
X393556Y416495D01*
X393587Y416431D01*
X393615Y416365D01*
X393639Y416298D01*
X393660Y416230D01*
X393677Y416160D01*
X393690Y416090D01*
X393699Y416020D01*
X393705Y415948D01*
X393707Y415877D01*
X393706Y415877D02*
X393706Y414536D01*
X393706Y416145D02*
X395851Y417217D01*
X395851Y420205D02*
X391025Y420205D01*
X391025Y421546D01*
X391027Y421617D01*
X391033Y421689D01*
X391042Y421759D01*
X391055Y421829D01*
X391072Y421899D01*
X391093Y421967D01*
X391117Y422034D01*
X391145Y422100D01*
X391176Y422164D01*
X391211Y422227D01*
X391249Y422287D01*
X391290Y422346D01*
X391334Y422402D01*
X391381Y422456D01*
X391430Y422507D01*
X391483Y422555D01*
X391538Y422601D01*
X391595Y422643D01*
X391655Y422683D01*
X391716Y422719D01*
X391780Y422752D01*
X391845Y422781D01*
X391911Y422807D01*
X391979Y422830D01*
X392048Y422849D01*
X392118Y422864D01*
X392188Y422875D01*
X392259Y422883D01*
X392330Y422887D01*
X392402Y422887D01*
X392473Y422883D01*
X392544Y422875D01*
X392614Y422864D01*
X392684Y422849D01*
X392753Y422830D01*
X392821Y422807D01*
X392887Y422781D01*
X392952Y422752D01*
X393016Y422719D01*
X393077Y422683D01*
X393137Y422643D01*
X393194Y422601D01*
X393249Y422555D01*
X393302Y422507D01*
X393351Y422456D01*
X393398Y422402D01*
X393442Y422346D01*
X393483Y422287D01*
X393521Y422227D01*
X393556Y422164D01*
X393587Y422100D01*
X393615Y422034D01*
X393639Y421967D01*
X393660Y421899D01*
X393677Y421829D01*
X393690Y421759D01*
X393699Y421689D01*
X393705Y421617D01*
X393707Y421546D01*
X393706Y421546D02*
X393706Y420205D01*
X393706Y421814D02*
X395851Y422886D01*
X395851Y425830D02*
X395851Y427975D01*
X395851Y425830D02*
X391025Y425830D01*
X391025Y427975D01*
X393170Y427439D02*
X393170Y425830D01*
X391025Y431857D02*
X391027Y431925D01*
X391033Y431992D01*
X391042Y432059D01*
X391055Y432126D01*
X391072Y432191D01*
X391093Y432256D01*
X391117Y432319D01*
X391145Y432381D01*
X391176Y432441D01*
X391210Y432499D01*
X391248Y432555D01*
X391288Y432610D01*
X391332Y432661D01*
X391379Y432710D01*
X391428Y432757D01*
X391479Y432801D01*
X391534Y432841D01*
X391590Y432879D01*
X391648Y432913D01*
X391708Y432944D01*
X391770Y432972D01*
X391833Y432996D01*
X391898Y433017D01*
X391963Y433034D01*
X392030Y433047D01*
X392097Y433056D01*
X392164Y433062D01*
X392232Y433064D01*
X391025Y431857D02*
X391027Y431779D01*
X391033Y431701D01*
X391043Y431624D01*
X391056Y431547D01*
X391074Y431471D01*
X391095Y431396D01*
X391120Y431322D01*
X391149Y431250D01*
X391181Y431179D01*
X391217Y431110D01*
X391256Y431042D01*
X391299Y430977D01*
X391345Y430914D01*
X391394Y430853D01*
X391446Y430795D01*
X391501Y430740D01*
X391558Y430687D01*
X391618Y430638D01*
X391681Y430591D01*
X391746Y430548D01*
X391812Y430508D01*
X391881Y430471D01*
X391952Y430438D01*
X392024Y430408D01*
X392098Y430382D01*
X393170Y432662D02*
X393121Y432711D01*
X393069Y432758D01*
X393014Y432801D01*
X392957Y432842D01*
X392898Y432880D01*
X392837Y432914D01*
X392774Y432945D01*
X392710Y432973D01*
X392644Y432997D01*
X392578Y433017D01*
X392510Y433034D01*
X392441Y433047D01*
X392372Y433056D01*
X392302Y433062D01*
X392232Y433064D01*
X393170Y432662D02*
X395851Y430383D01*
X395851Y433064D01*
X431468Y436925D02*
X431468Y441751D01*
X432808Y441751D01*
X432879Y441749D01*
X432951Y441743D01*
X433021Y441734D01*
X433091Y441721D01*
X433161Y441704D01*
X433229Y441683D01*
X433296Y441659D01*
X433362Y441631D01*
X433426Y441600D01*
X433489Y441565D01*
X433549Y441527D01*
X433608Y441486D01*
X433664Y441442D01*
X433718Y441395D01*
X433769Y441346D01*
X433817Y441293D01*
X433863Y441238D01*
X433905Y441181D01*
X433945Y441121D01*
X433981Y441060D01*
X434014Y440996D01*
X434043Y440931D01*
X434069Y440865D01*
X434092Y440797D01*
X434111Y440728D01*
X434126Y440658D01*
X434137Y440588D01*
X434145Y440517D01*
X434149Y440446D01*
X434149Y440374D01*
X434145Y440303D01*
X434137Y440232D01*
X434126Y440162D01*
X434111Y440092D01*
X434092Y440023D01*
X434069Y439955D01*
X434043Y439889D01*
X434014Y439824D01*
X433981Y439760D01*
X433945Y439699D01*
X433905Y439639D01*
X433863Y439582D01*
X433817Y439527D01*
X433769Y439474D01*
X433718Y439425D01*
X433664Y439378D01*
X433608Y439334D01*
X433549Y439293D01*
X433489Y439255D01*
X433426Y439220D01*
X433362Y439189D01*
X433296Y439161D01*
X433229Y439137D01*
X433161Y439116D01*
X433091Y439099D01*
X433021Y439086D01*
X432951Y439077D01*
X432879Y439071D01*
X432808Y439069D01*
X432808Y439070D02*
X431468Y439070D01*
X433076Y439070D02*
X434149Y436925D01*
X436610Y436389D02*
X438755Y436389D01*
X441482Y436925D02*
X443627Y436925D01*
X441482Y436925D02*
X441482Y441751D01*
X443627Y441751D01*
X443091Y439606D02*
X441482Y439606D01*
X446315Y441751D02*
X446315Y436925D01*
X447924Y439070D02*
X446315Y441751D01*
X447924Y439070D02*
X449532Y441751D01*
X449532Y436925D01*
X454584Y437049D02*
X454584Y441875D01*
X455925Y441875D01*
X455996Y441873D01*
X456068Y441867D01*
X456138Y441858D01*
X456208Y441845D01*
X456278Y441828D01*
X456346Y441807D01*
X456413Y441783D01*
X456479Y441755D01*
X456543Y441724D01*
X456606Y441689D01*
X456666Y441651D01*
X456725Y441610D01*
X456781Y441566D01*
X456835Y441519D01*
X456886Y441470D01*
X456934Y441417D01*
X456980Y441362D01*
X457022Y441305D01*
X457062Y441245D01*
X457098Y441184D01*
X457131Y441120D01*
X457160Y441055D01*
X457186Y440989D01*
X457209Y440921D01*
X457228Y440852D01*
X457243Y440782D01*
X457254Y440712D01*
X457262Y440641D01*
X457266Y440570D01*
X457266Y440498D01*
X457262Y440427D01*
X457254Y440356D01*
X457243Y440286D01*
X457228Y440216D01*
X457209Y440147D01*
X457186Y440079D01*
X457160Y440013D01*
X457131Y439948D01*
X457098Y439884D01*
X457062Y439823D01*
X457022Y439763D01*
X456980Y439706D01*
X456934Y439651D01*
X456886Y439598D01*
X456835Y439549D01*
X456781Y439502D01*
X456725Y439458D01*
X456666Y439417D01*
X456606Y439379D01*
X456543Y439344D01*
X456479Y439313D01*
X456413Y439285D01*
X456346Y439261D01*
X456278Y439240D01*
X456208Y439223D01*
X456138Y439210D01*
X456068Y439201D01*
X455996Y439195D01*
X455925Y439193D01*
X455925Y439194D02*
X454584Y439194D01*
X456193Y439194D02*
X457265Y437049D01*
X459726Y436513D02*
X461871Y436513D01*
X464598Y437049D02*
X466743Y437049D01*
X464598Y437049D02*
X464598Y441875D01*
X466743Y441875D01*
X466207Y439730D02*
X464598Y439730D01*
X469431Y441875D02*
X469431Y437049D01*
X471040Y439194D02*
X469431Y441875D01*
X471040Y439194D02*
X472649Y441875D01*
X472649Y437049D01*
X475735Y440803D02*
X477075Y441875D01*
X477075Y437049D01*
X475735Y437049D02*
X478416Y437049D01*
D11*
X420200Y344400D03*
X440200Y344400D03*
X460200Y344400D03*
D14*
X428800Y442500D02*
X428800Y458100D01*
X408900Y458200D02*
X408900Y442600D01*
D15*
X410500Y400300D02*
X470500Y400300D01*
X410500Y400300D02*
X410500Y390300D01*
X470500Y390300D02*
X470500Y400300D01*
X470500Y390300D02*
X410500Y390300D01*
D10*
X415100Y400700D02*
X417061Y432076D01*
X417203Y433984D01*
X417392Y435888D01*
X417625Y437788D01*
X417904Y439681D01*
X418229Y441566D01*
X418599Y443444D01*
X419013Y445312D01*
X419472Y447170D01*
X419976Y449016D01*
X420337Y450222D01*
X420727Y451420D01*
X421146Y452607D01*
X421593Y453784D01*
X422070Y454950D01*
X422574Y456104D01*
X423107Y457245D01*
X423667Y458372D01*
X424254Y459486D01*
X424868Y460586D01*
X425509Y461669D01*
X426176Y462738D01*
X426869Y463789D01*
X427587Y464823D01*
X428330Y465840D01*
X428516Y466082D01*
X428707Y466319D01*
X428905Y466551D01*
X429108Y466779D01*
X429317Y467001D01*
X429531Y467218D01*
X429750Y467430D01*
X429974Y467637D01*
X430203Y467838D01*
X430438Y468033D01*
X430676Y468223D01*
X430920Y468406D01*
X431168Y468584D01*
X431420Y468756D01*
X431676Y468921D01*
X431936Y469080D01*
X432200Y469233D01*
X432468Y469379D01*
X432739Y469519D01*
X432984Y469638D01*
X433232Y469751D01*
X433483Y469858D01*
X433737Y469959D01*
X433993Y470053D01*
X434251Y470142D01*
X434511Y470224D01*
X434773Y470299D01*
X435037Y470368D01*
X435303Y470431D01*
X435570Y470487D01*
X435838Y470537D01*
X436107Y470580D01*
X436378Y470617D01*
X436649Y470647D01*
X436921Y470670D01*
X437193Y470687D01*
X437466Y470697D01*
X437739Y470700D01*
X463139Y432076D02*
X465100Y400700D01*
X463139Y432076D02*
X462997Y433984D01*
X462808Y435888D01*
X462575Y437788D01*
X462296Y439681D01*
X461971Y441566D01*
X461601Y443444D01*
X461187Y445312D01*
X460728Y447170D01*
X460224Y449016D01*
X459863Y450222D01*
X459473Y451420D01*
X459054Y452607D01*
X458607Y453784D01*
X458130Y454950D01*
X457626Y456104D01*
X457093Y457245D01*
X456533Y458372D01*
X455946Y459486D01*
X455332Y460586D01*
X454691Y461669D01*
X454024Y462738D01*
X453331Y463789D01*
X452613Y464823D01*
X451870Y465840D01*
X451684Y466082D01*
X451493Y466319D01*
X451295Y466551D01*
X451092Y466779D01*
X450883Y467001D01*
X450669Y467218D01*
X450450Y467430D01*
X450226Y467637D01*
X449997Y467838D01*
X449762Y468033D01*
X449524Y468223D01*
X449280Y468406D01*
X449032Y468584D01*
X448780Y468756D01*
X448524Y468921D01*
X448264Y469080D01*
X448000Y469233D01*
X447732Y469379D01*
X447461Y469519D01*
X447216Y469638D01*
X446968Y469751D01*
X446717Y469858D01*
X446463Y469959D01*
X446207Y470053D01*
X445949Y470142D01*
X445689Y470224D01*
X445427Y470299D01*
X445163Y470368D01*
X444897Y470431D01*
X444630Y470487D01*
X444362Y470537D01*
X444093Y470580D01*
X443822Y470617D01*
X443551Y470647D01*
X443279Y470670D01*
X443007Y470687D01*
X442734Y470697D01*
X442461Y470700D01*
X437739Y470700D01*
X440100Y430700D02*
X440100Y423700D01*
X439211Y433739D01*
X438329Y443700D02*
X437440Y453738D01*
X436557Y463699D02*
X435668Y473738D01*
X434786Y483699D02*
X433897Y493738D01*
X433015Y503699D02*
X432126Y513737D01*
X431244Y523698D02*
X430355Y533737D01*
X429472Y543698D02*
X428583Y553737D01*
X427701Y563698D02*
X426812Y573736D01*
X425930Y583697D02*
X425041Y593736D01*
X424159Y603697D02*
X423269Y613736D01*
X422387Y623697D02*
X421498Y633735D01*
X420616Y643696D02*
X419727Y653735D01*
X418845Y663696D02*
X417956Y673735D01*
X417073Y683696D02*
X416184Y693734D01*
X415302Y703695D02*
X414413Y713734D01*
X413531Y723695D02*
X412642Y733734D01*
X411760Y743695D02*
X410870Y753733D01*
X409988Y763694D02*
X409099Y773733D01*
X408217Y783694D02*
X407328Y793733D01*
X406446Y803694D02*
X405557Y813732D01*
X404674Y823693D02*
X403785Y833732D01*
X402903Y843693D02*
X402014Y853732D01*
X401132Y863693D02*
X400243Y873731D01*
X399361Y883692D02*
X398472Y893731D01*
X397589Y903692D02*
X396700Y913731D01*
X395818Y923692D02*
X394929Y933730D01*
X394047Y943691D02*
X393158Y953730D01*
X392275Y963691D02*
X391386Y973730D01*
X390504Y983691D02*
X389615Y993730D01*
X388733Y1003691D02*
X387844Y1013729D01*
X386962Y1023690D02*
X386073Y1033729D01*
X385190Y1043690D02*
X384301Y1053729D01*
X383419Y1063690D02*
X382530Y1073728D01*
X381648Y1083689D02*
X380759Y1093728D01*
X379877Y1103689D02*
X378987Y1113728D01*
X378105Y1123689D02*
X377216Y1133727D01*
X376334Y1143688D02*
X375445Y1153727D01*
X374563Y1163688D02*
X373674Y1173727D01*
X372791Y1183688D02*
X371902Y1193726D01*
X371020Y1203687D02*
X370131Y1213726D01*
X369249Y1223687D02*
X368360Y1233726D01*
X367478Y1243687D02*
X366588Y1253725D01*
X365706Y1263686D02*
X364817Y1273725D01*
X363935Y1283686D02*
X363046Y1293725D01*
X362164Y1303686D02*
X361275Y1313724D01*
X360392Y1323685D02*
X359503Y1333724D01*
X358621Y1343685D02*
X357732Y1353724D01*
X356850Y1363685D02*
X355961Y1373723D01*
X355079Y1383684D02*
X354190Y1393723D01*
X353307Y1403684D02*
X352418Y1413723D01*
X351536Y1423684D02*
X350647Y1433722D01*
X349765Y1443683D02*
X348876Y1453722D01*
X347994Y1463683D02*
X347104Y1473722D01*
X346222Y1483683D02*
X345333Y1493721D01*
X344451Y1503682D02*
X343562Y1513721D01*
X342680Y1523682D02*
X341791Y1533721D01*
X340908Y1543682D02*
X340019Y1553720D01*
X339137Y1563681D02*
X338248Y1573720D01*
X337366Y1583681D02*
X336477Y1593720D01*
X335595Y1603681D02*
X334705Y1613719D01*
X333823Y1623680D02*
X332934Y1633719D01*
X332052Y1643680D02*
X331163Y1653719D01*
X330281Y1663680D02*
X329392Y1673718D01*
X328509Y1683679D02*
X327620Y1693718D01*
X326738Y1703679D02*
X325849Y1713718D01*
X324967Y1723679D02*
X324078Y1733717D01*
X323196Y1743678D02*
X322307Y1753717D01*
X321424Y1763678D02*
X320535Y1773717D01*
X319653Y1783678D02*
X318764Y1793716D01*
X317882Y1803677D02*
X316993Y1813716D01*
X316110Y1823677D02*
X315221Y1833716D01*
X314339Y1843677D02*
X313450Y1853715D01*
X312568Y1863676D02*
X311679Y1873715D01*
X310797Y1883676D02*
X309908Y1893715D01*
X309025Y1903676D02*
X308136Y1913714D01*
X307254Y1923675D02*
X306365Y1933714D01*
X305483Y1943675D02*
X304594Y1953714D01*
X303712Y1963675D02*
X302822Y1973713D01*
X301940Y1983674D02*
X301051Y1993713D01*
X300169Y2003674D02*
X299280Y2013713D01*
X298398Y2023674D02*
X297509Y2033712D01*
X296626Y2043673D02*
X295737Y2053712D01*
X294855Y2063673D02*
X293966Y2073712D01*
X293084Y2083673D02*
X292195Y2093711D01*
X291313Y2103672D02*
X290424Y2113711D01*
X289541Y2123672D02*
X288652Y2133711D01*
X287770Y2143672D02*
X286881Y2153711D01*
X285999Y2163672D02*
X285110Y2173710D01*
X284227Y2183671D02*
X283338Y2193710D01*
X282456Y2203671D02*
X281567Y2213710D01*
X280685Y2223671D02*
X279796Y2233709D01*
X278914Y2243670D02*
X278025Y2253709D01*
X277142Y2263670D02*
X276253Y2273709D01*
X275371Y2283670D02*
X274482Y2293708D01*
X273600Y2303669D02*
X272711Y2313708D01*
X271829Y2323669D02*
X270939Y2333708D01*
X270057Y2343669D02*
X269168Y2353707D01*
X268286Y2363668D02*
X267397Y2373707D01*
X266515Y2383668D02*
X265626Y2393707D01*
X264743Y2403668D02*
X263854Y2413706D01*
X262972Y2423667D02*
X262083Y2433706D01*
X261201Y2443667D02*
X260312Y2453706D01*
X259430Y2463667D02*
X258540Y2473705D01*
X257658Y2483666D02*
X256769Y2493705D01*
X255887Y2503666D02*
X254998Y2513705D01*
X254116Y2523666D02*
X253227Y2533704D01*
X252344Y2543665D02*
X251455Y2553704D01*
X250573Y2563665D02*
X249684Y2573704D01*
X248802Y2583665D02*
X247913Y2593703D01*
X247031Y2603664D02*
X246142Y2613703D01*
X245259Y2623664D02*
X244370Y2633703D01*
X243488Y2643664D02*
X242599Y2653702D01*
X241717Y2663663D02*
X240828Y2673702D01*
X239945Y2683663D02*
X239056Y2693702D01*
X238174Y2703663D02*
X237285Y2713701D01*
X236403Y2723662D02*
X235514Y2733701D01*
X234632Y2743662D02*
X233743Y2753701D01*
X232860Y2763662D02*
X231971Y2773700D01*
X231089Y2783661D02*
X230200Y2793700D01*
X440989Y433739D02*
X440100Y423700D01*
X441871Y443700D02*
X442760Y453738D01*
X443643Y463699D02*
X444532Y473738D01*
X445414Y483699D02*
X446303Y493738D01*
X447185Y503699D02*
X448074Y513737D01*
X448956Y523698D02*
X449845Y533737D01*
X450728Y543698D02*
X451617Y553737D01*
X452499Y563698D02*
X453388Y573736D01*
X454270Y583697D02*
X455159Y593736D01*
X456042Y603697D02*
X456931Y613736D01*
X457813Y623697D02*
X458702Y633735D01*
X459584Y643696D02*
X460473Y653735D01*
X461355Y663696D02*
X462244Y673735D01*
X463127Y683696D02*
X464016Y693734D01*
X464898Y703695D02*
X465787Y713734D01*
X466669Y723695D02*
X467558Y733734D01*
X468440Y743695D02*
X469330Y753733D01*
X470212Y763694D02*
X471101Y773733D01*
X471983Y783694D02*
X472872Y793733D01*
X473754Y803694D02*
X474643Y813732D01*
X475526Y823693D02*
X476415Y833732D01*
X477297Y843693D02*
X478186Y853732D01*
X479068Y863693D02*
X479957Y873731D01*
X480839Y883692D02*
X481729Y893731D01*
X482611Y903692D02*
X483500Y913731D01*
X484382Y923692D02*
X485271Y933730D01*
X486153Y943691D02*
X487042Y953730D01*
X487925Y963691D02*
X488814Y973730D01*
X489696Y983691D02*
X490585Y993730D01*
X491467Y1003691D02*
X492356Y1013729D01*
X493238Y1023690D02*
X494127Y1033729D01*
X495010Y1043690D02*
X495899Y1053729D01*
X496781Y1063690D02*
X497670Y1073728D01*
X498552Y1083689D02*
X499441Y1093728D01*
X500324Y1103689D02*
X501213Y1113728D01*
X502095Y1123689D02*
X502984Y1133727D01*
X503866Y1143688D02*
X504755Y1153727D01*
X505637Y1163688D02*
X506526Y1173727D01*
X507409Y1183688D02*
X508298Y1193726D01*
X509180Y1203687D02*
X510069Y1213726D01*
X510951Y1223687D02*
X511840Y1233726D01*
X512722Y1243687D02*
X513612Y1253725D01*
X514494Y1263686D02*
X515383Y1273725D01*
X516265Y1283686D02*
X517154Y1293725D01*
X518036Y1303686D02*
X518925Y1313724D01*
X519808Y1323685D02*
X520697Y1333724D01*
X521579Y1343685D02*
X522468Y1353724D01*
X523350Y1363685D02*
X524239Y1373723D01*
X525121Y1383684D02*
X526010Y1393723D01*
X526893Y1403684D02*
X527782Y1413723D01*
X528664Y1423684D02*
X529553Y1433722D01*
X530435Y1443683D02*
X531324Y1453722D01*
X532207Y1463683D02*
X533096Y1473722D01*
X533978Y1483683D02*
X534867Y1493721D01*
X535749Y1503682D02*
X536638Y1513721D01*
X537520Y1523682D02*
X538409Y1533721D01*
X539292Y1543682D02*
X540181Y1553720D01*
X541063Y1563681D02*
X541952Y1573720D01*
X542834Y1583681D02*
X543723Y1593720D01*
X544605Y1603681D02*
X545495Y1613719D01*
X546377Y1623680D02*
X547266Y1633719D01*
X548148Y1643680D02*
X549037Y1653719D01*
X549919Y1663680D02*
X550808Y1673718D01*
X551691Y1683679D02*
X552580Y1693718D01*
X553462Y1703679D02*
X554351Y1713718D01*
X555233Y1723679D02*
X556122Y1733717D01*
X557004Y1743678D02*
X557894Y1753717D01*
X558776Y1763678D02*
X559665Y1773717D01*
X560547Y1783678D02*
X561436Y1793716D01*
X562318Y1803677D02*
X563207Y1813716D01*
X564090Y1823677D02*
X564979Y1833716D01*
X565861Y1843677D02*
X566750Y1853715D01*
X567632Y1863676D02*
X568521Y1873715D01*
X569403Y1883676D02*
X570292Y1893715D01*
X571175Y1903676D02*
X572064Y1913714D01*
X572946Y1923675D02*
X573835Y1933714D01*
X574717Y1943675D02*
X575606Y1953714D01*
X576488Y1963675D02*
X577378Y1973713D01*
X578260Y1983674D02*
X579149Y1993713D01*
X580031Y2003674D02*
X580920Y2013713D01*
X581802Y2023674D02*
X582691Y2033712D01*
X583574Y2043673D02*
X584463Y2053712D01*
X585345Y2063673D02*
X586234Y2073712D01*
X587116Y2083673D02*
X588005Y2093711D01*
X588887Y2103672D02*
X589777Y2113711D01*
X590659Y2123672D02*
X591548Y2133711D01*
X592430Y2143672D02*
X593319Y2153711D01*
X594201Y2163672D02*
X595090Y2173710D01*
X595973Y2183671D02*
X596862Y2193710D01*
X597744Y2203671D02*
X598633Y2213710D01*
X599515Y2223671D02*
X600404Y2233709D01*
X601286Y2243670D02*
X602175Y2253709D01*
X603058Y2263670D02*
X603947Y2273709D01*
X604829Y2283670D02*
X605718Y2293708D01*
X606600Y2303669D02*
X607489Y2313708D01*
X608372Y2323669D02*
X609261Y2333708D01*
X610143Y2343669D02*
X611032Y2353707D01*
X611914Y2363668D02*
X612803Y2373707D01*
X613685Y2383668D02*
X614574Y2393707D01*
X615457Y2403668D02*
X616346Y2413706D01*
X617228Y2423667D02*
X618117Y2433706D01*
X618999Y2443667D02*
X619888Y2453706D01*
X620770Y2463667D02*
X621660Y2473705D01*
X622542Y2483666D02*
X623431Y2493705D01*
X624313Y2503666D02*
X625202Y2513705D01*
X626084Y2523666D02*
X626973Y2533704D01*
X627856Y2543665D02*
X628745Y2553704D01*
X629627Y2563665D02*
X630516Y2573704D01*
X631398Y2583665D02*
X632287Y2593703D01*
X633169Y2603664D02*
X634059Y2613703D01*
X634941Y2623664D02*
X635830Y2633703D01*
X636712Y2643664D02*
X637601Y2653702D01*
X638483Y2663663D02*
X639372Y2673702D01*
X640255Y2683663D02*
X641144Y2693702D01*
X642026Y2703663D02*
X642915Y2713701D01*
X643797Y2723662D02*
X644686Y2733701D01*
X645568Y2743662D02*
X646457Y2753701D01*
X647340Y2763662D02*
X648229Y2773700D01*
X649111Y2783661D02*
X650000Y2793700D01*
X433158Y531157D02*
X431100Y530700D01*
X433158Y531157D02*
X433919Y531316D01*
X434684Y531457D01*
X435451Y531580D01*
X436222Y531683D01*
X436995Y531768D01*
X437770Y531834D01*
X438546Y531881D01*
X439323Y531910D01*
X440100Y531919D01*
X440877Y531910D01*
X441654Y531881D01*
X442430Y531834D01*
X443205Y531768D01*
X443978Y531683D01*
X444749Y531580D01*
X445516Y531457D01*
X446281Y531316D01*
X447042Y531157D01*
X449100Y530700D01*
X230100Y2793699D02*
X244125Y2797370D01*
X258214Y2800787D01*
X264856Y2802305D02*
X266197Y2802604D01*
X272854Y2804055D02*
X287060Y2806951D01*
X301315Y2809590D01*
X308031Y2810740D02*
X309385Y2810965D01*
X316113Y2812048D02*
X330456Y2814161D01*
X344834Y2816014D01*
X351602Y2816794D02*
X352967Y2816944D01*
X359744Y2817657D02*
X374181Y2818979D01*
X388640Y2820041D01*
X395440Y2820448D02*
X396811Y2820523D01*
X403617Y2820863D02*
X418105Y2821392D01*
X432600Y2821659D01*
X439413Y2821694D02*
X440787Y2821694D01*
X447600Y2821659D02*
X462095Y2821392D01*
X476583Y2820863D01*
X483389Y2820523D02*
X484760Y2820448D01*
X491560Y2820041D02*
X506019Y2818979D01*
X520456Y2817657D01*
X527233Y2816944D02*
X528598Y2816794D01*
X535366Y2816014D02*
X549744Y2814161D01*
X564087Y2812048D01*
X570815Y2810965D02*
X572169Y2810740D01*
X578885Y2809590D02*
X593140Y2806951D01*
X607346Y2804055D01*
X614003Y2802604D02*
X615344Y2802305D01*
X621986Y2800787D02*
X636075Y2797370D01*
X650100Y2793699D01*
D12*
X413397Y380752D02*
X405608Y380752D01*
X409503Y384646D02*
X409503Y376857D01*
X465608Y380752D02*
X473397Y380752D01*
D13*
X425594Y372532D02*
X425592Y372458D01*
X425586Y372383D01*
X425577Y372310D01*
X425564Y372236D01*
X425547Y372164D01*
X425527Y372093D01*
X425503Y372022D01*
X425475Y371953D01*
X425444Y371885D01*
X425410Y371820D01*
X425372Y371755D01*
X425331Y371693D01*
X425287Y371633D01*
X425240Y371576D01*
X425190Y371521D01*
X425137Y371468D01*
X425082Y371418D01*
X425025Y371371D01*
X424965Y371327D01*
X424903Y371286D01*
X424838Y371248D01*
X424772Y371214D01*
X424705Y371183D01*
X424636Y371155D01*
X424565Y371131D01*
X424494Y371111D01*
X424421Y371094D01*
X424348Y371081D01*
X424274Y371072D01*
X424200Y371066D01*
X424126Y371064D01*
X424015Y371066D01*
X423904Y371072D01*
X423793Y371082D01*
X423682Y371096D01*
X423573Y371114D01*
X423464Y371136D01*
X423355Y371161D01*
X423248Y371191D01*
X423142Y371224D01*
X423037Y371262D01*
X422934Y371302D01*
X422832Y371347D01*
X422732Y371395D01*
X422633Y371447D01*
X422537Y371502D01*
X422442Y371561D01*
X422350Y371623D01*
X422260Y371689D01*
X422172Y371757D01*
X422087Y371829D01*
X422005Y371904D01*
X421925Y371981D01*
X422108Y376200D02*
X422110Y376274D01*
X422116Y376349D01*
X422125Y376422D01*
X422138Y376496D01*
X422155Y376568D01*
X422175Y376639D01*
X422199Y376710D01*
X422227Y376779D01*
X422258Y376846D01*
X422292Y376912D01*
X422330Y376977D01*
X422371Y377039D01*
X422415Y377099D01*
X422462Y377156D01*
X422512Y377211D01*
X422565Y377264D01*
X422620Y377314D01*
X422677Y377361D01*
X422737Y377405D01*
X422799Y377446D01*
X422864Y377484D01*
X422930Y377518D01*
X422997Y377549D01*
X423066Y377577D01*
X423137Y377601D01*
X423208Y377621D01*
X423280Y377638D01*
X423354Y377651D01*
X423427Y377660D01*
X423502Y377666D01*
X423576Y377668D01*
X423680Y377666D01*
X423784Y377660D01*
X423888Y377650D01*
X423991Y377637D01*
X424094Y377619D01*
X424196Y377597D01*
X424297Y377572D01*
X424397Y377543D01*
X424496Y377510D01*
X424593Y377473D01*
X424689Y377433D01*
X424784Y377389D01*
X424876Y377341D01*
X424967Y377291D01*
X425056Y377236D01*
X425143Y377179D01*
X425227Y377118D01*
X422842Y374915D02*
X422779Y374954D01*
X422719Y374996D01*
X422661Y375041D01*
X422604Y375089D01*
X422551Y375140D01*
X422500Y375193D01*
X422451Y375248D01*
X422406Y375306D01*
X422363Y375366D01*
X422323Y375428D01*
X422287Y375492D01*
X422253Y375558D01*
X422223Y375626D01*
X422196Y375694D01*
X422173Y375764D01*
X422153Y375835D01*
X422137Y375907D01*
X422124Y375980D01*
X422115Y376053D01*
X422110Y376126D01*
X422108Y376200D01*
X424860Y373817D02*
X424923Y373778D01*
X424983Y373736D01*
X425042Y373691D01*
X425098Y373643D01*
X425151Y373592D01*
X425202Y373539D01*
X425251Y373484D01*
X425296Y373426D01*
X425339Y373366D01*
X425379Y373304D01*
X425415Y373240D01*
X425449Y373174D01*
X425479Y373106D01*
X425506Y373038D01*
X425529Y372968D01*
X425549Y372897D01*
X425565Y372825D01*
X425578Y372752D01*
X425587Y372679D01*
X425592Y372606D01*
X425594Y372532D01*
X424860Y373816D02*
X422842Y374916D01*
X428338Y377668D02*
X428338Y371064D01*
X428338Y377668D02*
X431273Y377668D01*
X431273Y374733D02*
X428338Y374733D01*
X433873Y377668D02*
X433873Y371064D01*
X433873Y374733D02*
X437542Y374733D01*
X437542Y377668D02*
X437542Y371064D01*
X443901Y372532D02*
X445368Y377668D01*
X443901Y372532D02*
X447570Y372532D01*
X446469Y373999D02*
X446469Y371064D01*
X450302Y371064D02*
X452503Y371064D01*
X452577Y371066D01*
X452652Y371072D01*
X452725Y371081D01*
X452799Y371094D01*
X452871Y371111D01*
X452942Y371131D01*
X453013Y371155D01*
X453082Y371183D01*
X453149Y371214D01*
X453215Y371248D01*
X453280Y371286D01*
X453342Y371327D01*
X453402Y371371D01*
X453459Y371418D01*
X453514Y371468D01*
X453567Y371521D01*
X453617Y371576D01*
X453664Y371633D01*
X453708Y371693D01*
X453749Y371755D01*
X453787Y371820D01*
X453821Y371885D01*
X453852Y371953D01*
X453880Y372022D01*
X453904Y372093D01*
X453924Y372164D01*
X453941Y372236D01*
X453954Y372310D01*
X453963Y372383D01*
X453969Y372458D01*
X453971Y372532D01*
X453971Y373265D01*
X453969Y373339D01*
X453963Y373414D01*
X453954Y373487D01*
X453941Y373561D01*
X453924Y373633D01*
X453904Y373704D01*
X453880Y373775D01*
X453852Y373844D01*
X453821Y373911D01*
X453787Y373977D01*
X453749Y374042D01*
X453708Y374104D01*
X453664Y374164D01*
X453617Y374221D01*
X453567Y374276D01*
X453514Y374329D01*
X453459Y374379D01*
X453402Y374426D01*
X453342Y374470D01*
X453280Y374511D01*
X453215Y374549D01*
X453149Y374583D01*
X453082Y374614D01*
X453013Y374642D01*
X452942Y374666D01*
X452871Y374686D01*
X452799Y374703D01*
X452725Y374716D01*
X452652Y374725D01*
X452577Y374731D01*
X452503Y374733D01*
X450302Y374733D01*
X450302Y377668D01*
X453971Y377668D01*
X456702Y371064D02*
X458904Y371064D01*
X458978Y371066D01*
X459053Y371072D01*
X459126Y371081D01*
X459200Y371094D01*
X459272Y371111D01*
X459343Y371131D01*
X459414Y371155D01*
X459483Y371183D01*
X459550Y371214D01*
X459616Y371248D01*
X459681Y371286D01*
X459743Y371327D01*
X459803Y371371D01*
X459860Y371418D01*
X459915Y371468D01*
X459968Y371521D01*
X460018Y371576D01*
X460065Y371633D01*
X460109Y371693D01*
X460150Y371755D01*
X460188Y371820D01*
X460222Y371885D01*
X460253Y371953D01*
X460281Y372022D01*
X460305Y372093D01*
X460325Y372164D01*
X460342Y372236D01*
X460355Y372310D01*
X460364Y372383D01*
X460370Y372458D01*
X460372Y372532D01*
X460371Y372532D02*
X460371Y373265D01*
X460372Y373265D02*
X460370Y373339D01*
X460364Y373414D01*
X460355Y373487D01*
X460342Y373561D01*
X460325Y373633D01*
X460305Y373704D01*
X460281Y373775D01*
X460253Y373844D01*
X460222Y373911D01*
X460188Y373977D01*
X460150Y374042D01*
X460109Y374104D01*
X460065Y374164D01*
X460018Y374221D01*
X459968Y374276D01*
X459915Y374329D01*
X459860Y374379D01*
X459803Y374426D01*
X459743Y374470D01*
X459681Y374511D01*
X459616Y374549D01*
X459550Y374583D01*
X459483Y374614D01*
X459414Y374642D01*
X459343Y374666D01*
X459272Y374686D01*
X459200Y374703D01*
X459126Y374716D01*
X459053Y374725D01*
X458978Y374731D01*
X458904Y374733D01*
X456702Y374733D01*
X456702Y377668D01*
X460371Y377668D01*
X463653Y376751D02*
X463591Y376619D01*
X463533Y376486D01*
X463478Y376352D01*
X463427Y376216D01*
X463380Y376079D01*
X463336Y375940D01*
X463296Y375801D01*
X463259Y375660D01*
X463227Y375519D01*
X463198Y375377D01*
X463173Y375233D01*
X463151Y375090D01*
X463134Y374946D01*
X463120Y374801D01*
X463111Y374656D01*
X463105Y374511D01*
X463103Y374366D01*
X463653Y376751D02*
X463679Y376820D01*
X463708Y376887D01*
X463741Y376953D01*
X463777Y377016D01*
X463817Y377078D01*
X463860Y377137D01*
X463906Y377194D01*
X463955Y377248D01*
X464007Y377300D01*
X464062Y377349D01*
X464119Y377394D01*
X464179Y377437D01*
X464241Y377476D01*
X464304Y377512D01*
X464370Y377545D01*
X464437Y377573D01*
X464506Y377599D01*
X464576Y377620D01*
X464647Y377638D01*
X464719Y377651D01*
X464792Y377661D01*
X464865Y377667D01*
X464938Y377669D01*
X464938Y377668D02*
X465011Y377666D01*
X465084Y377660D01*
X465157Y377650D01*
X465229Y377637D01*
X465300Y377619D01*
X465370Y377598D01*
X465438Y377572D01*
X465506Y377544D01*
X465571Y377511D01*
X465635Y377475D01*
X465697Y377436D01*
X465756Y377394D01*
X465813Y377348D01*
X465868Y377299D01*
X465920Y377248D01*
X465969Y377193D01*
X466015Y377136D01*
X466058Y377077D01*
X466098Y377016D01*
X466134Y376952D01*
X466167Y376887D01*
X466196Y376820D01*
X466222Y376751D01*
X466284Y376619D01*
X466342Y376486D01*
X466397Y376352D01*
X466448Y376216D01*
X466495Y376079D01*
X466539Y375940D01*
X466579Y375801D01*
X466616Y375660D01*
X466648Y375519D01*
X466677Y375377D01*
X466702Y375234D01*
X466724Y375090D01*
X466741Y374946D01*
X466755Y374801D01*
X466764Y374656D01*
X466770Y374511D01*
X466772Y374366D01*
X463104Y374366D02*
X463106Y374221D01*
X463112Y374076D01*
X463121Y373931D01*
X463135Y373786D01*
X463152Y373642D01*
X463174Y373499D01*
X463199Y373356D01*
X463227Y373213D01*
X463260Y373072D01*
X463297Y372931D01*
X463337Y372792D01*
X463381Y372653D01*
X463428Y372516D01*
X463479Y372380D01*
X463534Y372246D01*
X463592Y372113D01*
X463654Y371981D01*
X463653Y371982D02*
X463679Y371913D01*
X463708Y371846D01*
X463741Y371780D01*
X463777Y371717D01*
X463817Y371655D01*
X463860Y371596D01*
X463906Y371539D01*
X463955Y371485D01*
X464007Y371433D01*
X464062Y371384D01*
X464119Y371339D01*
X464179Y371296D01*
X464241Y371257D01*
X464304Y371221D01*
X464370Y371188D01*
X464437Y371160D01*
X464506Y371134D01*
X464576Y371113D01*
X464647Y371095D01*
X464719Y371082D01*
X464792Y371072D01*
X464865Y371066D01*
X464938Y371064D01*
X466222Y371981D02*
X466284Y372113D01*
X466342Y372246D01*
X466397Y372380D01*
X466448Y372516D01*
X466495Y372653D01*
X466539Y372792D01*
X466579Y372931D01*
X466616Y373072D01*
X466648Y373213D01*
X466677Y373355D01*
X466702Y373498D01*
X466724Y373642D01*
X466741Y373786D01*
X466755Y373931D01*
X466764Y374076D01*
X466770Y374221D01*
X466772Y374366D01*
X466222Y371981D02*
X466196Y371912D01*
X466167Y371845D01*
X466134Y371780D01*
X466098Y371716D01*
X466058Y371655D01*
X466015Y371596D01*
X465969Y371539D01*
X465920Y371484D01*
X465868Y371433D01*
X465813Y371384D01*
X465756Y371338D01*
X465697Y371296D01*
X465635Y371257D01*
X465571Y371221D01*
X465506Y371188D01*
X465438Y371160D01*
X465370Y371134D01*
X465300Y371113D01*
X465228Y371095D01*
X465157Y371082D01*
X465084Y371072D01*
X465011Y371066D01*
X464938Y371064D01*
X463470Y372532D02*
X466405Y376200D01*
D12*
X458585Y508042D02*
X456281Y511502D01*
X467921Y510483D01*
X467638Y507250D02*
X468204Y513717D01*
X462814Y519146D02*
X462586Y519168D01*
X462358Y519197D01*
X462130Y519230D01*
X461904Y519269D01*
X461678Y519314D01*
X461454Y519364D01*
X461231Y519419D01*
X461009Y519479D01*
X460789Y519545D01*
X460570Y519616D01*
X460353Y519692D01*
X460138Y519774D01*
X459925Y519860D01*
X459714Y519952D01*
X459506Y520048D01*
X459299Y520150D01*
X459096Y520256D01*
X458894Y520367D01*
X458696Y520483D01*
X458609Y520524D01*
X458523Y520568D01*
X458440Y520616D01*
X458358Y520667D01*
X458279Y520721D01*
X458202Y520778D01*
X458127Y520838D01*
X458054Y520901D01*
X457985Y520968D01*
X457918Y521036D01*
X457853Y521108D01*
X457792Y521182D01*
X457733Y521258D01*
X457678Y521337D01*
X457626Y521417D01*
X457577Y521500D01*
X457532Y521585D01*
X457490Y521671D01*
X457451Y521759D01*
X457416Y521849D01*
X457385Y521940D01*
X457357Y522032D01*
X457333Y522125D01*
X457313Y522219D01*
X457296Y522313D01*
X457283Y522409D01*
X457274Y522504D01*
X457269Y522600D01*
X457268Y522696D01*
X457271Y522792D01*
X457277Y522888D01*
X457287Y522984D01*
X457302Y523079D01*
X457319Y523173D01*
X457341Y523267D01*
X457366Y523360D01*
X457396Y523451D01*
X457428Y523542D01*
X457465Y523631D01*
X457504Y523718D01*
X457548Y523804D01*
X457594Y523888D01*
X457644Y523970D01*
X457698Y524050D01*
X457754Y524128D01*
X457814Y524203D01*
X457876Y524276D01*
X457941Y524347D01*
X458010Y524415D01*
X458080Y524480D01*
X458154Y524542D01*
X458229Y524601D01*
X458307Y524657D01*
X458388Y524710D01*
X458470Y524760D01*
X458554Y524806D01*
X458640Y524849D01*
X458728Y524888D01*
X458817Y524924D01*
X458907Y524957D01*
X458999Y524985D01*
X459092Y525010D01*
X459308Y525090D01*
X459525Y525165D01*
X459744Y525234D01*
X459965Y525298D01*
X460187Y525357D01*
X460411Y525410D01*
X460635Y525459D01*
X460861Y525501D01*
X461088Y525539D01*
X461316Y525571D01*
X461544Y525597D01*
X461773Y525618D01*
X462002Y525634D01*
X462232Y525644D01*
X462462Y525649D01*
X462692Y525648D01*
X462921Y525641D01*
X463151Y525630D01*
X463380Y525612D01*
X462815Y519147D02*
X463044Y519129D01*
X463274Y519118D01*
X463503Y519111D01*
X463733Y519110D01*
X463963Y519115D01*
X464193Y519125D01*
X464422Y519141D01*
X464651Y519162D01*
X464879Y519188D01*
X465107Y519220D01*
X465334Y519258D01*
X465560Y519300D01*
X465784Y519349D01*
X466008Y519402D01*
X466230Y519461D01*
X466451Y519525D01*
X466670Y519594D01*
X466887Y519669D01*
X467103Y519749D01*
X467103Y519748D02*
X467196Y519773D01*
X467288Y519801D01*
X467378Y519834D01*
X467467Y519870D01*
X467555Y519909D01*
X467641Y519952D01*
X467725Y519998D01*
X467807Y520048D01*
X467888Y520101D01*
X467966Y520157D01*
X468041Y520216D01*
X468115Y520278D01*
X468185Y520343D01*
X468254Y520411D01*
X468319Y520482D01*
X468381Y520555D01*
X468441Y520630D01*
X468497Y520708D01*
X468551Y520788D01*
X468601Y520870D01*
X468647Y520954D01*
X468691Y521040D01*
X468730Y521127D01*
X468767Y521216D01*
X468799Y521307D01*
X468829Y521398D01*
X468854Y521491D01*
X468876Y521585D01*
X468893Y521679D01*
X468908Y521774D01*
X468918Y521870D01*
X467499Y524275D02*
X467301Y524391D01*
X467099Y524502D01*
X466896Y524608D01*
X466689Y524710D01*
X466481Y524806D01*
X466270Y524898D01*
X466057Y524984D01*
X465842Y525066D01*
X465625Y525142D01*
X465406Y525213D01*
X465186Y525279D01*
X464964Y525339D01*
X464741Y525394D01*
X464517Y525444D01*
X464291Y525489D01*
X464065Y525528D01*
X463837Y525561D01*
X463609Y525590D01*
X463381Y525612D01*
X467499Y524275D02*
X467586Y524234D01*
X467672Y524190D01*
X467755Y524142D01*
X467837Y524091D01*
X467916Y524037D01*
X467993Y523980D01*
X468068Y523920D01*
X468141Y523856D01*
X468210Y523790D01*
X468278Y523722D01*
X468342Y523650D01*
X468403Y523576D01*
X468462Y523500D01*
X468517Y523421D01*
X468569Y523341D01*
X468618Y523258D01*
X468663Y523173D01*
X468705Y523087D01*
X468744Y522999D01*
X468779Y522909D01*
X468810Y522818D01*
X468838Y522726D01*
X468862Y522633D01*
X468882Y522539D01*
X468899Y522445D01*
X468912Y522349D01*
X468921Y522254D01*
X468926Y522158D01*
X468927Y522062D01*
X468924Y521966D01*
X468918Y521870D01*
X466104Y519510D02*
X460091Y525249D01*
X458960Y542116D02*
X470599Y541098D01*
X470317Y537865D01*
X470317Y537864D02*
X470307Y537777D01*
X470294Y537691D01*
X470276Y537606D01*
X470255Y537521D01*
X470230Y537437D01*
X470202Y537354D01*
X470169Y537273D01*
X470133Y537194D01*
X470094Y537116D01*
X470051Y537040D01*
X470005Y536965D01*
X469955Y536894D01*
X469902Y536824D01*
X469846Y536757D01*
X469788Y536692D01*
X469726Y536630D01*
X469662Y536571D01*
X469595Y536515D01*
X469525Y536462D01*
X469454Y536412D01*
X469380Y536365D01*
X469304Y536322D01*
X469226Y536282D01*
X469147Y536246D01*
X469066Y536213D01*
X468983Y536184D01*
X468900Y536158D01*
X468815Y536137D01*
X468729Y536119D01*
X468643Y536105D01*
X468556Y536095D01*
X468469Y536089D01*
X468382Y536087D01*
X468294Y536089D01*
X468207Y536094D01*
X468207Y536095D02*
X464327Y536434D01*
X464240Y536444D01*
X464154Y536457D01*
X464068Y536475D01*
X463984Y536496D01*
X463900Y536521D01*
X463817Y536549D01*
X463736Y536582D01*
X463657Y536618D01*
X463579Y536657D01*
X463503Y536700D01*
X463428Y536746D01*
X463357Y536796D01*
X463287Y536849D01*
X463220Y536905D01*
X463155Y536963D01*
X463093Y537025D01*
X463034Y537089D01*
X462978Y537156D01*
X462925Y537226D01*
X462875Y537297D01*
X462828Y537371D01*
X462785Y537447D01*
X462745Y537525D01*
X462709Y537604D01*
X462676Y537685D01*
X462647Y537768D01*
X462621Y537851D01*
X462600Y537936D01*
X462582Y538022D01*
X462568Y538108D01*
X462558Y538195D01*
X462552Y538282D01*
X462550Y538369D01*
X462552Y538457D01*
X462557Y538544D01*
X462840Y541777D01*
X471218Y548171D02*
X471501Y551404D01*
X471218Y548171D02*
X471208Y548084D01*
X471195Y547998D01*
X471177Y547913D01*
X471156Y547828D01*
X471131Y547744D01*
X471103Y547661D01*
X471070Y547580D01*
X471034Y547501D01*
X470995Y547423D01*
X470952Y547347D01*
X470906Y547272D01*
X470856Y547201D01*
X470803Y547131D01*
X470747Y547064D01*
X470689Y546999D01*
X470627Y546937D01*
X470563Y546878D01*
X470496Y546822D01*
X470426Y546769D01*
X470355Y546719D01*
X470281Y546672D01*
X470205Y546629D01*
X470127Y546589D01*
X470048Y546553D01*
X469967Y546520D01*
X469884Y546491D01*
X469801Y546465D01*
X469716Y546444D01*
X469630Y546426D01*
X469544Y546412D01*
X469457Y546402D01*
X469370Y546396D01*
X469283Y546394D01*
X469195Y546396D01*
X469108Y546401D01*
X469109Y546401D02*
X465875Y546684D01*
X465876Y546684D02*
X465776Y546695D01*
X465676Y546709D01*
X465577Y546728D01*
X465479Y546750D01*
X465382Y546776D01*
X465285Y546806D01*
X465191Y546839D01*
X465097Y546876D01*
X465005Y546917D01*
X464914Y546962D01*
X464826Y547009D01*
X464739Y547060D01*
X464655Y547115D01*
X464572Y547173D01*
X464492Y547234D01*
X464414Y547298D01*
X464339Y547365D01*
X464266Y547434D01*
X464197Y547507D01*
X464130Y547582D01*
X464066Y547660D01*
X464005Y547740D01*
X463947Y547823D01*
X463893Y547907D01*
X463841Y547994D01*
X463794Y548082D01*
X463749Y548173D01*
X463708Y548265D01*
X463671Y548359D01*
X463638Y548453D01*
X463608Y548550D01*
X463582Y548647D01*
X463560Y548745D01*
X463541Y548844D01*
X463527Y548944D01*
X463516Y549044D01*
X463509Y549144D01*
X463506Y549245D01*
X463507Y549346D01*
X463512Y549446D01*
X463521Y549546D01*
X463533Y549646D01*
X463550Y549746D01*
X463570Y549844D01*
X463594Y549942D01*
X463622Y550039D01*
X463654Y550134D01*
X463689Y550228D01*
X463728Y550321D01*
X463771Y550413D01*
X463817Y550502D01*
X463866Y550590D01*
X463919Y550675D01*
X463975Y550759D01*
X464035Y550840D01*
X464097Y550919D01*
X464163Y550996D01*
X464231Y551070D01*
X464302Y551141D01*
X464376Y551209D01*
X464453Y551275D01*
X464532Y551337D01*
X464613Y551397D01*
X464697Y551453D01*
X464782Y551506D01*
X464870Y551555D01*
X464959Y551601D01*
X465051Y551644D01*
X465144Y551683D01*
X465238Y551718D01*
X465333Y551750D01*
X465430Y551778D01*
X465528Y551802D01*
X465626Y551822D01*
X465726Y551839D01*
X465826Y551851D01*
X465926Y551860D01*
X466027Y551865D01*
X466127Y551866D01*
X466228Y551863D01*
X466328Y551856D01*
X466328Y551857D02*
X467621Y551744D01*
X467169Y546571D01*
X472076Y557981D02*
X472359Y561214D01*
X472077Y557981D02*
X472067Y557894D01*
X472054Y557808D01*
X472036Y557723D01*
X472015Y557638D01*
X471990Y557554D01*
X471962Y557471D01*
X471929Y557390D01*
X471893Y557311D01*
X471854Y557233D01*
X471811Y557157D01*
X471765Y557082D01*
X471715Y557011D01*
X471662Y556941D01*
X471606Y556874D01*
X471548Y556809D01*
X471486Y556747D01*
X471422Y556688D01*
X471355Y556632D01*
X471285Y556579D01*
X471214Y556529D01*
X471140Y556482D01*
X471064Y556439D01*
X470986Y556399D01*
X470907Y556363D01*
X470826Y556330D01*
X470743Y556301D01*
X470660Y556275D01*
X470575Y556254D01*
X470489Y556236D01*
X470403Y556222D01*
X470316Y556212D01*
X470229Y556206D01*
X470142Y556204D01*
X470054Y556206D01*
X469967Y556211D01*
X466087Y556550D01*
X466000Y556560D01*
X465914Y556573D01*
X465828Y556591D01*
X465744Y556612D01*
X465660Y556637D01*
X465577Y556665D01*
X465496Y556698D01*
X465417Y556734D01*
X465339Y556773D01*
X465263Y556816D01*
X465188Y556862D01*
X465117Y556912D01*
X465047Y556965D01*
X464980Y557021D01*
X464915Y557079D01*
X464853Y557141D01*
X464794Y557205D01*
X464738Y557272D01*
X464685Y557342D01*
X464635Y557413D01*
X464588Y557487D01*
X464545Y557563D01*
X464505Y557641D01*
X464469Y557720D01*
X464436Y557801D01*
X464407Y557884D01*
X464381Y557967D01*
X464360Y558052D01*
X464342Y558138D01*
X464328Y558224D01*
X464318Y558311D01*
X464312Y558398D01*
X464310Y558485D01*
X464312Y558573D01*
X464317Y558660D01*
X464600Y561893D01*
X474299Y561044D01*
X474386Y561034D01*
X474472Y561021D01*
X474558Y561003D01*
X474642Y560982D01*
X474726Y560957D01*
X474809Y560929D01*
X474890Y560896D01*
X474969Y560860D01*
X475047Y560821D01*
X475123Y560778D01*
X475198Y560732D01*
X475269Y560682D01*
X475339Y560629D01*
X475406Y560573D01*
X475471Y560515D01*
X475533Y560453D01*
X475592Y560389D01*
X475648Y560322D01*
X475701Y560252D01*
X475751Y560181D01*
X475798Y560107D01*
X475841Y560031D01*
X475881Y559953D01*
X475917Y559874D01*
X475950Y559793D01*
X475979Y559710D01*
X476005Y559627D01*
X476026Y559542D01*
X476044Y559456D01*
X476058Y559370D01*
X476068Y559283D01*
X476074Y559196D01*
X476076Y559109D01*
X476074Y559022D01*
X476069Y558934D01*
X476069Y558935D02*
X475843Y556348D01*
X472847Y566793D02*
X465088Y567472D01*
X465427Y571352D01*
X466720Y571239D01*
X473675Y576258D02*
X473958Y579491D01*
X473676Y576258D02*
X473666Y576171D01*
X473653Y576085D01*
X473635Y576000D01*
X473614Y575915D01*
X473589Y575831D01*
X473561Y575748D01*
X473528Y575667D01*
X473492Y575588D01*
X473453Y575510D01*
X473410Y575434D01*
X473364Y575359D01*
X473314Y575288D01*
X473261Y575218D01*
X473205Y575151D01*
X473147Y575086D01*
X473085Y575024D01*
X473021Y574965D01*
X472954Y574909D01*
X472884Y574856D01*
X472813Y574806D01*
X472739Y574759D01*
X472663Y574716D01*
X472585Y574676D01*
X472506Y574640D01*
X472425Y574607D01*
X472342Y574578D01*
X472259Y574552D01*
X472174Y574531D01*
X472088Y574513D01*
X472002Y574499D01*
X471915Y574489D01*
X471828Y574483D01*
X471741Y574481D01*
X471653Y574483D01*
X471566Y574488D01*
X468333Y574771D01*
X468233Y574782D01*
X468133Y574796D01*
X468034Y574815D01*
X467936Y574837D01*
X467839Y574863D01*
X467742Y574893D01*
X467648Y574926D01*
X467554Y574963D01*
X467462Y575004D01*
X467371Y575049D01*
X467283Y575096D01*
X467196Y575147D01*
X467112Y575202D01*
X467029Y575260D01*
X466949Y575321D01*
X466871Y575385D01*
X466796Y575452D01*
X466723Y575521D01*
X466654Y575594D01*
X466587Y575669D01*
X466523Y575747D01*
X466462Y575827D01*
X466404Y575910D01*
X466350Y575994D01*
X466298Y576081D01*
X466251Y576169D01*
X466206Y576260D01*
X466165Y576352D01*
X466128Y576446D01*
X466095Y576540D01*
X466065Y576637D01*
X466039Y576734D01*
X466017Y576832D01*
X465998Y576931D01*
X465984Y577031D01*
X465973Y577131D01*
X465966Y577231D01*
X465963Y577332D01*
X465964Y577433D01*
X465969Y577533D01*
X465978Y577633D01*
X465990Y577733D01*
X466007Y577833D01*
X466027Y577931D01*
X466051Y578029D01*
X466079Y578126D01*
X466111Y578221D01*
X466146Y578315D01*
X466185Y578408D01*
X466228Y578500D01*
X466274Y578589D01*
X466323Y578677D01*
X466376Y578762D01*
X466432Y578846D01*
X466492Y578927D01*
X466554Y579006D01*
X466620Y579083D01*
X466688Y579157D01*
X466759Y579228D01*
X466833Y579296D01*
X466910Y579362D01*
X466989Y579424D01*
X467070Y579484D01*
X467154Y579540D01*
X467239Y579593D01*
X467327Y579642D01*
X467416Y579688D01*
X467508Y579731D01*
X467601Y579770D01*
X467695Y579805D01*
X467790Y579837D01*
X467887Y579865D01*
X467985Y579889D01*
X468083Y579909D01*
X468183Y579926D01*
X468283Y579938D01*
X468383Y579947D01*
X468484Y579952D01*
X468584Y579953D01*
X468685Y579950D01*
X468785Y579943D01*
X468785Y579944D02*
X470078Y579831D01*
X469626Y574657D01*
X474539Y586126D02*
X474822Y589359D01*
X474539Y586126D02*
X474529Y586039D01*
X474516Y585953D01*
X474498Y585868D01*
X474477Y585783D01*
X474452Y585699D01*
X474424Y585616D01*
X474391Y585535D01*
X474355Y585456D01*
X474316Y585378D01*
X474273Y585302D01*
X474227Y585227D01*
X474177Y585156D01*
X474124Y585086D01*
X474068Y585019D01*
X474010Y584954D01*
X473948Y584892D01*
X473884Y584833D01*
X473817Y584777D01*
X473747Y584724D01*
X473676Y584674D01*
X473602Y584627D01*
X473526Y584584D01*
X473448Y584544D01*
X473369Y584508D01*
X473288Y584475D01*
X473205Y584446D01*
X473122Y584420D01*
X473037Y584399D01*
X472951Y584381D01*
X472865Y584367D01*
X472778Y584357D01*
X472691Y584351D01*
X472604Y584349D01*
X472516Y584351D01*
X472429Y584356D01*
X469196Y584639D01*
X469096Y584650D01*
X468996Y584664D01*
X468897Y584683D01*
X468799Y584705D01*
X468702Y584731D01*
X468605Y584761D01*
X468511Y584794D01*
X468417Y584831D01*
X468325Y584872D01*
X468234Y584917D01*
X468146Y584964D01*
X468059Y585015D01*
X467975Y585070D01*
X467892Y585128D01*
X467812Y585189D01*
X467734Y585253D01*
X467659Y585320D01*
X467586Y585389D01*
X467517Y585462D01*
X467450Y585537D01*
X467386Y585615D01*
X467325Y585695D01*
X467267Y585778D01*
X467213Y585862D01*
X467161Y585949D01*
X467114Y586037D01*
X467069Y586128D01*
X467028Y586220D01*
X466991Y586314D01*
X466958Y586408D01*
X466928Y586505D01*
X466902Y586602D01*
X466880Y586700D01*
X466861Y586799D01*
X466847Y586899D01*
X466836Y586999D01*
X466829Y587099D01*
X466826Y587200D01*
X466827Y587301D01*
X466832Y587401D01*
X466841Y587501D01*
X466853Y587601D01*
X466870Y587701D01*
X466890Y587799D01*
X466914Y587897D01*
X466942Y587994D01*
X466974Y588089D01*
X467009Y588183D01*
X467048Y588276D01*
X467091Y588368D01*
X467137Y588457D01*
X467186Y588545D01*
X467239Y588630D01*
X467295Y588714D01*
X467355Y588795D01*
X467417Y588874D01*
X467483Y588951D01*
X467551Y589025D01*
X467622Y589096D01*
X467696Y589164D01*
X467773Y589230D01*
X467852Y589292D01*
X467933Y589352D01*
X468017Y589408D01*
X468102Y589461D01*
X468190Y589510D01*
X468279Y589556D01*
X468371Y589599D01*
X468464Y589638D01*
X468558Y589673D01*
X468653Y589705D01*
X468750Y589733D01*
X468848Y589757D01*
X468946Y589777D01*
X469046Y589794D01*
X469146Y589806D01*
X469246Y589815D01*
X469347Y589820D01*
X469447Y589821D01*
X469548Y589818D01*
X469648Y589811D01*
X469649Y589812D02*
X470942Y589699D01*
X470489Y584526D01*
M02*
