G04 EAGLE Gerber X2 export*
G04 #@! %TF.Part,Single*
G04 #@! %TF.FileFunction,Soldermask,Top,1*
G04 #@! %TF.FilePolarity,Negative*
G04 #@! %TF.GenerationSoftware,Autodesk,EAGLE,8.6.0*
G04 #@! %TF.CreationDate,2018-03-08T00:53:42Z*
G75*
%MOMM*%
%FSLAX34Y34*%
%LPD*%
%AMOC8*
5,1,8,0,0,1.08239X$1,22.5*%
G01*
%ADD10R,0.927000X1.327000*%
%ADD11R,2.827000X2.677000*%
%ADD12R,2.677000X2.827000*%
%ADD13P,1.787026X8X202.600000*%
%ADD14C,1.549400*%
%ADD15P,1.787026X8X22.500000*%
%ADD16R,1.077000X0.427000*%
%ADD17R,1.677000X0.727000*%
%ADD18R,0.965200X1.727200*%
%ADD19R,3.225800X1.727200*%
%ADD20R,1.327000X0.927000*%
%ADD21P,1.951982X8X202.500000*%
%ADD22R,0.427000X1.327000*%
%ADD23R,1.327000X0.427000*%
%ADD24R,1.227000X1.127000*%
%ADD25R,2.127000X1.427000*%
%ADD26R,0.939800X0.533400*%
%ADD27R,0.533400X0.939800*%
%ADD28P,1.951982X8X112.500000*%
%ADD29P,1.951982X8X292.500000*%
%ADD30R,1.327000X1.527000*%
%ADD31R,1.527000X1.327000*%
%ADD32C,0.731000*%


D10*
X518900Y165400D03*
X536900Y165400D03*
D11*
X360300Y133200D03*
X360300Y196600D03*
D10*
X575300Y165400D03*
X557300Y165400D03*
D12*
G36*
X726444Y119691D02*
X726397Y146460D01*
X754666Y146509D01*
X754713Y119740D01*
X726444Y119691D01*
G37*
G36*
X726334Y183091D02*
X726287Y209860D01*
X754556Y209909D01*
X754603Y183140D01*
X726334Y183091D01*
G37*
D13*
X475380Y162782D03*
X475425Y137382D03*
X449980Y162738D03*
X450025Y137338D03*
X424580Y162694D03*
X424625Y137294D03*
D14*
X320000Y230000D03*
X340000Y230000D03*
X360000Y230000D03*
X380000Y230000D03*
D15*
X624635Y137302D03*
X624635Y162702D03*
X650035Y137302D03*
X650035Y162702D03*
X675435Y137302D03*
X675435Y162702D03*
D14*
X720000Y230000D03*
X740000Y230000D03*
X760000Y230000D03*
X780000Y230000D03*
D10*
X453400Y185500D03*
X435400Y185500D03*
X418200Y185400D03*
X400200Y185400D03*
X646300Y184700D03*
X664300Y184700D03*
X682000Y184900D03*
X700000Y184900D03*
D16*
X400250Y206750D03*
X400250Y200250D03*
X400250Y213250D03*
X400250Y219750D03*
X439750Y219750D03*
X439750Y213250D03*
X439750Y206750D03*
X439750Y200250D03*
D17*
G36*
X535367Y199954D02*
X518598Y199983D01*
X518611Y207252D01*
X535380Y207223D01*
X535367Y199954D01*
G37*
G36*
X535345Y187254D02*
X518576Y187283D01*
X518589Y194552D01*
X535358Y194523D01*
X535345Y187254D01*
G37*
G36*
X535389Y212654D02*
X518620Y212683D01*
X518633Y219952D01*
X535402Y219923D01*
X535389Y212654D01*
G37*
G36*
X535411Y225354D02*
X518642Y225383D01*
X518655Y232652D01*
X535424Y232623D01*
X535411Y225354D01*
G37*
G36*
X481411Y225448D02*
X464642Y225477D01*
X464655Y232746D01*
X481424Y232717D01*
X481411Y225448D01*
G37*
G36*
X481389Y212748D02*
X464620Y212777D01*
X464633Y220046D01*
X481402Y220017D01*
X481389Y212748D01*
G37*
G36*
X481367Y200048D02*
X464598Y200077D01*
X464611Y207346D01*
X481380Y207317D01*
X481367Y200048D01*
G37*
G36*
X481345Y187348D02*
X464576Y187377D01*
X464589Y194646D01*
X481358Y194617D01*
X481345Y187348D01*
G37*
D16*
X699750Y213250D03*
X699750Y219750D03*
X699750Y206750D03*
X699750Y200250D03*
X660250Y200250D03*
X660250Y206750D03*
X660250Y213250D03*
X660250Y219750D03*
D17*
G36*
X564564Y219800D02*
X581332Y219887D01*
X581370Y212618D01*
X564602Y212531D01*
X564564Y219800D01*
G37*
G36*
X564498Y232499D02*
X581266Y232586D01*
X581304Y225317D01*
X564536Y225230D01*
X564498Y232499D01*
G37*
G36*
X564631Y207100D02*
X581399Y207187D01*
X581437Y199918D01*
X564669Y199831D01*
X564631Y207100D01*
G37*
G36*
X564697Y194400D02*
X581465Y194487D01*
X581503Y187218D01*
X564735Y187131D01*
X564697Y194400D01*
G37*
G36*
X618696Y194683D02*
X635464Y194770D01*
X635502Y187501D01*
X618734Y187414D01*
X618696Y194683D01*
G37*
G36*
X618630Y207382D02*
X635398Y207469D01*
X635436Y200200D01*
X618668Y200113D01*
X618630Y207382D01*
G37*
G36*
X618563Y220082D02*
X635331Y220169D01*
X635369Y212900D01*
X618601Y212813D01*
X618563Y220082D01*
G37*
G36*
X618497Y232782D02*
X635265Y232869D01*
X635303Y225600D01*
X618535Y225513D01*
X618497Y232782D01*
G37*
D10*
X314000Y206000D03*
X296000Y206000D03*
D18*
X313100Y187004D03*
X290100Y187004D03*
X267100Y187004D03*
D19*
X290100Y122996D03*
D10*
X263800Y206000D03*
X281800Y206000D03*
D20*
X280000Y221100D03*
X280000Y239100D03*
X300000Y265500D03*
X300000Y247500D03*
D21*
X560100Y139200D03*
X540100Y139200D03*
D10*
X701100Y280000D03*
X719100Y280000D03*
X759000Y280000D03*
X741000Y280000D03*
D18*
X707000Y297996D03*
X730000Y297996D03*
X753000Y297996D03*
D19*
X730000Y362004D03*
D22*
X552500Y387500D03*
X547500Y387500D03*
X542500Y387500D03*
X557500Y387500D03*
X562500Y387500D03*
X567500Y387500D03*
X572500Y387500D03*
X577500Y387500D03*
X587500Y387500D03*
X582500Y387500D03*
X537500Y387500D03*
X532500Y387500D03*
X527500Y387500D03*
X522500Y387500D03*
X517500Y387500D03*
X512500Y387500D03*
D23*
X492500Y332500D03*
X492500Y337500D03*
X492500Y342500D03*
X492500Y347500D03*
X492500Y352500D03*
X492500Y357500D03*
X492500Y362500D03*
X492500Y367500D03*
X492500Y327500D03*
X492500Y322500D03*
X492500Y317500D03*
X492500Y312500D03*
X492500Y307500D03*
X492500Y302500D03*
X492500Y297500D03*
X492500Y292500D03*
D22*
X552500Y272500D03*
X547500Y272500D03*
X542500Y272500D03*
X557500Y272500D03*
X562500Y272500D03*
X567500Y272500D03*
X572500Y272500D03*
X577500Y272500D03*
X587500Y272500D03*
X582500Y272500D03*
X537500Y272500D03*
X532500Y272500D03*
X527500Y272500D03*
X522500Y272500D03*
X517500Y272500D03*
X512500Y272500D03*
D23*
X607500Y332500D03*
X607500Y337500D03*
X607500Y342500D03*
X607500Y347500D03*
X607500Y352500D03*
X607500Y357500D03*
X607500Y362500D03*
X607500Y367500D03*
X607500Y327500D03*
X607500Y322500D03*
X607500Y317500D03*
X607500Y312500D03*
X607500Y307500D03*
X607500Y302500D03*
X607500Y297500D03*
X607500Y292500D03*
D20*
X450000Y379000D03*
X450000Y361000D03*
X470000Y379000D03*
X470000Y361000D03*
X470100Y319000D03*
X470100Y301000D03*
X450000Y319000D03*
X450000Y301000D03*
D10*
X475000Y266600D03*
X493000Y266600D03*
X639000Y280000D03*
X621000Y280000D03*
X644000Y260000D03*
X626000Y260000D03*
X626000Y380000D03*
X644000Y380000D03*
X626000Y360000D03*
X644000Y360000D03*
D24*
X414300Y378400D03*
X431300Y378400D03*
X413700Y302000D03*
X430700Y302000D03*
D25*
X422400Y321500D03*
X422400Y359500D03*
D14*
X510000Y415000D03*
X530000Y415000D03*
X550000Y415000D03*
X570000Y415000D03*
X590000Y415000D03*
D10*
X835900Y205600D03*
X817900Y205600D03*
D18*
X833000Y187004D03*
X810000Y187004D03*
X787000Y187004D03*
D19*
X810000Y122996D03*
D10*
X786000Y205600D03*
X804000Y205600D03*
D14*
X680000Y260000D03*
X680000Y280000D03*
X680000Y300000D03*
X680000Y320000D03*
X390000Y300000D03*
X370000Y300000D03*
X350000Y300000D03*
D20*
X290000Y311000D03*
X290000Y329000D03*
X310000Y329000D03*
X310000Y311000D03*
D10*
X309000Y350000D03*
X291000Y350000D03*
X329000Y420000D03*
X311000Y420000D03*
D26*
X349500Y430000D03*
X370500Y423500D03*
X370500Y436500D03*
D10*
X409000Y430000D03*
X391000Y430000D03*
X289000Y420000D03*
X271000Y420000D03*
D21*
X260000Y340000D03*
X240000Y340000D03*
X300000Y390000D03*
X280000Y390000D03*
D20*
X790000Y311000D03*
X790000Y329000D03*
X810000Y329000D03*
X810000Y311000D03*
D10*
X791000Y350000D03*
X809000Y350000D03*
X771000Y420000D03*
X789000Y420000D03*
D26*
X750500Y430000D03*
X729500Y436500D03*
X729500Y423500D03*
D10*
X691000Y430000D03*
X709000Y430000D03*
X811000Y420000D03*
X829000Y420000D03*
D21*
X860000Y340000D03*
X840000Y340000D03*
X820000Y390000D03*
X800000Y390000D03*
D20*
X240000Y161000D03*
X240000Y179000D03*
X220000Y179000D03*
X220000Y161000D03*
X260000Y281000D03*
X260000Y299000D03*
X200000Y161000D03*
X200000Y179000D03*
D27*
X190000Y250500D03*
X183500Y229500D03*
X196500Y229500D03*
D10*
X199000Y210000D03*
X181000Y210000D03*
D28*
X230000Y270000D03*
X230000Y290000D03*
X240000Y210000D03*
X240000Y230000D03*
D20*
X860000Y160900D03*
X860000Y178900D03*
X880000Y179000D03*
X880000Y161000D03*
X840000Y281000D03*
X840000Y299000D03*
X900000Y161000D03*
X900000Y179000D03*
D27*
X910000Y250500D03*
X903500Y229500D03*
X916500Y229500D03*
D10*
X919000Y210000D03*
X901000Y210000D03*
D29*
X870000Y290000D03*
X870000Y270000D03*
X860000Y230000D03*
X860000Y210000D03*
D10*
X369000Y460000D03*
X351000Y460000D03*
D30*
X385000Y460000D03*
X415000Y460000D03*
D10*
X731000Y460000D03*
X749000Y460000D03*
D30*
X715000Y460000D03*
X685000Y460000D03*
D10*
X909000Y130000D03*
X891000Y130000D03*
D31*
X940000Y165000D03*
X940000Y195000D03*
D10*
X191000Y130000D03*
X209000Y130000D03*
D31*
X160000Y165000D03*
X160000Y195000D03*
D14*
X355000Y395000D03*
X375000Y395000D03*
X725000Y395000D03*
X745000Y395000D03*
D32*
X730100Y279300D03*
X817800Y220900D03*
X654200Y262200D03*
X517500Y285100D03*
X430500Y290600D03*
X463300Y268900D03*
X567600Y285100D03*
X821800Y142400D03*
X809900Y169800D03*
X486300Y383200D03*
X532500Y374200D03*
X517500Y373800D03*
X655700Y380000D03*
X786900Y167300D03*
X803200Y226300D03*
X729900Y266300D03*
X476900Y182400D03*
X514800Y182700D03*
X583500Y181100D03*
X617000Y181400D03*
X718400Y205400D03*
X380800Y203400D03*
X396300Y238300D03*
X679800Y229200D03*
X498200Y279300D03*
X585600Y302600D03*
X550100Y330300D03*
X383300Y133200D03*
X412600Y199900D03*
X457700Y210100D03*
X514400Y154500D03*
X642300Y214400D03*
X717300Y133000D03*
X684400Y208300D03*
X590900Y160600D03*
X406900Y141400D03*
X693800Y137900D03*
X504100Y386500D03*
X477000Y342500D03*
X438900Y328500D03*
X593300Y357500D03*
X414300Y282900D03*
X334700Y282900D03*
X260000Y262000D03*
X540600Y297500D03*
X588700Y342400D03*
X406500Y399600D03*
X514900Y359500D03*
X534600Y342300D03*
X379500Y349500D03*
X394900Y349100D03*
X889900Y192200D03*
X714700Y260100D03*
X585800Y286000D03*
X286900Y275900D03*
X270200Y261200D03*
X329000Y431100D03*
X378300Y441800D03*
X421600Y434700D03*
X276900Y311300D03*
X822100Y311300D03*
X770700Y431400D03*
X690500Y442900D03*
X717600Y414200D03*
X199800Y149800D03*
X206000Y225300D03*
X899900Y151900D03*
X919100Y197800D03*
X160900Y210900D03*
X938400Y209200D03*
X670600Y453300D03*
X431800Y451100D03*
X182600Y117400D03*
X755500Y342300D03*
X768300Y355800D03*
X581600Y323900D03*
X763300Y337000D03*
X775700Y350400D03*
X576600Y315500D03*
X669300Y354000D03*
X702600Y387300D03*
X717400Y323400D03*
X770000Y309200D03*
M02*
