G04 EAGLE Gerber X2 export*
G04 #@! %TF.Part,Single*
G04 #@! %TF.FileFunction,Paste,Top*
G04 #@! %TF.FilePolarity,Positive*
G04 #@! %TF.GenerationSoftware,Autodesk,EAGLE,8.6.0*
G04 #@! %TF.CreationDate,2018-03-08T00:53:42Z*
G75*
%MOMM*%
%FSLAX34Y34*%
%LPD*%
%AMOC8*
5,1,8,0,0,1.08239X$1,22.5*%
G01*
%ADD10R,0.800000X1.200000*%
%ADD11R,2.700000X2.550000*%
%ADD12R,2.550000X2.700000*%
%ADD13R,0.950000X0.300000*%
%ADD14R,1.550000X0.600000*%
%ADD15R,0.838200X1.600200*%
%ADD16R,3.098800X1.600200*%
%ADD17R,1.200000X0.800000*%
%ADD18R,0.300000X1.200000*%
%ADD19R,1.200000X0.300000*%
%ADD20R,1.100000X1.000000*%
%ADD21R,2.000000X1.300000*%
%ADD22R,0.812800X0.406400*%
%ADD23R,0.406400X0.812800*%
%ADD24R,1.200000X1.400000*%
%ADD25R,1.400000X1.200000*%


D10*
X518900Y165400D03*
X536900Y165400D03*
D11*
X360300Y133200D03*
X360300Y196600D03*
D10*
X575300Y165400D03*
X557300Y165400D03*
D12*
G36*
X727078Y120327D02*
X727033Y145826D01*
X754032Y145873D01*
X754077Y120374D01*
X727078Y120327D01*
G37*
G36*
X726968Y183727D02*
X726923Y209226D01*
X753922Y209273D01*
X753967Y183774D01*
X726968Y183727D01*
G37*
D10*
X453400Y185500D03*
X435400Y185500D03*
X418200Y185400D03*
X400200Y185400D03*
X646300Y184700D03*
X664300Y184700D03*
X682000Y184900D03*
X700000Y184900D03*
D13*
X400250Y206750D03*
X400250Y200250D03*
X400250Y213250D03*
X400250Y219750D03*
X439750Y219750D03*
X439750Y213250D03*
X439750Y206750D03*
X439750Y200250D03*
D14*
G36*
X534733Y200590D02*
X519234Y200617D01*
X519245Y206616D01*
X534744Y206589D01*
X534733Y200590D01*
G37*
G36*
X534711Y187890D02*
X519212Y187917D01*
X519223Y193916D01*
X534722Y193889D01*
X534711Y187890D01*
G37*
G36*
X534755Y213290D02*
X519256Y213317D01*
X519267Y219316D01*
X534766Y219289D01*
X534755Y213290D01*
G37*
G36*
X534777Y225990D02*
X519278Y226017D01*
X519289Y232016D01*
X534788Y231989D01*
X534777Y225990D01*
G37*
G36*
X480777Y226084D02*
X465278Y226111D01*
X465289Y232110D01*
X480788Y232083D01*
X480777Y226084D01*
G37*
G36*
X480755Y213384D02*
X465256Y213411D01*
X465267Y219410D01*
X480766Y219383D01*
X480755Y213384D01*
G37*
G36*
X480733Y200684D02*
X465234Y200711D01*
X465245Y206710D01*
X480744Y206683D01*
X480733Y200684D01*
G37*
G36*
X480711Y187984D02*
X465212Y188011D01*
X465223Y194010D01*
X480722Y193983D01*
X480711Y187984D01*
G37*
D13*
X699750Y213250D03*
X699750Y219750D03*
X699750Y206750D03*
X699750Y200250D03*
X660250Y200250D03*
X660250Y206750D03*
X660250Y213250D03*
X660250Y219750D03*
D14*
G36*
X565202Y219168D02*
X580701Y219249D01*
X580732Y213250D01*
X565233Y213169D01*
X565202Y219168D01*
G37*
G36*
X565136Y231867D02*
X580635Y231948D01*
X580666Y225949D01*
X565167Y225868D01*
X565136Y231867D01*
G37*
G36*
X565269Y206468D02*
X580768Y206549D01*
X580799Y200550D01*
X565300Y200469D01*
X565269Y206468D01*
G37*
G36*
X565335Y193768D02*
X580834Y193849D01*
X580865Y187850D01*
X565366Y187769D01*
X565335Y193768D01*
G37*
G36*
X619334Y194051D02*
X634833Y194132D01*
X634864Y188133D01*
X619365Y188052D01*
X619334Y194051D01*
G37*
G36*
X619268Y206750D02*
X634767Y206831D01*
X634798Y200832D01*
X619299Y200751D01*
X619268Y206750D01*
G37*
G36*
X619201Y219450D02*
X634700Y219531D01*
X634731Y213532D01*
X619232Y213451D01*
X619201Y219450D01*
G37*
G36*
X619135Y232150D02*
X634634Y232231D01*
X634665Y226232D01*
X619166Y226151D01*
X619135Y232150D01*
G37*
D10*
X314000Y206000D03*
X296000Y206000D03*
D15*
X313100Y187004D03*
X290100Y187004D03*
X267100Y187004D03*
D16*
X290100Y122996D03*
D10*
X263800Y206000D03*
X281800Y206000D03*
D17*
X280000Y221100D03*
X280000Y239100D03*
X300000Y265500D03*
X300000Y247500D03*
D10*
X701100Y280000D03*
X719100Y280000D03*
X759000Y280000D03*
X741000Y280000D03*
D15*
X707000Y297996D03*
X730000Y297996D03*
X753000Y297996D03*
D16*
X730000Y362004D03*
D18*
X552500Y387500D03*
X547500Y387500D03*
X542500Y387500D03*
X557500Y387500D03*
X562500Y387500D03*
X567500Y387500D03*
X572500Y387500D03*
X577500Y387500D03*
X587500Y387500D03*
X582500Y387500D03*
X537500Y387500D03*
X532500Y387500D03*
X527500Y387500D03*
X522500Y387500D03*
X517500Y387500D03*
X512500Y387500D03*
D19*
X492500Y332500D03*
X492500Y337500D03*
X492500Y342500D03*
X492500Y347500D03*
X492500Y352500D03*
X492500Y357500D03*
X492500Y362500D03*
X492500Y367500D03*
X492500Y327500D03*
X492500Y322500D03*
X492500Y317500D03*
X492500Y312500D03*
X492500Y307500D03*
X492500Y302500D03*
X492500Y297500D03*
X492500Y292500D03*
D18*
X552500Y272500D03*
X547500Y272500D03*
X542500Y272500D03*
X557500Y272500D03*
X562500Y272500D03*
X567500Y272500D03*
X572500Y272500D03*
X577500Y272500D03*
X587500Y272500D03*
X582500Y272500D03*
X537500Y272500D03*
X532500Y272500D03*
X527500Y272500D03*
X522500Y272500D03*
X517500Y272500D03*
X512500Y272500D03*
D19*
X607500Y332500D03*
X607500Y337500D03*
X607500Y342500D03*
X607500Y347500D03*
X607500Y352500D03*
X607500Y357500D03*
X607500Y362500D03*
X607500Y367500D03*
X607500Y327500D03*
X607500Y322500D03*
X607500Y317500D03*
X607500Y312500D03*
X607500Y307500D03*
X607500Y302500D03*
X607500Y297500D03*
X607500Y292500D03*
D17*
X450000Y379000D03*
X450000Y361000D03*
X470000Y379000D03*
X470000Y361000D03*
X470100Y319000D03*
X470100Y301000D03*
X450000Y319000D03*
X450000Y301000D03*
D10*
X475000Y266600D03*
X493000Y266600D03*
X639000Y280000D03*
X621000Y280000D03*
X644000Y260000D03*
X626000Y260000D03*
X626000Y380000D03*
X644000Y380000D03*
X626000Y360000D03*
X644000Y360000D03*
D20*
X414300Y378400D03*
X431300Y378400D03*
X413700Y302000D03*
X430700Y302000D03*
D21*
X422400Y321500D03*
X422400Y359500D03*
D10*
X835900Y205600D03*
X817900Y205600D03*
D15*
X833000Y187004D03*
X810000Y187004D03*
X787000Y187004D03*
D16*
X810000Y122996D03*
D10*
X786000Y205600D03*
X804000Y205600D03*
D17*
X290000Y311000D03*
X290000Y329000D03*
X310000Y329000D03*
X310000Y311000D03*
D10*
X309000Y350000D03*
X291000Y350000D03*
X329000Y420000D03*
X311000Y420000D03*
D22*
X349500Y430000D03*
X370500Y423500D03*
X370500Y436500D03*
D10*
X409000Y430000D03*
X391000Y430000D03*
X289000Y420000D03*
X271000Y420000D03*
D17*
X790000Y311000D03*
X790000Y329000D03*
X810000Y329000D03*
X810000Y311000D03*
D10*
X791000Y350000D03*
X809000Y350000D03*
X771000Y420000D03*
X789000Y420000D03*
D22*
X750500Y430000D03*
X729500Y436500D03*
X729500Y423500D03*
D10*
X691000Y430000D03*
X709000Y430000D03*
X811000Y420000D03*
X829000Y420000D03*
D17*
X240000Y161000D03*
X240000Y179000D03*
X220000Y179000D03*
X220000Y161000D03*
X260000Y281000D03*
X260000Y299000D03*
X200000Y161000D03*
X200000Y179000D03*
D23*
X190000Y250500D03*
X183500Y229500D03*
X196500Y229500D03*
D10*
X199000Y210000D03*
X181000Y210000D03*
D17*
X860000Y160900D03*
X860000Y178900D03*
X880000Y179000D03*
X880000Y161000D03*
X840000Y281000D03*
X840000Y299000D03*
X900000Y161000D03*
X900000Y179000D03*
D23*
X910000Y250500D03*
X903500Y229500D03*
X916500Y229500D03*
D10*
X919000Y210000D03*
X901000Y210000D03*
X369000Y460000D03*
X351000Y460000D03*
D24*
X385000Y460000D03*
X415000Y460000D03*
D10*
X731000Y460000D03*
X749000Y460000D03*
D24*
X715000Y460000D03*
X685000Y460000D03*
D10*
X909000Y130000D03*
X891000Y130000D03*
D25*
X940000Y165000D03*
X940000Y195000D03*
D10*
X191000Y130000D03*
X209000Y130000D03*
D25*
X160000Y165000D03*
X160000Y195000D03*
M02*
