G04 EAGLE Gerber X2 export*
G04 #@! %TF.Part,Single*
G04 #@! %TF.FileFunction,Copper,L2,Bot,Mixed*
G04 #@! %TF.FilePolarity,Positive*
G04 #@! %TF.GenerationSoftware,Autodesk,EAGLE,8.6.0*
G04 #@! %TF.CreationDate,2018-03-08T02:15:54Z*
G75*
%MOMM*%
%FSLAX34Y34*%
%LPD*%
%AMOC8*
5,1,8,0,0,1.08239X$1,22.5*%
G01*
%ADD10C,1.422400*%
%ADD11P,1.924489X8X112.500000*%
%ADD12C,1.524000*%
%ADD13C,0.604000*%
%ADD14C,0.254000*%
%ADD15C,0.304800*%

G36*
X277836Y294204D02*
X277836Y294204D01*
X277935Y294207D01*
X277993Y294224D01*
X278054Y294232D01*
X278146Y294268D01*
X278241Y294296D01*
X278293Y294326D01*
X278349Y294349D01*
X278429Y294407D01*
X278515Y294457D01*
X278590Y294523D01*
X278607Y294535D01*
X278614Y294545D01*
X278635Y294563D01*
X281409Y297337D01*
X281485Y297435D01*
X281566Y297528D01*
X281593Y297573D01*
X281604Y297589D01*
X281613Y297608D01*
X281647Y297667D01*
X291179Y316731D01*
X291186Y316750D01*
X291210Y316799D01*
X291871Y318340D01*
X291890Y318353D01*
X291925Y318394D01*
X293522Y318926D01*
X293540Y318934D01*
X293592Y318951D01*
X304903Y323476D01*
X304917Y323484D01*
X304934Y323489D01*
X304986Y323519D01*
X305041Y323541D01*
X305107Y323589D01*
X305181Y323630D01*
X305193Y323642D01*
X305208Y323650D01*
X305285Y323718D01*
X305299Y323728D01*
X305305Y323736D01*
X305329Y323757D01*
X305764Y324192D01*
X306448Y324192D01*
X306450Y324192D01*
X306451Y324192D01*
X306606Y324212D01*
X306764Y324232D01*
X306765Y324232D01*
X306767Y324232D01*
X306920Y324283D01*
X307555Y324537D01*
X308121Y324294D01*
X308137Y324290D01*
X308152Y324281D01*
X308290Y324246D01*
X308427Y324207D01*
X308444Y324206D01*
X308460Y324202D01*
X308621Y324192D01*
X340777Y324192D01*
X340915Y324209D01*
X341054Y324222D01*
X341073Y324229D01*
X341093Y324232D01*
X341221Y324283D01*
X341353Y324330D01*
X341370Y324341D01*
X341388Y324349D01*
X341501Y324430D01*
X341616Y324508D01*
X341629Y324524D01*
X341646Y324535D01*
X341735Y324643D01*
X341826Y324747D01*
X341836Y324765D01*
X341849Y324780D01*
X341908Y324906D01*
X341971Y325030D01*
X341976Y325050D01*
X341984Y325068D01*
X342010Y325204D01*
X342041Y325340D01*
X342040Y325361D01*
X342044Y325380D01*
X342035Y325519D01*
X342031Y325658D01*
X342025Y325678D01*
X342024Y325698D01*
X341981Y325830D01*
X341943Y325964D01*
X341932Y325981D01*
X341926Y326000D01*
X341852Y326118D01*
X341781Y326238D01*
X341763Y326259D01*
X341756Y326269D01*
X341741Y326283D01*
X341675Y326358D01*
X338656Y329377D01*
X338656Y329378D01*
X265427Y402606D01*
X265427Y410048D01*
X265424Y410077D01*
X265426Y410107D01*
X265404Y410235D01*
X265387Y410364D01*
X265377Y410391D01*
X265372Y410420D01*
X265318Y410539D01*
X265270Y410659D01*
X265253Y410683D01*
X265241Y410710D01*
X265160Y410811D01*
X265084Y410917D01*
X265061Y410936D01*
X265042Y410959D01*
X264939Y411036D01*
X264839Y411119D01*
X264812Y411132D01*
X264788Y411150D01*
X264644Y411221D01*
X264244Y411386D01*
X261386Y414244D01*
X259839Y417979D01*
X259839Y422021D01*
X261386Y425756D01*
X264244Y428614D01*
X267979Y430161D01*
X272021Y430161D01*
X275756Y428614D01*
X278614Y425756D01*
X278827Y425240D01*
X278896Y425119D01*
X278961Y424996D01*
X278975Y424981D01*
X278985Y424964D01*
X279082Y424864D01*
X279175Y424761D01*
X279192Y424750D01*
X279206Y424735D01*
X279324Y424663D01*
X279441Y424586D01*
X279460Y424580D01*
X279477Y424569D01*
X279610Y424528D01*
X279742Y424483D01*
X279762Y424482D01*
X279781Y424476D01*
X279920Y424469D01*
X280059Y424458D01*
X280079Y424461D01*
X280099Y424460D01*
X280235Y424489D01*
X280372Y424512D01*
X280390Y424521D01*
X280410Y424525D01*
X280536Y424586D01*
X280662Y424643D01*
X280678Y424656D01*
X280696Y424664D01*
X280802Y424755D01*
X280911Y424842D01*
X280923Y424858D01*
X280938Y424871D01*
X281018Y424985D01*
X281102Y425096D01*
X281114Y425121D01*
X281121Y425131D01*
X281128Y425150D01*
X281173Y425240D01*
X281386Y425756D01*
X284244Y428614D01*
X287979Y430161D01*
X292021Y430161D01*
X295756Y428614D01*
X298614Y425756D01*
X299123Y424526D01*
X299167Y424448D01*
X299203Y424366D01*
X299246Y424311D01*
X299281Y424250D01*
X299343Y424186D01*
X299398Y424115D01*
X299453Y424072D01*
X299502Y424022D01*
X299578Y423975D01*
X299649Y423920D01*
X299713Y423892D01*
X299773Y423855D01*
X299859Y423829D01*
X299941Y423793D01*
X300010Y423782D01*
X300077Y423762D01*
X300166Y423757D01*
X300255Y423743D01*
X300325Y423750D01*
X300395Y423747D01*
X300482Y423765D01*
X300571Y423773D01*
X300637Y423797D01*
X300706Y423811D01*
X300787Y423850D01*
X300871Y423880D01*
X300929Y423920D01*
X300992Y423951D01*
X301060Y424009D01*
X301134Y424059D01*
X301180Y424111D01*
X301234Y424157D01*
X301285Y424230D01*
X301345Y424297D01*
X301408Y424405D01*
X301417Y424417D01*
X301419Y424423D01*
X301427Y424436D01*
X301744Y425059D01*
X302637Y426288D01*
X303712Y427363D01*
X304941Y428256D01*
X306295Y428946D01*
X307740Y429415D01*
X308001Y429456D01*
X308001Y420730D01*
X308016Y420612D01*
X308023Y420493D01*
X308035Y420455D01*
X308041Y420415D01*
X308084Y420304D01*
X308121Y420191D01*
X308143Y420157D01*
X308158Y420119D01*
X308227Y420023D01*
X308238Y420006D01*
X308224Y419982D01*
X308199Y419950D01*
X308148Y419843D01*
X308090Y419738D01*
X308080Y419699D01*
X308063Y419663D01*
X308041Y419546D01*
X308011Y419430D01*
X308007Y419370D01*
X308003Y419350D01*
X308005Y419330D01*
X308001Y419270D01*
X308001Y410544D01*
X307740Y410585D01*
X306295Y411054D01*
X304941Y411744D01*
X303712Y412637D01*
X302637Y413712D01*
X301744Y414941D01*
X301427Y415564D01*
X301376Y415638D01*
X301334Y415717D01*
X301287Y415769D01*
X301248Y415827D01*
X301181Y415887D01*
X301121Y415953D01*
X301062Y415991D01*
X301009Y416038D01*
X300930Y416078D01*
X300855Y416128D01*
X300788Y416150D01*
X300726Y416182D01*
X300639Y416202D01*
X300554Y416231D01*
X300484Y416236D01*
X300416Y416252D01*
X300326Y416249D01*
X300237Y416256D01*
X300168Y416244D01*
X300098Y416242D01*
X300012Y416217D01*
X299924Y416202D01*
X299860Y416173D01*
X299792Y416153D01*
X299715Y416108D01*
X299634Y416071D01*
X299579Y416027D01*
X299519Y415992D01*
X299455Y415928D01*
X299385Y415872D01*
X299343Y415816D01*
X299293Y415767D01*
X299248Y415690D01*
X299194Y415618D01*
X299139Y415506D01*
X299131Y415493D01*
X299129Y415487D01*
X299123Y415474D01*
X298614Y414244D01*
X295756Y411386D01*
X292021Y409839D01*
X287979Y409839D01*
X284244Y411386D01*
X281386Y414244D01*
X281173Y414760D01*
X281104Y414881D01*
X281039Y415004D01*
X281025Y415019D01*
X281015Y415036D01*
X280918Y415136D01*
X280825Y415239D01*
X280808Y415250D01*
X280794Y415265D01*
X280675Y415337D01*
X280559Y415414D01*
X280540Y415420D01*
X280523Y415431D01*
X280390Y415472D01*
X280258Y415517D01*
X280238Y415518D01*
X280219Y415524D01*
X280080Y415531D01*
X279941Y415542D01*
X279921Y415539D01*
X279901Y415540D01*
X279765Y415511D01*
X279628Y415488D01*
X279609Y415479D01*
X279590Y415475D01*
X279465Y415414D01*
X279338Y415357D01*
X279322Y415344D01*
X279304Y415336D01*
X279198Y415245D01*
X279090Y415158D01*
X279077Y415142D01*
X279062Y415129D01*
X278982Y415015D01*
X278898Y414904D01*
X278886Y414879D01*
X278879Y414869D01*
X278872Y414850D01*
X278827Y414760D01*
X278614Y414244D01*
X275756Y411386D01*
X275356Y411221D01*
X275331Y411206D01*
X275303Y411197D01*
X275193Y411127D01*
X275080Y411063D01*
X275059Y411043D01*
X275034Y411027D01*
X274945Y410932D01*
X274852Y410842D01*
X274836Y410817D01*
X274816Y410795D01*
X274753Y410681D01*
X274685Y410571D01*
X274677Y410543D01*
X274662Y410517D01*
X274630Y410391D01*
X274592Y410267D01*
X274590Y410237D01*
X274583Y410209D01*
X274573Y410048D01*
X274573Y406920D01*
X274585Y406822D01*
X274588Y406723D01*
X274605Y406664D01*
X274613Y406604D01*
X274649Y406512D01*
X274677Y406417D01*
X274707Y406365D01*
X274730Y406309D01*
X274788Y406229D01*
X274838Y406143D01*
X274904Y406068D01*
X274916Y406051D01*
X274926Y406043D01*
X274944Y406022D01*
X345122Y335844D01*
X345201Y335784D01*
X345273Y335716D01*
X345326Y335687D01*
X345374Y335650D01*
X345465Y335610D01*
X345551Y335562D01*
X345610Y335547D01*
X345665Y335523D01*
X345763Y335508D01*
X345859Y335483D01*
X345959Y335477D01*
X345980Y335473D01*
X345992Y335475D01*
X346020Y335473D01*
X448298Y335473D01*
X448376Y335412D01*
X448465Y335333D01*
X448501Y335315D01*
X448533Y335290D01*
X448642Y335243D01*
X448748Y335188D01*
X448788Y335180D01*
X448825Y335164D01*
X448942Y335145D01*
X449059Y335119D01*
X449099Y335120D01*
X449139Y335114D01*
X449257Y335125D01*
X449377Y335128D01*
X449416Y335140D01*
X449456Y335144D01*
X449568Y335184D01*
X449682Y335217D01*
X449717Y335237D01*
X449755Y335251D01*
X449854Y335318D01*
X449956Y335378D01*
X450001Y335418D01*
X450018Y335430D01*
X450032Y335445D01*
X450077Y335485D01*
X451257Y336665D01*
X451266Y336668D01*
X451309Y336693D01*
X451356Y336710D01*
X451447Y336771D01*
X451542Y336826D01*
X451578Y336860D01*
X451619Y336888D01*
X451692Y336971D01*
X451771Y337047D01*
X451797Y337090D01*
X451829Y337127D01*
X451879Y337225D01*
X451937Y337318D01*
X451951Y337366D01*
X451974Y337410D01*
X451998Y337517D01*
X452030Y337622D01*
X452033Y337672D01*
X452044Y337720D01*
X452040Y337830D01*
X452046Y337940D01*
X452035Y337988D01*
X452034Y338038D01*
X452003Y338144D01*
X451981Y338251D01*
X451959Y338296D01*
X451946Y338344D01*
X451890Y338438D01*
X451841Y338537D01*
X451809Y338575D01*
X451784Y338618D01*
X451678Y338738D01*
X445497Y344919D01*
X445403Y344992D01*
X445314Y345070D01*
X445278Y345089D01*
X445246Y345114D01*
X445137Y345161D01*
X445031Y345215D01*
X444992Y345224D01*
X444954Y345240D01*
X444837Y345259D01*
X444721Y345285D01*
X444680Y345283D01*
X444640Y345290D01*
X444522Y345279D01*
X444403Y345275D01*
X444364Y345264D01*
X444324Y345260D01*
X444211Y345220D01*
X444097Y345187D01*
X444062Y345166D01*
X444024Y345152D01*
X443926Y345085D01*
X443823Y345025D01*
X443778Y344985D01*
X443761Y344974D01*
X443748Y344958D01*
X443702Y344919D01*
X436845Y338061D01*
X426955Y338061D01*
X420097Y344919D01*
X420003Y344992D01*
X419914Y345070D01*
X419878Y345089D01*
X419846Y345114D01*
X419737Y345161D01*
X419631Y345215D01*
X419592Y345224D01*
X419554Y345240D01*
X419437Y345259D01*
X419321Y345285D01*
X419280Y345283D01*
X419240Y345290D01*
X419122Y345279D01*
X419003Y345275D01*
X418964Y345264D01*
X418924Y345260D01*
X418811Y345220D01*
X418697Y345187D01*
X418662Y345166D01*
X418624Y345152D01*
X418526Y345085D01*
X418423Y345025D01*
X418378Y344985D01*
X418361Y344974D01*
X418348Y344958D01*
X418302Y344919D01*
X411445Y338061D01*
X401555Y338061D01*
X394338Y345278D01*
X394244Y345351D01*
X394155Y345430D01*
X394119Y345448D01*
X394087Y345473D01*
X393978Y345520D01*
X393872Y345574D01*
X393832Y345583D01*
X393795Y345599D01*
X393677Y345618D01*
X393561Y345644D01*
X393521Y345643D01*
X393481Y345649D01*
X393362Y345638D01*
X393244Y345634D01*
X393205Y345623D01*
X393164Y345619D01*
X393052Y345579D01*
X392938Y345546D01*
X392903Y345525D01*
X392865Y345512D01*
X392766Y345445D01*
X392664Y345384D01*
X392619Y345344D01*
X392602Y345333D01*
X392589Y345318D01*
X392543Y345278D01*
X385835Y338569D01*
X383639Y338569D01*
X383639Y348730D01*
X383624Y348848D01*
X383617Y348967D01*
X383604Y349005D01*
X383599Y349045D01*
X383556Y349156D01*
X383519Y349269D01*
X383497Y349303D01*
X383482Y349341D01*
X383412Y349437D01*
X383349Y349538D01*
X383319Y349566D01*
X383295Y349598D01*
X383204Y349674D01*
X383117Y349756D01*
X383082Y349775D01*
X383051Y349801D01*
X382943Y349852D01*
X382839Y349909D01*
X382799Y349920D01*
X382763Y349937D01*
X382646Y349959D01*
X382531Y349989D01*
X382470Y349993D01*
X382450Y349997D01*
X382430Y349995D01*
X382370Y349999D01*
X379830Y349999D01*
X379712Y349984D01*
X379593Y349977D01*
X379555Y349964D01*
X379514Y349959D01*
X379404Y349915D01*
X379291Y349879D01*
X379256Y349857D01*
X379219Y349842D01*
X379123Y349772D01*
X379022Y349709D01*
X378994Y349679D01*
X378961Y349655D01*
X378886Y349564D01*
X378804Y349477D01*
X378784Y349442D01*
X378759Y349410D01*
X378708Y349303D01*
X378650Y349198D01*
X378640Y349159D01*
X378623Y349123D01*
X378601Y349006D01*
X378571Y348891D01*
X378567Y348830D01*
X378563Y348810D01*
X378565Y348790D01*
X378561Y348730D01*
X378561Y338569D01*
X376365Y338569D01*
X369657Y345278D01*
X369563Y345351D01*
X369473Y345430D01*
X369437Y345448D01*
X369405Y345473D01*
X369296Y345520D01*
X369190Y345574D01*
X369151Y345583D01*
X369114Y345599D01*
X368996Y345618D01*
X368880Y345644D01*
X368840Y345643D01*
X368799Y345649D01*
X368681Y345638D01*
X368562Y345634D01*
X368523Y345623D01*
X368483Y345619D01*
X368371Y345579D01*
X368256Y345546D01*
X368222Y345525D01*
X368184Y345512D01*
X368085Y345445D01*
X367983Y345384D01*
X367937Y345344D01*
X367920Y345333D01*
X367907Y345318D01*
X367862Y345278D01*
X360645Y338061D01*
X350755Y338061D01*
X343761Y345055D01*
X343761Y354945D01*
X350755Y361939D01*
X360645Y361939D01*
X367862Y354722D01*
X367956Y354649D01*
X368045Y354570D01*
X368081Y354552D01*
X368113Y354527D01*
X368222Y354480D01*
X368328Y354426D01*
X368368Y354417D01*
X368405Y354401D01*
X368523Y354382D01*
X368639Y354356D01*
X368679Y354357D01*
X368719Y354351D01*
X368838Y354362D01*
X368956Y354366D01*
X368995Y354377D01*
X369036Y354381D01*
X369148Y354421D01*
X369262Y354454D01*
X369297Y354475D01*
X369335Y354488D01*
X369433Y354555D01*
X369536Y354616D01*
X369581Y354656D01*
X369598Y354667D01*
X369611Y354682D01*
X369657Y354722D01*
X376365Y361431D01*
X378561Y361431D01*
X378561Y351270D01*
X378576Y351152D01*
X378583Y351033D01*
X378596Y350995D01*
X378601Y350955D01*
X378644Y350844D01*
X378681Y350731D01*
X378703Y350697D01*
X378718Y350659D01*
X378788Y350563D01*
X378851Y350462D01*
X378881Y350434D01*
X378904Y350402D01*
X378996Y350326D01*
X379083Y350244D01*
X379118Y350225D01*
X379149Y350199D01*
X379257Y350148D01*
X379361Y350091D01*
X379401Y350080D01*
X379437Y350063D01*
X379554Y350041D01*
X379669Y350011D01*
X379730Y350007D01*
X379750Y350003D01*
X379770Y350005D01*
X379830Y350001D01*
X382370Y350001D01*
X382488Y350016D01*
X382607Y350023D01*
X382645Y350036D01*
X382685Y350041D01*
X382796Y350085D01*
X382909Y350121D01*
X382944Y350143D01*
X382981Y350158D01*
X383077Y350228D01*
X383178Y350291D01*
X383206Y350321D01*
X383239Y350345D01*
X383314Y350436D01*
X383396Y350523D01*
X383416Y350558D01*
X383441Y350590D01*
X383492Y350697D01*
X383550Y350802D01*
X383560Y350841D01*
X383577Y350877D01*
X383599Y350994D01*
X383629Y351109D01*
X383633Y351170D01*
X383637Y351190D01*
X383635Y351210D01*
X383636Y351226D01*
X383637Y351227D01*
X383637Y351229D01*
X383639Y351270D01*
X383639Y361431D01*
X385835Y361431D01*
X392543Y354722D01*
X392637Y354649D01*
X392727Y354570D01*
X392763Y354552D01*
X392795Y354527D01*
X392904Y354480D01*
X393010Y354426D01*
X393049Y354417D01*
X393086Y354401D01*
X393204Y354382D01*
X393320Y354356D01*
X393360Y354357D01*
X393400Y354351D01*
X393519Y354362D01*
X393638Y354366D01*
X393677Y354377D01*
X393717Y354381D01*
X393829Y354421D01*
X393943Y354454D01*
X393978Y354475D01*
X394016Y354488D01*
X394115Y354555D01*
X394217Y354616D01*
X394263Y354656D01*
X394280Y354667D01*
X394293Y354682D01*
X394338Y354722D01*
X401555Y361939D01*
X411445Y361939D01*
X418302Y355081D01*
X418397Y355008D01*
X418486Y354930D01*
X418522Y354911D01*
X418554Y354886D01*
X418663Y354839D01*
X418769Y354785D01*
X418808Y354776D01*
X418846Y354760D01*
X418963Y354741D01*
X419079Y354715D01*
X419120Y354717D01*
X419160Y354710D01*
X419278Y354721D01*
X419397Y354725D01*
X419436Y354736D01*
X419476Y354740D01*
X419589Y354780D01*
X419703Y354813D01*
X419737Y354834D01*
X419776Y354848D01*
X419874Y354915D01*
X419977Y354975D01*
X420022Y355015D01*
X420039Y355026D01*
X420052Y355042D01*
X420097Y355081D01*
X426955Y361939D01*
X436845Y361939D01*
X443702Y355081D01*
X443797Y355008D01*
X443886Y354930D01*
X443922Y354911D01*
X443954Y354886D01*
X444063Y354839D01*
X444169Y354785D01*
X444208Y354776D01*
X444246Y354760D01*
X444363Y354741D01*
X444479Y354715D01*
X444520Y354717D01*
X444560Y354710D01*
X444678Y354721D01*
X444797Y354725D01*
X444836Y354736D01*
X444876Y354740D01*
X444989Y354780D01*
X445103Y354813D01*
X445137Y354834D01*
X445176Y354848D01*
X445274Y354915D01*
X445377Y354975D01*
X445422Y355015D01*
X445439Y355026D01*
X445452Y355042D01*
X445497Y355081D01*
X452355Y361939D01*
X456389Y361939D01*
X456527Y361956D01*
X456666Y361969D01*
X456685Y361976D01*
X456705Y361979D01*
X456834Y362030D01*
X456965Y362077D01*
X456982Y362088D01*
X457001Y362096D01*
X457113Y362177D01*
X457228Y362255D01*
X457242Y362271D01*
X457258Y362282D01*
X457347Y362390D01*
X457439Y362494D01*
X457448Y362512D01*
X457461Y362527D01*
X457520Y362653D01*
X457583Y362777D01*
X457588Y362797D01*
X457596Y362815D01*
X457622Y362951D01*
X457653Y363087D01*
X457652Y363108D01*
X457656Y363127D01*
X457647Y363266D01*
X457643Y363405D01*
X457638Y363425D01*
X457636Y363445D01*
X457594Y363577D01*
X457555Y363711D01*
X457545Y363728D01*
X457538Y363747D01*
X457464Y363865D01*
X457393Y363985D01*
X457375Y364006D01*
X457368Y364016D01*
X457353Y364030D01*
X457287Y364105D01*
X451392Y370000D01*
X451392Y374299D01*
X451380Y374398D01*
X451377Y374497D01*
X451360Y374555D01*
X451353Y374615D01*
X451316Y374707D01*
X451289Y374802D01*
X451258Y374854D01*
X451236Y374911D01*
X451177Y374991D01*
X451127Y375076D01*
X451061Y375151D01*
X451049Y375168D01*
X451039Y375176D01*
X451021Y375197D01*
X450566Y375651D01*
X449642Y377882D01*
X449642Y380296D01*
X450566Y382527D01*
X452273Y384234D01*
X454504Y385158D01*
X456918Y385158D01*
X459149Y384234D01*
X460856Y382527D01*
X461780Y380296D01*
X461780Y377882D01*
X460856Y375651D01*
X460402Y375197D01*
X460341Y375119D01*
X460273Y375046D01*
X460244Y374993D01*
X460207Y374946D01*
X460167Y374855D01*
X460120Y374768D01*
X460104Y374709D01*
X460080Y374654D01*
X460065Y374556D01*
X460040Y374460D01*
X460034Y374360D01*
X460030Y374340D01*
X460032Y374327D01*
X460030Y374299D01*
X460030Y374104D01*
X460042Y374005D01*
X460045Y373906D01*
X460062Y373848D01*
X460070Y373788D01*
X460106Y373696D01*
X460134Y373601D01*
X460164Y373549D01*
X460187Y373492D01*
X460245Y373412D01*
X460295Y373327D01*
X460362Y373251D01*
X460374Y373235D01*
X460383Y373227D01*
X460402Y373206D01*
X464117Y369490D01*
X464195Y369430D01*
X464268Y369362D01*
X464321Y369333D01*
X464368Y369296D01*
X464459Y369256D01*
X464546Y369208D01*
X464605Y369193D01*
X464660Y369169D01*
X464758Y369154D01*
X464854Y369129D01*
X464954Y369123D01*
X464974Y369119D01*
X464987Y369121D01*
X465015Y369119D01*
X474263Y369119D01*
X474333Y369127D01*
X474403Y369126D01*
X474490Y369147D01*
X474579Y369159D01*
X474644Y369184D01*
X474712Y369201D01*
X474791Y369243D01*
X474875Y369276D01*
X474931Y369317D01*
X474993Y369349D01*
X475059Y369410D01*
X475132Y369462D01*
X475177Y369516D01*
X475228Y369563D01*
X475278Y369638D01*
X475335Y369707D01*
X475365Y369771D01*
X475403Y369829D01*
X475432Y369914D01*
X475470Y369995D01*
X475483Y370064D01*
X475506Y370130D01*
X475513Y370219D01*
X475530Y370307D01*
X475526Y370377D01*
X475531Y370447D01*
X475516Y370535D01*
X475510Y370625D01*
X475489Y370691D01*
X475477Y370760D01*
X475440Y370842D01*
X475412Y370927D01*
X475375Y370986D01*
X475346Y371050D01*
X475290Y371120D01*
X475242Y371196D01*
X475191Y371244D01*
X475148Y371299D01*
X475076Y371353D01*
X475011Y371414D01*
X474949Y371448D01*
X474894Y371490D01*
X474764Y371553D01*
X473055Y373262D01*
X472131Y375493D01*
X472131Y377907D01*
X473055Y380138D01*
X474762Y381845D01*
X476993Y382769D01*
X479407Y382769D01*
X481638Y381845D01*
X483345Y380138D01*
X484269Y377907D01*
X484269Y377265D01*
X484281Y377166D01*
X484284Y377067D01*
X484301Y377009D01*
X484309Y376949D01*
X484345Y376857D01*
X484373Y376762D01*
X484403Y376710D01*
X484426Y376653D01*
X484484Y376573D01*
X484534Y376488D01*
X484600Y376413D01*
X484612Y376396D01*
X484622Y376388D01*
X484640Y376367D01*
X484717Y376290D01*
X484795Y376230D01*
X484868Y376162D01*
X484921Y376133D01*
X484968Y376096D01*
X485059Y376056D01*
X485146Y376008D01*
X485205Y375993D01*
X485260Y375969D01*
X485358Y375954D01*
X485454Y375929D01*
X485554Y375923D01*
X485574Y375919D01*
X485587Y375921D01*
X485615Y375919D01*
X514389Y375919D01*
X527997Y362310D01*
X528075Y362250D01*
X528147Y362182D01*
X528200Y362153D01*
X528248Y362116D01*
X528339Y362076D01*
X528426Y362028D01*
X528485Y362013D01*
X528540Y361989D01*
X528638Y361974D01*
X528734Y361949D01*
X528834Y361943D01*
X528854Y361939D01*
X528867Y361941D01*
X528895Y361939D01*
X537589Y361939D01*
X537727Y361956D01*
X537866Y361969D01*
X537885Y361976D01*
X537905Y361979D01*
X538034Y362030D01*
X538165Y362077D01*
X538182Y362088D01*
X538201Y362096D01*
X538313Y362177D01*
X538428Y362255D01*
X538442Y362271D01*
X538458Y362282D01*
X538547Y362390D01*
X538639Y362494D01*
X538648Y362512D01*
X538661Y362527D01*
X538720Y362653D01*
X538783Y362777D01*
X538788Y362797D01*
X538796Y362815D01*
X538822Y362951D01*
X538853Y363087D01*
X538852Y363108D01*
X538856Y363127D01*
X538847Y363266D01*
X538843Y363405D01*
X538838Y363425D01*
X538836Y363445D01*
X538794Y363577D01*
X538755Y363711D01*
X538745Y363728D01*
X538738Y363747D01*
X538664Y363865D01*
X538593Y363985D01*
X538575Y364006D01*
X538568Y364016D01*
X538553Y364030D01*
X538487Y364105D01*
X530281Y372311D01*
X530281Y377085D01*
X530269Y377184D01*
X530266Y377283D01*
X530249Y377341D01*
X530241Y377401D01*
X530205Y377493D01*
X530177Y377588D01*
X530147Y377640D01*
X530124Y377697D01*
X530066Y377777D01*
X530016Y377862D01*
X529950Y377937D01*
X529938Y377954D01*
X529928Y377962D01*
X529910Y377983D01*
X506483Y401410D01*
X506405Y401470D01*
X506332Y401538D01*
X506279Y401567D01*
X506232Y401604D01*
X506141Y401644D01*
X506054Y401692D01*
X505995Y401707D01*
X505940Y401731D01*
X505842Y401746D01*
X505746Y401771D01*
X505646Y401777D01*
X505626Y401781D01*
X505613Y401779D01*
X505585Y401781D01*
X457190Y401781D01*
X457091Y401769D01*
X456992Y401766D01*
X456934Y401749D01*
X456874Y401741D01*
X456782Y401705D01*
X456687Y401677D01*
X456635Y401647D01*
X456578Y401624D01*
X456498Y401566D01*
X456413Y401516D01*
X456337Y401450D01*
X456321Y401438D01*
X456313Y401428D01*
X456292Y401410D01*
X455838Y400955D01*
X453607Y400031D01*
X451193Y400031D01*
X448962Y400955D01*
X447255Y402662D01*
X446331Y404893D01*
X446331Y407307D01*
X447255Y409538D01*
X448962Y411245D01*
X451193Y412169D01*
X453607Y412169D01*
X455838Y411245D01*
X456292Y410790D01*
X456370Y410730D01*
X456442Y410662D01*
X456495Y410633D01*
X456543Y410596D01*
X456634Y410556D01*
X456721Y410508D01*
X456779Y410493D01*
X456835Y410469D01*
X456933Y410454D01*
X457029Y410429D01*
X457129Y410423D01*
X457149Y410419D01*
X457162Y410421D01*
X457190Y410419D01*
X509689Y410419D01*
X538919Y381189D01*
X538919Y376415D01*
X538931Y376316D01*
X538934Y376217D01*
X538951Y376159D01*
X538959Y376099D01*
X538995Y376007D01*
X539023Y375912D01*
X539053Y375860D01*
X539076Y375803D01*
X539134Y375723D01*
X539184Y375638D01*
X539250Y375563D01*
X539262Y375546D01*
X539272Y375538D01*
X539290Y375517D01*
X552514Y362293D01*
X552609Y362220D01*
X552699Y362141D01*
X552734Y362123D01*
X552766Y362098D01*
X552876Y362051D01*
X552982Y361996D01*
X553021Y361988D01*
X553057Y361972D01*
X553176Y361953D01*
X553292Y361927D01*
X553332Y361928D01*
X553372Y361922D01*
X553491Y361933D01*
X553610Y361937D01*
X553616Y361939D01*
X563845Y361939D01*
X570702Y355081D01*
X570797Y355008D01*
X570886Y354930D01*
X570922Y354911D01*
X570954Y354886D01*
X571063Y354839D01*
X571169Y354785D01*
X571208Y354776D01*
X571246Y354760D01*
X571363Y354741D01*
X571479Y354715D01*
X571520Y354717D01*
X571560Y354710D01*
X571678Y354721D01*
X571797Y354725D01*
X571836Y354736D01*
X571876Y354740D01*
X571989Y354780D01*
X572103Y354813D01*
X572137Y354834D01*
X572176Y354848D01*
X572274Y354915D01*
X572377Y354975D01*
X572422Y355015D01*
X572439Y355026D01*
X572452Y355042D01*
X572497Y355081D01*
X579355Y361939D01*
X589245Y361939D01*
X596239Y354945D01*
X596239Y345055D01*
X589245Y338061D01*
X579355Y338061D01*
X572497Y344919D01*
X572403Y344992D01*
X572314Y345070D01*
X572278Y345089D01*
X572246Y345114D01*
X572137Y345161D01*
X572031Y345215D01*
X571992Y345224D01*
X571954Y345240D01*
X571837Y345259D01*
X571721Y345285D01*
X571680Y345283D01*
X571640Y345290D01*
X571522Y345279D01*
X571403Y345275D01*
X571364Y345264D01*
X571324Y345260D01*
X571211Y345220D01*
X571097Y345187D01*
X571062Y345166D01*
X571024Y345152D01*
X570926Y345085D01*
X570823Y345025D01*
X570778Y344985D01*
X570761Y344974D01*
X570748Y344958D01*
X570702Y344919D01*
X563845Y338061D01*
X553955Y338061D01*
X547097Y344919D01*
X547003Y344992D01*
X546914Y345070D01*
X546878Y345089D01*
X546846Y345114D01*
X546737Y345161D01*
X546631Y345215D01*
X546592Y345224D01*
X546554Y345240D01*
X546437Y345259D01*
X546321Y345285D01*
X546280Y345283D01*
X546240Y345290D01*
X546122Y345279D01*
X546003Y345275D01*
X545964Y345264D01*
X545924Y345260D01*
X545811Y345220D01*
X545697Y345187D01*
X545662Y345166D01*
X545624Y345152D01*
X545526Y345085D01*
X545423Y345025D01*
X545378Y344985D01*
X545361Y344974D01*
X545348Y344958D01*
X545302Y344919D01*
X538445Y338061D01*
X528555Y338061D01*
X521697Y344919D01*
X521603Y344992D01*
X521514Y345070D01*
X521478Y345089D01*
X521446Y345114D01*
X521337Y345161D01*
X521231Y345215D01*
X521192Y345224D01*
X521154Y345240D01*
X521037Y345259D01*
X520921Y345285D01*
X520880Y345283D01*
X520840Y345290D01*
X520722Y345279D01*
X520603Y345275D01*
X520564Y345264D01*
X520524Y345260D01*
X520411Y345220D01*
X520297Y345187D01*
X520262Y345166D01*
X520224Y345152D01*
X520126Y345085D01*
X520023Y345025D01*
X519978Y344985D01*
X519961Y344974D01*
X519948Y344958D01*
X519902Y344919D01*
X513045Y338061D01*
X503155Y338061D01*
X496297Y344919D01*
X496203Y344992D01*
X496114Y345070D01*
X496078Y345089D01*
X496046Y345114D01*
X495937Y345161D01*
X495831Y345215D01*
X495792Y345224D01*
X495754Y345240D01*
X495637Y345259D01*
X495521Y345285D01*
X495480Y345283D01*
X495440Y345290D01*
X495322Y345279D01*
X495203Y345275D01*
X495164Y345264D01*
X495124Y345260D01*
X495011Y345220D01*
X494897Y345187D01*
X494862Y345166D01*
X494824Y345152D01*
X494726Y345085D01*
X494623Y345025D01*
X494578Y344985D01*
X494561Y344974D01*
X494548Y344958D01*
X494502Y344919D01*
X487842Y338258D01*
X487805Y338211D01*
X487762Y338170D01*
X487708Y338086D01*
X487647Y338007D01*
X487623Y337952D01*
X487591Y337902D01*
X487560Y337807D01*
X487521Y337715D01*
X487511Y337656D01*
X487493Y337599D01*
X487486Y337500D01*
X487471Y337401D01*
X487476Y337341D01*
X487472Y337282D01*
X487491Y337184D01*
X487500Y337084D01*
X487521Y337028D01*
X487532Y336969D01*
X487574Y336879D01*
X487608Y336785D01*
X487642Y336735D01*
X487667Y336682D01*
X487730Y336605D01*
X487787Y336522D01*
X487831Y336482D01*
X487869Y336436D01*
X487993Y336334D01*
X489319Y335370D01*
X490450Y334239D01*
X491390Y332945D01*
X492116Y331520D01*
X492611Y329999D01*
X492861Y328420D01*
X492861Y322539D01*
X483970Y322539D01*
X483852Y322524D01*
X483733Y322517D01*
X483695Y322504D01*
X483655Y322499D01*
X483544Y322456D01*
X483431Y322419D01*
X483397Y322397D01*
X483359Y322382D01*
X483263Y322312D01*
X483162Y322249D01*
X483134Y322219D01*
X483102Y322195D01*
X483026Y322104D01*
X482944Y322017D01*
X482925Y321982D01*
X482899Y321951D01*
X482848Y321843D01*
X482791Y321739D01*
X482780Y321699D01*
X482763Y321663D01*
X482741Y321546D01*
X482711Y321431D01*
X482707Y321370D01*
X482703Y321350D01*
X482705Y321330D01*
X482701Y321270D01*
X482701Y318730D01*
X482716Y318612D01*
X482723Y318493D01*
X482736Y318455D01*
X482741Y318414D01*
X482785Y318304D01*
X482821Y318191D01*
X482843Y318156D01*
X482858Y318119D01*
X482928Y318023D01*
X482991Y317922D01*
X483021Y317894D01*
X483045Y317861D01*
X483136Y317786D01*
X483223Y317704D01*
X483258Y317684D01*
X483290Y317659D01*
X483397Y317608D01*
X483502Y317550D01*
X483541Y317540D01*
X483577Y317523D01*
X483694Y317501D01*
X483809Y317471D01*
X483870Y317467D01*
X483890Y317463D01*
X483910Y317465D01*
X483970Y317461D01*
X493110Y317461D01*
X493147Y317465D01*
X493185Y317463D01*
X493305Y317485D01*
X493426Y317501D01*
X493460Y317514D01*
X493497Y317521D01*
X493608Y317573D01*
X493722Y317618D01*
X493752Y317640D01*
X493786Y317655D01*
X493880Y317733D01*
X493979Y317804D01*
X494003Y317833D01*
X494032Y317857D01*
X494104Y317955D01*
X494182Y318049D01*
X494198Y318083D01*
X494220Y318113D01*
X494272Y318223D01*
X495881Y318867D01*
X495890Y318872D01*
X495910Y318879D01*
X497643Y319622D01*
X497654Y319622D01*
X497735Y319642D01*
X497818Y319653D01*
X497955Y319698D01*
X497963Y319700D01*
X497965Y319701D01*
X497971Y319703D01*
X507403Y323476D01*
X507417Y323484D01*
X507434Y323489D01*
X507486Y323519D01*
X507541Y323541D01*
X507607Y323589D01*
X507681Y323630D01*
X507693Y323642D01*
X507708Y323650D01*
X507785Y323718D01*
X507799Y323728D01*
X507805Y323736D01*
X507829Y323757D01*
X508264Y324192D01*
X508948Y324192D01*
X508950Y324192D01*
X508951Y324192D01*
X509106Y324212D01*
X509264Y324232D01*
X509265Y324232D01*
X509267Y324232D01*
X509420Y324283D01*
X510055Y324537D01*
X510621Y324294D01*
X510637Y324290D01*
X510652Y324281D01*
X510790Y324246D01*
X510927Y324207D01*
X510944Y324206D01*
X510960Y324202D01*
X511121Y324192D01*
X628879Y324192D01*
X628896Y324194D01*
X628913Y324192D01*
X629053Y324214D01*
X629195Y324232D01*
X629210Y324238D01*
X629227Y324240D01*
X629379Y324294D01*
X629945Y324537D01*
X630580Y324283D01*
X630582Y324282D01*
X630583Y324281D01*
X630735Y324242D01*
X630888Y324202D01*
X630890Y324202D01*
X630891Y324202D01*
X631052Y324192D01*
X631736Y324192D01*
X632171Y323757D01*
X632185Y323746D01*
X632196Y323733D01*
X632264Y323683D01*
X632323Y323628D01*
X632374Y323599D01*
X632423Y323562D01*
X632438Y323555D01*
X632452Y323545D01*
X632597Y323476D01*
X643666Y319048D01*
X643683Y319044D01*
X643698Y319036D01*
X643852Y318990D01*
X645144Y318692D01*
X645212Y318608D01*
X645310Y318488D01*
X645311Y318488D01*
X645312Y318486D01*
X645444Y318389D01*
X645566Y318300D01*
X645567Y318299D01*
X645568Y318298D01*
X645667Y318251D01*
X646187Y317038D01*
X646196Y317023D01*
X646201Y317007D01*
X646277Y316865D01*
X658225Y297749D01*
X658265Y297700D01*
X658297Y297645D01*
X658404Y297524D01*
X661365Y294563D01*
X661443Y294503D01*
X661515Y294435D01*
X661568Y294406D01*
X661616Y294369D01*
X661707Y294329D01*
X661793Y294281D01*
X661852Y294266D01*
X661908Y294242D01*
X662006Y294227D01*
X662101Y294202D01*
X662201Y294196D01*
X662222Y294192D01*
X662234Y294194D01*
X662262Y294192D01*
X747738Y294192D01*
X747836Y294204D01*
X747935Y294207D01*
X747993Y294224D01*
X748054Y294232D01*
X748146Y294268D01*
X748241Y294296D01*
X748293Y294326D01*
X748349Y294349D01*
X748429Y294407D01*
X748515Y294457D01*
X748590Y294523D01*
X748607Y294535D01*
X748614Y294545D01*
X748635Y294563D01*
X750867Y296795D01*
X750949Y296900D01*
X751034Y297001D01*
X751046Y297025D01*
X751062Y297046D01*
X751115Y297169D01*
X751172Y297288D01*
X751182Y297324D01*
X751188Y297338D01*
X751192Y297360D01*
X751214Y297443D01*
X755784Y320292D01*
X755787Y320337D01*
X755798Y320380D01*
X755808Y320541D01*
X755808Y323973D01*
X755789Y324126D01*
X755770Y324281D01*
X755769Y324286D01*
X755768Y324288D01*
X755766Y324295D01*
X755722Y324434D01*
X672018Y539058D01*
X671950Y539183D01*
X671886Y539310D01*
X671875Y539322D01*
X671867Y539337D01*
X671770Y539442D01*
X671676Y539548D01*
X671662Y539558D01*
X671650Y539570D01*
X671530Y539647D01*
X671413Y539727D01*
X671397Y539733D01*
X671382Y539742D01*
X671247Y539787D01*
X671113Y539835D01*
X671097Y539837D01*
X671081Y539842D01*
X670938Y539852D01*
X670797Y539865D01*
X670780Y539862D01*
X670763Y539864D01*
X670623Y539838D01*
X670483Y539816D01*
X670467Y539809D01*
X670451Y539806D01*
X670321Y539746D01*
X670191Y539690D01*
X670177Y539679D01*
X670162Y539672D01*
X670052Y539582D01*
X669939Y539495D01*
X669929Y539481D01*
X669916Y539471D01*
X669831Y539356D01*
X669744Y539244D01*
X669737Y539228D01*
X669727Y539215D01*
X669674Y539082D01*
X669617Y538952D01*
X669612Y538929D01*
X669608Y538920D01*
X669606Y538901D01*
X669582Y538795D01*
X669415Y537740D01*
X668946Y536295D01*
X668256Y534941D01*
X667363Y533712D01*
X666288Y532637D01*
X665059Y531744D01*
X663705Y531054D01*
X662260Y530585D01*
X661999Y530544D01*
X661999Y539270D01*
X661984Y539388D01*
X661977Y539507D01*
X661964Y539545D01*
X661959Y539585D01*
X661916Y539696D01*
X661879Y539809D01*
X661857Y539843D01*
X661842Y539881D01*
X661773Y539977D01*
X661762Y539994D01*
X661776Y540018D01*
X661801Y540050D01*
X661852Y540157D01*
X661910Y540262D01*
X661920Y540301D01*
X661937Y540337D01*
X661959Y540454D01*
X661989Y540570D01*
X661993Y540630D01*
X661997Y540650D01*
X661995Y540670D01*
X661999Y540730D01*
X661999Y549456D01*
X662260Y549415D01*
X663705Y548946D01*
X665059Y548256D01*
X666263Y547381D01*
X666365Y547325D01*
X666463Y547262D01*
X666504Y547248D01*
X666542Y547228D01*
X666654Y547199D01*
X666765Y547162D01*
X666808Y547159D01*
X666850Y547148D01*
X666966Y547148D01*
X667082Y547140D01*
X667125Y547148D01*
X667168Y547148D01*
X667280Y547177D01*
X667395Y547198D01*
X667434Y547217D01*
X667476Y547227D01*
X667578Y547283D01*
X667683Y547332D01*
X667717Y547360D01*
X667755Y547380D01*
X667840Y547460D01*
X667929Y547533D01*
X667955Y547568D01*
X667987Y547598D01*
X668049Y547696D01*
X668118Y547789D01*
X668134Y547830D01*
X668157Y547866D01*
X668193Y547977D01*
X668237Y548084D01*
X668243Y548127D01*
X668256Y548169D01*
X668263Y548285D01*
X668279Y548400D01*
X668273Y548443D01*
X668276Y548486D01*
X668255Y548600D01*
X668241Y548715D01*
X668221Y548778D01*
X668217Y548799D01*
X668209Y548816D01*
X668192Y548869D01*
X661448Y566161D01*
X661427Y566199D01*
X661414Y566239D01*
X661352Y566338D01*
X661296Y566441D01*
X661267Y566472D01*
X661244Y566508D01*
X661159Y566588D01*
X661080Y566674D01*
X661044Y566697D01*
X661013Y566726D01*
X660910Y566782D01*
X660812Y566846D01*
X660771Y566859D01*
X660734Y566880D01*
X660621Y566909D01*
X660510Y566945D01*
X660467Y566948D01*
X660426Y566959D01*
X660265Y566969D01*
X577053Y566969D01*
X577044Y566968D01*
X577034Y566969D01*
X576886Y566948D01*
X576738Y566929D01*
X576729Y566926D01*
X576719Y566924D01*
X576581Y566867D01*
X576442Y566812D01*
X576434Y566807D01*
X576425Y566803D01*
X576306Y566713D01*
X576185Y566626D01*
X576179Y566618D01*
X576171Y566612D01*
X576062Y566493D01*
X571970Y561377D01*
X571955Y561353D01*
X571935Y561331D01*
X571872Y561218D01*
X571804Y561106D01*
X571795Y561078D01*
X571781Y561053D01*
X571749Y560927D01*
X571711Y560802D01*
X571710Y560782D01*
X570678Y559750D01*
X570669Y559738D01*
X570584Y559645D01*
X569666Y558497D01*
X569558Y558471D01*
X569532Y558457D01*
X569504Y558449D01*
X569392Y558383D01*
X569277Y558322D01*
X569261Y558308D01*
X567803Y558308D01*
X567788Y558306D01*
X567662Y558301D01*
X566201Y558138D01*
X566106Y558196D01*
X566078Y558205D01*
X566053Y558219D01*
X565927Y558251D01*
X565802Y558289D01*
X565773Y558291D01*
X565745Y558298D01*
X565584Y558308D01*
X534320Y558308D01*
X534311Y558307D01*
X534302Y558308D01*
X534154Y558287D01*
X534005Y558268D01*
X533996Y558265D01*
X533987Y558264D01*
X533849Y558207D01*
X533709Y558151D01*
X533702Y558146D01*
X533693Y558143D01*
X533634Y558104D01*
X532292Y558296D01*
X532282Y558296D01*
X532273Y558298D01*
X532112Y558308D01*
X530748Y558308D01*
X530690Y558352D01*
X530572Y558444D01*
X530564Y558447D01*
X530556Y558453D01*
X530418Y558511D01*
X530280Y558570D01*
X530271Y558572D01*
X530263Y558575D01*
X530193Y558590D01*
X529380Y559674D01*
X529373Y559681D01*
X529368Y559690D01*
X529262Y559810D01*
X528297Y560775D01*
X528287Y560847D01*
X528268Y560995D01*
X528265Y561004D01*
X528264Y561013D01*
X528207Y561152D01*
X528151Y561291D01*
X528146Y561298D01*
X528143Y561307D01*
X528054Y561441D01*
X524289Y566462D01*
X524268Y566483D01*
X524253Y566508D01*
X524158Y566597D01*
X524068Y566690D01*
X524043Y566706D01*
X524021Y566726D01*
X523907Y566789D01*
X523797Y566856D01*
X523769Y566865D01*
X523742Y566880D01*
X523617Y566912D01*
X523493Y566950D01*
X523463Y566952D01*
X523434Y566959D01*
X523274Y566969D01*
X520038Y566969D01*
X519920Y566954D01*
X519801Y566947D01*
X519763Y566934D01*
X519722Y566929D01*
X519612Y566886D01*
X519499Y566849D01*
X519464Y566827D01*
X519427Y566812D01*
X519331Y566743D01*
X519230Y566679D01*
X519202Y566649D01*
X519169Y566626D01*
X519093Y566534D01*
X519012Y566447D01*
X518992Y566412D01*
X518967Y566381D01*
X518916Y566273D01*
X518858Y566169D01*
X518848Y566129D01*
X518831Y566093D01*
X518809Y565976D01*
X518779Y565861D01*
X518775Y565801D01*
X518771Y565781D01*
X518773Y565760D01*
X518769Y565700D01*
X518769Y556358D01*
X517145Y552437D01*
X514143Y549435D01*
X510222Y547811D01*
X505978Y547811D01*
X502057Y549435D01*
X499055Y552437D01*
X497431Y556358D01*
X497431Y565700D01*
X497416Y565818D01*
X497409Y565937D01*
X497396Y565975D01*
X497391Y566016D01*
X497348Y566126D01*
X497311Y566239D01*
X497289Y566274D01*
X497274Y566311D01*
X497205Y566407D01*
X497141Y566508D01*
X497111Y566536D01*
X497088Y566569D01*
X496996Y566645D01*
X496909Y566726D01*
X496874Y566746D01*
X496843Y566771D01*
X496735Y566822D01*
X496631Y566880D01*
X496591Y566890D01*
X496555Y566907D01*
X496438Y566929D01*
X496323Y566959D01*
X496263Y566963D01*
X496243Y566967D01*
X496222Y566965D01*
X496162Y566969D01*
X494638Y566969D01*
X494520Y566954D01*
X494401Y566947D01*
X494363Y566934D01*
X494322Y566929D01*
X494212Y566886D01*
X494099Y566849D01*
X494064Y566827D01*
X494027Y566812D01*
X493931Y566743D01*
X493830Y566679D01*
X493802Y566649D01*
X493769Y566626D01*
X493693Y566534D01*
X493612Y566447D01*
X493592Y566412D01*
X493567Y566381D01*
X493516Y566273D01*
X493458Y566169D01*
X493448Y566129D01*
X493431Y566093D01*
X493409Y565976D01*
X493379Y565861D01*
X493375Y565801D01*
X493371Y565781D01*
X493373Y565760D01*
X493369Y565700D01*
X493369Y556358D01*
X491745Y552437D01*
X488743Y549435D01*
X484822Y547811D01*
X480578Y547811D01*
X476657Y549435D01*
X473655Y552437D01*
X472031Y556358D01*
X472031Y565700D01*
X472016Y565818D01*
X472009Y565937D01*
X471996Y565975D01*
X471991Y566016D01*
X471948Y566126D01*
X471911Y566239D01*
X471889Y566274D01*
X471874Y566311D01*
X471805Y566407D01*
X471741Y566508D01*
X471711Y566536D01*
X471688Y566569D01*
X471596Y566645D01*
X471509Y566726D01*
X471474Y566746D01*
X471443Y566771D01*
X471335Y566822D01*
X471231Y566880D01*
X471191Y566890D01*
X471155Y566907D01*
X471038Y566929D01*
X470923Y566959D01*
X470863Y566963D01*
X470843Y566967D01*
X470822Y566965D01*
X470762Y566969D01*
X458570Y566969D01*
X458452Y566954D01*
X458333Y566947D01*
X458295Y566934D01*
X458255Y566929D01*
X458144Y566886D01*
X458031Y566849D01*
X457997Y566827D01*
X457959Y566812D01*
X457863Y566743D01*
X457762Y566679D01*
X457734Y566649D01*
X457702Y566626D01*
X457626Y566534D01*
X457544Y566447D01*
X457525Y566412D01*
X457499Y566381D01*
X457448Y566273D01*
X457391Y566169D01*
X457380Y566129D01*
X457366Y566099D01*
X457226Y566099D01*
X457215Y566126D01*
X457179Y566239D01*
X457157Y566274D01*
X457142Y566311D01*
X457072Y566407D01*
X457009Y566508D01*
X456979Y566536D01*
X456955Y566569D01*
X456864Y566645D01*
X456777Y566726D01*
X456742Y566746D01*
X456710Y566771D01*
X456603Y566822D01*
X456498Y566880D01*
X456459Y566890D01*
X456423Y566907D01*
X456306Y566929D01*
X456191Y566959D01*
X456130Y566963D01*
X456110Y566967D01*
X456090Y566965D01*
X456030Y566969D01*
X443838Y566969D01*
X443720Y566954D01*
X443601Y566947D01*
X443563Y566934D01*
X443522Y566929D01*
X443412Y566886D01*
X443299Y566849D01*
X443264Y566827D01*
X443227Y566812D01*
X443131Y566743D01*
X443030Y566679D01*
X443002Y566649D01*
X442969Y566626D01*
X442893Y566534D01*
X442812Y566447D01*
X442792Y566412D01*
X442767Y566381D01*
X442716Y566273D01*
X442658Y566169D01*
X442648Y566129D01*
X442631Y566093D01*
X442609Y565976D01*
X442579Y565861D01*
X442575Y565801D01*
X442571Y565781D01*
X442573Y565760D01*
X442569Y565700D01*
X442569Y556358D01*
X440945Y552437D01*
X437943Y549435D01*
X434022Y547811D01*
X429778Y547811D01*
X425857Y549435D01*
X422855Y552437D01*
X421231Y556358D01*
X421231Y565700D01*
X421216Y565818D01*
X421209Y565937D01*
X421196Y565975D01*
X421191Y566016D01*
X421148Y566126D01*
X421111Y566239D01*
X421089Y566274D01*
X421074Y566311D01*
X421005Y566407D01*
X420941Y566508D01*
X420911Y566536D01*
X420888Y566569D01*
X420796Y566645D01*
X420709Y566726D01*
X420674Y566746D01*
X420643Y566771D01*
X420535Y566822D01*
X420431Y566880D01*
X420391Y566890D01*
X420355Y566907D01*
X420238Y566929D01*
X420123Y566959D01*
X420063Y566963D01*
X420043Y566967D01*
X420022Y566965D01*
X419962Y566969D01*
X416726Y566969D01*
X416697Y566966D01*
X416667Y566968D01*
X416539Y566946D01*
X416411Y566929D01*
X416383Y566918D01*
X416354Y566913D01*
X416235Y566860D01*
X416115Y566812D01*
X416091Y566795D01*
X416064Y566783D01*
X415963Y566702D01*
X415858Y566626D01*
X415839Y566603D01*
X415815Y566584D01*
X415711Y566462D01*
X411946Y561441D01*
X411941Y561433D01*
X411935Y561427D01*
X411863Y561296D01*
X411788Y561165D01*
X411786Y561156D01*
X411781Y561148D01*
X411744Y561004D01*
X411704Y560858D01*
X411704Y560849D01*
X411702Y560840D01*
X411697Y560769D01*
X410738Y559810D01*
X410733Y559803D01*
X410725Y559797D01*
X410620Y559674D01*
X409802Y558584D01*
X409734Y558564D01*
X409588Y558524D01*
X409580Y558519D01*
X409572Y558517D01*
X409443Y558441D01*
X409312Y558366D01*
X409305Y558360D01*
X409298Y558355D01*
X409244Y558308D01*
X407888Y558308D01*
X407878Y558307D01*
X407869Y558308D01*
X407708Y558296D01*
X406359Y558103D01*
X406295Y558138D01*
X406165Y558212D01*
X406156Y558214D01*
X406148Y558219D01*
X406002Y558256D01*
X405858Y558296D01*
X405849Y558296D01*
X405840Y558298D01*
X405680Y558308D01*
X374416Y558308D01*
X374387Y558305D01*
X374358Y558307D01*
X374229Y558285D01*
X374100Y558268D01*
X374073Y558258D01*
X374045Y558253D01*
X373925Y558199D01*
X373804Y558151D01*
X373788Y558139D01*
X372338Y558301D01*
X372323Y558300D01*
X372197Y558308D01*
X370727Y558308D01*
X370639Y558376D01*
X370613Y558388D01*
X370589Y558405D01*
X370467Y558451D01*
X370348Y558503D01*
X370327Y558506D01*
X369416Y559645D01*
X369405Y559656D01*
X369322Y559750D01*
X368282Y560790D01*
X368268Y560900D01*
X368258Y560927D01*
X368253Y560955D01*
X368199Y561074D01*
X368151Y561196D01*
X368134Y561219D01*
X368123Y561245D01*
X368030Y561377D01*
X363938Y566493D01*
X363931Y566500D01*
X363925Y566508D01*
X363817Y566610D01*
X363709Y566714D01*
X363701Y566719D01*
X363694Y566726D01*
X363563Y566798D01*
X363433Y566872D01*
X363424Y566875D01*
X363415Y566880D01*
X363271Y566917D01*
X363127Y566956D01*
X363117Y566957D01*
X363107Y566959D01*
X362947Y566969D01*
X279735Y566969D01*
X279692Y566964D01*
X279649Y566966D01*
X279535Y566944D01*
X279419Y566929D01*
X279379Y566914D01*
X279337Y566905D01*
X279232Y566855D01*
X279123Y566812D01*
X279089Y566787D01*
X279050Y566769D01*
X278960Y566694D01*
X278866Y566626D01*
X278839Y566593D01*
X278806Y566565D01*
X278738Y566471D01*
X278663Y566381D01*
X278645Y566342D01*
X278620Y566307D01*
X278552Y566161D01*
X272286Y550094D01*
X272272Y550039D01*
X272250Y549987D01*
X272233Y549885D01*
X272208Y549786D01*
X272209Y549729D01*
X272200Y549673D01*
X272209Y549570D01*
X272210Y549468D01*
X272224Y549413D01*
X272230Y549357D01*
X272264Y549259D01*
X272291Y549160D01*
X272318Y549111D01*
X272337Y549057D01*
X272395Y548972D01*
X272445Y548882D01*
X272484Y548841D01*
X272516Y548794D01*
X272593Y548726D01*
X272664Y548651D01*
X272712Y548621D01*
X272754Y548584D01*
X272846Y548537D01*
X272933Y548482D01*
X272987Y548465D01*
X273037Y548439D01*
X273138Y548416D01*
X273236Y548385D01*
X273293Y548382D01*
X273348Y548369D01*
X273451Y548372D01*
X273554Y548366D01*
X273609Y548377D01*
X273666Y548379D01*
X273765Y548408D01*
X273866Y548427D01*
X273917Y548452D01*
X273971Y548467D01*
X274060Y548520D01*
X274153Y548564D01*
X274181Y548588D01*
X277979Y550161D01*
X282021Y550161D01*
X285756Y548614D01*
X288614Y545756D01*
X288827Y545240D01*
X288896Y545119D01*
X288961Y544996D01*
X288975Y544981D01*
X288985Y544964D01*
X289082Y544864D01*
X289175Y544761D01*
X289192Y544750D01*
X289206Y544735D01*
X289325Y544663D01*
X289441Y544586D01*
X289460Y544580D01*
X289477Y544569D01*
X289610Y544528D01*
X289742Y544483D01*
X289762Y544482D01*
X289781Y544476D01*
X289920Y544469D01*
X290059Y544458D01*
X290079Y544461D01*
X290099Y544460D01*
X290235Y544489D01*
X290372Y544512D01*
X290391Y544521D01*
X290410Y544525D01*
X290535Y544586D01*
X290662Y544643D01*
X290678Y544656D01*
X290696Y544664D01*
X290802Y544755D01*
X290910Y544842D01*
X290923Y544858D01*
X290938Y544871D01*
X291018Y544985D01*
X291102Y545096D01*
X291114Y545121D01*
X291121Y545131D01*
X291128Y545150D01*
X291173Y545240D01*
X291386Y545756D01*
X294244Y548614D01*
X297979Y550161D01*
X302021Y550161D01*
X305756Y548614D01*
X308614Y545756D01*
X309123Y544526D01*
X309167Y544449D01*
X309203Y544366D01*
X309246Y544311D01*
X309281Y544250D01*
X309343Y544186D01*
X309398Y544115D01*
X309453Y544072D01*
X309502Y544022D01*
X309578Y543975D01*
X309649Y543920D01*
X309713Y543892D01*
X309773Y543855D01*
X309859Y543829D01*
X309941Y543793D01*
X310010Y543782D01*
X310077Y543762D01*
X310166Y543757D01*
X310255Y543743D01*
X310325Y543750D01*
X310395Y543747D01*
X310482Y543765D01*
X310571Y543773D01*
X310637Y543797D01*
X310706Y543811D01*
X310787Y543850D01*
X310871Y543880D01*
X310929Y543920D01*
X310992Y543951D01*
X311060Y544009D01*
X311134Y544059D01*
X311180Y544112D01*
X311234Y544157D01*
X311285Y544230D01*
X311345Y544297D01*
X311408Y544405D01*
X311417Y544417D01*
X311419Y544423D01*
X311427Y544436D01*
X311744Y545059D01*
X312637Y546288D01*
X313712Y547363D01*
X314941Y548256D01*
X316295Y548946D01*
X317740Y549415D01*
X318001Y549456D01*
X318001Y540730D01*
X318016Y540612D01*
X318023Y540493D01*
X318035Y540455D01*
X318041Y540415D01*
X318084Y540304D01*
X318121Y540191D01*
X318143Y540157D01*
X318158Y540119D01*
X318227Y540023D01*
X318238Y540006D01*
X318224Y539982D01*
X318199Y539950D01*
X318148Y539843D01*
X318090Y539738D01*
X318080Y539699D01*
X318063Y539663D01*
X318041Y539546D01*
X318011Y539430D01*
X318007Y539370D01*
X318003Y539350D01*
X318005Y539330D01*
X318001Y539270D01*
X318001Y530142D01*
X317992Y530135D01*
X317926Y530090D01*
X317873Y530030D01*
X317813Y529977D01*
X317769Y529911D01*
X317716Y529852D01*
X317679Y529780D01*
X317635Y529714D01*
X317608Y529639D01*
X317571Y529568D01*
X317554Y529490D01*
X317527Y529415D01*
X317519Y529336D01*
X317502Y529258D01*
X317504Y529178D01*
X317496Y529099D01*
X317509Y529020D01*
X317511Y528940D01*
X317534Y528863D01*
X317546Y528784D01*
X317578Y528711D01*
X317600Y528635D01*
X317640Y528566D01*
X317672Y528492D01*
X317721Y528429D01*
X317761Y528361D01*
X317866Y528242D01*
X317867Y528241D01*
X317868Y528240D01*
X322767Y523340D01*
X322845Y523280D01*
X322917Y523212D01*
X322970Y523183D01*
X323018Y523146D01*
X323109Y523106D01*
X323196Y523058D01*
X323255Y523043D01*
X323310Y523019D01*
X323408Y523004D01*
X323504Y522979D01*
X323604Y522973D01*
X323624Y522969D01*
X323637Y522971D01*
X323665Y522969D01*
X324307Y522969D01*
X326538Y522045D01*
X328245Y520338D01*
X329169Y518107D01*
X329169Y515693D01*
X328245Y513462D01*
X326538Y511755D01*
X324697Y510993D01*
X324654Y510968D01*
X324607Y510951D01*
X324516Y510890D01*
X324421Y510835D01*
X324385Y510801D01*
X324344Y510773D01*
X324271Y510690D01*
X324192Y510614D01*
X324166Y510572D01*
X324133Y510534D01*
X324083Y510436D01*
X324026Y510343D01*
X324011Y510295D01*
X323989Y510251D01*
X323965Y510144D01*
X323932Y510039D01*
X323930Y509989D01*
X323919Y509941D01*
X323922Y509831D01*
X323917Y509721D01*
X323927Y509672D01*
X323929Y509623D01*
X323959Y509517D01*
X323981Y509410D01*
X324003Y509365D01*
X324017Y509317D01*
X324073Y509223D01*
X324121Y509124D01*
X324153Y509086D01*
X324179Y509043D01*
X324285Y508923D01*
X325319Y507889D01*
X325319Y474215D01*
X325331Y474116D01*
X325334Y474017D01*
X325351Y473959D01*
X325359Y473899D01*
X325395Y473807D01*
X325423Y473712D01*
X325453Y473660D01*
X325476Y473603D01*
X325534Y473523D01*
X325584Y473438D01*
X325650Y473363D01*
X325662Y473346D01*
X325672Y473338D01*
X325690Y473317D01*
X336817Y462190D01*
X336895Y462130D01*
X336968Y462062D01*
X337021Y462033D01*
X337068Y461996D01*
X337159Y461956D01*
X337246Y461908D01*
X337305Y461893D01*
X337360Y461869D01*
X337458Y461854D01*
X337554Y461829D01*
X337654Y461823D01*
X337674Y461819D01*
X337687Y461821D01*
X337715Y461819D01*
X424210Y461819D01*
X424309Y461831D01*
X424408Y461834D01*
X424466Y461851D01*
X424526Y461859D01*
X424618Y461895D01*
X424713Y461923D01*
X424765Y461953D01*
X424822Y461976D01*
X424902Y462034D01*
X424987Y462084D01*
X425063Y462150D01*
X425079Y462162D01*
X425087Y462172D01*
X425108Y462190D01*
X425562Y462645D01*
X427793Y463569D01*
X430207Y463569D01*
X432438Y462645D01*
X434145Y460938D01*
X435069Y458707D01*
X435069Y456293D01*
X434145Y454062D01*
X432438Y452355D01*
X430207Y451431D01*
X427793Y451431D01*
X425562Y452355D01*
X425108Y452810D01*
X425030Y452870D01*
X424958Y452938D01*
X424905Y452967D01*
X424857Y453004D01*
X424766Y453044D01*
X424679Y453092D01*
X424621Y453107D01*
X424565Y453131D01*
X424467Y453146D01*
X424371Y453171D01*
X424271Y453177D01*
X424251Y453181D01*
X424238Y453179D01*
X424210Y453181D01*
X322011Y453181D01*
X319233Y455960D01*
X319155Y456020D01*
X319082Y456088D01*
X319029Y456117D01*
X318982Y456154D01*
X318891Y456194D01*
X318804Y456242D01*
X318745Y456257D01*
X318690Y456281D01*
X318592Y456296D01*
X318496Y456321D01*
X318396Y456327D01*
X318376Y456331D01*
X318363Y456329D01*
X318335Y456331D01*
X317693Y456331D01*
X315462Y457255D01*
X313755Y458962D01*
X312831Y461193D01*
X312831Y463607D01*
X313755Y465838D01*
X315462Y467545D01*
X316384Y467927D01*
X316427Y467951D01*
X316474Y467968D01*
X316565Y468030D01*
X316660Y468084D01*
X316696Y468119D01*
X316737Y468147D01*
X316810Y468229D01*
X316889Y468305D01*
X316915Y468348D01*
X316947Y468385D01*
X316997Y468483D01*
X317055Y468577D01*
X317069Y468624D01*
X317092Y468668D01*
X317116Y468776D01*
X317148Y468880D01*
X317151Y468930D01*
X317162Y468979D01*
X317158Y469088D01*
X317164Y469198D01*
X317154Y469247D01*
X317152Y469296D01*
X317122Y469402D01*
X317099Y469510D01*
X317077Y469554D01*
X317064Y469602D01*
X317008Y469696D01*
X316960Y469795D01*
X316927Y469833D01*
X316902Y469876D01*
X316796Y469997D01*
X316681Y470111D01*
X316681Y503785D01*
X316669Y503884D01*
X316666Y503983D01*
X316649Y504041D01*
X316641Y504101D01*
X316605Y504193D01*
X316577Y504288D01*
X316547Y504340D01*
X316524Y504397D01*
X316466Y504477D01*
X316416Y504562D01*
X316350Y504637D01*
X316338Y504654D01*
X316328Y504662D01*
X316310Y504683D01*
X307327Y513665D01*
X307218Y513750D01*
X307111Y513839D01*
X307092Y513847D01*
X307076Y513860D01*
X306948Y513915D01*
X306823Y513974D01*
X306803Y513978D01*
X306784Y513986D01*
X306646Y514008D01*
X306510Y514034D01*
X306490Y514033D01*
X306470Y514036D01*
X306331Y514023D01*
X306193Y514014D01*
X306174Y514008D01*
X306154Y514006D01*
X306022Y513959D01*
X305891Y513916D01*
X305873Y513906D01*
X305854Y513899D01*
X305739Y513821D01*
X305622Y513746D01*
X305608Y513731D01*
X305591Y513720D01*
X305499Y513616D01*
X305404Y513515D01*
X305394Y513497D01*
X305381Y513482D01*
X305317Y513358D01*
X305250Y513236D01*
X305245Y513216D01*
X305236Y513198D01*
X305218Y513117D01*
X303614Y509244D01*
X300756Y506386D01*
X297021Y504839D01*
X292979Y504839D01*
X289244Y506386D01*
X286386Y509244D01*
X286173Y509760D01*
X286104Y509881D01*
X286039Y510004D01*
X286025Y510019D01*
X286015Y510036D01*
X285918Y510136D01*
X285825Y510239D01*
X285808Y510250D01*
X285794Y510265D01*
X285676Y510337D01*
X285559Y510414D01*
X285540Y510420D01*
X285523Y510431D01*
X285390Y510472D01*
X285258Y510517D01*
X285238Y510518D01*
X285219Y510524D01*
X285080Y510531D01*
X284941Y510542D01*
X284921Y510539D01*
X284901Y510540D01*
X284765Y510511D01*
X284628Y510488D01*
X284610Y510479D01*
X284590Y510475D01*
X284464Y510414D01*
X284338Y510357D01*
X284322Y510344D01*
X284304Y510336D01*
X284198Y510245D01*
X284089Y510158D01*
X284077Y510142D01*
X284062Y510129D01*
X283982Y510015D01*
X283898Y509904D01*
X283886Y509879D01*
X283879Y509869D01*
X283872Y509850D01*
X283827Y509760D01*
X283614Y509244D01*
X280756Y506386D01*
X277021Y504839D01*
X272979Y504839D01*
X269244Y506386D01*
X266386Y509244D01*
X264839Y512979D01*
X264839Y517021D01*
X266386Y520756D01*
X269244Y523614D01*
X272979Y525161D01*
X277021Y525161D01*
X280756Y523614D01*
X283614Y520756D01*
X283827Y520240D01*
X283896Y520119D01*
X283961Y519996D01*
X283975Y519981D01*
X283985Y519964D01*
X284082Y519864D01*
X284175Y519761D01*
X284192Y519750D01*
X284206Y519735D01*
X284325Y519663D01*
X284441Y519586D01*
X284460Y519580D01*
X284477Y519569D01*
X284610Y519528D01*
X284742Y519483D01*
X284762Y519482D01*
X284781Y519476D01*
X284920Y519469D01*
X285059Y519458D01*
X285079Y519461D01*
X285099Y519460D01*
X285235Y519489D01*
X285372Y519512D01*
X285391Y519521D01*
X285410Y519525D01*
X285535Y519586D01*
X285662Y519643D01*
X285678Y519656D01*
X285696Y519664D01*
X285802Y519755D01*
X285910Y519842D01*
X285923Y519858D01*
X285938Y519871D01*
X286018Y519985D01*
X286102Y520096D01*
X286114Y520121D01*
X286121Y520131D01*
X286128Y520150D01*
X286173Y520240D01*
X286386Y520756D01*
X288864Y523233D01*
X288937Y523328D01*
X289016Y523417D01*
X289034Y523453D01*
X289059Y523485D01*
X289106Y523594D01*
X289160Y523700D01*
X289169Y523739D01*
X289185Y523777D01*
X289204Y523894D01*
X289230Y524010D01*
X289229Y524051D01*
X289235Y524091D01*
X289224Y524209D01*
X289220Y524328D01*
X289209Y524367D01*
X289205Y524407D01*
X289165Y524519D01*
X289132Y524634D01*
X289111Y524668D01*
X289098Y524707D01*
X289031Y524805D01*
X288970Y524908D01*
X288931Y524953D01*
X288919Y524970D01*
X288904Y524983D01*
X288864Y525028D01*
X288210Y525683D01*
X284058Y529835D01*
X284034Y529853D01*
X284015Y529875D01*
X283909Y529950D01*
X283806Y530030D01*
X283779Y530041D01*
X283755Y530058D01*
X283634Y530104D01*
X283515Y530156D01*
X283485Y530161D01*
X283458Y530171D01*
X283329Y530186D01*
X283200Y530206D01*
X283171Y530203D01*
X283142Y530206D01*
X283013Y530188D01*
X282884Y530176D01*
X282856Y530166D01*
X282827Y530162D01*
X282674Y530110D01*
X282021Y529839D01*
X277979Y529839D01*
X274244Y531386D01*
X271386Y534244D01*
X269874Y537895D01*
X269798Y538028D01*
X269725Y538160D01*
X269720Y538165D01*
X269716Y538171D01*
X269610Y538281D01*
X269506Y538391D01*
X269500Y538395D01*
X269495Y538400D01*
X269366Y538479D01*
X269237Y538560D01*
X269230Y538563D01*
X269224Y538566D01*
X269080Y538611D01*
X268934Y538657D01*
X268927Y538658D01*
X268920Y538660D01*
X268770Y538667D01*
X268616Y538676D01*
X268609Y538675D01*
X268602Y538675D01*
X268453Y538644D01*
X268304Y538615D01*
X268298Y538612D01*
X268291Y538611D01*
X268153Y538543D01*
X268017Y538478D01*
X268012Y538474D01*
X268005Y538471D01*
X267889Y538372D01*
X267773Y538275D01*
X267769Y538269D01*
X267763Y538265D01*
X267675Y538139D01*
X267587Y538017D01*
X267583Y538008D01*
X267580Y538005D01*
X267576Y537994D01*
X267519Y537871D01*
X184278Y324434D01*
X184240Y324281D01*
X184202Y324133D01*
X184202Y324128D01*
X184201Y324126D01*
X184201Y324118D01*
X184192Y323973D01*
X184192Y320541D01*
X184197Y320496D01*
X184195Y320451D01*
X184216Y320292D01*
X188786Y297443D01*
X188828Y297318D01*
X188865Y297190D01*
X188879Y297167D01*
X188887Y297142D01*
X188959Y297030D01*
X189027Y296916D01*
X189051Y296888D01*
X189060Y296875D01*
X189076Y296860D01*
X189133Y296795D01*
X191365Y294563D01*
X191443Y294503D01*
X191515Y294435D01*
X191568Y294406D01*
X191616Y294369D01*
X191707Y294329D01*
X191793Y294281D01*
X191852Y294266D01*
X191908Y294242D01*
X192006Y294227D01*
X192101Y294202D01*
X192201Y294196D01*
X192222Y294192D01*
X192234Y294194D01*
X192262Y294192D01*
X277738Y294192D01*
X277836Y294204D01*
G37*
%LPC*%
G36*
X426293Y468831D02*
X426293Y468831D01*
X424062Y469755D01*
X422355Y471462D01*
X421431Y473693D01*
X421431Y474335D01*
X421419Y474434D01*
X421416Y474533D01*
X421399Y474591D01*
X421391Y474651D01*
X421355Y474743D01*
X421327Y474838D01*
X421297Y474890D01*
X421274Y474947D01*
X421216Y475027D01*
X421166Y475112D01*
X421100Y475187D01*
X421088Y475204D01*
X421078Y475212D01*
X421060Y475233D01*
X418483Y477810D01*
X418405Y477870D01*
X418333Y477938D01*
X418280Y477967D01*
X418232Y478004D01*
X418141Y478044D01*
X418054Y478092D01*
X417995Y478107D01*
X417940Y478131D01*
X417842Y478146D01*
X417746Y478171D01*
X417646Y478177D01*
X417626Y478181D01*
X417613Y478179D01*
X417585Y478181D01*
X400911Y478181D01*
X393383Y485710D01*
X393305Y485770D01*
X393232Y485838D01*
X393179Y485867D01*
X393132Y485904D01*
X393041Y485944D01*
X392954Y485992D01*
X392895Y486007D01*
X392840Y486031D01*
X392742Y486046D01*
X392646Y486071D01*
X392546Y486077D01*
X392526Y486081D01*
X392513Y486079D01*
X392485Y486081D01*
X362811Y486081D01*
X356181Y492711D01*
X356181Y503285D01*
X356169Y503384D01*
X356166Y503483D01*
X356149Y503541D01*
X356141Y503601D01*
X356105Y503693D01*
X356077Y503788D01*
X356047Y503840D01*
X356024Y503897D01*
X355966Y503977D01*
X355916Y504062D01*
X355850Y504137D01*
X355838Y504154D01*
X355828Y504162D01*
X355810Y504183D01*
X355783Y504210D01*
X355705Y504270D01*
X355632Y504338D01*
X355579Y504367D01*
X355532Y504404D01*
X355441Y504444D01*
X355354Y504492D01*
X355295Y504507D01*
X355240Y504531D01*
X355142Y504546D01*
X355046Y504571D01*
X354946Y504577D01*
X354926Y504581D01*
X354913Y504579D01*
X354885Y504581D01*
X349711Y504581D01*
X325681Y528611D01*
X325681Y529990D01*
X325669Y530089D01*
X325666Y530188D01*
X325649Y530246D01*
X325641Y530306D01*
X325605Y530398D01*
X325577Y530493D01*
X325546Y530545D01*
X325524Y530601D01*
X325466Y530682D01*
X325415Y530767D01*
X325373Y530810D01*
X325338Y530859D01*
X325261Y530922D01*
X325191Y530992D01*
X325139Y531023D01*
X325093Y531061D01*
X325003Y531104D01*
X324917Y531154D01*
X324859Y531171D01*
X324805Y531197D01*
X324707Y531216D01*
X324612Y531243D01*
X324552Y531245D01*
X324493Y531257D01*
X324393Y531251D01*
X324294Y531254D01*
X324235Y531241D01*
X324175Y531237D01*
X324081Y531206D01*
X323984Y531185D01*
X323892Y531145D01*
X323873Y531139D01*
X323862Y531132D01*
X323836Y531121D01*
X323705Y531054D01*
X322260Y530585D01*
X321999Y530544D01*
X321999Y539270D01*
X321984Y539388D01*
X321977Y539507D01*
X321964Y539545D01*
X321959Y539585D01*
X321916Y539696D01*
X321879Y539809D01*
X321857Y539843D01*
X321842Y539881D01*
X321773Y539977D01*
X321762Y539994D01*
X321776Y540018D01*
X321801Y540050D01*
X321852Y540157D01*
X321910Y540262D01*
X321920Y540301D01*
X321937Y540337D01*
X321959Y540454D01*
X321989Y540570D01*
X321993Y540630D01*
X321997Y540650D01*
X321995Y540670D01*
X321999Y540730D01*
X321999Y549456D01*
X322260Y549415D01*
X322328Y549393D01*
X322415Y549376D01*
X322501Y549350D01*
X322571Y549347D01*
X322640Y549334D01*
X322729Y549339D01*
X322819Y549335D01*
X322888Y549349D01*
X322957Y549353D01*
X323043Y549381D01*
X323130Y549399D01*
X323193Y549430D01*
X323260Y549452D01*
X323336Y549499D01*
X323416Y549539D01*
X323469Y549584D01*
X323529Y549622D01*
X323590Y549687D01*
X323658Y549745D01*
X323698Y549803D01*
X323746Y549854D01*
X323790Y549932D01*
X323841Y550005D01*
X323866Y550071D01*
X323900Y550132D01*
X323922Y550219D01*
X323954Y550303D01*
X323962Y550372D01*
X323979Y550440D01*
X323979Y550530D01*
X323989Y550619D01*
X323979Y550688D01*
X323979Y550758D01*
X323957Y550845D01*
X323945Y550934D01*
X323931Y550973D01*
X323931Y553407D01*
X324855Y555638D01*
X326562Y557345D01*
X328793Y558269D01*
X331207Y558269D01*
X333438Y557345D01*
X335145Y555638D01*
X336069Y553407D01*
X336069Y551269D01*
X336075Y551220D01*
X336073Y551170D01*
X336095Y551063D01*
X336109Y550954D01*
X336127Y550907D01*
X336137Y550859D01*
X336185Y550760D01*
X336226Y550658D01*
X336255Y550618D01*
X336277Y550573D01*
X336348Y550489D01*
X336412Y550401D01*
X336451Y550369D01*
X336483Y550331D01*
X336573Y550268D01*
X336657Y550198D01*
X336702Y550177D01*
X336743Y550148D01*
X336846Y550109D01*
X336945Y550062D01*
X336994Y550053D01*
X337040Y550035D01*
X337150Y550023D01*
X337257Y550002D01*
X337307Y550005D01*
X337356Y550000D01*
X337465Y550015D01*
X337575Y550022D01*
X337622Y550037D01*
X337671Y550044D01*
X337824Y550096D01*
X337979Y550161D01*
X342021Y550161D01*
X345756Y548614D01*
X348614Y545756D01*
X348827Y545240D01*
X348896Y545119D01*
X348961Y544996D01*
X348975Y544981D01*
X348985Y544964D01*
X349082Y544864D01*
X349175Y544761D01*
X349192Y544750D01*
X349206Y544735D01*
X349324Y544663D01*
X349441Y544586D01*
X349460Y544580D01*
X349477Y544569D01*
X349610Y544528D01*
X349742Y544483D01*
X349762Y544482D01*
X349781Y544476D01*
X349920Y544469D01*
X350059Y544458D01*
X350079Y544461D01*
X350099Y544460D01*
X350235Y544489D01*
X350372Y544512D01*
X350390Y544521D01*
X350410Y544525D01*
X350536Y544586D01*
X350662Y544643D01*
X350678Y544656D01*
X350696Y544664D01*
X350802Y544755D01*
X350911Y544842D01*
X350923Y544858D01*
X350938Y544871D01*
X351018Y544985D01*
X351102Y545096D01*
X351114Y545121D01*
X351121Y545131D01*
X351128Y545150D01*
X351173Y545240D01*
X351386Y545756D01*
X354244Y548614D01*
X357979Y550161D01*
X362021Y550161D01*
X365756Y548614D01*
X368614Y545756D01*
X370161Y542021D01*
X370161Y537979D01*
X368614Y534244D01*
X365756Y531386D01*
X362021Y529839D01*
X359333Y529839D01*
X359195Y529822D01*
X359056Y529809D01*
X359037Y529802D01*
X359017Y529799D01*
X358888Y529748D01*
X358757Y529701D01*
X358740Y529690D01*
X358721Y529682D01*
X358609Y529601D01*
X358494Y529523D01*
X358480Y529507D01*
X358464Y529496D01*
X358375Y529388D01*
X358283Y529284D01*
X358274Y529266D01*
X358261Y529251D01*
X358202Y529125D01*
X358139Y529001D01*
X358134Y528981D01*
X358126Y528963D01*
X358100Y528827D01*
X358069Y528691D01*
X358070Y528670D01*
X358066Y528651D01*
X358075Y528512D01*
X358079Y528373D01*
X358084Y528353D01*
X358086Y528333D01*
X358128Y528201D01*
X358167Y528067D01*
X358177Y528050D01*
X358184Y528031D01*
X358258Y527913D01*
X358329Y527793D01*
X358347Y527772D01*
X358354Y527762D01*
X358369Y527748D01*
X358435Y527672D01*
X358917Y527190D01*
X358995Y527130D01*
X359068Y527062D01*
X359121Y527033D01*
X359168Y526996D01*
X359259Y526956D01*
X359346Y526908D01*
X359405Y526893D01*
X359460Y526869D01*
X359558Y526854D01*
X359654Y526829D01*
X359754Y526823D01*
X359774Y526819D01*
X359787Y526821D01*
X359815Y526819D01*
X374648Y526819D01*
X374785Y526836D01*
X374924Y526849D01*
X374943Y526856D01*
X374963Y526859D01*
X375092Y526910D01*
X375223Y526957D01*
X375240Y526968D01*
X375259Y526976D01*
X375371Y527057D01*
X375486Y527135D01*
X375500Y527151D01*
X375516Y527162D01*
X375605Y527270D01*
X375697Y527374D01*
X375706Y527392D01*
X375719Y527407D01*
X375778Y527533D01*
X375841Y527657D01*
X375846Y527677D01*
X375854Y527695D01*
X375881Y527831D01*
X375911Y527967D01*
X375910Y527988D01*
X375914Y528007D01*
X375906Y528146D01*
X375901Y528285D01*
X375896Y528305D01*
X375895Y528325D01*
X375852Y528457D01*
X375813Y528591D01*
X375803Y528608D01*
X375796Y528627D01*
X375722Y528745D01*
X375651Y528865D01*
X375633Y528886D01*
X375626Y528896D01*
X375611Y528910D01*
X375545Y528986D01*
X375386Y529144D01*
X373839Y532879D01*
X373839Y536921D01*
X375386Y540656D01*
X378244Y543514D01*
X381979Y545061D01*
X386021Y545061D01*
X389756Y543514D01*
X392614Y540656D01*
X392827Y540140D01*
X392896Y540019D01*
X392961Y539896D01*
X392975Y539881D01*
X392985Y539864D01*
X393082Y539764D01*
X393175Y539661D01*
X393192Y539650D01*
X393206Y539635D01*
X393325Y539563D01*
X393441Y539486D01*
X393460Y539480D01*
X393477Y539469D01*
X393610Y539428D01*
X393742Y539383D01*
X393762Y539382D01*
X393781Y539376D01*
X393920Y539369D01*
X394059Y539358D01*
X394079Y539361D01*
X394099Y539360D01*
X394235Y539389D01*
X394372Y539412D01*
X394391Y539421D01*
X394410Y539425D01*
X394535Y539486D01*
X394662Y539543D01*
X394678Y539556D01*
X394696Y539564D01*
X394802Y539655D01*
X394910Y539742D01*
X394923Y539758D01*
X394938Y539771D01*
X395018Y539885D01*
X395102Y539996D01*
X395114Y540021D01*
X395121Y540031D01*
X395128Y540050D01*
X395173Y540140D01*
X395386Y540656D01*
X398244Y543514D01*
X401979Y545061D01*
X406021Y545061D01*
X409756Y543514D01*
X412614Y540656D01*
X413123Y539426D01*
X413167Y539349D01*
X413203Y539266D01*
X413246Y539211D01*
X413281Y539150D01*
X413343Y539086D01*
X413398Y539015D01*
X413453Y538972D01*
X413502Y538922D01*
X413578Y538875D01*
X413649Y538820D01*
X413713Y538792D01*
X413773Y538755D01*
X413859Y538729D01*
X413941Y538693D01*
X414010Y538682D01*
X414077Y538662D01*
X414166Y538657D01*
X414255Y538643D01*
X414325Y538650D01*
X414395Y538647D01*
X414482Y538665D01*
X414571Y538673D01*
X414637Y538697D01*
X414706Y538711D01*
X414787Y538750D01*
X414871Y538780D01*
X414929Y538820D01*
X414992Y538851D01*
X415060Y538909D01*
X415134Y538959D01*
X415180Y539012D01*
X415234Y539057D01*
X415285Y539130D01*
X415345Y539197D01*
X415408Y539305D01*
X415417Y539317D01*
X415419Y539323D01*
X415427Y539336D01*
X415744Y539959D01*
X416637Y541188D01*
X417712Y542263D01*
X418941Y543156D01*
X420295Y543846D01*
X421740Y544315D01*
X422001Y544356D01*
X422001Y535630D01*
X422016Y535512D01*
X422023Y535393D01*
X422035Y535355D01*
X422041Y535315D01*
X422084Y535204D01*
X422121Y535091D01*
X422143Y535057D01*
X422158Y535019D01*
X422227Y534923D01*
X422291Y534822D01*
X422321Y534794D01*
X422344Y534762D01*
X422436Y534686D01*
X422523Y534604D01*
X422558Y534585D01*
X422589Y534559D01*
X422697Y534508D01*
X422801Y534451D01*
X422841Y534441D01*
X422877Y534423D01*
X422994Y534401D01*
X423109Y534371D01*
X423169Y534367D01*
X423189Y534364D01*
X423210Y534365D01*
X423270Y534361D01*
X423461Y534361D01*
X423461Y534170D01*
X423476Y534052D01*
X423483Y533933D01*
X423496Y533895D01*
X423501Y533854D01*
X423545Y533744D01*
X423581Y533631D01*
X423603Y533596D01*
X423618Y533559D01*
X423688Y533462D01*
X423751Y533362D01*
X423781Y533334D01*
X423805Y533301D01*
X423896Y533225D01*
X423983Y533144D01*
X424018Y533124D01*
X424050Y533099D01*
X424157Y533048D01*
X424262Y532990D01*
X424301Y532980D01*
X424337Y532963D01*
X424454Y532941D01*
X424570Y532911D01*
X424630Y532907D01*
X424650Y532903D01*
X424670Y532905D01*
X424730Y532901D01*
X432570Y532901D01*
X432688Y532916D01*
X432807Y532923D01*
X432845Y532935D01*
X432886Y532941D01*
X432996Y532984D01*
X433109Y533021D01*
X433144Y533043D01*
X433181Y533058D01*
X433277Y533127D01*
X433378Y533191D01*
X433406Y533221D01*
X433439Y533244D01*
X433515Y533336D01*
X433596Y533423D01*
X433616Y533458D01*
X433641Y533489D01*
X433692Y533597D01*
X433750Y533701D01*
X433760Y533741D01*
X433777Y533777D01*
X433799Y533894D01*
X433829Y534009D01*
X433833Y534069D01*
X433837Y534089D01*
X433835Y534110D01*
X433839Y534170D01*
X433839Y535630D01*
X433824Y535748D01*
X433817Y535867D01*
X433804Y535905D01*
X433799Y535946D01*
X433756Y536056D01*
X433719Y536169D01*
X433697Y536204D01*
X433682Y536241D01*
X433613Y536337D01*
X433549Y536438D01*
X433519Y536466D01*
X433496Y536499D01*
X433404Y536575D01*
X433317Y536656D01*
X433282Y536676D01*
X433251Y536701D01*
X433143Y536752D01*
X433039Y536810D01*
X432999Y536820D01*
X432963Y536837D01*
X432846Y536859D01*
X432731Y536889D01*
X432671Y536893D01*
X432651Y536897D01*
X432630Y536895D01*
X432570Y536899D01*
X425999Y536899D01*
X425999Y544356D01*
X426260Y544315D01*
X427705Y543846D01*
X429059Y543156D01*
X430288Y542263D01*
X431363Y541188D01*
X432256Y539959D01*
X432573Y539336D01*
X432624Y539262D01*
X432666Y539183D01*
X432713Y539131D01*
X432752Y539073D01*
X432819Y539014D01*
X432879Y538947D01*
X432938Y538909D01*
X432991Y538862D01*
X433070Y538822D01*
X433145Y538773D01*
X433212Y538750D01*
X433274Y538718D01*
X433361Y538698D01*
X433446Y538669D01*
X433516Y538664D01*
X433584Y538648D01*
X433674Y538651D01*
X433763Y538644D01*
X433832Y538656D01*
X433902Y538658D01*
X433988Y538683D01*
X434076Y538698D01*
X434140Y538727D01*
X434208Y538747D01*
X434285Y538792D01*
X434366Y538829D01*
X434421Y538873D01*
X434481Y538909D01*
X434545Y538972D01*
X434615Y539028D01*
X434657Y539084D01*
X434707Y539133D01*
X434752Y539210D01*
X434806Y539282D01*
X434861Y539394D01*
X434869Y539407D01*
X434871Y539413D01*
X434877Y539426D01*
X435386Y540656D01*
X438244Y543514D01*
X441979Y545061D01*
X446021Y545061D01*
X449756Y543514D01*
X452614Y540656D01*
X454161Y536921D01*
X454161Y534133D01*
X454178Y533995D01*
X454191Y533856D01*
X454198Y533837D01*
X454201Y533817D01*
X454252Y533688D01*
X454299Y533557D01*
X454310Y533540D01*
X454318Y533521D01*
X454399Y533409D01*
X454477Y533294D01*
X454493Y533280D01*
X454504Y533264D01*
X454612Y533175D01*
X454716Y533083D01*
X454734Y533074D01*
X454749Y533061D01*
X454875Y533002D01*
X454999Y532939D01*
X455019Y532934D01*
X455037Y532926D01*
X455173Y532900D01*
X455309Y532869D01*
X455330Y532870D01*
X455349Y532866D01*
X455488Y532875D01*
X455627Y532879D01*
X455647Y532884D01*
X455667Y532886D01*
X455799Y532928D01*
X455933Y532967D01*
X455950Y532977D01*
X455969Y532984D01*
X456087Y533058D01*
X456207Y533129D01*
X456228Y533147D01*
X456238Y533154D01*
X456252Y533169D01*
X456327Y533235D01*
X459711Y536619D01*
X496589Y536619D01*
X516490Y516718D01*
X516497Y516712D01*
X516503Y516705D01*
X516623Y516614D01*
X516741Y516523D01*
X516750Y516519D01*
X516757Y516513D01*
X516902Y516443D01*
X517138Y516345D01*
X518845Y514638D01*
X519769Y512407D01*
X519769Y509993D01*
X518845Y507762D01*
X517138Y506055D01*
X514907Y505131D01*
X512493Y505131D01*
X510262Y506055D01*
X508555Y507762D01*
X507631Y509993D01*
X507631Y512459D01*
X507636Y512479D01*
X507670Y512605D01*
X507671Y512634D01*
X507677Y512663D01*
X507673Y512793D01*
X507675Y512923D01*
X507668Y512951D01*
X507667Y512981D01*
X507631Y513106D01*
X507601Y513232D01*
X507587Y513258D01*
X507579Y513287D01*
X507513Y513398D01*
X507452Y513513D01*
X507432Y513535D01*
X507417Y513561D01*
X507311Y513681D01*
X493383Y527610D01*
X493305Y527670D01*
X493232Y527738D01*
X493179Y527767D01*
X493132Y527804D01*
X493041Y527844D01*
X492954Y527892D01*
X492895Y527907D01*
X492840Y527931D01*
X492742Y527946D01*
X492646Y527971D01*
X492546Y527977D01*
X492526Y527981D01*
X492513Y527979D01*
X492485Y527981D01*
X463815Y527981D01*
X463716Y527969D01*
X463617Y527966D01*
X463559Y527949D01*
X463499Y527941D01*
X463407Y527905D01*
X463312Y527877D01*
X463260Y527847D01*
X463203Y527824D01*
X463123Y527766D01*
X463038Y527716D01*
X462963Y527650D01*
X462946Y527638D01*
X462938Y527628D01*
X462917Y527610D01*
X455890Y520583D01*
X452989Y517681D01*
X430815Y517681D01*
X430716Y517669D01*
X430617Y517666D01*
X430559Y517649D01*
X430499Y517641D01*
X430407Y517605D01*
X430312Y517577D01*
X430260Y517547D01*
X430203Y517524D01*
X430123Y517466D01*
X430038Y517416D01*
X429963Y517350D01*
X429946Y517338D01*
X429938Y517328D01*
X429917Y517310D01*
X423605Y510997D01*
X423532Y510903D01*
X423453Y510814D01*
X423435Y510778D01*
X423410Y510746D01*
X423363Y510637D01*
X423309Y510531D01*
X423300Y510492D01*
X423284Y510454D01*
X423265Y510337D01*
X423239Y510221D01*
X423240Y510180D01*
X423234Y510140D01*
X423245Y510022D01*
X423249Y509903D01*
X423260Y509864D01*
X423264Y509824D01*
X423304Y509711D01*
X423337Y509597D01*
X423358Y509562D01*
X423371Y509524D01*
X423438Y509426D01*
X423499Y509323D01*
X423539Y509278D01*
X423550Y509261D01*
X423565Y509248D01*
X423605Y509202D01*
X450617Y482190D01*
X450695Y482130D01*
X450767Y482062D01*
X450820Y482033D01*
X450868Y481996D01*
X450959Y481956D01*
X451046Y481908D01*
X451105Y481893D01*
X451160Y481869D01*
X451258Y481854D01*
X451354Y481829D01*
X451454Y481823D01*
X451474Y481819D01*
X451487Y481821D01*
X451515Y481819D01*
X467910Y481819D01*
X468009Y481831D01*
X468108Y481834D01*
X468166Y481851D01*
X468226Y481859D01*
X468318Y481895D01*
X468413Y481923D01*
X468465Y481953D01*
X468522Y481976D01*
X468602Y482034D01*
X468687Y482084D01*
X468763Y482150D01*
X468779Y482162D01*
X468787Y482172D01*
X468808Y482190D01*
X469262Y482645D01*
X471493Y483569D01*
X473907Y483569D01*
X476138Y482645D01*
X477845Y480938D01*
X478769Y478707D01*
X478769Y476293D01*
X477845Y474062D01*
X476138Y472355D01*
X473907Y471431D01*
X471493Y471431D01*
X469262Y472355D01*
X468808Y472810D01*
X468730Y472870D01*
X468658Y472938D01*
X468605Y472967D01*
X468557Y473004D01*
X468466Y473044D01*
X468379Y473092D01*
X468321Y473107D01*
X468265Y473131D01*
X468167Y473146D01*
X468071Y473171D01*
X467971Y473177D01*
X467951Y473181D01*
X467938Y473179D01*
X467910Y473181D01*
X447411Y473181D01*
X444510Y476083D01*
X417483Y503110D01*
X417405Y503170D01*
X417332Y503238D01*
X417279Y503267D01*
X417232Y503304D01*
X417141Y503344D01*
X417054Y503392D01*
X416995Y503407D01*
X416940Y503431D01*
X416842Y503446D01*
X416746Y503471D01*
X416646Y503477D01*
X416626Y503481D01*
X416613Y503479D01*
X416585Y503481D01*
X393611Y503481D01*
X384883Y512210D01*
X384805Y512270D01*
X384733Y512338D01*
X384680Y512367D01*
X384632Y512404D01*
X384541Y512444D01*
X384454Y512492D01*
X384395Y512507D01*
X384340Y512531D01*
X384242Y512546D01*
X384146Y512571D01*
X384046Y512577D01*
X384026Y512581D01*
X384013Y512579D01*
X383985Y512581D01*
X362691Y512581D01*
X362553Y512564D01*
X362414Y512551D01*
X362395Y512544D01*
X362375Y512541D01*
X362246Y512490D01*
X362115Y512443D01*
X362098Y512432D01*
X362079Y512424D01*
X361967Y512343D01*
X361852Y512264D01*
X361838Y512249D01*
X361822Y512238D01*
X361733Y512130D01*
X361641Y512026D01*
X361632Y512008D01*
X361619Y511993D01*
X361560Y511866D01*
X361497Y511743D01*
X361492Y511723D01*
X361484Y511705D01*
X361458Y511569D01*
X361427Y511432D01*
X361428Y511412D01*
X361424Y511393D01*
X361432Y511254D01*
X361437Y511115D01*
X361442Y511095D01*
X361444Y511075D01*
X361486Y510943D01*
X361525Y510809D01*
X361535Y510792D01*
X361542Y510773D01*
X361616Y510655D01*
X361687Y510535D01*
X361705Y510514D01*
X361712Y510504D01*
X361727Y510490D01*
X361793Y510414D01*
X361890Y510317D01*
X364819Y507389D01*
X364819Y496815D01*
X364831Y496716D01*
X364834Y496617D01*
X364851Y496559D01*
X364859Y496499D01*
X364895Y496407D01*
X364923Y496312D01*
X364953Y496260D01*
X364976Y496203D01*
X365034Y496123D01*
X365084Y496038D01*
X365150Y495963D01*
X365162Y495946D01*
X365172Y495938D01*
X365190Y495917D01*
X366017Y495090D01*
X366095Y495030D01*
X366168Y494962D01*
X366221Y494933D01*
X366268Y494896D01*
X366359Y494856D01*
X366446Y494808D01*
X366505Y494793D01*
X366560Y494769D01*
X366658Y494754D01*
X366754Y494729D01*
X366854Y494723D01*
X366874Y494719D01*
X366887Y494721D01*
X366915Y494719D01*
X396589Y494719D01*
X404117Y487190D01*
X404195Y487130D01*
X404268Y487062D01*
X404321Y487033D01*
X404368Y486996D01*
X404459Y486956D01*
X404546Y486908D01*
X404605Y486893D01*
X404660Y486869D01*
X404758Y486854D01*
X404854Y486829D01*
X404954Y486823D01*
X404974Y486819D01*
X404987Y486821D01*
X405015Y486819D01*
X421689Y486819D01*
X424590Y483917D01*
X427167Y481340D01*
X427245Y481280D01*
X427318Y481212D01*
X427371Y481183D01*
X427418Y481146D01*
X427509Y481106D01*
X427596Y481058D01*
X427655Y481043D01*
X427710Y481019D01*
X427808Y481004D01*
X427904Y480979D01*
X428004Y480973D01*
X428024Y480969D01*
X428037Y480971D01*
X428065Y480969D01*
X428707Y480969D01*
X430938Y480045D01*
X432645Y478338D01*
X433569Y476107D01*
X433569Y473693D01*
X432645Y471462D01*
X430938Y469755D01*
X428707Y468831D01*
X426293Y468831D01*
G37*
%LPD*%
%LPC*%
G36*
X637979Y339839D02*
X637979Y339839D01*
X634244Y341386D01*
X631386Y344244D01*
X629839Y347979D01*
X629839Y352021D01*
X631386Y355756D01*
X634244Y358614D01*
X635996Y359339D01*
X636057Y359374D01*
X636122Y359400D01*
X636194Y359452D01*
X636272Y359497D01*
X636322Y359545D01*
X636379Y359586D01*
X636436Y359656D01*
X636501Y359718D01*
X636537Y359778D01*
X636582Y359831D01*
X636620Y359913D01*
X636667Y359989D01*
X636687Y360056D01*
X636717Y360119D01*
X636734Y360207D01*
X636761Y360293D01*
X636764Y360363D01*
X636777Y360432D01*
X636771Y360521D01*
X636776Y360611D01*
X636762Y360679D01*
X636757Y360749D01*
X636730Y360834D01*
X636711Y360922D01*
X636681Y360985D01*
X636659Y361051D01*
X636611Y361127D01*
X636572Y361208D01*
X636526Y361261D01*
X636489Y361320D01*
X636424Y361382D01*
X636365Y361450D01*
X636308Y361490D01*
X636257Y361538D01*
X636179Y361581D01*
X636105Y361633D01*
X636040Y361658D01*
X635979Y361692D01*
X635892Y361714D01*
X635808Y361746D01*
X635738Y361754D01*
X635671Y361771D01*
X635510Y361781D01*
X626990Y361781D01*
X626891Y361769D01*
X626792Y361766D01*
X626734Y361749D01*
X626674Y361741D01*
X626582Y361705D01*
X626487Y361677D01*
X626435Y361647D01*
X626378Y361624D01*
X626298Y361566D01*
X626213Y361516D01*
X626137Y361450D01*
X626121Y361438D01*
X626113Y361428D01*
X626092Y361410D01*
X625638Y360955D01*
X623407Y360031D01*
X620993Y360031D01*
X618762Y360955D01*
X617055Y362662D01*
X616131Y364893D01*
X616131Y367307D01*
X617055Y369538D01*
X618762Y371245D01*
X620993Y372169D01*
X623407Y372169D01*
X625638Y371245D01*
X626092Y370790D01*
X626170Y370730D01*
X626242Y370662D01*
X626295Y370633D01*
X626343Y370596D01*
X626434Y370556D01*
X626521Y370508D01*
X626579Y370493D01*
X626635Y370469D01*
X626733Y370454D01*
X626829Y370429D01*
X626929Y370423D01*
X626949Y370419D01*
X626962Y370421D01*
X626990Y370419D01*
X692148Y370419D01*
X692285Y370436D01*
X692424Y370449D01*
X692443Y370456D01*
X692463Y370459D01*
X692592Y370510D01*
X692723Y370557D01*
X692740Y370568D01*
X692759Y370576D01*
X692871Y370657D01*
X692986Y370735D01*
X693000Y370751D01*
X693016Y370762D01*
X693105Y370870D01*
X693197Y370974D01*
X693206Y370992D01*
X693219Y371007D01*
X693278Y371133D01*
X693341Y371257D01*
X693346Y371277D01*
X693354Y371295D01*
X693381Y371432D01*
X693411Y371567D01*
X693410Y371588D01*
X693414Y371607D01*
X693406Y371746D01*
X693401Y371885D01*
X693396Y371905D01*
X693395Y371925D01*
X693352Y372057D01*
X693313Y372191D01*
X693303Y372208D01*
X693296Y372227D01*
X693222Y372345D01*
X693151Y372465D01*
X693133Y372486D01*
X693126Y372496D01*
X693111Y372510D01*
X693045Y372585D01*
X691386Y374244D01*
X691116Y374898D01*
X691101Y374923D01*
X691092Y374951D01*
X691022Y375061D01*
X690958Y375174D01*
X690937Y375195D01*
X690922Y375220D01*
X690827Y375309D01*
X690737Y375402D01*
X690712Y375418D01*
X690690Y375438D01*
X690576Y375501D01*
X690466Y375569D01*
X690437Y375577D01*
X690412Y375592D01*
X690286Y375624D01*
X690162Y375662D01*
X690132Y375664D01*
X690104Y375671D01*
X689943Y375681D01*
X656611Y375681D01*
X612327Y419965D01*
X612218Y420050D01*
X612111Y420139D01*
X612092Y420147D01*
X612076Y420160D01*
X611948Y420215D01*
X611823Y420274D01*
X611803Y420278D01*
X611784Y420286D01*
X611646Y420308D01*
X611510Y420334D01*
X611490Y420333D01*
X611470Y420336D01*
X611331Y420323D01*
X611193Y420314D01*
X611174Y420308D01*
X611154Y420306D01*
X611022Y420259D01*
X610891Y420216D01*
X610873Y420206D01*
X610854Y420199D01*
X610739Y420121D01*
X610622Y420046D01*
X610608Y420031D01*
X610591Y420020D01*
X610499Y419916D01*
X610404Y419815D01*
X610394Y419797D01*
X610381Y419782D01*
X610317Y419658D01*
X610250Y419536D01*
X610245Y419516D01*
X610236Y419498D01*
X610206Y419363D01*
X610171Y419228D01*
X610169Y419200D01*
X610166Y419188D01*
X610167Y419168D01*
X610161Y419067D01*
X610161Y417979D01*
X608614Y414244D01*
X605756Y411386D01*
X605240Y411173D01*
X605119Y411104D01*
X604996Y411039D01*
X604981Y411025D01*
X604964Y411015D01*
X604864Y410918D01*
X604761Y410825D01*
X604750Y410808D01*
X604735Y410794D01*
X604663Y410676D01*
X604586Y410559D01*
X604580Y410540D01*
X604569Y410523D01*
X604528Y410390D01*
X604483Y410258D01*
X604482Y410238D01*
X604476Y410219D01*
X604469Y410080D01*
X604458Y409941D01*
X604461Y409921D01*
X604460Y409901D01*
X604489Y409765D01*
X604512Y409628D01*
X604521Y409610D01*
X604525Y409590D01*
X604586Y409464D01*
X604643Y409338D01*
X604656Y409322D01*
X604664Y409304D01*
X604755Y409198D01*
X604842Y409089D01*
X604858Y409077D01*
X604871Y409062D01*
X604985Y408982D01*
X605096Y408898D01*
X605121Y408886D01*
X605131Y408879D01*
X605150Y408872D01*
X605240Y408827D01*
X605756Y408614D01*
X608614Y405756D01*
X610161Y402021D01*
X610161Y397979D01*
X608614Y394244D01*
X605756Y391386D01*
X605240Y391173D01*
X605119Y391104D01*
X604996Y391039D01*
X604981Y391025D01*
X604964Y391015D01*
X604864Y390918D01*
X604761Y390825D01*
X604750Y390808D01*
X604735Y390794D01*
X604663Y390676D01*
X604586Y390559D01*
X604580Y390540D01*
X604569Y390523D01*
X604528Y390390D01*
X604483Y390258D01*
X604482Y390238D01*
X604476Y390219D01*
X604469Y390080D01*
X604458Y389941D01*
X604461Y389921D01*
X604460Y389901D01*
X604489Y389765D01*
X604512Y389628D01*
X604521Y389610D01*
X604525Y389590D01*
X604586Y389464D01*
X604643Y389338D01*
X604656Y389322D01*
X604664Y389304D01*
X604755Y389198D01*
X604842Y389089D01*
X604858Y389077D01*
X604871Y389062D01*
X604985Y388982D01*
X605096Y388898D01*
X605121Y388886D01*
X605131Y388879D01*
X605150Y388872D01*
X605240Y388827D01*
X605756Y388614D01*
X608614Y385756D01*
X610161Y382021D01*
X610161Y377979D01*
X608614Y374244D01*
X605756Y371386D01*
X602021Y369839D01*
X597979Y369839D01*
X594244Y371386D01*
X591386Y374244D01*
X589839Y377979D01*
X589839Y382021D01*
X591386Y385756D01*
X594244Y388614D01*
X594760Y388827D01*
X594881Y388896D01*
X595004Y388961D01*
X595019Y388975D01*
X595036Y388985D01*
X595136Y389082D01*
X595239Y389175D01*
X595250Y389192D01*
X595265Y389206D01*
X595337Y389325D01*
X595414Y389441D01*
X595420Y389460D01*
X595431Y389477D01*
X595472Y389610D01*
X595517Y389742D01*
X595518Y389762D01*
X595524Y389781D01*
X595531Y389920D01*
X595542Y390059D01*
X595539Y390079D01*
X595540Y390099D01*
X595511Y390235D01*
X595488Y390372D01*
X595479Y390391D01*
X595475Y390410D01*
X595414Y390535D01*
X595357Y390662D01*
X595344Y390678D01*
X595336Y390696D01*
X595245Y390802D01*
X595158Y390910D01*
X595142Y390923D01*
X595129Y390938D01*
X595015Y391018D01*
X594904Y391102D01*
X594879Y391114D01*
X594869Y391121D01*
X594850Y391128D01*
X594760Y391173D01*
X594244Y391386D01*
X591386Y394244D01*
X589839Y397979D01*
X589839Y402021D01*
X591386Y405756D01*
X594244Y408614D01*
X594760Y408827D01*
X594881Y408896D01*
X595004Y408961D01*
X595019Y408975D01*
X595036Y408985D01*
X595136Y409082D01*
X595239Y409175D01*
X595250Y409192D01*
X595265Y409206D01*
X595337Y409325D01*
X595414Y409441D01*
X595420Y409460D01*
X595431Y409477D01*
X595472Y409610D01*
X595517Y409742D01*
X595518Y409762D01*
X595524Y409781D01*
X595531Y409920D01*
X595542Y410059D01*
X595539Y410079D01*
X595540Y410099D01*
X595511Y410235D01*
X595488Y410372D01*
X595479Y410391D01*
X595475Y410410D01*
X595414Y410535D01*
X595357Y410662D01*
X595344Y410678D01*
X595336Y410696D01*
X595245Y410802D01*
X595158Y410910D01*
X595142Y410923D01*
X595129Y410938D01*
X595015Y411018D01*
X594904Y411102D01*
X594879Y411114D01*
X594869Y411121D01*
X594850Y411128D01*
X594760Y411173D01*
X594244Y411386D01*
X591386Y414244D01*
X589839Y417979D01*
X589839Y422021D01*
X591311Y425574D01*
X591319Y425602D01*
X591332Y425628D01*
X591360Y425755D01*
X591395Y425880D01*
X591395Y425910D01*
X591402Y425939D01*
X591398Y426068D01*
X591400Y426198D01*
X591393Y426227D01*
X591392Y426257D01*
X591356Y426381D01*
X591326Y426508D01*
X591312Y426534D01*
X591304Y426562D01*
X591238Y426674D01*
X591177Y426789D01*
X591157Y426811D01*
X591142Y426836D01*
X591036Y426957D01*
X589510Y428483D01*
X585183Y432810D01*
X585105Y432870D01*
X585032Y432938D01*
X584979Y432967D01*
X584932Y433004D01*
X584841Y433044D01*
X584754Y433092D01*
X584695Y433107D01*
X584640Y433131D01*
X584542Y433146D01*
X584446Y433171D01*
X584346Y433177D01*
X584326Y433181D01*
X584313Y433179D01*
X584285Y433181D01*
X573590Y433181D01*
X573491Y433169D01*
X573392Y433166D01*
X573334Y433149D01*
X573274Y433141D01*
X573182Y433105D01*
X573087Y433077D01*
X573035Y433047D01*
X572978Y433024D01*
X572898Y432966D01*
X572813Y432916D01*
X572737Y432850D01*
X572721Y432838D01*
X572713Y432828D01*
X572692Y432810D01*
X572238Y432355D01*
X570007Y431431D01*
X567593Y431431D01*
X565362Y432355D01*
X563655Y434062D01*
X562731Y436293D01*
X562731Y438707D01*
X563655Y440938D01*
X565362Y442645D01*
X566981Y443315D01*
X567102Y443384D01*
X567225Y443449D01*
X567240Y443463D01*
X567257Y443473D01*
X567357Y443569D01*
X567460Y443663D01*
X567471Y443680D01*
X567486Y443694D01*
X567558Y443813D01*
X567635Y443929D01*
X567641Y443948D01*
X567652Y443965D01*
X567693Y444098D01*
X567738Y444230D01*
X567739Y444250D01*
X567745Y444269D01*
X567752Y444408D01*
X567763Y444547D01*
X567760Y444567D01*
X567761Y444587D01*
X567732Y444723D01*
X567709Y444860D01*
X567700Y444878D01*
X567696Y444898D01*
X567635Y445023D01*
X567578Y445150D01*
X567565Y445166D01*
X567557Y445184D01*
X567466Y445290D01*
X567379Y445398D01*
X567363Y445411D01*
X567350Y445426D01*
X567237Y445506D01*
X567125Y445590D01*
X567100Y445602D01*
X567090Y445609D01*
X567071Y445616D01*
X566981Y445660D01*
X565062Y446455D01*
X563355Y448162D01*
X562431Y450393D01*
X562431Y452807D01*
X563355Y455038D01*
X565062Y456745D01*
X567293Y457669D01*
X567935Y457669D01*
X568034Y457681D01*
X568133Y457684D01*
X568191Y457701D01*
X568251Y457709D01*
X568343Y457745D01*
X568438Y457773D01*
X568490Y457803D01*
X568547Y457826D01*
X568627Y457884D01*
X568712Y457934D01*
X568787Y458000D01*
X568804Y458012D01*
X568812Y458022D01*
X568833Y458040D01*
X603260Y492467D01*
X603320Y492545D01*
X603388Y492618D01*
X603417Y492671D01*
X603454Y492718D01*
X603494Y492809D01*
X603542Y492896D01*
X603557Y492955D01*
X603581Y493010D01*
X603596Y493108D01*
X603621Y493204D01*
X603627Y493304D01*
X603631Y493324D01*
X603629Y493337D01*
X603631Y493365D01*
X603631Y494307D01*
X604555Y496538D01*
X606262Y498245D01*
X608493Y499169D01*
X610907Y499169D01*
X613138Y498245D01*
X614845Y496538D01*
X615769Y494307D01*
X615769Y491893D01*
X614845Y489662D01*
X613138Y487955D01*
X610907Y487031D01*
X610565Y487031D01*
X610466Y487019D01*
X610367Y487016D01*
X610309Y486999D01*
X610249Y486991D01*
X610157Y486955D01*
X610062Y486927D01*
X610010Y486897D01*
X609953Y486874D01*
X609873Y486816D01*
X609788Y486766D01*
X609713Y486700D01*
X609696Y486688D01*
X609688Y486678D01*
X609667Y486660D01*
X574940Y451933D01*
X574880Y451855D01*
X574812Y451782D01*
X574783Y451729D01*
X574746Y451682D01*
X574706Y451591D01*
X574658Y451504D01*
X574643Y451445D01*
X574619Y451390D01*
X574604Y451292D01*
X574579Y451196D01*
X574573Y451096D01*
X574569Y451076D01*
X574571Y451063D01*
X574569Y451035D01*
X574569Y450393D01*
X573645Y448162D01*
X571938Y446455D01*
X570319Y445785D01*
X570198Y445716D01*
X570075Y445651D01*
X570060Y445637D01*
X570043Y445627D01*
X569943Y445531D01*
X569840Y445437D01*
X569829Y445420D01*
X569814Y445406D01*
X569742Y445287D01*
X569665Y445171D01*
X569659Y445152D01*
X569648Y445135D01*
X569607Y445002D01*
X569562Y444870D01*
X569561Y444850D01*
X569555Y444831D01*
X569548Y444692D01*
X569537Y444553D01*
X569540Y444533D01*
X569539Y444513D01*
X569568Y444377D01*
X569591Y444240D01*
X569600Y444222D01*
X569604Y444202D01*
X569665Y444077D01*
X569722Y443950D01*
X569735Y443934D01*
X569743Y443916D01*
X569834Y443810D01*
X569921Y443702D01*
X569937Y443689D01*
X569950Y443674D01*
X570063Y443594D01*
X570175Y443510D01*
X570200Y443498D01*
X570210Y443491D01*
X570229Y443484D01*
X570319Y443440D01*
X572238Y442645D01*
X572692Y442190D01*
X572770Y442130D01*
X572842Y442062D01*
X572895Y442033D01*
X572943Y441996D01*
X573034Y441956D01*
X573121Y441908D01*
X573179Y441893D01*
X573235Y441869D01*
X573333Y441854D01*
X573429Y441829D01*
X573529Y441823D01*
X573549Y441819D01*
X573562Y441821D01*
X573590Y441819D01*
X588907Y441819D01*
X588937Y441822D01*
X588966Y441820D01*
X589094Y441842D01*
X589223Y441859D01*
X589250Y441869D01*
X589279Y441874D01*
X589398Y441928D01*
X589519Y441976D01*
X589542Y441993D01*
X589569Y442005D01*
X589671Y442086D01*
X589776Y442162D01*
X589795Y442185D01*
X589818Y442204D01*
X589896Y442307D01*
X589979Y442407D01*
X589991Y442434D01*
X590009Y442458D01*
X590080Y442602D01*
X591386Y445756D01*
X594244Y448614D01*
X597979Y450161D01*
X602021Y450161D01*
X605756Y448614D01*
X608614Y445756D01*
X610161Y442021D01*
X610161Y437979D01*
X609333Y435980D01*
X609320Y435932D01*
X609298Y435887D01*
X609278Y435779D01*
X609249Y435673D01*
X609248Y435623D01*
X609239Y435574D01*
X609245Y435465D01*
X609244Y435355D01*
X609255Y435307D01*
X609258Y435257D01*
X609292Y435153D01*
X609318Y435046D01*
X609341Y435002D01*
X609356Y434955D01*
X609415Y434862D01*
X609467Y434765D01*
X609500Y434728D01*
X609527Y434686D01*
X609607Y434611D01*
X609680Y434529D01*
X609722Y434502D01*
X609758Y434468D01*
X609854Y434415D01*
X609946Y434355D01*
X609993Y434338D01*
X610037Y434314D01*
X610143Y434287D01*
X610247Y434251D01*
X610257Y434250D01*
X659817Y384690D01*
X659895Y384630D01*
X659968Y384562D01*
X660021Y384533D01*
X660068Y384496D01*
X660159Y384456D01*
X660246Y384408D01*
X660305Y384393D01*
X660360Y384369D01*
X660458Y384354D01*
X660554Y384329D01*
X660654Y384323D01*
X660674Y384319D01*
X660687Y384321D01*
X660715Y384319D01*
X689943Y384319D01*
X689972Y384322D01*
X690002Y384320D01*
X690130Y384342D01*
X690258Y384359D01*
X690286Y384369D01*
X690315Y384374D01*
X690434Y384428D01*
X690554Y384476D01*
X690578Y384493D01*
X690605Y384505D01*
X690707Y384586D01*
X690811Y384662D01*
X690830Y384685D01*
X690853Y384704D01*
X690931Y384807D01*
X691014Y384907D01*
X691027Y384934D01*
X691045Y384958D01*
X691116Y385102D01*
X691386Y385756D01*
X694244Y388614D01*
X697979Y390161D01*
X702021Y390161D01*
X705756Y388614D01*
X708614Y385756D01*
X709123Y384526D01*
X709167Y384448D01*
X709203Y384366D01*
X709246Y384311D01*
X709281Y384250D01*
X709343Y384186D01*
X709398Y384115D01*
X709453Y384072D01*
X709502Y384022D01*
X709578Y383975D01*
X709649Y383920D01*
X709713Y383892D01*
X709773Y383855D01*
X709859Y383829D01*
X709941Y383793D01*
X710010Y383782D01*
X710077Y383762D01*
X710166Y383757D01*
X710255Y383743D01*
X710325Y383750D01*
X710395Y383747D01*
X710482Y383765D01*
X710571Y383773D01*
X710637Y383797D01*
X710706Y383811D01*
X710787Y383850D01*
X710871Y383880D01*
X710929Y383920D01*
X710992Y383951D01*
X711060Y384009D01*
X711134Y384059D01*
X711180Y384111D01*
X711234Y384157D01*
X711285Y384230D01*
X711345Y384297D01*
X711408Y384405D01*
X711417Y384417D01*
X711419Y384423D01*
X711427Y384436D01*
X711744Y385059D01*
X712637Y386288D01*
X713712Y387363D01*
X714941Y388256D01*
X716295Y388946D01*
X717740Y389415D01*
X718001Y389456D01*
X718001Y380730D01*
X718016Y380612D01*
X718023Y380493D01*
X718035Y380455D01*
X718041Y380415D01*
X718084Y380304D01*
X718121Y380191D01*
X718143Y380157D01*
X718158Y380119D01*
X718227Y380023D01*
X718238Y380006D01*
X718224Y379982D01*
X718199Y379950D01*
X718148Y379843D01*
X718090Y379738D01*
X718080Y379699D01*
X718063Y379663D01*
X718041Y379546D01*
X718011Y379430D01*
X718007Y379370D01*
X718003Y379350D01*
X718005Y379330D01*
X718003Y379313D01*
X718003Y379312D01*
X718003Y379311D01*
X718001Y379270D01*
X718001Y369233D01*
X718013Y369134D01*
X718016Y369035D01*
X718033Y368977D01*
X718041Y368917D01*
X718077Y368825D01*
X718105Y368730D01*
X718135Y368678D01*
X718158Y368621D01*
X718216Y368541D01*
X718266Y368456D01*
X718332Y368381D01*
X718344Y368364D01*
X718354Y368356D01*
X718372Y368335D01*
X723467Y363240D01*
X723545Y363180D01*
X723618Y363112D01*
X723671Y363083D01*
X723718Y363046D01*
X723809Y363006D01*
X723896Y362958D01*
X723955Y362943D01*
X724010Y362919D01*
X724108Y362904D01*
X724204Y362879D01*
X724304Y362873D01*
X724324Y362869D01*
X724337Y362871D01*
X724365Y362869D01*
X725007Y362869D01*
X727238Y361945D01*
X728945Y360238D01*
X729869Y358007D01*
X729869Y355593D01*
X728945Y353362D01*
X727238Y351655D01*
X725007Y350731D01*
X722593Y350731D01*
X720362Y351655D01*
X718655Y353362D01*
X717731Y355593D01*
X717731Y356235D01*
X717719Y356333D01*
X717716Y356433D01*
X717699Y356491D01*
X717691Y356551D01*
X717655Y356643D01*
X717627Y356738D01*
X717597Y356790D01*
X717574Y356847D01*
X717516Y356927D01*
X717466Y357012D01*
X717400Y357087D01*
X717388Y357104D01*
X717378Y357112D01*
X717360Y357133D01*
X713083Y361410D01*
X713005Y361470D01*
X712932Y361538D01*
X712879Y361567D01*
X712832Y361604D01*
X712741Y361644D01*
X712654Y361692D01*
X712595Y361707D01*
X712540Y361731D01*
X712442Y361746D01*
X712346Y361771D01*
X712246Y361777D01*
X712226Y361781D01*
X712213Y361779D01*
X712185Y361781D01*
X704490Y361781D01*
X704421Y361773D01*
X704351Y361774D01*
X704263Y361753D01*
X704174Y361741D01*
X704109Y361716D01*
X704041Y361699D01*
X703962Y361657D01*
X703878Y361624D01*
X703822Y361583D01*
X703760Y361551D01*
X703694Y361490D01*
X703621Y361438D01*
X703577Y361384D01*
X703525Y361337D01*
X703476Y361262D01*
X703418Y361193D01*
X703389Y361129D01*
X703350Y361071D01*
X703321Y360986D01*
X703283Y360905D01*
X703270Y360836D01*
X703247Y360770D01*
X703240Y360681D01*
X703223Y360593D01*
X703227Y360523D01*
X703222Y360453D01*
X703237Y360365D01*
X703243Y360275D01*
X703264Y360209D01*
X703276Y360140D01*
X703313Y360058D01*
X703341Y359973D01*
X703378Y359914D01*
X703407Y359850D01*
X703463Y359780D01*
X703511Y359704D01*
X703562Y359656D01*
X703605Y359602D01*
X703677Y359547D01*
X703743Y359486D01*
X703804Y359452D01*
X703859Y359410D01*
X704004Y359339D01*
X705756Y358614D01*
X708614Y355756D01*
X710161Y352021D01*
X710161Y347979D01*
X708614Y344244D01*
X705756Y341386D01*
X702021Y339839D01*
X697979Y339839D01*
X694244Y341386D01*
X691386Y344244D01*
X691173Y344760D01*
X691104Y344881D01*
X691039Y345004D01*
X691025Y345019D01*
X691015Y345036D01*
X690918Y345136D01*
X690825Y345239D01*
X690808Y345250D01*
X690794Y345265D01*
X690676Y345337D01*
X690559Y345414D01*
X690540Y345420D01*
X690523Y345431D01*
X690390Y345472D01*
X690258Y345517D01*
X690238Y345518D01*
X690219Y345524D01*
X690080Y345531D01*
X689941Y345542D01*
X689921Y345539D01*
X689901Y345540D01*
X689765Y345511D01*
X689628Y345488D01*
X689610Y345479D01*
X689590Y345475D01*
X689464Y345414D01*
X689338Y345357D01*
X689322Y345344D01*
X689304Y345336D01*
X689198Y345245D01*
X689089Y345158D01*
X689077Y345142D01*
X689062Y345129D01*
X688982Y345015D01*
X688898Y344904D01*
X688886Y344879D01*
X688879Y344869D01*
X688872Y344850D01*
X688827Y344760D01*
X688614Y344244D01*
X685756Y341386D01*
X682021Y339839D01*
X677979Y339839D01*
X674244Y341386D01*
X671386Y344244D01*
X671173Y344760D01*
X671104Y344881D01*
X671039Y345004D01*
X671025Y345019D01*
X671015Y345036D01*
X670918Y345136D01*
X670825Y345239D01*
X670808Y345250D01*
X670794Y345265D01*
X670676Y345337D01*
X670559Y345414D01*
X670540Y345420D01*
X670523Y345431D01*
X670390Y345472D01*
X670258Y345517D01*
X670238Y345518D01*
X670219Y345524D01*
X670080Y345531D01*
X669941Y345542D01*
X669921Y345539D01*
X669901Y345540D01*
X669765Y345511D01*
X669628Y345488D01*
X669610Y345479D01*
X669590Y345475D01*
X669464Y345414D01*
X669338Y345357D01*
X669322Y345344D01*
X669304Y345336D01*
X669198Y345245D01*
X669089Y345158D01*
X669077Y345142D01*
X669062Y345129D01*
X668982Y345015D01*
X668898Y344904D01*
X668886Y344879D01*
X668879Y344869D01*
X668872Y344850D01*
X668827Y344760D01*
X668614Y344244D01*
X665756Y341386D01*
X662021Y339839D01*
X657979Y339839D01*
X654244Y341386D01*
X651386Y344244D01*
X651173Y344760D01*
X651104Y344881D01*
X651039Y345004D01*
X651025Y345019D01*
X651015Y345036D01*
X650918Y345136D01*
X650825Y345239D01*
X650808Y345250D01*
X650794Y345265D01*
X650676Y345337D01*
X650559Y345414D01*
X650540Y345420D01*
X650523Y345431D01*
X650390Y345472D01*
X650258Y345517D01*
X650238Y345518D01*
X650219Y345524D01*
X650080Y345531D01*
X649941Y345542D01*
X649921Y345539D01*
X649901Y345540D01*
X649765Y345511D01*
X649628Y345488D01*
X649610Y345479D01*
X649590Y345475D01*
X649464Y345414D01*
X649338Y345357D01*
X649322Y345344D01*
X649304Y345336D01*
X649198Y345245D01*
X649089Y345158D01*
X649077Y345142D01*
X649062Y345129D01*
X648982Y345015D01*
X648898Y344904D01*
X648886Y344879D01*
X648879Y344869D01*
X648872Y344850D01*
X648827Y344760D01*
X648614Y344244D01*
X645756Y341386D01*
X642021Y339839D01*
X637979Y339839D01*
G37*
%LPD*%
%LPC*%
G36*
X382593Y386431D02*
X382593Y386431D01*
X380362Y387355D01*
X378655Y389062D01*
X377731Y391293D01*
X377731Y393707D01*
X378655Y395938D01*
X380380Y397662D01*
X380418Y397684D01*
X380524Y397736D01*
X380555Y397762D01*
X380590Y397782D01*
X380676Y397865D01*
X380766Y397942D01*
X380790Y397975D01*
X380819Y398004D01*
X380881Y398105D01*
X380949Y398202D01*
X380964Y398240D01*
X380985Y398275D01*
X381020Y398388D01*
X381062Y398500D01*
X381067Y398540D01*
X381079Y398579D01*
X381084Y398698D01*
X381097Y398816D01*
X381092Y398856D01*
X381094Y398896D01*
X381070Y399013D01*
X381053Y399131D01*
X381034Y399188D01*
X381029Y399208D01*
X381020Y399226D01*
X381001Y399283D01*
X380831Y399693D01*
X380831Y402107D01*
X381755Y404338D01*
X382420Y405003D01*
X382493Y405097D01*
X382572Y405186D01*
X382590Y405222D01*
X382615Y405254D01*
X382662Y405363D01*
X382716Y405469D01*
X382725Y405509D01*
X382741Y405546D01*
X382760Y405664D01*
X382786Y405779D01*
X382785Y405820D01*
X382791Y405860D01*
X382780Y405979D01*
X382776Y406097D01*
X382765Y406136D01*
X382761Y406176D01*
X382721Y406289D01*
X382688Y406403D01*
X382667Y406438D01*
X382654Y406476D01*
X382587Y406574D01*
X382526Y406677D01*
X382487Y406722D01*
X382475Y406739D01*
X382460Y406752D01*
X382420Y406798D01*
X382355Y406862D01*
X381431Y409093D01*
X381431Y411507D01*
X382355Y413738D01*
X384062Y415445D01*
X386293Y416369D01*
X388707Y416369D01*
X390938Y415445D01*
X391392Y414990D01*
X391470Y414930D01*
X391542Y414862D01*
X391595Y414833D01*
X391643Y414796D01*
X391734Y414756D01*
X391821Y414708D01*
X391879Y414693D01*
X391935Y414669D01*
X392033Y414654D01*
X392129Y414629D01*
X392229Y414623D01*
X392249Y414619D01*
X392262Y414621D01*
X392290Y414619D01*
X419485Y414619D01*
X419584Y414631D01*
X419683Y414634D01*
X419741Y414651D01*
X419801Y414659D01*
X419893Y414695D01*
X419988Y414723D01*
X420040Y414753D01*
X420097Y414776D01*
X420177Y414834D01*
X420262Y414884D01*
X420337Y414950D01*
X420354Y414962D01*
X420362Y414972D01*
X420383Y414990D01*
X435660Y430267D01*
X435720Y430345D01*
X435788Y430418D01*
X435817Y430471D01*
X435854Y430518D01*
X435894Y430609D01*
X435942Y430696D01*
X435957Y430755D01*
X435981Y430810D01*
X435996Y430908D01*
X436021Y431004D01*
X436027Y431104D01*
X436031Y431124D01*
X436029Y431137D01*
X436031Y431165D01*
X436031Y431807D01*
X436955Y434038D01*
X438662Y435745D01*
X440893Y436669D01*
X443307Y436669D01*
X445538Y435745D01*
X447245Y434038D01*
X447392Y433682D01*
X447417Y433639D01*
X447434Y433592D01*
X447495Y433501D01*
X447550Y433406D01*
X447584Y433370D01*
X447612Y433329D01*
X447695Y433256D01*
X447771Y433177D01*
X447813Y433151D01*
X447851Y433118D01*
X447949Y433068D01*
X448042Y433011D01*
X448090Y432996D01*
X448134Y432974D01*
X448241Y432950D01*
X448346Y432917D01*
X448396Y432915D01*
X448444Y432904D01*
X448554Y432907D01*
X448664Y432902D01*
X448712Y432912D01*
X448762Y432914D01*
X448868Y432944D01*
X448975Y432966D01*
X449020Y432988D01*
X449068Y433002D01*
X449162Y433058D01*
X449261Y433106D01*
X449299Y433138D01*
X449342Y433164D01*
X449462Y433270D01*
X454160Y437967D01*
X454220Y438045D01*
X454288Y438117D01*
X454317Y438170D01*
X454354Y438218D01*
X454394Y438309D01*
X454442Y438396D01*
X454457Y438455D01*
X454481Y438510D01*
X454496Y438608D01*
X454521Y438704D01*
X454527Y438796D01*
X454529Y438806D01*
X454528Y438810D01*
X454531Y438824D01*
X454529Y438837D01*
X454531Y438865D01*
X454531Y439507D01*
X455455Y441738D01*
X457162Y443445D01*
X459393Y444369D01*
X461807Y444369D01*
X464038Y443445D01*
X465745Y441738D01*
X466669Y439507D01*
X466669Y437093D01*
X465745Y434862D01*
X464038Y433155D01*
X461807Y432231D01*
X461165Y432231D01*
X461066Y432219D01*
X460967Y432216D01*
X460909Y432199D01*
X460849Y432191D01*
X460757Y432155D01*
X460662Y432127D01*
X460610Y432097D01*
X460553Y432074D01*
X460473Y432016D01*
X460388Y431966D01*
X460313Y431900D01*
X460296Y431888D01*
X460288Y431878D01*
X460267Y431860D01*
X427890Y399483D01*
X427743Y399335D01*
X427669Y399241D01*
X427591Y399152D01*
X427572Y399116D01*
X427548Y399084D01*
X427500Y398974D01*
X427446Y398868D01*
X427437Y398829D01*
X427421Y398792D01*
X427403Y398674D01*
X427377Y398558D01*
X427378Y398518D01*
X427371Y398478D01*
X427383Y398359D01*
X427386Y398240D01*
X427397Y398201D01*
X427401Y398161D01*
X427442Y398049D01*
X427475Y397935D01*
X427495Y397900D01*
X427509Y397862D01*
X427576Y397763D01*
X427636Y397661D01*
X427676Y397616D01*
X427687Y397599D01*
X427703Y397585D01*
X427743Y397540D01*
X429345Y395938D01*
X430269Y393707D01*
X430269Y391293D01*
X429345Y389062D01*
X427638Y387355D01*
X425407Y386431D01*
X422993Y386431D01*
X420762Y387355D01*
X420308Y387810D01*
X420230Y387870D01*
X420158Y387938D01*
X420105Y387967D01*
X420057Y388004D01*
X419966Y388044D01*
X419879Y388092D01*
X419821Y388107D01*
X419765Y388131D01*
X419667Y388146D01*
X419571Y388171D01*
X419471Y388177D01*
X419451Y388181D01*
X419438Y388179D01*
X419410Y388181D01*
X388590Y388181D01*
X388491Y388169D01*
X388392Y388166D01*
X388334Y388149D01*
X388274Y388141D01*
X388182Y388105D01*
X388087Y388077D01*
X388035Y388047D01*
X387978Y388024D01*
X387898Y387966D01*
X387813Y387916D01*
X387737Y387850D01*
X387721Y387838D01*
X387713Y387828D01*
X387692Y387810D01*
X387238Y387355D01*
X385007Y386431D01*
X382593Y386431D01*
G37*
%LPD*%
%LPC*%
G36*
X577979Y529839D02*
X577979Y529839D01*
X574244Y531386D01*
X571386Y534244D01*
X571074Y534998D01*
X571059Y535023D01*
X571050Y535051D01*
X570981Y535161D01*
X570917Y535274D01*
X570896Y535295D01*
X570880Y535320D01*
X570786Y535409D01*
X570695Y535502D01*
X570670Y535518D01*
X570649Y535538D01*
X570535Y535601D01*
X570424Y535669D01*
X570396Y535677D01*
X570370Y535692D01*
X570244Y535724D01*
X570120Y535762D01*
X570091Y535764D01*
X570062Y535771D01*
X569901Y535781D01*
X555090Y535781D01*
X554991Y535769D01*
X554892Y535766D01*
X554834Y535749D01*
X554774Y535741D01*
X554682Y535705D01*
X554587Y535677D01*
X554535Y535647D01*
X554478Y535624D01*
X554398Y535566D01*
X554313Y535516D01*
X554237Y535450D01*
X554221Y535438D01*
X554213Y535428D01*
X554192Y535410D01*
X553738Y534955D01*
X551507Y534031D01*
X549093Y534031D01*
X546862Y534955D01*
X545155Y536662D01*
X544231Y538893D01*
X544231Y541307D01*
X545155Y543538D01*
X546862Y545245D01*
X549093Y546169D01*
X551507Y546169D01*
X553738Y545245D01*
X554192Y544790D01*
X554270Y544730D01*
X554342Y544662D01*
X554395Y544633D01*
X554443Y544596D01*
X554534Y544556D01*
X554621Y544508D01*
X554679Y544493D01*
X554735Y544469D01*
X554833Y544454D01*
X554929Y544429D01*
X555029Y544423D01*
X555049Y544419D01*
X555062Y544421D01*
X555090Y544419D01*
X569984Y544419D01*
X570014Y544422D01*
X570043Y544420D01*
X570171Y544442D01*
X570300Y544459D01*
X570327Y544469D01*
X570356Y544474D01*
X570475Y544528D01*
X570596Y544576D01*
X570619Y544593D01*
X570646Y544605D01*
X570748Y544686D01*
X570853Y544762D01*
X570872Y544785D01*
X570895Y544804D01*
X570973Y544907D01*
X571056Y545007D01*
X571068Y545034D01*
X571086Y545058D01*
X571157Y545202D01*
X571386Y545756D01*
X574244Y548614D01*
X577979Y550161D01*
X582021Y550161D01*
X585756Y548614D01*
X588614Y545756D01*
X588827Y545240D01*
X588896Y545119D01*
X588961Y544996D01*
X588975Y544981D01*
X588985Y544964D01*
X589082Y544864D01*
X589175Y544761D01*
X589192Y544750D01*
X589206Y544735D01*
X589324Y544663D01*
X589441Y544586D01*
X589460Y544580D01*
X589477Y544569D01*
X589610Y544528D01*
X589742Y544483D01*
X589762Y544482D01*
X589781Y544476D01*
X589920Y544469D01*
X590059Y544458D01*
X590079Y544461D01*
X590099Y544460D01*
X590235Y544489D01*
X590372Y544512D01*
X590390Y544521D01*
X590410Y544525D01*
X590536Y544586D01*
X590662Y544643D01*
X590678Y544656D01*
X590696Y544664D01*
X590802Y544755D01*
X590911Y544842D01*
X590923Y544858D01*
X590938Y544871D01*
X591018Y544985D01*
X591102Y545096D01*
X591114Y545121D01*
X591121Y545131D01*
X591128Y545150D01*
X591173Y545240D01*
X591386Y545756D01*
X594244Y548614D01*
X597979Y550161D01*
X602021Y550161D01*
X605756Y548614D01*
X608614Y545756D01*
X608827Y545240D01*
X608896Y545119D01*
X608961Y544996D01*
X608975Y544981D01*
X608985Y544964D01*
X609082Y544864D01*
X609175Y544761D01*
X609192Y544750D01*
X609206Y544735D01*
X609324Y544663D01*
X609441Y544586D01*
X609460Y544580D01*
X609477Y544569D01*
X609610Y544528D01*
X609742Y544483D01*
X609762Y544482D01*
X609781Y544476D01*
X609920Y544469D01*
X610059Y544458D01*
X610079Y544461D01*
X610099Y544460D01*
X610235Y544489D01*
X610372Y544512D01*
X610390Y544521D01*
X610410Y544525D01*
X610536Y544586D01*
X610662Y544643D01*
X610678Y544656D01*
X610696Y544664D01*
X610802Y544755D01*
X610911Y544842D01*
X610923Y544858D01*
X610938Y544871D01*
X611018Y544985D01*
X611102Y545096D01*
X611114Y545121D01*
X611121Y545131D01*
X611128Y545150D01*
X611173Y545240D01*
X611386Y545756D01*
X614244Y548614D01*
X617979Y550161D01*
X622021Y550161D01*
X625756Y548614D01*
X628614Y545756D01*
X628827Y545240D01*
X628896Y545119D01*
X628961Y544996D01*
X628975Y544981D01*
X628985Y544964D01*
X629082Y544864D01*
X629175Y544761D01*
X629192Y544750D01*
X629206Y544735D01*
X629324Y544663D01*
X629441Y544586D01*
X629460Y544580D01*
X629477Y544569D01*
X629610Y544528D01*
X629742Y544483D01*
X629762Y544482D01*
X629781Y544476D01*
X629920Y544469D01*
X630059Y544458D01*
X630079Y544461D01*
X630099Y544460D01*
X630235Y544489D01*
X630372Y544512D01*
X630390Y544521D01*
X630410Y544525D01*
X630536Y544586D01*
X630662Y544643D01*
X630678Y544656D01*
X630696Y544664D01*
X630802Y544755D01*
X630911Y544842D01*
X630923Y544858D01*
X630938Y544871D01*
X631018Y544985D01*
X631102Y545096D01*
X631114Y545121D01*
X631121Y545131D01*
X631128Y545150D01*
X631173Y545240D01*
X631386Y545756D01*
X634244Y548614D01*
X637979Y550161D01*
X642021Y550161D01*
X645756Y548614D01*
X648614Y545756D01*
X649123Y544526D01*
X649167Y544448D01*
X649203Y544366D01*
X649246Y544311D01*
X649281Y544250D01*
X649343Y544186D01*
X649398Y544115D01*
X649453Y544072D01*
X649502Y544022D01*
X649578Y543975D01*
X649649Y543920D01*
X649713Y543892D01*
X649773Y543855D01*
X649859Y543829D01*
X649941Y543793D01*
X650010Y543782D01*
X650077Y543762D01*
X650166Y543757D01*
X650255Y543743D01*
X650325Y543750D01*
X650395Y543747D01*
X650482Y543765D01*
X650571Y543773D01*
X650637Y543797D01*
X650706Y543811D01*
X650787Y543850D01*
X650871Y543880D01*
X650929Y543920D01*
X650992Y543951D01*
X651060Y544009D01*
X651134Y544059D01*
X651180Y544111D01*
X651234Y544157D01*
X651285Y544230D01*
X651345Y544297D01*
X651408Y544405D01*
X651417Y544417D01*
X651419Y544423D01*
X651427Y544436D01*
X651744Y545059D01*
X652637Y546288D01*
X653712Y547363D01*
X654941Y548256D01*
X656295Y548946D01*
X657740Y549415D01*
X658001Y549456D01*
X658001Y540730D01*
X658016Y540612D01*
X658023Y540493D01*
X658035Y540455D01*
X658041Y540415D01*
X658084Y540304D01*
X658121Y540191D01*
X658143Y540157D01*
X658158Y540119D01*
X658227Y540023D01*
X658238Y540006D01*
X658224Y539982D01*
X658199Y539950D01*
X658148Y539843D01*
X658090Y539738D01*
X658080Y539699D01*
X658063Y539663D01*
X658041Y539546D01*
X658011Y539430D01*
X658007Y539370D01*
X658003Y539350D01*
X658005Y539330D01*
X658001Y539270D01*
X658001Y530544D01*
X657740Y530585D01*
X656295Y531054D01*
X654941Y531744D01*
X653712Y532637D01*
X652637Y533712D01*
X651744Y534941D01*
X651427Y535564D01*
X651376Y535638D01*
X651334Y535717D01*
X651287Y535769D01*
X651248Y535827D01*
X651181Y535887D01*
X651121Y535953D01*
X651062Y535991D01*
X651009Y536038D01*
X650930Y536078D01*
X650855Y536128D01*
X650788Y536150D01*
X650726Y536182D01*
X650639Y536202D01*
X650554Y536231D01*
X650484Y536236D01*
X650416Y536252D01*
X650326Y536249D01*
X650237Y536256D01*
X650168Y536244D01*
X650098Y536242D01*
X650012Y536217D01*
X649924Y536202D01*
X649860Y536173D01*
X649792Y536153D01*
X649715Y536108D01*
X649634Y536071D01*
X649579Y536027D01*
X649519Y535992D01*
X649455Y535928D01*
X649385Y535872D01*
X649343Y535816D01*
X649293Y535767D01*
X649248Y535690D01*
X649194Y535618D01*
X649139Y535506D01*
X649131Y535493D01*
X649129Y535487D01*
X649123Y535474D01*
X648614Y534244D01*
X645756Y531386D01*
X642021Y529839D01*
X637979Y529839D01*
X634244Y531386D01*
X631386Y534244D01*
X631173Y534760D01*
X631104Y534881D01*
X631039Y535004D01*
X631025Y535019D01*
X631015Y535036D01*
X630918Y535136D01*
X630825Y535239D01*
X630808Y535250D01*
X630794Y535265D01*
X630675Y535337D01*
X630559Y535414D01*
X630540Y535420D01*
X630523Y535431D01*
X630390Y535472D01*
X630258Y535517D01*
X630238Y535518D01*
X630219Y535524D01*
X630080Y535531D01*
X629941Y535542D01*
X629921Y535539D01*
X629901Y535540D01*
X629765Y535511D01*
X629628Y535488D01*
X629609Y535479D01*
X629590Y535475D01*
X629465Y535414D01*
X629338Y535357D01*
X629322Y535344D01*
X629304Y535336D01*
X629198Y535245D01*
X629090Y535158D01*
X629077Y535142D01*
X629062Y535129D01*
X628982Y535015D01*
X628898Y534904D01*
X628886Y534879D01*
X628879Y534869D01*
X628872Y534850D01*
X628827Y534760D01*
X628614Y534244D01*
X625756Y531386D01*
X622021Y529839D01*
X617979Y529839D01*
X614244Y531386D01*
X611386Y534244D01*
X611173Y534760D01*
X611104Y534881D01*
X611039Y535004D01*
X611025Y535019D01*
X611015Y535036D01*
X610918Y535136D01*
X610825Y535239D01*
X610808Y535250D01*
X610794Y535265D01*
X610675Y535337D01*
X610559Y535414D01*
X610540Y535420D01*
X610523Y535431D01*
X610390Y535472D01*
X610258Y535517D01*
X610238Y535518D01*
X610219Y535524D01*
X610080Y535531D01*
X609941Y535542D01*
X609921Y535539D01*
X609901Y535540D01*
X609765Y535511D01*
X609628Y535488D01*
X609609Y535479D01*
X609590Y535475D01*
X609465Y535414D01*
X609338Y535357D01*
X609322Y535344D01*
X609304Y535336D01*
X609198Y535245D01*
X609090Y535158D01*
X609077Y535142D01*
X609062Y535129D01*
X608982Y535015D01*
X608898Y534904D01*
X608886Y534879D01*
X608879Y534869D01*
X608872Y534850D01*
X608827Y534760D01*
X608614Y534244D01*
X605756Y531386D01*
X602021Y529839D01*
X597979Y529839D01*
X594244Y531386D01*
X591386Y534244D01*
X591173Y534760D01*
X591104Y534881D01*
X591039Y535004D01*
X591025Y535019D01*
X591015Y535036D01*
X590918Y535136D01*
X590825Y535239D01*
X590808Y535250D01*
X590794Y535265D01*
X590675Y535337D01*
X590559Y535414D01*
X590540Y535420D01*
X590523Y535431D01*
X590390Y535472D01*
X590258Y535517D01*
X590238Y535518D01*
X590219Y535524D01*
X590080Y535531D01*
X589941Y535542D01*
X589921Y535539D01*
X589901Y535540D01*
X589765Y535511D01*
X589628Y535488D01*
X589609Y535479D01*
X589590Y535475D01*
X589465Y535414D01*
X589338Y535357D01*
X589322Y535344D01*
X589304Y535336D01*
X589198Y535245D01*
X589090Y535158D01*
X589077Y535142D01*
X589062Y535129D01*
X588982Y535015D01*
X588898Y534904D01*
X588886Y534879D01*
X588879Y534869D01*
X588872Y534850D01*
X588827Y534760D01*
X588614Y534244D01*
X585756Y531386D01*
X582021Y529839D01*
X577979Y529839D01*
G37*
%LPD*%
%LPC*%
G36*
X237979Y339839D02*
X237979Y339839D01*
X234244Y341386D01*
X231386Y344244D01*
X229839Y347979D01*
X229839Y352021D01*
X231386Y355756D01*
X234244Y358614D01*
X237979Y360161D01*
X242021Y360161D01*
X245756Y358614D01*
X248614Y355756D01*
X248827Y355240D01*
X248896Y355119D01*
X248961Y354996D01*
X248975Y354981D01*
X248985Y354964D01*
X249082Y354864D01*
X249175Y354761D01*
X249192Y354750D01*
X249206Y354735D01*
X249325Y354663D01*
X249441Y354586D01*
X249460Y354580D01*
X249477Y354569D01*
X249610Y354528D01*
X249742Y354483D01*
X249762Y354482D01*
X249781Y354476D01*
X249920Y354469D01*
X250059Y354458D01*
X250079Y354461D01*
X250099Y354460D01*
X250235Y354489D01*
X250372Y354512D01*
X250391Y354521D01*
X250410Y354525D01*
X250535Y354586D01*
X250662Y354643D01*
X250678Y354656D01*
X250696Y354664D01*
X250802Y354755D01*
X250910Y354842D01*
X250923Y354858D01*
X250938Y354871D01*
X251018Y354985D01*
X251102Y355096D01*
X251114Y355121D01*
X251121Y355131D01*
X251128Y355150D01*
X251173Y355240D01*
X251386Y355756D01*
X254244Y358614D01*
X257979Y360161D01*
X262021Y360161D01*
X265756Y358614D01*
X268614Y355756D01*
X268827Y355240D01*
X268896Y355119D01*
X268961Y354996D01*
X268975Y354981D01*
X268985Y354964D01*
X269082Y354864D01*
X269175Y354761D01*
X269192Y354750D01*
X269206Y354735D01*
X269325Y354663D01*
X269441Y354586D01*
X269460Y354580D01*
X269477Y354569D01*
X269610Y354528D01*
X269742Y354483D01*
X269762Y354482D01*
X269781Y354476D01*
X269920Y354469D01*
X270059Y354458D01*
X270079Y354461D01*
X270099Y354460D01*
X270235Y354489D01*
X270372Y354512D01*
X270391Y354521D01*
X270410Y354525D01*
X270535Y354586D01*
X270662Y354643D01*
X270678Y354656D01*
X270696Y354664D01*
X270802Y354755D01*
X270910Y354842D01*
X270923Y354858D01*
X270938Y354871D01*
X271018Y354985D01*
X271102Y355096D01*
X271114Y355121D01*
X271121Y355131D01*
X271128Y355150D01*
X271173Y355240D01*
X271386Y355756D01*
X274244Y358614D01*
X277979Y360161D01*
X282021Y360161D01*
X285756Y358614D01*
X288614Y355756D01*
X288827Y355240D01*
X288896Y355119D01*
X288961Y354996D01*
X288975Y354981D01*
X288985Y354964D01*
X289082Y354864D01*
X289175Y354761D01*
X289192Y354750D01*
X289206Y354735D01*
X289325Y354663D01*
X289441Y354586D01*
X289460Y354580D01*
X289477Y354569D01*
X289610Y354528D01*
X289742Y354483D01*
X289762Y354482D01*
X289781Y354476D01*
X289920Y354469D01*
X290059Y354458D01*
X290079Y354461D01*
X290099Y354460D01*
X290235Y354489D01*
X290372Y354512D01*
X290391Y354521D01*
X290410Y354525D01*
X290535Y354586D01*
X290662Y354643D01*
X290678Y354656D01*
X290696Y354664D01*
X290802Y354755D01*
X290910Y354842D01*
X290923Y354858D01*
X290938Y354871D01*
X291018Y354985D01*
X291102Y355096D01*
X291114Y355121D01*
X291121Y355131D01*
X291128Y355150D01*
X291173Y355240D01*
X291386Y355756D01*
X294244Y358614D01*
X297979Y360161D01*
X302021Y360161D01*
X305756Y358614D01*
X308614Y355756D01*
X310161Y352021D01*
X310161Y347979D01*
X308614Y344244D01*
X305756Y341386D01*
X302021Y339839D01*
X297979Y339839D01*
X294244Y341386D01*
X291386Y344244D01*
X291173Y344760D01*
X291104Y344881D01*
X291039Y345004D01*
X291025Y345019D01*
X291015Y345036D01*
X290918Y345136D01*
X290825Y345239D01*
X290808Y345250D01*
X290794Y345265D01*
X290676Y345337D01*
X290559Y345414D01*
X290540Y345420D01*
X290523Y345431D01*
X290390Y345472D01*
X290258Y345517D01*
X290238Y345518D01*
X290219Y345524D01*
X290080Y345531D01*
X289941Y345542D01*
X289921Y345539D01*
X289901Y345540D01*
X289765Y345511D01*
X289628Y345488D01*
X289610Y345479D01*
X289590Y345475D01*
X289464Y345414D01*
X289338Y345357D01*
X289322Y345344D01*
X289304Y345336D01*
X289198Y345245D01*
X289089Y345158D01*
X289077Y345142D01*
X289062Y345129D01*
X288982Y345015D01*
X288898Y344904D01*
X288886Y344879D01*
X288879Y344869D01*
X288872Y344850D01*
X288827Y344760D01*
X288614Y344244D01*
X285756Y341386D01*
X282021Y339839D01*
X277979Y339839D01*
X274244Y341386D01*
X271386Y344244D01*
X271173Y344760D01*
X271104Y344881D01*
X271039Y345004D01*
X271025Y345019D01*
X271015Y345036D01*
X270918Y345136D01*
X270825Y345239D01*
X270808Y345250D01*
X270794Y345265D01*
X270676Y345337D01*
X270559Y345414D01*
X270540Y345420D01*
X270523Y345431D01*
X270390Y345472D01*
X270258Y345517D01*
X270238Y345518D01*
X270219Y345524D01*
X270080Y345531D01*
X269941Y345542D01*
X269921Y345539D01*
X269901Y345540D01*
X269765Y345511D01*
X269628Y345488D01*
X269610Y345479D01*
X269590Y345475D01*
X269464Y345414D01*
X269338Y345357D01*
X269322Y345344D01*
X269304Y345336D01*
X269198Y345245D01*
X269089Y345158D01*
X269077Y345142D01*
X269062Y345129D01*
X268982Y345015D01*
X268898Y344904D01*
X268886Y344879D01*
X268879Y344869D01*
X268872Y344850D01*
X268827Y344760D01*
X268614Y344244D01*
X265756Y341386D01*
X262021Y339839D01*
X257979Y339839D01*
X254244Y341386D01*
X251386Y344244D01*
X251173Y344760D01*
X251104Y344881D01*
X251039Y345004D01*
X251025Y345019D01*
X251015Y345036D01*
X250918Y345136D01*
X250825Y345239D01*
X250808Y345250D01*
X250794Y345265D01*
X250676Y345337D01*
X250559Y345414D01*
X250540Y345420D01*
X250523Y345431D01*
X250390Y345472D01*
X250258Y345517D01*
X250238Y345518D01*
X250219Y345524D01*
X250080Y345531D01*
X249941Y345542D01*
X249921Y345539D01*
X249901Y345540D01*
X249765Y345511D01*
X249628Y345488D01*
X249610Y345479D01*
X249590Y345475D01*
X249464Y345414D01*
X249338Y345357D01*
X249322Y345344D01*
X249304Y345336D01*
X249198Y345245D01*
X249089Y345158D01*
X249077Y345142D01*
X249062Y345129D01*
X248982Y345015D01*
X248898Y344904D01*
X248886Y344879D01*
X248879Y344869D01*
X248872Y344850D01*
X248827Y344760D01*
X248614Y344244D01*
X245756Y341386D01*
X242021Y339839D01*
X237979Y339839D01*
G37*
%LPD*%
%LPC*%
G36*
X642979Y504839D02*
X642979Y504839D01*
X639244Y506386D01*
X636386Y509244D01*
X634839Y512979D01*
X634839Y517021D01*
X636386Y520756D01*
X639244Y523614D01*
X642979Y525161D01*
X647021Y525161D01*
X650756Y523614D01*
X653614Y520756D01*
X653827Y520240D01*
X653896Y520119D01*
X653961Y519996D01*
X653975Y519981D01*
X653985Y519964D01*
X654082Y519864D01*
X654175Y519761D01*
X654192Y519750D01*
X654206Y519735D01*
X654325Y519663D01*
X654441Y519586D01*
X654460Y519580D01*
X654477Y519569D01*
X654610Y519528D01*
X654742Y519483D01*
X654762Y519482D01*
X654781Y519476D01*
X654920Y519469D01*
X655059Y519458D01*
X655079Y519461D01*
X655099Y519460D01*
X655235Y519489D01*
X655372Y519512D01*
X655391Y519521D01*
X655410Y519525D01*
X655535Y519586D01*
X655662Y519643D01*
X655678Y519656D01*
X655696Y519664D01*
X655802Y519755D01*
X655910Y519842D01*
X655923Y519858D01*
X655938Y519871D01*
X656018Y519985D01*
X656102Y520096D01*
X656114Y520121D01*
X656121Y520131D01*
X656128Y520150D01*
X656173Y520240D01*
X656386Y520756D01*
X659244Y523614D01*
X662979Y525161D01*
X667021Y525161D01*
X670756Y523614D01*
X673614Y520756D01*
X675161Y517021D01*
X675161Y512979D01*
X673614Y509244D01*
X670756Y506386D01*
X667021Y504839D01*
X662979Y504839D01*
X659244Y506386D01*
X656386Y509244D01*
X656173Y509760D01*
X656104Y509881D01*
X656039Y510004D01*
X656025Y510019D01*
X656015Y510036D01*
X655918Y510136D01*
X655825Y510239D01*
X655808Y510250D01*
X655794Y510265D01*
X655676Y510337D01*
X655559Y510414D01*
X655540Y510420D01*
X655523Y510431D01*
X655390Y510472D01*
X655258Y510517D01*
X655238Y510518D01*
X655219Y510524D01*
X655080Y510531D01*
X654941Y510542D01*
X654921Y510539D01*
X654901Y510540D01*
X654765Y510511D01*
X654628Y510488D01*
X654610Y510479D01*
X654590Y510475D01*
X654464Y510414D01*
X654338Y510357D01*
X654322Y510344D01*
X654304Y510336D01*
X654198Y510245D01*
X654089Y510158D01*
X654077Y510142D01*
X654062Y510129D01*
X653982Y510015D01*
X653898Y509904D01*
X653886Y509879D01*
X653879Y509869D01*
X653872Y509850D01*
X653827Y509760D01*
X653614Y509244D01*
X650756Y506386D01*
X647021Y504839D01*
X642979Y504839D01*
G37*
%LPD*%
%LPC*%
G36*
X334893Y361931D02*
X334893Y361931D01*
X332662Y362855D01*
X330955Y364562D01*
X330031Y366793D01*
X330031Y369207D01*
X330955Y371438D01*
X332662Y373145D01*
X334893Y374069D01*
X335535Y374069D01*
X335634Y374081D01*
X335733Y374084D01*
X335791Y374101D01*
X335851Y374109D01*
X335943Y374145D01*
X336038Y374173D01*
X336090Y374203D01*
X336147Y374226D01*
X336227Y374284D01*
X336312Y374334D01*
X336387Y374400D01*
X336404Y374412D01*
X336412Y374422D01*
X336433Y374440D01*
X338011Y376019D01*
X341727Y376019D01*
X341746Y376008D01*
X341805Y375993D01*
X341860Y375969D01*
X341958Y375954D01*
X342054Y375929D01*
X342154Y375923D01*
X342174Y375919D01*
X342187Y375921D01*
X342215Y375919D01*
X358110Y375919D01*
X358209Y375931D01*
X358308Y375934D01*
X358366Y375951D01*
X358426Y375959D01*
X358518Y375995D01*
X358613Y376023D01*
X358665Y376053D01*
X358722Y376076D01*
X358802Y376134D01*
X358887Y376184D01*
X358963Y376250D01*
X358979Y376262D01*
X358987Y376272D01*
X359008Y376290D01*
X359462Y376745D01*
X361693Y377669D01*
X364107Y377669D01*
X366338Y376745D01*
X368045Y375038D01*
X368969Y372807D01*
X368969Y370393D01*
X368045Y368162D01*
X366338Y366455D01*
X364107Y365531D01*
X361693Y365531D01*
X359462Y366455D01*
X359008Y366910D01*
X358930Y366970D01*
X358858Y367038D01*
X358805Y367067D01*
X358757Y367104D01*
X358666Y367144D01*
X358579Y367192D01*
X358521Y367207D01*
X358465Y367231D01*
X358367Y367246D01*
X358271Y367271D01*
X358171Y367277D01*
X358151Y367281D01*
X358138Y367279D01*
X358110Y367281D01*
X343219Y367281D01*
X343190Y367278D01*
X343160Y367280D01*
X343032Y367258D01*
X342904Y367241D01*
X342876Y367231D01*
X342847Y367226D01*
X342729Y367172D01*
X342608Y367124D01*
X342584Y367107D01*
X342557Y367095D01*
X342456Y367014D01*
X342351Y366938D01*
X342332Y366915D01*
X342309Y366896D01*
X342231Y366793D01*
X342148Y366693D01*
X342135Y366666D01*
X342117Y366642D01*
X342047Y366498D01*
X341245Y364562D01*
X339538Y362855D01*
X337307Y361931D01*
X334893Y361931D01*
G37*
%LPD*%
G36*
X473638Y304197D02*
X473638Y304197D01*
X473678Y304194D01*
X473796Y304217D01*
X473914Y304232D01*
X473951Y304246D01*
X473990Y304254D01*
X474099Y304305D01*
X474210Y304349D01*
X474242Y304372D01*
X474278Y304389D01*
X474370Y304465D01*
X474467Y304535D01*
X474493Y304566D01*
X474523Y304591D01*
X474594Y304688D01*
X474670Y304780D01*
X474687Y304816D01*
X474711Y304849D01*
X474755Y304960D01*
X474806Y305068D01*
X474813Y305107D01*
X474828Y305144D01*
X474843Y305263D01*
X474865Y305380D01*
X474863Y305420D01*
X474868Y305460D01*
X474853Y305578D01*
X474846Y305698D01*
X474833Y305736D01*
X474828Y305775D01*
X474785Y305887D01*
X474748Y306000D01*
X474726Y306034D01*
X474712Y306071D01*
X474626Y306207D01*
X474010Y307055D01*
X473284Y308480D01*
X472789Y310001D01*
X472539Y311580D01*
X472539Y317461D01*
X481430Y317461D01*
X481548Y317476D01*
X481667Y317483D01*
X481705Y317496D01*
X481745Y317501D01*
X481856Y317544D01*
X481969Y317581D01*
X482003Y317603D01*
X482041Y317618D01*
X482137Y317688D01*
X482238Y317751D01*
X482266Y317781D01*
X482298Y317804D01*
X482374Y317896D01*
X482456Y317983D01*
X482475Y318018D01*
X482501Y318049D01*
X482552Y318157D01*
X482609Y318261D01*
X482620Y318301D01*
X482637Y318337D01*
X482659Y318454D01*
X482689Y318569D01*
X482693Y318630D01*
X482697Y318650D01*
X482695Y318670D01*
X482699Y318730D01*
X482699Y321270D01*
X482684Y321388D01*
X482677Y321507D01*
X482664Y321545D01*
X482659Y321585D01*
X482615Y321696D01*
X482579Y321809D01*
X482557Y321844D01*
X482542Y321881D01*
X482472Y321977D01*
X482409Y322078D01*
X482379Y322106D01*
X482355Y322139D01*
X482264Y322214D01*
X482177Y322296D01*
X482142Y322316D01*
X482110Y322341D01*
X482003Y322392D01*
X481898Y322450D01*
X481859Y322460D01*
X481823Y322477D01*
X481706Y322499D01*
X481591Y322529D01*
X481530Y322533D01*
X481510Y322537D01*
X481490Y322535D01*
X481430Y322539D01*
X472539Y322539D01*
X472539Y328420D01*
X472789Y329999D01*
X473284Y331520D01*
X474010Y332945D01*
X474950Y334239D01*
X476081Y335370D01*
X477407Y336334D01*
X477450Y336374D01*
X477499Y336408D01*
X477566Y336483D01*
X477639Y336551D01*
X477670Y336602D01*
X477710Y336646D01*
X477755Y336735D01*
X477809Y336820D01*
X477827Y336876D01*
X477855Y336929D01*
X477876Y337027D01*
X477907Y337122D01*
X477911Y337182D01*
X477924Y337240D01*
X477921Y337340D01*
X477927Y337440D01*
X477916Y337498D01*
X477915Y337558D01*
X477887Y337654D01*
X477868Y337752D01*
X477843Y337806D01*
X477826Y337863D01*
X477775Y337949D01*
X477733Y338040D01*
X477695Y338086D01*
X477665Y338137D01*
X477558Y338258D01*
X470897Y344919D01*
X470803Y344992D01*
X470714Y345070D01*
X470678Y345089D01*
X470646Y345114D01*
X470537Y345161D01*
X470431Y345215D01*
X470392Y345224D01*
X470354Y345240D01*
X470237Y345259D01*
X470121Y345285D01*
X470080Y345283D01*
X470040Y345290D01*
X469922Y345279D01*
X469803Y345275D01*
X469764Y345264D01*
X469724Y345260D01*
X469611Y345220D01*
X469497Y345187D01*
X469462Y345166D01*
X469424Y345152D01*
X469326Y345086D01*
X469223Y345025D01*
X469178Y344985D01*
X469161Y344974D01*
X469148Y344958D01*
X469102Y344919D01*
X462922Y338738D01*
X462892Y338699D01*
X462855Y338666D01*
X462795Y338574D01*
X462727Y338487D01*
X462708Y338442D01*
X462680Y338400D01*
X462645Y338296D01*
X462601Y338195D01*
X462593Y338146D01*
X462577Y338099D01*
X462568Y337990D01*
X462551Y337881D01*
X462556Y337832D01*
X462552Y337782D01*
X462571Y337674D01*
X462581Y337565D01*
X462598Y337518D01*
X462606Y337469D01*
X462651Y337369D01*
X462689Y337265D01*
X462716Y337224D01*
X462737Y337179D01*
X462806Y337093D01*
X462867Y337002D01*
X462904Y336969D01*
X462935Y336931D01*
X463023Y336864D01*
X463106Y336792D01*
X463150Y336769D01*
X463190Y336739D01*
X463334Y336668D01*
X463343Y336665D01*
X466345Y333663D01*
X467969Y329742D01*
X467969Y310258D01*
X466339Y306323D01*
X466281Y306249D01*
X466192Y306142D01*
X466184Y306123D01*
X466171Y306107D01*
X466116Y305979D01*
X466057Y305854D01*
X466053Y305834D01*
X466045Y305815D01*
X466023Y305678D01*
X465997Y305541D01*
X465998Y305521D01*
X465995Y305501D01*
X466008Y305363D01*
X466017Y305224D01*
X466023Y305205D01*
X466025Y305185D01*
X466072Y305054D01*
X466115Y304922D01*
X466126Y304905D01*
X466133Y304885D01*
X466211Y304770D01*
X466285Y304653D01*
X466300Y304639D01*
X466311Y304622D01*
X466415Y304530D01*
X466517Y304435D01*
X466534Y304425D01*
X466550Y304412D01*
X466674Y304348D01*
X466795Y304281D01*
X466815Y304276D01*
X466833Y304267D01*
X466969Y304237D01*
X467103Y304202D01*
X467131Y304200D01*
X467143Y304197D01*
X467164Y304198D01*
X467264Y304192D01*
X473599Y304192D01*
X473638Y304197D01*
G37*
%LPC*%
G36*
X459839Y563561D02*
X459839Y563561D01*
X467461Y563561D01*
X467461Y557680D01*
X467211Y556101D01*
X466716Y554580D01*
X465990Y553155D01*
X465050Y551861D01*
X463919Y550730D01*
X462625Y549790D01*
X461200Y549064D01*
X459839Y548621D01*
X459839Y563561D01*
G37*
%LPD*%
%LPC*%
G36*
X453400Y549064D02*
X453400Y549064D01*
X451975Y549790D01*
X450681Y550730D01*
X449550Y551861D01*
X448610Y553155D01*
X447884Y554580D01*
X447389Y556101D01*
X447139Y557680D01*
X447139Y563561D01*
X454761Y563561D01*
X454761Y548621D01*
X453400Y549064D01*
G37*
%LPD*%
%LPC*%
G36*
X311999Y421999D02*
X311999Y421999D01*
X311999Y429456D01*
X312260Y429415D01*
X313705Y428946D01*
X315059Y428256D01*
X316288Y427363D01*
X317363Y426288D01*
X318256Y425059D01*
X318946Y423705D01*
X319415Y422260D01*
X319456Y421999D01*
X311999Y421999D01*
G37*
%LPD*%
%LPC*%
G36*
X721999Y381999D02*
X721999Y381999D01*
X721999Y389456D01*
X722260Y389415D01*
X723705Y388946D01*
X725059Y388256D01*
X726288Y387363D01*
X727363Y386288D01*
X728256Y385059D01*
X728946Y383705D01*
X729415Y382260D01*
X729456Y381999D01*
X721999Y381999D01*
G37*
%LPD*%
%LPC*%
G36*
X311999Y418001D02*
X311999Y418001D01*
X319456Y418001D01*
X319415Y417740D01*
X318946Y416295D01*
X318256Y414941D01*
X317363Y413712D01*
X316288Y412637D01*
X315059Y411744D01*
X313705Y411054D01*
X312260Y410585D01*
X311999Y410544D01*
X311999Y418001D01*
G37*
%LPD*%
%LPC*%
G36*
X721999Y378001D02*
X721999Y378001D01*
X729456Y378001D01*
X729415Y377740D01*
X728946Y376295D01*
X728256Y374941D01*
X727363Y373712D01*
X726288Y372637D01*
X725059Y371744D01*
X723705Y371054D01*
X722260Y370585D01*
X721999Y370544D01*
X721999Y378001D01*
G37*
%LPD*%
D10*
X240000Y350000D03*
X260000Y350000D03*
X280000Y350000D03*
X300000Y350000D03*
X640000Y350000D03*
X660000Y350000D03*
X680000Y350000D03*
X700000Y350000D03*
X600000Y380000D03*
X600000Y400000D03*
X600000Y420000D03*
X600000Y440000D03*
X310000Y420000D03*
X290000Y420000D03*
X270000Y420000D03*
X275000Y515000D03*
X295000Y515000D03*
X645000Y515000D03*
X665000Y515000D03*
X280000Y540000D03*
X300000Y540000D03*
X320000Y540000D03*
X340000Y540000D03*
X360000Y540000D03*
D11*
X355700Y350000D03*
X381100Y350000D03*
X406500Y350000D03*
X431900Y350000D03*
X457300Y350000D03*
X482700Y350000D03*
X508100Y350000D03*
X533500Y350000D03*
X558900Y350000D03*
X584300Y350000D03*
D12*
X482700Y327620D02*
X482700Y312380D01*
X457300Y312380D02*
X457300Y327620D01*
X431900Y558480D02*
X431900Y573720D01*
X457300Y573720D02*
X457300Y558480D01*
X482700Y558480D02*
X482700Y573720D01*
X508100Y573720D02*
X508100Y558480D01*
D10*
X444000Y534900D03*
X424000Y534900D03*
X404000Y534900D03*
X384000Y534900D03*
X700000Y380000D03*
X720000Y380000D03*
X660000Y540000D03*
X640000Y540000D03*
X620000Y540000D03*
X600000Y540000D03*
X580000Y540000D03*
D13*
X574400Y480000D03*
X442200Y493600D03*
X456400Y493700D03*
X442400Y408100D03*
X385600Y382700D03*
X482700Y414200D03*
X428600Y436700D03*
X370000Y509300D03*
D14*
X439897Y544806D02*
X440406Y544806D01*
X457300Y566100D01*
X429991Y534900D02*
X424000Y534900D01*
X429991Y534900D02*
X439897Y544806D01*
D13*
X609400Y510800D03*
X646400Y495000D03*
X217100Y373600D03*
X208900Y346900D03*
X732700Y349200D03*
X569900Y397400D03*
X723800Y356800D03*
D14*
X714500Y366100D01*
X622200Y366100D01*
D13*
X622200Y366100D03*
X429000Y457500D03*
D14*
X335400Y457500D01*
X321000Y471900D01*
X323800Y457500D02*
X335400Y457500D01*
X323800Y457500D02*
X318900Y462400D01*
D13*
X318900Y462400D03*
D14*
X292900Y527100D02*
X280000Y540000D01*
X292900Y527100D02*
X300000Y527100D01*
X321000Y506100D01*
X321000Y471900D01*
D13*
X387500Y410300D03*
D14*
X421800Y410300D02*
X442100Y430600D01*
D13*
X442100Y430600D03*
D14*
X421800Y410300D02*
X387500Y410300D01*
D13*
X386900Y400900D03*
D14*
X423200Y400900D01*
X460600Y438300D01*
D13*
X460600Y438300D03*
D14*
X449200Y477500D02*
X418900Y507800D01*
X395400Y507800D01*
X386300Y516900D01*
X323100Y516900D02*
X300000Y540000D01*
D13*
X472700Y477500D03*
D14*
X449200Y477500D01*
X386300Y516900D02*
X353100Y516900D01*
D13*
X353100Y516900D03*
X323100Y516900D03*
X513700Y511200D03*
D14*
X513700Y513400D01*
X494800Y532300D02*
X461500Y532300D01*
X451200Y522000D01*
X428500Y522000D02*
X420000Y513500D01*
X397400Y513500D01*
X388400Y522500D01*
X357500Y522500D01*
X340000Y540000D01*
X494800Y532300D02*
X513700Y513400D01*
X451200Y522000D02*
X428500Y522000D01*
D13*
X452400Y406100D03*
D14*
X534600Y379400D02*
X534600Y374100D01*
X558700Y350000D01*
X558900Y350000D01*
X507900Y406100D02*
X452400Y406100D01*
X507900Y406100D02*
X534600Y379400D01*
D13*
X455711Y379089D03*
D14*
X455711Y371789D01*
X462700Y364800D01*
X493300Y364800D01*
X508100Y350000D01*
D13*
X550300Y540100D03*
D14*
X579900Y540100D01*
X580000Y540000D01*
D15*
X270000Y420000D02*
X270000Y404500D01*
X343600Y330900D01*
X446400Y330900D01*
X457300Y320000D01*
D13*
X478200Y376700D03*
D14*
X483300Y371600D01*
X512600Y371600D01*
X533500Y350700D01*
X533500Y350000D01*
D13*
X568500Y451600D03*
D14*
X609700Y492800D01*
X609700Y493100D01*
D13*
X609700Y493100D03*
D14*
X339800Y371700D02*
X336100Y368000D01*
D13*
X336100Y368000D03*
X362900Y371600D03*
D14*
X339900Y371600D01*
X339800Y371700D01*
D13*
X424200Y392500D03*
D14*
X383800Y392500D01*
D13*
X383800Y392500D03*
X568800Y437500D03*
D14*
X586600Y437500D01*
X594200Y429900D01*
X595891Y429900D01*
X595897Y429906D01*
X608494Y429906D01*
X658400Y380000D02*
X700000Y380000D01*
X658400Y380000D02*
X608494Y429906D01*
X364600Y490400D02*
X360500Y494500D01*
X360500Y505600D01*
X357200Y508900D01*
X351500Y508900D01*
X330000Y530400D01*
X330000Y552200D01*
D13*
X330000Y552200D03*
X427500Y474900D03*
D14*
X419900Y482500D01*
X402700Y482500D01*
X394800Y490400D01*
X364600Y490400D01*
M02*
