G04 EAGLE Gerber X2 export*
G04 #@! %TF.Part,Single*
G04 #@! %TF.FileFunction,Soldermask,Top,1*
G04 #@! %TF.FilePolarity,Negative*
G04 #@! %TF.GenerationSoftware,Autodesk,EAGLE,8.6.0*
G04 #@! %TF.CreationDate,2018-03-08T02:15:54Z*
G75*
%MOMM*%
%FSLAX34Y34*%
%LPD*%
%AMOC8*
5,1,8,0,0,1.08239X$1,22.5*%
G01*
%ADD10R,0.427000X1.327000*%
%ADD11R,1.327000X0.427000*%
%ADD12R,1.327000X0.927000*%
%ADD13R,0.927000X1.327000*%
%ADD14R,1.227000X1.127000*%
%ADD15R,2.127000X1.427000*%
%ADD16C,1.549400*%
%ADD17P,2.061953X8X112.500000*%
%ADD18C,1.651000*%
%ADD19R,1.427000X1.127000*%
%ADD20R,1.327000X1.527000*%
%ADD21C,0.731000*%


D10*
X472500Y507500D03*
X467500Y507500D03*
X462500Y507500D03*
X477500Y507500D03*
X482500Y507500D03*
X487500Y507500D03*
X492500Y507500D03*
X497500Y507500D03*
X507500Y507500D03*
X502500Y507500D03*
X457500Y507500D03*
X452500Y507500D03*
X447500Y507500D03*
X442500Y507500D03*
X437500Y507500D03*
X432500Y507500D03*
D11*
X412500Y452500D03*
X412500Y457500D03*
X412500Y462500D03*
X412500Y467500D03*
X412500Y472500D03*
X412500Y477500D03*
X412500Y482500D03*
X412500Y487500D03*
X412500Y447500D03*
X412500Y442500D03*
X412500Y437500D03*
X412500Y432500D03*
X412500Y427500D03*
X412500Y422500D03*
X412500Y417500D03*
X412500Y412500D03*
D10*
X472500Y392500D03*
X467500Y392500D03*
X462500Y392500D03*
X477500Y392500D03*
X482500Y392500D03*
X487500Y392500D03*
X492500Y392500D03*
X497500Y392500D03*
X507500Y392500D03*
X502500Y392500D03*
X457500Y392500D03*
X452500Y392500D03*
X447500Y392500D03*
X442500Y392500D03*
X437500Y392500D03*
X432500Y392500D03*
D11*
X527500Y452500D03*
X527500Y457500D03*
X527500Y462500D03*
X527500Y467500D03*
X527500Y472500D03*
X527500Y477500D03*
X527500Y482500D03*
X527500Y487500D03*
X527500Y447500D03*
X527500Y442500D03*
X527500Y437500D03*
X527500Y432500D03*
X527500Y427500D03*
X527500Y422500D03*
X527500Y417500D03*
X527500Y412500D03*
D12*
X370000Y499000D03*
X370000Y481000D03*
X390000Y499000D03*
X390000Y481000D03*
X390000Y449000D03*
X390000Y431000D03*
X370000Y449000D03*
X370000Y431000D03*
D13*
X396100Y382300D03*
X414100Y382300D03*
X559000Y400000D03*
X541000Y400000D03*
X564000Y380000D03*
X546000Y380000D03*
X546000Y500000D03*
X564000Y500000D03*
X546000Y480000D03*
X564000Y480000D03*
D14*
X334900Y496700D03*
X351900Y496700D03*
X334700Y422100D03*
X351700Y422100D03*
D15*
X344000Y440000D03*
X344000Y478000D03*
D16*
X240000Y350000D03*
X260000Y350000D03*
X280000Y350000D03*
X300000Y350000D03*
X640000Y350000D03*
X660000Y350000D03*
X680000Y350000D03*
X700000Y350000D03*
X600000Y380000D03*
X600000Y400000D03*
X600000Y420000D03*
X600000Y440000D03*
X310000Y420000D03*
X290000Y420000D03*
X270000Y420000D03*
X275000Y515000D03*
X295000Y515000D03*
X645000Y515000D03*
X665000Y515000D03*
X280000Y540000D03*
X300000Y540000D03*
X320000Y540000D03*
X340000Y540000D03*
X360000Y540000D03*
D17*
X355700Y350000D03*
X381100Y350000D03*
X406500Y350000D03*
X431900Y350000D03*
X457300Y350000D03*
X482700Y350000D03*
X508100Y350000D03*
X533500Y350000D03*
X558900Y350000D03*
X584300Y350000D03*
D18*
X482700Y327620D02*
X482700Y312380D01*
X457300Y312380D02*
X457300Y327620D01*
X431900Y558480D02*
X431900Y573720D01*
X457300Y573720D02*
X457300Y558480D01*
X482700Y558480D02*
X482700Y573720D01*
X508100Y573720D02*
X508100Y558480D01*
D16*
X444000Y534900D03*
X424000Y534900D03*
X404000Y534900D03*
X384000Y534900D03*
D12*
X250000Y399000D03*
X250000Y381000D03*
X230000Y399000D03*
X230000Y381000D03*
D19*
X253900Y474400D03*
X253900Y444400D03*
X308900Y444400D03*
X308900Y474400D03*
D13*
X678500Y406800D03*
X696500Y406800D03*
D12*
X623200Y492900D03*
X623200Y510900D03*
D19*
G36*
X669520Y418940D02*
X661582Y430797D01*
X670946Y437066D01*
X678884Y425209D01*
X669520Y418940D01*
G37*
G36*
X694450Y435629D02*
X686512Y447486D01*
X695876Y453755D01*
X703814Y441898D01*
X694450Y435629D01*
G37*
G36*
X663854Y481334D02*
X655916Y493191D01*
X665280Y499460D01*
X673218Y487603D01*
X663854Y481334D01*
G37*
G36*
X638924Y464645D02*
X630986Y476502D01*
X640350Y482771D01*
X648288Y470914D01*
X638924Y464645D01*
G37*
D13*
X251000Y310000D03*
X269000Y310000D03*
D20*
X235000Y310000D03*
X205000Y310000D03*
D13*
X251000Y330000D03*
X269000Y330000D03*
D20*
X235000Y330000D03*
X205000Y330000D03*
D13*
X689000Y330000D03*
X671000Y330000D03*
D20*
X705000Y330000D03*
X735000Y330000D03*
D13*
X689000Y310000D03*
X671000Y310000D03*
D20*
X705000Y310000D03*
X735000Y310000D03*
D16*
X700000Y380000D03*
X720000Y380000D03*
X660000Y540000D03*
X640000Y540000D03*
X620000Y540000D03*
X600000Y540000D03*
X580000Y540000D03*
D13*
X336000Y565000D03*
X354000Y565000D03*
D20*
X320000Y565000D03*
X290000Y565000D03*
D13*
X604000Y565000D03*
X586000Y565000D03*
D20*
X620000Y565000D03*
X650000Y565000D03*
D21*
X574400Y480000D03*
X442200Y493600D03*
X456400Y493700D03*
X442400Y408100D03*
X385600Y382700D03*
X482700Y414200D03*
X428600Y436700D03*
X370000Y509300D03*
X609400Y510800D03*
X646400Y495000D03*
X217100Y373600D03*
X208900Y346900D03*
X732700Y349200D03*
X569900Y397400D03*
X723800Y356800D03*
X622200Y366100D03*
X429000Y457500D03*
X318900Y462400D03*
X387500Y410300D03*
X442100Y430600D03*
X386900Y400900D03*
X460600Y438300D03*
X472700Y477500D03*
X353100Y516900D03*
X323100Y516900D03*
X513700Y511200D03*
X452400Y406100D03*
X455711Y379089D03*
X550300Y540100D03*
X478200Y376700D03*
X568500Y451600D03*
X609700Y493100D03*
X336100Y368000D03*
X362900Y371600D03*
X424200Y392500D03*
X383800Y392500D03*
X568800Y437500D03*
X330000Y552200D03*
X427500Y474900D03*
M02*
