G04 EAGLE Gerber X2 export*
G04 #@! %TF.Part,Single*
G04 #@! %TF.FileFunction,Paste,Top*
G04 #@! %TF.FilePolarity,Positive*
G04 #@! %TF.GenerationSoftware,Autodesk,EAGLE,8.6.0*
G04 #@! %TF.CreationDate,2018-03-08T02:15:54Z*
G75*
%MOMM*%
%FSLAX34Y34*%
%LPD*%
%AMOC8*
5,1,8,0,0,1.08239X$1,22.5*%
G01*
%ADD10R,0.300000X1.200000*%
%ADD11R,1.200000X0.300000*%
%ADD12R,1.200000X0.800000*%
%ADD13R,0.800000X1.200000*%
%ADD14R,1.100000X1.000000*%
%ADD15R,2.000000X1.300000*%
%ADD16R,1.300000X1.000000*%
%ADD17R,1.200000X1.400000*%


D10*
X472500Y507500D03*
X467500Y507500D03*
X462500Y507500D03*
X477500Y507500D03*
X482500Y507500D03*
X487500Y507500D03*
X492500Y507500D03*
X497500Y507500D03*
X507500Y507500D03*
X502500Y507500D03*
X457500Y507500D03*
X452500Y507500D03*
X447500Y507500D03*
X442500Y507500D03*
X437500Y507500D03*
X432500Y507500D03*
D11*
X412500Y452500D03*
X412500Y457500D03*
X412500Y462500D03*
X412500Y467500D03*
X412500Y472500D03*
X412500Y477500D03*
X412500Y482500D03*
X412500Y487500D03*
X412500Y447500D03*
X412500Y442500D03*
X412500Y437500D03*
X412500Y432500D03*
X412500Y427500D03*
X412500Y422500D03*
X412500Y417500D03*
X412500Y412500D03*
D10*
X472500Y392500D03*
X467500Y392500D03*
X462500Y392500D03*
X477500Y392500D03*
X482500Y392500D03*
X487500Y392500D03*
X492500Y392500D03*
X497500Y392500D03*
X507500Y392500D03*
X502500Y392500D03*
X457500Y392500D03*
X452500Y392500D03*
X447500Y392500D03*
X442500Y392500D03*
X437500Y392500D03*
X432500Y392500D03*
D11*
X527500Y452500D03*
X527500Y457500D03*
X527500Y462500D03*
X527500Y467500D03*
X527500Y472500D03*
X527500Y477500D03*
X527500Y482500D03*
X527500Y487500D03*
X527500Y447500D03*
X527500Y442500D03*
X527500Y437500D03*
X527500Y432500D03*
X527500Y427500D03*
X527500Y422500D03*
X527500Y417500D03*
X527500Y412500D03*
D12*
X370000Y499000D03*
X370000Y481000D03*
X390000Y499000D03*
X390000Y481000D03*
X390000Y449000D03*
X390000Y431000D03*
X370000Y449000D03*
X370000Y431000D03*
D13*
X396100Y382300D03*
X414100Y382300D03*
X559000Y400000D03*
X541000Y400000D03*
X564000Y380000D03*
X546000Y380000D03*
X546000Y500000D03*
X564000Y500000D03*
X546000Y480000D03*
X564000Y480000D03*
D14*
X334900Y496700D03*
X351900Y496700D03*
X334700Y422100D03*
X351700Y422100D03*
D15*
X344000Y440000D03*
X344000Y478000D03*
D12*
X250000Y399000D03*
X250000Y381000D03*
X230000Y399000D03*
X230000Y381000D03*
D16*
X253900Y474400D03*
X253900Y444400D03*
X308900Y444400D03*
X308900Y474400D03*
D13*
X678500Y406800D03*
X696500Y406800D03*
D12*
X623200Y492900D03*
X623200Y510900D03*
D16*
G36*
X669694Y419821D02*
X662463Y430622D01*
X670772Y436185D01*
X678003Y425384D01*
X669694Y419821D01*
G37*
G36*
X694624Y436510D02*
X687393Y447311D01*
X695702Y452874D01*
X702933Y442073D01*
X694624Y436510D01*
G37*
G36*
X664028Y482215D02*
X656797Y493016D01*
X665106Y498579D01*
X672337Y487778D01*
X664028Y482215D01*
G37*
G36*
X639098Y465526D02*
X631867Y476327D01*
X640176Y481890D01*
X647407Y471089D01*
X639098Y465526D01*
G37*
D13*
X251000Y310000D03*
X269000Y310000D03*
D17*
X235000Y310000D03*
X205000Y310000D03*
D13*
X251000Y330000D03*
X269000Y330000D03*
D17*
X235000Y330000D03*
X205000Y330000D03*
D13*
X689000Y330000D03*
X671000Y330000D03*
D17*
X705000Y330000D03*
X735000Y330000D03*
D13*
X689000Y310000D03*
X671000Y310000D03*
D17*
X705000Y310000D03*
X735000Y310000D03*
D13*
X336000Y565000D03*
X354000Y565000D03*
D17*
X320000Y565000D03*
X290000Y565000D03*
D13*
X604000Y565000D03*
X586000Y565000D03*
D17*
X620000Y565000D03*
X650000Y565000D03*
M02*
