G04 EAGLE Gerber X2 export*
G04 #@! %TF.Part,Single*
G04 #@! %TF.FileFunction,Copper,L1,Top,Mixed*
G04 #@! %TF.FilePolarity,Positive*
G04 #@! %TF.GenerationSoftware,Autodesk,EAGLE,8.6.0*
G04 #@! %TF.CreationDate,2018-03-03T08:39:01Z*
G75*
%MOMM*%
%FSLAX34Y34*%
%LPD*%
%AMOC8*
5,1,8,0,0,1.08239X$1,22.5*%
G01*
%ADD10R,1.100000X1.000000*%
%ADD11R,1.200000X0.300000*%
%ADD12R,0.300000X1.200000*%
%ADD13R,1.300000X2.000000*%
%ADD14R,1.200000X0.800000*%
%ADD15R,0.838200X1.600200*%
%ADD16R,3.098800X1.600200*%
%ADD17C,1.422400*%
%ADD18R,1.000000X0.300000*%
%ADD19R,0.600000X3.300000*%
%ADD20R,0.800000X1.200000*%
%ADD21P,1.924489X8X112.500000*%
%ADD22R,1.200000X1.400000*%
%ADD23C,0.508000*%
%ADD24C,0.604000*%
%ADD25C,0.304800*%
%ADD26C,0.254000*%

G36*
X449258Y236480D02*
X449258Y236480D01*
X449277Y236478D01*
X449379Y236500D01*
X449481Y236517D01*
X449498Y236526D01*
X449518Y236530D01*
X449607Y236583D01*
X449698Y236632D01*
X449712Y236646D01*
X449729Y236656D01*
X449796Y236735D01*
X449867Y236810D01*
X449876Y236828D01*
X449889Y236843D01*
X449927Y236939D01*
X449971Y237033D01*
X449973Y237053D01*
X449981Y237071D01*
X449999Y237238D01*
X449999Y238762D01*
X449996Y238781D01*
X449998Y238800D01*
X449998Y238801D01*
X449976Y238903D01*
X449959Y239005D01*
X449950Y239022D01*
X449946Y239042D01*
X449893Y239131D01*
X449844Y239222D01*
X449830Y239236D01*
X449820Y239253D01*
X449741Y239320D01*
X449666Y239391D01*
X449648Y239400D01*
X449633Y239413D01*
X449537Y239452D01*
X449443Y239495D01*
X449423Y239497D01*
X449405Y239505D01*
X449238Y239523D01*
X440468Y239523D01*
X440585Y240260D01*
X441054Y241705D01*
X441744Y243059D01*
X442559Y244181D01*
X442564Y244191D01*
X442573Y244200D01*
X442619Y244301D01*
X442670Y244400D01*
X442671Y244412D01*
X442676Y244423D01*
X442688Y244533D01*
X442704Y244644D01*
X442702Y244656D01*
X442703Y244667D01*
X442680Y244776D01*
X442659Y244886D01*
X442654Y244896D01*
X442651Y244908D01*
X442594Y245003D01*
X442540Y245101D01*
X442531Y245109D01*
X442525Y245119D01*
X442440Y245191D01*
X442358Y245266D01*
X442347Y245271D01*
X442338Y245279D01*
X442234Y245321D01*
X442133Y245365D01*
X442121Y245366D01*
X442110Y245371D01*
X441943Y245389D01*
X425422Y245389D01*
X422966Y247844D01*
X410826Y259984D01*
X410810Y259996D01*
X410798Y260012D01*
X410711Y260068D01*
X410627Y260128D01*
X410608Y260134D01*
X410591Y260145D01*
X410490Y260170D01*
X410392Y260200D01*
X410372Y260200D01*
X410352Y260205D01*
X410249Y260197D01*
X410146Y260194D01*
X410127Y260187D01*
X410107Y260186D01*
X410012Y260145D01*
X409915Y260109D01*
X409899Y260097D01*
X409881Y260089D01*
X409750Y259984D01*
X405835Y256069D01*
X396365Y256069D01*
X389669Y262765D01*
X389669Y272235D01*
X396365Y278931D01*
X405835Y278931D01*
X410150Y274616D01*
X410166Y274604D01*
X410178Y274588D01*
X410266Y274532D01*
X410350Y274472D01*
X410369Y274466D01*
X410385Y274455D01*
X410486Y274430D01*
X410585Y274400D01*
X410605Y274400D01*
X410624Y274395D01*
X410727Y274403D01*
X410831Y274406D01*
X410849Y274413D01*
X410869Y274414D01*
X410964Y274455D01*
X411062Y274491D01*
X411077Y274503D01*
X411095Y274511D01*
X411226Y274616D01*
X412444Y275834D01*
X420922Y284311D01*
X430306Y284311D01*
X430396Y284325D01*
X430487Y284333D01*
X430517Y284345D01*
X430549Y284350D01*
X430630Y284393D01*
X430714Y284429D01*
X430746Y284455D01*
X430766Y284466D01*
X430789Y284489D01*
X430844Y284534D01*
X448234Y301924D01*
X448287Y301997D01*
X448347Y302067D01*
X448359Y302097D01*
X448378Y302123D01*
X448405Y302210D01*
X448439Y302295D01*
X448443Y302336D01*
X448450Y302358D01*
X448449Y302391D01*
X448457Y302462D01*
X448457Y309730D01*
X448446Y309801D01*
X448444Y309873D01*
X448426Y309922D01*
X448418Y309973D01*
X448384Y310036D01*
X448359Y310104D01*
X448327Y310144D01*
X448302Y310190D01*
X448250Y310240D01*
X448206Y310296D01*
X448162Y310324D01*
X448124Y310360D01*
X448059Y310390D01*
X447999Y310429D01*
X447948Y310441D01*
X447901Y310463D01*
X447830Y310471D01*
X447760Y310489D01*
X447708Y310485D01*
X447657Y310490D01*
X447586Y310475D01*
X447515Y310470D01*
X447467Y310449D01*
X447416Y310438D01*
X447355Y310401D01*
X447289Y310373D01*
X447233Y310329D01*
X447205Y310312D01*
X447190Y310294D01*
X447158Y310269D01*
X443078Y306189D01*
X422369Y306189D01*
X422279Y306175D01*
X422188Y306167D01*
X422158Y306155D01*
X422126Y306150D01*
X422045Y306107D01*
X421961Y306071D01*
X421929Y306045D01*
X421909Y306034D01*
X421886Y306011D01*
X421830Y305966D01*
X421150Y305286D01*
X419106Y304439D01*
X416894Y304439D01*
X414850Y305286D01*
X413286Y306850D01*
X412439Y308894D01*
X412439Y311106D01*
X413286Y313150D01*
X414685Y314549D01*
X414697Y314565D01*
X414712Y314578D01*
X414768Y314665D01*
X414829Y314749D01*
X414834Y314768D01*
X414845Y314785D01*
X414871Y314885D01*
X414901Y314984D01*
X414900Y315004D01*
X414905Y315023D01*
X414897Y315126D01*
X414895Y315230D01*
X414888Y315249D01*
X414886Y315268D01*
X414846Y315363D01*
X414810Y315461D01*
X414798Y315476D01*
X414790Y315495D01*
X414685Y315626D01*
X412694Y317616D01*
X412620Y317669D01*
X412551Y317729D01*
X412521Y317741D01*
X412495Y317760D01*
X412408Y317787D01*
X412323Y317821D01*
X412282Y317825D01*
X412260Y317832D01*
X412227Y317831D01*
X412156Y317839D01*
X411194Y317839D01*
X409150Y318686D01*
X407586Y320250D01*
X406739Y322294D01*
X406739Y323917D01*
X406724Y324014D01*
X406714Y324111D01*
X406704Y324134D01*
X406700Y324160D01*
X406654Y324246D01*
X406614Y324335D01*
X406597Y324355D01*
X406584Y324378D01*
X406514Y324445D01*
X406448Y324516D01*
X406425Y324529D01*
X406406Y324547D01*
X406318Y324588D01*
X406232Y324635D01*
X406207Y324640D01*
X406183Y324651D01*
X406086Y324661D01*
X405990Y324679D01*
X405964Y324675D01*
X405939Y324678D01*
X405843Y324657D01*
X405747Y324643D01*
X405724Y324631D01*
X405698Y324625D01*
X405615Y324576D01*
X405528Y324531D01*
X405509Y324513D01*
X405487Y324499D01*
X405424Y324425D01*
X405356Y324356D01*
X405340Y324327D01*
X405327Y324312D01*
X405315Y324282D01*
X405275Y324209D01*
X404083Y321332D01*
X401368Y318617D01*
X397820Y317147D01*
X393980Y317147D01*
X390432Y318617D01*
X387717Y321332D01*
X386879Y323356D01*
X386841Y323417D01*
X386812Y323482D01*
X386777Y323520D01*
X386749Y323565D01*
X386694Y323610D01*
X386645Y323663D01*
X386600Y323688D01*
X386560Y323721D01*
X386493Y323747D01*
X386430Y323782D01*
X386378Y323791D01*
X386330Y323810D01*
X386258Y323813D01*
X386188Y323825D01*
X386136Y323818D01*
X386084Y323820D01*
X386015Y323800D01*
X385944Y323790D01*
X385898Y323766D01*
X385848Y323752D01*
X385789Y323711D01*
X385725Y323678D01*
X385689Y323641D01*
X385646Y323611D01*
X385603Y323554D01*
X385553Y323503D01*
X385518Y323440D01*
X385499Y323414D01*
X385492Y323392D01*
X385472Y323356D01*
X385014Y322250D01*
X384334Y321570D01*
X384281Y321496D01*
X384221Y321426D01*
X384209Y321396D01*
X384190Y321370D01*
X384163Y321283D01*
X384129Y321198D01*
X384125Y321157D01*
X384118Y321135D01*
X384119Y321103D01*
X384111Y321031D01*
X384111Y298663D01*
X384130Y298549D01*
X384147Y298432D01*
X384149Y298427D01*
X384150Y298421D01*
X384205Y298318D01*
X384237Y298255D01*
X384238Y298252D01*
X384239Y298252D01*
X384258Y298213D01*
X384263Y298209D01*
X384266Y298203D01*
X384314Y298157D01*
X384343Y298121D01*
X386014Y296450D01*
X386861Y294406D01*
X386861Y292194D01*
X386517Y291363D01*
X386506Y291319D01*
X386487Y291277D01*
X386478Y291200D01*
X386461Y291124D01*
X386465Y291078D01*
X386460Y291033D01*
X386476Y290956D01*
X386484Y290879D01*
X386502Y290837D01*
X386512Y290792D01*
X386552Y290725D01*
X386584Y290654D01*
X386615Y290620D01*
X386638Y290581D01*
X386697Y290530D01*
X386750Y290473D01*
X386790Y290451D01*
X386825Y290421D01*
X386897Y290392D01*
X386966Y290355D01*
X387011Y290346D01*
X387053Y290329D01*
X387189Y290314D01*
X387208Y290311D01*
X387213Y290312D01*
X387220Y290311D01*
X394341Y290311D01*
X394437Y290326D01*
X394534Y290336D01*
X394558Y290346D01*
X394584Y290350D01*
X394670Y290396D01*
X394759Y290436D01*
X394778Y290453D01*
X394801Y290466D01*
X394868Y290536D01*
X394940Y290602D01*
X394953Y290625D01*
X394971Y290644D01*
X395012Y290732D01*
X395059Y290818D01*
X395063Y290843D01*
X395074Y290867D01*
X395085Y290964D01*
X395102Y291060D01*
X395099Y291086D01*
X395101Y291111D01*
X395081Y291207D01*
X395067Y291303D01*
X395055Y291326D01*
X395049Y291352D01*
X394999Y291436D01*
X394955Y291522D01*
X394936Y291541D01*
X394923Y291563D01*
X394849Y291626D01*
X394779Y291694D01*
X394751Y291710D01*
X394736Y291723D01*
X394705Y291735D01*
X394632Y291775D01*
X394532Y291817D01*
X391817Y294532D01*
X390347Y298080D01*
X390347Y301920D01*
X391817Y305468D01*
X394532Y308183D01*
X398080Y309653D01*
X401920Y309653D01*
X405468Y308183D01*
X408183Y305468D01*
X409653Y301920D01*
X409653Y298080D01*
X408183Y294532D01*
X405468Y291817D01*
X405368Y291775D01*
X405285Y291724D01*
X405199Y291678D01*
X405181Y291660D01*
X405159Y291646D01*
X405096Y291571D01*
X405029Y291500D01*
X405018Y291476D01*
X405002Y291456D01*
X404967Y291365D01*
X404926Y291277D01*
X404923Y291251D01*
X404913Y291227D01*
X404909Y291129D01*
X404899Y291033D01*
X404904Y291007D01*
X404903Y290981D01*
X404930Y290887D01*
X404951Y290792D01*
X404964Y290770D01*
X404972Y290745D01*
X405027Y290665D01*
X405077Y290581D01*
X405097Y290564D01*
X405112Y290543D01*
X405190Y290484D01*
X405264Y290421D01*
X405288Y290411D01*
X405309Y290396D01*
X405402Y290366D01*
X405492Y290329D01*
X405525Y290326D01*
X405543Y290320D01*
X405576Y290320D01*
X405659Y290311D01*
X410106Y290311D01*
X410196Y290325D01*
X410287Y290333D01*
X410317Y290345D01*
X410349Y290350D01*
X410430Y290393D01*
X410514Y290429D01*
X410546Y290455D01*
X410566Y290466D01*
X410589Y290489D01*
X410644Y290534D01*
X414216Y294106D01*
X414269Y294179D01*
X414329Y294249D01*
X414341Y294279D01*
X414360Y294305D01*
X414387Y294392D01*
X414421Y294477D01*
X414425Y294518D01*
X414432Y294540D01*
X414431Y294573D01*
X414439Y294644D01*
X414439Y295606D01*
X415286Y297650D01*
X416850Y299214D01*
X418894Y300061D01*
X421106Y300061D01*
X423150Y299214D01*
X424714Y297650D01*
X425561Y295606D01*
X425561Y293394D01*
X424714Y291350D01*
X423150Y289786D01*
X421106Y288939D01*
X420144Y288939D01*
X420054Y288925D01*
X419963Y288917D01*
X419933Y288905D01*
X419901Y288900D01*
X419820Y288857D01*
X419736Y288821D01*
X419704Y288795D01*
X419684Y288784D01*
X419661Y288761D01*
X419606Y288716D01*
X413578Y282689D01*
X372922Y282689D01*
X362283Y293327D01*
X362209Y293381D01*
X362140Y293440D01*
X362110Y293452D01*
X362084Y293471D01*
X361997Y293498D01*
X361912Y293532D01*
X361871Y293536D01*
X361849Y293543D01*
X361816Y293542D01*
X361745Y293550D01*
X360783Y293550D01*
X358739Y294397D01*
X357175Y295961D01*
X356328Y298005D01*
X356328Y300217D01*
X357175Y302261D01*
X358739Y303825D01*
X360783Y304672D01*
X362995Y304672D01*
X365039Y303825D01*
X366603Y302261D01*
X367450Y300217D01*
X367450Y299255D01*
X367464Y299165D01*
X367471Y299074D01*
X367484Y299044D01*
X367489Y299012D01*
X367532Y298931D01*
X367568Y298848D01*
X367593Y298815D01*
X367604Y298795D01*
X367628Y298773D01*
X367673Y298717D01*
X374440Y291949D01*
X374498Y291908D01*
X374550Y291858D01*
X374597Y291836D01*
X374639Y291806D01*
X374708Y291785D01*
X374773Y291755D01*
X374825Y291749D01*
X374875Y291734D01*
X374946Y291735D01*
X375017Y291728D01*
X375068Y291739D01*
X375120Y291740D01*
X375188Y291765D01*
X375258Y291780D01*
X375303Y291806D01*
X375351Y291824D01*
X375407Y291869D01*
X375469Y291906D01*
X375503Y291946D01*
X375543Y291978D01*
X375582Y292038D01*
X375629Y292093D01*
X375648Y292141D01*
X375676Y292185D01*
X375694Y292254D01*
X375721Y292321D01*
X375729Y292392D01*
X375737Y292424D01*
X375735Y292447D01*
X375739Y292488D01*
X375739Y294406D01*
X376431Y296077D01*
X376446Y296141D01*
X376471Y296201D01*
X376480Y296284D01*
X376487Y296316D01*
X376486Y296336D01*
X376489Y296368D01*
X376489Y321031D01*
X376475Y321121D01*
X376467Y321212D01*
X376455Y321242D01*
X376450Y321274D01*
X376407Y321355D01*
X376371Y321439D01*
X376345Y321471D01*
X376334Y321491D01*
X376311Y321514D01*
X376266Y321570D01*
X375586Y322250D01*
X374739Y324294D01*
X374739Y326506D01*
X375586Y328550D01*
X377150Y330114D01*
X379194Y330961D01*
X381406Y330961D01*
X383450Y330114D01*
X385031Y328533D01*
X385068Y328507D01*
X385099Y328473D01*
X385167Y328435D01*
X385230Y328390D01*
X385274Y328376D01*
X385314Y328354D01*
X385391Y328340D01*
X385465Y328317D01*
X385511Y328319D01*
X385557Y328310D01*
X385634Y328322D01*
X385711Y328324D01*
X385754Y328340D01*
X385800Y328346D01*
X385869Y328382D01*
X385942Y328408D01*
X385978Y328437D01*
X386019Y328458D01*
X386074Y328513D01*
X386134Y328562D01*
X386159Y328601D01*
X386191Y328633D01*
X386257Y328753D01*
X386267Y328769D01*
X386269Y328774D01*
X386272Y328780D01*
X387717Y332268D01*
X390432Y334983D01*
X393980Y336453D01*
X397820Y336453D01*
X398607Y336127D01*
X398707Y336103D01*
X398846Y336071D01*
X398943Y336080D01*
X399091Y336094D01*
X399209Y336146D01*
X399316Y336193D01*
X399316Y336194D01*
X399317Y336194D01*
X399445Y336300D01*
X400263Y337144D01*
X400300Y337198D01*
X400346Y337246D01*
X400370Y337299D01*
X400403Y337346D01*
X400421Y337409D01*
X400449Y337469D01*
X400456Y337527D01*
X400472Y337582D01*
X400469Y337648D01*
X400476Y337713D01*
X400464Y337770D01*
X400461Y337828D01*
X400438Y337890D01*
X400424Y337954D01*
X400394Y338004D01*
X400373Y338058D01*
X400332Y338108D01*
X400298Y338165D01*
X400254Y338203D01*
X400217Y338247D01*
X400161Y338282D01*
X400111Y338325D01*
X400057Y338347D01*
X400008Y338377D01*
X399944Y338392D01*
X399883Y338417D01*
X399800Y338426D01*
X399768Y338433D01*
X399749Y338432D01*
X399716Y338435D01*
X362416Y338435D01*
X354235Y346616D01*
X354161Y346669D01*
X354092Y346729D01*
X354062Y346741D01*
X354036Y346760D01*
X353949Y346787D01*
X353864Y346821D01*
X353823Y346825D01*
X353800Y346832D01*
X353768Y346831D01*
X353697Y346839D01*
X353094Y346839D01*
X351050Y347686D01*
X349486Y349250D01*
X348639Y351294D01*
X348639Y353506D01*
X349486Y355550D01*
X351050Y357114D01*
X353094Y357961D01*
X355306Y357961D01*
X357350Y357114D01*
X358914Y355550D01*
X359761Y353506D01*
X359761Y352903D01*
X359775Y352813D01*
X359783Y352722D01*
X359795Y352692D01*
X359800Y352660D01*
X359843Y352580D01*
X359879Y352496D01*
X359905Y352464D01*
X359916Y352443D01*
X359939Y352421D01*
X359984Y352365D01*
X365561Y346788D01*
X365635Y346735D01*
X365704Y346675D01*
X365734Y346663D01*
X365760Y346644D01*
X365847Y346617D01*
X365932Y346583D01*
X365973Y346579D01*
X365996Y346572D01*
X366028Y346573D01*
X366099Y346565D01*
X396001Y346565D01*
X396091Y346579D01*
X396182Y346587D01*
X396212Y346599D01*
X396244Y346604D01*
X396324Y346647D01*
X396408Y346683D01*
X396440Y346709D01*
X396461Y346720D01*
X396483Y346743D01*
X396539Y346788D01*
X411322Y361571D01*
X423196Y361571D01*
X423216Y361574D01*
X423235Y361572D01*
X423337Y361594D01*
X423439Y361610D01*
X423456Y361620D01*
X423476Y361624D01*
X423565Y361677D01*
X423656Y361725D01*
X423670Y361740D01*
X423687Y361750D01*
X423754Y361829D01*
X423826Y361904D01*
X423834Y361922D01*
X423847Y361937D01*
X423886Y362033D01*
X423929Y362127D01*
X423931Y362147D01*
X423939Y362165D01*
X423957Y362332D01*
X423957Y362680D01*
X423954Y362700D01*
X423956Y362719D01*
X423934Y362821D01*
X423918Y362923D01*
X423908Y362940D01*
X423904Y362960D01*
X423851Y363049D01*
X423802Y363140D01*
X423788Y363154D01*
X423778Y363171D01*
X423699Y363238D01*
X423624Y363309D01*
X423606Y363318D01*
X423591Y363331D01*
X423495Y363369D01*
X423401Y363413D01*
X423381Y363415D01*
X423363Y363423D01*
X423196Y363441D01*
X420511Y363441D01*
X412135Y371816D01*
X412135Y380801D01*
X412121Y380891D01*
X412113Y380982D01*
X412101Y381012D01*
X412096Y381044D01*
X412053Y381124D01*
X412017Y381208D01*
X411991Y381240D01*
X411980Y381261D01*
X411957Y381283D01*
X411912Y381339D01*
X403235Y390016D01*
X403235Y404284D01*
X423012Y424061D01*
X423065Y424135D01*
X423125Y424204D01*
X423137Y424234D01*
X423156Y424260D01*
X423183Y424347D01*
X423217Y424432D01*
X423221Y424473D01*
X423228Y424496D01*
X423227Y424528D01*
X423235Y424599D01*
X423235Y437253D01*
X423228Y437298D01*
X423230Y437344D01*
X423208Y437419D01*
X423196Y437496D01*
X423174Y437536D01*
X423161Y437580D01*
X423117Y437644D01*
X423080Y437713D01*
X423047Y437744D01*
X423021Y437782D01*
X422958Y437829D01*
X422902Y437882D01*
X422860Y437902D01*
X422824Y437929D01*
X422750Y437953D01*
X422679Y437986D01*
X422633Y437991D01*
X422590Y438005D01*
X422512Y438004D01*
X422435Y438013D01*
X422390Y438003D01*
X422344Y438003D01*
X422213Y437965D01*
X422194Y437961D01*
X422190Y437958D01*
X422183Y437956D01*
X421920Y437847D01*
X418080Y437847D01*
X416334Y438570D01*
X416264Y438587D01*
X416197Y438613D01*
X416145Y438615D01*
X416095Y438627D01*
X416023Y438620D01*
X415952Y438623D01*
X415902Y438608D01*
X415850Y438604D01*
X415784Y438574D01*
X415715Y438554D01*
X415673Y438525D01*
X415625Y438504D01*
X415572Y438455D01*
X415513Y438414D01*
X415482Y438372D01*
X415444Y438337D01*
X415409Y438274D01*
X415367Y438217D01*
X415350Y438167D01*
X415325Y438122D01*
X415313Y438051D01*
X415290Y437983D01*
X415291Y437931D01*
X415282Y437880D01*
X415292Y437809D01*
X415293Y437737D01*
X415313Y437668D01*
X415317Y437636D01*
X415328Y437615D01*
X415339Y437576D01*
X416770Y434122D01*
X416770Y430282D01*
X415301Y426734D01*
X412585Y424018D01*
X409038Y422549D01*
X405197Y422549D01*
X404010Y423041D01*
X403897Y423067D01*
X403783Y423096D01*
X403777Y423095D01*
X403771Y423097D01*
X403654Y423086D01*
X403538Y423077D01*
X403532Y423074D01*
X403526Y423074D01*
X403418Y423026D01*
X403312Y422980D01*
X403306Y422976D01*
X403301Y422974D01*
X403287Y422961D01*
X403181Y422876D01*
X398534Y418229D01*
X398481Y418155D01*
X398421Y418085D01*
X398409Y418055D01*
X398390Y418029D01*
X398363Y417942D01*
X398329Y417857D01*
X398325Y417816D01*
X398318Y417794D01*
X398319Y417762D01*
X398311Y417690D01*
X398311Y395369D01*
X398325Y395279D01*
X398333Y395188D01*
X398345Y395158D01*
X398350Y395126D01*
X398393Y395045D01*
X398429Y394961D01*
X398455Y394929D01*
X398466Y394909D01*
X398489Y394886D01*
X398534Y394830D01*
X399214Y394150D01*
X400061Y392106D01*
X400061Y389894D01*
X399214Y387850D01*
X397650Y386286D01*
X395606Y385439D01*
X393394Y385439D01*
X391350Y386286D01*
X389786Y387850D01*
X388939Y389894D01*
X388939Y392106D01*
X389786Y394150D01*
X390466Y394830D01*
X390519Y394904D01*
X390579Y394974D01*
X390591Y395004D01*
X390610Y395030D01*
X390637Y395117D01*
X390671Y395202D01*
X390675Y395243D01*
X390682Y395265D01*
X390681Y395297D01*
X390689Y395369D01*
X390689Y421163D01*
X397791Y428265D01*
X397859Y428359D01*
X397929Y428453D01*
X397931Y428459D01*
X397935Y428465D01*
X397969Y428575D01*
X398006Y428687D01*
X398006Y428694D01*
X398007Y428700D01*
X398004Y428816D01*
X398003Y428933D01*
X398001Y428940D01*
X398001Y428945D01*
X397995Y428963D01*
X397957Y429094D01*
X397465Y430282D01*
X397465Y433011D01*
X397449Y433110D01*
X397438Y433210D01*
X397429Y433231D01*
X397425Y433254D01*
X397378Y433342D01*
X397336Y433434D01*
X397321Y433451D01*
X397310Y433471D01*
X397237Y433540D01*
X397168Y433614D01*
X397148Y433624D01*
X397132Y433640D01*
X397040Y433683D01*
X396952Y433730D01*
X396929Y433734D01*
X396909Y433744D01*
X396809Y433755D01*
X396709Y433772D01*
X396687Y433768D01*
X396664Y433771D01*
X396566Y433750D01*
X396466Y433734D01*
X396446Y433724D01*
X396424Y433719D01*
X396337Y433667D01*
X396248Y433621D01*
X396227Y433601D01*
X396213Y433593D01*
X396191Y433568D01*
X396126Y433506D01*
X370264Y403334D01*
X370232Y403281D01*
X370191Y403234D01*
X370168Y403177D01*
X370136Y403124D01*
X370123Y403063D01*
X370099Y403006D01*
X370089Y402916D01*
X370086Y402901D01*
X368751Y401566D01*
X368739Y401548D01*
X368711Y401523D01*
X367479Y400085D01*
X367422Y400080D01*
X367365Y400056D01*
X367305Y400042D01*
X367253Y400008D01*
X367195Y399984D01*
X367125Y399928D01*
X367112Y399919D01*
X365224Y399919D01*
X365203Y399916D01*
X365166Y399917D01*
X363277Y399772D01*
X363234Y399809D01*
X363177Y399832D01*
X363124Y399864D01*
X363064Y399877D01*
X363006Y399901D01*
X362916Y399911D01*
X362884Y399918D01*
X362867Y399916D01*
X362839Y399919D01*
X242420Y399919D01*
X242330Y399905D01*
X242239Y399897D01*
X242209Y399885D01*
X242177Y399880D01*
X242096Y399837D01*
X242013Y399801D01*
X241980Y399775D01*
X241960Y399764D01*
X241938Y399741D01*
X241882Y399696D01*
X235304Y393118D01*
X235251Y393045D01*
X235191Y392975D01*
X235179Y392945D01*
X235160Y392919D01*
X235133Y392832D01*
X235099Y392747D01*
X235095Y392706D01*
X235088Y392684D01*
X235089Y392651D01*
X235081Y392580D01*
X235081Y299920D01*
X235095Y299830D01*
X235103Y299739D01*
X235115Y299709D01*
X235120Y299677D01*
X235163Y299596D01*
X235199Y299513D01*
X235225Y299480D01*
X235236Y299460D01*
X235259Y299438D01*
X235304Y299382D01*
X243729Y290956D01*
X243745Y290945D01*
X243757Y290929D01*
X243845Y290873D01*
X243929Y290813D01*
X243948Y290807D01*
X243964Y290796D01*
X244065Y290771D01*
X244164Y290740D01*
X244184Y290741D01*
X244203Y290736D01*
X244306Y290744D01*
X244410Y290747D01*
X244428Y290754D01*
X244448Y290755D01*
X244543Y290796D01*
X244641Y290831D01*
X244656Y290844D01*
X244674Y290852D01*
X244805Y290956D01*
X247032Y293183D01*
X249785Y294324D01*
X249871Y294377D01*
X249960Y294425D01*
X249975Y294441D01*
X249994Y294453D01*
X250059Y294531D01*
X250128Y294605D01*
X250137Y294626D01*
X250151Y294643D01*
X250187Y294737D01*
X250229Y294829D01*
X250231Y294852D01*
X250239Y294872D01*
X250244Y294973D01*
X250254Y295074D01*
X250249Y295096D01*
X250250Y295118D01*
X250222Y295215D01*
X250199Y295314D01*
X250187Y295333D01*
X250181Y295354D01*
X250124Y295437D01*
X250071Y295524D01*
X250054Y295538D01*
X250041Y295556D01*
X249960Y295617D01*
X249882Y295682D01*
X249857Y295693D01*
X249844Y295703D01*
X249812Y295713D01*
X249729Y295751D01*
X248795Y296054D01*
X247441Y296744D01*
X246212Y297637D01*
X245137Y298712D01*
X244244Y299941D01*
X243554Y301295D01*
X243085Y302740D01*
X242968Y303477D01*
X251738Y303477D01*
X251758Y303480D01*
X251777Y303478D01*
X251879Y303500D01*
X251981Y303517D01*
X251998Y303526D01*
X252018Y303530D01*
X252107Y303583D01*
X252198Y303632D01*
X252212Y303646D01*
X252229Y303656D01*
X252296Y303735D01*
X252367Y303810D01*
X252376Y303828D01*
X252389Y303843D01*
X252427Y303939D01*
X252471Y304033D01*
X252473Y304053D01*
X252481Y304071D01*
X252499Y304238D01*
X252499Y305001D01*
X252501Y305001D01*
X252501Y304238D01*
X252504Y304218D01*
X252502Y304199D01*
X252524Y304097D01*
X252541Y303995D01*
X252550Y303978D01*
X252554Y303958D01*
X252607Y303869D01*
X252656Y303778D01*
X252670Y303764D01*
X252680Y303747D01*
X252759Y303680D01*
X252834Y303609D01*
X252852Y303600D01*
X252867Y303587D01*
X252963Y303548D01*
X253057Y303505D01*
X253077Y303503D01*
X253095Y303495D01*
X253262Y303477D01*
X262032Y303477D01*
X261915Y302740D01*
X261446Y301295D01*
X260756Y299941D01*
X259863Y298712D01*
X258788Y297637D01*
X257559Y296744D01*
X256205Y296054D01*
X255271Y295751D01*
X255181Y295704D01*
X255088Y295663D01*
X255072Y295648D01*
X255052Y295638D01*
X254982Y295565D01*
X254907Y295497D01*
X254897Y295477D01*
X254881Y295461D01*
X254837Y295370D01*
X254789Y295281D01*
X254785Y295259D01*
X254775Y295239D01*
X254763Y295139D01*
X254745Y295039D01*
X254748Y295017D01*
X254745Y294995D01*
X254766Y294896D01*
X254781Y294796D01*
X254791Y294776D01*
X254795Y294754D01*
X254846Y294667D01*
X254892Y294577D01*
X254908Y294561D01*
X254919Y294542D01*
X254995Y294476D01*
X255068Y294404D01*
X255092Y294391D01*
X255104Y294380D01*
X255135Y294368D01*
X255215Y294324D01*
X257968Y293183D01*
X258413Y292738D01*
X258429Y292726D01*
X258442Y292711D01*
X258529Y292655D01*
X258613Y292594D01*
X258632Y292589D01*
X258649Y292578D01*
X258749Y292553D01*
X258848Y292522D01*
X258868Y292523D01*
X258887Y292518D01*
X258990Y292526D01*
X259094Y292528D01*
X259112Y292535D01*
X259132Y292537D01*
X259227Y292577D01*
X259325Y292613D01*
X259340Y292625D01*
X259359Y292633D01*
X259490Y292738D01*
X276989Y310238D01*
X277058Y310333D01*
X277127Y310426D01*
X277129Y310432D01*
X277133Y310438D01*
X277167Y310549D01*
X277204Y310660D01*
X277203Y310667D01*
X277205Y310673D01*
X277202Y310789D01*
X277201Y310906D01*
X277199Y310914D01*
X277199Y310918D01*
X277193Y310936D01*
X277154Y311067D01*
X276439Y312794D01*
X276439Y315006D01*
X277322Y317137D01*
X277332Y317181D01*
X277352Y317223D01*
X277360Y317300D01*
X277378Y317376D01*
X277374Y317422D01*
X277379Y317467D01*
X277362Y317544D01*
X277355Y317621D01*
X277336Y317663D01*
X277326Y317708D01*
X277287Y317775D01*
X277255Y317846D01*
X277224Y317880D01*
X277200Y317919D01*
X277141Y317970D01*
X277088Y318027D01*
X277048Y318049D01*
X277013Y318079D01*
X276941Y318108D01*
X276873Y318145D01*
X276828Y318154D01*
X276785Y318171D01*
X276649Y318186D01*
X276631Y318189D01*
X276626Y318188D01*
X276619Y318189D01*
X254922Y318189D01*
X243689Y329422D01*
X243689Y335622D01*
X243670Y335737D01*
X243653Y335853D01*
X243651Y335858D01*
X243650Y335865D01*
X243595Y335967D01*
X243542Y336072D01*
X243537Y336076D01*
X243534Y336082D01*
X243451Y336161D01*
X243366Y336244D01*
X243360Y336248D01*
X243356Y336251D01*
X243339Y336259D01*
X243219Y336325D01*
X242032Y336817D01*
X239317Y339532D01*
X237847Y343080D01*
X237847Y346920D01*
X239317Y350468D01*
X242032Y353183D01*
X244720Y354297D01*
X244781Y354335D01*
X244847Y354364D01*
X244885Y354399D01*
X244929Y354426D01*
X244975Y354482D01*
X245028Y354530D01*
X245053Y354576D01*
X245086Y354616D01*
X245112Y354683D01*
X245147Y354746D01*
X245156Y354797D01*
X245174Y354845D01*
X245178Y354917D01*
X245190Y354988D01*
X245183Y355039D01*
X245185Y355091D01*
X245165Y355160D01*
X245154Y355231D01*
X245131Y355277D01*
X245116Y355327D01*
X245076Y355386D01*
X245043Y355450D01*
X245006Y355487D01*
X244976Y355529D01*
X244919Y355572D01*
X244867Y355622D01*
X244805Y355657D01*
X244779Y355676D01*
X244756Y355683D01*
X244720Y355703D01*
X242032Y356817D01*
X239317Y359532D01*
X237847Y363080D01*
X237847Y366920D01*
X239317Y370468D01*
X242032Y373183D01*
X244720Y374297D01*
X244781Y374335D01*
X244847Y374364D01*
X244885Y374399D01*
X244929Y374426D01*
X244975Y374482D01*
X245028Y374530D01*
X245053Y374576D01*
X245086Y374616D01*
X245112Y374683D01*
X245147Y374746D01*
X245156Y374797D01*
X245174Y374845D01*
X245178Y374917D01*
X245190Y374988D01*
X245183Y375039D01*
X245185Y375091D01*
X245165Y375160D01*
X245154Y375231D01*
X245131Y375277D01*
X245116Y375327D01*
X245076Y375386D01*
X245043Y375450D01*
X245006Y375487D01*
X244976Y375529D01*
X244919Y375572D01*
X244867Y375622D01*
X244805Y375657D01*
X244779Y375676D01*
X244756Y375683D01*
X244720Y375703D01*
X242032Y376817D01*
X239317Y379532D01*
X237847Y383080D01*
X237847Y386920D01*
X239317Y390468D01*
X242032Y393183D01*
X245580Y394653D01*
X249420Y394653D01*
X252968Y393183D01*
X255683Y390468D01*
X256797Y387780D01*
X256835Y387719D01*
X256864Y387653D01*
X256899Y387615D01*
X256926Y387571D01*
X256982Y387525D01*
X257030Y387472D01*
X257076Y387447D01*
X257116Y387414D01*
X257183Y387388D01*
X257246Y387353D01*
X257297Y387344D01*
X257345Y387326D01*
X257417Y387322D01*
X257488Y387310D01*
X257539Y387317D01*
X257591Y387315D01*
X257660Y387335D01*
X257731Y387346D01*
X257777Y387369D01*
X257827Y387384D01*
X257886Y387424D01*
X257950Y387457D01*
X257987Y387494D01*
X258029Y387524D01*
X258072Y387581D01*
X258122Y387633D01*
X258157Y387695D01*
X258176Y387721D01*
X258183Y387744D01*
X258203Y387780D01*
X259317Y390468D01*
X262032Y393183D01*
X265580Y394653D01*
X269420Y394653D01*
X272968Y393183D01*
X275683Y390468D01*
X276797Y387780D01*
X276835Y387719D01*
X276864Y387653D01*
X276899Y387615D01*
X276926Y387571D01*
X276982Y387525D01*
X277030Y387472D01*
X277076Y387447D01*
X277116Y387414D01*
X277183Y387388D01*
X277246Y387353D01*
X277297Y387344D01*
X277345Y387326D01*
X277417Y387322D01*
X277488Y387310D01*
X277539Y387317D01*
X277591Y387315D01*
X277660Y387335D01*
X277731Y387346D01*
X277777Y387369D01*
X277827Y387384D01*
X277886Y387424D01*
X277950Y387457D01*
X277987Y387494D01*
X278029Y387524D01*
X278072Y387581D01*
X278122Y387633D01*
X278157Y387695D01*
X278176Y387721D01*
X278183Y387744D01*
X278203Y387780D01*
X279317Y390468D01*
X282032Y393183D01*
X285580Y394653D01*
X289420Y394653D01*
X292968Y393183D01*
X295683Y390468D01*
X296797Y387780D01*
X296835Y387719D01*
X296864Y387653D01*
X296899Y387615D01*
X296926Y387571D01*
X296982Y387525D01*
X297030Y387472D01*
X297076Y387447D01*
X297116Y387414D01*
X297183Y387388D01*
X297246Y387353D01*
X297297Y387344D01*
X297345Y387326D01*
X297417Y387322D01*
X297488Y387310D01*
X297539Y387317D01*
X297591Y387315D01*
X297660Y387335D01*
X297731Y387346D01*
X297777Y387369D01*
X297827Y387384D01*
X297886Y387424D01*
X297950Y387457D01*
X297987Y387494D01*
X298029Y387524D01*
X298072Y387581D01*
X298122Y387633D01*
X298157Y387695D01*
X298176Y387721D01*
X298183Y387744D01*
X298203Y387780D01*
X299317Y390468D01*
X302032Y393183D01*
X305580Y394653D01*
X309420Y394653D01*
X312968Y393183D01*
X315683Y390468D01*
X316001Y389701D01*
X316052Y389618D01*
X316098Y389532D01*
X316116Y389514D01*
X316130Y389492D01*
X316206Y389430D01*
X316276Y389363D01*
X316300Y389352D01*
X316320Y389335D01*
X316411Y389300D01*
X316499Y389259D01*
X316525Y389257D01*
X316549Y389247D01*
X316647Y389243D01*
X316743Y389232D01*
X316769Y389238D01*
X316795Y389237D01*
X316889Y389264D01*
X316984Y389285D01*
X317006Y389298D01*
X317031Y389305D01*
X317111Y389361D01*
X317195Y389411D01*
X317212Y389431D01*
X317233Y389446D01*
X317292Y389524D01*
X317355Y389598D01*
X317365Y389622D01*
X317380Y389643D01*
X317410Y389735D01*
X317447Y389826D01*
X317450Y389858D01*
X317456Y389877D01*
X317456Y389910D01*
X317465Y389993D01*
X317465Y394057D01*
X318954Y395546D01*
X352046Y395546D01*
X353535Y394057D01*
X353535Y375951D01*
X352046Y374462D01*
X318954Y374462D01*
X317465Y375951D01*
X317465Y380007D01*
X317450Y380104D01*
X317440Y380200D01*
X317430Y380224D01*
X317426Y380250D01*
X317380Y380336D01*
X317340Y380425D01*
X317323Y380444D01*
X317310Y380468D01*
X317240Y380535D01*
X317174Y380606D01*
X317151Y380619D01*
X317132Y380637D01*
X317044Y380678D01*
X316958Y380725D01*
X316933Y380730D01*
X316909Y380741D01*
X316812Y380751D01*
X316716Y380769D01*
X316690Y380765D01*
X316665Y380768D01*
X316569Y380747D01*
X316473Y380733D01*
X316450Y380721D01*
X316424Y380715D01*
X316341Y380666D01*
X316254Y380621D01*
X316235Y380603D01*
X316213Y380589D01*
X316150Y380515D01*
X316082Y380446D01*
X316066Y380417D01*
X316053Y380402D01*
X316041Y380371D01*
X316001Y380299D01*
X315683Y379532D01*
X312968Y376817D01*
X309420Y375347D01*
X305580Y375347D01*
X302032Y376817D01*
X299317Y379532D01*
X298203Y382220D01*
X298165Y382281D01*
X298136Y382347D01*
X298101Y382385D01*
X298074Y382429D01*
X298018Y382475D01*
X297970Y382528D01*
X297924Y382553D01*
X297884Y382586D01*
X297817Y382612D01*
X297754Y382647D01*
X297703Y382656D01*
X297655Y382674D01*
X297583Y382678D01*
X297512Y382690D01*
X297461Y382683D01*
X297409Y382685D01*
X297340Y382665D01*
X297269Y382654D01*
X297223Y382631D01*
X297173Y382616D01*
X297114Y382576D01*
X297050Y382543D01*
X297013Y382506D01*
X296971Y382476D01*
X296928Y382419D01*
X296878Y382367D01*
X296843Y382305D01*
X296824Y382279D01*
X296817Y382256D01*
X296797Y382220D01*
X295683Y379532D01*
X292968Y376817D01*
X289420Y375347D01*
X285580Y375347D01*
X282032Y376817D01*
X279317Y379532D01*
X278203Y382220D01*
X278165Y382281D01*
X278136Y382347D01*
X278101Y382385D01*
X278074Y382429D01*
X278018Y382475D01*
X277970Y382528D01*
X277924Y382553D01*
X277884Y382586D01*
X277817Y382612D01*
X277754Y382647D01*
X277703Y382656D01*
X277655Y382674D01*
X277583Y382678D01*
X277512Y382690D01*
X277461Y382683D01*
X277409Y382685D01*
X277340Y382665D01*
X277269Y382654D01*
X277223Y382631D01*
X277173Y382616D01*
X277114Y382576D01*
X277050Y382543D01*
X277013Y382506D01*
X276971Y382476D01*
X276928Y382419D01*
X276878Y382367D01*
X276843Y382305D01*
X276824Y382279D01*
X276817Y382256D01*
X276797Y382220D01*
X275683Y379532D01*
X272968Y376817D01*
X270280Y375703D01*
X270219Y375665D01*
X270153Y375636D01*
X270115Y375601D01*
X270071Y375574D01*
X270025Y375518D01*
X269972Y375470D01*
X269947Y375424D01*
X269914Y375384D01*
X269888Y375317D01*
X269853Y375254D01*
X269844Y375203D01*
X269826Y375155D01*
X269822Y375083D01*
X269810Y375012D01*
X269817Y374961D01*
X269815Y374909D01*
X269835Y374840D01*
X269846Y374769D01*
X269869Y374723D01*
X269884Y374673D01*
X269924Y374614D01*
X269957Y374550D01*
X269994Y374513D01*
X270024Y374471D01*
X270081Y374428D01*
X270133Y374378D01*
X270195Y374343D01*
X270221Y374324D01*
X270244Y374317D01*
X270280Y374297D01*
X272968Y373183D01*
X275683Y370468D01*
X277153Y366920D01*
X277153Y363080D01*
X275683Y359532D01*
X272968Y356817D01*
X270280Y355703D01*
X270219Y355665D01*
X270153Y355636D01*
X270115Y355601D01*
X270071Y355574D01*
X270025Y355518D01*
X269972Y355470D01*
X269947Y355424D01*
X269914Y355384D01*
X269888Y355317D01*
X269853Y355254D01*
X269844Y355203D01*
X269826Y355155D01*
X269822Y355083D01*
X269810Y355012D01*
X269817Y354961D01*
X269815Y354909D01*
X269835Y354840D01*
X269846Y354769D01*
X269869Y354723D01*
X269884Y354673D01*
X269924Y354614D01*
X269957Y354550D01*
X269994Y354513D01*
X270024Y354471D01*
X270081Y354428D01*
X270133Y354378D01*
X270195Y354343D01*
X270221Y354324D01*
X270244Y354317D01*
X270280Y354297D01*
X272968Y353183D01*
X275683Y350468D01*
X277153Y346920D01*
X277153Y343080D01*
X275683Y339532D01*
X272968Y336817D01*
X269420Y335347D01*
X265580Y335347D01*
X262032Y336817D01*
X259317Y339532D01*
X258203Y342220D01*
X258165Y342281D01*
X258136Y342347D01*
X258101Y342385D01*
X258074Y342429D01*
X258018Y342475D01*
X257970Y342528D01*
X257924Y342553D01*
X257884Y342586D01*
X257817Y342612D01*
X257754Y342647D01*
X257703Y342656D01*
X257655Y342674D01*
X257583Y342678D01*
X257512Y342690D01*
X257461Y342683D01*
X257409Y342685D01*
X257340Y342665D01*
X257269Y342654D01*
X257223Y342631D01*
X257173Y342616D01*
X257114Y342576D01*
X257050Y342543D01*
X257013Y342506D01*
X256971Y342476D01*
X256928Y342419D01*
X256878Y342367D01*
X256843Y342305D01*
X256824Y342279D01*
X256817Y342256D01*
X256797Y342220D01*
X255683Y339532D01*
X252968Y336817D01*
X251781Y336325D01*
X251681Y336264D01*
X251581Y336204D01*
X251577Y336199D01*
X251572Y336195D01*
X251497Y336106D01*
X251421Y336017D01*
X251419Y336011D01*
X251415Y336006D01*
X251373Y335898D01*
X251329Y335788D01*
X251328Y335781D01*
X251327Y335776D01*
X251326Y335758D01*
X251311Y335622D01*
X251311Y332894D01*
X251325Y332804D01*
X251333Y332713D01*
X251345Y332683D01*
X251350Y332651D01*
X251393Y332570D01*
X251429Y332486D01*
X251455Y332454D01*
X251466Y332434D01*
X251489Y332411D01*
X251534Y332356D01*
X257856Y326034D01*
X257929Y325981D01*
X257999Y325921D01*
X258029Y325909D01*
X258055Y325890D01*
X258142Y325863D01*
X258227Y325829D01*
X258268Y325825D01*
X258290Y325818D01*
X258323Y325819D01*
X258394Y325811D01*
X287198Y325811D01*
X287218Y325814D01*
X287237Y325812D01*
X287339Y325834D01*
X287441Y325850D01*
X287458Y325860D01*
X287478Y325864D01*
X287567Y325917D01*
X287658Y325966D01*
X287672Y325980D01*
X287689Y325990D01*
X287756Y326069D01*
X287828Y326144D01*
X287836Y326162D01*
X287849Y326177D01*
X287888Y326273D01*
X287931Y326367D01*
X287933Y326387D01*
X287941Y326405D01*
X287959Y326572D01*
X287959Y327052D01*
X289448Y328541D01*
X303552Y328541D01*
X304469Y327624D01*
X304527Y327583D01*
X304579Y327533D01*
X304626Y327511D01*
X304668Y327481D01*
X304737Y327460D01*
X304802Y327430D01*
X304854Y327424D01*
X304904Y327408D01*
X304975Y327410D01*
X305046Y327402D01*
X305097Y327414D01*
X305149Y327415D01*
X305217Y327439D01*
X305287Y327455D01*
X305332Y327481D01*
X305380Y327499D01*
X305436Y327544D01*
X305498Y327581D01*
X305532Y327620D01*
X305572Y327653D01*
X305611Y327713D01*
X305658Y327768D01*
X305677Y327816D01*
X305705Y327860D01*
X305723Y327929D01*
X305750Y327996D01*
X305758Y328067D01*
X305766Y328098D01*
X305764Y328122D01*
X305768Y328163D01*
X305768Y330049D01*
X307257Y331538D01*
X317743Y331538D01*
X319232Y330049D01*
X319232Y311943D01*
X318627Y311338D01*
X318616Y311322D01*
X318600Y311310D01*
X318544Y311222D01*
X318484Y311139D01*
X318478Y311120D01*
X318467Y311103D01*
X318442Y311002D01*
X318412Y310903D01*
X318412Y310884D01*
X318407Y310864D01*
X318415Y310761D01*
X318418Y310658D01*
X318425Y310639D01*
X318426Y310619D01*
X318467Y310524D01*
X318502Y310427D01*
X318515Y310411D01*
X318523Y310393D01*
X318627Y310262D01*
X325856Y303034D01*
X325929Y302981D01*
X325999Y302921D01*
X326029Y302909D01*
X326055Y302890D01*
X326142Y302863D01*
X326227Y302829D01*
X326268Y302825D01*
X326290Y302818D01*
X326323Y302819D01*
X326365Y302814D01*
X326367Y302813D01*
X326368Y302814D01*
X326394Y302811D01*
X326431Y302811D01*
X326509Y302823D01*
X326536Y302824D01*
X326545Y302827D01*
X326612Y302833D01*
X326642Y302845D01*
X326674Y302850D01*
X326755Y302893D01*
X326839Y302929D01*
X326871Y302955D01*
X326891Y302966D01*
X326914Y302989D01*
X326970Y303034D01*
X327650Y303714D01*
X329694Y304561D01*
X331906Y304561D01*
X334036Y303678D01*
X334106Y303662D01*
X334173Y303636D01*
X334225Y303634D01*
X334276Y303622D01*
X334347Y303629D01*
X334419Y303626D01*
X334469Y303640D01*
X334520Y303645D01*
X334586Y303674D01*
X334655Y303694D01*
X334698Y303724D01*
X334745Y303745D01*
X334798Y303794D01*
X334857Y303835D01*
X334888Y303877D01*
X334926Y303912D01*
X334961Y303975D01*
X335004Y304032D01*
X335020Y304082D01*
X335045Y304127D01*
X335058Y304198D01*
X335080Y304266D01*
X335079Y304318D01*
X335089Y304369D01*
X335078Y304440D01*
X335077Y304512D01*
X335058Y304581D01*
X335053Y304613D01*
X335042Y304634D01*
X335031Y304673D01*
X334939Y304894D01*
X334939Y305497D01*
X334925Y305587D01*
X334917Y305678D01*
X334905Y305708D01*
X334900Y305740D01*
X334857Y305820D01*
X334821Y305904D01*
X334795Y305936D01*
X334784Y305957D01*
X334761Y305979D01*
X334716Y306035D01*
X331435Y309316D01*
X331435Y309693D01*
X331432Y309713D01*
X331434Y309732D01*
X331412Y309834D01*
X331396Y309936D01*
X331386Y309953D01*
X331382Y309973D01*
X331329Y310062D01*
X331280Y310153D01*
X331266Y310167D01*
X331256Y310184D01*
X331177Y310251D01*
X331102Y310323D01*
X331084Y310331D01*
X331069Y310344D01*
X330973Y310383D01*
X330879Y310426D01*
X330859Y310428D01*
X330841Y310436D01*
X330674Y310454D01*
X330257Y310454D01*
X328768Y311943D01*
X328768Y330049D01*
X330257Y331538D01*
X340743Y331538D01*
X342232Y330049D01*
X342232Y311810D01*
X342233Y311803D01*
X342233Y311801D01*
X342235Y311792D01*
X342251Y311695D01*
X342268Y311579D01*
X342270Y311574D01*
X342271Y311567D01*
X342326Y311465D01*
X342379Y311360D01*
X342384Y311356D01*
X342387Y311350D01*
X342471Y311270D01*
X342555Y311188D01*
X342561Y311184D01*
X342565Y311181D01*
X342582Y311173D01*
X342702Y311107D01*
X343650Y310714D01*
X345214Y309150D01*
X346061Y307106D01*
X346061Y304894D01*
X345214Y302850D01*
X343650Y301286D01*
X341606Y300439D01*
X339394Y300439D01*
X337264Y301322D01*
X337194Y301338D01*
X337127Y301364D01*
X337075Y301366D01*
X337024Y301378D01*
X336953Y301371D01*
X336881Y301374D01*
X336831Y301360D01*
X336780Y301355D01*
X336714Y301326D01*
X336645Y301306D01*
X336602Y301276D01*
X336555Y301255D01*
X336502Y301206D01*
X336443Y301165D01*
X336412Y301123D01*
X336374Y301088D01*
X336339Y301025D01*
X336296Y300968D01*
X336280Y300918D01*
X336255Y300873D01*
X336242Y300802D01*
X336220Y300734D01*
X336221Y300682D01*
X336211Y300631D01*
X336222Y300560D01*
X336223Y300488D01*
X336242Y300419D01*
X336247Y300387D01*
X336258Y300366D01*
X336269Y300327D01*
X336361Y300106D01*
X336361Y297894D01*
X335514Y295850D01*
X333950Y294286D01*
X331906Y293439D01*
X329694Y293439D01*
X327650Y294286D01*
X326970Y294966D01*
X326896Y295019D01*
X326826Y295079D01*
X326796Y295091D01*
X326770Y295110D01*
X326683Y295137D01*
X326598Y295171D01*
X326557Y295175D01*
X326535Y295182D01*
X326503Y295181D01*
X326431Y295189D01*
X322922Y295189D01*
X320466Y297644D01*
X317360Y300751D01*
X317302Y300792D01*
X317250Y300842D01*
X317203Y300864D01*
X317161Y300894D01*
X317092Y300915D01*
X317027Y300945D01*
X316975Y300951D01*
X316925Y300966D01*
X316854Y300965D01*
X316783Y300972D01*
X316732Y300961D01*
X316680Y300960D01*
X316612Y300935D01*
X316542Y300920D01*
X316497Y300894D01*
X316449Y300876D01*
X316393Y300831D01*
X316331Y300794D01*
X316297Y300754D01*
X316257Y300722D01*
X316218Y300662D01*
X316171Y300607D01*
X316152Y300559D01*
X316124Y300515D01*
X316106Y300446D01*
X316079Y300379D01*
X316071Y300308D01*
X316063Y300276D01*
X316065Y300253D01*
X316061Y300212D01*
X316061Y298894D01*
X315214Y296850D01*
X313650Y295286D01*
X311606Y294439D01*
X309394Y294439D01*
X307350Y295286D01*
X305786Y296850D01*
X305389Y297808D01*
X305365Y297847D01*
X305349Y297890D01*
X305301Y297950D01*
X305260Y298017D01*
X305224Y298046D01*
X305196Y298082D01*
X305130Y298124D01*
X305070Y298173D01*
X305027Y298190D01*
X304989Y298215D01*
X304913Y298234D01*
X304841Y298262D01*
X304795Y298264D01*
X304750Y298275D01*
X304673Y298269D01*
X304595Y298272D01*
X304551Y298259D01*
X304505Y298256D01*
X304433Y298225D01*
X304359Y298204D01*
X304321Y298177D01*
X304279Y298159D01*
X304172Y298074D01*
X304157Y298063D01*
X304154Y298059D01*
X304148Y298055D01*
X303552Y297459D01*
X291057Y297459D01*
X290961Y297444D01*
X290864Y297434D01*
X290840Y297424D01*
X290814Y297420D01*
X290728Y297374D01*
X290639Y297334D01*
X290620Y297317D01*
X290597Y297304D01*
X290530Y297234D01*
X290458Y297168D01*
X290445Y297145D01*
X290427Y297126D01*
X290386Y297038D01*
X290339Y296952D01*
X290335Y296927D01*
X290324Y296903D01*
X290313Y296806D01*
X290296Y296710D01*
X290299Y296684D01*
X290297Y296659D01*
X290317Y296563D01*
X290331Y296467D01*
X290343Y296444D01*
X290349Y296418D01*
X290399Y296335D01*
X290443Y296248D01*
X290462Y296229D01*
X290475Y296207D01*
X290549Y296144D01*
X290619Y296076D01*
X290647Y296060D01*
X290662Y296047D01*
X290693Y296035D01*
X290765Y295995D01*
X292650Y295214D01*
X294214Y293650D01*
X295061Y291606D01*
X295061Y289394D01*
X294214Y287350D01*
X292650Y285786D01*
X290606Y284939D01*
X289644Y284939D01*
X289554Y284925D01*
X289463Y284917D01*
X289433Y284905D01*
X289401Y284900D01*
X289320Y284857D01*
X289236Y284821D01*
X289204Y284795D01*
X289184Y284784D01*
X289161Y284761D01*
X289106Y284716D01*
X265578Y261189D01*
X261878Y261189D01*
X261763Y261170D01*
X261647Y261153D01*
X261642Y261151D01*
X261635Y261150D01*
X261533Y261095D01*
X261428Y261042D01*
X261424Y261037D01*
X261418Y261034D01*
X261338Y260950D01*
X261256Y260866D01*
X261252Y260860D01*
X261249Y260856D01*
X261241Y260839D01*
X261175Y260719D01*
X260683Y259532D01*
X260031Y258880D01*
X259989Y258822D01*
X259940Y258770D01*
X259918Y258723D01*
X259888Y258681D01*
X259867Y258612D01*
X259836Y258547D01*
X259831Y258495D01*
X259815Y258445D01*
X259817Y258374D01*
X259809Y258303D01*
X259820Y258252D01*
X259822Y258200D01*
X259846Y258132D01*
X259862Y258062D01*
X259888Y258017D01*
X259906Y257969D01*
X259951Y257913D01*
X259988Y257851D01*
X260027Y257817D01*
X260060Y257777D01*
X260120Y257738D01*
X260175Y257691D01*
X260223Y257672D01*
X260267Y257644D01*
X260336Y257626D01*
X260403Y257599D01*
X260474Y257591D01*
X260505Y257583D01*
X260529Y257585D01*
X260570Y257581D01*
X296930Y257581D01*
X297001Y257592D01*
X297073Y257594D01*
X297122Y257612D01*
X297173Y257620D01*
X297237Y257654D01*
X297304Y257679D01*
X297345Y257711D01*
X297391Y257736D01*
X297440Y257788D01*
X297496Y257832D01*
X297524Y257876D01*
X297560Y257914D01*
X297590Y257979D01*
X297629Y258039D01*
X297642Y258090D01*
X297664Y258137D01*
X297671Y258208D01*
X297689Y258278D01*
X297685Y258330D01*
X297691Y258381D01*
X297675Y258452D01*
X297670Y258523D01*
X297650Y258571D01*
X297638Y258622D01*
X297602Y258683D01*
X297574Y258749D01*
X297529Y258805D01*
X297512Y258833D01*
X297494Y258848D01*
X297469Y258880D01*
X296817Y259532D01*
X295347Y263080D01*
X295347Y266920D01*
X296817Y270468D01*
X299532Y273183D01*
X303080Y274653D01*
X306920Y274653D01*
X310468Y273183D01*
X313183Y270468D01*
X314297Y267780D01*
X314335Y267719D01*
X314364Y267653D01*
X314399Y267615D01*
X314426Y267571D01*
X314482Y267525D01*
X314530Y267472D01*
X314576Y267447D01*
X314616Y267414D01*
X314683Y267388D01*
X314746Y267353D01*
X314797Y267344D01*
X314845Y267326D01*
X314917Y267322D01*
X314988Y267310D01*
X315039Y267317D01*
X315091Y267315D01*
X315160Y267335D01*
X315231Y267346D01*
X315277Y267369D01*
X315327Y267384D01*
X315386Y267424D01*
X315450Y267457D01*
X315487Y267494D01*
X315529Y267524D01*
X315572Y267581D01*
X315622Y267633D01*
X315657Y267695D01*
X315676Y267721D01*
X315683Y267744D01*
X315703Y267780D01*
X316817Y270468D01*
X319532Y273183D01*
X323080Y274653D01*
X326920Y274653D01*
X330468Y273183D01*
X333183Y270468D01*
X334297Y267780D01*
X334335Y267719D01*
X334364Y267653D01*
X334399Y267615D01*
X334426Y267571D01*
X334482Y267525D01*
X334530Y267472D01*
X334576Y267447D01*
X334616Y267414D01*
X334683Y267388D01*
X334746Y267353D01*
X334797Y267344D01*
X334845Y267326D01*
X334917Y267322D01*
X334988Y267310D01*
X335039Y267317D01*
X335091Y267315D01*
X335160Y267335D01*
X335231Y267346D01*
X335277Y267369D01*
X335327Y267384D01*
X335386Y267424D01*
X335450Y267457D01*
X335487Y267494D01*
X335529Y267524D01*
X335572Y267581D01*
X335622Y267633D01*
X335657Y267695D01*
X335676Y267721D01*
X335683Y267744D01*
X335703Y267780D01*
X336817Y270468D01*
X339532Y273183D01*
X340719Y273675D01*
X340819Y273736D01*
X340919Y273796D01*
X340923Y273801D01*
X340928Y273805D01*
X341003Y273894D01*
X341079Y273983D01*
X341081Y273989D01*
X341085Y273994D01*
X341127Y274102D01*
X341171Y274212D01*
X341172Y274219D01*
X341173Y274224D01*
X341174Y274242D01*
X341189Y274378D01*
X341189Y274578D01*
X350216Y283606D01*
X350269Y283679D01*
X350329Y283749D01*
X350341Y283779D01*
X350360Y283805D01*
X350387Y283892D01*
X350421Y283977D01*
X350425Y284018D01*
X350432Y284040D01*
X350431Y284073D01*
X350439Y284144D01*
X350439Y285106D01*
X351286Y287150D01*
X352850Y288714D01*
X354894Y289561D01*
X357106Y289561D01*
X359150Y288714D01*
X360714Y287150D01*
X361561Y285106D01*
X361561Y282894D01*
X360714Y280850D01*
X359150Y279286D01*
X357106Y278439D01*
X356144Y278439D01*
X356054Y278425D01*
X355963Y278417D01*
X355933Y278405D01*
X355901Y278400D01*
X355820Y278357D01*
X355736Y278321D01*
X355704Y278295D01*
X355684Y278284D01*
X355661Y278261D01*
X355606Y278216D01*
X351058Y273669D01*
X351047Y273653D01*
X351031Y273641D01*
X350975Y273553D01*
X350915Y273469D01*
X350909Y273450D01*
X350898Y273434D01*
X350873Y273333D01*
X350842Y273234D01*
X350843Y273214D01*
X350838Y273195D01*
X350846Y273092D01*
X350849Y272988D01*
X350856Y272970D01*
X350857Y272950D01*
X350898Y272855D01*
X350933Y272757D01*
X350946Y272742D01*
X350954Y272724D01*
X351058Y272593D01*
X353183Y270468D01*
X354653Y266920D01*
X354653Y263080D01*
X353183Y259532D01*
X352531Y258880D01*
X352489Y258822D01*
X352440Y258770D01*
X352418Y258723D01*
X352388Y258681D01*
X352367Y258612D01*
X352336Y258547D01*
X352331Y258495D01*
X352315Y258445D01*
X352317Y258374D01*
X352309Y258303D01*
X352320Y258252D01*
X352322Y258200D01*
X352346Y258132D01*
X352362Y258062D01*
X352388Y258017D01*
X352406Y257969D01*
X352451Y257913D01*
X352488Y257851D01*
X352527Y257817D01*
X352560Y257777D01*
X352620Y257738D01*
X352675Y257691D01*
X352723Y257672D01*
X352767Y257644D01*
X352836Y257626D01*
X352903Y257599D01*
X352974Y257591D01*
X353005Y257583D01*
X353029Y257585D01*
X353070Y257581D01*
X367616Y257581D01*
X367687Y257592D01*
X367758Y257594D01*
X367807Y257612D01*
X367859Y257620D01*
X367922Y257654D01*
X367989Y257679D01*
X368030Y257711D01*
X368076Y257736D01*
X368125Y257788D01*
X368181Y257832D01*
X368210Y257876D01*
X368245Y257914D01*
X368276Y257979D01*
X368314Y258039D01*
X368327Y258090D01*
X368349Y258137D01*
X368357Y258208D01*
X368375Y258278D01*
X368370Y258330D01*
X368376Y258381D01*
X368361Y258452D01*
X368355Y258523D01*
X368335Y258571D01*
X368324Y258622D01*
X368287Y258683D01*
X368259Y258749D01*
X368214Y258805D01*
X368198Y258833D01*
X368180Y258848D01*
X368154Y258880D01*
X364269Y262765D01*
X364269Y265977D01*
X374938Y265977D01*
X374958Y265980D01*
X374977Y265978D01*
X375079Y266000D01*
X375181Y266017D01*
X375198Y266026D01*
X375218Y266030D01*
X375307Y266083D01*
X375398Y266132D01*
X375412Y266146D01*
X375429Y266156D01*
X375496Y266235D01*
X375567Y266310D01*
X375576Y266328D01*
X375589Y266343D01*
X375627Y266439D01*
X375671Y266533D01*
X375673Y266553D01*
X375681Y266571D01*
X375699Y266738D01*
X375699Y267501D01*
X375701Y267501D01*
X375701Y266738D01*
X375704Y266718D01*
X375702Y266699D01*
X375724Y266597D01*
X375741Y266495D01*
X375750Y266478D01*
X375754Y266458D01*
X375807Y266369D01*
X375856Y266278D01*
X375870Y266264D01*
X375880Y266247D01*
X375959Y266180D01*
X376034Y266109D01*
X376052Y266100D01*
X376067Y266087D01*
X376163Y266048D01*
X376257Y266005D01*
X376277Y266003D01*
X376295Y265995D01*
X376462Y265977D01*
X387131Y265977D01*
X387131Y262765D01*
X381830Y257465D01*
X381779Y257394D01*
X381721Y257327D01*
X381708Y257294D01*
X381687Y257265D01*
X381661Y257181D01*
X381627Y257100D01*
X381625Y257064D01*
X381615Y257030D01*
X381617Y256942D01*
X381611Y256854D01*
X381620Y256820D01*
X381621Y256784D01*
X381651Y256702D01*
X381674Y256617D01*
X381693Y256587D01*
X381705Y256553D01*
X381760Y256485D01*
X381809Y256411D01*
X381843Y256381D01*
X381859Y256361D01*
X381885Y256344D01*
X381935Y256301D01*
X395545Y246873D01*
X395548Y246872D01*
X395550Y246870D01*
X395657Y246820D01*
X395767Y246768D01*
X395770Y246767D01*
X395773Y246766D01*
X395891Y246753D01*
X396011Y246739D01*
X396014Y246739D01*
X396017Y246739D01*
X396135Y246764D01*
X396252Y246789D01*
X396255Y246790D01*
X396258Y246791D01*
X396361Y246853D01*
X396464Y246913D01*
X396466Y246916D01*
X396469Y246917D01*
X396547Y247008D01*
X396625Y247099D01*
X396627Y247102D01*
X396629Y247104D01*
X396674Y247216D01*
X396719Y247326D01*
X396720Y247329D01*
X396721Y247332D01*
X396739Y247499D01*
X396739Y248206D01*
X397586Y250250D01*
X399150Y251814D01*
X401194Y252661D01*
X403406Y252661D01*
X405450Y251814D01*
X406130Y251134D01*
X406204Y251081D01*
X406274Y251021D01*
X406304Y251009D01*
X406330Y250990D01*
X406417Y250963D01*
X406502Y250929D01*
X406543Y250925D01*
X406565Y250918D01*
X406597Y250919D01*
X406669Y250911D01*
X410259Y250911D01*
X417136Y244034D01*
X417210Y243981D01*
X417279Y243921D01*
X417309Y243909D01*
X417336Y243890D01*
X417422Y243863D01*
X417507Y243829D01*
X417548Y243825D01*
X417571Y243818D01*
X417603Y243819D01*
X417674Y243811D01*
X432278Y243811D01*
X439389Y236700D01*
X439463Y236647D01*
X439533Y236587D01*
X439563Y236575D01*
X439589Y236556D01*
X439676Y236529D01*
X439761Y236495D01*
X439802Y236491D01*
X439824Y236484D01*
X439856Y236485D01*
X439928Y236477D01*
X449238Y236477D01*
X449258Y236480D01*
G37*
G36*
X438796Y320425D02*
X438796Y320425D01*
X438887Y320433D01*
X438917Y320445D01*
X438949Y320450D01*
X439030Y320493D01*
X439114Y320529D01*
X439146Y320555D01*
X439166Y320566D01*
X439189Y320589D01*
X439245Y320634D01*
X445422Y326811D01*
X493578Y326811D01*
X496034Y324356D01*
X496034Y324355D01*
X497388Y323001D01*
X497446Y322960D01*
X497498Y322910D01*
X497545Y322888D01*
X497587Y322858D01*
X497656Y322837D01*
X497721Y322807D01*
X497773Y322801D01*
X497823Y322786D01*
X497894Y322787D01*
X497965Y322780D01*
X498016Y322791D01*
X498068Y322792D01*
X498136Y322817D01*
X498206Y322832D01*
X498250Y322858D01*
X498299Y322876D01*
X498355Y322921D01*
X498417Y322958D01*
X498451Y322998D01*
X498491Y323030D01*
X498530Y323090D01*
X498577Y323145D01*
X498596Y323193D01*
X498624Y323237D01*
X498642Y323306D01*
X498669Y323373D01*
X498677Y323444D01*
X498685Y323476D01*
X498683Y323499D01*
X498687Y323540D01*
X498687Y329076D01*
X511422Y341811D01*
X525606Y341811D01*
X525696Y341825D01*
X525787Y341833D01*
X525817Y341845D01*
X525849Y341850D01*
X525930Y341893D01*
X526014Y341929D01*
X526046Y341955D01*
X526066Y341966D01*
X526089Y341989D01*
X526144Y342034D01*
X526216Y342106D01*
X526269Y342179D01*
X526329Y342249D01*
X526341Y342279D01*
X526360Y342305D01*
X526387Y342392D01*
X526421Y342477D01*
X526425Y342518D01*
X526432Y342540D01*
X526431Y342573D01*
X526439Y342644D01*
X526439Y343606D01*
X527286Y345650D01*
X528850Y347214D01*
X530894Y348061D01*
X533106Y348061D01*
X535150Y347214D01*
X536714Y345650D01*
X537493Y343770D01*
X537544Y343687D01*
X537590Y343601D01*
X537608Y343584D01*
X537622Y343561D01*
X537698Y343499D01*
X537768Y343432D01*
X537792Y343421D01*
X537812Y343404D01*
X537903Y343369D01*
X537991Y343328D01*
X538017Y343326D01*
X538041Y343316D01*
X538139Y343312D01*
X538235Y343301D01*
X538261Y343307D01*
X538287Y343306D01*
X538381Y343333D01*
X538476Y343354D01*
X538498Y343367D01*
X538523Y343374D01*
X538603Y343430D01*
X538687Y343480D01*
X538704Y343500D01*
X538725Y343515D01*
X538784Y343593D01*
X538847Y343667D01*
X538857Y343691D01*
X538872Y343712D01*
X538902Y343804D01*
X538939Y343895D01*
X538942Y343927D01*
X538948Y343946D01*
X538948Y343979D01*
X538957Y344062D01*
X538957Y375153D01*
X538946Y375223D01*
X538944Y375295D01*
X538926Y375344D01*
X538918Y375395D01*
X538884Y375459D01*
X538859Y375526D01*
X538827Y375567D01*
X538802Y375613D01*
X538750Y375662D01*
X538706Y375718D01*
X538662Y375746D01*
X538624Y375782D01*
X538559Y375812D01*
X538499Y375851D01*
X538448Y375864D01*
X538401Y375886D01*
X538330Y375894D01*
X538260Y375911D01*
X538208Y375907D01*
X538157Y375913D01*
X538086Y375897D01*
X538015Y375892D01*
X537967Y375872D01*
X537916Y375860D01*
X537855Y375824D01*
X537789Y375796D01*
X537733Y375751D01*
X537705Y375734D01*
X537690Y375717D01*
X537658Y375691D01*
X525356Y363389D01*
X503169Y363389D01*
X503079Y363375D01*
X502988Y363367D01*
X502958Y363355D01*
X502926Y363350D01*
X502845Y363307D01*
X502761Y363271D01*
X502729Y363245D01*
X502709Y363234D01*
X502686Y363211D01*
X502630Y363166D01*
X501950Y362486D01*
X499906Y361639D01*
X497694Y361639D01*
X495650Y362486D01*
X494086Y364050D01*
X493239Y366094D01*
X493239Y368306D01*
X494086Y370350D01*
X495650Y371914D01*
X495787Y371971D01*
X495869Y372022D01*
X495955Y372068D01*
X495973Y372087D01*
X495996Y372100D01*
X496058Y372175D01*
X496125Y372246D01*
X496136Y372270D01*
X496153Y372290D01*
X496187Y372381D01*
X496228Y372469D01*
X496231Y372495D01*
X496241Y372519D01*
X496245Y372617D01*
X496256Y372713D01*
X496250Y372739D01*
X496251Y372765D01*
X496224Y372859D01*
X496203Y372954D01*
X496190Y372976D01*
X496183Y373001D01*
X496127Y373081D01*
X496077Y373165D01*
X496057Y373182D01*
X496042Y373203D01*
X495964Y373262D01*
X495890Y373325D01*
X495866Y373335D01*
X495845Y373350D01*
X495753Y373380D01*
X495662Y373417D01*
X495630Y373420D01*
X495611Y373426D01*
X495578Y373426D01*
X495495Y373435D01*
X486459Y373435D01*
X486407Y373441D01*
X441800Y373441D01*
X441780Y373438D01*
X441761Y373440D01*
X441659Y373418D01*
X441557Y373401D01*
X441540Y373392D01*
X441520Y373388D01*
X441431Y373335D01*
X441340Y373286D01*
X441326Y373272D01*
X441309Y373262D01*
X441242Y373183D01*
X441170Y373108D01*
X441162Y373090D01*
X441149Y373075D01*
X441110Y372978D01*
X441067Y372885D01*
X441065Y372865D01*
X441057Y372847D01*
X441039Y372680D01*
X441039Y339766D01*
X441050Y339695D01*
X441052Y339623D01*
X441070Y339574D01*
X441078Y339523D01*
X441112Y339460D01*
X441137Y339392D01*
X441169Y339352D01*
X441194Y339306D01*
X441245Y339256D01*
X441290Y339200D01*
X441334Y339172D01*
X441372Y339136D01*
X441437Y339106D01*
X441497Y339067D01*
X441548Y339055D01*
X441595Y339033D01*
X441666Y339025D01*
X441736Y339007D01*
X441788Y339011D01*
X441839Y339006D01*
X441910Y339021D01*
X441981Y339026D01*
X442029Y339047D01*
X442080Y339058D01*
X442141Y339095D01*
X442207Y339123D01*
X442263Y339167D01*
X442291Y339184D01*
X442306Y339202D01*
X442338Y339228D01*
X442466Y339356D01*
X442520Y339430D01*
X442579Y339499D01*
X442591Y339529D01*
X442610Y339555D01*
X442637Y339642D01*
X442671Y339727D01*
X442675Y339768D01*
X442682Y339790D01*
X442681Y339822D01*
X442689Y339894D01*
X442689Y353578D01*
X448216Y359106D01*
X448269Y359179D01*
X448329Y359249D01*
X448341Y359279D01*
X448360Y359305D01*
X448387Y359392D01*
X448421Y359477D01*
X448425Y359518D01*
X448432Y359540D01*
X448431Y359573D01*
X448439Y359644D01*
X448439Y360606D01*
X449286Y362650D01*
X450850Y364214D01*
X452894Y365061D01*
X455106Y365061D01*
X457150Y364214D01*
X458714Y362650D01*
X459561Y360606D01*
X459561Y358394D01*
X458714Y356350D01*
X457150Y354786D01*
X455106Y353939D01*
X454144Y353939D01*
X454054Y353925D01*
X453963Y353917D01*
X453933Y353905D01*
X453901Y353900D01*
X453820Y353857D01*
X453736Y353821D01*
X453704Y353795D01*
X453684Y353784D01*
X453661Y353761D01*
X453606Y353716D01*
X450534Y350644D01*
X450481Y350571D01*
X450421Y350501D01*
X450409Y350471D01*
X450390Y350445D01*
X450363Y350358D01*
X450329Y350273D01*
X450325Y350232D01*
X450318Y350210D01*
X450319Y350177D01*
X450311Y350106D01*
X450311Y336422D01*
X442584Y328695D01*
X441800Y328695D01*
X441780Y328692D01*
X441761Y328694D01*
X441659Y328672D01*
X441557Y328655D01*
X441540Y328646D01*
X441520Y328642D01*
X441431Y328589D01*
X441340Y328540D01*
X441326Y328526D01*
X441309Y328516D01*
X441242Y328437D01*
X441170Y328362D01*
X441162Y328344D01*
X441149Y328329D01*
X441124Y328267D01*
X432498Y328267D01*
X423957Y328267D01*
X423957Y329340D01*
X423973Y329399D01*
X423980Y329467D01*
X423996Y329532D01*
X423992Y329588D01*
X423998Y329644D01*
X423982Y329710D01*
X423977Y329777D01*
X423957Y329824D01*
X423957Y337378D01*
X423954Y337398D01*
X423956Y337417D01*
X423934Y337519D01*
X423918Y337621D01*
X423908Y337638D01*
X423904Y337658D01*
X423851Y337747D01*
X423802Y337838D01*
X423788Y337852D01*
X423778Y337869D01*
X423699Y337936D01*
X423624Y338008D01*
X423606Y338016D01*
X423591Y338029D01*
X423495Y338068D01*
X423401Y338111D01*
X423381Y338113D01*
X423363Y338121D01*
X423196Y338139D01*
X420848Y338139D01*
X418804Y338986D01*
X417240Y340550D01*
X416977Y341184D01*
X416950Y341228D01*
X416931Y341277D01*
X416886Y341332D01*
X416848Y341393D01*
X416808Y341426D01*
X416775Y341466D01*
X416714Y341504D01*
X416658Y341550D01*
X416610Y341569D01*
X416566Y341596D01*
X416496Y341613D01*
X416428Y341638D01*
X416377Y341640D01*
X416326Y341652D01*
X416254Y341646D01*
X416183Y341649D01*
X416133Y341634D01*
X416081Y341629D01*
X416016Y341600D01*
X415947Y341580D01*
X415904Y341551D01*
X415856Y341529D01*
X415767Y341456D01*
X415744Y341440D01*
X415739Y341432D01*
X415727Y341423D01*
X405262Y330621D01*
X405223Y330566D01*
X405198Y330539D01*
X405185Y330512D01*
X405132Y330441D01*
X405129Y330429D01*
X405122Y330419D01*
X405091Y330313D01*
X405056Y330207D01*
X405056Y330195D01*
X405053Y330183D01*
X405058Y330072D01*
X405059Y329961D01*
X405063Y329947D01*
X405063Y329937D01*
X405073Y329912D01*
X405105Y329800D01*
X405553Y328720D01*
X405553Y325469D01*
X405568Y325373D01*
X405578Y325276D01*
X405588Y325252D01*
X405592Y325226D01*
X405638Y325140D01*
X405678Y325051D01*
X405695Y325032D01*
X405708Y325008D01*
X405778Y324941D01*
X405844Y324870D01*
X405867Y324857D01*
X405886Y324839D01*
X405974Y324798D01*
X406060Y324751D01*
X406085Y324746D01*
X406109Y324735D01*
X406206Y324725D01*
X406302Y324707D01*
X406328Y324711D01*
X406353Y324708D01*
X406449Y324729D01*
X406545Y324743D01*
X406568Y324755D01*
X406594Y324761D01*
X406677Y324811D01*
X406764Y324855D01*
X406783Y324873D01*
X406805Y324887D01*
X406868Y324961D01*
X406936Y325030D01*
X406952Y325059D01*
X406965Y325074D01*
X406977Y325104D01*
X407017Y325177D01*
X407586Y326550D01*
X409150Y328114D01*
X411194Y328961D01*
X413406Y328961D01*
X415450Y328114D01*
X417014Y326550D01*
X417861Y324506D01*
X417861Y323544D01*
X417875Y323454D01*
X417883Y323363D01*
X417895Y323333D01*
X417900Y323301D01*
X417943Y323220D01*
X417979Y323136D01*
X418005Y323104D01*
X418016Y323084D01*
X418039Y323061D01*
X418084Y323006D01*
X420456Y320634D01*
X420529Y320581D01*
X420599Y320521D01*
X420629Y320509D01*
X420655Y320490D01*
X420742Y320463D01*
X420827Y320429D01*
X420868Y320425D01*
X420890Y320418D01*
X420923Y320419D01*
X420994Y320411D01*
X438706Y320411D01*
X438796Y320425D01*
G37*
G36*
X423286Y389980D02*
X423286Y389980D01*
X423338Y389981D01*
X423406Y390006D01*
X423476Y390021D01*
X423521Y390048D01*
X423569Y390066D01*
X423625Y390110D01*
X423687Y390147D01*
X423721Y390187D01*
X423761Y390219D01*
X423800Y390280D01*
X423847Y390334D01*
X423866Y390382D01*
X423894Y390426D01*
X423912Y390496D01*
X423939Y390562D01*
X423947Y390633D01*
X423955Y390665D01*
X423953Y390688D01*
X423957Y390729D01*
X423957Y391744D01*
X432498Y391744D01*
X441124Y391744D01*
X441145Y391709D01*
X441194Y391618D01*
X441208Y391604D01*
X441218Y391587D01*
X441297Y391520D01*
X441372Y391448D01*
X441390Y391440D01*
X441405Y391427D01*
X441501Y391388D01*
X441595Y391345D01*
X441615Y391342D01*
X441633Y391335D01*
X441800Y391317D01*
X482112Y391317D01*
X482202Y391331D01*
X482293Y391338D01*
X482323Y391351D01*
X482355Y391356D01*
X482435Y391399D01*
X482519Y391435D01*
X482551Y391460D01*
X482572Y391471D01*
X482594Y391495D01*
X482650Y391540D01*
X494764Y403654D01*
X494776Y403670D01*
X494792Y403682D01*
X494848Y403769D01*
X494908Y403853D01*
X494914Y403872D01*
X494925Y403889D01*
X494950Y403990D01*
X494980Y404088D01*
X494980Y404108D01*
X494985Y404128D01*
X494977Y404231D01*
X494974Y404334D01*
X494967Y404353D01*
X494965Y404373D01*
X494925Y404468D01*
X494889Y404565D01*
X494877Y404581D01*
X494869Y404599D01*
X494764Y404730D01*
X494680Y404814D01*
X494664Y404826D01*
X494651Y404842D01*
X494564Y404898D01*
X494480Y404958D01*
X494461Y404964D01*
X494445Y404975D01*
X494344Y405000D01*
X494245Y405030D01*
X494225Y405030D01*
X494206Y405035D01*
X494103Y405027D01*
X493999Y405024D01*
X493981Y405017D01*
X493961Y405015D01*
X493866Y404975D01*
X493768Y404939D01*
X493753Y404927D01*
X493734Y404919D01*
X493603Y404814D01*
X493234Y404444D01*
X490778Y401989D01*
X487069Y401989D01*
X486979Y401975D01*
X486888Y401967D01*
X486858Y401955D01*
X486826Y401950D01*
X486745Y401907D01*
X486661Y401871D01*
X486629Y401845D01*
X486609Y401834D01*
X486586Y401811D01*
X486530Y401766D01*
X485850Y401086D01*
X483806Y400239D01*
X481594Y400239D01*
X479550Y401086D01*
X477986Y402650D01*
X477139Y404694D01*
X477139Y406737D01*
X477128Y406808D01*
X477126Y406880D01*
X477108Y406929D01*
X477100Y406980D01*
X477066Y407043D01*
X477041Y407111D01*
X477009Y407152D01*
X476984Y407198D01*
X476933Y407247D01*
X476888Y407303D01*
X476844Y407331D01*
X476806Y407367D01*
X476741Y407397D01*
X476681Y407436D01*
X476630Y407449D01*
X476583Y407471D01*
X476512Y407478D01*
X476442Y407496D01*
X476390Y407492D01*
X476339Y407498D01*
X476268Y407482D01*
X476197Y407477D01*
X476149Y407456D01*
X476098Y407445D01*
X476037Y407409D01*
X475971Y407381D01*
X475915Y407336D01*
X475887Y407319D01*
X475872Y407301D01*
X475840Y407276D01*
X475550Y406986D01*
X473506Y406139D01*
X471294Y406139D01*
X469250Y406986D01*
X467686Y408550D01*
X466839Y410594D01*
X466839Y412806D01*
X466883Y412912D01*
X466894Y412957D01*
X466913Y412999D01*
X466922Y413076D01*
X466940Y413152D01*
X466935Y413198D01*
X466940Y413243D01*
X466924Y413319D01*
X466916Y413397D01*
X466898Y413439D01*
X466888Y413484D01*
X466848Y413550D01*
X466816Y413622D01*
X466785Y413655D01*
X466762Y413695D01*
X466703Y413745D01*
X466650Y413803D01*
X466610Y413825D01*
X466575Y413855D01*
X466503Y413884D01*
X466435Y413921D01*
X466389Y413929D01*
X466347Y413947D01*
X466211Y413962D01*
X466193Y413965D01*
X466188Y413964D01*
X466180Y413965D01*
X465664Y413965D01*
X465605Y413981D01*
X465537Y413988D01*
X465472Y414004D01*
X465416Y414000D01*
X465360Y414005D01*
X465294Y413990D01*
X465226Y413985D01*
X465180Y413965D01*
X449946Y413965D01*
X448457Y415453D01*
X448457Y420483D01*
X448443Y420573D01*
X448435Y420664D01*
X448433Y420669D01*
X448433Y429587D01*
X448419Y429677D01*
X448411Y429768D01*
X448399Y429798D01*
X448394Y429830D01*
X448351Y429911D01*
X448315Y429995D01*
X448289Y430027D01*
X448278Y430047D01*
X448255Y430070D01*
X448210Y430126D01*
X447786Y430550D01*
X446939Y432594D01*
X446939Y434806D01*
X447786Y436850D01*
X449350Y438414D01*
X450293Y438805D01*
X450376Y438856D01*
X450462Y438902D01*
X450480Y438920D01*
X450502Y438934D01*
X450564Y439010D01*
X450631Y439080D01*
X450642Y439104D01*
X450659Y439124D01*
X450694Y439215D01*
X450735Y439303D01*
X450738Y439329D01*
X450747Y439353D01*
X450751Y439451D01*
X450762Y439547D01*
X450756Y439573D01*
X450757Y439599D01*
X450730Y439693D01*
X450710Y439788D01*
X450696Y439810D01*
X450689Y439835D01*
X450633Y439915D01*
X450583Y439999D01*
X450564Y440016D01*
X450549Y440037D01*
X450471Y440096D01*
X450397Y440159D01*
X450372Y440169D01*
X450351Y440184D01*
X450259Y440214D01*
X450168Y440251D01*
X450136Y440254D01*
X450117Y440260D01*
X450084Y440260D01*
X450002Y440269D01*
X447388Y440269D01*
X445899Y441758D01*
X445899Y451862D01*
X447388Y453351D01*
X460798Y453351D01*
X460818Y453354D01*
X460837Y453352D01*
X460939Y453374D01*
X461041Y453390D01*
X461058Y453400D01*
X461078Y453404D01*
X461167Y453457D01*
X461258Y453506D01*
X461272Y453520D01*
X461289Y453530D01*
X461356Y453609D01*
X461428Y453684D01*
X461436Y453702D01*
X461449Y453717D01*
X461488Y453813D01*
X461531Y453907D01*
X461533Y453927D01*
X461541Y453945D01*
X461559Y454112D01*
X461559Y455752D01*
X463048Y457241D01*
X477152Y457241D01*
X478641Y455752D01*
X478641Y439648D01*
X477152Y438159D01*
X463048Y438159D01*
X461532Y439675D01*
X461520Y439751D01*
X461510Y439768D01*
X461506Y439788D01*
X461453Y439877D01*
X461404Y439968D01*
X461390Y439982D01*
X461380Y439999D01*
X461301Y440066D01*
X461226Y440138D01*
X461208Y440146D01*
X461193Y440159D01*
X461097Y440198D01*
X461003Y440241D01*
X460983Y440243D01*
X460965Y440251D01*
X460798Y440269D01*
X454998Y440269D01*
X454902Y440254D01*
X454805Y440244D01*
X454781Y440234D01*
X454756Y440230D01*
X454670Y440184D01*
X454581Y440144D01*
X454561Y440127D01*
X454538Y440114D01*
X454471Y440044D01*
X454399Y439978D01*
X454387Y439955D01*
X454369Y439936D01*
X454328Y439848D01*
X454281Y439762D01*
X454276Y439737D01*
X454265Y439713D01*
X454254Y439616D01*
X454237Y439520D01*
X454241Y439494D01*
X454238Y439469D01*
X454259Y439373D01*
X454273Y439277D01*
X454285Y439254D01*
X454290Y439228D01*
X454340Y439145D01*
X454384Y439058D01*
X454403Y439039D01*
X454417Y439017D01*
X454490Y438954D01*
X454560Y438886D01*
X454589Y438870D01*
X454603Y438857D01*
X454634Y438845D01*
X454707Y438805D01*
X455650Y438414D01*
X457214Y436850D01*
X458061Y434806D01*
X458061Y432594D01*
X457856Y432099D01*
X457845Y432054D01*
X457826Y432013D01*
X457817Y431935D01*
X457800Y431860D01*
X457804Y431814D01*
X457799Y431768D01*
X457815Y431692D01*
X457823Y431615D01*
X457841Y431573D01*
X457851Y431528D01*
X457891Y431461D01*
X457923Y431390D01*
X457954Y431356D01*
X457977Y431317D01*
X458036Y431266D01*
X458089Y431209D01*
X458129Y431187D01*
X458164Y431157D01*
X458237Y431128D01*
X458305Y431090D01*
X458350Y431082D01*
X458392Y431065D01*
X458528Y431050D01*
X458547Y431047D01*
X458552Y431047D01*
X458559Y431047D01*
X465171Y431047D01*
X465195Y431035D01*
X465250Y431028D01*
X465304Y431012D01*
X465372Y431014D01*
X465439Y431005D01*
X465517Y431017D01*
X465550Y431018D01*
X465569Y431025D01*
X465605Y431031D01*
X465664Y431047D01*
X466737Y431047D01*
X466737Y422506D01*
X466740Y422486D01*
X466738Y422467D01*
X466760Y422365D01*
X466776Y422263D01*
X466786Y422246D01*
X466790Y422226D01*
X466843Y422137D01*
X466891Y422046D01*
X466906Y422032D01*
X466916Y422015D01*
X466995Y421948D01*
X467070Y421877D01*
X467088Y421868D01*
X467103Y421855D01*
X467199Y421817D01*
X467293Y421773D01*
X467313Y421771D01*
X467331Y421763D01*
X467498Y421745D01*
X467518Y421748D01*
X467537Y421746D01*
X467538Y421746D01*
X467639Y421768D01*
X467741Y421785D01*
X467758Y421794D01*
X467778Y421798D01*
X467867Y421851D01*
X467958Y421900D01*
X467972Y421914D01*
X467989Y421924D01*
X468056Y422003D01*
X468128Y422078D01*
X468136Y422096D01*
X468149Y422111D01*
X468188Y422207D01*
X468231Y422301D01*
X468233Y422321D01*
X468241Y422339D01*
X468259Y422506D01*
X468259Y431047D01*
X469332Y431047D01*
X469391Y431031D01*
X469459Y431024D01*
X469525Y431007D01*
X469580Y431012D01*
X469636Y431006D01*
X469702Y431021D01*
X469770Y431027D01*
X469816Y431047D01*
X497926Y431047D01*
X497946Y431050D01*
X497965Y431048D01*
X498067Y431070D01*
X498169Y431086D01*
X498186Y431096D01*
X498206Y431100D01*
X498295Y431153D01*
X498386Y431201D01*
X498400Y431216D01*
X498417Y431226D01*
X498484Y431305D01*
X498556Y431380D01*
X498564Y431398D01*
X498577Y431413D01*
X498616Y431509D01*
X498659Y431603D01*
X498661Y431623D01*
X498669Y431641D01*
X498687Y431808D01*
X498687Y433876D01*
X501671Y436860D01*
X501712Y436918D01*
X501762Y436970D01*
X501784Y437017D01*
X501814Y437059D01*
X501835Y437128D01*
X501865Y437193D01*
X501871Y437245D01*
X501886Y437295D01*
X501885Y437366D01*
X501892Y437437D01*
X501881Y437488D01*
X501880Y437540D01*
X501855Y437608D01*
X501840Y437678D01*
X501814Y437723D01*
X501796Y437771D01*
X501751Y437827D01*
X501714Y437889D01*
X501674Y437923D01*
X501642Y437963D01*
X501582Y438002D01*
X501527Y438049D01*
X501479Y438068D01*
X501435Y438096D01*
X501366Y438114D01*
X501299Y438141D01*
X501228Y438149D01*
X501196Y438157D01*
X501173Y438155D01*
X501132Y438159D01*
X493048Y438159D01*
X491559Y439648D01*
X491559Y452086D01*
X491556Y452106D01*
X491558Y452125D01*
X491536Y452227D01*
X491520Y452329D01*
X491510Y452346D01*
X491506Y452366D01*
X491453Y452455D01*
X491404Y452546D01*
X491390Y452560D01*
X491380Y452577D01*
X491301Y452644D01*
X491226Y452716D01*
X491208Y452724D01*
X491193Y452737D01*
X491097Y452776D01*
X491003Y452819D01*
X490983Y452821D01*
X490965Y452829D01*
X490798Y452847D01*
X488080Y452847D01*
X484532Y454317D01*
X481817Y457032D01*
X480431Y460378D01*
X480371Y460475D01*
X480312Y460574D01*
X480306Y460580D01*
X480301Y460587D01*
X480213Y460660D01*
X480126Y460735D01*
X480118Y460738D01*
X480112Y460744D01*
X480005Y460785D01*
X479899Y460828D01*
X479889Y460830D01*
X479882Y460832D01*
X479860Y460833D01*
X479732Y460848D01*
X463747Y460944D01*
X463725Y460940D01*
X463703Y460943D01*
X463604Y460921D01*
X463504Y460905D01*
X463484Y460895D01*
X463462Y460890D01*
X463375Y460838D01*
X463285Y460792D01*
X463270Y460775D01*
X463251Y460764D01*
X463185Y460687D01*
X463115Y460614D01*
X463106Y460594D01*
X463091Y460577D01*
X463053Y460483D01*
X463010Y460392D01*
X463008Y460370D01*
X462999Y460349D01*
X462981Y460182D01*
X462981Y459758D01*
X461492Y458269D01*
X447388Y458269D01*
X445899Y459758D01*
X445899Y469158D01*
X445896Y469178D01*
X445898Y469197D01*
X445876Y469299D01*
X445860Y469401D01*
X445850Y469418D01*
X445846Y469438D01*
X445793Y469527D01*
X445744Y469618D01*
X445730Y469632D01*
X445720Y469649D01*
X445641Y469716D01*
X445566Y469788D01*
X445548Y469796D01*
X445533Y469809D01*
X445437Y469848D01*
X445343Y469891D01*
X445323Y469893D01*
X445305Y469901D01*
X445138Y469919D01*
X441250Y469919D01*
X441180Y469908D01*
X441108Y469906D01*
X441059Y469888D01*
X441008Y469880D01*
X440944Y469846D01*
X440877Y469821D01*
X440836Y469789D01*
X440790Y469764D01*
X440741Y469712D01*
X440685Y469668D01*
X440657Y469624D01*
X440621Y469586D01*
X440591Y469521D01*
X440552Y469461D01*
X440539Y469410D01*
X440517Y469363D01*
X440509Y469292D01*
X440492Y469222D01*
X440496Y469170D01*
X440490Y469119D01*
X440505Y469048D01*
X440511Y468977D01*
X440531Y468929D01*
X440542Y468878D01*
X440579Y468817D01*
X440607Y468751D01*
X440652Y468695D01*
X440669Y468667D01*
X440686Y468652D01*
X440712Y468620D01*
X441066Y468266D01*
X442535Y464718D01*
X442535Y460878D01*
X441066Y457331D01*
X438350Y454615D01*
X437417Y454229D01*
X437318Y454167D01*
X437218Y454107D01*
X437213Y454102D01*
X437208Y454099D01*
X437133Y454009D01*
X437058Y453920D01*
X437055Y453914D01*
X437051Y453910D01*
X437010Y453801D01*
X436966Y453692D01*
X436965Y453685D01*
X436963Y453680D01*
X436962Y453662D01*
X436947Y453525D01*
X436947Y418699D01*
X426094Y407846D01*
X426053Y407788D01*
X426003Y407736D01*
X425981Y407689D01*
X425951Y407646D01*
X425930Y407578D01*
X425900Y407513D01*
X425894Y407461D01*
X425879Y407411D01*
X425880Y407340D01*
X425873Y407268D01*
X425884Y407217D01*
X425885Y407165D01*
X425910Y407098D01*
X425925Y407028D01*
X425951Y406983D01*
X425969Y406934D01*
X426014Y406878D01*
X426051Y406817D01*
X426091Y406783D01*
X426123Y406742D01*
X426183Y406704D01*
X426238Y406657D01*
X426286Y406637D01*
X426330Y406609D01*
X426399Y406592D01*
X426466Y406565D01*
X426537Y406557D01*
X426569Y406549D01*
X426592Y406551D01*
X426633Y406547D01*
X439550Y406547D01*
X441039Y405058D01*
X441039Y394833D01*
X441027Y394809D01*
X441021Y394753D01*
X441004Y394700D01*
X441006Y394632D01*
X440998Y394565D01*
X441010Y394487D01*
X441010Y394454D01*
X441018Y394434D01*
X441023Y394399D01*
X441039Y394340D01*
X441039Y393267D01*
X432498Y393267D01*
X423749Y393267D01*
X423706Y393321D01*
X423662Y393349D01*
X423624Y393385D01*
X423559Y393415D01*
X423499Y393454D01*
X423448Y393467D01*
X423401Y393489D01*
X423330Y393496D01*
X423260Y393514D01*
X423208Y393510D01*
X423157Y393516D01*
X423086Y393500D01*
X423015Y393495D01*
X422967Y393474D01*
X422916Y393463D01*
X422855Y393427D01*
X422789Y393399D01*
X422733Y393354D01*
X422705Y393337D01*
X422690Y393319D01*
X422658Y393294D01*
X422150Y392786D01*
X421726Y392610D01*
X421687Y392586D01*
X421644Y392571D01*
X421584Y392522D01*
X421517Y392481D01*
X421488Y392446D01*
X421452Y392417D01*
X421410Y392351D01*
X421361Y392291D01*
X421344Y392249D01*
X421319Y392210D01*
X421300Y392134D01*
X421272Y392062D01*
X421270Y392016D01*
X421259Y391971D01*
X421265Y391894D01*
X421262Y391816D01*
X421275Y391772D01*
X421278Y391726D01*
X421309Y391654D01*
X421331Y391580D01*
X421357Y391542D01*
X421375Y391500D01*
X421460Y391393D01*
X421471Y391378D01*
X421475Y391375D01*
X421480Y391369D01*
X422658Y390191D01*
X422716Y390149D01*
X422768Y390099D01*
X422815Y390077D01*
X422857Y390047D01*
X422926Y390026D01*
X422991Y389996D01*
X423043Y389990D01*
X423093Y389975D01*
X423164Y389977D01*
X423235Y389969D01*
X423286Y389980D01*
G37*
G36*
X558796Y253025D02*
X558796Y253025D01*
X558887Y253033D01*
X558917Y253045D01*
X558949Y253050D01*
X559030Y253093D01*
X559114Y253129D01*
X559146Y253155D01*
X559166Y253166D01*
X559189Y253189D01*
X559244Y253234D01*
X567584Y261574D01*
X567596Y261590D01*
X567612Y261602D01*
X567668Y261689D01*
X567728Y261773D01*
X567734Y261792D01*
X567745Y261809D01*
X567770Y261909D01*
X567800Y262008D01*
X567800Y262028D01*
X567805Y262048D01*
X567797Y262151D01*
X567794Y262254D01*
X567787Y262273D01*
X567786Y262293D01*
X567745Y262388D01*
X567709Y262485D01*
X567697Y262501D01*
X567689Y262519D01*
X567584Y262650D01*
X567469Y262765D01*
X567469Y272235D01*
X574374Y279140D01*
X574416Y279198D01*
X574465Y279250D01*
X574487Y279297D01*
X574518Y279339D01*
X574539Y279408D01*
X574569Y279473D01*
X574575Y279525D01*
X574590Y279575D01*
X574588Y279646D01*
X574596Y279717D01*
X574585Y279768D01*
X574584Y279820D01*
X574559Y279888D01*
X574544Y279958D01*
X574517Y280003D01*
X574499Y280051D01*
X574454Y280107D01*
X574418Y280169D01*
X574378Y280203D01*
X574346Y280243D01*
X574285Y280282D01*
X574231Y280329D01*
X574183Y280348D01*
X574139Y280376D01*
X574069Y280394D01*
X574003Y280421D01*
X573931Y280429D01*
X573901Y280436D01*
X571850Y281286D01*
X570286Y282850D01*
X569439Y284894D01*
X569439Y285856D01*
X569425Y285946D01*
X569417Y286037D01*
X569405Y286067D01*
X569400Y286099D01*
X569357Y286180D01*
X569321Y286264D01*
X569295Y286296D01*
X569284Y286316D01*
X569261Y286339D01*
X569216Y286394D01*
X526644Y328966D01*
X526571Y329019D01*
X526501Y329079D01*
X526471Y329091D01*
X526445Y329110D01*
X526358Y329137D01*
X526273Y329171D01*
X526232Y329175D01*
X526210Y329182D01*
X526177Y329181D01*
X526106Y329189D01*
X521013Y329189D01*
X520942Y329178D01*
X520870Y329176D01*
X520821Y329158D01*
X520770Y329150D01*
X520706Y329116D01*
X520639Y329091D01*
X520598Y329059D01*
X520552Y329034D01*
X520503Y328982D01*
X520447Y328938D01*
X520419Y328894D01*
X520383Y328856D01*
X520353Y328791D01*
X520314Y328731D01*
X520301Y328680D01*
X520279Y328633D01*
X520272Y328562D01*
X520254Y328492D01*
X520258Y328440D01*
X520252Y328389D01*
X520268Y328318D01*
X520273Y328247D01*
X520294Y328199D01*
X520305Y328148D01*
X520341Y328087D01*
X520369Y328021D01*
X520414Y327965D01*
X520431Y327937D01*
X520449Y327922D01*
X520474Y327890D01*
X521214Y327150D01*
X522061Y325106D01*
X522061Y324144D01*
X522076Y324053D01*
X522083Y323963D01*
X522095Y323933D01*
X522100Y323901D01*
X522143Y323820D01*
X522179Y323736D01*
X522205Y323704D01*
X522216Y323684D01*
X522239Y323661D01*
X522284Y323606D01*
X526309Y319580D01*
X526309Y316808D01*
X526312Y316788D01*
X526310Y316768D01*
X526332Y316667D01*
X526348Y316565D01*
X526358Y316547D01*
X526362Y316528D01*
X526415Y316439D01*
X526464Y316348D01*
X526478Y316334D01*
X526488Y316317D01*
X526567Y316250D01*
X526642Y316178D01*
X526660Y316170D01*
X526675Y316157D01*
X526737Y316132D01*
X526737Y307506D01*
X526737Y307505D01*
X526737Y298965D01*
X525664Y298965D01*
X525605Y298981D01*
X525537Y298988D01*
X525472Y299004D01*
X525416Y299000D01*
X525360Y299005D01*
X525294Y298990D01*
X525226Y298985D01*
X525180Y298965D01*
X523513Y298965D01*
X523468Y298958D01*
X523422Y298960D01*
X523347Y298938D01*
X523270Y298925D01*
X523230Y298904D01*
X523185Y298891D01*
X523121Y298847D01*
X523053Y298810D01*
X523021Y298777D01*
X522983Y298751D01*
X522937Y298688D01*
X522883Y298632D01*
X522864Y298590D01*
X522837Y298553D01*
X522813Y298479D01*
X522780Y298409D01*
X522775Y298363D01*
X522760Y298320D01*
X522761Y298242D01*
X522753Y298164D01*
X522762Y298120D01*
X522763Y298074D01*
X522801Y297942D01*
X522805Y297924D01*
X522807Y297920D01*
X522810Y297912D01*
X523061Y297306D01*
X523061Y295094D01*
X522758Y294363D01*
X522748Y294319D01*
X522728Y294277D01*
X522720Y294200D01*
X522702Y294124D01*
X522706Y294078D01*
X522701Y294033D01*
X522718Y293956D01*
X522725Y293879D01*
X522744Y293837D01*
X522753Y293792D01*
X522793Y293725D01*
X522825Y293654D01*
X522856Y293620D01*
X522880Y293581D01*
X522939Y293530D01*
X522991Y293473D01*
X523032Y293451D01*
X523067Y293421D01*
X523139Y293392D01*
X523207Y293355D01*
X523252Y293346D01*
X523295Y293329D01*
X523431Y293314D01*
X523449Y293311D01*
X523454Y293312D01*
X523461Y293311D01*
X528631Y293311D01*
X528721Y293325D01*
X528812Y293333D01*
X528842Y293345D01*
X528874Y293350D01*
X528955Y293393D01*
X529039Y293429D01*
X529071Y293455D01*
X529091Y293466D01*
X529114Y293489D01*
X529170Y293534D01*
X529850Y294214D01*
X531894Y295061D01*
X534106Y295061D01*
X536150Y294214D01*
X537714Y292650D01*
X538561Y290606D01*
X538561Y288394D01*
X537714Y286350D01*
X536574Y285210D01*
X536532Y285152D01*
X536483Y285100D01*
X536461Y285053D01*
X536431Y285011D01*
X536410Y284942D01*
X536379Y284877D01*
X536374Y284825D01*
X536358Y284775D01*
X536360Y284704D01*
X536352Y284633D01*
X536363Y284582D01*
X536365Y284530D01*
X536389Y284462D01*
X536405Y284392D01*
X536431Y284347D01*
X536449Y284299D01*
X536494Y284243D01*
X536531Y284181D01*
X536570Y284147D01*
X536603Y284107D01*
X536663Y284068D01*
X536718Y284021D01*
X536766Y284002D01*
X536810Y283974D01*
X536879Y283956D01*
X536946Y283929D01*
X537017Y283921D01*
X537048Y283913D01*
X537072Y283915D01*
X537113Y283911D01*
X542478Y283911D01*
X547574Y278816D01*
X547590Y278804D01*
X547602Y278788D01*
X547689Y278732D01*
X547773Y278672D01*
X547792Y278666D01*
X547809Y278655D01*
X547909Y278630D01*
X548008Y278600D01*
X548028Y278600D01*
X548048Y278595D01*
X548151Y278603D01*
X548254Y278606D01*
X548273Y278613D01*
X548293Y278614D01*
X548388Y278655D01*
X548485Y278691D01*
X548501Y278703D01*
X548519Y278711D01*
X548650Y278816D01*
X548765Y278931D01*
X558235Y278931D01*
X564931Y272235D01*
X564931Y262765D01*
X558235Y256069D01*
X548765Y256069D01*
X542069Y262765D01*
X542069Y272235D01*
X542184Y272350D01*
X542196Y272366D01*
X542212Y272378D01*
X542268Y272466D01*
X542328Y272550D01*
X542334Y272569D01*
X542345Y272585D01*
X542370Y272686D01*
X542400Y272785D01*
X542400Y272805D01*
X542405Y272824D01*
X542397Y272927D01*
X542394Y273031D01*
X542387Y273049D01*
X542386Y273069D01*
X542345Y273164D01*
X542309Y273262D01*
X542297Y273277D01*
X542289Y273295D01*
X542184Y273426D01*
X539544Y276066D01*
X539470Y276119D01*
X539401Y276179D01*
X539371Y276191D01*
X539345Y276210D01*
X539258Y276237D01*
X539173Y276271D01*
X539132Y276275D01*
X539110Y276282D01*
X539077Y276281D01*
X539006Y276289D01*
X537314Y276289D01*
X537243Y276278D01*
X537172Y276276D01*
X537123Y276258D01*
X537071Y276250D01*
X537008Y276216D01*
X536941Y276191D01*
X536900Y276159D01*
X536854Y276134D01*
X536805Y276082D01*
X536749Y276038D01*
X536720Y275994D01*
X536685Y275956D01*
X536654Y275891D01*
X536616Y275831D01*
X536603Y275780D01*
X536581Y275733D01*
X536573Y275662D01*
X536555Y275592D01*
X536560Y275540D01*
X536554Y275489D01*
X536569Y275418D01*
X536575Y275347D01*
X536595Y275299D01*
X536606Y275248D01*
X536643Y275187D01*
X536671Y275121D01*
X536716Y275065D01*
X536732Y275037D01*
X536750Y275022D01*
X536776Y274990D01*
X539531Y272235D01*
X539531Y262765D01*
X532835Y256069D01*
X523365Y256069D01*
X523250Y256184D01*
X523234Y256196D01*
X523222Y256212D01*
X523134Y256268D01*
X523050Y256328D01*
X523031Y256334D01*
X523015Y256345D01*
X522914Y256370D01*
X522815Y256400D01*
X522795Y256400D01*
X522776Y256405D01*
X522673Y256397D01*
X522569Y256394D01*
X522551Y256387D01*
X522531Y256386D01*
X522436Y256345D01*
X522338Y256309D01*
X522323Y256297D01*
X522305Y256289D01*
X522174Y256184D01*
X520299Y254310D01*
X520258Y254252D01*
X520208Y254200D01*
X520186Y254153D01*
X520156Y254111D01*
X520135Y254042D01*
X520105Y253977D01*
X520099Y253925D01*
X520084Y253875D01*
X520085Y253804D01*
X520078Y253733D01*
X520089Y253682D01*
X520090Y253630D01*
X520115Y253562D01*
X520130Y253492D01*
X520156Y253448D01*
X520174Y253399D01*
X520219Y253343D01*
X520256Y253281D01*
X520296Y253247D01*
X520328Y253207D01*
X520388Y253168D01*
X520443Y253121D01*
X520491Y253102D01*
X520535Y253074D01*
X520604Y253056D01*
X520671Y253029D01*
X520742Y253021D01*
X520774Y253013D01*
X520797Y253015D01*
X520838Y253011D01*
X558706Y253011D01*
X558796Y253025D01*
G37*
G36*
X556910Y352321D02*
X556910Y352321D01*
X556981Y352326D01*
X557029Y352347D01*
X557080Y352358D01*
X557141Y352395D01*
X557207Y352423D01*
X557263Y352467D01*
X557291Y352484D01*
X557306Y352502D01*
X557338Y352527D01*
X569866Y365056D01*
X572322Y367511D01*
X573362Y367511D01*
X573433Y367522D01*
X573505Y367524D01*
X573554Y367542D01*
X573605Y367550D01*
X573668Y367584D01*
X573736Y367609D01*
X573776Y367641D01*
X573822Y367666D01*
X573872Y367718D01*
X573928Y367762D01*
X573956Y367806D01*
X573992Y367844D01*
X574022Y367909D01*
X574061Y367969D01*
X574073Y368020D01*
X574095Y368067D01*
X574103Y368138D01*
X574121Y368208D01*
X574117Y368260D01*
X574122Y368311D01*
X574107Y368382D01*
X574102Y368453D01*
X574081Y368501D01*
X574070Y368552D01*
X574033Y368613D01*
X574005Y368679D01*
X573961Y368735D01*
X573944Y368763D01*
X573926Y368778D01*
X573901Y368810D01*
X567394Y375316D01*
X567321Y375369D01*
X567251Y375429D01*
X567221Y375441D01*
X567195Y375460D01*
X567108Y375487D01*
X567023Y375521D01*
X566982Y375525D01*
X566960Y375532D01*
X566927Y375531D01*
X566856Y375539D01*
X565894Y375539D01*
X563850Y376386D01*
X562286Y377950D01*
X561439Y379994D01*
X561439Y382206D01*
X562286Y384250D01*
X563850Y385814D01*
X565894Y386661D01*
X568106Y386661D01*
X569187Y386213D01*
X569231Y386203D01*
X569273Y386183D01*
X569350Y386175D01*
X569426Y386157D01*
X569472Y386161D01*
X569517Y386156D01*
X569594Y386173D01*
X569671Y386180D01*
X569713Y386199D01*
X569758Y386208D01*
X569825Y386248D01*
X569896Y386280D01*
X569930Y386311D01*
X569969Y386335D01*
X570020Y386394D01*
X570077Y386446D01*
X570099Y386487D01*
X570129Y386522D01*
X570158Y386594D01*
X570195Y386662D01*
X570204Y386707D01*
X570221Y386750D01*
X570236Y386886D01*
X570239Y386904D01*
X570238Y386909D01*
X570239Y386916D01*
X570239Y388306D01*
X571086Y390350D01*
X572650Y391914D01*
X574694Y392761D01*
X576635Y392761D01*
X576680Y392768D01*
X576726Y392766D01*
X576801Y392788D01*
X576878Y392800D01*
X576918Y392822D01*
X576962Y392835D01*
X577026Y392879D01*
X577095Y392916D01*
X577127Y392949D01*
X577165Y392975D01*
X577211Y393038D01*
X577265Y393094D01*
X577284Y393136D01*
X577311Y393172D01*
X577335Y393246D01*
X577368Y393317D01*
X577373Y393363D01*
X577387Y393406D01*
X577387Y393484D01*
X577395Y393561D01*
X577386Y393606D01*
X577385Y393652D01*
X577347Y393783D01*
X577343Y393802D01*
X577340Y393806D01*
X577338Y393813D01*
X577139Y394294D01*
X577139Y396506D01*
X577588Y397590D01*
X577598Y397631D01*
X577610Y397657D01*
X577613Y397682D01*
X577631Y397731D01*
X577633Y397781D01*
X577645Y397830D01*
X577638Y397903D01*
X577640Y397977D01*
X577626Y398025D01*
X577621Y398075D01*
X577591Y398142D01*
X577571Y398213D01*
X577542Y398254D01*
X577521Y398299D01*
X577472Y398354D01*
X577429Y398414D01*
X577389Y398444D01*
X577355Y398481D01*
X577290Y398516D01*
X577231Y398560D01*
X577183Y398575D01*
X577140Y398599D01*
X577067Y398612D01*
X576997Y398635D01*
X576947Y398634D01*
X576898Y398643D01*
X576825Y398632D01*
X576751Y398631D01*
X576704Y398614D01*
X576654Y398607D01*
X576628Y398594D01*
X574447Y398731D01*
X564458Y410061D01*
X564592Y412197D01*
X564597Y412204D01*
X564647Y412265D01*
X564663Y412306D01*
X564687Y412343D01*
X564706Y412421D01*
X564734Y412495D01*
X564736Y412539D01*
X564747Y412582D01*
X564740Y412661D01*
X564743Y412741D01*
X564731Y412783D01*
X564727Y412827D01*
X564696Y412900D01*
X564674Y412977D01*
X564648Y413013D01*
X564631Y413054D01*
X564540Y413167D01*
X564532Y413178D01*
X564530Y413180D01*
X564526Y413184D01*
X562535Y415176D01*
X562461Y415229D01*
X562392Y415288D01*
X562362Y415300D01*
X562335Y415319D01*
X562248Y415346D01*
X562164Y415380D01*
X562123Y415385D01*
X562100Y415391D01*
X562068Y415391D01*
X561997Y415399D01*
X561035Y415399D01*
X558991Y416245D01*
X557330Y417906D01*
X557314Y417917D01*
X557302Y417933D01*
X557215Y417989D01*
X557131Y418049D01*
X557112Y418055D01*
X557095Y418066D01*
X556994Y418091D01*
X556896Y418121D01*
X556876Y418121D01*
X556856Y418126D01*
X556753Y418118D01*
X556650Y418115D01*
X556631Y418108D01*
X556611Y418107D01*
X556516Y418066D01*
X556419Y418031D01*
X556403Y418018D01*
X556385Y418010D01*
X556254Y417906D01*
X546194Y407846D01*
X546153Y407788D01*
X546103Y407736D01*
X546081Y407689D01*
X546051Y407646D01*
X546030Y407578D01*
X546000Y407513D01*
X545994Y407461D01*
X545979Y407411D01*
X545980Y407340D01*
X545973Y407268D01*
X545984Y407217D01*
X545985Y407165D01*
X546010Y407098D01*
X546025Y407028D01*
X546051Y406983D01*
X546069Y406934D01*
X546114Y406878D01*
X546151Y406817D01*
X546191Y406783D01*
X546223Y406742D01*
X546283Y406704D01*
X546338Y406657D01*
X546386Y406637D01*
X546430Y406609D01*
X546499Y406592D01*
X546566Y406565D01*
X546637Y406557D01*
X546669Y406549D01*
X546692Y406551D01*
X546733Y406547D01*
X546737Y406547D01*
X546737Y402506D01*
X546740Y402486D01*
X546738Y402467D01*
X546760Y402365D01*
X546776Y402263D01*
X546786Y402246D01*
X546790Y402226D01*
X546843Y402137D01*
X546891Y402046D01*
X546892Y402046D01*
X546906Y402032D01*
X546916Y402015D01*
X546917Y402015D01*
X546995Y401947D01*
X547070Y401876D01*
X547088Y401868D01*
X547103Y401855D01*
X547200Y401816D01*
X547293Y401773D01*
X547313Y401770D01*
X547332Y401763D01*
X547498Y401744D01*
X556039Y401744D01*
X556039Y400671D01*
X556023Y400612D01*
X556016Y400545D01*
X556000Y400480D01*
X556004Y400424D01*
X555998Y400368D01*
X556014Y400302D01*
X556019Y400234D01*
X556039Y400188D01*
X556039Y353066D01*
X556050Y352995D01*
X556052Y352923D01*
X556070Y352874D01*
X556078Y352823D01*
X556112Y352760D01*
X556137Y352692D01*
X556169Y352652D01*
X556194Y352606D01*
X556246Y352556D01*
X556290Y352500D01*
X556334Y352472D01*
X556372Y352436D01*
X556437Y352406D01*
X556497Y352367D01*
X556548Y352355D01*
X556595Y352333D01*
X556666Y352325D01*
X556736Y352307D01*
X556788Y352311D01*
X556839Y352306D01*
X556910Y352321D01*
G37*
G36*
X495297Y386585D02*
X495297Y386585D01*
X495388Y386592D01*
X495418Y386605D01*
X495450Y386610D01*
X495530Y386653D01*
X495614Y386689D01*
X495646Y386714D01*
X495667Y386725D01*
X495689Y386749D01*
X495745Y386794D01*
X520416Y411465D01*
X530501Y411465D01*
X530591Y411479D01*
X530682Y411487D01*
X530712Y411499D01*
X530744Y411504D01*
X530824Y411547D01*
X530908Y411583D01*
X530940Y411609D01*
X530961Y411620D01*
X530983Y411643D01*
X531039Y411688D01*
X542670Y423319D01*
X542723Y423393D01*
X542783Y423462D01*
X542795Y423492D01*
X542814Y423518D01*
X542841Y423605D01*
X542875Y423690D01*
X542879Y423731D01*
X542886Y423754D01*
X542885Y423786D01*
X542893Y423857D01*
X542893Y429187D01*
X542886Y429233D01*
X542888Y429278D01*
X542866Y429353D01*
X542854Y429430D01*
X542832Y429471D01*
X542819Y429515D01*
X542775Y429579D01*
X542738Y429647D01*
X542705Y429679D01*
X542679Y429717D01*
X542617Y429763D01*
X542560Y429817D01*
X542518Y429836D01*
X542482Y429864D01*
X542408Y429888D01*
X542337Y429920D01*
X542291Y429925D01*
X542248Y429940D01*
X542170Y429939D01*
X542093Y429948D01*
X542048Y429938D01*
X542002Y429937D01*
X541870Y429899D01*
X541852Y429895D01*
X541848Y429893D01*
X541841Y429891D01*
X540845Y429478D01*
X538633Y429478D01*
X536589Y430325D01*
X535909Y431005D01*
X535835Y431058D01*
X535765Y431118D01*
X535735Y431130D01*
X535709Y431149D01*
X535622Y431175D01*
X535537Y431210D01*
X535496Y431214D01*
X535474Y431221D01*
X535442Y431220D01*
X535370Y431228D01*
X531679Y431228D01*
X531585Y431213D01*
X531490Y431204D01*
X531464Y431193D01*
X531436Y431188D01*
X531352Y431144D01*
X531264Y431106D01*
X531243Y431087D01*
X531218Y431073D01*
X531153Y431004D01*
X531082Y430940D01*
X531069Y430915D01*
X531049Y430895D01*
X531009Y430808D01*
X530962Y430725D01*
X530957Y430698D01*
X530945Y430672D01*
X530935Y430577D01*
X530917Y430483D01*
X530921Y430455D01*
X530918Y430427D01*
X530939Y430334D01*
X530952Y430240D01*
X530966Y430207D01*
X530971Y430187D01*
X530988Y430159D01*
X531019Y430086D01*
X531366Y429487D01*
X531539Y428840D01*
X531539Y423267D01*
X527498Y423267D01*
X527479Y423264D01*
X527459Y423266D01*
X527358Y423244D01*
X527256Y423227D01*
X527238Y423218D01*
X527219Y423214D01*
X527129Y423161D01*
X527038Y423112D01*
X527024Y423098D01*
X527007Y423088D01*
X527007Y423087D01*
X526940Y423009D01*
X526868Y422934D01*
X526860Y422916D01*
X526847Y422900D01*
X526808Y422804D01*
X526765Y422710D01*
X526763Y422691D01*
X526755Y422672D01*
X526737Y422505D01*
X526737Y413965D01*
X525664Y413965D01*
X525605Y413981D01*
X525537Y413988D01*
X525472Y414004D01*
X525416Y414000D01*
X525360Y414005D01*
X525294Y413990D01*
X525226Y413985D01*
X525180Y413965D01*
X503095Y413965D01*
X503024Y413954D01*
X502953Y413952D01*
X502904Y413934D01*
X502852Y413925D01*
X502789Y413892D01*
X502722Y413867D01*
X502681Y413835D01*
X502635Y413810D01*
X502586Y413758D01*
X502530Y413713D01*
X502502Y413670D01*
X502466Y413632D01*
X502436Y413567D01*
X502397Y413507D01*
X502384Y413456D01*
X502362Y413409D01*
X502354Y413338D01*
X502337Y413268D01*
X502341Y413216D01*
X502335Y413164D01*
X502350Y413094D01*
X502356Y413023D01*
X502376Y412975D01*
X502387Y412924D01*
X502424Y412862D01*
X502452Y412796D01*
X502497Y412741D01*
X502513Y412713D01*
X502531Y412698D01*
X502557Y412666D01*
X504204Y411018D01*
X505051Y408974D01*
X505051Y406762D01*
X504204Y404718D01*
X503524Y404038D01*
X503471Y403964D01*
X503411Y403894D01*
X503399Y403864D01*
X503381Y403838D01*
X503354Y403751D01*
X503320Y403666D01*
X503315Y403625D01*
X503308Y403603D01*
X503309Y403571D01*
X503301Y403499D01*
X503301Y401412D01*
X500846Y398957D01*
X489759Y387870D01*
X489717Y387812D01*
X489668Y387760D01*
X489646Y387713D01*
X489616Y387670D01*
X489595Y387602D01*
X489564Y387537D01*
X489559Y387485D01*
X489543Y387435D01*
X489545Y387364D01*
X489537Y387292D01*
X489548Y387241D01*
X489550Y387189D01*
X489574Y387122D01*
X489590Y387052D01*
X489616Y387007D01*
X489634Y386958D01*
X489679Y386902D01*
X489716Y386841D01*
X489755Y386807D01*
X489788Y386766D01*
X489848Y386728D01*
X489903Y386681D01*
X489951Y386661D01*
X489995Y386633D01*
X490064Y386616D01*
X490131Y386589D01*
X490202Y386581D01*
X490233Y386573D01*
X490257Y386575D01*
X490298Y386571D01*
X495207Y386571D01*
X495297Y386585D01*
G37*
%LPC*%
G36*
X289094Y330539D02*
X289094Y330539D01*
X287050Y331386D01*
X285486Y332950D01*
X284639Y334994D01*
X284639Y337206D01*
X285486Y339250D01*
X287050Y340814D01*
X289094Y341661D01*
X289697Y341661D01*
X289787Y341675D01*
X289878Y341683D01*
X289908Y341695D01*
X289940Y341700D01*
X290020Y341743D01*
X290104Y341779D01*
X290136Y341805D01*
X290157Y341816D01*
X290179Y341839D01*
X290235Y341884D01*
X304916Y356565D01*
X313085Y356565D01*
X313175Y356579D01*
X313266Y356587D01*
X313296Y356599D01*
X313328Y356604D01*
X313409Y356647D01*
X313493Y356683D01*
X313525Y356709D01*
X313546Y356720D01*
X313568Y356743D01*
X313624Y356788D01*
X314050Y357214D01*
X316094Y358061D01*
X318306Y358061D01*
X320350Y357214D01*
X321914Y355650D01*
X322761Y353606D01*
X322761Y351394D01*
X321914Y349350D01*
X320350Y347786D01*
X318306Y346939D01*
X316094Y346939D01*
X314050Y347786D01*
X313624Y348212D01*
X313550Y348266D01*
X313480Y348325D01*
X313450Y348337D01*
X313424Y348356D01*
X313337Y348383D01*
X313252Y348417D01*
X313211Y348421D01*
X313189Y348428D01*
X313157Y348427D01*
X313085Y348435D01*
X308599Y348435D01*
X308509Y348421D01*
X308418Y348413D01*
X308388Y348401D01*
X308356Y348396D01*
X308276Y348353D01*
X308192Y348317D01*
X308160Y348291D01*
X308139Y348280D01*
X308117Y348257D01*
X308061Y348212D01*
X295984Y336135D01*
X295931Y336061D01*
X295871Y335992D01*
X295859Y335962D01*
X295840Y335936D01*
X295813Y335849D01*
X295779Y335764D01*
X295775Y335723D01*
X295768Y335700D01*
X295769Y335668D01*
X295761Y335597D01*
X295761Y334994D01*
X294914Y332950D01*
X293350Y331386D01*
X291306Y330539D01*
X289094Y330539D01*
G37*
%LPD*%
%LPC*%
G36*
X369208Y368289D02*
X369208Y368289D01*
X367719Y369778D01*
X367719Y379882D01*
X369208Y381371D01*
X373224Y381371D01*
X373269Y381378D01*
X373315Y381376D01*
X373390Y381398D01*
X373467Y381410D01*
X373507Y381432D01*
X373551Y381445D01*
X373615Y381489D01*
X373684Y381526D01*
X373716Y381559D01*
X373753Y381585D01*
X373800Y381648D01*
X373853Y381704D01*
X373873Y381746D01*
X373900Y381782D01*
X373924Y381856D01*
X373957Y381927D01*
X373962Y381973D01*
X373976Y382016D01*
X373975Y382094D01*
X373984Y382171D01*
X373974Y382216D01*
X373974Y382262D01*
X373939Y382381D01*
X373939Y384606D01*
X374786Y386650D01*
X376350Y388214D01*
X378394Y389061D01*
X380606Y389061D01*
X382650Y388214D01*
X384214Y386650D01*
X385061Y384606D01*
X385061Y382394D01*
X384444Y380904D01*
X384417Y380790D01*
X384388Y380677D01*
X384389Y380671D01*
X384387Y380665D01*
X384398Y380548D01*
X384408Y380432D01*
X384410Y380426D01*
X384411Y380420D01*
X384458Y380313D01*
X384504Y380205D01*
X384509Y380200D01*
X384511Y380195D01*
X384523Y380181D01*
X384609Y380074D01*
X384801Y379882D01*
X384801Y369778D01*
X383312Y368289D01*
X369208Y368289D01*
G37*
%LPD*%
%LPC*%
G36*
X377223Y269023D02*
X377223Y269023D01*
X377223Y278931D01*
X380435Y278931D01*
X387131Y272235D01*
X387131Y269023D01*
X377223Y269023D01*
G37*
%LPD*%
%LPC*%
G36*
X364269Y269023D02*
X364269Y269023D01*
X364269Y272235D01*
X370965Y278931D01*
X374177Y278931D01*
X374177Y269023D01*
X364269Y269023D01*
G37*
%LPD*%
%LPC*%
G36*
X254023Y306523D02*
X254023Y306523D01*
X254023Y314532D01*
X254760Y314415D01*
X256205Y313946D01*
X257559Y313256D01*
X258788Y312363D01*
X259863Y311288D01*
X260756Y310059D01*
X261446Y308705D01*
X261915Y307260D01*
X262032Y306523D01*
X254023Y306523D01*
G37*
%LPD*%
%LPC*%
G36*
X242968Y306523D02*
X242968Y306523D01*
X243085Y307260D01*
X243554Y308705D01*
X244244Y310059D01*
X245137Y311288D01*
X246212Y312363D01*
X247441Y313256D01*
X248795Y313946D01*
X250240Y314415D01*
X250977Y314532D01*
X250977Y306523D01*
X242968Y306523D01*
G37*
%LPD*%
%LPC*%
G36*
X360023Y322519D02*
X360023Y322519D01*
X360023Y331538D01*
X363025Y331538D01*
X363672Y331365D01*
X364251Y331030D01*
X364724Y330557D01*
X365059Y329978D01*
X365232Y329331D01*
X365232Y322519D01*
X360023Y322519D01*
G37*
%LPD*%
%LPC*%
G36*
X360023Y310454D02*
X360023Y310454D01*
X360023Y319473D01*
X365232Y319473D01*
X365232Y312661D01*
X365059Y312014D01*
X364724Y311435D01*
X364251Y310962D01*
X363672Y310627D01*
X363025Y310454D01*
X360023Y310454D01*
G37*
%LPD*%
%LPC*%
G36*
X351768Y322519D02*
X351768Y322519D01*
X351768Y329331D01*
X351941Y329978D01*
X352276Y330557D01*
X352749Y331030D01*
X353328Y331365D01*
X353975Y331538D01*
X356977Y331538D01*
X356977Y322519D01*
X351768Y322519D01*
G37*
%LPD*%
%LPC*%
G36*
X353975Y310454D02*
X353975Y310454D01*
X353328Y310627D01*
X352749Y310962D01*
X352276Y311435D01*
X351941Y312014D01*
X351768Y312661D01*
X351768Y319473D01*
X356977Y319473D01*
X356977Y310454D01*
X353975Y310454D01*
G37*
%LPD*%
%LPC*%
G36*
X377783Y358353D02*
X377783Y358353D01*
X377783Y363371D01*
X382594Y363371D01*
X383241Y363198D01*
X383820Y362863D01*
X384293Y362390D01*
X384628Y361811D01*
X384801Y361164D01*
X384801Y358353D01*
X377783Y358353D01*
G37*
%LPD*%
%LPC*%
G36*
X367719Y358353D02*
X367719Y358353D01*
X367719Y361164D01*
X367892Y361811D01*
X368227Y362390D01*
X368700Y362863D01*
X369279Y363198D01*
X369926Y363371D01*
X374737Y363371D01*
X374737Y358353D01*
X367719Y358353D01*
G37*
%LPD*%
%LPC*%
G36*
X377783Y350289D02*
X377783Y350289D01*
X377783Y355307D01*
X384801Y355307D01*
X384801Y352496D01*
X384628Y351849D01*
X384293Y351270D01*
X383820Y350797D01*
X383241Y350462D01*
X382594Y350289D01*
X377783Y350289D01*
G37*
%LPD*%
%LPC*%
G36*
X369926Y350289D02*
X369926Y350289D01*
X369279Y350462D01*
X368700Y350797D01*
X368227Y351270D01*
X367892Y351849D01*
X367719Y352496D01*
X367719Y355307D01*
X374737Y355307D01*
X374737Y350289D01*
X369926Y350289D01*
G37*
%LPD*%
%LPC*%
G36*
X528259Y308267D02*
X528259Y308267D01*
X528259Y316047D01*
X529332Y316047D01*
X529979Y315873D01*
X530558Y315539D01*
X531031Y315066D01*
X531366Y314487D01*
X531539Y313840D01*
X531539Y308267D01*
X528259Y308267D01*
G37*
%LPD*%
%LPC*%
G36*
X548259Y403267D02*
X548259Y403267D01*
X548259Y406547D01*
X553832Y406547D01*
X554479Y406373D01*
X555058Y406039D01*
X555531Y405566D01*
X555866Y404987D01*
X556039Y404340D01*
X556039Y403267D01*
X548259Y403267D01*
G37*
%LPD*%
%LPC*%
G36*
X528259Y413965D02*
X528259Y413965D01*
X528259Y421744D01*
X531539Y421744D01*
X531539Y416171D01*
X531366Y415525D01*
X531031Y414946D01*
X530558Y414473D01*
X529979Y414138D01*
X529332Y413965D01*
X528259Y413965D01*
G37*
%LPD*%
%LPC*%
G36*
X528259Y298965D02*
X528259Y298965D01*
X528259Y306744D01*
X531539Y306744D01*
X531539Y301171D01*
X531366Y300525D01*
X531031Y299946D01*
X530558Y299473D01*
X529979Y299138D01*
X529332Y298965D01*
X528259Y298965D01*
G37*
%LPD*%
%LPC*%
G36*
X433259Y323465D02*
X433259Y323465D01*
X433259Y326744D01*
X441039Y326744D01*
X441039Y325671D01*
X440866Y325025D01*
X440531Y324446D01*
X440058Y323973D01*
X439479Y323638D01*
X438832Y323465D01*
X433259Y323465D01*
G37*
%LPD*%
%LPC*%
G36*
X426164Y323465D02*
X426164Y323465D01*
X425517Y323638D01*
X424938Y323973D01*
X424465Y324446D01*
X424130Y325025D01*
X423957Y325671D01*
X423957Y326744D01*
X431737Y326744D01*
X431737Y323465D01*
X426164Y323465D01*
G37*
%LPD*%
%LPC*%
G36*
X376259Y356829D02*
X376259Y356829D01*
X376259Y356831D01*
X376261Y356831D01*
X376261Y356829D01*
X376259Y356829D01*
G37*
%LPD*%
%LPC*%
G36*
X358499Y320995D02*
X358499Y320995D01*
X358499Y320997D01*
X358501Y320997D01*
X358501Y320995D01*
X358499Y320995D01*
G37*
%LPD*%
D10*
X629100Y379769D03*
X646100Y379769D03*
X668661Y393618D03*
X685661Y393618D03*
D11*
X547498Y362506D03*
X547498Y367506D03*
X547498Y372506D03*
X547498Y357506D03*
X547498Y352506D03*
X547498Y347506D03*
X547498Y342506D03*
X547498Y337506D03*
X547498Y327506D03*
X547498Y332506D03*
X547498Y377506D03*
X547498Y382506D03*
X547498Y387506D03*
X547498Y392506D03*
X547498Y397506D03*
X547498Y402506D03*
D12*
X492498Y422506D03*
X497498Y422506D03*
X502498Y422506D03*
X507498Y422506D03*
X512498Y422506D03*
X517498Y422506D03*
X522498Y422506D03*
X527498Y422506D03*
X487498Y422506D03*
X482498Y422506D03*
X477498Y422506D03*
X472498Y422506D03*
X467498Y422506D03*
X462498Y422506D03*
X457498Y422506D03*
X452498Y422506D03*
D11*
X432498Y362506D03*
X432498Y367506D03*
X432498Y372506D03*
X432498Y357506D03*
X432498Y352506D03*
X432498Y347506D03*
X432498Y342506D03*
X432498Y337506D03*
X432498Y327506D03*
X432498Y332506D03*
X432498Y377506D03*
X432498Y382506D03*
X432498Y387506D03*
X432498Y392506D03*
X432498Y397506D03*
X432498Y402506D03*
D12*
X492498Y307506D03*
X497498Y307506D03*
X502498Y307506D03*
X507498Y307506D03*
X512498Y307506D03*
X517498Y307506D03*
X522498Y307506D03*
X527498Y307506D03*
X487498Y307506D03*
X482498Y307506D03*
X477498Y307506D03*
X472498Y307506D03*
X467498Y307506D03*
X462498Y307506D03*
X457498Y307506D03*
X452498Y307506D03*
D13*
G36*
X582061Y424178D02*
X590658Y414427D01*
X575657Y401202D01*
X567060Y410953D01*
X582061Y424178D01*
G37*
G36*
X600787Y372697D02*
X592190Y382448D01*
X607191Y395673D01*
X615788Y385922D01*
X600787Y372697D01*
G37*
D14*
X296500Y322000D03*
X296500Y304000D03*
X376260Y356830D03*
X376260Y374830D03*
D15*
X312500Y320996D03*
X335500Y320996D03*
X358500Y320996D03*
D16*
X335500Y385004D03*
D17*
X530000Y238000D03*
X510000Y238000D03*
X490000Y238000D03*
X470000Y238000D03*
X450000Y238000D03*
D18*
X621500Y290500D03*
X621500Y297000D03*
X621500Y303500D03*
X621500Y310000D03*
X644500Y290500D03*
X644500Y297000D03*
X644500Y303500D03*
X644500Y310000D03*
D19*
X633000Y300500D03*
D20*
X663600Y288330D03*
X681600Y288330D03*
X681680Y322620D03*
X663680Y322620D03*
X663570Y305290D03*
X681570Y305290D03*
X588450Y341000D03*
X606450Y341000D03*
X588520Y324290D03*
X606520Y324290D03*
X654120Y339640D03*
X672120Y339640D03*
X640920Y328070D03*
X622920Y328070D03*
D17*
X267500Y345000D03*
X267500Y365000D03*
X267500Y385000D03*
X247500Y345000D03*
X247500Y365000D03*
X247500Y385000D03*
X712500Y345000D03*
X712500Y365000D03*
X712500Y385000D03*
X732500Y345000D03*
X732500Y365000D03*
X732500Y385000D03*
X400000Y300000D03*
X490000Y462500D03*
X580000Y300000D03*
D21*
X375700Y267500D03*
X401100Y267500D03*
X426500Y267500D03*
X451900Y267500D03*
X477300Y267500D03*
X502700Y267500D03*
X528100Y267500D03*
X553500Y267500D03*
X578900Y267500D03*
X604300Y267500D03*
D14*
X598350Y304680D03*
X598350Y286680D03*
D17*
X305000Y265000D03*
X325000Y265000D03*
X345000Y265000D03*
X635000Y267500D03*
X655000Y267500D03*
X675000Y267500D03*
X287500Y385000D03*
X307500Y385000D03*
D14*
X454440Y446810D03*
X454440Y464810D03*
D22*
X470100Y447700D03*
X500100Y447700D03*
D17*
X546958Y462663D03*
X560000Y447500D03*
X573042Y432337D03*
X407118Y432202D03*
X420000Y447500D03*
X432882Y462798D03*
X727500Y305000D03*
X727500Y285000D03*
X727500Y265000D03*
X252500Y265000D03*
X252500Y285000D03*
X252500Y305000D03*
X395900Y326800D03*
D23*
X606520Y324290D02*
X606450Y320360D01*
D24*
X622000Y340000D03*
D23*
X681570Y305290D02*
X681680Y305400D01*
X681680Y322620D01*
X681680Y330080D01*
X672120Y339640D01*
D24*
X693600Y296500D03*
D23*
X619140Y324290D02*
X606520Y324290D01*
X619140Y324290D02*
X622920Y328070D01*
X606520Y324290D02*
X606520Y340930D01*
X606450Y341000D01*
X621000Y341000D01*
X622000Y340000D01*
D25*
X633800Y310000D02*
X644500Y310000D01*
D26*
X674043Y382000D02*
X685661Y393618D01*
X505000Y455500D02*
X500100Y447700D01*
X505000Y455500D02*
X509500Y462000D01*
D24*
X509500Y462000D03*
D26*
X432498Y347506D02*
X432492Y347500D01*
X432498Y397506D02*
X419006Y397506D01*
X419000Y397500D01*
D24*
X419000Y397500D03*
D25*
X335500Y320996D02*
X335500Y311000D01*
X340500Y306000D01*
D24*
X340500Y306000D03*
D25*
X376260Y374830D02*
X379460Y383460D01*
X379500Y383500D01*
D24*
X379500Y383500D03*
D25*
X306500Y304000D02*
X296500Y304000D01*
X306500Y304000D02*
X310500Y300000D01*
D24*
X310500Y300000D03*
D26*
X529106Y397506D02*
X547498Y397506D01*
X529106Y397506D02*
X498800Y367200D01*
D24*
X498800Y367200D03*
D26*
X546792Y381800D02*
X547498Y382506D01*
X523778Y367200D02*
X498800Y367200D01*
X538378Y381800D02*
X546792Y381800D01*
X538378Y381800D02*
X523778Y367200D01*
X472498Y411798D02*
X472498Y422506D01*
X472498Y411798D02*
X472400Y411700D01*
D24*
X472400Y411700D03*
D26*
X633000Y309200D02*
X633800Y310000D01*
D25*
X630000Y303500D02*
X626800Y303500D01*
X621500Y303500D01*
X630000Y303500D02*
X633000Y300500D01*
X626800Y303500D02*
X632500Y309200D01*
X633000Y309200D01*
D26*
X432498Y347506D02*
X425760Y347506D01*
X421954Y343700D01*
D24*
X421954Y343700D03*
D25*
X681570Y305290D02*
X684810Y305290D01*
X693600Y296500D01*
X633000Y300500D02*
X633000Y285700D01*
X652650Y285700D01*
X653000Y285350D01*
D24*
X653000Y285350D03*
D26*
X646100Y379769D02*
X671812Y379769D01*
X674043Y382000D01*
D24*
X674043Y382000D03*
X525000Y325000D03*
X453900Y341200D03*
X455500Y405000D03*
X529150Y364350D03*
D26*
X527498Y415798D02*
X527498Y422506D01*
D24*
X508900Y406686D03*
D25*
X508900Y409200D01*
D26*
X527498Y422506D02*
X532994Y422506D01*
X533000Y422500D01*
X525155Y413712D02*
X520612Y413712D01*
X518700Y411800D01*
X527498Y416055D02*
X527498Y422506D01*
X527498Y416055D02*
X525155Y413712D01*
D24*
X559600Y376314D03*
D26*
X559500Y376214D01*
X559500Y374500D01*
X442494Y327506D02*
X432498Y327506D01*
X442494Y327506D02*
X442500Y327500D01*
X452500Y331700D01*
D24*
X452500Y331700D03*
X426600Y302500D03*
D26*
X522498Y307506D02*
X522498Y318002D01*
X516500Y324000D01*
D24*
X516500Y324000D03*
D26*
X497498Y414098D02*
X497498Y422506D01*
D24*
X380300Y325400D03*
D26*
X380300Y294300D01*
X381300Y293300D01*
D24*
X381300Y293300D03*
D26*
X489200Y405800D02*
X497498Y414098D01*
X489200Y405800D02*
X482700Y405800D01*
D24*
X482700Y405800D03*
D26*
X465891Y228100D02*
X465897Y228094D01*
X520094Y228094D01*
X530000Y238000D01*
X408680Y247100D02*
X402300Y247100D01*
D24*
X402300Y247100D03*
D26*
X454109Y228100D02*
X465891Y228100D01*
X454109Y228100D02*
X454103Y228094D01*
X442606Y228094D01*
X415780Y240000D02*
X408680Y247100D01*
X430700Y240000D02*
X442606Y228094D01*
X430700Y240000D02*
X415780Y240000D01*
D24*
X582700Y395400D03*
D26*
X592774Y395400D01*
X603989Y384185D01*
X507500Y422508D02*
X507498Y422506D01*
X507498Y429698D01*
X512839Y435039D02*
X539739Y435039D01*
D24*
X539739Y435039D03*
D26*
X512839Y435039D02*
X507498Y429698D01*
X603989Y384185D02*
X608406Y379769D01*
X629100Y379769D01*
X596810Y412690D02*
X578859Y412690D01*
X615882Y393618D02*
X668661Y393618D01*
X615882Y393618D02*
X596810Y412690D01*
X502498Y422506D02*
X502439Y422565D01*
X502498Y422506D02*
X502498Y432298D01*
D24*
X534856Y440853D03*
D26*
X511053Y440853D02*
X502498Y432298D01*
X511053Y440853D02*
X534856Y440853D01*
D24*
X562141Y420959D03*
D26*
X570410Y412690D01*
X578859Y412690D01*
X441006Y332506D02*
X432498Y332506D01*
X441006Y332506D02*
X446500Y338000D01*
X446500Y352000D01*
X454000Y359500D01*
D24*
X454000Y359500D03*
D26*
X452498Y307506D02*
X452498Y300798D01*
X432200Y280500D01*
X422500Y280500D01*
X413800Y271800D01*
X413800Y262400D01*
X427000Y249200D01*
X560600Y249200D02*
X578900Y267500D01*
X560600Y249200D02*
X427000Y249200D01*
X462498Y295998D02*
X462498Y307506D01*
X462498Y295998D02*
X439000Y272500D01*
X439000Y262000D01*
X446700Y254300D01*
X514900Y254300D01*
X528100Y267500D01*
X467498Y293898D02*
X467498Y307506D01*
X451900Y278300D02*
X451900Y267500D01*
X451900Y278300D02*
X467498Y293898D01*
X517498Y297502D02*
X517498Y307506D01*
X517498Y297502D02*
X517500Y296200D01*
D24*
X517500Y296200D03*
D26*
X547498Y327506D02*
X555494Y327506D01*
X564000Y319000D01*
D24*
X564000Y319000D03*
X550800Y231600D03*
D26*
X565250Y246050D01*
D24*
X566211Y246589D03*
D26*
X565789Y246589D02*
X565250Y246050D01*
X565672Y246050D02*
X566211Y246589D01*
X565672Y246050D02*
X565250Y246050D01*
X457498Y298498D02*
X457498Y307506D01*
X457498Y298498D02*
X426500Y267500D01*
X719800Y332300D02*
X732500Y345000D01*
X719800Y332300D02*
X708400Y332300D01*
X687300Y353400D01*
X580900Y353400D01*
X565006Y337506D01*
X547498Y337506D01*
X698400Y359100D02*
X712500Y345000D01*
X698400Y359100D02*
X577400Y359100D01*
X560806Y342506D01*
X547498Y342506D01*
X557706Y347506D02*
X573900Y363700D01*
X557706Y347506D02*
X547498Y347506D01*
X711200Y363700D02*
X712500Y365000D01*
X711200Y363700D02*
X573900Y363700D01*
X484006Y387506D02*
X432498Y387506D01*
X685900Y385000D02*
X712500Y385000D01*
X685900Y385000D02*
X669500Y368600D01*
X499490Y402990D02*
X484006Y387506D01*
X499490Y402990D02*
X499490Y407868D01*
D24*
X499490Y407868D03*
X567000Y381100D03*
D26*
X579500Y368600D01*
X669500Y368600D01*
D25*
X621500Y297000D02*
X616500Y297000D01*
X611500Y302000D02*
X611500Y309500D01*
X607500Y313500D01*
X598000Y313500D01*
X588520Y322980D01*
X588520Y324290D01*
X611500Y302000D02*
X616500Y297000D01*
X588520Y324290D02*
X588450Y324360D01*
X588450Y341000D01*
D26*
X312500Y320996D02*
X312500Y311000D01*
X374500Y286500D02*
X412000Y286500D01*
X420000Y294500D01*
D24*
X420000Y294500D03*
X501000Y289500D03*
D26*
X533000Y289500D01*
D24*
X533000Y289500D03*
D26*
X324500Y299000D02*
X312500Y311000D01*
D25*
X312500Y320996D02*
X297504Y320996D01*
X296500Y322000D01*
D26*
X324500Y299000D02*
X330800Y299000D01*
D24*
X330800Y299000D03*
X361889Y299111D03*
D26*
X374500Y286500D01*
D24*
X570200Y326200D03*
D26*
X577400Y326200D01*
X579300Y324300D01*
X588390Y324300D01*
X588450Y324360D01*
X296500Y322000D02*
X256500Y322000D01*
X247500Y331000D01*
X247500Y345000D01*
X644500Y303500D02*
X650000Y303500D01*
X653000Y306500D01*
X653000Y315990D01*
X650245Y318745D01*
X640920Y328070D02*
X637070Y328070D01*
X627000Y318000D01*
X640920Y328070D02*
X652490Y339640D01*
X654120Y339640D01*
X640920Y328070D02*
X650245Y318745D01*
D24*
X650245Y318745D03*
X699000Y305000D03*
D26*
X727500Y305000D01*
X627000Y315500D02*
X621500Y310000D01*
X627000Y315500D02*
X627000Y318000D01*
X644500Y297000D02*
X655280Y297000D01*
X663570Y305290D01*
X655280Y297000D02*
X663600Y288680D01*
X663600Y288330D01*
X663570Y322510D02*
X663680Y322620D01*
X663570Y322510D02*
X663570Y305290D01*
X621500Y290500D02*
X612530Y290500D01*
X598350Y304680D01*
X502498Y307506D02*
X502498Y327498D01*
X513000Y338000D01*
X527500Y338000D01*
X532000Y342500D01*
D24*
X532000Y342500D03*
D26*
X507498Y325498D02*
X507498Y307506D01*
X507498Y325498D02*
X515000Y333000D01*
X528000Y333000D01*
X575000Y286000D01*
D24*
X575000Y286000D03*
D26*
X492498Y307506D02*
X492498Y315502D01*
X490000Y318000D01*
X449500Y318000D01*
X441500Y310000D02*
X418000Y310000D01*
D24*
X418000Y310000D03*
X289500Y290500D03*
D26*
X264000Y265000D01*
X252500Y265000D01*
X441500Y310000D02*
X449500Y318000D01*
X497498Y317502D02*
X497498Y307506D01*
X497498Y317502D02*
X492000Y323000D01*
X447000Y323000D01*
X440600Y316600D01*
D24*
X394500Y391000D03*
D26*
X394500Y419584D01*
X407118Y432202D01*
D24*
X412300Y323400D03*
D26*
X419100Y316600D01*
X440600Y316600D01*
D25*
X432498Y352506D02*
X420806Y352506D01*
X395900Y326800D01*
X425094Y372506D02*
X432498Y372506D01*
X425094Y372506D02*
X421600Y376000D01*
X421600Y385500D01*
X412932Y394168D02*
X412932Y400432D01*
X412932Y394168D02*
X421600Y385500D01*
X432882Y420382D02*
X432882Y462798D01*
X432882Y420382D02*
X412932Y400432D01*
X497206Y382506D02*
X522100Y407400D01*
X497206Y382506D02*
X432498Y382506D01*
X522100Y407400D02*
X532500Y407400D01*
X546958Y421858D01*
X546958Y462663D01*
X432498Y367506D02*
X422194Y367506D01*
X416200Y373500D01*
X416200Y382800D01*
X407300Y391700D01*
X407300Y402600D01*
X427300Y422600D01*
X427300Y440200D02*
X420000Y447500D01*
X427300Y440200D02*
X427300Y422600D01*
X432498Y377506D02*
X488406Y377506D01*
X500100Y377500D02*
X524900Y402300D01*
X488412Y377500D02*
X488406Y377506D01*
X488412Y377500D02*
X500100Y377500D01*
X524900Y402300D02*
X534900Y402300D01*
X560000Y427400D01*
X560000Y447500D01*
X432498Y357506D02*
X413006Y357506D01*
X398000Y342500D01*
X258000Y285000D02*
X257500Y285000D01*
X252500Y285000D01*
X364100Y342500D02*
X398000Y342500D01*
X364100Y342500D02*
X354200Y352400D01*
D24*
X354200Y352400D03*
X317200Y352500D03*
D25*
X282000Y313900D02*
X282000Y309500D01*
D24*
X282000Y313900D03*
X290200Y336100D03*
D25*
X306600Y352500D01*
X282000Y309500D02*
X257500Y285000D01*
X306600Y352500D02*
X317200Y352500D01*
X452498Y422506D02*
X452498Y432502D01*
X452500Y433700D01*
D24*
X452500Y433700D03*
X575800Y387200D03*
D25*
X585500Y377500D01*
D24*
X696500Y330400D03*
D25*
X708300Y318600D01*
X735400Y318600D01*
X742100Y311900D01*
X742100Y298600D01*
X728500Y285000D01*
X727500Y285000D01*
D24*
X585500Y377500D03*
X356000Y284000D03*
D26*
X345000Y273000D01*
X345000Y265000D01*
X454440Y464810D02*
X487890Y464610D01*
X490000Y462500D01*
X598350Y286680D02*
X610603Y286680D01*
X610847Y286436D01*
X610864Y286436D01*
X672806Y279536D02*
X681600Y288330D01*
X672806Y279536D02*
X617764Y279536D01*
X610864Y286436D01*
X474110Y446610D02*
X454440Y446810D01*
X470100Y447700D02*
X474110Y446610D01*
X472498Y307506D02*
X472498Y290202D01*
X482600Y280100D01*
X540900Y280100D01*
X553500Y267500D01*
X732500Y385000D02*
X743650Y373850D01*
X743650Y341100D01*
X727550Y325000D01*
D24*
X727550Y325000D03*
M02*
