G04 EAGLE Gerber X2 export*
G04 #@! %TF.Part,Single*
G04 #@! %TF.FileFunction,Copper,L2,Bot,Mixed*
G04 #@! %TF.FilePolarity,Positive*
G04 #@! %TF.GenerationSoftware,Autodesk,EAGLE,8.6.0*
G04 #@! %TF.CreationDate,2018-03-03T08:39:01Z*
G75*
%MOMM*%
%FSLAX34Y34*%
%LPD*%
%AMOC8*
5,1,8,0,0,1.08239X$1,22.5*%
G01*
%ADD10R,0.800000X1.200000*%
%ADD11R,1.200000X0.800000*%
%ADD12C,1.422400*%
%ADD13P,1.924489X8X112.500000*%
%ADD14C,0.604000*%
%ADD15C,0.254000*%
%ADD16C,0.304800*%

G36*
X474263Y226592D02*
X474263Y226592D01*
X474335Y226594D01*
X474384Y226612D01*
X474435Y226620D01*
X474498Y226654D01*
X474566Y226679D01*
X474606Y226711D01*
X474652Y226736D01*
X474702Y226788D01*
X474758Y226832D01*
X474786Y226876D01*
X474822Y226914D01*
X474852Y226979D01*
X474891Y227039D01*
X474903Y227090D01*
X474925Y227137D01*
X474933Y227208D01*
X474951Y227278D01*
X474947Y227330D01*
X474952Y227381D01*
X474937Y227452D01*
X474932Y227523D01*
X474911Y227571D01*
X474900Y227622D01*
X474863Y227683D01*
X474835Y227749D01*
X474791Y227805D01*
X474774Y227833D01*
X474756Y227848D01*
X474731Y227880D01*
X473937Y228674D01*
X473842Y228742D01*
X473748Y228812D01*
X473742Y228814D01*
X473737Y228818D01*
X473626Y228852D01*
X473514Y228888D01*
X473508Y228888D01*
X473502Y228890D01*
X473385Y228887D01*
X473268Y228886D01*
X473261Y228884D01*
X473256Y228884D01*
X473239Y228877D01*
X473107Y228839D01*
X471920Y228347D01*
X468080Y228347D01*
X464532Y229817D01*
X461817Y232532D01*
X460703Y235220D01*
X460665Y235281D01*
X460636Y235347D01*
X460601Y235385D01*
X460574Y235429D01*
X460518Y235475D01*
X460470Y235528D01*
X460424Y235553D01*
X460384Y235586D01*
X460317Y235612D01*
X460254Y235647D01*
X460203Y235656D01*
X460155Y235674D01*
X460083Y235678D01*
X460012Y235690D01*
X459961Y235683D01*
X459909Y235685D01*
X459840Y235665D01*
X459769Y235654D01*
X459723Y235631D01*
X459673Y235616D01*
X459614Y235576D01*
X459550Y235543D01*
X459513Y235506D01*
X459471Y235476D01*
X459428Y235419D01*
X459378Y235367D01*
X459343Y235305D01*
X459324Y235279D01*
X459317Y235256D01*
X459297Y235220D01*
X458183Y232532D01*
X455468Y229817D01*
X451920Y228347D01*
X448080Y228347D01*
X444532Y229817D01*
X441817Y232532D01*
X440347Y236080D01*
X440347Y239920D01*
X441817Y243468D01*
X444532Y246183D01*
X448080Y247653D01*
X451920Y247653D01*
X455468Y246183D01*
X458183Y243468D01*
X459297Y240780D01*
X459335Y240719D01*
X459364Y240653D01*
X459399Y240615D01*
X459426Y240571D01*
X459482Y240525D01*
X459530Y240472D01*
X459576Y240447D01*
X459616Y240414D01*
X459683Y240388D01*
X459746Y240353D01*
X459797Y240344D01*
X459845Y240326D01*
X459917Y240322D01*
X459988Y240310D01*
X460039Y240317D01*
X460091Y240315D01*
X460160Y240335D01*
X460231Y240346D01*
X460277Y240369D01*
X460327Y240384D01*
X460386Y240424D01*
X460450Y240457D01*
X460487Y240494D01*
X460529Y240524D01*
X460572Y240581D01*
X460622Y240633D01*
X460657Y240695D01*
X460676Y240721D01*
X460683Y240744D01*
X460703Y240780D01*
X461817Y243468D01*
X464532Y246183D01*
X468080Y247653D01*
X471920Y247653D01*
X475468Y246183D01*
X478183Y243468D01*
X479324Y240715D01*
X479377Y240629D01*
X479425Y240540D01*
X479441Y240525D01*
X479453Y240506D01*
X479531Y240441D01*
X479605Y240372D01*
X479626Y240363D01*
X479643Y240349D01*
X479737Y240313D01*
X479829Y240271D01*
X479852Y240269D01*
X479872Y240261D01*
X479973Y240256D01*
X480074Y240246D01*
X480096Y240251D01*
X480118Y240250D01*
X480215Y240278D01*
X480314Y240301D01*
X480333Y240313D01*
X480354Y240319D01*
X480437Y240376D01*
X480524Y240429D01*
X480538Y240446D01*
X480556Y240459D01*
X480617Y240540D01*
X480682Y240618D01*
X480693Y240643D01*
X480703Y240656D01*
X480713Y240688D01*
X480751Y240771D01*
X481054Y241705D01*
X481744Y243059D01*
X482637Y244288D01*
X483712Y245363D01*
X484941Y246256D01*
X486295Y246946D01*
X487740Y247415D01*
X488477Y247532D01*
X488477Y238762D01*
X488480Y238742D01*
X488478Y238723D01*
X488500Y238621D01*
X488517Y238519D01*
X488526Y238502D01*
X488530Y238482D01*
X488583Y238393D01*
X488632Y238302D01*
X488646Y238288D01*
X488656Y238271D01*
X488735Y238204D01*
X488810Y238133D01*
X488828Y238124D01*
X488843Y238111D01*
X488939Y238073D01*
X489033Y238029D01*
X489053Y238027D01*
X489071Y238019D01*
X489238Y238001D01*
X490762Y238001D01*
X490782Y238004D01*
X490801Y238002D01*
X490903Y238024D01*
X491005Y238041D01*
X491022Y238050D01*
X491042Y238054D01*
X491131Y238107D01*
X491222Y238156D01*
X491236Y238170D01*
X491253Y238180D01*
X491320Y238259D01*
X491391Y238334D01*
X491400Y238352D01*
X491413Y238367D01*
X491452Y238463D01*
X491495Y238557D01*
X491497Y238577D01*
X491505Y238595D01*
X491523Y238762D01*
X491523Y247532D01*
X492260Y247415D01*
X493705Y246946D01*
X495059Y246256D01*
X496288Y245363D01*
X497363Y244288D01*
X498256Y243059D01*
X498946Y241705D01*
X499249Y240771D01*
X499296Y240681D01*
X499337Y240588D01*
X499352Y240572D01*
X499362Y240552D01*
X499435Y240482D01*
X499503Y240407D01*
X499523Y240397D01*
X499539Y240381D01*
X499630Y240337D01*
X499719Y240289D01*
X499741Y240285D01*
X499761Y240275D01*
X499861Y240263D01*
X499961Y240245D01*
X499983Y240248D01*
X500005Y240245D01*
X500104Y240266D01*
X500204Y240281D01*
X500224Y240291D01*
X500246Y240295D01*
X500333Y240346D01*
X500423Y240392D01*
X500439Y240408D01*
X500458Y240419D01*
X500524Y240495D01*
X500596Y240568D01*
X500609Y240592D01*
X500620Y240604D01*
X500632Y240635D01*
X500676Y240715D01*
X501817Y243468D01*
X504532Y246183D01*
X508080Y247653D01*
X510928Y247653D01*
X510948Y247656D01*
X510967Y247654D01*
X511069Y247676D01*
X511171Y247692D01*
X511188Y247702D01*
X511208Y247706D01*
X511297Y247759D01*
X511388Y247808D01*
X511402Y247822D01*
X511419Y247832D01*
X511486Y247911D01*
X511558Y247986D01*
X511566Y248004D01*
X511579Y248019D01*
X511618Y248115D01*
X511661Y248209D01*
X511663Y248229D01*
X511671Y248247D01*
X511689Y248414D01*
X511689Y258486D01*
X511678Y258557D01*
X511676Y258628D01*
X511658Y258677D01*
X511650Y258729D01*
X511616Y258792D01*
X511591Y258859D01*
X511559Y258900D01*
X511534Y258946D01*
X511482Y258995D01*
X511438Y259051D01*
X511394Y259080D01*
X511356Y259115D01*
X511291Y259146D01*
X511231Y259184D01*
X511180Y259197D01*
X511133Y259219D01*
X511062Y259227D01*
X510992Y259245D01*
X510940Y259240D01*
X510889Y259246D01*
X510818Y259231D01*
X510747Y259225D01*
X510699Y259205D01*
X510648Y259194D01*
X510587Y259157D01*
X510521Y259129D01*
X510465Y259084D01*
X510437Y259068D01*
X510422Y259050D01*
X510390Y259024D01*
X507435Y256069D01*
X497965Y256069D01*
X491269Y262765D01*
X491269Y272235D01*
X497965Y278931D01*
X507435Y278931D01*
X510450Y275916D01*
X510466Y275904D01*
X510478Y275888D01*
X510566Y275832D01*
X510650Y275772D01*
X510669Y275766D01*
X510685Y275755D01*
X510786Y275730D01*
X510885Y275700D01*
X510905Y275700D01*
X510924Y275695D01*
X511027Y275703D01*
X511131Y275706D01*
X511149Y275713D01*
X511169Y275714D01*
X511264Y275755D01*
X511362Y275791D01*
X511377Y275803D01*
X511395Y275811D01*
X511526Y275916D01*
X513466Y277856D01*
X513519Y277930D01*
X513579Y277999D01*
X513591Y278029D01*
X513610Y278055D01*
X513637Y278142D01*
X513671Y278227D01*
X513675Y278268D01*
X513682Y278290D01*
X513681Y278323D01*
X513689Y278394D01*
X513689Y291831D01*
X513675Y291921D01*
X513667Y292012D01*
X513655Y292042D01*
X513650Y292074D01*
X513607Y292155D01*
X513571Y292239D01*
X513545Y292271D01*
X513534Y292291D01*
X513511Y292314D01*
X513466Y292370D01*
X512786Y293050D01*
X511939Y295094D01*
X511939Y297306D01*
X512786Y299350D01*
X514350Y300914D01*
X516394Y301761D01*
X518606Y301761D01*
X520650Y300914D01*
X522214Y299350D01*
X523061Y297306D01*
X523061Y295094D01*
X522214Y293050D01*
X521534Y292370D01*
X521481Y292296D01*
X521421Y292226D01*
X521409Y292196D01*
X521390Y292170D01*
X521363Y292083D01*
X521329Y291998D01*
X521325Y291957D01*
X521318Y291935D01*
X521319Y291903D01*
X521311Y291831D01*
X521311Y278714D01*
X521322Y278643D01*
X521324Y278572D01*
X521342Y278523D01*
X521350Y278471D01*
X521384Y278408D01*
X521409Y278341D01*
X521441Y278300D01*
X521466Y278254D01*
X521518Y278205D01*
X521562Y278149D01*
X521606Y278120D01*
X521644Y278085D01*
X521709Y278054D01*
X521769Y278016D01*
X521820Y278003D01*
X521867Y277981D01*
X521938Y277973D01*
X522008Y277955D01*
X522060Y277960D01*
X522111Y277954D01*
X522182Y277969D01*
X522253Y277975D01*
X522301Y277995D01*
X522352Y278006D01*
X522413Y278043D01*
X522479Y278071D01*
X522535Y278116D01*
X522563Y278132D01*
X522578Y278150D01*
X522610Y278176D01*
X523365Y278931D01*
X532835Y278931D01*
X539531Y272235D01*
X539531Y262765D01*
X532835Y256069D01*
X523365Y256069D01*
X520610Y258824D01*
X520552Y258866D01*
X520500Y258915D01*
X520453Y258937D01*
X520411Y258968D01*
X520342Y258989D01*
X520277Y259019D01*
X520225Y259025D01*
X520175Y259040D01*
X520104Y259038D01*
X520033Y259046D01*
X519982Y259035D01*
X519930Y259034D01*
X519862Y259009D01*
X519792Y258994D01*
X519747Y258967D01*
X519699Y258949D01*
X519643Y258904D01*
X519581Y258868D01*
X519547Y258828D01*
X519507Y258796D01*
X519468Y258735D01*
X519421Y258681D01*
X519402Y258633D01*
X519374Y258589D01*
X519356Y258519D01*
X519329Y258453D01*
X519321Y258381D01*
X519313Y258350D01*
X519315Y258327D01*
X519311Y258286D01*
X519311Y241916D01*
X519258Y241842D01*
X519188Y241748D01*
X519186Y241742D01*
X519182Y241737D01*
X519148Y241626D01*
X519112Y241514D01*
X519112Y241508D01*
X519110Y241502D01*
X519113Y241385D01*
X519114Y241268D01*
X519116Y241261D01*
X519116Y241256D01*
X519123Y241239D01*
X519161Y241107D01*
X519297Y240780D01*
X519334Y240719D01*
X519364Y240653D01*
X519399Y240615D01*
X519426Y240571D01*
X519482Y240525D01*
X519530Y240472D01*
X519576Y240447D01*
X519616Y240414D01*
X519683Y240388D01*
X519746Y240353D01*
X519797Y240344D01*
X519845Y240325D01*
X519917Y240322D01*
X519988Y240310D01*
X520039Y240317D01*
X520091Y240315D01*
X520160Y240335D01*
X520231Y240346D01*
X520277Y240369D01*
X520327Y240384D01*
X520386Y240425D01*
X520450Y240457D01*
X520487Y240494D01*
X520529Y240524D01*
X520572Y240581D01*
X520622Y240633D01*
X520657Y240696D01*
X520676Y240721D01*
X520683Y240743D01*
X520703Y240780D01*
X521817Y243468D01*
X524532Y246183D01*
X528080Y247653D01*
X531920Y247653D01*
X535468Y246183D01*
X538183Y243468D01*
X539653Y239920D01*
X539653Y236080D01*
X538320Y232863D01*
X538310Y232819D01*
X538291Y232777D01*
X538282Y232700D01*
X538264Y232624D01*
X538268Y232578D01*
X538263Y232533D01*
X538280Y232456D01*
X538287Y232379D01*
X538306Y232337D01*
X538316Y232292D01*
X538356Y232225D01*
X538387Y232154D01*
X538418Y232120D01*
X538442Y232081D01*
X538501Y232030D01*
X538554Y231973D01*
X538594Y231951D01*
X538629Y231921D01*
X538701Y231892D01*
X538769Y231855D01*
X538814Y231846D01*
X538857Y231829D01*
X538993Y231814D01*
X539011Y231811D01*
X539016Y231812D01*
X539024Y231811D01*
X544478Y231811D01*
X544498Y231814D01*
X544517Y231812D01*
X544619Y231834D01*
X544721Y231850D01*
X544738Y231860D01*
X544758Y231864D01*
X544847Y231917D01*
X544938Y231966D01*
X544952Y231980D01*
X544969Y231990D01*
X545036Y232069D01*
X545108Y232144D01*
X545116Y232162D01*
X545129Y232177D01*
X545168Y232273D01*
X545211Y232367D01*
X545213Y232387D01*
X545221Y232405D01*
X545239Y232572D01*
X545239Y232706D01*
X546086Y234750D01*
X547650Y236314D01*
X549694Y237161D01*
X551906Y237161D01*
X553950Y236314D01*
X555514Y234750D01*
X556361Y232706D01*
X556361Y230494D01*
X555654Y228787D01*
X555647Y228759D01*
X555634Y228734D01*
X555619Y228640D01*
X555597Y228547D01*
X555600Y228519D01*
X555596Y228491D01*
X555612Y228397D01*
X555621Y228302D01*
X555632Y228276D01*
X555637Y228248D01*
X555682Y228165D01*
X555721Y228078D01*
X555740Y228057D01*
X555753Y228032D01*
X555823Y227967D01*
X555887Y227897D01*
X555912Y227883D01*
X555933Y227863D01*
X556019Y227824D01*
X556102Y227778D01*
X556130Y227773D01*
X556156Y227761D01*
X556251Y227751D01*
X556344Y227734D01*
X556373Y227738D01*
X556401Y227735D01*
X556494Y227756D01*
X556588Y227770D01*
X556613Y227783D01*
X556641Y227789D01*
X556789Y227869D01*
X598062Y256301D01*
X598126Y256363D01*
X598195Y256418D01*
X598214Y256447D01*
X598239Y256472D01*
X598280Y256550D01*
X598328Y256625D01*
X598337Y256659D01*
X598353Y256690D01*
X598367Y256778D01*
X598388Y256864D01*
X598386Y256898D01*
X598391Y256933D01*
X598376Y257020D01*
X598369Y257109D01*
X598356Y257141D01*
X598350Y257175D01*
X598308Y257254D01*
X598273Y257335D01*
X598245Y257370D01*
X598234Y257392D01*
X598211Y257413D01*
X598168Y257466D01*
X592869Y262765D01*
X592869Y272235D01*
X594708Y274074D01*
X594750Y274132D01*
X594799Y274184D01*
X594821Y274231D01*
X594852Y274273D01*
X594873Y274342D01*
X594903Y274407D01*
X594909Y274459D01*
X594924Y274509D01*
X594922Y274580D01*
X594930Y274651D01*
X594919Y274702D01*
X594918Y274754D01*
X594893Y274822D01*
X594878Y274892D01*
X594851Y274937D01*
X594833Y274985D01*
X594788Y275041D01*
X594752Y275103D01*
X594712Y275137D01*
X594680Y275177D01*
X594619Y275216D01*
X594565Y275263D01*
X594517Y275282D01*
X594473Y275310D01*
X594403Y275328D01*
X594337Y275355D01*
X594265Y275363D01*
X594234Y275371D01*
X594211Y275369D01*
X594170Y275373D01*
X589030Y275373D01*
X588959Y275362D01*
X588888Y275360D01*
X588839Y275342D01*
X588787Y275334D01*
X588724Y275300D01*
X588657Y275275D01*
X588616Y275243D01*
X588570Y275218D01*
X588521Y275166D01*
X588465Y275122D01*
X588436Y275078D01*
X588401Y275040D01*
X588370Y274975D01*
X588332Y274915D01*
X588319Y274864D01*
X588297Y274817D01*
X588289Y274746D01*
X588271Y274676D01*
X588276Y274624D01*
X588270Y274573D01*
X588285Y274502D01*
X588291Y274431D01*
X588311Y274383D01*
X588322Y274332D01*
X588359Y274271D01*
X588387Y274205D01*
X588432Y274149D01*
X588448Y274121D01*
X588466Y274106D01*
X588492Y274074D01*
X590331Y272235D01*
X590331Y262765D01*
X583635Y256069D01*
X574165Y256069D01*
X571321Y258913D01*
X571263Y258955D01*
X571211Y259004D01*
X571164Y259026D01*
X571122Y259057D01*
X571053Y259078D01*
X570988Y259108D01*
X570936Y259114D01*
X570887Y259129D01*
X570815Y259127D01*
X570744Y259135D01*
X570693Y259124D01*
X570641Y259123D01*
X570573Y259098D01*
X570503Y259083D01*
X570459Y259056D01*
X570410Y259038D01*
X570354Y258993D01*
X570292Y258957D01*
X570258Y258917D01*
X570218Y258885D01*
X570179Y258824D01*
X570132Y258770D01*
X570113Y258721D01*
X570085Y258678D01*
X570067Y258608D01*
X570040Y258542D01*
X570032Y258470D01*
X570025Y258439D01*
X570026Y258416D01*
X570022Y258375D01*
X570022Y250958D01*
X570037Y250867D01*
X570044Y250777D01*
X570056Y250747D01*
X570062Y250715D01*
X570104Y250634D01*
X570140Y250550D01*
X570166Y250518D01*
X570177Y250497D01*
X570200Y250475D01*
X570211Y250461D01*
X570218Y250450D01*
X570225Y250444D01*
X570245Y250419D01*
X570925Y249739D01*
X571772Y247695D01*
X571772Y245483D01*
X570925Y243439D01*
X569361Y241875D01*
X567317Y241028D01*
X565105Y241028D01*
X563061Y241875D01*
X561497Y243439D01*
X560650Y245483D01*
X560650Y247695D01*
X561497Y249739D01*
X562177Y250419D01*
X562222Y250481D01*
X562252Y250513D01*
X562257Y250524D01*
X562290Y250563D01*
X562302Y250593D01*
X562321Y250619D01*
X562348Y250706D01*
X562382Y250791D01*
X562386Y250832D01*
X562393Y250854D01*
X562392Y250886D01*
X562400Y250958D01*
X562400Y258397D01*
X562389Y258468D01*
X562387Y258540D01*
X562369Y258589D01*
X562361Y258640D01*
X562327Y258703D01*
X562302Y258771D01*
X562270Y258811D01*
X562246Y258857D01*
X562194Y258907D01*
X562149Y258963D01*
X562105Y258991D01*
X562067Y259027D01*
X562002Y259057D01*
X561942Y259096D01*
X561891Y259108D01*
X561844Y259130D01*
X561773Y259138D01*
X561703Y259156D01*
X561651Y259152D01*
X561600Y259157D01*
X561530Y259142D01*
X561458Y259137D01*
X561410Y259116D01*
X561359Y259105D01*
X561298Y259068D01*
X561232Y259040D01*
X561176Y258995D01*
X561148Y258979D01*
X561133Y258961D01*
X561101Y258935D01*
X558235Y256069D01*
X548765Y256069D01*
X542069Y262765D01*
X542069Y272235D01*
X548765Y278931D01*
X558235Y278931D01*
X561101Y276065D01*
X561159Y276023D01*
X561211Y275973D01*
X561258Y275951D01*
X561301Y275921D01*
X561369Y275900D01*
X561434Y275870D01*
X561486Y275864D01*
X561536Y275849D01*
X561607Y275851D01*
X561679Y275843D01*
X561729Y275854D01*
X561782Y275855D01*
X561849Y275880D01*
X561919Y275895D01*
X561964Y275922D01*
X562013Y275940D01*
X562069Y275984D01*
X562130Y276021D01*
X562164Y276061D01*
X562205Y276093D01*
X562243Y276154D01*
X562290Y276208D01*
X562309Y276256D01*
X562338Y276300D01*
X562355Y276370D01*
X562382Y276436D01*
X562390Y276508D01*
X562398Y276539D01*
X562396Y276562D01*
X562400Y276603D01*
X562400Y313135D01*
X562382Y313250D01*
X562365Y313366D01*
X562362Y313372D01*
X562361Y313378D01*
X562306Y313480D01*
X562253Y313585D01*
X562248Y313590D01*
X562246Y313595D01*
X562161Y313675D01*
X562077Y313757D01*
X562071Y313761D01*
X562067Y313765D01*
X562050Y313772D01*
X561930Y313838D01*
X560850Y314286D01*
X559610Y315526D01*
X559552Y315568D01*
X559500Y315617D01*
X559453Y315639D01*
X559411Y315669D01*
X559342Y315690D01*
X559277Y315721D01*
X559225Y315726D01*
X559175Y315742D01*
X559104Y315740D01*
X559033Y315748D01*
X558982Y315737D01*
X558930Y315735D01*
X558862Y315711D01*
X558792Y315695D01*
X558747Y315669D01*
X558699Y315651D01*
X558643Y315606D01*
X558581Y315569D01*
X558547Y315530D01*
X558507Y315497D01*
X558468Y315437D01*
X558421Y315382D01*
X558402Y315334D01*
X558374Y315290D01*
X558356Y315221D01*
X558329Y315154D01*
X558321Y315083D01*
X558313Y315052D01*
X558315Y315028D01*
X558311Y314987D01*
X558311Y309422D01*
X538784Y289894D01*
X538731Y289821D01*
X538671Y289751D01*
X538659Y289721D01*
X538640Y289695D01*
X538613Y289608D01*
X538579Y289523D01*
X538575Y289482D01*
X538568Y289460D01*
X538569Y289427D01*
X538561Y289356D01*
X538561Y288394D01*
X537714Y286350D01*
X536150Y284786D01*
X534106Y283939D01*
X531894Y283939D01*
X529850Y284786D01*
X528286Y286350D01*
X527439Y288394D01*
X527439Y290606D01*
X528286Y292650D01*
X529850Y294214D01*
X531894Y295061D01*
X532856Y295061D01*
X532946Y295075D01*
X533037Y295083D01*
X533067Y295095D01*
X533099Y295100D01*
X533180Y295143D01*
X533264Y295179D01*
X533296Y295205D01*
X533316Y295216D01*
X533339Y295239D01*
X533394Y295284D01*
X550466Y312356D01*
X550519Y312429D01*
X550579Y312499D01*
X550591Y312529D01*
X550610Y312555D01*
X550637Y312642D01*
X550671Y312727D01*
X550675Y312768D01*
X550682Y312790D01*
X550681Y312823D01*
X550689Y312894D01*
X550689Y320878D01*
X559822Y330011D01*
X565831Y330011D01*
X565921Y330025D01*
X566012Y330033D01*
X566042Y330045D01*
X566074Y330050D01*
X566155Y330093D01*
X566239Y330129D01*
X566271Y330155D01*
X566291Y330166D01*
X566314Y330189D01*
X566370Y330234D01*
X567050Y330914D01*
X569094Y331761D01*
X571306Y331761D01*
X573350Y330914D01*
X574914Y329350D01*
X575761Y327306D01*
X575761Y325094D01*
X574914Y323050D01*
X573350Y321486D01*
X571306Y320639D01*
X570322Y320639D01*
X570302Y320636D01*
X570283Y320638D01*
X570181Y320616D01*
X570079Y320600D01*
X570062Y320590D01*
X570042Y320586D01*
X569953Y320533D01*
X569862Y320484D01*
X569848Y320470D01*
X569831Y320460D01*
X569764Y320381D01*
X569692Y320306D01*
X569684Y320288D01*
X569671Y320273D01*
X569632Y320177D01*
X569589Y320083D01*
X569587Y320063D01*
X569579Y320045D01*
X569561Y319878D01*
X569561Y319144D01*
X569575Y319054D01*
X569583Y318963D01*
X569595Y318933D01*
X569600Y318901D01*
X569643Y318820D01*
X569679Y318736D01*
X569705Y318704D01*
X569716Y318684D01*
X569739Y318661D01*
X569784Y318606D01*
X570022Y318367D01*
X570022Y304961D01*
X570023Y304953D01*
X570023Y304950D01*
X570026Y304934D01*
X570038Y304865D01*
X570047Y304768D01*
X570057Y304744D01*
X570062Y304719D01*
X570107Y304633D01*
X570147Y304544D01*
X570164Y304524D01*
X570177Y304501D01*
X570247Y304434D01*
X570313Y304363D01*
X570336Y304350D01*
X570355Y304332D01*
X570443Y304291D01*
X570529Y304244D01*
X570554Y304239D01*
X570578Y304228D01*
X570675Y304218D01*
X570771Y304200D01*
X570797Y304204D01*
X570823Y304201D01*
X570918Y304222D01*
X571014Y304236D01*
X571037Y304248D01*
X571063Y304253D01*
X571146Y304303D01*
X571233Y304348D01*
X571252Y304366D01*
X571274Y304380D01*
X571337Y304454D01*
X571406Y304523D01*
X571421Y304552D01*
X571434Y304567D01*
X571446Y304597D01*
X571486Y304670D01*
X571817Y305468D01*
X574532Y308183D01*
X578080Y309653D01*
X581920Y309653D01*
X585468Y308183D01*
X588183Y305468D01*
X589653Y301920D01*
X589653Y298080D01*
X588183Y294532D01*
X585468Y291817D01*
X585180Y291698D01*
X585141Y291673D01*
X585098Y291658D01*
X585037Y291609D01*
X584971Y291568D01*
X584942Y291533D01*
X584906Y291504D01*
X584864Y291439D01*
X584814Y291379D01*
X584798Y291336D01*
X584773Y291297D01*
X584754Y291222D01*
X584726Y291149D01*
X584724Y291103D01*
X584713Y291059D01*
X584719Y290981D01*
X584716Y290903D01*
X584728Y290859D01*
X584732Y290813D01*
X584762Y290742D01*
X584784Y290667D01*
X584810Y290629D01*
X584828Y290587D01*
X584914Y290480D01*
X584924Y290465D01*
X584928Y290462D01*
X584933Y290456D01*
X587356Y288034D01*
X587430Y287981D01*
X587499Y287921D01*
X587529Y287909D01*
X587555Y287890D01*
X587642Y287863D01*
X587727Y287829D01*
X587768Y287825D01*
X587790Y287818D01*
X587823Y287819D01*
X587894Y287811D01*
X613078Y287811D01*
X625311Y275578D01*
X625311Y272916D01*
X625322Y272849D01*
X625323Y272782D01*
X625341Y272729D01*
X625350Y272674D01*
X625382Y272614D01*
X625405Y272550D01*
X625439Y272506D01*
X625466Y272456D01*
X625515Y272410D01*
X625557Y272356D01*
X625603Y272325D01*
X625644Y272287D01*
X625706Y272258D01*
X625762Y272221D01*
X625816Y272207D01*
X625867Y272183D01*
X625935Y272176D01*
X626000Y272159D01*
X626056Y272162D01*
X626111Y272156D01*
X626178Y272171D01*
X626246Y272175D01*
X626297Y272197D01*
X626352Y272209D01*
X626410Y272243D01*
X626473Y272269D01*
X626515Y272306D01*
X626563Y272335D01*
X626607Y272386D01*
X626658Y272431D01*
X626701Y272497D01*
X626723Y272522D01*
X626730Y272540D01*
X627637Y273788D01*
X628712Y274863D01*
X629941Y275756D01*
X631295Y276446D01*
X632740Y276915D01*
X633477Y277032D01*
X633477Y268262D01*
X633480Y268242D01*
X633478Y268223D01*
X633500Y268121D01*
X633517Y268019D01*
X633526Y268002D01*
X633530Y267982D01*
X633583Y267893D01*
X633632Y267802D01*
X633646Y267788D01*
X633656Y267771D01*
X633735Y267704D01*
X633810Y267633D01*
X633828Y267624D01*
X633843Y267611D01*
X633939Y267573D01*
X634033Y267529D01*
X634053Y267527D01*
X634071Y267519D01*
X634238Y267501D01*
X635762Y267501D01*
X635782Y267504D01*
X635801Y267502D01*
X635903Y267524D01*
X636005Y267541D01*
X636022Y267550D01*
X636042Y267554D01*
X636131Y267607D01*
X636222Y267656D01*
X636236Y267670D01*
X636253Y267680D01*
X636320Y267759D01*
X636391Y267834D01*
X636400Y267852D01*
X636413Y267867D01*
X636452Y267963D01*
X636495Y268057D01*
X636497Y268077D01*
X636505Y268095D01*
X636523Y268262D01*
X636523Y277032D01*
X637260Y276915D01*
X638705Y276446D01*
X640059Y275756D01*
X641288Y274863D01*
X642363Y273788D01*
X643256Y272559D01*
X643946Y271205D01*
X644249Y270271D01*
X644296Y270181D01*
X644337Y270088D01*
X644352Y270072D01*
X644362Y270052D01*
X644435Y269982D01*
X644503Y269907D01*
X644523Y269897D01*
X644539Y269881D01*
X644630Y269837D01*
X644719Y269789D01*
X644741Y269785D01*
X644761Y269775D01*
X644861Y269763D01*
X644961Y269745D01*
X644983Y269748D01*
X645005Y269746D01*
X645104Y269766D01*
X645204Y269781D01*
X645224Y269791D01*
X645246Y269795D01*
X645333Y269846D01*
X645423Y269892D01*
X645439Y269908D01*
X645458Y269919D01*
X645525Y269996D01*
X645596Y270068D01*
X645609Y270092D01*
X645620Y270105D01*
X645632Y270135D01*
X645676Y270215D01*
X646817Y272968D01*
X649532Y275683D01*
X653080Y277153D01*
X656920Y277153D01*
X660468Y275683D01*
X663183Y272968D01*
X664297Y270280D01*
X664335Y270219D01*
X664364Y270153D01*
X664399Y270115D01*
X664426Y270071D01*
X664482Y270025D01*
X664530Y269972D01*
X664576Y269947D01*
X664616Y269914D01*
X664683Y269888D01*
X664746Y269853D01*
X664797Y269844D01*
X664845Y269826D01*
X664917Y269822D01*
X664988Y269810D01*
X665039Y269817D01*
X665091Y269815D01*
X665160Y269835D01*
X665231Y269846D01*
X665277Y269869D01*
X665327Y269884D01*
X665386Y269924D01*
X665450Y269957D01*
X665487Y269994D01*
X665529Y270024D01*
X665572Y270081D01*
X665622Y270133D01*
X665657Y270195D01*
X665676Y270221D01*
X665683Y270244D01*
X665703Y270280D01*
X666817Y272968D01*
X669532Y275683D01*
X673080Y277153D01*
X676920Y277153D01*
X680468Y275683D01*
X683183Y272968D01*
X683675Y271781D01*
X683736Y271681D01*
X683796Y271581D01*
X683801Y271577D01*
X683805Y271572D01*
X683894Y271497D01*
X683983Y271421D01*
X683989Y271419D01*
X683994Y271415D01*
X684102Y271373D01*
X684212Y271329D01*
X684219Y271328D01*
X684224Y271327D01*
X684242Y271326D01*
X684378Y271311D01*
X685906Y271311D01*
X685996Y271325D01*
X686087Y271333D01*
X686117Y271345D01*
X686149Y271350D01*
X686230Y271393D01*
X686314Y271429D01*
X686346Y271455D01*
X686366Y271466D01*
X686389Y271489D01*
X686444Y271534D01*
X710966Y296056D01*
X711019Y296129D01*
X711079Y296199D01*
X711091Y296229D01*
X711110Y296255D01*
X711137Y296342D01*
X711171Y296427D01*
X711175Y296468D01*
X711182Y296490D01*
X711181Y296523D01*
X711189Y296594D01*
X711189Y314028D01*
X721766Y324606D01*
X721819Y324679D01*
X721879Y324749D01*
X721891Y324779D01*
X721910Y324805D01*
X721937Y324892D01*
X721971Y324977D01*
X721975Y325018D01*
X721982Y325040D01*
X721981Y325073D01*
X721989Y325144D01*
X721989Y326106D01*
X722836Y328150D01*
X724400Y329714D01*
X726444Y330561D01*
X728656Y330561D01*
X730700Y329714D01*
X732264Y328150D01*
X733111Y326106D01*
X733111Y323894D01*
X732264Y321850D01*
X730700Y320286D01*
X728656Y319439D01*
X727694Y319439D01*
X727604Y319425D01*
X727513Y319417D01*
X727483Y319405D01*
X727451Y319400D01*
X727370Y319357D01*
X727286Y319321D01*
X727254Y319295D01*
X727234Y319284D01*
X727211Y319261D01*
X727156Y319216D01*
X723185Y315246D01*
X723128Y315167D01*
X723066Y315092D01*
X723057Y315067D01*
X723042Y315046D01*
X723013Y314953D01*
X722978Y314862D01*
X722977Y314836D01*
X722969Y314811D01*
X722972Y314714D01*
X722968Y314617D01*
X722975Y314591D01*
X722976Y314565D01*
X723009Y314474D01*
X723036Y314380D01*
X723051Y314359D01*
X723060Y314334D01*
X723121Y314258D01*
X723176Y314178D01*
X723197Y314163D01*
X723214Y314142D01*
X723296Y314089D01*
X723374Y314031D01*
X723399Y314023D01*
X723421Y314009D01*
X723515Y313985D01*
X723608Y313955D01*
X723634Y313956D01*
X723659Y313949D01*
X723756Y313957D01*
X723854Y313958D01*
X723885Y313967D01*
X723904Y313968D01*
X723935Y313981D01*
X724015Y314004D01*
X725580Y314653D01*
X729420Y314653D01*
X732968Y313183D01*
X735683Y310468D01*
X737153Y306920D01*
X737153Y303080D01*
X735683Y299532D01*
X732968Y296817D01*
X730280Y295703D01*
X730219Y295665D01*
X730153Y295636D01*
X730115Y295601D01*
X730071Y295574D01*
X730025Y295518D01*
X729972Y295470D01*
X729947Y295424D01*
X729914Y295384D01*
X729888Y295317D01*
X729853Y295254D01*
X729844Y295203D01*
X729826Y295155D01*
X729822Y295083D01*
X729810Y295012D01*
X729817Y294961D01*
X729815Y294909D01*
X729835Y294840D01*
X729846Y294769D01*
X729869Y294723D01*
X729884Y294673D01*
X729924Y294614D01*
X729957Y294550D01*
X729994Y294513D01*
X730024Y294471D01*
X730081Y294428D01*
X730133Y294378D01*
X730195Y294343D01*
X730221Y294324D01*
X730244Y294317D01*
X730280Y294297D01*
X732968Y293183D01*
X735683Y290468D01*
X736009Y289682D01*
X736033Y289643D01*
X736049Y289600D01*
X736097Y289539D01*
X736138Y289473D01*
X736174Y289444D01*
X736202Y289408D01*
X736268Y289366D01*
X736328Y289316D01*
X736370Y289300D01*
X736409Y289275D01*
X736485Y289256D01*
X736557Y289228D01*
X736603Y289226D01*
X736648Y289215D01*
X736725Y289221D01*
X736803Y289218D01*
X736847Y289231D01*
X736893Y289234D01*
X736964Y289265D01*
X737039Y289286D01*
X737077Y289313D01*
X737119Y289331D01*
X737226Y289416D01*
X737241Y289427D01*
X737244Y289431D01*
X737250Y289435D01*
X744696Y296882D01*
X744749Y296955D01*
X744809Y297025D01*
X744821Y297055D01*
X744840Y297081D01*
X744867Y297168D01*
X744901Y297253D01*
X744905Y297294D01*
X744912Y297316D01*
X744911Y297349D01*
X744919Y297420D01*
X744919Y392580D01*
X744905Y392670D01*
X744897Y392761D01*
X744885Y392791D01*
X744880Y392823D01*
X744837Y392904D01*
X744801Y392987D01*
X744775Y393020D01*
X744764Y393040D01*
X744741Y393062D01*
X744696Y393118D01*
X738118Y399696D01*
X738045Y399749D01*
X737975Y399809D01*
X737945Y399821D01*
X737919Y399840D01*
X737832Y399867D01*
X737747Y399901D01*
X737706Y399905D01*
X737684Y399912D01*
X737651Y399911D01*
X737580Y399919D01*
X617161Y399919D01*
X617100Y399909D01*
X617037Y399909D01*
X616979Y399889D01*
X616918Y399880D01*
X616863Y399850D01*
X616804Y399830D01*
X616730Y399780D01*
X616716Y399772D01*
X614834Y399917D01*
X614813Y399915D01*
X614776Y399919D01*
X612881Y399919D01*
X612841Y399960D01*
X612786Y399987D01*
X612736Y400023D01*
X612676Y400041D01*
X612620Y400069D01*
X612532Y400085D01*
X612517Y400090D01*
X611289Y401523D01*
X611272Y401537D01*
X611249Y401566D01*
X609909Y402906D01*
X609909Y402963D01*
X609889Y403021D01*
X609880Y403082D01*
X609850Y403137D01*
X609830Y403196D01*
X609780Y403270D01*
X609764Y403299D01*
X609752Y403311D01*
X609736Y403334D01*
X600950Y413585D01*
X600873Y413650D01*
X600800Y413719D01*
X600780Y413728D01*
X600769Y413738D01*
X600768Y413738D01*
X600762Y413743D01*
X600668Y413780D01*
X600577Y413822D01*
X600554Y413825D01*
X600533Y413833D01*
X600487Y413836D01*
X600374Y413848D01*
X600372Y413848D01*
X600361Y413846D01*
X600333Y413850D01*
X600310Y413845D01*
X600287Y413846D01*
X600190Y413819D01*
X600187Y413818D01*
X600129Y413808D01*
X600119Y413803D01*
X600092Y413797D01*
X600073Y413786D01*
X600051Y413779D01*
X599968Y413723D01*
X599912Y413693D01*
X599903Y413684D01*
X599881Y413671D01*
X599866Y413654D01*
X599847Y413641D01*
X599789Y413564D01*
X599742Y413515D01*
X599737Y413502D01*
X599721Y413484D01*
X599713Y413463D01*
X599699Y413445D01*
X599670Y413359D01*
X599639Y413292D01*
X599637Y413275D01*
X599629Y413256D01*
X599626Y413228D01*
X599621Y413212D01*
X599621Y413179D01*
X599611Y413089D01*
X599611Y394822D01*
X597156Y392366D01*
X588291Y383502D01*
X588264Y383465D01*
X588231Y383434D01*
X588193Y383365D01*
X588148Y383302D01*
X588134Y383258D01*
X588112Y383218D01*
X588098Y383142D01*
X588075Y383067D01*
X588076Y383021D01*
X588068Y382976D01*
X588080Y382899D01*
X588082Y382821D01*
X588097Y382778D01*
X588104Y382733D01*
X588139Y382663D01*
X588166Y382590D01*
X588195Y382554D01*
X588216Y382514D01*
X588271Y382459D01*
X588320Y382398D01*
X588359Y382373D01*
X588391Y382341D01*
X588511Y382275D01*
X588527Y382265D01*
X588532Y382264D01*
X588538Y382260D01*
X588650Y382214D01*
X590214Y380650D01*
X591061Y378606D01*
X591061Y378003D01*
X591075Y377913D01*
X591083Y377822D01*
X591095Y377792D01*
X591100Y377760D01*
X591143Y377680D01*
X591179Y377596D01*
X591205Y377564D01*
X591216Y377543D01*
X591239Y377521D01*
X591284Y377465D01*
X616261Y352488D01*
X616335Y352435D01*
X616404Y352375D01*
X616434Y352363D01*
X616460Y352344D01*
X616547Y352317D01*
X616632Y352283D01*
X616673Y352279D01*
X616696Y352272D01*
X616728Y352273D01*
X616799Y352265D01*
X680384Y352265D01*
X696465Y336184D01*
X696539Y336131D01*
X696608Y336071D01*
X696638Y336059D01*
X696664Y336040D01*
X696751Y336013D01*
X696836Y335979D01*
X696877Y335975D01*
X696900Y335968D01*
X696932Y335969D01*
X697003Y335961D01*
X697606Y335961D01*
X699650Y335114D01*
X701214Y333550D01*
X702061Y331506D01*
X702061Y329294D01*
X701214Y327250D01*
X699650Y325686D01*
X697606Y324839D01*
X695394Y324839D01*
X693350Y325686D01*
X691786Y327250D01*
X690939Y329294D01*
X690939Y329897D01*
X690925Y329987D01*
X690917Y330078D01*
X690905Y330108D01*
X690900Y330140D01*
X690857Y330220D01*
X690821Y330304D01*
X690795Y330336D01*
X690784Y330357D01*
X690761Y330379D01*
X690716Y330435D01*
X677239Y343912D01*
X677165Y343965D01*
X677096Y344025D01*
X677066Y344037D01*
X677040Y344056D01*
X676953Y344083D01*
X676868Y344117D01*
X676827Y344121D01*
X676804Y344128D01*
X676772Y344127D01*
X676701Y344135D01*
X613116Y344135D01*
X585535Y371716D01*
X585461Y371769D01*
X585392Y371829D01*
X585362Y371841D01*
X585336Y371860D01*
X585249Y371887D01*
X585164Y371921D01*
X585123Y371925D01*
X585100Y371932D01*
X585068Y371931D01*
X584997Y371939D01*
X584394Y371939D01*
X582350Y372786D01*
X580786Y374350D01*
X580740Y374462D01*
X580715Y374501D01*
X580700Y374544D01*
X580651Y374605D01*
X580610Y374671D01*
X580575Y374700D01*
X580546Y374736D01*
X580480Y374778D01*
X580420Y374828D01*
X580378Y374844D01*
X580339Y374869D01*
X580264Y374888D01*
X580191Y374916D01*
X580145Y374918D01*
X580100Y374929D01*
X580023Y374923D01*
X579945Y374926D01*
X579901Y374913D01*
X579855Y374910D01*
X579784Y374879D01*
X579709Y374858D01*
X579671Y374832D01*
X579629Y374814D01*
X579522Y374728D01*
X579507Y374718D01*
X579504Y374713D01*
X579498Y374709D01*
X571478Y366689D01*
X561894Y366689D01*
X561804Y366675D01*
X561713Y366667D01*
X561683Y366655D01*
X561651Y366650D01*
X561570Y366607D01*
X561486Y366571D01*
X561454Y366545D01*
X561434Y366534D01*
X561411Y366511D01*
X561356Y366466D01*
X537784Y342894D01*
X537731Y342821D01*
X537671Y342751D01*
X537659Y342721D01*
X537640Y342695D01*
X537613Y342608D01*
X537579Y342523D01*
X537575Y342482D01*
X537568Y342460D01*
X537569Y342427D01*
X537561Y342356D01*
X537561Y341394D01*
X536714Y339350D01*
X535150Y337786D01*
X533106Y336939D01*
X530894Y336939D01*
X528850Y337786D01*
X527286Y339350D01*
X527197Y339564D01*
X527146Y339647D01*
X527100Y339733D01*
X527081Y339751D01*
X527068Y339773D01*
X526993Y339835D01*
X526922Y339902D01*
X526898Y339913D01*
X526878Y339930D01*
X526787Y339965D01*
X526699Y340006D01*
X526673Y340009D01*
X526649Y340018D01*
X526551Y340022D01*
X526454Y340033D01*
X526429Y340028D01*
X526403Y340029D01*
X526309Y340002D01*
X526214Y339981D01*
X526192Y339967D01*
X526167Y339960D01*
X526086Y339905D01*
X526003Y339855D01*
X525986Y339835D01*
X525964Y339820D01*
X525906Y339742D01*
X525843Y339668D01*
X525833Y339643D01*
X525818Y339623D01*
X525788Y339530D01*
X525751Y339440D01*
X525748Y339407D01*
X525741Y339389D01*
X525742Y339356D01*
X525733Y339273D01*
X525733Y335849D01*
X524244Y334360D01*
X522867Y334360D01*
X522796Y334349D01*
X522724Y334347D01*
X522675Y334329D01*
X522624Y334321D01*
X522561Y334287D01*
X522493Y334262D01*
X522453Y334230D01*
X522407Y334205D01*
X522357Y334153D01*
X522301Y334109D01*
X522273Y334065D01*
X522237Y334027D01*
X522207Y333962D01*
X522168Y333902D01*
X522156Y333851D01*
X522134Y333804D01*
X522126Y333733D01*
X522108Y333663D01*
X522112Y333611D01*
X522107Y333560D01*
X522122Y333489D01*
X522127Y333418D01*
X522148Y333370D01*
X522159Y333319D01*
X522196Y333258D01*
X522224Y333192D01*
X522268Y333136D01*
X522285Y333108D01*
X522303Y333093D01*
X522328Y333061D01*
X524606Y330784D01*
X524680Y330731D01*
X524749Y330671D01*
X524779Y330659D01*
X524805Y330640D01*
X524892Y330613D01*
X524977Y330579D01*
X525018Y330575D01*
X525040Y330568D01*
X525073Y330569D01*
X525144Y330561D01*
X526106Y330561D01*
X528150Y329714D01*
X529714Y328150D01*
X530561Y326106D01*
X530561Y323894D01*
X529714Y321850D01*
X528150Y320286D01*
X526106Y319439D01*
X523894Y319439D01*
X521850Y320286D01*
X521788Y320348D01*
X521772Y320359D01*
X521760Y320375D01*
X521672Y320431D01*
X521589Y320491D01*
X521570Y320497D01*
X521553Y320508D01*
X521452Y320533D01*
X521353Y320564D01*
X521334Y320563D01*
X521314Y320568D01*
X521211Y320560D01*
X521108Y320557D01*
X521089Y320550D01*
X521069Y320549D01*
X520974Y320508D01*
X520877Y320473D01*
X520861Y320460D01*
X520843Y320452D01*
X520712Y320348D01*
X519650Y319286D01*
X517606Y318439D01*
X515394Y318439D01*
X513350Y319286D01*
X512670Y319966D01*
X512596Y320019D01*
X512526Y320079D01*
X512496Y320091D01*
X512470Y320110D01*
X512383Y320137D01*
X512298Y320171D01*
X512257Y320175D01*
X512235Y320182D01*
X512203Y320181D01*
X512131Y320189D01*
X512111Y320189D01*
X499473Y332828D01*
X499399Y332881D01*
X499329Y332940D01*
X499299Y332952D01*
X499273Y332971D01*
X499186Y332998D01*
X499101Y333032D01*
X499060Y333037D01*
X499038Y333043D01*
X499006Y333043D01*
X498934Y333051D01*
X491046Y333051D01*
X489460Y334636D01*
X489383Y334692D01*
X489310Y334753D01*
X489283Y334763D01*
X489261Y334779D01*
X489170Y334807D01*
X489081Y334842D01*
X489052Y334844D01*
X489025Y334852D01*
X488930Y334849D01*
X488835Y334854D01*
X488808Y334846D01*
X488780Y334845D01*
X488690Y334813D01*
X488598Y334787D01*
X488575Y334771D01*
X488549Y334761D01*
X488474Y334701D01*
X488395Y334647D01*
X488379Y334625D01*
X488357Y334607D01*
X488305Y334527D01*
X488248Y334451D01*
X488235Y334418D01*
X488224Y334400D01*
X488215Y334368D01*
X488187Y334295D01*
X488166Y334216D01*
X487831Y333637D01*
X487358Y333163D01*
X486779Y332829D01*
X486132Y332656D01*
X483321Y332656D01*
X483321Y340434D01*
X483318Y340454D01*
X483320Y340474D01*
X483298Y340575D01*
X483281Y340677D01*
X483272Y340695D01*
X483268Y340714D01*
X483215Y340803D01*
X483166Y340895D01*
X483152Y340908D01*
X483142Y340925D01*
X483063Y340993D01*
X482988Y341064D01*
X482970Y341072D01*
X482955Y341085D01*
X482859Y341124D01*
X482765Y341168D01*
X482745Y341170D01*
X482727Y341177D01*
X482560Y341196D01*
X481797Y341196D01*
X481797Y341197D01*
X482560Y341197D01*
X482580Y341201D01*
X482599Y341198D01*
X482701Y341220D01*
X482803Y341237D01*
X482820Y341246D01*
X482840Y341251D01*
X482929Y341304D01*
X483020Y341352D01*
X483034Y341367D01*
X483051Y341377D01*
X483118Y341456D01*
X483189Y341531D01*
X483198Y341549D01*
X483211Y341564D01*
X483250Y341660D01*
X483293Y341754D01*
X483295Y341773D01*
X483303Y341792D01*
X483321Y341959D01*
X483321Y350312D01*
X483318Y350332D01*
X483320Y350353D01*
X483298Y350454D01*
X483281Y350555D01*
X483272Y350573D01*
X483267Y350593D01*
X483228Y350659D01*
X483214Y358853D01*
X483210Y358873D01*
X483212Y358892D01*
X483190Y358993D01*
X483173Y359096D01*
X483164Y359113D01*
X483160Y359133D01*
X483107Y359222D01*
X483058Y359313D01*
X483044Y359327D01*
X483033Y359344D01*
X482954Y359411D01*
X482879Y359482D01*
X482861Y359490D01*
X482846Y359503D01*
X482750Y359542D01*
X482656Y359585D01*
X482636Y359587D01*
X482618Y359595D01*
X482451Y359613D01*
X481688Y359612D01*
X481687Y360374D01*
X481684Y360394D01*
X481686Y360414D01*
X481664Y360515D01*
X481647Y360617D01*
X481637Y360635D01*
X481633Y360654D01*
X481580Y360743D01*
X481531Y360834D01*
X481517Y360848D01*
X481507Y360865D01*
X481428Y360932D01*
X481353Y361003D01*
X481335Y361012D01*
X481319Y361025D01*
X481223Y361063D01*
X481129Y361107D01*
X481110Y361109D01*
X481091Y361116D01*
X480924Y361134D01*
X475146Y361124D01*
X475137Y365936D01*
X475309Y366582D01*
X475643Y367162D01*
X476115Y367636D01*
X476694Y367971D01*
X477340Y368146D01*
X480317Y368151D01*
X480387Y368162D01*
X480458Y368164D01*
X480507Y368182D01*
X480559Y368191D01*
X480622Y368224D01*
X480689Y368249D01*
X480730Y368282D01*
X480777Y368306D01*
X480826Y368358D01*
X480881Y368402D01*
X480909Y368447D01*
X480946Y368485D01*
X480976Y368549D01*
X481014Y368609D01*
X481027Y368660D01*
X481049Y368708D01*
X481057Y368779D01*
X481074Y368848D01*
X481070Y368900D01*
X481076Y368953D01*
X481060Y369022D01*
X481055Y369093D01*
X481034Y369141D01*
X481023Y369193D01*
X480986Y369254D01*
X480959Y369319D01*
X480913Y369376D01*
X480896Y369404D01*
X480879Y369419D01*
X480878Y369420D01*
X480875Y369425D01*
X480871Y369428D01*
X480854Y369450D01*
X480770Y369534D01*
X480556Y369904D01*
X480544Y369920D01*
X480536Y369938D01*
X480466Y370015D01*
X480401Y370095D01*
X480384Y370105D01*
X480370Y370120D01*
X480280Y370171D01*
X480192Y370225D01*
X480173Y370230D01*
X480155Y370240D01*
X480054Y370259D01*
X479953Y370283D01*
X479933Y370281D01*
X479914Y370285D01*
X479811Y370270D01*
X479708Y370261D01*
X479690Y370253D01*
X479670Y370250D01*
X479516Y370183D01*
X479090Y369937D01*
X478444Y369764D01*
X473633Y369764D01*
X473633Y374781D01*
X480650Y374781D01*
X480650Y374332D01*
X480654Y374312D01*
X480651Y374292D01*
X480673Y374191D01*
X480690Y374089D01*
X480699Y374072D01*
X480704Y374052D01*
X480757Y373963D01*
X480805Y373872D01*
X480820Y373858D01*
X480830Y373841D01*
X480909Y373774D01*
X480984Y373702D01*
X481002Y373694D01*
X481017Y373681D01*
X481113Y373642D01*
X481207Y373599D01*
X481226Y373597D01*
X481245Y373589D01*
X481412Y373571D01*
X487280Y373571D01*
X487280Y367926D01*
X487295Y367836D01*
X487302Y367744D01*
X487315Y367715D01*
X487320Y367684D01*
X487363Y367603D01*
X487399Y367518D01*
X487424Y367487D01*
X487435Y367466D01*
X487458Y367444D01*
X487504Y367387D01*
X487709Y367183D01*
X488044Y366604D01*
X488219Y365958D01*
X488224Y362732D01*
X488228Y362709D01*
X488226Y362685D01*
X488248Y362588D01*
X488265Y362489D01*
X488276Y362468D01*
X488281Y362446D01*
X488333Y362360D01*
X488380Y362272D01*
X488397Y362256D01*
X488409Y362236D01*
X488486Y362171D01*
X488559Y362103D01*
X488580Y362093D01*
X488598Y362078D01*
X488691Y362042D01*
X488782Y362000D01*
X488805Y361997D01*
X488827Y361989D01*
X488927Y361984D01*
X489026Y361973D01*
X489049Y361978D01*
X489073Y361977D01*
X489169Y362004D01*
X489267Y362026D01*
X489287Y362038D01*
X489309Y362044D01*
X489392Y362101D01*
X489478Y362152D01*
X489493Y362170D01*
X489512Y362183D01*
X489572Y362263D01*
X489637Y362339D01*
X489646Y362361D01*
X489660Y362380D01*
X489721Y362536D01*
X489731Y362572D01*
X490065Y363151D01*
X490538Y363624D01*
X491117Y363959D01*
X491764Y364132D01*
X496575Y364132D01*
X496575Y358353D01*
X496578Y358334D01*
X496576Y358314D01*
X496598Y358213D01*
X496615Y358111D01*
X496624Y358093D01*
X496628Y358074D01*
X496681Y357985D01*
X496730Y357893D01*
X496744Y357880D01*
X496754Y357862D01*
X496833Y357795D01*
X496908Y357724D01*
X496926Y357716D01*
X496941Y357703D01*
X497037Y357664D01*
X497131Y357620D01*
X497151Y357618D01*
X497169Y357611D01*
X497336Y357592D01*
X498099Y357592D01*
X498099Y357590D01*
X497336Y357590D01*
X497316Y357587D01*
X497297Y357589D01*
X497195Y357567D01*
X497093Y357551D01*
X497076Y357541D01*
X497056Y357537D01*
X496967Y357484D01*
X496876Y357436D01*
X496862Y357421D01*
X496845Y357411D01*
X496778Y357332D01*
X496707Y357257D01*
X496698Y357239D01*
X496685Y357224D01*
X496647Y357128D01*
X496603Y357034D01*
X496601Y357014D01*
X496593Y356996D01*
X496575Y356829D01*
X496575Y351051D01*
X491764Y351051D01*
X491117Y351224D01*
X490538Y351558D01*
X490065Y352031D01*
X489731Y352611D01*
X489630Y352985D01*
X489610Y353029D01*
X489599Y353076D01*
X489560Y353140D01*
X489529Y353209D01*
X489496Y353244D01*
X489471Y353286D01*
X489413Y353334D01*
X489362Y353389D01*
X489319Y353412D01*
X489282Y353443D01*
X489212Y353470D01*
X489146Y353506D01*
X489098Y353515D01*
X489052Y353532D01*
X488977Y353536D01*
X488903Y353549D01*
X488855Y353541D01*
X488807Y353544D01*
X488735Y353523D01*
X488660Y353512D01*
X488617Y353489D01*
X488570Y353476D01*
X488508Y353433D01*
X488442Y353399D01*
X488408Y353364D01*
X488368Y353336D01*
X488323Y353276D01*
X488270Y353222D01*
X488249Y353179D01*
X488220Y353140D01*
X488174Y353022D01*
X488164Y353000D01*
X488163Y352993D01*
X488159Y352983D01*
X488069Y352643D01*
X487735Y352063D01*
X487263Y351589D01*
X486684Y351254D01*
X486323Y351156D01*
X486280Y351137D01*
X486234Y351126D01*
X486169Y351086D01*
X486099Y351055D01*
X486065Y351022D01*
X486024Y350998D01*
X485975Y350939D01*
X485919Y350887D01*
X485897Y350845D01*
X485866Y350809D01*
X485839Y350738D01*
X485802Y350671D01*
X485794Y350624D01*
X485777Y350580D01*
X485773Y350504D01*
X485760Y350428D01*
X485767Y350381D01*
X485765Y350334D01*
X485786Y350261D01*
X485798Y350185D01*
X485820Y350143D01*
X485832Y350098D01*
X485876Y350035D01*
X485911Y349967D01*
X485945Y349934D01*
X485972Y349895D01*
X486033Y349849D01*
X486088Y349796D01*
X486130Y349775D01*
X486168Y349747D01*
X486291Y349699D01*
X486310Y349690D01*
X486316Y349689D01*
X486324Y349686D01*
X486779Y349564D01*
X487358Y349230D01*
X487831Y348757D01*
X488166Y348177D01*
X488339Y347531D01*
X488339Y345263D01*
X488350Y345192D01*
X488352Y345120D01*
X488370Y345071D01*
X488378Y345020D01*
X488412Y344957D01*
X488437Y344889D01*
X488469Y344849D01*
X488494Y344803D01*
X488546Y344753D01*
X488590Y344697D01*
X488634Y344669D01*
X488672Y344633D01*
X488737Y344603D01*
X488797Y344564D01*
X488848Y344552D01*
X488895Y344530D01*
X488966Y344522D01*
X489036Y344504D01*
X489088Y344508D01*
X489139Y344503D01*
X489210Y344518D01*
X489281Y344523D01*
X489329Y344544D01*
X489380Y344555D01*
X489441Y344592D01*
X489507Y344620D01*
X489563Y344665D01*
X489591Y344681D01*
X489606Y344699D01*
X489638Y344725D01*
X491046Y346132D01*
X505151Y346132D01*
X506639Y344644D01*
X506639Y336755D01*
X506654Y336665D01*
X506661Y336574D01*
X506673Y336544D01*
X506679Y336512D01*
X506721Y336432D01*
X506757Y336348D01*
X506783Y336316D01*
X506794Y336295D01*
X506817Y336273D01*
X506862Y336217D01*
X507352Y335727D01*
X507410Y335685D01*
X507462Y335636D01*
X507509Y335614D01*
X507551Y335583D01*
X507620Y335562D01*
X507685Y335532D01*
X507737Y335526D01*
X507786Y335511D01*
X507858Y335513D01*
X507929Y335505D01*
X507980Y335516D01*
X508032Y335517D01*
X508100Y335542D01*
X508170Y335557D01*
X508214Y335584D01*
X508263Y335602D01*
X508319Y335647D01*
X508381Y335683D01*
X508415Y335723D01*
X508455Y335756D01*
X508494Y335816D01*
X508541Y335870D01*
X508560Y335919D01*
X508588Y335962D01*
X508606Y336032D01*
X508633Y336098D01*
X508641Y336170D01*
X508648Y336201D01*
X508647Y336224D01*
X508651Y336265D01*
X508651Y345953D01*
X510139Y347442D01*
X518028Y347442D01*
X518118Y347456D01*
X518209Y347464D01*
X518239Y347476D01*
X518271Y347481D01*
X518351Y347524D01*
X518435Y347560D01*
X518468Y347586D01*
X518488Y347597D01*
X518510Y347620D01*
X518566Y347665D01*
X521962Y351061D01*
X522004Y351119D01*
X522054Y351171D01*
X522076Y351218D01*
X522106Y351260D01*
X522127Y351329D01*
X522157Y351394D01*
X522163Y351446D01*
X522178Y351496D01*
X522176Y351567D01*
X522184Y351638D01*
X522173Y351689D01*
X522172Y351741D01*
X522147Y351809D01*
X522132Y351879D01*
X522105Y351924D01*
X522088Y351972D01*
X522043Y352028D01*
X522006Y352090D01*
X521966Y352124D01*
X521934Y352164D01*
X521874Y352203D01*
X521819Y352250D01*
X521771Y352269D01*
X521727Y352297D01*
X521657Y352315D01*
X521591Y352342D01*
X521520Y352350D01*
X521488Y352358D01*
X521465Y352356D01*
X521424Y352360D01*
X518715Y352360D01*
X518715Y358139D01*
X518712Y358159D01*
X518714Y358178D01*
X518692Y358280D01*
X518675Y358382D01*
X518666Y358399D01*
X518662Y358419D01*
X518609Y358508D01*
X518560Y358599D01*
X518546Y358613D01*
X518536Y358630D01*
X518457Y358697D01*
X518382Y358768D01*
X518364Y358777D01*
X518349Y358790D01*
X518252Y358829D01*
X518159Y358872D01*
X518139Y358874D01*
X518121Y358882D01*
X517954Y358900D01*
X517191Y358900D01*
X517191Y358902D01*
X517954Y358902D01*
X517974Y358905D01*
X517993Y358903D01*
X518095Y358925D01*
X518197Y358942D01*
X518214Y358951D01*
X518234Y358955D01*
X518323Y359008D01*
X518414Y359057D01*
X518428Y359071D01*
X518445Y359081D01*
X518512Y359160D01*
X518583Y359235D01*
X518592Y359253D01*
X518605Y359268D01*
X518643Y359364D01*
X518687Y359458D01*
X518689Y359478D01*
X518697Y359496D01*
X518715Y359663D01*
X518715Y365442D01*
X520676Y365442D01*
X520747Y365453D01*
X520819Y365455D01*
X520868Y365473D01*
X520919Y365481D01*
X520982Y365515D01*
X521050Y365540D01*
X521090Y365572D01*
X521136Y365597D01*
X521186Y365648D01*
X521242Y365693D01*
X521270Y365737D01*
X521306Y365775D01*
X521336Y365840D01*
X521375Y365900D01*
X521387Y365951D01*
X521409Y365998D01*
X521417Y366069D01*
X521435Y366139D01*
X521431Y366191D01*
X521436Y366242D01*
X521421Y366313D01*
X521416Y366384D01*
X521395Y366432D01*
X521384Y366483D01*
X521347Y366544D01*
X521319Y366610D01*
X521275Y366666D01*
X521258Y366694D01*
X521240Y366709D01*
X521215Y366741D01*
X520002Y367954D01*
X520002Y382059D01*
X521037Y383094D01*
X521049Y383111D01*
X521064Y383123D01*
X521120Y383210D01*
X521181Y383294D01*
X521187Y383313D01*
X521197Y383330D01*
X521223Y383430D01*
X521253Y383529D01*
X521253Y383549D01*
X521257Y383569D01*
X521249Y383671D01*
X521247Y383775D01*
X521240Y383794D01*
X521238Y383814D01*
X521198Y383909D01*
X521162Y384006D01*
X521150Y384022D01*
X521142Y384040D01*
X521037Y384171D01*
X520064Y385144D01*
X520064Y392673D01*
X520050Y392763D01*
X520043Y392854D01*
X520030Y392884D01*
X520025Y392916D01*
X519982Y392996D01*
X519946Y393081D01*
X519921Y393113D01*
X519910Y393133D01*
X519886Y393155D01*
X519841Y393211D01*
X516445Y396608D01*
X516387Y396649D01*
X516335Y396699D01*
X516288Y396721D01*
X516246Y396751D01*
X516177Y396772D01*
X516112Y396802D01*
X516060Y396808D01*
X516011Y396823D01*
X515939Y396822D01*
X515868Y396829D01*
X515817Y396818D01*
X515765Y396817D01*
X515697Y396792D01*
X515627Y396777D01*
X515583Y396751D01*
X515534Y396733D01*
X515478Y396688D01*
X515416Y396651D01*
X515382Y396611D01*
X515342Y396579D01*
X515303Y396519D01*
X515256Y396464D01*
X515237Y396416D01*
X515209Y396372D01*
X515191Y396303D01*
X515164Y396236D01*
X515156Y396165D01*
X515149Y396133D01*
X515150Y396110D01*
X515146Y396069D01*
X515146Y393719D01*
X509367Y393719D01*
X509348Y393716D01*
X509328Y393718D01*
X509227Y393696D01*
X509125Y393680D01*
X509107Y393670D01*
X509087Y393666D01*
X508998Y393613D01*
X508907Y393565D01*
X508893Y393550D01*
X508876Y393540D01*
X508809Y393461D01*
X508738Y393386D01*
X508729Y393368D01*
X508716Y393353D01*
X508678Y393257D01*
X508634Y393163D01*
X508632Y393143D01*
X508625Y393125D01*
X508606Y392958D01*
X508606Y392195D01*
X508604Y392195D01*
X508604Y392958D01*
X508601Y392978D01*
X508603Y392998D01*
X508581Y393099D01*
X508565Y393201D01*
X508555Y393218D01*
X508551Y393238D01*
X508498Y393327D01*
X508450Y393418D01*
X508435Y393432D01*
X508425Y393449D01*
X508346Y393516D01*
X508271Y393588D01*
X508253Y393596D01*
X508238Y393609D01*
X508142Y393648D01*
X508048Y393691D01*
X508028Y393693D01*
X508010Y393701D01*
X507843Y393719D01*
X502064Y393719D01*
X502064Y396974D01*
X502061Y396994D01*
X502063Y397013D01*
X502041Y397115D01*
X502025Y397217D01*
X502015Y397234D01*
X502011Y397254D01*
X501958Y397343D01*
X501910Y397434D01*
X501895Y397448D01*
X501885Y397465D01*
X501806Y397532D01*
X501731Y397604D01*
X501713Y397612D01*
X501698Y397625D01*
X501602Y397664D01*
X501508Y397707D01*
X501488Y397709D01*
X501470Y397717D01*
X501303Y397735D01*
X499508Y397735D01*
X499418Y397721D01*
X499327Y397713D01*
X499298Y397701D01*
X499266Y397696D01*
X499185Y397653D01*
X499101Y397617D01*
X499069Y397591D01*
X499048Y397580D01*
X499026Y397557D01*
X498970Y397512D01*
X497567Y396109D01*
X497524Y396049D01*
X497483Y396006D01*
X497476Y395991D01*
X497454Y395966D01*
X497442Y395936D01*
X497423Y395909D01*
X497397Y395823D01*
X497390Y395806D01*
X497379Y395783D01*
X497379Y395778D01*
X497363Y395738D01*
X497358Y395697D01*
X497351Y395674D01*
X497352Y395642D01*
X497344Y395571D01*
X497344Y388041D01*
X495856Y386553D01*
X481751Y386553D01*
X480389Y387915D01*
X480373Y387926D01*
X480361Y387942D01*
X480274Y387998D01*
X480190Y388058D01*
X480171Y388064D01*
X480154Y388075D01*
X480054Y388100D01*
X479955Y388131D01*
X479935Y388130D01*
X479915Y388135D01*
X479812Y388127D01*
X479709Y388124D01*
X479690Y388117D01*
X479670Y388116D01*
X479575Y388075D01*
X479478Y388040D01*
X479462Y388027D01*
X479444Y388019D01*
X479313Y387915D01*
X479162Y387764D01*
X465057Y387764D01*
X463645Y389176D01*
X463629Y389188D01*
X463616Y389203D01*
X463529Y389259D01*
X463445Y389319D01*
X463426Y389325D01*
X463410Y389336D01*
X463309Y389361D01*
X463210Y389392D01*
X463190Y389391D01*
X463171Y389396D01*
X463068Y389388D01*
X462964Y389385D01*
X462946Y389379D01*
X462926Y389377D01*
X462831Y389337D01*
X462733Y389301D01*
X462718Y389289D01*
X462699Y389281D01*
X462569Y389176D01*
X462351Y388958D01*
X448246Y388958D01*
X446758Y390446D01*
X446758Y400551D01*
X448246Y402040D01*
X449568Y402040D01*
X449613Y402047D01*
X449659Y402045D01*
X449734Y402067D01*
X449811Y402079D01*
X449851Y402101D01*
X449895Y402114D01*
X449959Y402158D01*
X450028Y402194D01*
X450060Y402228D01*
X450097Y402254D01*
X450144Y402316D01*
X450198Y402373D01*
X450217Y402415D01*
X450244Y402451D01*
X450268Y402525D01*
X450301Y402596D01*
X450306Y402642D01*
X450320Y402685D01*
X450320Y402763D01*
X450328Y402840D01*
X450319Y402885D01*
X450318Y402931D01*
X450280Y403063D01*
X450276Y403081D01*
X450273Y403085D01*
X450271Y403092D01*
X449939Y403894D01*
X449939Y406106D01*
X450739Y408037D01*
X450749Y408081D01*
X450769Y408123D01*
X450777Y408200D01*
X450795Y408276D01*
X450791Y408322D01*
X450796Y408367D01*
X450779Y408444D01*
X450772Y408521D01*
X450753Y408563D01*
X450744Y408608D01*
X450704Y408675D01*
X450672Y408746D01*
X450641Y408780D01*
X450617Y408819D01*
X450558Y408870D01*
X450506Y408927D01*
X450465Y408949D01*
X450431Y408979D01*
X450358Y409008D01*
X450290Y409045D01*
X450245Y409054D01*
X450202Y409071D01*
X450066Y409086D01*
X450048Y409089D01*
X450043Y409088D01*
X450036Y409089D01*
X396494Y409089D01*
X396404Y409075D01*
X396313Y409067D01*
X396283Y409055D01*
X396251Y409050D01*
X396170Y409007D01*
X396086Y408971D01*
X396054Y408945D01*
X396034Y408934D01*
X396011Y408911D01*
X395955Y408866D01*
X367834Y380744D01*
X367781Y380671D01*
X367721Y380601D01*
X367709Y380571D01*
X367690Y380545D01*
X367663Y380458D01*
X367629Y380373D01*
X367625Y380332D01*
X367618Y380310D01*
X367619Y380277D01*
X367611Y380206D01*
X367611Y354994D01*
X367625Y354904D01*
X367633Y354813D01*
X367645Y354783D01*
X367650Y354751D01*
X367693Y354670D01*
X367729Y354586D01*
X367755Y354554D01*
X367766Y354534D01*
X367789Y354511D01*
X367834Y354456D01*
X382811Y339478D01*
X382811Y330888D01*
X382829Y330773D01*
X382847Y330657D01*
X382849Y330651D01*
X382850Y330645D01*
X382905Y330542D01*
X382958Y330437D01*
X382963Y330433D01*
X382966Y330427D01*
X383050Y330347D01*
X383134Y330265D01*
X383140Y330262D01*
X383144Y330258D01*
X383161Y330250D01*
X383281Y330184D01*
X383450Y330114D01*
X385031Y328533D01*
X385068Y328507D01*
X385099Y328473D01*
X385167Y328435D01*
X385230Y328390D01*
X385274Y328376D01*
X385314Y328354D01*
X385391Y328340D01*
X385465Y328317D01*
X385511Y328319D01*
X385557Y328310D01*
X385634Y328322D01*
X385711Y328324D01*
X385754Y328340D01*
X385800Y328346D01*
X385869Y328382D01*
X385942Y328408D01*
X385978Y328437D01*
X386019Y328458D01*
X386074Y328513D01*
X386134Y328562D01*
X386159Y328601D01*
X386191Y328633D01*
X386257Y328753D01*
X386267Y328769D01*
X386269Y328774D01*
X386272Y328780D01*
X387717Y332268D01*
X390432Y334983D01*
X393980Y336453D01*
X397820Y336453D01*
X401368Y334983D01*
X404083Y332268D01*
X404225Y331926D01*
X404276Y331843D01*
X404322Y331757D01*
X404341Y331739D01*
X404354Y331717D01*
X404429Y331655D01*
X404500Y331588D01*
X404524Y331577D01*
X404544Y331560D01*
X404635Y331525D01*
X404723Y331484D01*
X404749Y331481D01*
X404773Y331472D01*
X404871Y331468D01*
X404967Y331457D01*
X404993Y331463D01*
X405019Y331462D01*
X405113Y331489D01*
X405208Y331509D01*
X405230Y331523D01*
X405255Y331530D01*
X405335Y331586D01*
X405419Y331636D01*
X405436Y331656D01*
X405457Y331670D01*
X405515Y331748D01*
X405579Y331823D01*
X405589Y331847D01*
X405604Y331868D01*
X405634Y331960D01*
X405671Y332051D01*
X405674Y332083D01*
X405680Y332102D01*
X405680Y332135D01*
X405689Y332217D01*
X405689Y374106D01*
X405675Y374196D01*
X405667Y374287D01*
X405655Y374317D01*
X405650Y374349D01*
X405607Y374430D01*
X405571Y374514D01*
X405545Y374546D01*
X405534Y374566D01*
X405511Y374589D01*
X405466Y374644D01*
X394894Y385216D01*
X394821Y385269D01*
X394751Y385329D01*
X394721Y385341D01*
X394695Y385360D01*
X394608Y385387D01*
X394523Y385421D01*
X394482Y385425D01*
X394460Y385432D01*
X394427Y385431D01*
X394356Y385439D01*
X393394Y385439D01*
X391350Y386286D01*
X389786Y387850D01*
X388939Y389894D01*
X388939Y392106D01*
X389786Y394150D01*
X391350Y395714D01*
X393394Y396561D01*
X395606Y396561D01*
X397650Y395714D01*
X399214Y394150D01*
X400061Y392106D01*
X400061Y391144D01*
X400075Y391054D01*
X400083Y390963D01*
X400095Y390933D01*
X400100Y390901D01*
X400143Y390820D01*
X400179Y390736D01*
X400205Y390704D01*
X400216Y390684D01*
X400239Y390661D01*
X400284Y390606D01*
X413311Y377578D01*
X413311Y329509D01*
X413330Y329394D01*
X413347Y329278D01*
X413349Y329272D01*
X413350Y329266D01*
X413405Y329164D01*
X413458Y329059D01*
X413463Y329054D01*
X413466Y329049D01*
X413550Y328969D01*
X413634Y328886D01*
X413640Y328883D01*
X413644Y328879D01*
X413661Y328872D01*
X413781Y328806D01*
X415450Y328114D01*
X417014Y326550D01*
X417861Y324506D01*
X417861Y322294D01*
X417014Y320250D01*
X415450Y318686D01*
X413406Y317839D01*
X411194Y317839D01*
X409150Y318686D01*
X407586Y320250D01*
X406739Y322294D01*
X406739Y323256D01*
X406734Y323289D01*
X406735Y323299D01*
X406724Y323348D01*
X406717Y323437D01*
X406705Y323467D01*
X406700Y323499D01*
X406686Y323525D01*
X406683Y323539D01*
X406652Y323590D01*
X406621Y323664D01*
X406595Y323696D01*
X406584Y323716D01*
X406567Y323733D01*
X406557Y323750D01*
X406541Y323764D01*
X406516Y323794D01*
X406323Y323988D01*
X406285Y324015D01*
X406254Y324049D01*
X406186Y324086D01*
X406123Y324132D01*
X406079Y324145D01*
X406039Y324167D01*
X405962Y324181D01*
X405888Y324204D01*
X405842Y324203D01*
X405797Y324211D01*
X405720Y324200D01*
X405642Y324198D01*
X405599Y324182D01*
X405553Y324175D01*
X405484Y324140D01*
X405411Y324113D01*
X405375Y324085D01*
X405334Y324064D01*
X405280Y324008D01*
X405219Y323960D01*
X405194Y323921D01*
X405162Y323888D01*
X405096Y323768D01*
X405086Y323753D01*
X405085Y323748D01*
X405081Y323741D01*
X404083Y321332D01*
X401368Y318617D01*
X397820Y317147D01*
X393980Y317147D01*
X390432Y318617D01*
X387717Y321332D01*
X386879Y323356D01*
X386841Y323417D01*
X386812Y323482D01*
X386777Y323520D01*
X386749Y323565D01*
X386694Y323610D01*
X386645Y323663D01*
X386600Y323688D01*
X386560Y323721D01*
X386493Y323747D01*
X386430Y323782D01*
X386379Y323791D01*
X386330Y323810D01*
X386258Y323813D01*
X386188Y323825D01*
X386136Y323818D01*
X386084Y323820D01*
X386015Y323800D01*
X385944Y323790D01*
X385898Y323766D01*
X385848Y323752D01*
X385789Y323711D01*
X385725Y323678D01*
X385689Y323641D01*
X385646Y323611D01*
X385603Y323554D01*
X385553Y323503D01*
X385518Y323440D01*
X385499Y323414D01*
X385492Y323392D01*
X385472Y323356D01*
X385014Y322250D01*
X383450Y320686D01*
X381406Y319839D01*
X379194Y319839D01*
X377150Y320686D01*
X375586Y322250D01*
X374739Y324294D01*
X374739Y326506D01*
X375131Y327453D01*
X375146Y327516D01*
X375171Y327577D01*
X375180Y327660D01*
X375187Y327692D01*
X375186Y327711D01*
X375189Y327744D01*
X375189Y336006D01*
X375175Y336096D01*
X375167Y336187D01*
X375155Y336217D01*
X375150Y336249D01*
X375107Y336330D01*
X375071Y336414D01*
X375045Y336446D01*
X375034Y336466D01*
X375011Y336489D01*
X374966Y336544D01*
X360700Y350811D01*
X360663Y350838D01*
X360632Y350871D01*
X360563Y350909D01*
X360500Y350954D01*
X360456Y350968D01*
X360416Y350990D01*
X360339Y351004D01*
X360265Y351027D01*
X360219Y351026D01*
X360174Y351034D01*
X360097Y351022D01*
X360019Y351020D01*
X359976Y351005D01*
X359931Y350998D01*
X359861Y350963D01*
X359788Y350936D01*
X359752Y350907D01*
X359711Y350886D01*
X359657Y350831D01*
X359596Y350782D01*
X359571Y350744D01*
X359539Y350711D01*
X359473Y350591D01*
X359463Y350575D01*
X359462Y350570D01*
X359458Y350564D01*
X358914Y349250D01*
X357350Y347686D01*
X355306Y346839D01*
X353094Y346839D01*
X351050Y347686D01*
X350624Y348112D01*
X350550Y348165D01*
X350480Y348225D01*
X350450Y348237D01*
X350424Y348256D01*
X350337Y348283D01*
X350252Y348317D01*
X350211Y348321D01*
X350189Y348328D01*
X350157Y348327D01*
X350085Y348335D01*
X321215Y348335D01*
X321125Y348321D01*
X321034Y348313D01*
X321004Y348301D01*
X320972Y348296D01*
X320891Y348253D01*
X320807Y348217D01*
X320775Y348191D01*
X320755Y348180D01*
X320732Y348157D01*
X320676Y348112D01*
X320350Y347786D01*
X318306Y346939D01*
X316094Y346939D01*
X314050Y347786D01*
X312486Y349350D01*
X311639Y351394D01*
X311639Y353606D01*
X312486Y355650D01*
X314050Y357214D01*
X316094Y358061D01*
X318306Y358061D01*
X320350Y357214D01*
X320876Y356688D01*
X320950Y356635D01*
X321020Y356575D01*
X321050Y356563D01*
X321076Y356544D01*
X321163Y356517D01*
X321248Y356483D01*
X321289Y356479D01*
X321311Y356472D01*
X321343Y356473D01*
X321415Y356465D01*
X350085Y356465D01*
X350175Y356479D01*
X350266Y356487D01*
X350296Y356499D01*
X350328Y356504D01*
X350409Y356547D01*
X350493Y356583D01*
X350525Y356609D01*
X350545Y356620D01*
X350568Y356643D01*
X350624Y356688D01*
X351050Y357114D01*
X353094Y357961D01*
X355306Y357961D01*
X357350Y357114D01*
X358690Y355774D01*
X358748Y355732D01*
X358800Y355683D01*
X358847Y355661D01*
X358889Y355631D01*
X358958Y355610D01*
X359023Y355579D01*
X359075Y355574D01*
X359125Y355558D01*
X359196Y355560D01*
X359267Y355552D01*
X359318Y355563D01*
X359370Y355565D01*
X359438Y355589D01*
X359508Y355605D01*
X359553Y355631D01*
X359601Y355649D01*
X359657Y355694D01*
X359719Y355731D01*
X359753Y355770D01*
X359793Y355803D01*
X359832Y355863D01*
X359879Y355918D01*
X359898Y355966D01*
X359926Y356010D01*
X359944Y356079D01*
X359971Y356146D01*
X359979Y356217D01*
X359987Y356248D01*
X359985Y356272D01*
X359989Y356313D01*
X359989Y383678D01*
X362444Y386134D01*
X390566Y414255D01*
X390566Y414256D01*
X393022Y416711D01*
X464278Y416711D01*
X471156Y409834D01*
X471229Y409781D01*
X471299Y409721D01*
X471329Y409709D01*
X471355Y409690D01*
X471442Y409663D01*
X471527Y409629D01*
X471568Y409625D01*
X471590Y409618D01*
X471623Y409619D01*
X471694Y409611D01*
X478331Y409611D01*
X478421Y409625D01*
X478512Y409633D01*
X478542Y409645D01*
X478574Y409650D01*
X478655Y409693D01*
X478739Y409729D01*
X478771Y409755D01*
X478791Y409766D01*
X478814Y409789D01*
X478870Y409834D01*
X479550Y410514D01*
X481594Y411361D01*
X483806Y411361D01*
X485850Y410514D01*
X487414Y408950D01*
X488261Y406906D01*
X488261Y404694D01*
X487414Y402650D01*
X485833Y401068D01*
X485799Y401048D01*
X485713Y401002D01*
X485695Y400983D01*
X485673Y400970D01*
X485611Y400895D01*
X485544Y400824D01*
X485533Y400800D01*
X485516Y400780D01*
X485481Y400689D01*
X485440Y400601D01*
X485437Y400575D01*
X485428Y400551D01*
X485424Y400453D01*
X485413Y400356D01*
X485419Y400331D01*
X485418Y400305D01*
X485445Y400211D01*
X485465Y400116D01*
X485479Y400094D01*
X485486Y400069D01*
X485542Y399989D01*
X485592Y399905D01*
X485612Y399888D01*
X485626Y399867D01*
X485704Y399808D01*
X485779Y399745D01*
X485803Y399735D01*
X485824Y399720D01*
X485916Y399690D01*
X486007Y399653D01*
X486039Y399650D01*
X486058Y399644D01*
X486090Y399644D01*
X486173Y399635D01*
X489280Y399635D01*
X489370Y399649D01*
X489461Y399656D01*
X489491Y399669D01*
X489523Y399674D01*
X489604Y399717D01*
X489688Y399753D01*
X489720Y399778D01*
X489740Y399789D01*
X489763Y399813D01*
X489819Y399858D01*
X494388Y404427D01*
X494456Y404522D01*
X494526Y404616D01*
X494528Y404622D01*
X494532Y404627D01*
X494566Y404738D01*
X494602Y404850D01*
X494602Y404856D01*
X494604Y404862D01*
X494601Y404979D01*
X494600Y405096D01*
X494598Y405103D01*
X494598Y405108D01*
X494591Y405125D01*
X494553Y405257D01*
X493930Y406762D01*
X493930Y408974D01*
X494776Y411018D01*
X496340Y412582D01*
X498384Y413429D01*
X499347Y413429D01*
X499437Y413444D01*
X499528Y413451D01*
X499557Y413463D01*
X499589Y413469D01*
X499670Y413511D01*
X499754Y413547D01*
X499786Y413573D01*
X499807Y413584D01*
X499829Y413607D01*
X499885Y413652D01*
X502544Y416311D01*
X537478Y416311D01*
X566906Y386884D01*
X566979Y386831D01*
X567049Y386771D01*
X567079Y386759D01*
X567105Y386740D01*
X567192Y386713D01*
X567277Y386679D01*
X567318Y386675D01*
X567340Y386668D01*
X567373Y386669D01*
X567444Y386661D01*
X568106Y386661D01*
X568812Y386368D01*
X568907Y386346D01*
X569000Y386317D01*
X569026Y386318D01*
X569052Y386312D01*
X569148Y386321D01*
X569246Y386324D01*
X569270Y386333D01*
X569297Y386335D01*
X569386Y386375D01*
X569477Y386408D01*
X569497Y386425D01*
X569521Y386435D01*
X569593Y386501D01*
X569669Y386562D01*
X569683Y386584D01*
X569702Y386602D01*
X569749Y386687D01*
X569802Y386769D01*
X569808Y386794D01*
X569821Y386817D01*
X569838Y386913D01*
X569862Y387007D01*
X569860Y387033D01*
X569865Y387059D01*
X569850Y387156D01*
X569843Y387253D01*
X569833Y387277D01*
X569829Y387303D01*
X569785Y387390D01*
X569747Y387479D01*
X569726Y387504D01*
X569717Y387522D01*
X569694Y387545D01*
X569642Y387610D01*
X530439Y426812D01*
X530365Y426865D01*
X530296Y426925D01*
X530266Y426937D01*
X530240Y426956D01*
X530153Y426983D01*
X530068Y427017D01*
X530027Y427021D01*
X530004Y427028D01*
X529972Y427027D01*
X529901Y427035D01*
X510516Y427035D01*
X507912Y429639D01*
X504139Y433412D01*
X504065Y433465D01*
X503996Y433525D01*
X503966Y433537D01*
X503940Y433556D01*
X503853Y433583D01*
X503768Y433617D01*
X503727Y433621D01*
X503705Y433628D01*
X503672Y433627D01*
X503601Y433635D01*
X458822Y433635D01*
X458802Y433632D01*
X458783Y433634D01*
X458681Y433612D01*
X458579Y433596D01*
X458562Y433586D01*
X458542Y433582D01*
X458453Y433529D01*
X458362Y433480D01*
X458348Y433466D01*
X458331Y433456D01*
X458264Y433377D01*
X458192Y433302D01*
X458184Y433284D01*
X458171Y433269D01*
X458132Y433173D01*
X458089Y433079D01*
X458087Y433059D01*
X458079Y433041D01*
X458061Y432874D01*
X458061Y432594D01*
X457214Y430550D01*
X455650Y428986D01*
X453606Y428139D01*
X451394Y428139D01*
X449350Y428986D01*
X447786Y430550D01*
X446939Y432594D01*
X446939Y434806D01*
X447786Y436850D01*
X449350Y438414D01*
X451394Y439261D01*
X451997Y439261D01*
X452087Y439275D01*
X452178Y439283D01*
X452208Y439295D01*
X452240Y439300D01*
X452320Y439343D01*
X452404Y439379D01*
X452436Y439405D01*
X452457Y439416D01*
X452479Y439439D01*
X452535Y439484D01*
X454816Y441765D01*
X507284Y441765D01*
X509888Y439161D01*
X513661Y435388D01*
X513735Y435335D01*
X513804Y435275D01*
X513834Y435263D01*
X513860Y435244D01*
X513948Y435217D01*
X514032Y435183D01*
X514073Y435179D01*
X514096Y435172D01*
X514128Y435173D01*
X514199Y435165D01*
X530842Y435165D01*
X530913Y435176D01*
X530984Y435178D01*
X531033Y435196D01*
X531085Y435204D01*
X531148Y435238D01*
X531215Y435263D01*
X531256Y435295D01*
X531302Y435320D01*
X531352Y435372D01*
X531408Y435416D01*
X531436Y435460D01*
X531472Y435498D01*
X531502Y435563D01*
X531541Y435623D01*
X531553Y435674D01*
X531575Y435721D01*
X531583Y435792D01*
X531601Y435862D01*
X531597Y435914D01*
X531602Y435965D01*
X531587Y436036D01*
X531581Y436107D01*
X531561Y436155D01*
X531550Y436206D01*
X531513Y436267D01*
X531485Y436333D01*
X531440Y436389D01*
X531424Y436417D01*
X531406Y436432D01*
X531380Y436464D01*
X530142Y437703D01*
X529295Y439747D01*
X529295Y441959D01*
X530142Y444003D01*
X531706Y445567D01*
X533750Y446414D01*
X535962Y446414D01*
X538006Y445567D01*
X538686Y444887D01*
X538760Y444833D01*
X538830Y444774D01*
X538860Y444762D01*
X538886Y444743D01*
X538973Y444716D01*
X539058Y444682D01*
X539099Y444678D01*
X539121Y444671D01*
X539153Y444672D01*
X539224Y444664D01*
X543726Y444664D01*
X546181Y442209D01*
X546181Y442208D01*
X561646Y426743D01*
X561720Y426690D01*
X561790Y426630D01*
X561820Y426618D01*
X561846Y426599D01*
X561933Y426573D01*
X562018Y426538D01*
X562059Y426534D01*
X562081Y426527D01*
X562113Y426528D01*
X562185Y426520D01*
X563247Y426520D01*
X563669Y426345D01*
X563739Y426329D01*
X563806Y426303D01*
X563858Y426301D01*
X563909Y426289D01*
X563980Y426295D01*
X564052Y426292D01*
X564102Y426307D01*
X564154Y426312D01*
X564219Y426341D01*
X564288Y426361D01*
X564331Y426391D01*
X564378Y426412D01*
X564431Y426460D01*
X564490Y426501D01*
X564521Y426543D01*
X564560Y426578D01*
X564594Y426641D01*
X564637Y426699D01*
X564653Y426748D01*
X564678Y426794D01*
X564691Y426864D01*
X564713Y426932D01*
X564713Y426985D01*
X564722Y427036D01*
X564711Y427107D01*
X564711Y427178D01*
X564691Y427247D01*
X564686Y427279D01*
X564676Y427300D01*
X564664Y427340D01*
X563389Y430417D01*
X563389Y434257D01*
X564785Y437627D01*
X564802Y437697D01*
X564827Y437764D01*
X564829Y437816D01*
X564841Y437867D01*
X564835Y437938D01*
X564838Y438010D01*
X564823Y438060D01*
X564818Y438112D01*
X564789Y438177D01*
X564769Y438246D01*
X564739Y438289D01*
X564718Y438336D01*
X564670Y438389D01*
X564629Y438448D01*
X564587Y438479D01*
X564552Y438518D01*
X564489Y438552D01*
X564431Y438595D01*
X564382Y438611D01*
X564336Y438636D01*
X564266Y438649D01*
X564198Y438671D01*
X564146Y438671D01*
X564094Y438680D01*
X564023Y438669D01*
X563952Y438669D01*
X563883Y438649D01*
X563851Y438644D01*
X563830Y438634D01*
X563791Y438622D01*
X561920Y437847D01*
X558080Y437847D01*
X554532Y439317D01*
X551817Y442032D01*
X550347Y445580D01*
X550347Y449420D01*
X551743Y452790D01*
X551760Y452860D01*
X551785Y452927D01*
X551787Y452979D01*
X551799Y453030D01*
X551793Y453101D01*
X551796Y453173D01*
X551781Y453223D01*
X551776Y453274D01*
X551747Y453340D01*
X551727Y453409D01*
X551697Y453452D01*
X551676Y453499D01*
X551628Y453552D01*
X551587Y453611D01*
X551545Y453642D01*
X551510Y453680D01*
X551447Y453715D01*
X551389Y453758D01*
X551340Y453774D01*
X551294Y453799D01*
X551224Y453812D01*
X551156Y453834D01*
X551104Y453833D01*
X551052Y453843D01*
X550981Y453832D01*
X550910Y453831D01*
X550841Y453811D01*
X550809Y453807D01*
X550788Y453796D01*
X550749Y453785D01*
X548878Y453010D01*
X545038Y453010D01*
X541490Y454479D01*
X538775Y457195D01*
X537305Y460743D01*
X537305Y464583D01*
X538775Y468130D01*
X539264Y468620D01*
X539306Y468678D01*
X539355Y468730D01*
X539377Y468777D01*
X539408Y468819D01*
X539429Y468888D01*
X539459Y468953D01*
X539465Y469005D01*
X539480Y469055D01*
X539478Y469126D01*
X539486Y469197D01*
X539475Y469248D01*
X539474Y469300D01*
X539449Y469368D01*
X539434Y469438D01*
X539407Y469483D01*
X539389Y469531D01*
X539344Y469587D01*
X539308Y469649D01*
X539268Y469683D01*
X539235Y469723D01*
X539175Y469762D01*
X539121Y469809D01*
X539072Y469828D01*
X539029Y469856D01*
X538959Y469874D01*
X538893Y469901D01*
X538821Y469909D01*
X538790Y469917D01*
X538767Y469915D01*
X538726Y469919D01*
X498070Y469919D01*
X497999Y469908D01*
X497927Y469906D01*
X497878Y469888D01*
X497827Y469880D01*
X497763Y469846D01*
X497696Y469821D01*
X497655Y469789D01*
X497609Y469764D01*
X497560Y469712D01*
X497504Y469668D01*
X497476Y469624D01*
X497440Y469586D01*
X497410Y469521D01*
X497371Y469461D01*
X497358Y469410D01*
X497336Y469363D01*
X497329Y469292D01*
X497311Y469222D01*
X497315Y469170D01*
X497309Y469119D01*
X497325Y469048D01*
X497330Y468977D01*
X497350Y468929D01*
X497362Y468878D01*
X497398Y468817D01*
X497426Y468751D01*
X497471Y468695D01*
X497488Y468667D01*
X497506Y468652D01*
X497531Y468620D01*
X498183Y467968D01*
X499653Y464420D01*
X499653Y460580D01*
X498183Y457032D01*
X495468Y454317D01*
X491920Y452847D01*
X488080Y452847D01*
X484532Y454317D01*
X481817Y457032D01*
X480347Y460580D01*
X480347Y464420D01*
X481817Y467968D01*
X482469Y468620D01*
X482511Y468678D01*
X482560Y468730D01*
X482582Y468777D01*
X482612Y468819D01*
X482633Y468888D01*
X482664Y468953D01*
X482669Y469005D01*
X482685Y469055D01*
X482683Y469126D01*
X482691Y469197D01*
X482680Y469248D01*
X482678Y469300D01*
X482654Y469368D01*
X482638Y469438D01*
X482612Y469483D01*
X482594Y469531D01*
X482549Y469587D01*
X482512Y469649D01*
X482473Y469683D01*
X482440Y469723D01*
X482380Y469762D01*
X482325Y469809D01*
X482277Y469828D01*
X482233Y469856D01*
X482164Y469874D01*
X482097Y469901D01*
X482026Y469909D01*
X481995Y469917D01*
X481971Y469915D01*
X481930Y469919D01*
X441250Y469919D01*
X441180Y469908D01*
X441108Y469906D01*
X441059Y469888D01*
X441008Y469880D01*
X440944Y469846D01*
X440877Y469821D01*
X440836Y469789D01*
X440790Y469764D01*
X440741Y469712D01*
X440685Y469668D01*
X440657Y469624D01*
X440621Y469586D01*
X440591Y469521D01*
X440552Y469461D01*
X440539Y469410D01*
X440517Y469363D01*
X440509Y469292D01*
X440492Y469222D01*
X440496Y469170D01*
X440490Y469119D01*
X440505Y469048D01*
X440511Y468977D01*
X440531Y468929D01*
X440542Y468878D01*
X440579Y468817D01*
X440607Y468751D01*
X440652Y468695D01*
X440669Y468667D01*
X440686Y468652D01*
X440712Y468620D01*
X441066Y468266D01*
X442535Y464718D01*
X442535Y460878D01*
X441066Y457331D01*
X438350Y454615D01*
X434803Y453146D01*
X430962Y453146D01*
X429217Y453869D01*
X429147Y453885D01*
X429080Y453911D01*
X429028Y453913D01*
X428977Y453925D01*
X428906Y453918D01*
X428834Y453921D01*
X428784Y453907D01*
X428732Y453902D01*
X428667Y453873D01*
X428598Y453853D01*
X428555Y453823D01*
X428507Y453802D01*
X428455Y453753D01*
X428396Y453713D01*
X428365Y453671D01*
X428326Y453636D01*
X428292Y453573D01*
X428249Y453515D01*
X428233Y453466D01*
X428208Y453420D01*
X428195Y453349D01*
X428173Y453281D01*
X428173Y453229D01*
X428164Y453178D01*
X428175Y453107D01*
X428175Y453035D01*
X428195Y452966D01*
X428200Y452935D01*
X428210Y452914D01*
X428222Y452874D01*
X429653Y449420D01*
X429653Y445580D01*
X428183Y442032D01*
X425468Y439317D01*
X421920Y437847D01*
X418080Y437847D01*
X416334Y438570D01*
X416264Y438587D01*
X416197Y438613D01*
X416145Y438615D01*
X416095Y438627D01*
X416023Y438620D01*
X415952Y438623D01*
X415902Y438608D01*
X415850Y438604D01*
X415784Y438574D01*
X415715Y438554D01*
X415673Y438525D01*
X415625Y438504D01*
X415572Y438455D01*
X415513Y438414D01*
X415482Y438372D01*
X415444Y438337D01*
X415409Y438274D01*
X415367Y438217D01*
X415350Y438167D01*
X415325Y438122D01*
X415313Y438051D01*
X415290Y437983D01*
X415291Y437931D01*
X415282Y437880D01*
X415292Y437809D01*
X415293Y437737D01*
X415313Y437668D01*
X415317Y437636D01*
X415328Y437615D01*
X415339Y437576D01*
X416770Y434122D01*
X416770Y430282D01*
X415301Y426734D01*
X412585Y424018D01*
X409038Y422549D01*
X405197Y422549D01*
X401650Y424018D01*
X398934Y426734D01*
X397465Y430282D01*
X397465Y433011D01*
X397449Y433110D01*
X397438Y433210D01*
X397429Y433231D01*
X397425Y433254D01*
X397378Y433342D01*
X397336Y433434D01*
X397321Y433451D01*
X397310Y433471D01*
X397237Y433540D01*
X397168Y433614D01*
X397148Y433624D01*
X397132Y433640D01*
X397040Y433683D01*
X396952Y433730D01*
X396929Y433734D01*
X396909Y433744D01*
X396809Y433755D01*
X396709Y433772D01*
X396687Y433768D01*
X396664Y433771D01*
X396566Y433750D01*
X396466Y433734D01*
X396446Y433724D01*
X396424Y433719D01*
X396337Y433667D01*
X396248Y433621D01*
X396227Y433601D01*
X396213Y433593D01*
X396191Y433568D01*
X396126Y433506D01*
X370264Y403334D01*
X370232Y403281D01*
X370191Y403234D01*
X370168Y403177D01*
X370136Y403124D01*
X370123Y403063D01*
X370099Y403006D01*
X370089Y402916D01*
X370086Y402901D01*
X368751Y401566D01*
X368739Y401548D01*
X368711Y401523D01*
X367479Y400085D01*
X367422Y400080D01*
X367365Y400056D01*
X367305Y400042D01*
X367253Y400008D01*
X367195Y399984D01*
X367125Y399928D01*
X367112Y399919D01*
X365224Y399919D01*
X365203Y399916D01*
X365166Y399917D01*
X363277Y399772D01*
X363234Y399809D01*
X363177Y399832D01*
X363124Y399864D01*
X363064Y399877D01*
X363006Y399901D01*
X362916Y399911D01*
X362884Y399918D01*
X362867Y399916D01*
X362839Y399919D01*
X299808Y399919D01*
X299737Y399908D01*
X299665Y399906D01*
X299616Y399888D01*
X299565Y399880D01*
X299502Y399846D01*
X299434Y399821D01*
X299394Y399789D01*
X299348Y399764D01*
X299298Y399713D01*
X299242Y399668D01*
X299214Y399624D01*
X299178Y399586D01*
X299148Y399521D01*
X299109Y399461D01*
X299097Y399410D01*
X299075Y399363D01*
X299067Y399292D01*
X299049Y399222D01*
X299053Y399170D01*
X299048Y399119D01*
X299063Y399048D01*
X299068Y398977D01*
X299089Y398929D01*
X299100Y398878D01*
X299137Y398817D01*
X299165Y398751D01*
X299209Y398695D01*
X299226Y398667D01*
X299244Y398652D01*
X299269Y398620D01*
X303563Y394326D01*
X303657Y394258D01*
X303752Y394188D01*
X303758Y394186D01*
X303763Y394182D01*
X303874Y394148D01*
X303986Y394112D01*
X303992Y394112D01*
X303998Y394110D01*
X304115Y394113D01*
X304232Y394114D01*
X304239Y394116D01*
X304244Y394116D01*
X304261Y394123D01*
X304393Y394161D01*
X305580Y394653D01*
X309420Y394653D01*
X312968Y393183D01*
X315683Y390468D01*
X317153Y386920D01*
X317153Y383080D01*
X315683Y379532D01*
X312968Y376817D01*
X309420Y375347D01*
X305580Y375347D01*
X302032Y376817D01*
X299317Y379532D01*
X298203Y382220D01*
X298165Y382281D01*
X298136Y382347D01*
X298101Y382385D01*
X298074Y382429D01*
X298018Y382475D01*
X297970Y382528D01*
X297924Y382553D01*
X297884Y382586D01*
X297817Y382612D01*
X297754Y382647D01*
X297703Y382656D01*
X297655Y382674D01*
X297583Y382678D01*
X297512Y382690D01*
X297461Y382683D01*
X297409Y382685D01*
X297340Y382665D01*
X297269Y382654D01*
X297223Y382631D01*
X297173Y382616D01*
X297114Y382576D01*
X297050Y382543D01*
X297013Y382506D01*
X296971Y382476D01*
X296928Y382419D01*
X296878Y382367D01*
X296843Y382305D01*
X296824Y382279D01*
X296817Y382256D01*
X296797Y382220D01*
X295683Y379532D01*
X292968Y376817D01*
X289420Y375347D01*
X285580Y375347D01*
X282032Y376817D01*
X279317Y379532D01*
X278825Y380719D01*
X278764Y380819D01*
X278704Y380919D01*
X278699Y380923D01*
X278695Y380928D01*
X278606Y381003D01*
X278517Y381079D01*
X278511Y381081D01*
X278506Y381085D01*
X278398Y381127D01*
X278288Y381171D01*
X278281Y381172D01*
X278276Y381173D01*
X278258Y381174D01*
X278122Y381189D01*
X276878Y381189D01*
X276763Y381170D01*
X276647Y381153D01*
X276642Y381151D01*
X276635Y381150D01*
X276533Y381095D01*
X276428Y381042D01*
X276424Y381037D01*
X276418Y381034D01*
X276338Y380950D01*
X276256Y380866D01*
X276252Y380860D01*
X276249Y380856D01*
X276241Y380839D01*
X276175Y380719D01*
X275683Y379532D01*
X272968Y376817D01*
X270215Y375676D01*
X270129Y375623D01*
X270040Y375575D01*
X270025Y375559D01*
X270006Y375547D01*
X269941Y375469D01*
X269872Y375395D01*
X269863Y375374D01*
X269849Y375357D01*
X269813Y375263D01*
X269771Y375171D01*
X269769Y375148D01*
X269761Y375128D01*
X269756Y375027D01*
X269746Y374926D01*
X269751Y374904D01*
X269750Y374882D01*
X269779Y374785D01*
X269801Y374686D01*
X269813Y374667D01*
X269819Y374646D01*
X269877Y374563D01*
X269929Y374476D01*
X269946Y374462D01*
X269959Y374444D01*
X270040Y374383D01*
X270118Y374318D01*
X270143Y374307D01*
X270156Y374297D01*
X270188Y374287D01*
X270271Y374249D01*
X271205Y373946D01*
X272559Y373256D01*
X273788Y372363D01*
X274863Y371288D01*
X275756Y370059D01*
X276446Y368705D01*
X276915Y367260D01*
X277032Y366523D01*
X268262Y366523D01*
X268242Y366520D01*
X268223Y366522D01*
X268121Y366500D01*
X268019Y366483D01*
X268002Y366474D01*
X267982Y366470D01*
X267893Y366417D01*
X267802Y366368D01*
X267788Y366354D01*
X267771Y366344D01*
X267704Y366265D01*
X267633Y366190D01*
X267624Y366172D01*
X267611Y366157D01*
X267573Y366061D01*
X267529Y365967D01*
X267527Y365947D01*
X267519Y365929D01*
X267501Y365762D01*
X267501Y364238D01*
X267504Y364218D01*
X267502Y364199D01*
X267524Y364097D01*
X267541Y363995D01*
X267550Y363978D01*
X267554Y363958D01*
X267607Y363869D01*
X267656Y363778D01*
X267670Y363764D01*
X267680Y363747D01*
X267759Y363680D01*
X267834Y363609D01*
X267852Y363600D01*
X267867Y363587D01*
X267963Y363548D01*
X268057Y363505D01*
X268077Y363503D01*
X268095Y363495D01*
X268262Y363477D01*
X277032Y363477D01*
X276915Y362740D01*
X276446Y361295D01*
X275756Y359941D01*
X274863Y358712D01*
X273788Y357637D01*
X272559Y356744D01*
X271205Y356054D01*
X270271Y355751D01*
X270181Y355704D01*
X270088Y355663D01*
X270072Y355648D01*
X270052Y355638D01*
X269982Y355565D01*
X269907Y355497D01*
X269897Y355477D01*
X269881Y355461D01*
X269837Y355370D01*
X269789Y355281D01*
X269785Y355259D01*
X269775Y355239D01*
X269763Y355139D01*
X269745Y355039D01*
X269748Y355017D01*
X269746Y354995D01*
X269766Y354896D01*
X269781Y354796D01*
X269791Y354776D01*
X269795Y354754D01*
X269846Y354667D01*
X269892Y354577D01*
X269908Y354561D01*
X269919Y354542D01*
X269996Y354475D01*
X270068Y354404D01*
X270092Y354391D01*
X270105Y354380D01*
X270135Y354368D01*
X270215Y354324D01*
X272968Y353183D01*
X275683Y350468D01*
X277153Y346920D01*
X277153Y343080D01*
X275683Y339532D01*
X272968Y336817D01*
X271781Y336325D01*
X271681Y336264D01*
X271581Y336204D01*
X271577Y336199D01*
X271572Y336195D01*
X271497Y336106D01*
X271421Y336017D01*
X271419Y336011D01*
X271415Y336006D01*
X271373Y335898D01*
X271329Y335788D01*
X271328Y335781D01*
X271327Y335776D01*
X271326Y335758D01*
X271311Y335622D01*
X271311Y335394D01*
X271325Y335304D01*
X271333Y335213D01*
X271345Y335183D01*
X271350Y335151D01*
X271393Y335070D01*
X271429Y334986D01*
X271455Y334954D01*
X271466Y334934D01*
X271489Y334911D01*
X271534Y334856D01*
X276355Y330034D01*
X276832Y329557D01*
X276848Y329545D01*
X276861Y329530D01*
X276932Y329484D01*
X276960Y329460D01*
X276977Y329453D01*
X277032Y329414D01*
X277051Y329408D01*
X277068Y329397D01*
X277168Y329372D01*
X277267Y329341D01*
X277287Y329342D01*
X277306Y329337D01*
X277409Y329345D01*
X277513Y329348D01*
X277532Y329354D01*
X277551Y329356D01*
X277646Y329396D01*
X277744Y329432D01*
X277759Y329444D01*
X277778Y329452D01*
X277836Y329499D01*
X277846Y329504D01*
X277856Y329515D01*
X277909Y329557D01*
X284416Y336065D01*
X284469Y336139D01*
X284529Y336208D01*
X284541Y336238D01*
X284560Y336264D01*
X284587Y336351D01*
X284621Y336436D01*
X284625Y336477D01*
X284632Y336500D01*
X284631Y336532D01*
X284639Y336603D01*
X284639Y337206D01*
X285486Y339250D01*
X287050Y340814D01*
X289094Y341661D01*
X291306Y341661D01*
X293350Y340814D01*
X294914Y339250D01*
X295761Y337206D01*
X295761Y334994D01*
X294914Y332950D01*
X293350Y331386D01*
X291306Y330539D01*
X290703Y330539D01*
X290613Y330525D01*
X290522Y330517D01*
X290492Y330505D01*
X290460Y330500D01*
X290380Y330457D01*
X290296Y330421D01*
X290264Y330395D01*
X290243Y330384D01*
X290221Y330361D01*
X290165Y330316D01*
X286288Y326439D01*
X286235Y326365D01*
X286175Y326296D01*
X286163Y326266D01*
X286144Y326240D01*
X286117Y326153D01*
X286083Y326068D01*
X286079Y326027D01*
X286072Y326004D01*
X286073Y325972D01*
X286065Y325901D01*
X286065Y318015D01*
X286079Y317925D01*
X286087Y317834D01*
X286099Y317804D01*
X286104Y317772D01*
X286147Y317691D01*
X286183Y317607D01*
X286209Y317575D01*
X286220Y317555D01*
X286243Y317532D01*
X286288Y317476D01*
X286714Y317050D01*
X287561Y315006D01*
X287561Y312794D01*
X286714Y310750D01*
X285150Y309186D01*
X283106Y308339D01*
X280894Y308339D01*
X279863Y308766D01*
X279819Y308777D01*
X279777Y308796D01*
X279700Y308805D01*
X279624Y308822D01*
X279578Y308818D01*
X279533Y308823D01*
X279456Y308807D01*
X279379Y308799D01*
X279337Y308781D01*
X279292Y308771D01*
X279225Y308731D01*
X279154Y308699D01*
X279120Y308668D01*
X279081Y308645D01*
X279030Y308586D01*
X278973Y308533D01*
X278951Y308493D01*
X278921Y308458D01*
X278892Y308386D01*
X278855Y308317D01*
X278846Y308272D01*
X278829Y308230D01*
X278814Y308094D01*
X278811Y308075D01*
X278812Y308070D01*
X278811Y308063D01*
X278811Y295894D01*
X278825Y295804D01*
X278833Y295713D01*
X278845Y295683D01*
X278850Y295651D01*
X278893Y295570D01*
X278929Y295486D01*
X278955Y295454D01*
X278966Y295434D01*
X278989Y295412D01*
X279034Y295355D01*
X282795Y291594D01*
X282832Y291567D01*
X282863Y291534D01*
X282932Y291496D01*
X282995Y291451D01*
X283039Y291437D01*
X283079Y291415D01*
X283155Y291401D01*
X283230Y291378D01*
X283276Y291379D01*
X283321Y291371D01*
X283398Y291383D01*
X283476Y291385D01*
X283519Y291400D01*
X283564Y291407D01*
X283634Y291442D01*
X283707Y291469D01*
X283743Y291498D01*
X283784Y291519D01*
X283838Y291574D01*
X283899Y291623D01*
X283924Y291661D01*
X283956Y291694D01*
X284022Y291814D01*
X284032Y291830D01*
X284033Y291835D01*
X284037Y291841D01*
X284786Y293650D01*
X286350Y295214D01*
X288394Y296061D01*
X290606Y296061D01*
X292650Y295214D01*
X292830Y295034D01*
X292904Y294981D01*
X292974Y294921D01*
X293004Y294909D01*
X293030Y294890D01*
X293117Y294863D01*
X293202Y294829D01*
X293243Y294825D01*
X293265Y294818D01*
X293297Y294819D01*
X293369Y294811D01*
X325377Y294811D01*
X325422Y294818D01*
X325468Y294816D01*
X325543Y294838D01*
X325620Y294850D01*
X325660Y294872D01*
X325704Y294885D01*
X325768Y294929D01*
X325837Y294966D01*
X325869Y294999D01*
X325907Y295025D01*
X325953Y295087D01*
X326007Y295144D01*
X326026Y295186D01*
X326053Y295222D01*
X326077Y295296D01*
X326110Y295367D01*
X326115Y295413D01*
X326129Y295456D01*
X326129Y295534D01*
X326137Y295611D01*
X326128Y295656D01*
X326127Y295702D01*
X326089Y295834D01*
X326085Y295852D01*
X326082Y295856D01*
X326080Y295863D01*
X325239Y297894D01*
X325239Y300106D01*
X326086Y302150D01*
X327650Y303714D01*
X329694Y304561D01*
X331906Y304561D01*
X333950Y303714D01*
X334630Y303034D01*
X334704Y302981D01*
X334774Y302921D01*
X334804Y302909D01*
X334830Y302890D01*
X334917Y302863D01*
X335002Y302829D01*
X335043Y302825D01*
X335065Y302818D01*
X335097Y302819D01*
X335169Y302811D01*
X357409Y302811D01*
X357499Y302825D01*
X357590Y302833D01*
X357620Y302845D01*
X357652Y302850D01*
X357733Y302893D01*
X357816Y302929D01*
X357849Y302955D01*
X357869Y302966D01*
X357891Y302989D01*
X357947Y303034D01*
X358739Y303825D01*
X360783Y304672D01*
X362995Y304672D01*
X365039Y303825D01*
X366699Y302165D01*
X366715Y302153D01*
X366728Y302138D01*
X366790Y302098D01*
X366840Y302055D01*
X366868Y302044D01*
X366899Y302021D01*
X366918Y302016D01*
X366935Y302005D01*
X367014Y301985D01*
X367068Y301963D01*
X367100Y301959D01*
X367134Y301949D01*
X367154Y301950D01*
X367173Y301945D01*
X367208Y301947D01*
X367235Y301944D01*
X367240Y301944D01*
X367293Y301953D01*
X367380Y301955D01*
X367399Y301962D01*
X367418Y301964D01*
X367456Y301980D01*
X367483Y301984D01*
X367536Y302012D01*
X367611Y302040D01*
X367627Y302052D01*
X367645Y302060D01*
X367681Y302089D01*
X367700Y302099D01*
X367720Y302121D01*
X367776Y302165D01*
X379422Y313811D01*
X413631Y313811D01*
X413721Y313825D01*
X413812Y313833D01*
X413842Y313845D01*
X413874Y313850D01*
X413955Y313893D01*
X414039Y313929D01*
X414071Y313955D01*
X414091Y313966D01*
X414114Y313989D01*
X414170Y314034D01*
X414850Y314714D01*
X416894Y315561D01*
X419106Y315561D01*
X421150Y314714D01*
X422714Y313150D01*
X423561Y311106D01*
X423561Y309988D01*
X423572Y309917D01*
X423574Y309845D01*
X423592Y309796D01*
X423600Y309745D01*
X423634Y309682D01*
X423659Y309614D01*
X423691Y309574D01*
X423716Y309528D01*
X423767Y309478D01*
X423812Y309422D01*
X423856Y309394D01*
X423894Y309358D01*
X423959Y309328D01*
X424019Y309289D01*
X424070Y309277D01*
X424117Y309255D01*
X424188Y309247D01*
X424258Y309229D01*
X424310Y309233D01*
X424361Y309228D01*
X424432Y309243D01*
X424503Y309248D01*
X424551Y309269D01*
X424602Y309280D01*
X424663Y309317D01*
X424729Y309345D01*
X424785Y309389D01*
X424813Y309406D01*
X424828Y309424D01*
X424860Y309449D01*
X425244Y309834D01*
X446716Y331306D01*
X446769Y331379D01*
X446829Y331449D01*
X446841Y331479D01*
X446860Y331505D01*
X446887Y331592D01*
X446921Y331677D01*
X446925Y331718D01*
X446932Y331740D01*
X446931Y331773D01*
X446939Y331844D01*
X446939Y332806D01*
X447786Y334850D01*
X449357Y336421D01*
X449377Y336433D01*
X449420Y336449D01*
X449481Y336498D01*
X449547Y336539D01*
X449576Y336574D01*
X449612Y336603D01*
X449654Y336668D01*
X449704Y336728D01*
X449721Y336771D01*
X449745Y336810D01*
X449764Y336885D01*
X449792Y336958D01*
X449794Y337004D01*
X449805Y337048D01*
X449799Y337126D01*
X449803Y337204D01*
X449790Y337248D01*
X449786Y337294D01*
X449756Y337365D01*
X449734Y337440D01*
X449708Y337478D01*
X449690Y337520D01*
X449605Y337627D01*
X449594Y337642D01*
X449590Y337645D01*
X449585Y337651D01*
X449186Y338050D01*
X448339Y340094D01*
X448339Y342306D01*
X449186Y344350D01*
X450750Y345914D01*
X452794Y346761D01*
X455006Y346761D01*
X456205Y346264D01*
X456249Y346254D01*
X456291Y346234D01*
X456368Y346226D01*
X456444Y346208D01*
X456490Y346212D01*
X456535Y346207D01*
X456612Y346224D01*
X456689Y346231D01*
X456731Y346250D01*
X456776Y346260D01*
X456843Y346300D01*
X456914Y346331D01*
X456948Y346362D01*
X456987Y346386D01*
X457038Y346445D01*
X457095Y346498D01*
X457117Y346538D01*
X457147Y346573D01*
X457176Y346645D01*
X457213Y346713D01*
X457222Y346758D01*
X457239Y346801D01*
X457254Y346937D01*
X457257Y346955D01*
X457256Y346960D01*
X457257Y346968D01*
X457257Y348249D01*
X458808Y349799D01*
X458820Y349816D01*
X458836Y349829D01*
X458891Y349916D01*
X458951Y349999D01*
X458957Y350019D01*
X458968Y350036D01*
X458993Y350136D01*
X459024Y350234D01*
X459023Y350255D01*
X459028Y350275D01*
X459020Y350377D01*
X459017Y350480D01*
X459010Y350500D01*
X459009Y350520D01*
X458968Y350614D01*
X458933Y350711D01*
X458920Y350727D01*
X458912Y350746D01*
X458807Y350877D01*
X457161Y352517D01*
X457159Y353652D01*
X457151Y353696D01*
X457153Y353741D01*
X457131Y353817D01*
X457119Y353894D01*
X457097Y353934D01*
X457085Y353978D01*
X457040Y354042D01*
X457003Y354111D01*
X456970Y354143D01*
X456944Y354180D01*
X456882Y354226D01*
X456824Y354280D01*
X456783Y354300D01*
X456747Y354326D01*
X456672Y354351D01*
X456601Y354384D01*
X456556Y354389D01*
X456513Y354403D01*
X456435Y354402D01*
X456357Y354410D01*
X456313Y354401D01*
X456267Y354400D01*
X456133Y354361D01*
X456116Y354358D01*
X456113Y354355D01*
X456106Y354354D01*
X455106Y353939D01*
X452894Y353939D01*
X450850Y354786D01*
X449286Y356350D01*
X448439Y358394D01*
X448439Y360606D01*
X449286Y362650D01*
X450850Y364214D01*
X452894Y365061D01*
X455106Y365061D01*
X456086Y364655D01*
X456131Y364644D01*
X456173Y364625D01*
X456250Y364616D01*
X456325Y364599D01*
X456372Y364603D01*
X456418Y364598D01*
X456493Y364615D01*
X456570Y364622D01*
X456613Y364641D01*
X456658Y364651D01*
X456724Y364690D01*
X456795Y364722D01*
X456829Y364753D01*
X456869Y364777D01*
X456919Y364836D01*
X456976Y364888D01*
X456998Y364929D01*
X457029Y364965D01*
X457057Y365036D01*
X457095Y365104D01*
X457103Y365150D01*
X457120Y365193D01*
X457135Y365326D01*
X457138Y365346D01*
X457137Y365351D01*
X457138Y365360D01*
X457136Y366622D01*
X458622Y368113D01*
X468727Y368131D01*
X470218Y366645D01*
X470242Y352540D01*
X468685Y350977D01*
X468674Y350962D01*
X468659Y350950D01*
X468602Y350862D01*
X468542Y350778D01*
X468536Y350759D01*
X468526Y350743D01*
X468500Y350642D01*
X468470Y350542D01*
X468470Y350523D01*
X468466Y350504D01*
X468474Y350401D01*
X468477Y350296D01*
X468483Y350278D01*
X468485Y350259D01*
X468525Y350164D01*
X468561Y350066D01*
X468574Y350050D01*
X468581Y350033D01*
X468686Y349902D01*
X470339Y348249D01*
X470339Y334144D01*
X468850Y332656D01*
X458822Y332656D01*
X458802Y332653D01*
X458783Y332655D01*
X458681Y332633D01*
X458579Y332616D01*
X458562Y332607D01*
X458542Y332603D01*
X458453Y332549D01*
X458362Y332501D01*
X458348Y332487D01*
X458331Y332476D01*
X458264Y332398D01*
X458192Y332323D01*
X458184Y332305D01*
X458171Y332289D01*
X458132Y332193D01*
X458089Y332100D01*
X458087Y332080D01*
X458079Y332061D01*
X458061Y331895D01*
X458061Y330594D01*
X457214Y328550D01*
X455650Y326986D01*
X453606Y326139D01*
X452644Y326139D01*
X452554Y326125D01*
X452463Y326117D01*
X452433Y326105D01*
X452401Y326100D01*
X452320Y326057D01*
X452236Y326021D01*
X452204Y325995D01*
X452184Y325984D01*
X452161Y325961D01*
X452106Y325916D01*
X431828Y305638D01*
X431759Y305543D01*
X431690Y305450D01*
X431688Y305444D01*
X431684Y305439D01*
X431650Y305328D01*
X431613Y305216D01*
X431614Y305210D01*
X431612Y305204D01*
X431615Y305087D01*
X431616Y304970D01*
X431618Y304963D01*
X431618Y304958D01*
X431624Y304940D01*
X431663Y304809D01*
X432161Y303606D01*
X432161Y301394D01*
X431320Y299363D01*
X431309Y299319D01*
X431290Y299277D01*
X431281Y299200D01*
X431263Y299124D01*
X431268Y299078D01*
X431263Y299033D01*
X431279Y298956D01*
X431287Y298879D01*
X431305Y298837D01*
X431315Y298792D01*
X431355Y298725D01*
X431387Y298654D01*
X431418Y298620D01*
X431441Y298581D01*
X431500Y298530D01*
X431553Y298473D01*
X431593Y298451D01*
X431628Y298421D01*
X431700Y298392D01*
X431768Y298355D01*
X431814Y298346D01*
X431856Y298329D01*
X431992Y298314D01*
X432011Y298311D01*
X432015Y298312D01*
X432023Y298311D01*
X497578Y298311D01*
X500606Y295284D01*
X500679Y295231D01*
X500749Y295171D01*
X500779Y295159D01*
X500805Y295140D01*
X500892Y295113D01*
X500977Y295079D01*
X501018Y295075D01*
X501040Y295068D01*
X501073Y295069D01*
X501144Y295061D01*
X502106Y295061D01*
X504150Y294214D01*
X505714Y292650D01*
X506561Y290606D01*
X506561Y288394D01*
X505714Y286350D01*
X504150Y284786D01*
X502106Y283939D01*
X499894Y283939D01*
X497850Y284786D01*
X496286Y286350D01*
X495439Y288394D01*
X495439Y289356D01*
X495425Y289446D01*
X495417Y289537D01*
X495405Y289567D01*
X495400Y289599D01*
X495357Y289680D01*
X495321Y289764D01*
X495295Y289796D01*
X495284Y289816D01*
X495261Y289839D01*
X495216Y289894D01*
X494644Y290466D01*
X494571Y290519D01*
X494501Y290579D01*
X494471Y290591D01*
X494445Y290610D01*
X494358Y290637D01*
X494273Y290671D01*
X494232Y290675D01*
X494210Y290682D01*
X494177Y290681D01*
X494106Y290689D01*
X424369Y290689D01*
X424279Y290675D01*
X424188Y290667D01*
X424158Y290655D01*
X424126Y290650D01*
X424045Y290607D01*
X423961Y290571D01*
X423929Y290545D01*
X423909Y290534D01*
X423886Y290511D01*
X423830Y290466D01*
X423150Y289786D01*
X421106Y288939D01*
X418894Y288939D01*
X416850Y289786D01*
X415286Y291350D01*
X414439Y293394D01*
X414439Y295606D01*
X415286Y297650D01*
X416850Y299214D01*
X418894Y300061D01*
X420452Y300061D01*
X420497Y300068D01*
X420543Y300066D01*
X420618Y300088D01*
X420695Y300100D01*
X420735Y300122D01*
X420780Y300135D01*
X420844Y300179D01*
X420912Y300216D01*
X420944Y300249D01*
X420982Y300275D01*
X421028Y300338D01*
X421082Y300394D01*
X421101Y300435D01*
X421128Y300472D01*
X421153Y300547D01*
X421185Y300617D01*
X421190Y300663D01*
X421205Y300706D01*
X421204Y300784D01*
X421212Y300861D01*
X421203Y300906D01*
X421202Y300952D01*
X421164Y301083D01*
X421160Y301102D01*
X421158Y301106D01*
X421155Y301113D01*
X421039Y301394D01*
X421039Y303606D01*
X421153Y303880D01*
X421169Y303950D01*
X421195Y304017D01*
X421197Y304069D01*
X421209Y304120D01*
X421202Y304191D01*
X421205Y304263D01*
X421191Y304313D01*
X421186Y304365D01*
X421157Y304430D01*
X421137Y304499D01*
X421107Y304542D01*
X421086Y304590D01*
X421037Y304642D01*
X420997Y304701D01*
X420955Y304732D01*
X420920Y304771D01*
X420857Y304805D01*
X420799Y304848D01*
X420750Y304864D01*
X420704Y304889D01*
X420634Y304902D01*
X420565Y304924D01*
X420513Y304924D01*
X420462Y304933D01*
X420391Y304923D01*
X420319Y304922D01*
X420251Y304902D01*
X420219Y304897D01*
X420198Y304887D01*
X420158Y304875D01*
X419106Y304439D01*
X416894Y304439D01*
X414850Y305286D01*
X414170Y305966D01*
X414096Y306019D01*
X414026Y306079D01*
X413996Y306091D01*
X413970Y306110D01*
X413883Y306137D01*
X413798Y306171D01*
X413757Y306175D01*
X413735Y306182D01*
X413703Y306181D01*
X413631Y306189D01*
X409024Y306189D01*
X408978Y306182D01*
X408932Y306184D01*
X408858Y306162D01*
X408781Y306150D01*
X408740Y306128D01*
X408696Y306115D01*
X408632Y306071D01*
X408564Y306034D01*
X408532Y306001D01*
X408494Y305975D01*
X408448Y305912D01*
X408394Y305856D01*
X408375Y305814D01*
X408347Y305778D01*
X408323Y305704D01*
X408291Y305633D01*
X408285Y305587D01*
X408271Y305544D01*
X408272Y305466D01*
X408263Y305389D01*
X408273Y305344D01*
X408274Y305298D01*
X408312Y305166D01*
X408316Y305148D01*
X408318Y305144D01*
X408320Y305137D01*
X409653Y301920D01*
X409653Y298080D01*
X408183Y294532D01*
X405468Y291817D01*
X401920Y290347D01*
X398080Y290347D01*
X394532Y291817D01*
X391817Y294532D01*
X391325Y295719D01*
X391264Y295819D01*
X391204Y295919D01*
X391199Y295923D01*
X391195Y295928D01*
X391107Y296002D01*
X391017Y296079D01*
X391011Y296081D01*
X391006Y296085D01*
X390898Y296127D01*
X390788Y296171D01*
X390781Y296172D01*
X390776Y296173D01*
X390758Y296174D01*
X390622Y296189D01*
X387261Y296189D01*
X387216Y296182D01*
X387170Y296184D01*
X387095Y296162D01*
X387019Y296150D01*
X386978Y296128D01*
X386934Y296115D01*
X386870Y296071D01*
X386801Y296034D01*
X386770Y296001D01*
X386732Y295975D01*
X386685Y295912D01*
X386632Y295856D01*
X386613Y295814D01*
X386585Y295778D01*
X386561Y295704D01*
X386528Y295633D01*
X386523Y295587D01*
X386509Y295544D01*
X386510Y295466D01*
X386501Y295389D01*
X386511Y295344D01*
X386511Y295298D01*
X386549Y295167D01*
X386553Y295148D01*
X386556Y295144D01*
X386558Y295137D01*
X386861Y294406D01*
X386861Y293444D01*
X386875Y293354D01*
X386883Y293263D01*
X386895Y293233D01*
X386900Y293201D01*
X386943Y293120D01*
X386979Y293036D01*
X387005Y293004D01*
X387016Y292984D01*
X387039Y292961D01*
X387084Y292906D01*
X392211Y287778D01*
X392211Y276614D01*
X392222Y276543D01*
X392224Y276472D01*
X392242Y276423D01*
X392250Y276371D01*
X392284Y276308D01*
X392309Y276241D01*
X392341Y276200D01*
X392366Y276154D01*
X392418Y276105D01*
X392462Y276049D01*
X392506Y276020D01*
X392544Y275985D01*
X392609Y275954D01*
X392669Y275916D01*
X392720Y275903D01*
X392767Y275881D01*
X392838Y275873D01*
X392908Y275855D01*
X392960Y275860D01*
X393011Y275854D01*
X393082Y275869D01*
X393153Y275875D01*
X393201Y275895D01*
X393252Y275906D01*
X393313Y275943D01*
X393379Y275971D01*
X393435Y276016D01*
X393463Y276032D01*
X393478Y276050D01*
X393510Y276076D01*
X396365Y278931D01*
X399577Y278931D01*
X399577Y268262D01*
X399580Y268242D01*
X399578Y268223D01*
X399600Y268121D01*
X399617Y268019D01*
X399626Y268002D01*
X399630Y267982D01*
X399683Y267893D01*
X399732Y267802D01*
X399746Y267788D01*
X399756Y267771D01*
X399835Y267704D01*
X399910Y267633D01*
X399928Y267624D01*
X399943Y267611D01*
X400039Y267573D01*
X400133Y267529D01*
X400153Y267527D01*
X400171Y267519D01*
X400338Y267501D01*
X401101Y267501D01*
X401101Y267499D01*
X400338Y267499D01*
X400318Y267496D01*
X400299Y267498D01*
X400197Y267476D01*
X400095Y267459D01*
X400078Y267450D01*
X400058Y267446D01*
X399969Y267393D01*
X399878Y267344D01*
X399864Y267330D01*
X399847Y267320D01*
X399780Y267241D01*
X399709Y267166D01*
X399700Y267148D01*
X399687Y267133D01*
X399648Y267037D01*
X399605Y266943D01*
X399603Y266923D01*
X399595Y266905D01*
X399577Y266738D01*
X399577Y255528D01*
X399592Y255438D01*
X399599Y255347D01*
X399611Y255317D01*
X399617Y255285D01*
X399659Y255204D01*
X399695Y255120D01*
X399721Y255088D01*
X399732Y255068D01*
X399755Y255045D01*
X399771Y255026D01*
X399776Y255017D01*
X399781Y255013D01*
X399800Y254989D01*
X401906Y252884D01*
X401979Y252831D01*
X402049Y252771D01*
X402079Y252759D01*
X402105Y252740D01*
X402192Y252713D01*
X402277Y252679D01*
X402318Y252675D01*
X402340Y252668D01*
X402373Y252669D01*
X402444Y252661D01*
X403406Y252661D01*
X405450Y251814D01*
X407014Y250250D01*
X407861Y248206D01*
X407861Y245994D01*
X407014Y243950D01*
X405450Y242386D01*
X404595Y242032D01*
X404498Y241972D01*
X404400Y241914D01*
X404394Y241907D01*
X404386Y241902D01*
X404313Y241815D01*
X404239Y241729D01*
X404235Y241720D01*
X404229Y241712D01*
X404188Y241607D01*
X404145Y241501D01*
X404144Y241492D01*
X404141Y241483D01*
X404136Y241370D01*
X404128Y241256D01*
X404131Y241247D01*
X404130Y241237D01*
X404162Y241128D01*
X404191Y241018D01*
X404196Y241010D01*
X404199Y241001D01*
X404263Y240908D01*
X404326Y240813D01*
X404335Y240805D01*
X404339Y240799D01*
X404358Y240784D01*
X404452Y240702D01*
X424642Y226716D01*
X424663Y226706D01*
X424681Y226691D01*
X424774Y226654D01*
X424864Y226611D01*
X424888Y226608D01*
X424909Y226599D01*
X425076Y226581D01*
X474192Y226581D01*
X474263Y226592D01*
G37*
%LPC*%
G36*
X710580Y335347D02*
X710580Y335347D01*
X707032Y336817D01*
X704317Y339532D01*
X702847Y343080D01*
X702847Y346920D01*
X704317Y350468D01*
X707032Y353183D01*
X709720Y354297D01*
X709781Y354335D01*
X709847Y354364D01*
X709885Y354399D01*
X709929Y354426D01*
X709975Y354482D01*
X710028Y354530D01*
X710053Y354576D01*
X710086Y354616D01*
X710112Y354683D01*
X710147Y354746D01*
X710156Y354797D01*
X710174Y354845D01*
X710178Y354917D01*
X710190Y354988D01*
X710183Y355039D01*
X710185Y355091D01*
X710165Y355160D01*
X710154Y355231D01*
X710131Y355277D01*
X710116Y355327D01*
X710076Y355386D01*
X710043Y355450D01*
X710006Y355487D01*
X709976Y355529D01*
X709919Y355572D01*
X709867Y355622D01*
X709805Y355657D01*
X709779Y355676D01*
X709756Y355683D01*
X709720Y355703D01*
X707032Y356817D01*
X704317Y359532D01*
X702847Y363080D01*
X702847Y366920D01*
X704317Y370468D01*
X707032Y373183D01*
X709720Y374297D01*
X709781Y374335D01*
X709847Y374364D01*
X709885Y374399D01*
X709929Y374426D01*
X709975Y374482D01*
X710028Y374530D01*
X710053Y374576D01*
X710086Y374616D01*
X710112Y374683D01*
X710147Y374746D01*
X710156Y374797D01*
X710174Y374845D01*
X710178Y374917D01*
X710190Y374988D01*
X710183Y375039D01*
X710185Y375091D01*
X710165Y375160D01*
X710154Y375231D01*
X710131Y375277D01*
X710116Y375327D01*
X710076Y375386D01*
X710043Y375450D01*
X710006Y375487D01*
X709976Y375529D01*
X709919Y375572D01*
X709867Y375622D01*
X709805Y375657D01*
X709779Y375676D01*
X709756Y375683D01*
X709720Y375703D01*
X707032Y376817D01*
X704317Y379532D01*
X702847Y383080D01*
X702847Y386920D01*
X704317Y390468D01*
X707032Y393183D01*
X710580Y394653D01*
X714420Y394653D01*
X717968Y393183D01*
X720683Y390468D01*
X721797Y387780D01*
X721835Y387719D01*
X721864Y387653D01*
X721899Y387615D01*
X721926Y387570D01*
X721982Y387525D01*
X722030Y387472D01*
X722076Y387447D01*
X722116Y387414D01*
X722183Y387388D01*
X722246Y387353D01*
X722297Y387344D01*
X722345Y387325D01*
X722417Y387322D01*
X722488Y387310D01*
X722539Y387317D01*
X722591Y387315D01*
X722660Y387335D01*
X722731Y387345D01*
X722777Y387369D01*
X722827Y387384D01*
X722886Y387424D01*
X722950Y387457D01*
X722987Y387494D01*
X723029Y387524D01*
X723072Y387581D01*
X723122Y387633D01*
X723157Y387695D01*
X723176Y387721D01*
X723183Y387743D01*
X723203Y387780D01*
X724317Y390468D01*
X727032Y393183D01*
X730580Y394653D01*
X734420Y394653D01*
X737968Y393183D01*
X740683Y390468D01*
X742153Y386920D01*
X742153Y383080D01*
X740683Y379532D01*
X737968Y376817D01*
X735280Y375703D01*
X735219Y375665D01*
X735153Y375636D01*
X735115Y375601D01*
X735071Y375574D01*
X735025Y375518D01*
X734972Y375470D01*
X734947Y375424D01*
X734914Y375384D01*
X734888Y375317D01*
X734853Y375254D01*
X734844Y375203D01*
X734826Y375155D01*
X734822Y375083D01*
X734810Y375012D01*
X734817Y374961D01*
X734815Y374909D01*
X734835Y374840D01*
X734846Y374769D01*
X734869Y374723D01*
X734884Y374673D01*
X734924Y374614D01*
X734957Y374550D01*
X734994Y374513D01*
X735024Y374471D01*
X735081Y374428D01*
X735133Y374378D01*
X735195Y374343D01*
X735221Y374324D01*
X735244Y374317D01*
X735280Y374297D01*
X737968Y373183D01*
X740683Y370468D01*
X742153Y366920D01*
X742153Y363080D01*
X740683Y359532D01*
X737968Y356817D01*
X735280Y355703D01*
X735219Y355665D01*
X735153Y355636D01*
X735115Y355601D01*
X735070Y355574D01*
X735025Y355518D01*
X734972Y355470D01*
X734947Y355424D01*
X734914Y355384D01*
X734888Y355317D01*
X734853Y355254D01*
X734844Y355203D01*
X734825Y355155D01*
X734822Y355083D01*
X734810Y355012D01*
X734817Y354961D01*
X734815Y354909D01*
X734835Y354840D01*
X734845Y354769D01*
X734869Y354723D01*
X734884Y354673D01*
X734924Y354614D01*
X734957Y354550D01*
X734994Y354513D01*
X735024Y354471D01*
X735081Y354428D01*
X735133Y354378D01*
X735195Y354343D01*
X735221Y354324D01*
X735243Y354317D01*
X735280Y354297D01*
X737968Y353183D01*
X740683Y350468D01*
X742153Y346920D01*
X742153Y343080D01*
X740683Y339532D01*
X737968Y336817D01*
X734420Y335347D01*
X730580Y335347D01*
X727032Y336817D01*
X724317Y339532D01*
X723203Y342220D01*
X723165Y342281D01*
X723136Y342347D01*
X723101Y342385D01*
X723074Y342429D01*
X723018Y342475D01*
X722970Y342528D01*
X722924Y342553D01*
X722884Y342586D01*
X722817Y342612D01*
X722754Y342647D01*
X722703Y342656D01*
X722655Y342674D01*
X722583Y342678D01*
X722512Y342690D01*
X722461Y342683D01*
X722409Y342685D01*
X722340Y342665D01*
X722269Y342654D01*
X722223Y342631D01*
X722173Y342616D01*
X722114Y342576D01*
X722050Y342543D01*
X722013Y342506D01*
X721971Y342476D01*
X721928Y342419D01*
X721878Y342367D01*
X721843Y342305D01*
X721824Y342279D01*
X721817Y342256D01*
X721797Y342220D01*
X720683Y339532D01*
X717968Y336817D01*
X714420Y335347D01*
X710580Y335347D01*
G37*
%LPD*%
%LPC*%
G36*
X697894Y299439D02*
X697894Y299439D01*
X695850Y300286D01*
X694286Y301850D01*
X693439Y303894D01*
X693439Y304856D01*
X693425Y304946D01*
X693417Y305037D01*
X693405Y305067D01*
X693400Y305099D01*
X693357Y305180D01*
X693321Y305264D01*
X693295Y305296D01*
X693284Y305316D01*
X693261Y305339D01*
X693216Y305394D01*
X688144Y310466D01*
X688071Y310519D01*
X688001Y310579D01*
X687971Y310591D01*
X687945Y310610D01*
X687858Y310637D01*
X687773Y310671D01*
X687732Y310675D01*
X687710Y310682D01*
X687677Y310681D01*
X687606Y310689D01*
X652912Y310689D01*
X650639Y312961D01*
X650566Y313014D01*
X650496Y313074D01*
X650466Y313086D01*
X650440Y313105D01*
X650353Y313132D01*
X650268Y313166D01*
X650227Y313170D01*
X650205Y313177D01*
X650172Y313176D01*
X650101Y313184D01*
X649139Y313184D01*
X647095Y314031D01*
X645531Y315595D01*
X644684Y317639D01*
X644684Y319851D01*
X645531Y321895D01*
X647095Y323459D01*
X649139Y324306D01*
X651351Y324306D01*
X653395Y323459D01*
X654959Y321895D01*
X655806Y319851D01*
X655806Y319072D01*
X655809Y319052D01*
X655807Y319033D01*
X655829Y318931D01*
X655845Y318829D01*
X655855Y318812D01*
X655859Y318792D01*
X655912Y318703D01*
X655961Y318612D01*
X655975Y318598D01*
X655985Y318581D01*
X656064Y318514D01*
X656139Y318442D01*
X656157Y318434D01*
X656172Y318421D01*
X656268Y318382D01*
X656362Y318339D01*
X656382Y318337D01*
X656400Y318329D01*
X656567Y318311D01*
X691078Y318311D01*
X698606Y310784D01*
X698679Y310731D01*
X698749Y310671D01*
X698779Y310659D01*
X698805Y310640D01*
X698892Y310613D01*
X698977Y310579D01*
X699018Y310575D01*
X699040Y310568D01*
X699073Y310569D01*
X699144Y310561D01*
X700106Y310561D01*
X702150Y309714D01*
X703714Y308150D01*
X704561Y306106D01*
X704561Y303894D01*
X703714Y301850D01*
X702150Y300286D01*
X700106Y299439D01*
X697894Y299439D01*
G37*
%LPD*%
%LPC*%
G36*
X421765Y256069D02*
X421765Y256069D01*
X415069Y262765D01*
X415069Y272235D01*
X421765Y278931D01*
X431235Y278931D01*
X437931Y272235D01*
X437931Y262765D01*
X431235Y256069D01*
X421765Y256069D01*
G37*
%LPD*%
%LPC*%
G36*
X472565Y256069D02*
X472565Y256069D01*
X465869Y262765D01*
X465869Y272235D01*
X472565Y278931D01*
X482035Y278931D01*
X488731Y272235D01*
X488731Y262765D01*
X482035Y256069D01*
X472565Y256069D01*
G37*
%LPD*%
%LPC*%
G36*
X447165Y256069D02*
X447165Y256069D01*
X440469Y262765D01*
X440469Y272235D01*
X447165Y278931D01*
X456635Y278931D01*
X463331Y272235D01*
X463331Y262765D01*
X456635Y256069D01*
X447165Y256069D01*
G37*
%LPD*%
%LPC*%
G36*
X402623Y269023D02*
X402623Y269023D01*
X402623Y278931D01*
X405835Y278931D01*
X412531Y272235D01*
X412531Y269023D01*
X402623Y269023D01*
G37*
%LPD*%
%LPC*%
G36*
X402623Y256069D02*
X402623Y256069D01*
X402623Y265977D01*
X412531Y265977D01*
X412531Y262765D01*
X405835Y256069D01*
X402623Y256069D01*
G37*
%LPD*%
%LPC*%
G36*
X508651Y360424D02*
X508651Y360424D01*
X508651Y363235D01*
X508824Y363882D01*
X509159Y364461D01*
X509632Y364934D01*
X509824Y365045D01*
X509862Y365076D01*
X509904Y365098D01*
X509956Y365153D01*
X510015Y365201D01*
X510040Y365242D01*
X510073Y365276D01*
X510105Y365345D01*
X510146Y365409D01*
X510157Y365456D01*
X510177Y365500D01*
X510185Y365575D01*
X510203Y365648D01*
X510199Y365696D01*
X510204Y365744D01*
X510188Y365818D01*
X510181Y365893D01*
X510162Y365937D01*
X510152Y365984D01*
X510113Y366049D01*
X510083Y366119D01*
X510066Y366137D01*
X510066Y373483D01*
X515083Y373483D01*
X515083Y368672D01*
X514910Y368026D01*
X514576Y367446D01*
X514103Y366973D01*
X513910Y366862D01*
X513873Y366832D01*
X513830Y366809D01*
X513778Y366754D01*
X513720Y366706D01*
X513694Y366666D01*
X513661Y366631D01*
X513629Y366562D01*
X513589Y366498D01*
X513578Y366452D01*
X513557Y366408D01*
X513549Y366333D01*
X513531Y366259D01*
X513536Y366211D01*
X513530Y366164D01*
X513546Y366089D01*
X513553Y366014D01*
X513572Y365970D01*
X513583Y365923D01*
X513621Y365858D01*
X513652Y365789D01*
X513684Y365753D01*
X513709Y365712D01*
X513766Y365663D01*
X513817Y365607D01*
X513859Y365583D01*
X513896Y365552D01*
X513966Y365524D01*
X514032Y365487D01*
X514079Y365478D01*
X514124Y365460D01*
X514252Y365446D01*
X514274Y365442D01*
X514280Y365443D01*
X514291Y365442D01*
X515669Y365442D01*
X515669Y360424D01*
X508651Y360424D01*
G37*
%LPD*%
%LPC*%
G36*
X475257Y342720D02*
X475257Y342720D01*
X475257Y347531D01*
X475430Y348177D01*
X475765Y348757D01*
X476238Y349230D01*
X476817Y349564D01*
X477148Y349653D01*
X477192Y349673D01*
X477239Y349684D01*
X477303Y349723D01*
X477372Y349754D01*
X477407Y349787D01*
X477449Y349812D01*
X477497Y349870D01*
X477552Y349921D01*
X477575Y349964D01*
X477606Y350001D01*
X477633Y350071D01*
X477669Y350137D01*
X477678Y350185D01*
X477695Y350231D01*
X477699Y350306D01*
X477712Y350380D01*
X477704Y350428D01*
X477707Y350476D01*
X477686Y350548D01*
X477675Y350623D01*
X477652Y350666D01*
X477639Y350713D01*
X477596Y350775D01*
X477562Y350841D01*
X477527Y350875D01*
X477499Y350915D01*
X477439Y350960D01*
X477385Y351013D01*
X477342Y351034D01*
X477303Y351063D01*
X477185Y351109D01*
X477164Y351119D01*
X477156Y351120D01*
X477146Y351124D01*
X476723Y351236D01*
X476143Y351570D01*
X475669Y352042D01*
X475334Y352621D01*
X475159Y353267D01*
X475151Y358078D01*
X480169Y358087D01*
X480182Y350497D01*
X480185Y350478D01*
X480183Y350459D01*
X480205Y350357D01*
X480222Y350255D01*
X480231Y350238D01*
X480235Y350219D01*
X480275Y350152D01*
X480275Y342720D01*
X475257Y342720D01*
G37*
%LPD*%
%LPC*%
G36*
X510066Y376530D02*
X510066Y376530D01*
X510066Y384029D01*
X510100Y384103D01*
X510102Y384123D01*
X510110Y384142D01*
X510128Y384308D01*
X510128Y390673D01*
X515146Y390673D01*
X515146Y385862D01*
X514973Y385215D01*
X514638Y384636D01*
X514110Y384108D01*
X514099Y384092D01*
X514083Y384080D01*
X514027Y383993D01*
X513967Y383909D01*
X513961Y383889D01*
X513950Y383873D01*
X513925Y383772D01*
X513894Y383673D01*
X513895Y383653D01*
X513890Y383634D01*
X513898Y383531D01*
X513901Y383428D01*
X513908Y383409D01*
X513909Y383389D01*
X513950Y383294D01*
X513985Y383197D01*
X513998Y383181D01*
X514006Y383163D01*
X514110Y383032D01*
X514576Y382566D01*
X514910Y381987D01*
X515083Y381341D01*
X515083Y376530D01*
X510066Y376530D01*
G37*
%LPD*%
%LPC*%
G36*
X502002Y376530D02*
X502002Y376530D01*
X502002Y381341D01*
X502175Y381987D01*
X502509Y382566D01*
X503037Y383094D01*
X503049Y383111D01*
X503064Y383123D01*
X503120Y383210D01*
X503181Y383294D01*
X503187Y383313D01*
X503197Y383330D01*
X503223Y383430D01*
X503253Y383529D01*
X503253Y383549D01*
X503257Y383569D01*
X503249Y383672D01*
X503247Y383775D01*
X503240Y383794D01*
X503238Y383814D01*
X503198Y383909D01*
X503162Y384006D01*
X503150Y384022D01*
X503142Y384040D01*
X503037Y384171D01*
X502572Y384636D01*
X502238Y385215D01*
X502064Y385862D01*
X502064Y390673D01*
X507082Y390673D01*
X507082Y383174D01*
X507047Y383099D01*
X507045Y383079D01*
X507038Y383061D01*
X507019Y382894D01*
X507019Y376530D01*
X502002Y376530D01*
G37*
%LPD*%
%LPC*%
G36*
X463569Y377828D02*
X463569Y377828D01*
X463569Y378261D01*
X463566Y378281D01*
X463568Y378300D01*
X463546Y378402D01*
X463529Y378504D01*
X463520Y378521D01*
X463516Y378541D01*
X463462Y378630D01*
X463414Y378721D01*
X463400Y378735D01*
X463389Y378752D01*
X463311Y378819D01*
X463236Y378890D01*
X463218Y378899D01*
X463203Y378912D01*
X463106Y378950D01*
X463013Y378994D01*
X462993Y378996D01*
X462974Y379004D01*
X462808Y379022D01*
X456822Y379022D01*
X456822Y384040D01*
X461633Y384040D01*
X462279Y383866D01*
X462858Y383532D01*
X463331Y383059D01*
X463568Y382650D01*
X463580Y382634D01*
X463588Y382616D01*
X463658Y382539D01*
X463723Y382459D01*
X463740Y382449D01*
X463754Y382434D01*
X463844Y382384D01*
X463932Y382329D01*
X463951Y382324D01*
X463969Y382314D01*
X464070Y382295D01*
X464171Y382271D01*
X464191Y382273D01*
X464210Y382269D01*
X464313Y382284D01*
X464416Y382293D01*
X464434Y382301D01*
X464454Y382304D01*
X464608Y382371D01*
X465129Y382672D01*
X465775Y382845D01*
X470586Y382845D01*
X470586Y377828D01*
X463569Y377828D01*
G37*
%LPD*%
%LPC*%
G36*
X465775Y369764D02*
X465775Y369764D01*
X465129Y369937D01*
X464550Y370271D01*
X464077Y370744D01*
X463840Y371154D01*
X463828Y371169D01*
X463820Y371187D01*
X463750Y371264D01*
X463685Y371344D01*
X463668Y371355D01*
X463654Y371369D01*
X463564Y371420D01*
X463476Y371475D01*
X463457Y371479D01*
X463439Y371489D01*
X463338Y371508D01*
X463237Y371532D01*
X463217Y371531D01*
X463198Y371534D01*
X463095Y371520D01*
X462992Y371511D01*
X462974Y371502D01*
X462954Y371500D01*
X462800Y371432D01*
X462279Y371131D01*
X461633Y370958D01*
X456822Y370958D01*
X456822Y375976D01*
X463839Y375976D01*
X463839Y375543D01*
X463842Y375523D01*
X463840Y375503D01*
X463862Y375402D01*
X463879Y375300D01*
X463888Y375282D01*
X463892Y375263D01*
X463946Y375174D01*
X463994Y375082D01*
X464008Y375069D01*
X464019Y375052D01*
X464097Y374984D01*
X464172Y374913D01*
X464190Y374905D01*
X464205Y374892D01*
X464302Y374853D01*
X464395Y374809D01*
X464415Y374807D01*
X464434Y374800D01*
X464600Y374781D01*
X470586Y374781D01*
X470586Y369764D01*
X465775Y369764D01*
G37*
%LPD*%
%LPC*%
G36*
X480263Y376617D02*
X480263Y376617D01*
X480263Y377066D01*
X480259Y377086D01*
X480262Y377106D01*
X480240Y377207D01*
X480223Y377309D01*
X480214Y377327D01*
X480209Y377346D01*
X480156Y377435D01*
X480108Y377527D01*
X480093Y377540D01*
X480083Y377557D01*
X480004Y377625D01*
X479929Y377696D01*
X479911Y377704D01*
X479896Y377717D01*
X479800Y377756D01*
X479706Y377800D01*
X479687Y377802D01*
X479668Y377809D01*
X479501Y377828D01*
X473633Y377828D01*
X473633Y382845D01*
X478444Y382845D01*
X479090Y382672D01*
X479670Y382338D01*
X480143Y381865D01*
X480357Y381494D01*
X480369Y381479D01*
X480377Y381460D01*
X480410Y381425D01*
X480434Y381385D01*
X480475Y381349D01*
X480512Y381304D01*
X480529Y381293D01*
X480543Y381278D01*
X480586Y381254D01*
X480620Y381225D01*
X480670Y381205D01*
X480721Y381173D01*
X480740Y381168D01*
X480758Y381159D01*
X480808Y381149D01*
X480849Y381133D01*
X480921Y381125D01*
X480960Y381116D01*
X480980Y381117D01*
X480999Y381114D01*
X481009Y381115D01*
X481015Y381114D01*
X481018Y381114D01*
X481098Y381128D01*
X481102Y381128D01*
X481205Y381137D01*
X481223Y381145D01*
X481243Y381148D01*
X481255Y381153D01*
X481260Y381154D01*
X481277Y381163D01*
X481397Y381215D01*
X481823Y381461D01*
X482469Y381635D01*
X487280Y381635D01*
X487280Y376617D01*
X480263Y376617D01*
G37*
%LPD*%
%LPC*%
G36*
X490326Y376617D02*
X490326Y376617D01*
X490326Y381635D01*
X495138Y381635D01*
X495784Y381461D01*
X496363Y381127D01*
X496836Y380654D01*
X497171Y380075D01*
X497344Y379428D01*
X497344Y376617D01*
X490326Y376617D01*
G37*
%LPD*%
%LPC*%
G36*
X499621Y359114D02*
X499621Y359114D01*
X499621Y364132D01*
X504433Y364132D01*
X505079Y363959D01*
X505658Y363624D01*
X506131Y363151D01*
X506466Y362572D01*
X506639Y361926D01*
X506639Y359114D01*
X499621Y359114D01*
G37*
%LPD*%
%LPC*%
G36*
X446758Y379022D02*
X446758Y379022D01*
X446758Y381833D01*
X446931Y382480D01*
X447265Y383059D01*
X447738Y383532D01*
X448318Y383866D01*
X448964Y384040D01*
X453775Y384040D01*
X453775Y379022D01*
X446758Y379022D01*
G37*
%LPD*%
%LPC*%
G36*
X490326Y368553D02*
X490326Y368553D01*
X490326Y373571D01*
X497344Y373571D01*
X497344Y370759D01*
X497171Y370113D01*
X496836Y369534D01*
X496363Y369061D01*
X495784Y368726D01*
X495138Y368553D01*
X490326Y368553D01*
G37*
%LPD*%
%LPC*%
G36*
X499621Y351051D02*
X499621Y351051D01*
X499621Y356068D01*
X506639Y356068D01*
X506639Y353257D01*
X506466Y352611D01*
X506131Y352031D01*
X505658Y351558D01*
X505079Y351224D01*
X504433Y351051D01*
X499621Y351051D01*
G37*
%LPD*%
%LPC*%
G36*
X448964Y370958D02*
X448964Y370958D01*
X448318Y371131D01*
X447738Y371466D01*
X447265Y371939D01*
X446931Y372518D01*
X446758Y373164D01*
X446758Y375976D01*
X453775Y375976D01*
X453775Y370958D01*
X448964Y370958D01*
G37*
%LPD*%
%LPC*%
G36*
X504208Y366466D02*
X504208Y366466D01*
X503562Y366639D01*
X502982Y366973D01*
X502509Y367446D01*
X502175Y368026D01*
X502002Y368672D01*
X502002Y373483D01*
X507019Y373483D01*
X507019Y366466D01*
X504208Y366466D01*
G37*
%LPD*%
%LPC*%
G36*
X510857Y352360D02*
X510857Y352360D01*
X510211Y352533D01*
X509632Y352868D01*
X509159Y353341D01*
X508824Y353920D01*
X508651Y354567D01*
X508651Y357378D01*
X515669Y357378D01*
X515669Y352360D01*
X510857Y352360D01*
G37*
%LPD*%
%LPC*%
G36*
X477464Y332656D02*
X477464Y332656D01*
X476817Y332829D01*
X476238Y333163D01*
X475765Y333637D01*
X475430Y334216D01*
X475257Y334862D01*
X475257Y339673D01*
X480275Y339673D01*
X480275Y332656D01*
X477464Y332656D01*
G37*
%LPD*%
%LPC*%
G36*
X455298Y377498D02*
X455298Y377498D01*
X455298Y377500D01*
X455299Y377500D01*
X455299Y377498D01*
X455298Y377498D01*
G37*
%LPD*%
%LPC*%
G36*
X472109Y376304D02*
X472109Y376304D01*
X472109Y376305D01*
X472111Y376305D01*
X472111Y376304D01*
X472109Y376304D01*
G37*
%LPD*%
%LPC*%
G36*
X488802Y375093D02*
X488802Y375093D01*
X488802Y375095D01*
X488804Y375095D01*
X488804Y375093D01*
X488802Y375093D01*
G37*
%LPD*%
%LPC*%
G36*
X508542Y375006D02*
X508542Y375006D01*
X508542Y375007D01*
X508543Y375007D01*
X508543Y375006D01*
X508542Y375006D01*
G37*
%LPD*%
D10*
X508542Y375007D03*
X526542Y375007D03*
D11*
X455298Y377499D03*
X455298Y395499D03*
X517192Y340901D03*
X517192Y358901D03*
D10*
X508605Y392196D03*
X526605Y392196D03*
X481798Y341197D03*
X463798Y341197D03*
D11*
X488803Y375094D03*
X488803Y393094D03*
X472110Y376305D03*
X472110Y394305D03*
D10*
G36*
X477679Y365605D02*
X485678Y365618D01*
X485699Y353619D01*
X477700Y353606D01*
X477679Y365605D01*
G37*
G36*
X459679Y365574D02*
X467678Y365587D01*
X467699Y353588D01*
X459700Y353575D01*
X459679Y365574D01*
G37*
D11*
X498098Y339591D03*
X498098Y357591D03*
D12*
X530000Y238000D03*
X510000Y238000D03*
X490000Y238000D03*
X470000Y238000D03*
X450000Y238000D03*
X267500Y345000D03*
X267500Y365000D03*
X267500Y385000D03*
X247500Y345000D03*
X247500Y365000D03*
X247500Y385000D03*
X712500Y345000D03*
X712500Y365000D03*
X712500Y385000D03*
X732500Y345000D03*
X732500Y365000D03*
X732500Y385000D03*
X400000Y300000D03*
X490000Y462500D03*
X580000Y300000D03*
D13*
X375700Y267500D03*
X401100Y267500D03*
X426500Y267500D03*
X451900Y267500D03*
X477300Y267500D03*
X502700Y267500D03*
X528100Y267500D03*
X553500Y267500D03*
X578900Y267500D03*
X604300Y267500D03*
D12*
X305000Y265000D03*
X325000Y265000D03*
X345000Y265000D03*
X635000Y267500D03*
X655000Y267500D03*
X675000Y267500D03*
X287500Y385000D03*
X307500Y385000D03*
X546958Y462663D03*
X560000Y447500D03*
X573042Y432337D03*
X407118Y432202D03*
X420000Y447500D03*
X432882Y462798D03*
X727500Y305000D03*
X727500Y285000D03*
X727500Y265000D03*
X252500Y265000D03*
X252500Y285000D03*
X252500Y305000D03*
X395900Y326800D03*
D14*
X622000Y340000D03*
X693600Y296500D03*
X509500Y462000D03*
X419000Y397500D03*
X340500Y306000D03*
X379500Y383500D03*
X310500Y300000D03*
X498800Y367200D03*
X472400Y411700D03*
X421954Y343700D03*
D15*
X425400Y343700D01*
D14*
X653000Y285350D03*
D16*
X653000Y284300D01*
D14*
X674043Y382000D03*
D15*
X517192Y340901D02*
X517192Y332808D01*
X525000Y325000D01*
D14*
X525000Y325000D03*
D15*
X463798Y341197D02*
X455697Y341197D01*
X453900Y341200D01*
D14*
X453900Y341200D03*
D15*
X473320Y393094D02*
X488803Y393094D01*
X473320Y393094D02*
X472110Y394305D01*
X456493Y394305D01*
X455298Y395499D01*
X455298Y404798D01*
X455500Y405000D01*
D14*
X455500Y405000D03*
D15*
X526542Y392133D02*
X526542Y375007D01*
X526542Y392133D02*
X526605Y392196D01*
X529500Y353209D02*
X517192Y340901D01*
X529150Y364350D02*
X526500Y367000D01*
X526500Y374964D01*
X526542Y375007D01*
D16*
X526605Y392196D02*
X517001Y401800D01*
X497509Y401800D02*
X488803Y393094D01*
X506500Y401800D02*
X517001Y401800D01*
X506500Y401800D02*
X497509Y401800D01*
D15*
X529150Y364350D02*
X529500Y364000D01*
D14*
X529150Y364350D03*
D15*
X529500Y364000D02*
X529500Y353209D01*
D16*
X506500Y401800D02*
X508900Y404200D01*
X508900Y406686D01*
D14*
X508900Y406686D03*
D15*
X526605Y392196D02*
X543718Y392196D01*
X559600Y376314D01*
D14*
X559600Y376314D03*
X452500Y331700D03*
D15*
X426600Y305800D01*
X426600Y302500D01*
D14*
X426600Y302500D03*
X516500Y324000D03*
D15*
X513689Y324000D01*
X498098Y339591D01*
X394600Y412900D02*
X363800Y382100D01*
X363800Y353100D01*
X379000Y337900D01*
X379000Y326700D01*
X380300Y325400D01*
D14*
X380300Y325400D03*
X381300Y293300D03*
D15*
X388400Y286200D01*
D14*
X482700Y405800D03*
D15*
X469800Y405800D01*
X462700Y412900D01*
X394600Y412900D01*
D14*
X402300Y247100D03*
D15*
X388400Y261000D01*
X388400Y286200D01*
X574000Y395400D02*
X582700Y395400D01*
D14*
X582700Y395400D03*
D15*
X574000Y395400D02*
X558300Y411100D01*
D14*
X539739Y435039D03*
D15*
X558300Y416478D01*
X558300Y411100D01*
D14*
X534856Y440853D03*
D15*
X542147Y440853D01*
X562041Y420959D01*
X562141Y420959D01*
D14*
X562141Y420959D03*
X454000Y359500D03*
D15*
X454081Y359581D01*
X463689Y359581D01*
D14*
X517500Y296200D03*
D15*
X517500Y276500D01*
X515500Y274500D01*
X515500Y243500D01*
X510000Y238000D01*
D14*
X564000Y319000D03*
D15*
X480000Y228000D02*
X470000Y238000D01*
X480000Y228000D02*
X547150Y228000D01*
X550750Y231600D01*
X550800Y231600D01*
D14*
X550800Y231600D03*
X566211Y246589D03*
D15*
X566211Y316789D02*
X564000Y319000D01*
X566211Y316789D02*
X566211Y246589D01*
D14*
X499490Y407868D03*
D15*
X504122Y412500D01*
X535900Y412500D01*
X567000Y381400D02*
X567000Y381100D01*
D14*
X567000Y381100D03*
D15*
X567000Y381400D02*
X535900Y412500D01*
D14*
X420000Y294500D03*
D15*
X496000Y294500D01*
X501000Y289500D01*
D14*
X501000Y289500D03*
X533000Y289500D03*
D15*
X554500Y311000D01*
D14*
X330800Y299000D03*
X361889Y299111D03*
D15*
X361778Y299000D02*
X330800Y299000D01*
X361778Y299000D02*
X361889Y299111D01*
X554500Y311000D02*
X554500Y319300D01*
X561400Y326200D02*
X570200Y326200D01*
D14*
X570200Y326200D03*
D15*
X561400Y326200D02*
X554500Y319300D01*
D14*
X650245Y318745D03*
D15*
X654490Y314500D01*
X689500Y314500D01*
D14*
X699000Y305000D03*
D15*
X689500Y314500D01*
D14*
X532000Y342500D03*
D15*
X560000Y370500D01*
X569900Y370500D01*
X595800Y396400D01*
X595800Y417183D01*
X586100Y428500D01*
X582263Y432337D01*
X573042Y432337D01*
D14*
X575000Y286000D03*
D15*
X581816Y279184D01*
X609140Y279184D02*
X615984Y272340D01*
X609140Y279184D02*
X581816Y279184D01*
X721350Y258850D02*
X727500Y265000D01*
X615984Y263416D02*
X615984Y272340D01*
X627000Y252400D02*
X680500Y252400D01*
X686950Y258850D01*
X627000Y252400D02*
X615984Y263416D01*
X686950Y258850D02*
X721350Y258850D01*
D14*
X418000Y310000D03*
D15*
X381000Y310000D01*
X362000Y291000D01*
X290000Y291000D01*
X289500Y290500D01*
D14*
X289500Y290500D03*
D15*
X394500Y391000D02*
X409500Y376000D01*
D14*
X394500Y391000D03*
D15*
X409500Y326200D02*
X412300Y323400D01*
D14*
X412300Y323400D03*
D15*
X409500Y326200D02*
X409500Y376000D01*
X296500Y265000D02*
X270000Y291500D01*
X296500Y265000D02*
X305000Y265000D01*
X257594Y354906D02*
X247500Y365000D01*
X257594Y354906D02*
X257594Y335906D01*
X270000Y323500D02*
X270000Y291500D01*
X270000Y323500D02*
X257594Y335906D01*
X275000Y294000D02*
X289500Y279500D01*
X310500Y279500D01*
X325000Y265000D01*
X275000Y326000D02*
X267500Y333500D01*
X267500Y345000D01*
X275000Y326000D02*
X275000Y294000D01*
D14*
X354200Y352400D03*
D16*
X317300Y352400D01*
X317200Y352500D01*
D14*
X317200Y352500D03*
X282000Y313900D03*
D16*
X282000Y327900D01*
X290200Y336100D01*
D14*
X290200Y336100D03*
X452500Y433700D03*
D16*
X505600Y437700D02*
X512200Y431100D01*
X531900Y431100D01*
D14*
X575800Y387200D03*
D16*
X678700Y348200D02*
X696500Y330400D01*
D14*
X696500Y330400D03*
D16*
X575800Y387200D02*
X531900Y431100D01*
D14*
X585500Y377500D03*
D16*
X614800Y348200D01*
X678700Y348200D01*
X456500Y437700D02*
X452500Y433700D01*
X456500Y437700D02*
X505600Y437700D01*
D15*
X260500Y398000D02*
X247500Y385000D01*
X260500Y398000D02*
X294500Y398000D01*
X307500Y385000D01*
X287500Y385000D02*
X267500Y385000D01*
X378500Y300000D02*
X400000Y300000D01*
X362500Y284000D02*
X356000Y284000D01*
D14*
X356000Y284000D03*
D15*
X362500Y284000D02*
X378500Y300000D01*
X580000Y300000D02*
X580000Y290000D01*
X586000Y284000D01*
X611500Y284000D01*
X621500Y274000D01*
X621500Y266500D01*
X630406Y257594D01*
X645094Y257594D02*
X655000Y267500D01*
X645094Y257594D02*
X630406Y257594D01*
X715000Y294700D02*
X715000Y312450D01*
X715000Y294700D02*
X687800Y267500D01*
X675000Y267500D01*
D14*
X727550Y325000D03*
D15*
X715000Y312450D01*
M02*
