M48
;GenerationSoftware,Autodesk,EAGLE,8.6.0*%
;CreationDate,2018-03-03T08:39:01Z*%
FMAT,2
ICI,OFF
METRIC,TZ,000.000
T3C0.350
T2C0.800
T1C1.016
%
G90
M71
T1
X45190Y26750
X37570Y26750
X40110Y26750
X42650Y26750
X47730Y26750
X50270Y26750
X52810Y26750
X55350Y26750
X57890Y26750
X60430Y26750
T2
X47000Y23800
X45000Y23800
X26750Y34500
X26750Y36500
X26750Y38500
X24750Y36500
X24750Y38500
X71250Y34500
X71250Y36500
X71250Y38500
X73250Y34500
X73250Y36500
X73250Y38500
X40000Y30000
X58000Y30000
X49000Y46250
X24750Y34500
X30750Y38500
X53000Y23800
X51000Y23800
X49000Y23800
X30500Y26500
X32500Y26500
X34500Y26500
X63500Y26750
X65500Y26750
X67500Y26750
X28750Y38500
X54696Y46266
X56000Y44750
X57304Y43234
X40712Y43220
X42000Y44750
X43288Y46280
X72750Y30500
X72750Y28500
X72750Y26500
X25250Y26500
X25250Y28500
X25250Y30500
X39590Y32680
T3
X31720Y35250
X28200Y31390
X29020Y33610
X45250Y43370
X45390Y34120
X69650Y33040
X58550Y37750
X35600Y28400
X72755Y32500
X62200Y34000
X69360Y29650
X50950Y46200
X41900Y39750
X34050Y30600
X37950Y38350
X31050Y30000
X49880Y36720
X57580Y38720
X47240Y41170
X42195Y34370
X65300Y28535
X67404Y38200
X52500Y32500
X45550Y40500
X52915Y36435
X50890Y40669
X55960Y37631
X45250Y33170
X42660Y30250
X51650Y32400
X38030Y32540
X38130Y29330
X48270Y40580
X40230Y24710
X58270Y39540
X53974Y43504
X53486Y44085
X56214Y42096
X45400Y35950
X51750Y29620
X56400Y31900
X55080Y23160
X56621Y24659
X49949Y40787
X56700Y38110
X42000Y29450
X65024Y31874
X50100Y28950
X53300Y28950
X33080Y29900
X36189Y29911
X57020Y32620
X69900Y30500
X53200Y34250
X57500Y28600
X41800Y31000
X28950Y29050
X39450Y39100
X41230Y32340
X35420Y35240
M30