G04 EAGLE Gerber X2 export*
G04 #@! %TF.Part,Single*
G04 #@! %TF.FileFunction,Profile,NP*
G04 #@! %TF.FilePolarity,Positive*
G04 #@! %TF.GenerationSoftware,Autodesk,EAGLE,8.6.0*
G04 #@! %TF.CreationDate,2018-03-03T08:39:01Z*
G75*
%MOMM*%
%FSLAX34Y34*%
%LPD*%
%AMOC8*
5,1,8,0,0,1.08239X$1,22.5*%
G01*
%ADD10C,0.254000*%


D10*
X230000Y297500D02*
X240000Y287500D01*
X240000Y257500D01*
X240019Y257064D01*
X240076Y256632D01*
X240170Y256206D01*
X240302Y255790D01*
X240468Y255387D01*
X240670Y255000D01*
X240904Y254632D01*
X241170Y254286D01*
X241464Y253964D01*
X241786Y253670D01*
X242132Y253404D01*
X242500Y253170D01*
X242887Y252968D01*
X243290Y252802D01*
X243706Y252670D01*
X244132Y252576D01*
X244564Y252519D01*
X245000Y252500D01*
X378500Y252500D01*
X423250Y221500D01*
X556500Y221500D01*
X601500Y252500D01*
X617000Y252500D01*
X624000Y245500D01*
X682750Y245500D01*
X690000Y252500D01*
X735000Y252500D01*
X735436Y252519D01*
X735868Y252576D01*
X736294Y252670D01*
X736710Y252802D01*
X737113Y252968D01*
X737500Y253170D01*
X737868Y253404D01*
X738214Y253670D01*
X738536Y253964D01*
X738830Y254286D01*
X739096Y254632D01*
X739330Y255000D01*
X739532Y255387D01*
X739698Y255790D01*
X739830Y256206D01*
X739924Y256632D01*
X739981Y257064D01*
X740000Y257500D01*
X740000Y285000D01*
X750000Y295000D01*
X750000Y395000D01*
X740000Y405000D01*
X615000Y405000D01*
X555000Y475000D01*
X425000Y475000D01*
X365000Y405000D01*
X240000Y405000D01*
X230000Y395000D01*
X230000Y297500D01*
M02*
