G04 EAGLE Gerber X2 export*
G04 #@! %TF.Part,Single*
G04 #@! %TF.FileFunction,Legend,Top,1*
G04 #@! %TF.FilePolarity,Positive*
G04 #@! %TF.GenerationSoftware,Autodesk,EAGLE,8.6.0*
G04 #@! %TF.CreationDate,2018-03-03T08:39:01Z*
G75*
%MOMM*%
%FSLAX34Y34*%
%LPD*%
%AMOC8*
5,1,8,0,0,1.08239X$1,22.5*%
G01*
%ADD10C,0.127000*%
%ADD11C,0.152400*%
%ADD12C,0.076200*%
%ADD13R,0.508000X0.508000*%
%ADD14C,0.025400*%
%ADD15C,0.203200*%
%ADD16R,0.508000X0.508000*%

G36*
X523049Y389897D02*
X523049Y389897D01*
X523095Y389910D01*
X523171Y389921D01*
X524362Y390282D01*
X524405Y390304D01*
X524477Y390330D01*
X525575Y390917D01*
X525613Y390946D01*
X525678Y390986D01*
X526641Y391775D01*
X526672Y391812D01*
X526728Y391863D01*
X527518Y392826D01*
X527542Y392868D01*
X527587Y392929D01*
X528174Y394027D01*
X528189Y394073D01*
X528222Y394142D01*
X528583Y395333D01*
X528588Y395373D01*
X528592Y395386D01*
X528592Y395394D01*
X528607Y395455D01*
X528729Y396694D01*
X528725Y396742D01*
X528729Y396818D01*
X528607Y398057D01*
X528594Y398103D01*
X528591Y398127D01*
X528590Y398147D01*
X528586Y398156D01*
X528583Y398179D01*
X528222Y399370D01*
X528200Y399413D01*
X528174Y399485D01*
X527587Y400583D01*
X527557Y400620D01*
X527518Y400686D01*
X526728Y401648D01*
X526692Y401680D01*
X526641Y401736D01*
X525678Y402526D01*
X525636Y402549D01*
X525575Y402595D01*
X524477Y403182D01*
X524431Y403197D01*
X524362Y403229D01*
X523171Y403591D01*
X523123Y403596D01*
X523049Y403615D01*
X521810Y403737D01*
X521762Y403733D01*
X521686Y403737D01*
X520447Y403615D01*
X520401Y403602D01*
X520325Y403591D01*
X519134Y403229D01*
X519091Y403207D01*
X519019Y403182D01*
X517921Y402595D01*
X517883Y402565D01*
X517818Y402526D01*
X516856Y401736D01*
X516824Y401700D01*
X516768Y401648D01*
X515978Y400686D01*
X515954Y400644D01*
X515909Y400583D01*
X515322Y399485D01*
X515307Y399439D01*
X515274Y399370D01*
X514913Y398179D01*
X514908Y398136D01*
X514899Y398111D01*
X514900Y398100D01*
X514889Y398057D01*
X514767Y396818D01*
X514771Y396770D01*
X514767Y396694D01*
X514889Y395455D01*
X514902Y395409D01*
X514913Y395333D01*
X515274Y394142D01*
X515296Y394099D01*
X515322Y394027D01*
X515909Y392929D01*
X515939Y392891D01*
X515978Y392826D01*
X516768Y391863D01*
X516804Y391832D01*
X516856Y391775D01*
X517818Y390986D01*
X517860Y390962D01*
X517921Y390917D01*
X519019Y390330D01*
X519065Y390315D01*
X519134Y390282D01*
X520325Y389921D01*
X520373Y389915D01*
X520447Y389897D01*
X521686Y389775D01*
X521734Y389778D01*
X521810Y389775D01*
X523049Y389897D01*
G37*
D10*
X636104Y388024D02*
X635032Y388024D01*
X634967Y388026D01*
X634903Y388032D01*
X634839Y388042D01*
X634775Y388055D01*
X634713Y388073D01*
X634652Y388094D01*
X634592Y388118D01*
X634534Y388147D01*
X634477Y388179D01*
X634423Y388214D01*
X634371Y388252D01*
X634321Y388294D01*
X634274Y388338D01*
X634230Y388385D01*
X634188Y388435D01*
X634150Y388487D01*
X634115Y388541D01*
X634083Y388598D01*
X634054Y388656D01*
X634030Y388716D01*
X634009Y388777D01*
X633991Y388839D01*
X633978Y388903D01*
X633968Y388967D01*
X633962Y389031D01*
X633960Y389096D01*
X633959Y389096D02*
X633959Y391777D01*
X633960Y391777D02*
X633962Y391842D01*
X633968Y391906D01*
X633978Y391970D01*
X633991Y392034D01*
X634009Y392096D01*
X634030Y392157D01*
X634054Y392217D01*
X634083Y392275D01*
X634115Y392332D01*
X634150Y392386D01*
X634188Y392438D01*
X634230Y392488D01*
X634274Y392535D01*
X634321Y392579D01*
X634371Y392621D01*
X634423Y392659D01*
X634477Y392694D01*
X634534Y392726D01*
X634592Y392755D01*
X634652Y392779D01*
X634713Y392800D01*
X634775Y392818D01*
X634839Y392831D01*
X634903Y392841D01*
X634967Y392847D01*
X635032Y392849D01*
X635032Y392850D02*
X636104Y392850D01*
X638560Y391777D02*
X639901Y392850D01*
X639901Y388024D01*
X641241Y388024D02*
X638560Y388024D01*
X674593Y401873D02*
X675665Y401873D01*
X674593Y401874D02*
X674528Y401876D01*
X674464Y401882D01*
X674400Y401892D01*
X674336Y401905D01*
X674274Y401923D01*
X674213Y401944D01*
X674153Y401968D01*
X674095Y401997D01*
X674038Y402029D01*
X673984Y402064D01*
X673932Y402102D01*
X673882Y402144D01*
X673835Y402188D01*
X673791Y402235D01*
X673749Y402285D01*
X673711Y402337D01*
X673676Y402391D01*
X673644Y402448D01*
X673615Y402506D01*
X673591Y402566D01*
X673570Y402627D01*
X673552Y402689D01*
X673539Y402753D01*
X673529Y402817D01*
X673523Y402881D01*
X673521Y402946D01*
X673520Y402946D02*
X673520Y405627D01*
X673521Y405627D02*
X673523Y405692D01*
X673529Y405756D01*
X673539Y405820D01*
X673552Y405884D01*
X673570Y405946D01*
X673591Y406007D01*
X673615Y406067D01*
X673644Y406125D01*
X673676Y406182D01*
X673711Y406236D01*
X673749Y406288D01*
X673791Y406338D01*
X673835Y406385D01*
X673882Y406429D01*
X673932Y406471D01*
X673984Y406509D01*
X674038Y406544D01*
X674095Y406576D01*
X674153Y406605D01*
X674213Y406629D01*
X674274Y406650D01*
X674336Y406668D01*
X674400Y406681D01*
X674464Y406691D01*
X674528Y406697D01*
X674593Y406699D01*
X675665Y406699D01*
X679595Y406700D02*
X679663Y406698D01*
X679730Y406692D01*
X679797Y406683D01*
X679864Y406670D01*
X679929Y406653D01*
X679994Y406632D01*
X680057Y406608D01*
X680119Y406580D01*
X680179Y406549D01*
X680237Y406515D01*
X680293Y406477D01*
X680348Y406437D01*
X680399Y406393D01*
X680448Y406346D01*
X680495Y406297D01*
X680539Y406246D01*
X680579Y406191D01*
X680617Y406135D01*
X680651Y406077D01*
X680682Y406017D01*
X680710Y405955D01*
X680734Y405892D01*
X680755Y405827D01*
X680772Y405762D01*
X680785Y405695D01*
X680794Y405628D01*
X680800Y405561D01*
X680802Y405493D01*
X679595Y406699D02*
X679517Y406697D01*
X679439Y406691D01*
X679362Y406681D01*
X679285Y406668D01*
X679209Y406650D01*
X679134Y406629D01*
X679060Y406604D01*
X678988Y406575D01*
X678917Y406543D01*
X678848Y406507D01*
X678780Y406468D01*
X678715Y406425D01*
X678652Y406379D01*
X678591Y406330D01*
X678533Y406278D01*
X678478Y406223D01*
X678425Y406166D01*
X678376Y406106D01*
X678329Y406043D01*
X678286Y405979D01*
X678246Y405912D01*
X678209Y405843D01*
X678176Y405772D01*
X678146Y405700D01*
X678120Y405627D01*
X680400Y404555D02*
X680449Y404604D01*
X680496Y404656D01*
X680539Y404711D01*
X680580Y404768D01*
X680618Y404827D01*
X680652Y404888D01*
X680683Y404951D01*
X680711Y405015D01*
X680735Y405081D01*
X680755Y405147D01*
X680772Y405215D01*
X680785Y405284D01*
X680794Y405353D01*
X680800Y405423D01*
X680802Y405493D01*
X680400Y404554D02*
X678121Y401873D01*
X680802Y401873D01*
D11*
X539998Y407506D02*
X539998Y322506D01*
X532498Y415006D02*
X447498Y415006D01*
X439998Y407506D02*
X439998Y322506D01*
X447498Y315006D02*
X532498Y315006D01*
X539998Y322506D01*
X447498Y315006D02*
X439998Y322506D01*
X439998Y407506D02*
X447498Y415006D01*
X532498Y415006D02*
X539998Y407506D01*
D10*
X491127Y358165D02*
X487458Y358165D01*
X491127Y358166D02*
X491201Y358168D01*
X491274Y358174D01*
X491348Y358183D01*
X491420Y358197D01*
X491492Y358214D01*
X491563Y358235D01*
X491633Y358260D01*
X491701Y358288D01*
X491768Y358320D01*
X491833Y358355D01*
X491895Y358394D01*
X491956Y358435D01*
X492015Y358480D01*
X492071Y358528D01*
X492125Y358579D01*
X492176Y358633D01*
X492224Y358689D01*
X492269Y358748D01*
X492310Y358809D01*
X492349Y358872D01*
X492384Y358936D01*
X492416Y359003D01*
X492444Y359071D01*
X492469Y359141D01*
X492490Y359212D01*
X492507Y359284D01*
X492521Y359356D01*
X492530Y359430D01*
X492536Y359503D01*
X492538Y359577D01*
X492536Y359651D01*
X492530Y359724D01*
X492521Y359798D01*
X492507Y359870D01*
X492490Y359942D01*
X492469Y360013D01*
X492444Y360083D01*
X492416Y360151D01*
X492384Y360218D01*
X492349Y360283D01*
X492310Y360345D01*
X492269Y360406D01*
X492224Y360465D01*
X492176Y360521D01*
X492125Y360575D01*
X492071Y360626D01*
X492015Y360674D01*
X491956Y360719D01*
X491895Y360760D01*
X491833Y360799D01*
X491768Y360834D01*
X491701Y360866D01*
X491633Y360894D01*
X491563Y360919D01*
X491492Y360940D01*
X491420Y360957D01*
X491348Y360971D01*
X491274Y360980D01*
X491201Y360986D01*
X491127Y360988D01*
X487458Y360988D01*
X487458Y365101D02*
X492538Y365101D01*
X489998Y365101D02*
X489575Y364396D01*
X489575Y364395D02*
X489544Y364348D01*
X489510Y364302D01*
X489473Y364259D01*
X489434Y364219D01*
X489391Y364181D01*
X489347Y364146D01*
X489300Y364115D01*
X489251Y364086D01*
X489200Y364061D01*
X489147Y364039D01*
X489094Y364021D01*
X489039Y364007D01*
X488983Y363996D01*
X488927Y363989D01*
X488870Y363986D01*
X488814Y363987D01*
X488757Y363991D01*
X488701Y364000D01*
X488646Y364012D01*
X488591Y364027D01*
X488538Y364047D01*
X488486Y364069D01*
X488436Y364096D01*
X488388Y364125D01*
X488341Y364158D01*
X488298Y364194D01*
X488256Y364233D01*
X488217Y364274D01*
X488182Y364318D01*
X488149Y364364D01*
X488119Y364412D01*
X488093Y364463D01*
X488070Y364514D01*
X488051Y364568D01*
X488035Y364622D01*
X488023Y364678D01*
X488022Y364678D02*
X488008Y364767D01*
X487997Y364856D01*
X487990Y364945D01*
X487986Y365034D01*
X487986Y365124D01*
X487990Y365213D01*
X487997Y365303D01*
X488008Y365392D01*
X488022Y365480D01*
X488040Y365568D01*
X488061Y365655D01*
X488086Y365741D01*
X488114Y365826D01*
X488146Y365910D01*
X488181Y365992D01*
X488219Y366073D01*
X488260Y366153D01*
X488305Y366230D01*
X489998Y365101D02*
X490421Y365807D01*
X490452Y365854D01*
X490486Y365900D01*
X490523Y365943D01*
X490562Y365983D01*
X490605Y366021D01*
X490649Y366056D01*
X490696Y366087D01*
X490745Y366116D01*
X490796Y366141D01*
X490849Y366163D01*
X490902Y366181D01*
X490957Y366195D01*
X491013Y366206D01*
X491069Y366213D01*
X491126Y366216D01*
X491182Y366215D01*
X491239Y366211D01*
X491295Y366202D01*
X491350Y366190D01*
X491405Y366175D01*
X491458Y366155D01*
X491510Y366133D01*
X491560Y366106D01*
X491608Y366077D01*
X491655Y366044D01*
X491698Y366008D01*
X491740Y365969D01*
X491779Y365928D01*
X491814Y365884D01*
X491847Y365838D01*
X491877Y365790D01*
X491903Y365739D01*
X491926Y365688D01*
X491945Y365634D01*
X491961Y365580D01*
X491973Y365525D01*
X491974Y365525D02*
X491988Y365436D01*
X491999Y365348D01*
X492006Y365258D01*
X492010Y365169D01*
X492010Y365079D01*
X492006Y364990D01*
X491999Y364900D01*
X491988Y364811D01*
X491974Y364723D01*
X491956Y364635D01*
X491935Y364548D01*
X491910Y364462D01*
X491882Y364377D01*
X491850Y364293D01*
X491815Y364211D01*
X491777Y364130D01*
X491736Y364050D01*
X491691Y363973D01*
X488587Y369024D02*
X487458Y370435D01*
X492538Y370435D01*
X492538Y369024D02*
X492538Y371846D01*
X310851Y300257D02*
X310851Y299184D01*
X310849Y299119D01*
X310843Y299055D01*
X310833Y298991D01*
X310820Y298927D01*
X310802Y298865D01*
X310781Y298804D01*
X310757Y298744D01*
X310728Y298686D01*
X310696Y298629D01*
X310661Y298575D01*
X310623Y298523D01*
X310581Y298473D01*
X310537Y298426D01*
X310490Y298382D01*
X310440Y298340D01*
X310388Y298302D01*
X310334Y298267D01*
X310277Y298235D01*
X310219Y298206D01*
X310159Y298182D01*
X310098Y298161D01*
X310036Y298143D01*
X309972Y298130D01*
X309908Y298120D01*
X309844Y298114D01*
X309779Y298112D01*
X307097Y298112D01*
X307032Y298114D01*
X306968Y298120D01*
X306904Y298130D01*
X306840Y298143D01*
X306778Y298161D01*
X306717Y298182D01*
X306657Y298207D01*
X306598Y298235D01*
X306542Y298267D01*
X306487Y298302D01*
X306435Y298340D01*
X306385Y298382D01*
X306338Y298426D01*
X306294Y298473D01*
X306252Y298523D01*
X306214Y298575D01*
X306179Y298630D01*
X306147Y298686D01*
X306119Y298745D01*
X306094Y298804D01*
X306073Y298866D01*
X306055Y298928D01*
X306042Y298992D01*
X306032Y299056D01*
X306026Y299120D01*
X306024Y299185D01*
X306025Y299184D02*
X306025Y300257D01*
X306025Y303042D02*
X310851Y303042D01*
X306025Y303042D02*
X306025Y304383D01*
X306027Y304454D01*
X306033Y304526D01*
X306042Y304596D01*
X306055Y304666D01*
X306072Y304736D01*
X306093Y304804D01*
X306117Y304871D01*
X306145Y304937D01*
X306176Y305001D01*
X306211Y305064D01*
X306249Y305124D01*
X306290Y305183D01*
X306334Y305239D01*
X306381Y305293D01*
X306430Y305344D01*
X306483Y305392D01*
X306538Y305438D01*
X306595Y305480D01*
X306655Y305520D01*
X306716Y305556D01*
X306780Y305589D01*
X306845Y305618D01*
X306911Y305644D01*
X306979Y305667D01*
X307048Y305686D01*
X307118Y305701D01*
X307188Y305712D01*
X307259Y305720D01*
X307330Y305724D01*
X307402Y305724D01*
X307473Y305720D01*
X307544Y305712D01*
X307614Y305701D01*
X307684Y305686D01*
X307753Y305667D01*
X307821Y305644D01*
X307887Y305618D01*
X307952Y305589D01*
X308016Y305556D01*
X308077Y305520D01*
X308137Y305480D01*
X308194Y305438D01*
X308249Y305392D01*
X308302Y305344D01*
X308351Y305293D01*
X308398Y305239D01*
X308442Y305183D01*
X308483Y305124D01*
X308521Y305064D01*
X308556Y305001D01*
X308587Y304937D01*
X308615Y304871D01*
X308639Y304804D01*
X308660Y304736D01*
X308677Y304666D01*
X308690Y304596D01*
X308699Y304526D01*
X308705Y304454D01*
X308707Y304383D01*
X308706Y304383D02*
X308706Y303042D01*
X306025Y308126D02*
X310851Y309199D01*
X307634Y310271D01*
X310851Y311344D01*
X306025Y312416D01*
X306025Y315395D02*
X310851Y315395D01*
X306025Y315395D02*
X306025Y316736D01*
X306027Y316807D01*
X306033Y316879D01*
X306042Y316949D01*
X306055Y317019D01*
X306072Y317089D01*
X306093Y317157D01*
X306117Y317224D01*
X306145Y317290D01*
X306176Y317354D01*
X306211Y317417D01*
X306249Y317477D01*
X306290Y317536D01*
X306334Y317592D01*
X306381Y317646D01*
X306430Y317697D01*
X306483Y317745D01*
X306538Y317791D01*
X306595Y317833D01*
X306655Y317873D01*
X306716Y317909D01*
X306780Y317942D01*
X306845Y317971D01*
X306911Y317997D01*
X306979Y318020D01*
X307048Y318039D01*
X307118Y318054D01*
X307188Y318065D01*
X307259Y318073D01*
X307330Y318077D01*
X307402Y318077D01*
X307473Y318073D01*
X307544Y318065D01*
X307614Y318054D01*
X307684Y318039D01*
X307753Y318020D01*
X307821Y317997D01*
X307887Y317971D01*
X307952Y317942D01*
X308016Y317909D01*
X308077Y317873D01*
X308137Y317833D01*
X308194Y317791D01*
X308249Y317745D01*
X308302Y317697D01*
X308351Y317646D01*
X308398Y317592D01*
X308442Y317536D01*
X308483Y317477D01*
X308521Y317417D01*
X308556Y317354D01*
X308587Y317290D01*
X308615Y317224D01*
X308639Y317157D01*
X308660Y317089D01*
X308677Y317019D01*
X308690Y316949D01*
X308699Y316879D01*
X308705Y316807D01*
X308707Y316736D01*
X308706Y316736D02*
X308706Y315395D01*
X308706Y317004D02*
X310851Y318076D01*
X311387Y320537D02*
X311387Y322682D01*
X310851Y325207D02*
X310851Y326547D01*
X310849Y326618D01*
X310843Y326690D01*
X310834Y326760D01*
X310821Y326830D01*
X310804Y326900D01*
X310783Y326968D01*
X310759Y327035D01*
X310731Y327101D01*
X310700Y327165D01*
X310665Y327228D01*
X310627Y327288D01*
X310586Y327347D01*
X310542Y327403D01*
X310495Y327457D01*
X310446Y327508D01*
X310393Y327556D01*
X310338Y327602D01*
X310281Y327644D01*
X310221Y327684D01*
X310160Y327720D01*
X310096Y327753D01*
X310031Y327782D01*
X309965Y327808D01*
X309897Y327831D01*
X309828Y327850D01*
X309758Y327865D01*
X309688Y327876D01*
X309617Y327884D01*
X309546Y327888D01*
X309474Y327888D01*
X309403Y327884D01*
X309332Y327876D01*
X309262Y327865D01*
X309192Y327850D01*
X309123Y327831D01*
X309055Y327808D01*
X308989Y327782D01*
X308924Y327753D01*
X308860Y327720D01*
X308799Y327684D01*
X308739Y327644D01*
X308682Y327602D01*
X308627Y327556D01*
X308574Y327508D01*
X308525Y327457D01*
X308478Y327403D01*
X308434Y327347D01*
X308393Y327288D01*
X308355Y327228D01*
X308320Y327165D01*
X308289Y327101D01*
X308261Y327035D01*
X308237Y326968D01*
X308216Y326900D01*
X308199Y326830D01*
X308186Y326760D01*
X308177Y326690D01*
X308171Y326618D01*
X308169Y326547D01*
X306025Y326816D02*
X306025Y325207D01*
X306025Y326816D02*
X306027Y326881D01*
X306033Y326945D01*
X306043Y327009D01*
X306056Y327073D01*
X306074Y327135D01*
X306095Y327196D01*
X306119Y327256D01*
X306148Y327314D01*
X306180Y327371D01*
X306215Y327425D01*
X306253Y327477D01*
X306295Y327527D01*
X306339Y327574D01*
X306386Y327618D01*
X306436Y327660D01*
X306488Y327698D01*
X306542Y327733D01*
X306599Y327765D01*
X306657Y327794D01*
X306717Y327818D01*
X306778Y327839D01*
X306840Y327857D01*
X306904Y327870D01*
X306968Y327880D01*
X307032Y327886D01*
X307097Y327888D01*
X307162Y327886D01*
X307226Y327880D01*
X307290Y327870D01*
X307354Y327857D01*
X307416Y327839D01*
X307477Y327818D01*
X307537Y327794D01*
X307595Y327765D01*
X307652Y327733D01*
X307706Y327698D01*
X307758Y327660D01*
X307808Y327618D01*
X307855Y327574D01*
X307899Y327527D01*
X307941Y327477D01*
X307979Y327425D01*
X308014Y327371D01*
X308046Y327314D01*
X308075Y327256D01*
X308099Y327196D01*
X308120Y327135D01*
X308138Y327073D01*
X308151Y327009D01*
X308161Y326945D01*
X308167Y326881D01*
X308169Y326816D01*
X308170Y326816D02*
X308170Y325743D01*
X366735Y352015D02*
X366735Y353087D01*
X366735Y352015D02*
X366733Y351950D01*
X366727Y351886D01*
X366717Y351822D01*
X366704Y351758D01*
X366686Y351696D01*
X366665Y351635D01*
X366641Y351575D01*
X366612Y351517D01*
X366580Y351460D01*
X366545Y351406D01*
X366507Y351354D01*
X366465Y351304D01*
X366421Y351257D01*
X366374Y351213D01*
X366324Y351171D01*
X366272Y351133D01*
X366218Y351098D01*
X366161Y351066D01*
X366103Y351037D01*
X366043Y351013D01*
X365982Y350992D01*
X365920Y350974D01*
X365856Y350961D01*
X365792Y350951D01*
X365728Y350945D01*
X365663Y350943D01*
X365663Y350942D02*
X362981Y350942D01*
X362916Y350944D01*
X362852Y350950D01*
X362788Y350960D01*
X362724Y350973D01*
X362662Y350991D01*
X362601Y351012D01*
X362541Y351037D01*
X362482Y351065D01*
X362426Y351097D01*
X362371Y351132D01*
X362319Y351170D01*
X362269Y351212D01*
X362222Y351256D01*
X362178Y351303D01*
X362136Y351353D01*
X362098Y351405D01*
X362063Y351460D01*
X362031Y351516D01*
X362003Y351575D01*
X361978Y351634D01*
X361957Y351696D01*
X361939Y351758D01*
X361926Y351822D01*
X361916Y351886D01*
X361910Y351950D01*
X361908Y352015D01*
X361909Y352015D02*
X361909Y353087D01*
X361909Y355872D02*
X366735Y355872D01*
X361909Y355872D02*
X361909Y357213D01*
X361911Y357284D01*
X361917Y357356D01*
X361926Y357426D01*
X361939Y357496D01*
X361956Y357566D01*
X361977Y357634D01*
X362001Y357701D01*
X362029Y357767D01*
X362060Y357831D01*
X362095Y357894D01*
X362133Y357954D01*
X362174Y358013D01*
X362218Y358069D01*
X362265Y358123D01*
X362314Y358174D01*
X362367Y358222D01*
X362422Y358268D01*
X362479Y358310D01*
X362539Y358350D01*
X362600Y358386D01*
X362664Y358419D01*
X362729Y358448D01*
X362795Y358474D01*
X362863Y358497D01*
X362932Y358516D01*
X363002Y358531D01*
X363072Y358542D01*
X363143Y358550D01*
X363214Y358554D01*
X363286Y358554D01*
X363357Y358550D01*
X363428Y358542D01*
X363498Y358531D01*
X363568Y358516D01*
X363637Y358497D01*
X363705Y358474D01*
X363771Y358448D01*
X363836Y358419D01*
X363900Y358386D01*
X363961Y358350D01*
X364021Y358310D01*
X364078Y358268D01*
X364133Y358222D01*
X364186Y358174D01*
X364235Y358123D01*
X364282Y358069D01*
X364326Y358013D01*
X364367Y357954D01*
X364405Y357894D01*
X364440Y357831D01*
X364471Y357767D01*
X364499Y357701D01*
X364523Y357634D01*
X364544Y357566D01*
X364561Y357496D01*
X364574Y357426D01*
X364583Y357356D01*
X364589Y357284D01*
X364591Y357213D01*
X364590Y357213D02*
X364590Y355872D01*
X361909Y360956D02*
X366735Y362029D01*
X363518Y363101D01*
X366735Y364174D01*
X361909Y365246D01*
X361909Y368225D02*
X366735Y368225D01*
X361909Y368225D02*
X361909Y369566D01*
X361911Y369637D01*
X361917Y369709D01*
X361926Y369779D01*
X361939Y369849D01*
X361956Y369919D01*
X361977Y369987D01*
X362001Y370054D01*
X362029Y370120D01*
X362060Y370184D01*
X362095Y370247D01*
X362133Y370307D01*
X362174Y370366D01*
X362218Y370422D01*
X362265Y370476D01*
X362314Y370527D01*
X362367Y370575D01*
X362422Y370621D01*
X362479Y370663D01*
X362539Y370703D01*
X362600Y370739D01*
X362664Y370772D01*
X362729Y370801D01*
X362795Y370827D01*
X362863Y370850D01*
X362932Y370869D01*
X363002Y370884D01*
X363072Y370895D01*
X363143Y370903D01*
X363214Y370907D01*
X363286Y370907D01*
X363357Y370903D01*
X363428Y370895D01*
X363498Y370884D01*
X363568Y370869D01*
X363637Y370850D01*
X363705Y370827D01*
X363771Y370801D01*
X363836Y370772D01*
X363900Y370739D01*
X363961Y370703D01*
X364021Y370663D01*
X364078Y370621D01*
X364133Y370575D01*
X364186Y370527D01*
X364235Y370476D01*
X364282Y370422D01*
X364326Y370366D01*
X364367Y370307D01*
X364405Y370247D01*
X364440Y370184D01*
X364471Y370120D01*
X364499Y370054D01*
X364523Y369987D01*
X364544Y369919D01*
X364561Y369849D01*
X364574Y369779D01*
X364583Y369709D01*
X364589Y369637D01*
X364591Y369566D01*
X364590Y369566D02*
X364590Y368225D01*
X364590Y369834D02*
X366735Y370906D01*
X367271Y373367D02*
X367271Y375512D01*
X365663Y378037D02*
X361909Y379109D01*
X365663Y378037D02*
X365663Y380718D01*
X364590Y379914D02*
X366735Y379914D01*
D11*
X370298Y372812D02*
X370298Y333188D01*
X370298Y372812D02*
X300702Y372812D01*
X300702Y333188D01*
X370298Y333188D01*
D12*
X305838Y316643D02*
X301859Y316643D01*
X305838Y316643D02*
X308823Y318964D01*
X305838Y316643D02*
X308823Y314321D01*
X305838Y316643D02*
X304512Y320290D01*
X305838Y316643D02*
X304512Y312995D01*
D13*
X530000Y238000D03*
X510000Y238000D03*
X490000Y238000D03*
X470000Y238000D03*
X450000Y238000D03*
D14*
X616712Y278783D02*
X616712Y282593D01*
X616712Y278783D02*
X618405Y278783D01*
X619907Y278783D02*
X619907Y282593D01*
X621177Y280476D01*
X622447Y282593D01*
X622447Y278783D01*
X624020Y282593D02*
X626137Y282593D01*
X624020Y278783D01*
X626137Y278783D01*
X627556Y281746D02*
X628614Y282593D01*
X628614Y278783D01*
X627556Y278783D02*
X629673Y278783D01*
X631213Y280688D02*
X631215Y280798D01*
X631221Y280907D01*
X631230Y281016D01*
X631244Y281125D01*
X631261Y281233D01*
X631282Y281341D01*
X631306Y281447D01*
X631335Y281553D01*
X631367Y281658D01*
X631402Y281762D01*
X631441Y281864D01*
X631484Y281965D01*
X631531Y282064D01*
X631551Y282114D01*
X631573Y282163D01*
X631599Y282211D01*
X631628Y282256D01*
X631661Y282299D01*
X631696Y282340D01*
X631734Y282379D01*
X631774Y282414D01*
X631817Y282447D01*
X631862Y282477D01*
X631909Y282504D01*
X631957Y282527D01*
X632007Y282547D01*
X632059Y282563D01*
X632111Y282576D01*
X632164Y282586D01*
X632218Y282591D01*
X632272Y282593D01*
X632326Y282591D01*
X632380Y282586D01*
X632433Y282576D01*
X632485Y282563D01*
X632537Y282547D01*
X632587Y282527D01*
X632635Y282504D01*
X632682Y282477D01*
X632727Y282447D01*
X632770Y282414D01*
X632810Y282379D01*
X632848Y282340D01*
X632883Y282299D01*
X632916Y282256D01*
X632945Y282211D01*
X632971Y282163D01*
X632993Y282114D01*
X633013Y282064D01*
X633060Y281965D01*
X633103Y281864D01*
X633142Y281762D01*
X633177Y281658D01*
X633209Y281553D01*
X633238Y281447D01*
X633262Y281341D01*
X633283Y281233D01*
X633300Y281125D01*
X633314Y281016D01*
X633323Y280907D01*
X633329Y280798D01*
X633331Y280688D01*
X631213Y280688D02*
X631215Y280578D01*
X631221Y280469D01*
X631230Y280360D01*
X631244Y280251D01*
X631261Y280143D01*
X631282Y280035D01*
X631306Y279929D01*
X631335Y279823D01*
X631367Y279718D01*
X631402Y279615D01*
X631441Y279512D01*
X631484Y279411D01*
X631531Y279312D01*
X631551Y279262D01*
X631573Y279213D01*
X631599Y279165D01*
X631628Y279120D01*
X631661Y279077D01*
X631696Y279036D01*
X631734Y278997D01*
X631774Y278962D01*
X631817Y278929D01*
X631862Y278899D01*
X631909Y278872D01*
X631957Y278849D01*
X632007Y278829D01*
X632059Y278813D01*
X632111Y278800D01*
X632164Y278790D01*
X632218Y278785D01*
X632272Y278783D01*
X633012Y279312D02*
X633059Y279411D01*
X633102Y279512D01*
X633141Y279615D01*
X633176Y279718D01*
X633208Y279823D01*
X633237Y279929D01*
X633261Y280035D01*
X633282Y280143D01*
X633299Y280251D01*
X633313Y280360D01*
X633322Y280469D01*
X633328Y280578D01*
X633330Y280688D01*
X633013Y279312D02*
X632993Y279262D01*
X632971Y279213D01*
X632945Y279165D01*
X632916Y279120D01*
X632883Y279077D01*
X632848Y279036D01*
X632810Y278997D01*
X632770Y278962D01*
X632727Y278929D01*
X632682Y278899D01*
X632635Y278872D01*
X632587Y278849D01*
X632537Y278829D01*
X632485Y278813D01*
X632433Y278800D01*
X632380Y278790D01*
X632326Y278785D01*
X632272Y278783D01*
X631425Y279630D02*
X633119Y281746D01*
X634871Y278783D02*
X636141Y278783D01*
X636196Y278785D01*
X636252Y278790D01*
X636306Y278799D01*
X636360Y278812D01*
X636413Y278828D01*
X636465Y278847D01*
X636516Y278870D01*
X636565Y278896D01*
X636612Y278926D01*
X636657Y278958D01*
X636699Y278993D01*
X636740Y279031D01*
X636778Y279072D01*
X636813Y279114D01*
X636845Y279159D01*
X636875Y279207D01*
X636901Y279255D01*
X636924Y279306D01*
X636943Y279358D01*
X636959Y279411D01*
X636972Y279465D01*
X636981Y279519D01*
X636986Y279575D01*
X636988Y279630D01*
X636988Y280053D01*
X636986Y280108D01*
X636981Y280164D01*
X636972Y280218D01*
X636959Y280272D01*
X636943Y280325D01*
X636924Y280377D01*
X636901Y280428D01*
X636875Y280477D01*
X636845Y280524D01*
X636813Y280569D01*
X636778Y280611D01*
X636740Y280652D01*
X636699Y280690D01*
X636657Y280725D01*
X636612Y280757D01*
X636565Y280787D01*
X636516Y280813D01*
X636465Y280836D01*
X636413Y280855D01*
X636360Y280871D01*
X636306Y280884D01*
X636252Y280893D01*
X636196Y280898D01*
X636141Y280900D01*
X634871Y280900D01*
X634871Y282593D01*
X636988Y282593D01*
X638846Y282064D02*
X638799Y281965D01*
X638756Y281864D01*
X638717Y281762D01*
X638682Y281658D01*
X638650Y281553D01*
X638621Y281447D01*
X638597Y281341D01*
X638576Y281233D01*
X638559Y281125D01*
X638545Y281016D01*
X638536Y280907D01*
X638530Y280798D01*
X638528Y280688D01*
X638846Y282064D02*
X638866Y282114D01*
X638888Y282163D01*
X638914Y282211D01*
X638943Y282256D01*
X638976Y282299D01*
X639011Y282340D01*
X639049Y282379D01*
X639089Y282414D01*
X639132Y282447D01*
X639177Y282477D01*
X639224Y282504D01*
X639272Y282527D01*
X639322Y282547D01*
X639374Y282563D01*
X639426Y282576D01*
X639479Y282586D01*
X639533Y282591D01*
X639587Y282593D01*
X639641Y282591D01*
X639695Y282586D01*
X639748Y282576D01*
X639800Y282563D01*
X639852Y282547D01*
X639902Y282527D01*
X639950Y282504D01*
X639997Y282477D01*
X640042Y282447D01*
X640085Y282414D01*
X640125Y282379D01*
X640163Y282340D01*
X640198Y282299D01*
X640231Y282256D01*
X640260Y282211D01*
X640286Y282163D01*
X640308Y282114D01*
X640328Y282064D01*
X640375Y281965D01*
X640418Y281864D01*
X640457Y281762D01*
X640492Y281658D01*
X640524Y281553D01*
X640553Y281447D01*
X640577Y281341D01*
X640598Y281233D01*
X640615Y281125D01*
X640629Y281016D01*
X640638Y280907D01*
X640644Y280798D01*
X640646Y280688D01*
X638529Y280688D02*
X638531Y280578D01*
X638537Y280469D01*
X638546Y280360D01*
X638560Y280251D01*
X638577Y280143D01*
X638598Y280035D01*
X638622Y279929D01*
X638651Y279823D01*
X638683Y279718D01*
X638718Y279615D01*
X638757Y279512D01*
X638800Y279411D01*
X638847Y279312D01*
X638846Y279312D02*
X638866Y279262D01*
X638888Y279213D01*
X638914Y279165D01*
X638943Y279120D01*
X638976Y279077D01*
X639011Y279036D01*
X639049Y278997D01*
X639089Y278962D01*
X639132Y278929D01*
X639177Y278899D01*
X639224Y278872D01*
X639272Y278849D01*
X639322Y278829D01*
X639374Y278813D01*
X639426Y278800D01*
X639479Y278790D01*
X639533Y278785D01*
X639587Y278783D01*
X640328Y279312D02*
X640375Y279411D01*
X640418Y279512D01*
X640457Y279615D01*
X640492Y279718D01*
X640524Y279823D01*
X640553Y279929D01*
X640577Y280035D01*
X640598Y280143D01*
X640615Y280251D01*
X640629Y280360D01*
X640638Y280469D01*
X640644Y280578D01*
X640646Y280688D01*
X640328Y279312D02*
X640308Y279262D01*
X640286Y279213D01*
X640260Y279165D01*
X640231Y279120D01*
X640198Y279077D01*
X640163Y279036D01*
X640125Y278997D01*
X640085Y278962D01*
X640042Y278929D01*
X639997Y278899D01*
X639950Y278872D01*
X639902Y278849D01*
X639852Y278829D01*
X639800Y278813D01*
X639748Y278800D01*
X639695Y278790D01*
X639641Y278785D01*
X639587Y278783D01*
X638740Y279630D02*
X640434Y281746D01*
X642186Y281746D02*
X643245Y282593D01*
X643245Y278783D01*
X644303Y278783D02*
X642186Y278783D01*
D10*
X666171Y297855D02*
X666171Y302681D01*
X667511Y302681D01*
X667582Y302679D01*
X667654Y302673D01*
X667724Y302664D01*
X667794Y302651D01*
X667864Y302634D01*
X667932Y302613D01*
X667999Y302589D01*
X668065Y302561D01*
X668129Y302530D01*
X668192Y302495D01*
X668252Y302457D01*
X668311Y302416D01*
X668367Y302372D01*
X668421Y302325D01*
X668472Y302276D01*
X668520Y302223D01*
X668566Y302168D01*
X668608Y302111D01*
X668648Y302051D01*
X668684Y301990D01*
X668717Y301926D01*
X668746Y301861D01*
X668772Y301795D01*
X668795Y301727D01*
X668814Y301658D01*
X668829Y301588D01*
X668840Y301518D01*
X668848Y301447D01*
X668852Y301376D01*
X668852Y301304D01*
X668848Y301233D01*
X668840Y301162D01*
X668829Y301092D01*
X668814Y301022D01*
X668795Y300953D01*
X668772Y300885D01*
X668746Y300819D01*
X668717Y300754D01*
X668684Y300690D01*
X668648Y300629D01*
X668608Y300569D01*
X668566Y300512D01*
X668520Y300457D01*
X668472Y300404D01*
X668421Y300355D01*
X668367Y300308D01*
X668311Y300264D01*
X668252Y300223D01*
X668192Y300185D01*
X668129Y300150D01*
X668065Y300119D01*
X667999Y300091D01*
X667932Y300067D01*
X667864Y300046D01*
X667794Y300029D01*
X667724Y300016D01*
X667654Y300007D01*
X667582Y300001D01*
X667511Y299999D01*
X667511Y300000D02*
X666171Y300000D01*
X667779Y300000D02*
X668852Y297855D01*
X672568Y297855D02*
X672568Y302681D01*
X671228Y302681D02*
X673909Y302681D01*
X676348Y301609D02*
X677689Y302681D01*
X677689Y297855D01*
X679029Y297855D02*
X676348Y297855D01*
X665885Y308269D02*
X665885Y313095D01*
X667225Y313095D01*
X667296Y313093D01*
X667368Y313087D01*
X667438Y313078D01*
X667508Y313065D01*
X667578Y313048D01*
X667646Y313027D01*
X667713Y313003D01*
X667779Y312975D01*
X667843Y312944D01*
X667906Y312909D01*
X667966Y312871D01*
X668025Y312830D01*
X668081Y312786D01*
X668135Y312739D01*
X668186Y312690D01*
X668234Y312637D01*
X668280Y312582D01*
X668322Y312525D01*
X668362Y312465D01*
X668398Y312404D01*
X668431Y312340D01*
X668460Y312275D01*
X668486Y312209D01*
X668509Y312141D01*
X668528Y312072D01*
X668543Y312002D01*
X668554Y311932D01*
X668562Y311861D01*
X668566Y311790D01*
X668566Y311718D01*
X668562Y311647D01*
X668554Y311576D01*
X668543Y311506D01*
X668528Y311436D01*
X668509Y311367D01*
X668486Y311299D01*
X668460Y311233D01*
X668431Y311168D01*
X668398Y311104D01*
X668362Y311043D01*
X668322Y310983D01*
X668280Y310926D01*
X668234Y310871D01*
X668186Y310818D01*
X668135Y310769D01*
X668081Y310722D01*
X668025Y310678D01*
X667966Y310637D01*
X667906Y310599D01*
X667843Y310564D01*
X667779Y310533D01*
X667713Y310505D01*
X667646Y310481D01*
X667578Y310460D01*
X667508Y310443D01*
X667438Y310430D01*
X667368Y310421D01*
X667296Y310415D01*
X667225Y310413D01*
X667225Y310414D02*
X665885Y310414D01*
X667494Y310414D02*
X668566Y308269D01*
X671637Y310950D02*
X672978Y310950D01*
X672978Y310951D02*
X673049Y310949D01*
X673121Y310943D01*
X673191Y310934D01*
X673261Y310921D01*
X673331Y310904D01*
X673399Y310883D01*
X673466Y310859D01*
X673532Y310831D01*
X673596Y310800D01*
X673659Y310765D01*
X673719Y310727D01*
X673778Y310686D01*
X673834Y310642D01*
X673888Y310595D01*
X673939Y310546D01*
X673987Y310493D01*
X674033Y310438D01*
X674075Y310381D01*
X674115Y310321D01*
X674151Y310260D01*
X674184Y310196D01*
X674213Y310131D01*
X674239Y310065D01*
X674262Y309997D01*
X674281Y309928D01*
X674296Y309858D01*
X674307Y309788D01*
X674315Y309717D01*
X674319Y309646D01*
X674319Y309574D01*
X674315Y309503D01*
X674307Y309432D01*
X674296Y309362D01*
X674281Y309292D01*
X674262Y309223D01*
X674239Y309155D01*
X674213Y309089D01*
X674184Y309024D01*
X674151Y308960D01*
X674115Y308899D01*
X674075Y308839D01*
X674033Y308782D01*
X673987Y308727D01*
X673939Y308674D01*
X673888Y308625D01*
X673834Y308578D01*
X673778Y308534D01*
X673719Y308493D01*
X673659Y308455D01*
X673596Y308420D01*
X673532Y308389D01*
X673466Y308361D01*
X673399Y308337D01*
X673331Y308316D01*
X673261Y308299D01*
X673191Y308286D01*
X673121Y308277D01*
X673049Y308271D01*
X672978Y308269D01*
X671637Y308269D01*
X671637Y313095D01*
X672978Y313095D01*
X673043Y313093D01*
X673107Y313087D01*
X673171Y313077D01*
X673235Y313064D01*
X673297Y313046D01*
X673358Y313025D01*
X673418Y313001D01*
X673476Y312972D01*
X673533Y312940D01*
X673587Y312905D01*
X673639Y312867D01*
X673689Y312825D01*
X673736Y312781D01*
X673780Y312734D01*
X673822Y312684D01*
X673860Y312632D01*
X673895Y312578D01*
X673927Y312521D01*
X673956Y312463D01*
X673980Y312403D01*
X674001Y312342D01*
X674019Y312280D01*
X674032Y312216D01*
X674042Y312152D01*
X674048Y312088D01*
X674050Y312023D01*
X674048Y311958D01*
X674042Y311894D01*
X674032Y311830D01*
X674019Y311766D01*
X674001Y311704D01*
X673980Y311643D01*
X673956Y311583D01*
X673927Y311525D01*
X673895Y311468D01*
X673860Y311414D01*
X673822Y311362D01*
X673780Y311312D01*
X673736Y311265D01*
X673689Y311221D01*
X673639Y311179D01*
X673587Y311141D01*
X673533Y311106D01*
X673476Y311074D01*
X673418Y311045D01*
X673358Y311021D01*
X673297Y311000D01*
X673235Y310982D01*
X673171Y310969D01*
X673107Y310959D01*
X673043Y310953D01*
X672978Y310951D01*
X676794Y312023D02*
X678135Y313095D01*
X678135Y308269D01*
X679475Y308269D02*
X676794Y308269D01*
X664840Y314815D02*
X663232Y319641D01*
X666449Y319641D02*
X664840Y314815D01*
X669233Y314815D02*
X669233Y319641D01*
X670573Y319641D01*
X670644Y319639D01*
X670716Y319633D01*
X670786Y319624D01*
X670856Y319611D01*
X670926Y319594D01*
X670994Y319573D01*
X671061Y319549D01*
X671127Y319521D01*
X671191Y319490D01*
X671254Y319455D01*
X671314Y319417D01*
X671373Y319376D01*
X671429Y319332D01*
X671483Y319285D01*
X671534Y319236D01*
X671582Y319183D01*
X671628Y319128D01*
X671670Y319071D01*
X671710Y319011D01*
X671746Y318950D01*
X671779Y318886D01*
X671808Y318821D01*
X671834Y318755D01*
X671857Y318687D01*
X671876Y318618D01*
X671891Y318548D01*
X671902Y318478D01*
X671910Y318407D01*
X671914Y318336D01*
X671914Y318264D01*
X671910Y318193D01*
X671902Y318122D01*
X671891Y318052D01*
X671876Y317982D01*
X671857Y317913D01*
X671834Y317845D01*
X671808Y317779D01*
X671779Y317714D01*
X671746Y317650D01*
X671710Y317589D01*
X671670Y317529D01*
X671628Y317472D01*
X671582Y317417D01*
X671534Y317364D01*
X671483Y317315D01*
X671429Y317268D01*
X671373Y317224D01*
X671314Y317183D01*
X671254Y317145D01*
X671191Y317110D01*
X671127Y317079D01*
X671061Y317051D01*
X670994Y317027D01*
X670926Y317006D01*
X670856Y316989D01*
X670786Y316976D01*
X670716Y316967D01*
X670644Y316961D01*
X670573Y316959D01*
X670573Y316960D02*
X669233Y316960D01*
X670841Y316960D02*
X671914Y314815D01*
X675699Y314815D02*
X676772Y314815D01*
X675699Y314815D02*
X675634Y314817D01*
X675570Y314823D01*
X675506Y314833D01*
X675442Y314846D01*
X675380Y314864D01*
X675319Y314885D01*
X675259Y314909D01*
X675201Y314938D01*
X675144Y314970D01*
X675090Y315005D01*
X675038Y315043D01*
X674988Y315085D01*
X674941Y315129D01*
X674897Y315176D01*
X674855Y315226D01*
X674817Y315278D01*
X674782Y315332D01*
X674750Y315389D01*
X674721Y315447D01*
X674697Y315507D01*
X674676Y315568D01*
X674658Y315630D01*
X674645Y315694D01*
X674635Y315758D01*
X674629Y315822D01*
X674627Y315887D01*
X674627Y318569D01*
X674629Y318634D01*
X674635Y318698D01*
X674645Y318762D01*
X674658Y318826D01*
X674676Y318888D01*
X674697Y318949D01*
X674721Y319009D01*
X674750Y319067D01*
X674782Y319124D01*
X674817Y319178D01*
X674855Y319230D01*
X674897Y319280D01*
X674941Y319327D01*
X674988Y319371D01*
X675038Y319413D01*
X675090Y319451D01*
X675144Y319486D01*
X675201Y319518D01*
X675259Y319547D01*
X675319Y319571D01*
X675380Y319592D01*
X675442Y319610D01*
X675506Y319623D01*
X675570Y319633D01*
X675634Y319639D01*
X675699Y319641D01*
X676772Y319641D01*
X679227Y314815D02*
X680568Y314815D01*
X680639Y314817D01*
X680711Y314823D01*
X680781Y314832D01*
X680851Y314845D01*
X680921Y314862D01*
X680989Y314883D01*
X681056Y314907D01*
X681122Y314935D01*
X681186Y314966D01*
X681249Y315001D01*
X681309Y315039D01*
X681368Y315080D01*
X681424Y315124D01*
X681478Y315171D01*
X681529Y315220D01*
X681577Y315273D01*
X681623Y315328D01*
X681665Y315385D01*
X681705Y315445D01*
X681741Y315506D01*
X681774Y315570D01*
X681803Y315635D01*
X681829Y315701D01*
X681852Y315769D01*
X681871Y315838D01*
X681886Y315908D01*
X681897Y315978D01*
X681905Y316049D01*
X681909Y316120D01*
X681909Y316192D01*
X681905Y316263D01*
X681897Y316334D01*
X681886Y316404D01*
X681871Y316474D01*
X681852Y316543D01*
X681829Y316611D01*
X681803Y316677D01*
X681774Y316742D01*
X681741Y316806D01*
X681705Y316867D01*
X681665Y316927D01*
X681623Y316984D01*
X681577Y317039D01*
X681529Y317092D01*
X681478Y317141D01*
X681424Y317188D01*
X681368Y317232D01*
X681309Y317273D01*
X681249Y317311D01*
X681186Y317346D01*
X681122Y317377D01*
X681056Y317405D01*
X680989Y317429D01*
X680921Y317450D01*
X680851Y317467D01*
X680781Y317480D01*
X680711Y317489D01*
X680639Y317495D01*
X680568Y317497D01*
X680836Y319641D02*
X679227Y319641D01*
X680836Y319641D02*
X680901Y319639D01*
X680965Y319633D01*
X681029Y319623D01*
X681093Y319610D01*
X681155Y319592D01*
X681216Y319571D01*
X681276Y319547D01*
X681334Y319518D01*
X681391Y319486D01*
X681445Y319451D01*
X681497Y319413D01*
X681547Y319371D01*
X681594Y319327D01*
X681638Y319280D01*
X681680Y319230D01*
X681718Y319178D01*
X681753Y319124D01*
X681785Y319067D01*
X681814Y319009D01*
X681838Y318949D01*
X681859Y318888D01*
X681877Y318826D01*
X681890Y318762D01*
X681900Y318698D01*
X681906Y318634D01*
X681908Y318569D01*
X681906Y318504D01*
X681900Y318440D01*
X681890Y318376D01*
X681877Y318312D01*
X681859Y318250D01*
X681838Y318189D01*
X681814Y318129D01*
X681785Y318071D01*
X681753Y318014D01*
X681718Y317960D01*
X681680Y317908D01*
X681638Y317858D01*
X681594Y317811D01*
X681547Y317767D01*
X681497Y317725D01*
X681445Y317687D01*
X681391Y317652D01*
X681334Y317620D01*
X681276Y317591D01*
X681216Y317567D01*
X681155Y317546D01*
X681093Y317528D01*
X681029Y317515D01*
X680965Y317505D01*
X680901Y317499D01*
X680836Y317497D01*
X680836Y317496D02*
X679764Y317496D01*
X589720Y350525D02*
X588112Y355351D01*
X591329Y355351D02*
X589720Y350525D01*
X594113Y350525D02*
X594113Y355351D01*
X595453Y355351D01*
X595524Y355349D01*
X595596Y355343D01*
X595666Y355334D01*
X595736Y355321D01*
X595806Y355304D01*
X595874Y355283D01*
X595941Y355259D01*
X596007Y355231D01*
X596071Y355200D01*
X596134Y355165D01*
X596194Y355127D01*
X596253Y355086D01*
X596309Y355042D01*
X596363Y354995D01*
X596414Y354946D01*
X596462Y354893D01*
X596508Y354838D01*
X596550Y354781D01*
X596590Y354721D01*
X596626Y354660D01*
X596659Y354596D01*
X596688Y354531D01*
X596714Y354465D01*
X596737Y354397D01*
X596756Y354328D01*
X596771Y354258D01*
X596782Y354188D01*
X596790Y354117D01*
X596794Y354046D01*
X596794Y353974D01*
X596790Y353903D01*
X596782Y353832D01*
X596771Y353762D01*
X596756Y353692D01*
X596737Y353623D01*
X596714Y353555D01*
X596688Y353489D01*
X596659Y353424D01*
X596626Y353360D01*
X596590Y353299D01*
X596550Y353239D01*
X596508Y353182D01*
X596462Y353127D01*
X596414Y353074D01*
X596363Y353025D01*
X596309Y352978D01*
X596253Y352934D01*
X596194Y352893D01*
X596134Y352855D01*
X596071Y352820D01*
X596007Y352789D01*
X595941Y352761D01*
X595874Y352737D01*
X595806Y352716D01*
X595736Y352699D01*
X595666Y352686D01*
X595596Y352677D01*
X595524Y352671D01*
X595453Y352669D01*
X595453Y352670D02*
X594113Y352670D01*
X595721Y352670D02*
X596794Y350525D01*
X600579Y350525D02*
X601652Y350525D01*
X600579Y350525D02*
X600514Y350527D01*
X600450Y350533D01*
X600386Y350543D01*
X600322Y350556D01*
X600260Y350574D01*
X600199Y350595D01*
X600139Y350619D01*
X600081Y350648D01*
X600024Y350680D01*
X599970Y350715D01*
X599918Y350753D01*
X599868Y350795D01*
X599821Y350839D01*
X599777Y350886D01*
X599735Y350936D01*
X599697Y350988D01*
X599662Y351042D01*
X599630Y351099D01*
X599601Y351157D01*
X599577Y351217D01*
X599556Y351278D01*
X599538Y351340D01*
X599525Y351404D01*
X599515Y351468D01*
X599509Y351532D01*
X599507Y351597D01*
X599507Y354279D01*
X599509Y354344D01*
X599515Y354408D01*
X599525Y354472D01*
X599538Y354536D01*
X599556Y354598D01*
X599577Y354659D01*
X599601Y354719D01*
X599630Y354777D01*
X599662Y354834D01*
X599697Y354888D01*
X599735Y354940D01*
X599777Y354990D01*
X599821Y355037D01*
X599868Y355081D01*
X599918Y355123D01*
X599970Y355161D01*
X600024Y355196D01*
X600081Y355228D01*
X600139Y355257D01*
X600199Y355281D01*
X600260Y355302D01*
X600322Y355320D01*
X600386Y355333D01*
X600450Y355343D01*
X600514Y355349D01*
X600579Y355351D01*
X601652Y355351D01*
X605180Y355351D02*
X604107Y351597D01*
X606788Y351597D01*
X605984Y352670D02*
X605984Y350525D01*
X588182Y338641D02*
X589790Y333815D01*
X591399Y338641D01*
X594183Y338641D02*
X594183Y333815D01*
X594183Y338641D02*
X595523Y338641D01*
X595594Y338639D01*
X595666Y338633D01*
X595736Y338624D01*
X595806Y338611D01*
X595876Y338594D01*
X595944Y338573D01*
X596011Y338549D01*
X596077Y338521D01*
X596141Y338490D01*
X596204Y338455D01*
X596264Y338417D01*
X596323Y338376D01*
X596379Y338332D01*
X596433Y338285D01*
X596484Y338236D01*
X596532Y338183D01*
X596578Y338128D01*
X596620Y338071D01*
X596660Y338011D01*
X596696Y337950D01*
X596729Y337886D01*
X596758Y337821D01*
X596784Y337755D01*
X596807Y337687D01*
X596826Y337618D01*
X596841Y337548D01*
X596852Y337478D01*
X596860Y337407D01*
X596864Y337336D01*
X596864Y337264D01*
X596860Y337193D01*
X596852Y337122D01*
X596841Y337052D01*
X596826Y336982D01*
X596807Y336913D01*
X596784Y336845D01*
X596758Y336779D01*
X596729Y336714D01*
X596696Y336650D01*
X596660Y336589D01*
X596620Y336529D01*
X596578Y336472D01*
X596532Y336417D01*
X596484Y336364D01*
X596433Y336315D01*
X596379Y336268D01*
X596323Y336224D01*
X596264Y336183D01*
X596204Y336145D01*
X596141Y336110D01*
X596077Y336079D01*
X596011Y336051D01*
X595944Y336027D01*
X595876Y336006D01*
X595806Y335989D01*
X595736Y335976D01*
X595666Y335967D01*
X595594Y335961D01*
X595523Y335959D01*
X595523Y335960D02*
X594183Y335960D01*
X595791Y335960D02*
X596864Y333815D01*
X600649Y333815D02*
X601722Y333815D01*
X600649Y333815D02*
X600584Y333817D01*
X600520Y333823D01*
X600456Y333833D01*
X600392Y333846D01*
X600330Y333864D01*
X600269Y333885D01*
X600209Y333909D01*
X600151Y333938D01*
X600094Y333970D01*
X600040Y334005D01*
X599988Y334043D01*
X599938Y334085D01*
X599891Y334129D01*
X599847Y334176D01*
X599805Y334226D01*
X599767Y334278D01*
X599732Y334332D01*
X599700Y334389D01*
X599671Y334447D01*
X599647Y334507D01*
X599626Y334568D01*
X599608Y334630D01*
X599595Y334694D01*
X599585Y334758D01*
X599579Y334822D01*
X599577Y334887D01*
X599577Y337569D01*
X599579Y337634D01*
X599585Y337698D01*
X599595Y337762D01*
X599608Y337826D01*
X599626Y337888D01*
X599647Y337949D01*
X599671Y338009D01*
X599700Y338067D01*
X599732Y338124D01*
X599767Y338178D01*
X599805Y338230D01*
X599847Y338280D01*
X599891Y338327D01*
X599938Y338371D01*
X599988Y338413D01*
X600040Y338451D01*
X600094Y338486D01*
X600151Y338518D01*
X600209Y338547D01*
X600269Y338571D01*
X600330Y338592D01*
X600392Y338610D01*
X600456Y338623D01*
X600520Y338633D01*
X600584Y338639D01*
X600649Y338641D01*
X601722Y338641D01*
X604177Y333815D02*
X605786Y333815D01*
X605851Y333817D01*
X605915Y333823D01*
X605979Y333833D01*
X606043Y333846D01*
X606105Y333864D01*
X606166Y333885D01*
X606226Y333909D01*
X606284Y333938D01*
X606341Y333970D01*
X606395Y334005D01*
X606447Y334043D01*
X606497Y334085D01*
X606544Y334129D01*
X606588Y334176D01*
X606630Y334226D01*
X606668Y334278D01*
X606703Y334332D01*
X606735Y334389D01*
X606764Y334447D01*
X606788Y334507D01*
X606809Y334568D01*
X606827Y334630D01*
X606840Y334694D01*
X606850Y334758D01*
X606856Y334822D01*
X606858Y334887D01*
X606858Y335424D01*
X606856Y335489D01*
X606850Y335553D01*
X606840Y335617D01*
X606827Y335681D01*
X606809Y335743D01*
X606788Y335804D01*
X606764Y335864D01*
X606735Y335922D01*
X606703Y335979D01*
X606668Y336033D01*
X606630Y336085D01*
X606588Y336135D01*
X606544Y336182D01*
X606497Y336226D01*
X606447Y336268D01*
X606395Y336306D01*
X606341Y336341D01*
X606284Y336373D01*
X606226Y336402D01*
X606166Y336426D01*
X606105Y336447D01*
X606043Y336465D01*
X605979Y336478D01*
X605915Y336488D01*
X605851Y336494D01*
X605786Y336496D01*
X604177Y336496D01*
X604177Y338641D01*
X606858Y338641D01*
X653782Y353991D02*
X655390Y349165D01*
X656999Y353991D01*
X659783Y353991D02*
X659783Y349165D01*
X659783Y353991D02*
X661123Y353991D01*
X661194Y353989D01*
X661266Y353983D01*
X661336Y353974D01*
X661406Y353961D01*
X661476Y353944D01*
X661544Y353923D01*
X661611Y353899D01*
X661677Y353871D01*
X661741Y353840D01*
X661804Y353805D01*
X661864Y353767D01*
X661923Y353726D01*
X661979Y353682D01*
X662033Y353635D01*
X662084Y353586D01*
X662132Y353533D01*
X662178Y353478D01*
X662220Y353421D01*
X662260Y353361D01*
X662296Y353300D01*
X662329Y353236D01*
X662358Y353171D01*
X662384Y353105D01*
X662407Y353037D01*
X662426Y352968D01*
X662441Y352898D01*
X662452Y352828D01*
X662460Y352757D01*
X662464Y352686D01*
X662464Y352614D01*
X662460Y352543D01*
X662452Y352472D01*
X662441Y352402D01*
X662426Y352332D01*
X662407Y352263D01*
X662384Y352195D01*
X662358Y352129D01*
X662329Y352064D01*
X662296Y352000D01*
X662260Y351939D01*
X662220Y351879D01*
X662178Y351822D01*
X662132Y351767D01*
X662084Y351714D01*
X662033Y351665D01*
X661979Y351618D01*
X661923Y351574D01*
X661864Y351533D01*
X661804Y351495D01*
X661741Y351460D01*
X661677Y351429D01*
X661611Y351401D01*
X661544Y351377D01*
X661476Y351356D01*
X661406Y351339D01*
X661336Y351326D01*
X661266Y351317D01*
X661194Y351311D01*
X661123Y351309D01*
X661123Y351310D02*
X659783Y351310D01*
X661391Y351310D02*
X662464Y349165D01*
X666249Y349165D02*
X667322Y349165D01*
X666249Y349165D02*
X666184Y349167D01*
X666120Y349173D01*
X666056Y349183D01*
X665992Y349196D01*
X665930Y349214D01*
X665869Y349235D01*
X665809Y349259D01*
X665751Y349288D01*
X665694Y349320D01*
X665640Y349355D01*
X665588Y349393D01*
X665538Y349435D01*
X665491Y349479D01*
X665447Y349526D01*
X665405Y349576D01*
X665367Y349628D01*
X665332Y349682D01*
X665300Y349739D01*
X665271Y349797D01*
X665247Y349857D01*
X665226Y349918D01*
X665208Y349980D01*
X665195Y350044D01*
X665185Y350108D01*
X665179Y350172D01*
X665177Y350237D01*
X665177Y352919D01*
X665179Y352984D01*
X665185Y353048D01*
X665195Y353112D01*
X665208Y353176D01*
X665226Y353238D01*
X665247Y353299D01*
X665271Y353359D01*
X665300Y353417D01*
X665332Y353474D01*
X665367Y353528D01*
X665405Y353580D01*
X665447Y353630D01*
X665491Y353677D01*
X665538Y353721D01*
X665588Y353763D01*
X665640Y353801D01*
X665694Y353836D01*
X665751Y353868D01*
X665809Y353897D01*
X665869Y353921D01*
X665930Y353942D01*
X665992Y353960D01*
X666056Y353973D01*
X666120Y353983D01*
X666184Y353989D01*
X666249Y353991D01*
X667322Y353991D01*
X671252Y353991D02*
X671320Y353989D01*
X671387Y353983D01*
X671454Y353974D01*
X671521Y353961D01*
X671586Y353944D01*
X671651Y353923D01*
X671714Y353899D01*
X671776Y353871D01*
X671836Y353840D01*
X671894Y353806D01*
X671950Y353768D01*
X672005Y353728D01*
X672056Y353684D01*
X672105Y353637D01*
X672152Y353588D01*
X672196Y353537D01*
X672236Y353482D01*
X672274Y353426D01*
X672308Y353368D01*
X672339Y353308D01*
X672367Y353246D01*
X672391Y353183D01*
X672412Y353118D01*
X672429Y353053D01*
X672442Y352986D01*
X672451Y352919D01*
X672457Y352852D01*
X672459Y352784D01*
X671252Y353991D02*
X671174Y353989D01*
X671096Y353983D01*
X671019Y353973D01*
X670942Y353960D01*
X670866Y353942D01*
X670791Y353921D01*
X670717Y353896D01*
X670645Y353867D01*
X670574Y353835D01*
X670505Y353799D01*
X670437Y353760D01*
X670372Y353717D01*
X670309Y353671D01*
X670248Y353622D01*
X670190Y353570D01*
X670135Y353515D01*
X670082Y353458D01*
X670033Y353398D01*
X669986Y353335D01*
X669943Y353271D01*
X669903Y353204D01*
X669866Y353135D01*
X669833Y353064D01*
X669803Y352992D01*
X669777Y352919D01*
X672057Y351846D02*
X672106Y351895D01*
X672153Y351947D01*
X672196Y352002D01*
X672237Y352059D01*
X672275Y352118D01*
X672309Y352179D01*
X672340Y352242D01*
X672368Y352306D01*
X672392Y352372D01*
X672412Y352438D01*
X672429Y352506D01*
X672442Y352575D01*
X672451Y352644D01*
X672457Y352714D01*
X672459Y352784D01*
X672056Y351846D02*
X669777Y349165D01*
X672458Y349165D01*
X622582Y318545D02*
X624190Y313719D01*
X625799Y318545D01*
X628583Y318545D02*
X628583Y313719D01*
X628583Y318545D02*
X629923Y318545D01*
X629994Y318543D01*
X630066Y318537D01*
X630136Y318528D01*
X630206Y318515D01*
X630276Y318498D01*
X630344Y318477D01*
X630411Y318453D01*
X630477Y318425D01*
X630541Y318394D01*
X630604Y318359D01*
X630664Y318321D01*
X630723Y318280D01*
X630779Y318236D01*
X630833Y318189D01*
X630884Y318140D01*
X630932Y318087D01*
X630978Y318032D01*
X631020Y317975D01*
X631060Y317915D01*
X631096Y317854D01*
X631129Y317790D01*
X631158Y317725D01*
X631184Y317659D01*
X631207Y317591D01*
X631226Y317522D01*
X631241Y317452D01*
X631252Y317382D01*
X631260Y317311D01*
X631264Y317240D01*
X631264Y317168D01*
X631260Y317097D01*
X631252Y317026D01*
X631241Y316956D01*
X631226Y316886D01*
X631207Y316817D01*
X631184Y316749D01*
X631158Y316683D01*
X631129Y316618D01*
X631096Y316554D01*
X631060Y316493D01*
X631020Y316433D01*
X630978Y316376D01*
X630932Y316321D01*
X630884Y316268D01*
X630833Y316219D01*
X630779Y316172D01*
X630723Y316128D01*
X630664Y316087D01*
X630604Y316049D01*
X630541Y316014D01*
X630477Y315983D01*
X630411Y315955D01*
X630344Y315931D01*
X630276Y315910D01*
X630206Y315893D01*
X630136Y315880D01*
X630066Y315871D01*
X629994Y315865D01*
X629923Y315863D01*
X629923Y315864D02*
X628583Y315864D01*
X630191Y315864D02*
X631264Y313719D01*
X635049Y313719D02*
X636121Y313719D01*
X635049Y313719D02*
X634984Y313721D01*
X634920Y313727D01*
X634856Y313737D01*
X634792Y313750D01*
X634730Y313768D01*
X634669Y313789D01*
X634609Y313813D01*
X634551Y313842D01*
X634494Y313874D01*
X634440Y313909D01*
X634388Y313947D01*
X634338Y313989D01*
X634291Y314033D01*
X634247Y314080D01*
X634205Y314130D01*
X634167Y314182D01*
X634132Y314236D01*
X634100Y314293D01*
X634071Y314351D01*
X634047Y314411D01*
X634026Y314472D01*
X634008Y314534D01*
X633995Y314598D01*
X633985Y314662D01*
X633979Y314726D01*
X633977Y314791D01*
X633977Y317473D01*
X633979Y317538D01*
X633985Y317602D01*
X633995Y317666D01*
X634008Y317730D01*
X634026Y317792D01*
X634047Y317853D01*
X634071Y317913D01*
X634100Y317971D01*
X634132Y318028D01*
X634167Y318082D01*
X634205Y318134D01*
X634247Y318184D01*
X634291Y318231D01*
X634338Y318275D01*
X634388Y318317D01*
X634440Y318355D01*
X634494Y318390D01*
X634551Y318422D01*
X634609Y318451D01*
X634669Y318475D01*
X634730Y318496D01*
X634792Y318514D01*
X634856Y318527D01*
X634920Y318537D01*
X634984Y318543D01*
X635049Y318545D01*
X636121Y318545D01*
X638577Y317473D02*
X639918Y318545D01*
X639918Y313719D01*
X641258Y313719D02*
X638577Y313719D01*
D13*
X267500Y345000D03*
X267500Y365000D03*
X267500Y385000D03*
X247500Y345000D03*
X247500Y365000D03*
X247500Y385000D03*
X712500Y345000D03*
X712500Y365000D03*
X712500Y385000D03*
X732500Y345000D03*
X732500Y365000D03*
X732500Y385000D03*
X400000Y300000D03*
X490000Y462500D03*
X580000Y300000D03*
D10*
X617000Y280200D02*
X363000Y280200D01*
X617000Y280200D02*
X617000Y254800D01*
X363000Y254800D01*
X363000Y280200D01*
X375573Y289598D02*
X375573Y297853D01*
X375573Y289598D02*
X375575Y289487D01*
X375581Y289377D01*
X375590Y289266D01*
X375604Y289156D01*
X375621Y289047D01*
X375642Y288938D01*
X375667Y288830D01*
X375696Y288723D01*
X375728Y288617D01*
X375764Y288512D01*
X375804Y288409D01*
X375847Y288307D01*
X375894Y288206D01*
X375945Y288107D01*
X375998Y288011D01*
X376055Y287916D01*
X376116Y287823D01*
X376179Y287732D01*
X376246Y287643D01*
X376316Y287557D01*
X376389Y287474D01*
X376464Y287392D01*
X376542Y287314D01*
X376624Y287239D01*
X376707Y287166D01*
X376793Y287096D01*
X376882Y287029D01*
X376973Y286966D01*
X377066Y286905D01*
X377161Y286848D01*
X377257Y286795D01*
X377356Y286744D01*
X377457Y286697D01*
X377559Y286654D01*
X377662Y286614D01*
X377767Y286578D01*
X377873Y286546D01*
X377980Y286517D01*
X378088Y286492D01*
X378197Y286471D01*
X378306Y286454D01*
X378416Y286440D01*
X378527Y286431D01*
X378637Y286425D01*
X378748Y286423D01*
X378859Y286425D01*
X378969Y286431D01*
X379080Y286440D01*
X379190Y286454D01*
X379299Y286471D01*
X379408Y286492D01*
X379516Y286517D01*
X379623Y286546D01*
X379729Y286578D01*
X379834Y286614D01*
X379937Y286654D01*
X380039Y286697D01*
X380140Y286744D01*
X380239Y286795D01*
X380335Y286848D01*
X380430Y286905D01*
X380523Y286966D01*
X380614Y287029D01*
X380703Y287096D01*
X380789Y287166D01*
X380872Y287239D01*
X380954Y287314D01*
X381032Y287392D01*
X381107Y287474D01*
X381180Y287557D01*
X381250Y287643D01*
X381317Y287732D01*
X381380Y287823D01*
X381441Y287916D01*
X381498Y288010D01*
X381551Y288107D01*
X381602Y288206D01*
X381649Y288307D01*
X381692Y288409D01*
X381732Y288512D01*
X381768Y288617D01*
X381800Y288723D01*
X381829Y288830D01*
X381854Y288938D01*
X381875Y289047D01*
X381892Y289156D01*
X381906Y289266D01*
X381915Y289377D01*
X381921Y289487D01*
X381923Y289598D01*
X381923Y297853D01*
X389797Y297853D02*
X389797Y286423D01*
X389797Y292138D02*
X388210Y293091D01*
X388209Y293090D02*
X388136Y293137D01*
X388065Y293186D01*
X387996Y293239D01*
X387930Y293295D01*
X387866Y293354D01*
X387805Y293415D01*
X387747Y293479D01*
X387692Y293546D01*
X387640Y293616D01*
X387592Y293687D01*
X387546Y293761D01*
X387504Y293837D01*
X387466Y293915D01*
X387431Y293994D01*
X387400Y294075D01*
X387373Y294157D01*
X387349Y294240D01*
X387329Y294325D01*
X387313Y294410D01*
X387301Y294496D01*
X387293Y294582D01*
X387289Y294668D01*
X387288Y294755D01*
X387292Y294842D01*
X387300Y294928D01*
X387311Y295014D01*
X387327Y295099D01*
X387346Y295183D01*
X387369Y295267D01*
X387396Y295349D01*
X387427Y295430D01*
X387462Y295510D01*
X387499Y295587D01*
X387541Y295663D01*
X387586Y295738D01*
X387634Y295809D01*
X387686Y295879D01*
X387740Y295946D01*
X387798Y296011D01*
X387858Y296073D01*
X387922Y296132D01*
X387988Y296188D01*
X388056Y296242D01*
X388127Y296291D01*
X388200Y296338D01*
X388275Y296381D01*
X388352Y296421D01*
X388430Y296457D01*
X388511Y296490D01*
X388592Y296519D01*
X388675Y296544D01*
X388759Y296566D01*
X388844Y296583D01*
X388845Y296583D02*
X388982Y296606D01*
X389121Y296626D01*
X389259Y296641D01*
X389398Y296653D01*
X389538Y296661D01*
X389677Y296664D01*
X389817Y296665D01*
X389956Y296661D01*
X390095Y296653D01*
X390234Y296642D01*
X390373Y296626D01*
X390511Y296607D01*
X390649Y296584D01*
X390786Y296557D01*
X390922Y296526D01*
X391057Y296492D01*
X391191Y296454D01*
X391325Y296412D01*
X391456Y296366D01*
X391587Y296317D01*
X391716Y296264D01*
X391844Y296208D01*
X391970Y296148D01*
X392094Y296085D01*
X392217Y296018D01*
X392337Y295948D01*
X389797Y292138D02*
X391385Y291186D01*
X391458Y291139D01*
X391529Y291090D01*
X391598Y291037D01*
X391664Y290981D01*
X391728Y290922D01*
X391789Y290861D01*
X391847Y290797D01*
X391902Y290730D01*
X391954Y290660D01*
X392002Y290589D01*
X392048Y290515D01*
X392090Y290439D01*
X392128Y290361D01*
X392163Y290282D01*
X392194Y290201D01*
X392221Y290119D01*
X392245Y290036D01*
X392265Y289951D01*
X392281Y289866D01*
X392293Y289780D01*
X392301Y289694D01*
X392305Y289608D01*
X392306Y289521D01*
X392302Y289434D01*
X392294Y289348D01*
X392283Y289262D01*
X392267Y289177D01*
X392248Y289093D01*
X392225Y289009D01*
X392198Y288927D01*
X392167Y288846D01*
X392132Y288766D01*
X392095Y288689D01*
X392053Y288613D01*
X392008Y288538D01*
X391960Y288467D01*
X391908Y288397D01*
X391854Y288330D01*
X391796Y288265D01*
X391736Y288203D01*
X391672Y288144D01*
X391606Y288088D01*
X391538Y288034D01*
X391467Y287985D01*
X391394Y287938D01*
X391319Y287895D01*
X391242Y287855D01*
X391164Y287819D01*
X391083Y287786D01*
X391002Y287757D01*
X390919Y287732D01*
X390835Y287710D01*
X390750Y287693D01*
X390749Y287693D02*
X390612Y287670D01*
X390473Y287650D01*
X390335Y287635D01*
X390196Y287623D01*
X390056Y287615D01*
X389917Y287612D01*
X389777Y287611D01*
X389638Y287615D01*
X389499Y287623D01*
X389360Y287634D01*
X389221Y287650D01*
X389083Y287669D01*
X388945Y287692D01*
X388808Y287719D01*
X388672Y287750D01*
X388537Y287784D01*
X388403Y287822D01*
X388269Y287864D01*
X388138Y287910D01*
X388007Y287959D01*
X387878Y288012D01*
X387750Y288068D01*
X387624Y288128D01*
X387500Y288191D01*
X387377Y288258D01*
X387257Y288328D01*
X397290Y296583D02*
X397290Y297853D01*
X403640Y297853D01*
X400465Y286423D01*
X607875Y286416D02*
X612701Y286416D01*
X607875Y286416D02*
X607875Y287757D01*
X607877Y287828D01*
X607883Y287900D01*
X607892Y287970D01*
X607905Y288040D01*
X607922Y288110D01*
X607943Y288178D01*
X607967Y288245D01*
X607995Y288311D01*
X608026Y288375D01*
X608061Y288438D01*
X608099Y288498D01*
X608140Y288557D01*
X608184Y288613D01*
X608231Y288667D01*
X608280Y288718D01*
X608333Y288766D01*
X608388Y288812D01*
X608445Y288854D01*
X608505Y288894D01*
X608566Y288930D01*
X608630Y288963D01*
X608695Y288992D01*
X608761Y289018D01*
X608829Y289041D01*
X608898Y289060D01*
X608968Y289075D01*
X609038Y289086D01*
X609109Y289094D01*
X609180Y289098D01*
X609252Y289098D01*
X609323Y289094D01*
X609394Y289086D01*
X609464Y289075D01*
X609534Y289060D01*
X609603Y289041D01*
X609671Y289018D01*
X609737Y288992D01*
X609802Y288963D01*
X609866Y288930D01*
X609927Y288894D01*
X609987Y288854D01*
X610044Y288812D01*
X610099Y288766D01*
X610152Y288718D01*
X610201Y288667D01*
X610248Y288613D01*
X610292Y288557D01*
X610333Y288498D01*
X610371Y288438D01*
X610406Y288375D01*
X610437Y288311D01*
X610465Y288245D01*
X610489Y288178D01*
X610510Y288110D01*
X610527Y288040D01*
X610540Y287970D01*
X610549Y287900D01*
X610555Y287828D01*
X610557Y287757D01*
X610556Y287757D02*
X610556Y286416D01*
X610556Y288025D02*
X612701Y289097D01*
X612701Y292814D02*
X607875Y292814D01*
X607875Y294154D02*
X607875Y291473D01*
X608947Y296594D02*
X607875Y297934D01*
X612701Y297934D01*
X612701Y296594D02*
X612701Y299275D01*
X612701Y302263D02*
X607875Y302263D01*
X610020Y302263D02*
X610020Y304944D01*
X607875Y304944D02*
X612701Y304944D01*
D13*
X305000Y265000D03*
X325000Y265000D03*
X345000Y265000D03*
X635000Y267500D03*
X655000Y267500D03*
X675000Y267500D03*
D10*
X444915Y446766D02*
X440089Y446766D01*
X444915Y446766D02*
X444915Y448911D01*
X444915Y451521D02*
X444915Y453666D01*
X444915Y451521D02*
X440089Y451521D01*
X440089Y453666D01*
X442234Y453130D02*
X442234Y451521D01*
X440089Y456257D02*
X444915Y456257D01*
X440089Y456257D02*
X440089Y457597D01*
X440091Y457667D01*
X440096Y457737D01*
X440106Y457807D01*
X440118Y457876D01*
X440135Y457944D01*
X440155Y458011D01*
X440178Y458078D01*
X440205Y458142D01*
X440235Y458206D01*
X440269Y458268D01*
X440305Y458327D01*
X440345Y458385D01*
X440388Y458441D01*
X440433Y458494D01*
X440482Y458545D01*
X440533Y458594D01*
X440586Y458639D01*
X440642Y458682D01*
X440700Y458722D01*
X440760Y458758D01*
X440821Y458792D01*
X440885Y458822D01*
X440949Y458849D01*
X441016Y458872D01*
X441083Y458892D01*
X441151Y458909D01*
X441220Y458921D01*
X441290Y458931D01*
X441360Y458936D01*
X441430Y458938D01*
X443574Y458938D01*
X443644Y458936D01*
X443714Y458931D01*
X443784Y458921D01*
X443853Y458909D01*
X443921Y458892D01*
X443988Y458872D01*
X444055Y458849D01*
X444119Y458822D01*
X444183Y458792D01*
X444245Y458758D01*
X444304Y458722D01*
X444362Y458682D01*
X444418Y458639D01*
X444471Y458594D01*
X444522Y458545D01*
X444571Y458494D01*
X444616Y458441D01*
X444659Y458385D01*
X444699Y458327D01*
X444735Y458267D01*
X444769Y458206D01*
X444799Y458142D01*
X444826Y458078D01*
X444849Y458011D01*
X444869Y457944D01*
X444886Y457876D01*
X444898Y457807D01*
X444908Y457737D01*
X444913Y457667D01*
X444915Y457597D01*
X444915Y456257D01*
X444915Y462172D02*
X440089Y462172D01*
X440089Y463513D01*
X440091Y463584D01*
X440097Y463656D01*
X440106Y463726D01*
X440119Y463796D01*
X440136Y463866D01*
X440157Y463934D01*
X440181Y464001D01*
X440209Y464067D01*
X440240Y464131D01*
X440275Y464194D01*
X440313Y464254D01*
X440354Y464313D01*
X440398Y464369D01*
X440445Y464423D01*
X440494Y464474D01*
X440547Y464522D01*
X440602Y464568D01*
X440659Y464610D01*
X440719Y464650D01*
X440780Y464686D01*
X440844Y464719D01*
X440909Y464748D01*
X440975Y464774D01*
X441043Y464797D01*
X441112Y464816D01*
X441182Y464831D01*
X441252Y464842D01*
X441323Y464850D01*
X441394Y464854D01*
X441466Y464854D01*
X441537Y464850D01*
X441608Y464842D01*
X441678Y464831D01*
X441748Y464816D01*
X441817Y464797D01*
X441885Y464774D01*
X441951Y464748D01*
X442016Y464719D01*
X442080Y464686D01*
X442141Y464650D01*
X442201Y464610D01*
X442258Y464568D01*
X442313Y464522D01*
X442366Y464474D01*
X442415Y464423D01*
X442462Y464369D01*
X442506Y464313D01*
X442547Y464254D01*
X442585Y464194D01*
X442620Y464131D01*
X442651Y464067D01*
X442679Y464001D01*
X442703Y463934D01*
X442724Y463866D01*
X442741Y463796D01*
X442754Y463726D01*
X442763Y463656D01*
X442769Y463584D01*
X442771Y463513D01*
X442770Y463513D02*
X442770Y462172D01*
X442770Y463781D02*
X444915Y464854D01*
D15*
X509100Y454525D02*
X509100Y440875D01*
D10*
X476015Y457860D02*
X476015Y462686D01*
X476015Y457860D02*
X478160Y457860D01*
X480770Y457860D02*
X482915Y457860D01*
X480770Y457860D02*
X480770Y462686D01*
X482915Y462686D01*
X482379Y460541D02*
X480770Y460541D01*
X485505Y462686D02*
X485505Y457860D01*
X485505Y462686D02*
X486846Y462686D01*
X486916Y462684D01*
X486986Y462679D01*
X487056Y462669D01*
X487125Y462657D01*
X487193Y462640D01*
X487260Y462620D01*
X487327Y462597D01*
X487391Y462570D01*
X487455Y462540D01*
X487517Y462506D01*
X487576Y462470D01*
X487634Y462430D01*
X487690Y462387D01*
X487743Y462342D01*
X487794Y462293D01*
X487843Y462242D01*
X487888Y462189D01*
X487931Y462133D01*
X487971Y462075D01*
X488007Y462016D01*
X488041Y461954D01*
X488071Y461890D01*
X488098Y461826D01*
X488121Y461759D01*
X488141Y461692D01*
X488158Y461624D01*
X488170Y461555D01*
X488180Y461485D01*
X488185Y461415D01*
X488187Y461345D01*
X488186Y461345D02*
X488186Y459201D01*
X488187Y459201D02*
X488185Y459131D01*
X488180Y459061D01*
X488170Y458991D01*
X488158Y458922D01*
X488141Y458854D01*
X488121Y458787D01*
X488098Y458720D01*
X488071Y458656D01*
X488041Y458592D01*
X488007Y458530D01*
X487971Y458471D01*
X487931Y458413D01*
X487888Y458357D01*
X487843Y458304D01*
X487794Y458253D01*
X487743Y458204D01*
X487690Y458159D01*
X487634Y458116D01*
X487576Y458076D01*
X487516Y458040D01*
X487455Y458006D01*
X487391Y457976D01*
X487327Y457949D01*
X487260Y457926D01*
X487193Y457906D01*
X487125Y457889D01*
X487056Y457877D01*
X486986Y457867D01*
X486916Y457862D01*
X486846Y457860D01*
X485505Y457860D01*
X491504Y460541D02*
X492844Y460541D01*
X492844Y460542D02*
X492915Y460540D01*
X492987Y460534D01*
X493057Y460525D01*
X493127Y460512D01*
X493197Y460495D01*
X493265Y460474D01*
X493332Y460450D01*
X493398Y460422D01*
X493462Y460391D01*
X493525Y460356D01*
X493585Y460318D01*
X493644Y460277D01*
X493700Y460233D01*
X493754Y460186D01*
X493805Y460137D01*
X493853Y460084D01*
X493899Y460029D01*
X493941Y459972D01*
X493981Y459912D01*
X494017Y459851D01*
X494050Y459787D01*
X494079Y459722D01*
X494105Y459656D01*
X494128Y459588D01*
X494147Y459519D01*
X494162Y459449D01*
X494173Y459379D01*
X494181Y459308D01*
X494185Y459237D01*
X494185Y459165D01*
X494181Y459094D01*
X494173Y459023D01*
X494162Y458953D01*
X494147Y458883D01*
X494128Y458814D01*
X494105Y458746D01*
X494079Y458680D01*
X494050Y458615D01*
X494017Y458551D01*
X493981Y458490D01*
X493941Y458430D01*
X493899Y458373D01*
X493853Y458318D01*
X493805Y458265D01*
X493754Y458216D01*
X493700Y458169D01*
X493644Y458125D01*
X493585Y458084D01*
X493525Y458046D01*
X493462Y458011D01*
X493398Y457980D01*
X493332Y457952D01*
X493265Y457928D01*
X493197Y457907D01*
X493127Y457890D01*
X493057Y457877D01*
X492987Y457868D01*
X492915Y457862D01*
X492844Y457860D01*
X491504Y457860D01*
X491504Y462686D01*
X492844Y462686D01*
X492909Y462684D01*
X492973Y462678D01*
X493037Y462668D01*
X493101Y462655D01*
X493163Y462637D01*
X493224Y462616D01*
X493284Y462592D01*
X493342Y462563D01*
X493399Y462531D01*
X493453Y462496D01*
X493505Y462458D01*
X493555Y462416D01*
X493602Y462372D01*
X493646Y462325D01*
X493688Y462275D01*
X493726Y462223D01*
X493761Y462169D01*
X493793Y462112D01*
X493822Y462054D01*
X493846Y461994D01*
X493867Y461933D01*
X493885Y461871D01*
X493898Y461807D01*
X493908Y461743D01*
X493914Y461679D01*
X493916Y461614D01*
X493914Y461549D01*
X493908Y461485D01*
X493898Y461421D01*
X493885Y461357D01*
X493867Y461295D01*
X493846Y461234D01*
X493822Y461174D01*
X493793Y461116D01*
X493761Y461059D01*
X493726Y461005D01*
X493688Y460953D01*
X493646Y460903D01*
X493602Y460856D01*
X493555Y460812D01*
X493505Y460770D01*
X493453Y460732D01*
X493399Y460697D01*
X493342Y460665D01*
X493284Y460636D01*
X493224Y460612D01*
X493163Y460591D01*
X493101Y460573D01*
X493037Y460560D01*
X492973Y460550D01*
X492909Y460544D01*
X492844Y460542D01*
D16*
G36*
X546689Y459082D02*
X543377Y462932D01*
X547227Y466244D01*
X550539Y462394D01*
X546689Y459082D01*
G37*
G36*
X559731Y443919D02*
X556419Y447769D01*
X560269Y451081D01*
X563581Y447231D01*
X559731Y443919D01*
G37*
G36*
X572773Y428756D02*
X569461Y432606D01*
X573311Y435918D01*
X576623Y432068D01*
X572773Y428756D01*
G37*
G36*
X410696Y432508D02*
X407424Y428624D01*
X403540Y431896D01*
X406812Y435780D01*
X410696Y432508D01*
G37*
G36*
X423578Y447806D02*
X420306Y443922D01*
X416422Y447194D01*
X419694Y451078D01*
X423578Y447806D01*
G37*
G36*
X436460Y463104D02*
X433188Y459220D01*
X429304Y462492D01*
X432576Y466376D01*
X436460Y463104D01*
G37*
D13*
X727500Y305000D03*
X727500Y285000D03*
X727500Y265000D03*
X252500Y265000D03*
X252500Y285000D03*
X252500Y305000D03*
X395900Y326800D03*
M02*
