G04 EAGLE Gerber X2 export*
G04 #@! %TF.Part,Single*
G04 #@! %TF.FileFunction,Legend,Bot,1*
G04 #@! %TF.FilePolarity,Positive*
G04 #@! %TF.GenerationSoftware,Autodesk,EAGLE,8.6.0*
G04 #@! %TF.CreationDate,2018-03-03T08:39:01Z*
G75*
%MOMM*%
%FSLAX34Y34*%
%LPD*%
%AMOC8*
5,1,8,0,0,1.08239X$1,22.5*%
G01*
%ADD10C,0.127000*%
%ADD11R,0.508000X0.508000*%


D10*
X526536Y360656D02*
X527609Y360656D01*
X527674Y360658D01*
X527738Y360664D01*
X527802Y360674D01*
X527866Y360687D01*
X527928Y360705D01*
X527989Y360726D01*
X528049Y360750D01*
X528107Y360779D01*
X528164Y360811D01*
X528218Y360846D01*
X528270Y360884D01*
X528320Y360926D01*
X528367Y360970D01*
X528411Y361017D01*
X528453Y361067D01*
X528491Y361119D01*
X528526Y361173D01*
X528558Y361230D01*
X528587Y361288D01*
X528611Y361348D01*
X528632Y361409D01*
X528650Y361471D01*
X528663Y361535D01*
X528673Y361599D01*
X528679Y361663D01*
X528681Y361728D01*
X528681Y364409D01*
X528679Y364474D01*
X528673Y364538D01*
X528663Y364602D01*
X528650Y364666D01*
X528632Y364728D01*
X528611Y364789D01*
X528587Y364849D01*
X528558Y364907D01*
X528526Y364964D01*
X528491Y365018D01*
X528453Y365070D01*
X528411Y365120D01*
X528367Y365167D01*
X528320Y365211D01*
X528270Y365253D01*
X528218Y365291D01*
X528164Y365326D01*
X528107Y365358D01*
X528049Y365387D01*
X527989Y365411D01*
X527928Y365432D01*
X527866Y365450D01*
X527802Y365463D01*
X527738Y365473D01*
X527674Y365479D01*
X527609Y365481D01*
X527609Y365482D02*
X526536Y365482D01*
X524361Y360119D02*
X522216Y360119D01*
X519362Y363337D02*
X518022Y363337D01*
X517951Y363335D01*
X517879Y363329D01*
X517809Y363320D01*
X517739Y363307D01*
X517669Y363290D01*
X517601Y363269D01*
X517534Y363245D01*
X517468Y363217D01*
X517404Y363186D01*
X517341Y363151D01*
X517281Y363113D01*
X517222Y363072D01*
X517166Y363028D01*
X517112Y362981D01*
X517061Y362932D01*
X517013Y362879D01*
X516967Y362824D01*
X516925Y362767D01*
X516885Y362707D01*
X516849Y362646D01*
X516816Y362582D01*
X516787Y362517D01*
X516761Y362451D01*
X516738Y362383D01*
X516719Y362314D01*
X516704Y362244D01*
X516693Y362174D01*
X516685Y362103D01*
X516681Y362032D01*
X516681Y361960D01*
X516685Y361889D01*
X516693Y361818D01*
X516704Y361748D01*
X516719Y361678D01*
X516738Y361609D01*
X516761Y361541D01*
X516787Y361475D01*
X516816Y361410D01*
X516849Y361346D01*
X516885Y361285D01*
X516925Y361225D01*
X516967Y361168D01*
X517013Y361113D01*
X517061Y361060D01*
X517112Y361011D01*
X517166Y360964D01*
X517222Y360920D01*
X517281Y360879D01*
X517341Y360841D01*
X517404Y360806D01*
X517468Y360775D01*
X517534Y360747D01*
X517601Y360723D01*
X517669Y360702D01*
X517739Y360685D01*
X517809Y360672D01*
X517879Y360663D01*
X517951Y360657D01*
X518022Y360655D01*
X518022Y360656D02*
X519362Y360656D01*
X519362Y365482D01*
X518022Y365482D01*
X518022Y365481D02*
X517957Y365479D01*
X517893Y365473D01*
X517829Y365463D01*
X517765Y365450D01*
X517703Y365432D01*
X517642Y365411D01*
X517582Y365387D01*
X517524Y365358D01*
X517467Y365326D01*
X517413Y365291D01*
X517361Y365253D01*
X517311Y365211D01*
X517264Y365167D01*
X517220Y365120D01*
X517178Y365070D01*
X517140Y365018D01*
X517105Y364964D01*
X517073Y364907D01*
X517044Y364849D01*
X517020Y364789D01*
X516999Y364728D01*
X516981Y364666D01*
X516968Y364602D01*
X516958Y364538D01*
X516952Y364474D01*
X516950Y364409D01*
X516952Y364344D01*
X516958Y364280D01*
X516968Y364216D01*
X516981Y364152D01*
X516999Y364090D01*
X517020Y364029D01*
X517044Y363969D01*
X517073Y363911D01*
X517105Y363854D01*
X517140Y363800D01*
X517178Y363748D01*
X517220Y363698D01*
X517264Y363651D01*
X517311Y363607D01*
X517361Y363565D01*
X517413Y363527D01*
X517467Y363492D01*
X517524Y363460D01*
X517582Y363431D01*
X517642Y363407D01*
X517703Y363386D01*
X517765Y363368D01*
X517829Y363355D01*
X517893Y363345D01*
X517957Y363339D01*
X518022Y363337D01*
X514473Y360656D02*
X512865Y365482D01*
X511256Y360656D01*
X511658Y361862D02*
X514071Y361862D01*
X507744Y360656D02*
X507744Y365482D01*
X506404Y365482D02*
X509085Y365482D01*
X464823Y378993D02*
X464823Y380065D01*
X464824Y378993D02*
X464826Y378928D01*
X464832Y378864D01*
X464842Y378800D01*
X464855Y378736D01*
X464873Y378674D01*
X464894Y378613D01*
X464918Y378553D01*
X464947Y378495D01*
X464979Y378438D01*
X465014Y378384D01*
X465052Y378332D01*
X465094Y378282D01*
X465138Y378235D01*
X465185Y378191D01*
X465235Y378149D01*
X465287Y378111D01*
X465341Y378076D01*
X465398Y378044D01*
X465456Y378015D01*
X465516Y377991D01*
X465577Y377970D01*
X465639Y377952D01*
X465703Y377939D01*
X465767Y377929D01*
X465831Y377923D01*
X465896Y377921D01*
X465896Y377920D02*
X468577Y377920D01*
X468577Y377921D02*
X468642Y377923D01*
X468706Y377929D01*
X468770Y377939D01*
X468834Y377952D01*
X468896Y377970D01*
X468957Y377991D01*
X469017Y378015D01*
X469075Y378044D01*
X469132Y378076D01*
X469186Y378111D01*
X469238Y378149D01*
X469288Y378191D01*
X469335Y378235D01*
X469379Y378282D01*
X469421Y378332D01*
X469459Y378384D01*
X469494Y378438D01*
X469526Y378495D01*
X469555Y378553D01*
X469579Y378613D01*
X469600Y378674D01*
X469618Y378736D01*
X469631Y378800D01*
X469641Y378864D01*
X469647Y378928D01*
X469649Y378993D01*
X469649Y380065D01*
X464287Y382240D02*
X464287Y384385D01*
X464823Y388251D02*
X469649Y386642D01*
X469649Y389859D02*
X464823Y388251D01*
X468577Y392396D02*
X469649Y393737D01*
X464823Y393737D01*
X464823Y392396D02*
X464823Y395078D01*
X526717Y343467D02*
X526717Y342395D01*
X526719Y342330D01*
X526725Y342266D01*
X526735Y342202D01*
X526748Y342138D01*
X526766Y342076D01*
X526787Y342015D01*
X526811Y341955D01*
X526840Y341897D01*
X526872Y341840D01*
X526907Y341786D01*
X526945Y341734D01*
X526987Y341684D01*
X527031Y341637D01*
X527078Y341593D01*
X527128Y341551D01*
X527180Y341513D01*
X527234Y341478D01*
X527291Y341446D01*
X527349Y341417D01*
X527409Y341393D01*
X527470Y341372D01*
X527532Y341354D01*
X527596Y341341D01*
X527660Y341331D01*
X527724Y341325D01*
X527789Y341323D01*
X527789Y341322D02*
X530470Y341322D01*
X530470Y341323D02*
X530535Y341325D01*
X530599Y341331D01*
X530663Y341341D01*
X530727Y341354D01*
X530789Y341372D01*
X530850Y341393D01*
X530910Y341417D01*
X530968Y341446D01*
X531025Y341478D01*
X531079Y341513D01*
X531131Y341551D01*
X531181Y341593D01*
X531228Y341637D01*
X531272Y341684D01*
X531314Y341734D01*
X531352Y341786D01*
X531387Y341840D01*
X531419Y341897D01*
X531448Y341955D01*
X531472Y342015D01*
X531493Y342076D01*
X531511Y342138D01*
X531524Y342202D01*
X531534Y342266D01*
X531540Y342330D01*
X531542Y342395D01*
X531543Y342395D02*
X531543Y343467D01*
X526181Y345643D02*
X526181Y347787D01*
X526717Y351653D02*
X531543Y350044D01*
X531543Y353261D02*
X526717Y351653D01*
X531543Y357273D02*
X531541Y357341D01*
X531535Y357408D01*
X531526Y357475D01*
X531513Y357542D01*
X531496Y357607D01*
X531475Y357672D01*
X531451Y357735D01*
X531423Y357797D01*
X531392Y357857D01*
X531358Y357915D01*
X531320Y357971D01*
X531280Y358026D01*
X531236Y358077D01*
X531189Y358126D01*
X531140Y358173D01*
X531089Y358217D01*
X531034Y358257D01*
X530978Y358295D01*
X530920Y358329D01*
X530860Y358360D01*
X530798Y358388D01*
X530735Y358412D01*
X530670Y358433D01*
X530605Y358450D01*
X530538Y358463D01*
X530471Y358472D01*
X530404Y358478D01*
X530336Y358480D01*
X531543Y357273D02*
X531541Y357195D01*
X531535Y357117D01*
X531525Y357040D01*
X531512Y356963D01*
X531494Y356887D01*
X531473Y356812D01*
X531448Y356738D01*
X531419Y356666D01*
X531387Y356595D01*
X531351Y356526D01*
X531312Y356458D01*
X531269Y356393D01*
X531223Y356330D01*
X531174Y356269D01*
X531122Y356211D01*
X531067Y356156D01*
X531010Y356103D01*
X530950Y356054D01*
X530887Y356007D01*
X530822Y355964D01*
X530756Y355924D01*
X530687Y355887D01*
X530616Y355854D01*
X530544Y355824D01*
X530471Y355798D01*
X529398Y358078D02*
X529447Y358127D01*
X529499Y358174D01*
X529554Y358217D01*
X529611Y358258D01*
X529670Y358296D01*
X529731Y358330D01*
X529794Y358361D01*
X529858Y358389D01*
X529924Y358413D01*
X529990Y358433D01*
X530058Y358450D01*
X530127Y358463D01*
X530196Y358472D01*
X530266Y358478D01*
X530336Y358480D01*
X529398Y358077D02*
X526717Y355799D01*
X526717Y358480D01*
X525111Y377845D02*
X524039Y377845D01*
X525111Y377846D02*
X525176Y377848D01*
X525240Y377854D01*
X525304Y377864D01*
X525368Y377877D01*
X525430Y377895D01*
X525491Y377916D01*
X525551Y377940D01*
X525609Y377969D01*
X525666Y378001D01*
X525720Y378036D01*
X525772Y378074D01*
X525822Y378116D01*
X525869Y378160D01*
X525913Y378207D01*
X525955Y378257D01*
X525993Y378309D01*
X526028Y378363D01*
X526060Y378420D01*
X526089Y378478D01*
X526113Y378538D01*
X526134Y378599D01*
X526152Y378661D01*
X526165Y378725D01*
X526175Y378789D01*
X526181Y378853D01*
X526183Y378918D01*
X526184Y378918D02*
X526184Y381599D01*
X526183Y381599D02*
X526181Y381664D01*
X526175Y381728D01*
X526165Y381792D01*
X526152Y381856D01*
X526134Y381918D01*
X526113Y381979D01*
X526089Y382039D01*
X526060Y382097D01*
X526028Y382154D01*
X525993Y382208D01*
X525955Y382260D01*
X525913Y382310D01*
X525869Y382357D01*
X525822Y382401D01*
X525772Y382443D01*
X525720Y382481D01*
X525666Y382516D01*
X525609Y382548D01*
X525551Y382577D01*
X525491Y382601D01*
X525430Y382622D01*
X525368Y382640D01*
X525304Y382653D01*
X525240Y382663D01*
X525176Y382669D01*
X525111Y382671D01*
X524039Y382671D01*
X521864Y377309D02*
X519719Y377309D01*
X515854Y377845D02*
X517462Y382671D01*
X514245Y382671D02*
X515854Y377845D01*
X511708Y377845D02*
X510367Y377845D01*
X510296Y377847D01*
X510224Y377853D01*
X510154Y377862D01*
X510084Y377875D01*
X510014Y377892D01*
X509946Y377913D01*
X509879Y377937D01*
X509813Y377965D01*
X509749Y377996D01*
X509686Y378031D01*
X509626Y378069D01*
X509567Y378110D01*
X509511Y378154D01*
X509457Y378201D01*
X509406Y378250D01*
X509358Y378303D01*
X509312Y378358D01*
X509270Y378415D01*
X509230Y378475D01*
X509194Y378536D01*
X509161Y378600D01*
X509132Y378665D01*
X509106Y378731D01*
X509083Y378799D01*
X509064Y378868D01*
X509049Y378938D01*
X509038Y379008D01*
X509030Y379079D01*
X509026Y379150D01*
X509026Y379222D01*
X509030Y379293D01*
X509038Y379364D01*
X509049Y379434D01*
X509064Y379504D01*
X509083Y379573D01*
X509106Y379641D01*
X509132Y379707D01*
X509161Y379772D01*
X509194Y379836D01*
X509230Y379897D01*
X509270Y379957D01*
X509312Y380014D01*
X509358Y380069D01*
X509406Y380122D01*
X509457Y380171D01*
X509511Y380218D01*
X509567Y380262D01*
X509626Y380303D01*
X509686Y380341D01*
X509749Y380376D01*
X509813Y380407D01*
X509879Y380435D01*
X509946Y380459D01*
X510014Y380480D01*
X510084Y380497D01*
X510154Y380510D01*
X510224Y380519D01*
X510296Y380525D01*
X510367Y380527D01*
X510099Y382671D02*
X511708Y382671D01*
X510099Y382671D02*
X510034Y382669D01*
X509970Y382663D01*
X509906Y382653D01*
X509842Y382640D01*
X509780Y382622D01*
X509719Y382601D01*
X509659Y382577D01*
X509601Y382548D01*
X509544Y382516D01*
X509490Y382481D01*
X509438Y382443D01*
X509388Y382401D01*
X509341Y382357D01*
X509297Y382310D01*
X509255Y382260D01*
X509217Y382208D01*
X509182Y382154D01*
X509150Y382097D01*
X509121Y382039D01*
X509097Y381979D01*
X509076Y381918D01*
X509058Y381856D01*
X509045Y381792D01*
X509035Y381728D01*
X509029Y381664D01*
X509027Y381599D01*
X509029Y381534D01*
X509035Y381470D01*
X509045Y381406D01*
X509058Y381342D01*
X509076Y381280D01*
X509097Y381219D01*
X509121Y381159D01*
X509150Y381101D01*
X509182Y381044D01*
X509217Y380990D01*
X509255Y380938D01*
X509297Y380888D01*
X509341Y380841D01*
X509388Y380797D01*
X509438Y380755D01*
X509490Y380717D01*
X509544Y380682D01*
X509601Y380650D01*
X509659Y380621D01*
X509719Y380597D01*
X509780Y380576D01*
X509842Y380558D01*
X509906Y380545D01*
X509970Y380535D01*
X510034Y380529D01*
X510099Y380527D01*
X510099Y380526D02*
X511171Y380526D01*
X480304Y350722D02*
X479232Y350722D01*
X480304Y350722D02*
X480369Y350724D01*
X480433Y350730D01*
X480497Y350740D01*
X480561Y350753D01*
X480623Y350771D01*
X480684Y350792D01*
X480744Y350816D01*
X480802Y350845D01*
X480859Y350877D01*
X480913Y350912D01*
X480965Y350950D01*
X481015Y350992D01*
X481062Y351036D01*
X481106Y351083D01*
X481148Y351133D01*
X481186Y351185D01*
X481221Y351239D01*
X481253Y351296D01*
X481282Y351354D01*
X481306Y351414D01*
X481327Y351475D01*
X481345Y351537D01*
X481358Y351601D01*
X481368Y351665D01*
X481374Y351729D01*
X481376Y351794D01*
X481377Y351794D02*
X481377Y354475D01*
X481376Y354475D02*
X481374Y354540D01*
X481368Y354604D01*
X481358Y354668D01*
X481345Y354732D01*
X481327Y354794D01*
X481306Y354855D01*
X481282Y354915D01*
X481253Y354973D01*
X481221Y355030D01*
X481186Y355084D01*
X481148Y355136D01*
X481106Y355186D01*
X481062Y355233D01*
X481015Y355277D01*
X480965Y355319D01*
X480913Y355357D01*
X480859Y355392D01*
X480802Y355424D01*
X480744Y355453D01*
X480684Y355477D01*
X480623Y355498D01*
X480561Y355516D01*
X480497Y355529D01*
X480433Y355539D01*
X480369Y355545D01*
X480304Y355547D01*
X480304Y355548D02*
X479232Y355548D01*
X477056Y350185D02*
X474912Y350185D01*
X471046Y350722D02*
X472655Y355548D01*
X469438Y355548D02*
X471046Y350722D01*
X466900Y351794D02*
X465828Y355548D01*
X466900Y351794D02*
X464219Y351794D01*
X465024Y352866D02*
X465024Y350722D01*
X498328Y373845D02*
X498328Y374917D01*
X498329Y373845D02*
X498331Y373780D01*
X498337Y373716D01*
X498347Y373652D01*
X498360Y373588D01*
X498378Y373526D01*
X498399Y373465D01*
X498423Y373405D01*
X498452Y373347D01*
X498484Y373290D01*
X498519Y373236D01*
X498557Y373184D01*
X498599Y373134D01*
X498643Y373087D01*
X498690Y373043D01*
X498740Y373001D01*
X498792Y372963D01*
X498846Y372928D01*
X498903Y372896D01*
X498961Y372867D01*
X499021Y372843D01*
X499082Y372822D01*
X499144Y372804D01*
X499208Y372791D01*
X499272Y372781D01*
X499336Y372775D01*
X499401Y372773D01*
X499401Y372772D02*
X502082Y372772D01*
X502082Y372773D02*
X502147Y372775D01*
X502211Y372781D01*
X502275Y372791D01*
X502339Y372804D01*
X502401Y372822D01*
X502462Y372843D01*
X502522Y372867D01*
X502580Y372896D01*
X502637Y372928D01*
X502691Y372963D01*
X502743Y373001D01*
X502793Y373043D01*
X502840Y373087D01*
X502884Y373134D01*
X502926Y373184D01*
X502964Y373236D01*
X502999Y373290D01*
X503031Y373347D01*
X503060Y373405D01*
X503084Y373465D01*
X503105Y373526D01*
X503123Y373588D01*
X503136Y373652D01*
X503146Y373716D01*
X503152Y373780D01*
X503154Y373845D01*
X503154Y374917D01*
X497792Y377092D02*
X497792Y379237D01*
X498328Y383102D02*
X503154Y381494D01*
X503154Y384711D02*
X498328Y383102D01*
X498328Y386980D02*
X503154Y388589D01*
X498328Y390197D01*
X499535Y389795D02*
X499535Y387382D01*
X502082Y392735D02*
X503154Y394075D01*
X498328Y394075D01*
X498328Y392735D02*
X498328Y395416D01*
X481635Y376128D02*
X481635Y375055D01*
X481637Y374990D01*
X481643Y374926D01*
X481653Y374862D01*
X481666Y374798D01*
X481684Y374736D01*
X481705Y374675D01*
X481729Y374615D01*
X481758Y374557D01*
X481790Y374500D01*
X481825Y374446D01*
X481863Y374394D01*
X481905Y374344D01*
X481949Y374297D01*
X481996Y374253D01*
X482046Y374211D01*
X482098Y374173D01*
X482152Y374138D01*
X482209Y374106D01*
X482267Y374077D01*
X482327Y374053D01*
X482388Y374032D01*
X482450Y374014D01*
X482514Y374001D01*
X482578Y373991D01*
X482642Y373985D01*
X482707Y373983D01*
X485388Y373983D01*
X485453Y373985D01*
X485517Y373991D01*
X485581Y374001D01*
X485645Y374014D01*
X485707Y374032D01*
X485768Y374053D01*
X485828Y374077D01*
X485886Y374106D01*
X485943Y374138D01*
X485997Y374173D01*
X486049Y374211D01*
X486099Y374253D01*
X486146Y374297D01*
X486190Y374344D01*
X486232Y374394D01*
X486270Y374446D01*
X486305Y374500D01*
X486337Y374557D01*
X486366Y374615D01*
X486390Y374675D01*
X486411Y374736D01*
X486429Y374798D01*
X486442Y374862D01*
X486452Y374926D01*
X486458Y374990D01*
X486460Y375055D01*
X486461Y375055D02*
X486461Y376128D01*
X481098Y378303D02*
X481098Y380448D01*
X481635Y384313D02*
X486461Y382704D01*
X486461Y385922D02*
X481635Y384313D01*
X481635Y388191D02*
X486461Y389799D01*
X481635Y391408D01*
X482841Y391006D02*
X482841Y388593D01*
X486461Y395420D02*
X486459Y395488D01*
X486453Y395555D01*
X486444Y395622D01*
X486431Y395689D01*
X486414Y395754D01*
X486393Y395819D01*
X486369Y395882D01*
X486341Y395944D01*
X486310Y396004D01*
X486276Y396062D01*
X486238Y396118D01*
X486198Y396173D01*
X486154Y396224D01*
X486107Y396273D01*
X486058Y396320D01*
X486007Y396364D01*
X485952Y396404D01*
X485896Y396442D01*
X485838Y396476D01*
X485778Y396507D01*
X485716Y396535D01*
X485653Y396559D01*
X485588Y396580D01*
X485523Y396597D01*
X485456Y396610D01*
X485389Y396619D01*
X485322Y396625D01*
X485254Y396627D01*
X486461Y395420D02*
X486459Y395342D01*
X486453Y395264D01*
X486443Y395187D01*
X486430Y395110D01*
X486412Y395034D01*
X486391Y394959D01*
X486366Y394885D01*
X486337Y394813D01*
X486305Y394742D01*
X486269Y394673D01*
X486230Y394605D01*
X486187Y394540D01*
X486141Y394477D01*
X486092Y394416D01*
X486040Y394358D01*
X485985Y394303D01*
X485928Y394250D01*
X485868Y394201D01*
X485805Y394154D01*
X485740Y394111D01*
X485674Y394071D01*
X485605Y394034D01*
X485534Y394001D01*
X485462Y393971D01*
X485389Y393945D01*
X484316Y396224D02*
X484365Y396273D01*
X484417Y396320D01*
X484472Y396363D01*
X484529Y396404D01*
X484588Y396442D01*
X484649Y396476D01*
X484712Y396507D01*
X484776Y396535D01*
X484842Y396559D01*
X484908Y396579D01*
X484976Y396596D01*
X485045Y396609D01*
X485114Y396618D01*
X485184Y396624D01*
X485254Y396626D01*
X484316Y396224D02*
X481635Y393945D01*
X481635Y396626D01*
X486879Y369146D02*
X487951Y369148D01*
X487951Y369149D02*
X488016Y369151D01*
X488080Y369157D01*
X488144Y369167D01*
X488207Y369181D01*
X488270Y369198D01*
X488331Y369219D01*
X488391Y369244D01*
X488449Y369273D01*
X488505Y369305D01*
X488560Y369340D01*
X488612Y369378D01*
X488661Y369420D01*
X488708Y369464D01*
X488753Y369512D01*
X488794Y369561D01*
X488832Y369614D01*
X488867Y369668D01*
X488899Y369724D01*
X488927Y369783D01*
X488952Y369843D01*
X488973Y369904D01*
X488990Y369966D01*
X489004Y370030D01*
X489013Y370094D01*
X489019Y370158D01*
X489021Y370223D01*
X489022Y370223D02*
X489017Y372904D01*
X489015Y372969D01*
X489009Y373033D01*
X488999Y373097D01*
X488985Y373160D01*
X488968Y373223D01*
X488947Y373284D01*
X488922Y373344D01*
X488893Y373402D01*
X488861Y373458D01*
X488826Y373512D01*
X488788Y373565D01*
X488746Y373614D01*
X488702Y373661D01*
X488654Y373706D01*
X488605Y373747D01*
X488552Y373785D01*
X488498Y373820D01*
X488442Y373852D01*
X488383Y373880D01*
X488323Y373905D01*
X488262Y373926D01*
X488200Y373943D01*
X488136Y373957D01*
X488072Y373966D01*
X488008Y373972D01*
X487943Y373974D01*
X486870Y373972D01*
X484704Y368606D02*
X482560Y368603D01*
X478693Y369132D02*
X480294Y373961D01*
X477076Y373955D02*
X478693Y369132D01*
X473504Y369123D02*
X472431Y369121D01*
X473504Y369123D02*
X473569Y369125D01*
X473633Y369131D01*
X473697Y369141D01*
X473760Y369155D01*
X473823Y369172D01*
X473884Y369193D01*
X473944Y369218D01*
X474002Y369247D01*
X474058Y369279D01*
X474113Y369314D01*
X474165Y369352D01*
X474214Y369394D01*
X474261Y369438D01*
X474306Y369486D01*
X474347Y369535D01*
X474385Y369588D01*
X474420Y369642D01*
X474452Y369698D01*
X474480Y369757D01*
X474505Y369817D01*
X474526Y369878D01*
X474543Y369940D01*
X474557Y370004D01*
X474566Y370068D01*
X474572Y370132D01*
X474574Y370197D01*
X474570Y372878D01*
X474569Y372879D02*
X474567Y372944D01*
X474561Y373008D01*
X474551Y373072D01*
X474537Y373135D01*
X474520Y373198D01*
X474499Y373259D01*
X474474Y373319D01*
X474445Y373377D01*
X474413Y373433D01*
X474378Y373487D01*
X474340Y373540D01*
X474298Y373589D01*
X474254Y373636D01*
X474206Y373681D01*
X474157Y373722D01*
X474104Y373760D01*
X474050Y373795D01*
X473994Y373827D01*
X473935Y373855D01*
X473875Y373880D01*
X473814Y373901D01*
X473752Y373918D01*
X473688Y373932D01*
X473624Y373941D01*
X473560Y373947D01*
X473495Y373949D01*
X472423Y373947D01*
X468627Y373940D02*
X470244Y369117D01*
X467026Y369112D02*
X468627Y373940D01*
X467427Y370319D02*
X469840Y370323D01*
X464160Y369107D02*
X464152Y373933D01*
X462811Y373930D01*
X462811Y373931D02*
X462739Y373929D01*
X462668Y373923D01*
X462597Y373914D01*
X462527Y373900D01*
X462458Y373883D01*
X462390Y373862D01*
X462322Y373838D01*
X462257Y373810D01*
X462193Y373779D01*
X462130Y373744D01*
X462070Y373706D01*
X462011Y373665D01*
X461955Y373621D01*
X461902Y373574D01*
X461851Y373524D01*
X461802Y373471D01*
X461757Y373416D01*
X461714Y373359D01*
X461675Y373299D01*
X461639Y373238D01*
X461606Y373174D01*
X461577Y373109D01*
X461551Y373043D01*
X461528Y372975D01*
X461510Y372906D01*
X461495Y372836D01*
X461484Y372766D01*
X461476Y372695D01*
X461472Y372623D01*
X461473Y372552D01*
X461476Y372481D01*
X461484Y372410D01*
X461496Y372339D01*
X461511Y372269D01*
X461530Y372201D01*
X461552Y372133D01*
X461578Y372066D01*
X461608Y372001D01*
X461641Y371938D01*
X461677Y371877D01*
X461717Y371817D01*
X461760Y371760D01*
X461805Y371705D01*
X461854Y371653D01*
X461905Y371603D01*
X461959Y371556D01*
X462015Y371512D01*
X462074Y371471D01*
X462134Y371433D01*
X462197Y371399D01*
X462261Y371368D01*
X462327Y371340D01*
X462394Y371316D01*
X462462Y371296D01*
X462532Y371279D01*
X462602Y371266D01*
X462673Y371256D01*
X462744Y371251D01*
X462815Y371249D01*
X462816Y371249D02*
X464156Y371252D01*
X458997Y372851D02*
X457654Y373921D01*
X457663Y369095D01*
X459003Y369098D02*
X456322Y369093D01*
X507623Y334385D02*
X507623Y333313D01*
X507624Y333313D02*
X507626Y333248D01*
X507632Y333184D01*
X507642Y333120D01*
X507655Y333056D01*
X507673Y332994D01*
X507694Y332933D01*
X507718Y332873D01*
X507747Y332815D01*
X507779Y332758D01*
X507814Y332704D01*
X507852Y332652D01*
X507894Y332602D01*
X507938Y332555D01*
X507985Y332511D01*
X508035Y332469D01*
X508087Y332431D01*
X508141Y332396D01*
X508198Y332364D01*
X508256Y332335D01*
X508316Y332311D01*
X508377Y332290D01*
X508439Y332272D01*
X508503Y332259D01*
X508567Y332249D01*
X508631Y332243D01*
X508696Y332241D01*
X508696Y332240D02*
X511377Y332240D01*
X511377Y332241D02*
X511442Y332243D01*
X511506Y332249D01*
X511570Y332259D01*
X511634Y332272D01*
X511696Y332290D01*
X511757Y332311D01*
X511817Y332335D01*
X511875Y332364D01*
X511932Y332396D01*
X511986Y332431D01*
X512038Y332469D01*
X512088Y332511D01*
X512135Y332555D01*
X512179Y332602D01*
X512221Y332652D01*
X512259Y332704D01*
X512294Y332758D01*
X512326Y332815D01*
X512355Y332873D01*
X512379Y332933D01*
X512400Y332994D01*
X512418Y333056D01*
X512431Y333120D01*
X512441Y333184D01*
X512447Y333248D01*
X512449Y333313D01*
X512449Y334385D01*
X507087Y336560D02*
X507087Y338705D01*
X507623Y342571D02*
X512449Y340962D01*
X512449Y344179D02*
X507623Y342571D01*
X507623Y347760D02*
X507623Y348833D01*
X507624Y347760D02*
X507626Y347695D01*
X507632Y347631D01*
X507642Y347567D01*
X507655Y347503D01*
X507673Y347441D01*
X507694Y347380D01*
X507718Y347320D01*
X507747Y347262D01*
X507779Y347205D01*
X507814Y347151D01*
X507852Y347099D01*
X507894Y347049D01*
X507938Y347002D01*
X507985Y346958D01*
X508035Y346916D01*
X508087Y346878D01*
X508141Y346843D01*
X508198Y346811D01*
X508256Y346782D01*
X508316Y346758D01*
X508377Y346737D01*
X508439Y346719D01*
X508503Y346706D01*
X508567Y346696D01*
X508631Y346690D01*
X508696Y346688D01*
X511377Y346688D01*
X511442Y346690D01*
X511506Y346696D01*
X511570Y346706D01*
X511634Y346719D01*
X511696Y346737D01*
X511757Y346758D01*
X511817Y346782D01*
X511875Y346811D01*
X511932Y346843D01*
X511986Y346878D01*
X512038Y346916D01*
X512088Y346958D01*
X512135Y347002D01*
X512179Y347049D01*
X512221Y347099D01*
X512259Y347151D01*
X512294Y347205D01*
X512326Y347262D01*
X512355Y347320D01*
X512379Y347380D01*
X512400Y347441D01*
X512418Y347503D01*
X512431Y347567D01*
X512441Y347631D01*
X512447Y347695D01*
X512449Y347760D01*
X512449Y348833D01*
X512449Y352629D02*
X507623Y351020D01*
X507623Y354238D02*
X512449Y352629D01*
X508830Y353835D02*
X508830Y351422D01*
X507623Y357104D02*
X512449Y357104D01*
X512449Y358445D01*
X512450Y358445D02*
X512448Y358516D01*
X512442Y358588D01*
X512433Y358658D01*
X512420Y358728D01*
X512403Y358798D01*
X512382Y358866D01*
X512358Y358933D01*
X512330Y358999D01*
X512299Y359063D01*
X512264Y359126D01*
X512226Y359186D01*
X512185Y359245D01*
X512141Y359301D01*
X512094Y359355D01*
X512045Y359406D01*
X511992Y359454D01*
X511937Y359500D01*
X511880Y359542D01*
X511820Y359582D01*
X511759Y359618D01*
X511695Y359651D01*
X511630Y359680D01*
X511564Y359706D01*
X511496Y359729D01*
X511427Y359748D01*
X511357Y359763D01*
X511287Y359774D01*
X511216Y359782D01*
X511145Y359786D01*
X511073Y359786D01*
X511002Y359782D01*
X510931Y359774D01*
X510861Y359763D01*
X510791Y359748D01*
X510722Y359729D01*
X510654Y359706D01*
X510588Y359680D01*
X510523Y359651D01*
X510459Y359618D01*
X510398Y359582D01*
X510338Y359542D01*
X510281Y359500D01*
X510226Y359454D01*
X510173Y359406D01*
X510124Y359355D01*
X510077Y359301D01*
X510033Y359245D01*
X509992Y359186D01*
X509954Y359126D01*
X509919Y359063D01*
X509888Y358999D01*
X509860Y358933D01*
X509836Y358866D01*
X509815Y358798D01*
X509798Y358728D01*
X509785Y358658D01*
X509776Y358588D01*
X509770Y358516D01*
X509768Y358445D01*
X509768Y357104D01*
X512450Y363736D02*
X512448Y363804D01*
X512442Y363871D01*
X512433Y363938D01*
X512420Y364005D01*
X512403Y364070D01*
X512382Y364135D01*
X512358Y364198D01*
X512330Y364260D01*
X512299Y364320D01*
X512265Y364378D01*
X512227Y364434D01*
X512187Y364489D01*
X512143Y364540D01*
X512096Y364589D01*
X512047Y364636D01*
X511996Y364680D01*
X511941Y364720D01*
X511885Y364758D01*
X511827Y364792D01*
X511767Y364823D01*
X511705Y364851D01*
X511642Y364875D01*
X511577Y364896D01*
X511512Y364913D01*
X511445Y364926D01*
X511378Y364935D01*
X511311Y364941D01*
X511243Y364943D01*
X512449Y363736D02*
X512447Y363658D01*
X512441Y363580D01*
X512431Y363503D01*
X512418Y363426D01*
X512400Y363350D01*
X512379Y363275D01*
X512354Y363201D01*
X512325Y363129D01*
X512293Y363058D01*
X512257Y362989D01*
X512218Y362921D01*
X512175Y362856D01*
X512129Y362793D01*
X512080Y362732D01*
X512028Y362674D01*
X511973Y362619D01*
X511916Y362566D01*
X511856Y362517D01*
X511793Y362470D01*
X511728Y362427D01*
X511662Y362387D01*
X511593Y362350D01*
X511522Y362317D01*
X511450Y362287D01*
X511377Y362261D01*
X510305Y364540D02*
X510354Y364589D01*
X510406Y364636D01*
X510461Y364679D01*
X510518Y364720D01*
X510577Y364758D01*
X510638Y364792D01*
X510701Y364823D01*
X510765Y364851D01*
X510831Y364875D01*
X510897Y364895D01*
X510965Y364912D01*
X511034Y364925D01*
X511103Y364934D01*
X511173Y364940D01*
X511243Y364942D01*
X510304Y364540D02*
X507623Y362261D01*
X507623Y364942D01*
D11*
X287500Y385000D03*
X307500Y385000D03*
M02*
