G04 EAGLE Gerber X2 export*
G04 #@! %TF.Part,Single*
G04 #@! %TF.FileFunction,Paste,Top*
G04 #@! %TF.FilePolarity,Positive*
G04 #@! %TF.GenerationSoftware,Autodesk,EAGLE,8.6.0*
G04 #@! %TF.CreationDate,2018-03-03T08:39:01Z*
G75*
%MOMM*%
%FSLAX34Y34*%
%LPD*%
%AMOC8*
5,1,8,0,0,1.08239X$1,22.5*%
G01*
%ADD10R,1.100000X1.000000*%
%ADD11R,1.200000X0.300000*%
%ADD12R,0.300000X1.200000*%
%ADD13R,1.300000X2.000000*%
%ADD14R,1.200000X0.800000*%
%ADD15R,0.838200X1.600200*%
%ADD16R,3.098800X1.600200*%
%ADD17R,1.000000X0.300000*%
%ADD18R,0.600000X3.300000*%
%ADD19R,0.800000X1.200000*%
%ADD20R,1.200000X1.400000*%


D10*
X629100Y379769D03*
X646100Y379769D03*
X668661Y393618D03*
X685661Y393618D03*
D11*
X547498Y362506D03*
X547498Y367506D03*
X547498Y372506D03*
X547498Y357506D03*
X547498Y352506D03*
X547498Y347506D03*
X547498Y342506D03*
X547498Y337506D03*
X547498Y327506D03*
X547498Y332506D03*
X547498Y377506D03*
X547498Y382506D03*
X547498Y387506D03*
X547498Y392506D03*
X547498Y397506D03*
X547498Y402506D03*
D12*
X492498Y422506D03*
X497498Y422506D03*
X502498Y422506D03*
X507498Y422506D03*
X512498Y422506D03*
X517498Y422506D03*
X522498Y422506D03*
X527498Y422506D03*
X487498Y422506D03*
X482498Y422506D03*
X477498Y422506D03*
X472498Y422506D03*
X467498Y422506D03*
X462498Y422506D03*
X457498Y422506D03*
X452498Y422506D03*
D11*
X432498Y362506D03*
X432498Y367506D03*
X432498Y372506D03*
X432498Y357506D03*
X432498Y352506D03*
X432498Y347506D03*
X432498Y342506D03*
X432498Y337506D03*
X432498Y327506D03*
X432498Y332506D03*
X432498Y377506D03*
X432498Y382506D03*
X432498Y387506D03*
X432498Y392506D03*
X432498Y397506D03*
X432498Y402506D03*
D12*
X492498Y307506D03*
X497498Y307506D03*
X502498Y307506D03*
X507498Y307506D03*
X512498Y307506D03*
X517498Y307506D03*
X522498Y307506D03*
X527498Y307506D03*
X487498Y307506D03*
X482498Y307506D03*
X477498Y307506D03*
X472498Y307506D03*
X467498Y307506D03*
X462498Y307506D03*
X457498Y307506D03*
X452498Y307506D03*
D13*
G36*
X582061Y424178D02*
X590658Y414427D01*
X575657Y401202D01*
X567060Y410953D01*
X582061Y424178D01*
G37*
G36*
X600787Y372697D02*
X592190Y382448D01*
X607191Y395673D01*
X615788Y385922D01*
X600787Y372697D01*
G37*
D14*
X296500Y322000D03*
X296500Y304000D03*
X376260Y356830D03*
X376260Y374830D03*
D15*
X312500Y320996D03*
X335500Y320996D03*
X358500Y320996D03*
D16*
X335500Y385004D03*
D17*
X621500Y290500D03*
X621500Y297000D03*
X621500Y303500D03*
X621500Y310000D03*
X644500Y290500D03*
X644500Y297000D03*
X644500Y303500D03*
X644500Y310000D03*
D18*
X633000Y300500D03*
D19*
X663600Y288330D03*
X681600Y288330D03*
X681680Y322620D03*
X663680Y322620D03*
X663570Y305290D03*
X681570Y305290D03*
X588450Y341000D03*
X606450Y341000D03*
X588520Y324290D03*
X606520Y324290D03*
X654120Y339640D03*
X672120Y339640D03*
X640920Y328070D03*
X622920Y328070D03*
D14*
X598350Y304680D03*
X598350Y286680D03*
X454440Y446810D03*
X454440Y464810D03*
D20*
X470100Y447700D03*
X500100Y447700D03*
M02*
