G04 EAGLE Gerber X2 export*
G04 #@! %TF.Part,Single*
G04 #@! %TF.FileFunction,Copper,L2,Bot,Mixed*
G04 #@! %TF.FilePolarity,Positive*
G04 #@! %TF.GenerationSoftware,Autodesk,EAGLE,8.6.0*
G04 #@! %TF.CreationDate,2018-03-03T07:26:01Z*
G75*
%MOMM*%
%FSLAX34Y34*%
%LPD*%
%AMOC8*
5,1,8,0,0,1.08239X$1,22.5*%
G01*
%ADD10C,1.422400*%
%ADD11C,1.500000*%
%ADD12C,0.604000*%
%ADD13C,0.304800*%

G36*
X411391Y337084D02*
X411391Y337084D01*
X411462Y337086D01*
X411511Y337104D01*
X411563Y337112D01*
X411626Y337146D01*
X411693Y337171D01*
X411734Y337203D01*
X411780Y337228D01*
X411829Y337279D01*
X411886Y337324D01*
X411914Y337368D01*
X411950Y337406D01*
X411980Y337471D01*
X412018Y337531D01*
X412031Y337582D01*
X412053Y337629D01*
X412061Y337700D01*
X412079Y337770D01*
X412074Y337822D01*
X412080Y337873D01*
X412065Y337944D01*
X412059Y338015D01*
X412039Y338063D01*
X412028Y338114D01*
X411991Y338175D01*
X411963Y338241D01*
X411918Y338297D01*
X411902Y338325D01*
X411884Y338340D01*
X411858Y338372D01*
X411586Y338644D01*
X410039Y342379D01*
X410039Y346421D01*
X411586Y350156D01*
X414444Y353014D01*
X418179Y354561D01*
X419980Y354561D01*
X420076Y354576D01*
X420173Y354586D01*
X420197Y354596D01*
X420223Y354600D01*
X420309Y354646D01*
X420398Y354686D01*
X420417Y354703D01*
X420440Y354716D01*
X420507Y354786D01*
X420579Y354852D01*
X420591Y354875D01*
X420609Y354894D01*
X420650Y354982D01*
X420697Y355068D01*
X420702Y355093D01*
X420713Y355117D01*
X420724Y355214D01*
X420741Y355310D01*
X420737Y355336D01*
X420740Y355361D01*
X420720Y355457D01*
X420705Y355553D01*
X420694Y355576D01*
X420688Y355602D01*
X420638Y355685D01*
X420594Y355772D01*
X420575Y355791D01*
X420562Y355813D01*
X420488Y355876D01*
X420418Y355944D01*
X420390Y355960D01*
X420375Y355973D01*
X420344Y355985D01*
X420271Y356025D01*
X416744Y357486D01*
X413886Y360344D01*
X413203Y361993D01*
X413166Y362054D01*
X413136Y362119D01*
X413101Y362158D01*
X413074Y362202D01*
X413019Y362248D01*
X412970Y362301D01*
X412924Y362326D01*
X412884Y362359D01*
X412817Y362385D01*
X412754Y362419D01*
X412703Y362428D01*
X412655Y362447D01*
X412583Y362450D01*
X412512Y362463D01*
X412461Y362455D01*
X412409Y362457D01*
X412340Y362437D01*
X412269Y362427D01*
X412223Y362403D01*
X412173Y362389D01*
X412114Y362348D01*
X412050Y362316D01*
X412013Y362278D01*
X411971Y362249D01*
X411928Y362191D01*
X411878Y362140D01*
X411843Y362077D01*
X411824Y362051D01*
X411817Y362029D01*
X411797Y361993D01*
X411114Y360344D01*
X408256Y357486D01*
X404521Y355939D01*
X400479Y355939D01*
X396744Y357486D01*
X393886Y360344D01*
X392935Y362641D01*
X392881Y362728D01*
X392833Y362816D01*
X392817Y362831D01*
X392805Y362850D01*
X392727Y362915D01*
X392653Y362984D01*
X392633Y362993D01*
X392616Y363007D01*
X392521Y363044D01*
X392429Y363085D01*
X392407Y363087D01*
X392386Y363095D01*
X392285Y363100D01*
X392184Y363110D01*
X392162Y363105D01*
X392140Y363106D01*
X392043Y363078D01*
X391944Y363055D01*
X391925Y363043D01*
X391904Y363037D01*
X391821Y362979D01*
X391734Y362927D01*
X391720Y362910D01*
X391702Y362897D01*
X391641Y362816D01*
X391577Y362738D01*
X391565Y362713D01*
X391555Y362700D01*
X391545Y362668D01*
X391507Y362585D01*
X391446Y362395D01*
X390756Y361041D01*
X389863Y359812D01*
X388788Y358737D01*
X387559Y357844D01*
X386205Y357154D01*
X384760Y356685D01*
X384023Y356568D01*
X384023Y365338D01*
X384020Y365358D01*
X384022Y365377D01*
X384000Y365479D01*
X383983Y365581D01*
X383974Y365598D01*
X383970Y365618D01*
X383917Y365707D01*
X383868Y365798D01*
X383854Y365812D01*
X383844Y365829D01*
X383765Y365896D01*
X383690Y365967D01*
X383672Y365976D01*
X383657Y365989D01*
X383561Y366027D01*
X383467Y366071D01*
X383447Y366073D01*
X383429Y366081D01*
X383262Y366099D01*
X382499Y366099D01*
X382499Y366862D01*
X382496Y366882D01*
X382498Y366901D01*
X382476Y367003D01*
X382459Y367105D01*
X382450Y367122D01*
X382446Y367142D01*
X382393Y367231D01*
X382344Y367322D01*
X382330Y367336D01*
X382320Y367353D01*
X382241Y367420D01*
X382166Y367491D01*
X382148Y367500D01*
X382133Y367513D01*
X382037Y367552D01*
X381943Y367595D01*
X381923Y367597D01*
X381905Y367605D01*
X381738Y367623D01*
X372968Y367623D01*
X373085Y368360D01*
X373554Y369805D01*
X374244Y371159D01*
X375137Y372388D01*
X376212Y373463D01*
X377441Y374356D01*
X377744Y374510D01*
X377778Y374535D01*
X377816Y374552D01*
X377876Y374607D01*
X377942Y374656D01*
X377966Y374690D01*
X377997Y374719D01*
X378037Y374790D01*
X378084Y374857D01*
X378096Y374897D01*
X378116Y374934D01*
X378130Y375014D01*
X378154Y375093D01*
X378152Y375135D01*
X378160Y375176D01*
X378148Y375257D01*
X378145Y375339D01*
X378130Y375378D01*
X378124Y375419D01*
X378087Y375492D01*
X378058Y375569D01*
X378031Y375601D01*
X378012Y375639D01*
X377954Y375696D01*
X377902Y375759D01*
X377867Y375782D01*
X377837Y375811D01*
X377701Y375886D01*
X377694Y375890D01*
X377692Y375890D01*
X377690Y375892D01*
X376325Y376457D01*
X373357Y379425D01*
X371751Y383302D01*
X371751Y387498D01*
X373357Y391375D01*
X376325Y394343D01*
X380202Y395949D01*
X384398Y395949D01*
X388275Y394343D01*
X391243Y391375D01*
X392849Y387498D01*
X392849Y383302D01*
X391243Y379425D01*
X388275Y376457D01*
X387131Y375983D01*
X387095Y375961D01*
X387056Y375947D01*
X386991Y375897D01*
X386922Y375854D01*
X386895Y375821D01*
X386862Y375795D01*
X386817Y375727D01*
X386765Y375664D01*
X386750Y375625D01*
X386727Y375590D01*
X386706Y375511D01*
X386677Y375434D01*
X386675Y375393D01*
X386664Y375352D01*
X386670Y375270D01*
X386666Y375189D01*
X386678Y375148D01*
X386681Y375107D01*
X386712Y375031D01*
X386735Y374952D01*
X386759Y374918D01*
X386775Y374879D01*
X386829Y374818D01*
X386875Y374750D01*
X386909Y374725D01*
X386936Y374694D01*
X387066Y374609D01*
X387073Y374604D01*
X387074Y374603D01*
X387077Y374602D01*
X387559Y374356D01*
X388788Y373463D01*
X389863Y372388D01*
X390756Y371159D01*
X391446Y369805D01*
X391507Y369615D01*
X391554Y369525D01*
X391595Y369432D01*
X391610Y369416D01*
X391620Y369396D01*
X391693Y369326D01*
X391762Y369251D01*
X391781Y369240D01*
X391797Y369225D01*
X391888Y369181D01*
X391977Y369133D01*
X391999Y369129D01*
X392019Y369119D01*
X392119Y369107D01*
X392219Y369089D01*
X392241Y369092D01*
X392263Y369089D01*
X392362Y369110D01*
X392462Y369125D01*
X392482Y369135D01*
X392504Y369139D01*
X392592Y369190D01*
X392682Y369236D01*
X392697Y369252D01*
X392716Y369263D01*
X392783Y369339D01*
X392854Y369412D01*
X392867Y369436D01*
X392878Y369448D01*
X392891Y369479D01*
X392935Y369559D01*
X393886Y371856D01*
X396744Y374714D01*
X400446Y376247D01*
X400485Y376271D01*
X400528Y376287D01*
X400589Y376336D01*
X400655Y376377D01*
X400684Y376412D01*
X400720Y376441D01*
X400762Y376506D01*
X400812Y376566D01*
X400828Y376609D01*
X400853Y376648D01*
X400872Y376723D01*
X400900Y376796D01*
X400902Y376842D01*
X400913Y376886D01*
X400907Y376964D01*
X400911Y377042D01*
X400898Y377086D01*
X400894Y377131D01*
X400864Y377203D01*
X400842Y377278D01*
X400816Y377316D01*
X400798Y377358D01*
X400713Y377464D01*
X400702Y377480D01*
X400698Y377483D01*
X400693Y377489D01*
X398757Y379425D01*
X397151Y383302D01*
X397151Y387498D01*
X398757Y391375D01*
X401725Y394343D01*
X405602Y395949D01*
X409798Y395949D01*
X413675Y394343D01*
X416643Y391375D01*
X416785Y391033D01*
X416822Y390972D01*
X416851Y390907D01*
X416887Y390868D01*
X416914Y390824D01*
X416969Y390778D01*
X417018Y390726D01*
X417064Y390700D01*
X417104Y390667D01*
X417170Y390642D01*
X417233Y390607D01*
X417285Y390598D01*
X417333Y390579D01*
X417405Y390576D01*
X417475Y390563D01*
X417527Y390571D01*
X417579Y390569D01*
X417648Y390589D01*
X417719Y390599D01*
X417765Y390623D01*
X417815Y390637D01*
X417874Y390678D01*
X417938Y390711D01*
X417975Y390748D01*
X418017Y390777D01*
X418060Y390835D01*
X418110Y390886D01*
X418145Y390949D01*
X418164Y390975D01*
X418171Y390997D01*
X418191Y391033D01*
X418457Y391675D01*
X421425Y394643D01*
X425302Y396249D01*
X429498Y396249D01*
X433375Y394643D01*
X434120Y393899D01*
X434179Y393856D01*
X434233Y393805D01*
X434279Y393784D01*
X434319Y393755D01*
X434389Y393733D01*
X434456Y393703D01*
X434506Y393697D01*
X434554Y393683D01*
X434628Y393685D01*
X434701Y393677D01*
X434750Y393688D01*
X434800Y393689D01*
X434869Y393714D01*
X434941Y393730D01*
X434984Y393756D01*
X435031Y393773D01*
X435089Y393819D01*
X435151Y393857D01*
X435184Y393896D01*
X435223Y393927D01*
X435263Y393989D01*
X435310Y394045D01*
X435329Y394092D01*
X435356Y394134D01*
X435374Y394205D01*
X435401Y394273D01*
X435409Y394342D01*
X435416Y394373D01*
X435416Y394383D01*
X436758Y395725D01*
X436759Y395726D01*
X436761Y395728D01*
X438237Y397216D01*
X438243Y397219D01*
X438265Y397243D01*
X438320Y397287D01*
X441004Y399971D01*
X443906Y402873D01*
X461294Y402873D01*
X468439Y395727D01*
X468535Y395659D01*
X468628Y395589D01*
X468634Y395588D01*
X468639Y395584D01*
X468751Y395549D01*
X468862Y395513D01*
X468868Y395513D01*
X468874Y395511D01*
X468991Y395515D01*
X469108Y395516D01*
X469115Y395518D01*
X469120Y395518D01*
X469138Y395524D01*
X469269Y395562D01*
X470202Y395949D01*
X474398Y395949D01*
X478275Y394343D01*
X481243Y391375D01*
X482849Y387498D01*
X482849Y383302D01*
X481243Y379425D01*
X479278Y377460D01*
X479237Y377402D01*
X479187Y377350D01*
X479165Y377303D01*
X479135Y377261D01*
X479114Y377192D01*
X479084Y377127D01*
X479078Y377075D01*
X479063Y377025D01*
X479064Y376954D01*
X479056Y376883D01*
X479068Y376832D01*
X479069Y376780D01*
X479094Y376712D01*
X479109Y376642D01*
X479135Y376597D01*
X479153Y376549D01*
X479198Y376493D01*
X479235Y376431D01*
X479274Y376397D01*
X479307Y376357D01*
X479367Y376318D01*
X479422Y376271D01*
X479470Y376252D01*
X479514Y376224D01*
X479583Y376206D01*
X479650Y376179D01*
X479686Y376175D01*
X483456Y374614D01*
X486314Y371756D01*
X487265Y369459D01*
X487319Y369372D01*
X487367Y369284D01*
X487383Y369269D01*
X487395Y369250D01*
X487473Y369185D01*
X487547Y369116D01*
X487567Y369107D01*
X487584Y369093D01*
X487679Y369056D01*
X487771Y369015D01*
X487793Y369013D01*
X487814Y369005D01*
X487915Y369000D01*
X488016Y368990D01*
X488038Y368995D01*
X488060Y368994D01*
X488157Y369022D01*
X488256Y369045D01*
X488275Y369057D01*
X488296Y369063D01*
X488379Y369121D01*
X488466Y369173D01*
X488480Y369190D01*
X488498Y369203D01*
X488559Y369284D01*
X488623Y369362D01*
X488635Y369387D01*
X488645Y369400D01*
X488655Y369432D01*
X488693Y369515D01*
X488754Y369705D01*
X489444Y371059D01*
X490337Y372288D01*
X491412Y373363D01*
X492641Y374256D01*
X493142Y374511D01*
X493176Y374536D01*
X493214Y374553D01*
X493274Y374608D01*
X493340Y374657D01*
X493364Y374691D01*
X493395Y374719D01*
X493435Y374791D01*
X493482Y374858D01*
X493494Y374898D01*
X493514Y374935D01*
X493528Y375015D01*
X493552Y375094D01*
X493550Y375136D01*
X493558Y375177D01*
X493546Y375258D01*
X493543Y375339D01*
X493528Y375379D01*
X493522Y375420D01*
X493485Y375493D01*
X493456Y375570D01*
X493429Y375602D01*
X493410Y375640D01*
X493352Y375697D01*
X493300Y375760D01*
X493265Y375782D01*
X493235Y375812D01*
X493099Y375886D01*
X493092Y375891D01*
X493090Y375891D01*
X493088Y375893D01*
X491725Y376457D01*
X488757Y379425D01*
X487151Y383302D01*
X487151Y387498D01*
X488757Y391375D01*
X491725Y394343D01*
X495602Y395949D01*
X499798Y395949D01*
X503675Y394343D01*
X506643Y391375D01*
X508249Y387498D01*
X508249Y383302D01*
X506643Y379425D01*
X503675Y376457D01*
X502312Y375893D01*
X502277Y375871D01*
X502237Y375857D01*
X502173Y375806D01*
X502103Y375763D01*
X502076Y375731D01*
X502043Y375705D01*
X501999Y375637D01*
X501946Y375574D01*
X501931Y375534D01*
X501908Y375499D01*
X501888Y375420D01*
X501858Y375344D01*
X501856Y375302D01*
X501846Y375261D01*
X501851Y375180D01*
X501848Y375098D01*
X501860Y375058D01*
X501862Y375016D01*
X501894Y374940D01*
X501916Y374862D01*
X501940Y374827D01*
X501956Y374789D01*
X502010Y374727D01*
X502057Y374660D01*
X502090Y374635D01*
X502118Y374603D01*
X502247Y374518D01*
X502254Y374513D01*
X502256Y374513D01*
X502258Y374511D01*
X502759Y374256D01*
X503988Y373363D01*
X505063Y372288D01*
X505956Y371059D01*
X506646Y369705D01*
X507115Y368260D01*
X507232Y367523D01*
X498462Y367523D01*
X498442Y367520D01*
X498423Y367522D01*
X498321Y367500D01*
X498219Y367483D01*
X498202Y367474D01*
X498182Y367470D01*
X498093Y367417D01*
X498002Y367368D01*
X497988Y367354D01*
X497971Y367344D01*
X497904Y367265D01*
X497833Y367190D01*
X497824Y367172D01*
X497811Y367157D01*
X497773Y367061D01*
X497729Y366967D01*
X497727Y366947D01*
X497719Y366929D01*
X497701Y366762D01*
X497701Y365999D01*
X496938Y365999D01*
X496918Y365996D01*
X496899Y365998D01*
X496797Y365976D01*
X496695Y365959D01*
X496678Y365950D01*
X496658Y365946D01*
X496569Y365893D01*
X496478Y365844D01*
X496464Y365830D01*
X496447Y365820D01*
X496380Y365741D01*
X496309Y365666D01*
X496300Y365648D01*
X496287Y365633D01*
X496248Y365537D01*
X496205Y365443D01*
X496203Y365423D01*
X496195Y365405D01*
X496177Y365238D01*
X496177Y356468D01*
X495440Y356585D01*
X493995Y357054D01*
X492641Y357744D01*
X491412Y358637D01*
X490337Y359712D01*
X489444Y360941D01*
X488754Y362295D01*
X488693Y362485D01*
X488646Y362575D01*
X488605Y362668D01*
X488590Y362684D01*
X488580Y362704D01*
X488507Y362774D01*
X488438Y362849D01*
X488419Y362860D01*
X488403Y362875D01*
X488312Y362919D01*
X488223Y362967D01*
X488201Y362971D01*
X488181Y362981D01*
X488081Y362993D01*
X487981Y363011D01*
X487959Y363008D01*
X487937Y363011D01*
X487838Y362990D01*
X487738Y362975D01*
X487718Y362965D01*
X487696Y362961D01*
X487608Y362910D01*
X487518Y362864D01*
X487503Y362848D01*
X487484Y362837D01*
X487417Y362761D01*
X487346Y362688D01*
X487333Y362664D01*
X487322Y362652D01*
X487309Y362621D01*
X487265Y362541D01*
X486314Y360244D01*
X483456Y357386D01*
X479721Y355839D01*
X475679Y355839D01*
X471944Y357386D01*
X469086Y360244D01*
X468403Y361893D01*
X468366Y361954D01*
X468336Y362019D01*
X468301Y362058D01*
X468274Y362102D01*
X468218Y362148D01*
X468170Y362201D01*
X468124Y362226D01*
X468084Y362259D01*
X468017Y362285D01*
X467954Y362319D01*
X467903Y362328D01*
X467855Y362347D01*
X467783Y362350D01*
X467712Y362363D01*
X467661Y362355D01*
X467609Y362357D01*
X467540Y362337D01*
X467469Y362327D01*
X467423Y362303D01*
X467373Y362289D01*
X467314Y362248D01*
X467250Y362216D01*
X467213Y362178D01*
X467171Y362149D01*
X467128Y362091D01*
X467078Y362040D01*
X467043Y361977D01*
X467024Y361951D01*
X467017Y361929D01*
X466997Y361893D01*
X466314Y360244D01*
X463456Y357386D01*
X460170Y356025D01*
X460087Y355974D01*
X460001Y355928D01*
X459983Y355909D01*
X459961Y355896D01*
X459899Y355821D01*
X459832Y355750D01*
X459821Y355726D01*
X459804Y355706D01*
X459769Y355615D01*
X459728Y355527D01*
X459725Y355501D01*
X459716Y355477D01*
X459712Y355379D01*
X459701Y355283D01*
X459707Y355257D01*
X459706Y355231D01*
X459733Y355137D01*
X459753Y355042D01*
X459767Y355020D01*
X459774Y354995D01*
X459830Y354915D01*
X459880Y354831D01*
X459900Y354814D01*
X459914Y354793D01*
X459993Y354734D01*
X460067Y354671D01*
X460091Y354661D01*
X460112Y354646D01*
X460204Y354616D01*
X460295Y354579D01*
X460327Y354576D01*
X460346Y354570D01*
X460379Y354570D01*
X460461Y354561D01*
X462221Y354561D01*
X465956Y353014D01*
X468814Y350156D01*
X470361Y346421D01*
X470361Y342379D01*
X468814Y338644D01*
X468542Y338372D01*
X468500Y338314D01*
X468450Y338262D01*
X468429Y338215D01*
X468398Y338173D01*
X468377Y338104D01*
X468347Y338039D01*
X468341Y337987D01*
X468326Y337937D01*
X468328Y337866D01*
X468320Y337795D01*
X468331Y337744D01*
X468332Y337692D01*
X468357Y337624D01*
X468372Y337554D01*
X468399Y337509D01*
X468417Y337461D01*
X468461Y337405D01*
X468498Y337343D01*
X468538Y337309D01*
X468570Y337269D01*
X468631Y337230D01*
X468685Y337183D01*
X468733Y337164D01*
X468777Y337136D01*
X468847Y337118D01*
X468913Y337091D01*
X468985Y337083D01*
X469016Y337075D01*
X469039Y337077D01*
X469080Y337073D01*
X490000Y337073D01*
X490022Y337076D01*
X490060Y337075D01*
X493136Y337317D01*
X493142Y337319D01*
X493147Y337318D01*
X493312Y337352D01*
X499163Y339253D01*
X499195Y339270D01*
X499230Y339279D01*
X499376Y339362D01*
X504353Y342978D01*
X504379Y343004D01*
X504409Y343023D01*
X504522Y343147D01*
X508138Y348124D01*
X508155Y348156D01*
X508177Y348184D01*
X508247Y348337D01*
X510148Y354188D01*
X510149Y354194D01*
X510151Y354199D01*
X510183Y354364D01*
X510425Y357440D01*
X510423Y357462D01*
X510427Y357500D01*
X510427Y435000D01*
X510424Y435018D01*
X510426Y435050D01*
X510150Y439248D01*
X510145Y439271D01*
X510126Y439396D01*
X507953Y447506D01*
X507946Y447521D01*
X507944Y447536D01*
X507877Y447690D01*
X503678Y454962D01*
X503668Y454974D01*
X503662Y454989D01*
X503557Y455120D01*
X497620Y461057D01*
X497607Y461066D01*
X497597Y461079D01*
X497462Y461178D01*
X490190Y465377D01*
X490175Y465382D01*
X490163Y465392D01*
X490006Y465453D01*
X481896Y467626D01*
X481872Y467629D01*
X481748Y467650D01*
X477550Y467926D01*
X477531Y467924D01*
X477500Y467927D01*
X402500Y467927D01*
X402482Y467924D01*
X402450Y467926D01*
X398252Y467650D01*
X398229Y467645D01*
X398104Y467626D01*
X389994Y465453D01*
X389979Y465446D01*
X389964Y465444D01*
X389810Y465377D01*
X382538Y461178D01*
X382526Y461168D01*
X382511Y461162D01*
X382380Y461057D01*
X376443Y455120D01*
X376434Y455107D01*
X376421Y455097D01*
X376322Y454962D01*
X372123Y447690D01*
X372118Y447675D01*
X372108Y447663D01*
X372047Y447506D01*
X369874Y439396D01*
X369871Y439372D01*
X369850Y439248D01*
X369574Y435050D01*
X369576Y435031D01*
X369573Y435000D01*
X369573Y357500D01*
X369576Y357478D01*
X369575Y357440D01*
X369817Y354364D01*
X369819Y354358D01*
X369818Y354353D01*
X369852Y354188D01*
X371753Y348337D01*
X371770Y348305D01*
X371779Y348270D01*
X371862Y348124D01*
X375478Y343147D01*
X375504Y343121D01*
X375523Y343091D01*
X375647Y342978D01*
X380624Y339362D01*
X380656Y339345D01*
X380684Y339323D01*
X380837Y339253D01*
X386688Y337352D01*
X386694Y337351D01*
X386699Y337349D01*
X386864Y337317D01*
X389940Y337075D01*
X389962Y337077D01*
X390000Y337073D01*
X411320Y337073D01*
X411391Y337084D01*
G37*
%LPC*%
G36*
X499223Y364477D02*
X499223Y364477D01*
X507232Y364477D01*
X507115Y363740D01*
X506646Y362295D01*
X505956Y360941D01*
X505063Y359712D01*
X503988Y358637D01*
X502759Y357744D01*
X501405Y357054D01*
X499960Y356585D01*
X499223Y356468D01*
X499223Y364477D01*
G37*
%LPD*%
%LPC*%
G36*
X380240Y356685D02*
X380240Y356685D01*
X378795Y357154D01*
X377441Y357844D01*
X376212Y358737D01*
X375137Y359812D01*
X374244Y361041D01*
X373554Y362395D01*
X373085Y363840D01*
X372968Y364577D01*
X380977Y364577D01*
X380977Y356568D01*
X380240Y356685D01*
G37*
%LPD*%
D10*
X457700Y366000D03*
X477700Y366000D03*
X497700Y366000D03*
X422500Y366100D03*
X402500Y366100D03*
X382500Y366100D03*
D11*
X472300Y385400D03*
X497700Y385400D03*
X382300Y385400D03*
X407700Y385400D03*
D10*
X420200Y344400D03*
X440200Y344400D03*
X460200Y344400D03*
D11*
X427400Y385700D03*
X452800Y385700D03*
D12*
X490300Y448700D03*
X391200Y452200D03*
D13*
X440000Y392500D02*
X440200Y344400D01*
X440000Y392500D02*
X445800Y398300D01*
X459400Y398300D01*
X472300Y385400D01*
M02*
