G04 EAGLE Gerber X2 export*
G04 #@! %TF.Part,Single*
G04 #@! %TF.FileFunction,Profile,NP*
G04 #@! %TF.FilePolarity,Positive*
G04 #@! %TF.GenerationSoftware,Autodesk,EAGLE,8.6.0*
G04 #@! %TF.CreationDate,2018-03-03T07:26:01Z*
G75*
%MOMM*%
%FSLAX34Y34*%
%LPD*%
%AMOC8*
5,1,8,0,0,1.08239X$1,22.5*%
G01*
%ADD10C,0.254000*%


D10*
X365000Y357500D02*
X365095Y355321D01*
X365380Y353159D01*
X365852Y351030D01*
X366508Y348950D01*
X367342Y346935D01*
X368349Y345000D01*
X369521Y343161D01*
X370849Y341430D01*
X372322Y339822D01*
X373930Y338349D01*
X375661Y337021D01*
X377500Y335849D01*
X379435Y334842D01*
X381450Y334008D01*
X383530Y333352D01*
X385659Y332880D01*
X387821Y332595D01*
X390000Y332500D01*
X490000Y332500D01*
X492179Y332595D01*
X494341Y332880D01*
X496470Y333352D01*
X498551Y334008D01*
X500565Y334842D01*
X502500Y335849D01*
X504339Y337021D01*
X506070Y338349D01*
X507678Y339822D01*
X509151Y341430D01*
X510479Y343161D01*
X511651Y345000D01*
X512658Y346935D01*
X513492Y348950D01*
X514148Y351030D01*
X514620Y353159D01*
X514905Y355321D01*
X515000Y357500D01*
X515000Y435000D01*
X514857Y438268D01*
X514430Y441512D01*
X513722Y444706D01*
X512738Y447826D01*
X511487Y450848D01*
X509976Y453750D01*
X508218Y456509D01*
X506227Y459105D01*
X504017Y461517D01*
X501605Y463727D01*
X499009Y465718D01*
X496250Y467476D01*
X493348Y468987D01*
X490326Y470238D01*
X487206Y471222D01*
X484012Y471930D01*
X480768Y472357D01*
X477500Y472500D01*
X402500Y472500D01*
X399232Y472357D01*
X395988Y471930D01*
X392794Y471222D01*
X389674Y470238D01*
X386652Y468987D01*
X383750Y467476D01*
X380991Y465718D01*
X378395Y463727D01*
X375984Y461517D01*
X373773Y459105D01*
X371782Y456509D01*
X370024Y453750D01*
X368513Y450848D01*
X367262Y447826D01*
X366278Y444706D01*
X365570Y441512D01*
X365143Y438268D01*
X365000Y435000D01*
X365000Y357500D01*
M02*
