G04 EAGLE Gerber X2 export*
G04 #@! %TF.Part,Single*
G04 #@! %TF.FileFunction,Copper,L2,Bot,Mixed*
G04 #@! %TF.FilePolarity,Positive*
G04 #@! %TF.GenerationSoftware,Autodesk,EAGLE,8.6.0*
G04 #@! %TF.CreationDate,2018-03-08T00:53:42Z*
G75*
%MOMM*%
%FSLAX34Y34*%
%LPD*%
%AMOC8*
5,1,8,0,0,1.08239X$1,22.5*%
G01*
%ADD10P,1.649562X8X202.600000*%
%ADD11C,1.422400*%
%ADD12P,1.649562X8X22.500000*%
%ADD13P,1.814519X8X202.500000*%
%ADD14P,1.814519X8X112.500000*%
%ADD15P,1.814519X8X292.500000*%
%ADD16C,0.604000*%
%ADD17C,0.304800*%
%ADD18C,0.254000*%
%ADD19C,0.508000*%

G36*
X210810Y114449D02*
X210810Y114449D01*
X210837Y114447D01*
X210968Y114469D01*
X211099Y114486D01*
X211124Y114495D01*
X211150Y114500D01*
X211272Y114554D01*
X211395Y114603D01*
X211416Y114618D01*
X211441Y114629D01*
X211545Y114711D01*
X211652Y114789D01*
X211669Y114810D01*
X211690Y114827D01*
X211770Y114932D01*
X211855Y115034D01*
X211866Y115059D01*
X211883Y115080D01*
X211954Y115224D01*
X245741Y195793D01*
X245755Y195844D01*
X245778Y195891D01*
X245798Y195996D01*
X245827Y196100D01*
X245828Y196152D01*
X245837Y196204D01*
X245831Y196310D01*
X245833Y196418D01*
X245821Y196469D01*
X245818Y196521D01*
X245785Y196623D01*
X245760Y196727D01*
X245736Y196774D01*
X245720Y196823D01*
X245662Y196914D01*
X245613Y197009D01*
X245578Y197048D01*
X245549Y197092D01*
X245471Y197166D01*
X245400Y197245D01*
X245356Y197274D01*
X245318Y197310D01*
X245224Y197362D01*
X245135Y197421D01*
X245085Y197438D01*
X245039Y197464D01*
X244936Y197490D01*
X244834Y197526D01*
X244782Y197530D01*
X244731Y197543D01*
X244571Y197553D01*
X234844Y197553D01*
X227553Y204844D01*
X227553Y215156D01*
X231500Y219102D01*
X231573Y219197D01*
X231652Y219286D01*
X231670Y219322D01*
X231695Y219354D01*
X231742Y219463D01*
X231797Y219569D01*
X231805Y219608D01*
X231821Y219646D01*
X231840Y219763D01*
X231866Y219879D01*
X231865Y219920D01*
X231871Y219960D01*
X231860Y220078D01*
X231857Y220197D01*
X231845Y220236D01*
X231842Y220276D01*
X231801Y220389D01*
X231768Y220503D01*
X231748Y220537D01*
X231734Y220576D01*
X231667Y220674D01*
X231607Y220777D01*
X231567Y220822D01*
X231555Y220839D01*
X231540Y220852D01*
X231500Y220897D01*
X227553Y224844D01*
X227553Y235156D01*
X234844Y242447D01*
X245156Y242447D01*
X252447Y235156D01*
X252447Y224844D01*
X248500Y220897D01*
X248427Y220803D01*
X248348Y220714D01*
X248330Y220678D01*
X248305Y220646D01*
X248258Y220537D01*
X248203Y220431D01*
X248195Y220392D01*
X248179Y220354D01*
X248160Y220237D01*
X248134Y220121D01*
X248135Y220080D01*
X248129Y220040D01*
X248140Y219922D01*
X248143Y219803D01*
X248155Y219764D01*
X248158Y219724D01*
X248199Y219611D01*
X248232Y219497D01*
X248252Y219462D01*
X248266Y219424D01*
X248333Y219326D01*
X248393Y219223D01*
X248433Y219178D01*
X248445Y219161D01*
X248460Y219148D01*
X248500Y219102D01*
X252106Y215496D01*
X252143Y215467D01*
X252175Y215432D01*
X252268Y215370D01*
X252358Y215301D01*
X252401Y215282D01*
X252440Y215257D01*
X252546Y215220D01*
X252649Y215175D01*
X252696Y215167D01*
X252740Y215152D01*
X252852Y215143D01*
X252963Y215125D01*
X253010Y215129D01*
X253057Y215125D01*
X253168Y215144D01*
X253280Y215155D01*
X253324Y215171D01*
X253370Y215178D01*
X253473Y215224D01*
X253579Y215262D01*
X253618Y215289D01*
X253661Y215308D01*
X253749Y215378D01*
X253842Y215441D01*
X253874Y215476D01*
X253910Y215505D01*
X253978Y215595D01*
X254053Y215679D01*
X254074Y215721D01*
X254103Y215758D01*
X254174Y215903D01*
X269497Y252443D01*
X269530Y252560D01*
X269570Y252675D01*
X269573Y252713D01*
X269583Y252749D01*
X269585Y252871D01*
X269595Y252992D01*
X269588Y253029D01*
X269589Y253067D01*
X269561Y253186D01*
X269540Y253306D01*
X269525Y253340D01*
X269516Y253377D01*
X269460Y253485D01*
X269410Y253596D01*
X269386Y253625D01*
X269369Y253658D01*
X269287Y253749D01*
X269211Y253844D01*
X269181Y253867D01*
X269156Y253895D01*
X269055Y253962D01*
X268957Y254035D01*
X268907Y254060D01*
X268891Y254071D01*
X268871Y254077D01*
X268813Y254106D01*
X266187Y255194D01*
X265584Y255796D01*
X265561Y255815D01*
X265542Y255837D01*
X265435Y255912D01*
X265333Y255991D01*
X265306Y256003D01*
X265282Y256020D01*
X265160Y256066D01*
X265041Y256118D01*
X265012Y256122D01*
X264984Y256133D01*
X264855Y256147D01*
X264727Y256168D01*
X264698Y256165D01*
X264668Y256168D01*
X264540Y256150D01*
X264410Y256138D01*
X264383Y256128D01*
X264353Y256124D01*
X264201Y256072D01*
X261409Y254915D01*
X258591Y254915D01*
X255987Y255994D01*
X253994Y257987D01*
X252915Y260591D01*
X252915Y263409D01*
X253994Y266013D01*
X255987Y268006D01*
X258591Y269085D01*
X258655Y269085D01*
X258754Y269097D01*
X258853Y269100D01*
X258911Y269117D01*
X258971Y269125D01*
X259063Y269161D01*
X259158Y269189D01*
X259210Y269219D01*
X259267Y269242D01*
X259347Y269300D01*
X259432Y269350D01*
X259507Y269416D01*
X259524Y269428D01*
X259532Y269438D01*
X259553Y269456D01*
X277734Y287638D01*
X279788Y288489D01*
X283769Y288489D01*
X283796Y288492D01*
X283823Y288490D01*
X283953Y288512D01*
X284085Y288529D01*
X284110Y288538D01*
X284136Y288543D01*
X284258Y288597D01*
X284381Y288646D01*
X284402Y288661D01*
X284427Y288672D01*
X284531Y288754D01*
X284638Y288832D01*
X284655Y288853D01*
X284676Y288870D01*
X284756Y288975D01*
X284841Y289077D01*
X284852Y289102D01*
X284868Y289123D01*
X284940Y289267D01*
X314917Y360751D01*
X314931Y360802D01*
X314954Y360849D01*
X314974Y360954D01*
X315002Y361058D01*
X315003Y361110D01*
X315013Y361162D01*
X315007Y361268D01*
X315009Y361376D01*
X314997Y361427D01*
X314994Y361479D01*
X314961Y361581D01*
X314936Y361685D01*
X314912Y361732D01*
X314896Y361781D01*
X314838Y361872D01*
X314789Y361967D01*
X314753Y362006D01*
X314725Y362050D01*
X314647Y362124D01*
X314576Y362203D01*
X314532Y362232D01*
X314494Y362268D01*
X314400Y362320D01*
X314311Y362379D01*
X314261Y362396D01*
X314215Y362422D01*
X314112Y362448D01*
X314010Y362484D01*
X313958Y362488D01*
X313907Y362501D01*
X313747Y362511D01*
X300788Y362511D01*
X298734Y363362D01*
X284915Y377182D01*
X284837Y377242D01*
X284764Y377310D01*
X284711Y377339D01*
X284664Y377376D01*
X284573Y377416D01*
X284486Y377464D01*
X284427Y377479D01*
X284372Y377503D01*
X284274Y377518D01*
X284178Y377543D01*
X284078Y377549D01*
X284058Y377553D01*
X284045Y377551D01*
X284017Y377553D01*
X274844Y377553D01*
X267553Y384844D01*
X267553Y395156D01*
X274844Y402447D01*
X285156Y402447D01*
X289103Y398500D01*
X289197Y398427D01*
X289286Y398348D01*
X289322Y398330D01*
X289354Y398305D01*
X289463Y398257D01*
X289569Y398203D01*
X289608Y398195D01*
X289646Y398179D01*
X289763Y398160D01*
X289879Y398134D01*
X289920Y398135D01*
X289960Y398129D01*
X290078Y398140D01*
X290197Y398143D01*
X290236Y398155D01*
X290276Y398158D01*
X290389Y398199D01*
X290503Y398232D01*
X290538Y398252D01*
X290576Y398266D01*
X290674Y398333D01*
X290777Y398393D01*
X290822Y398433D01*
X290839Y398445D01*
X290852Y398460D01*
X290898Y398500D01*
X294844Y402447D01*
X305156Y402447D01*
X312447Y395156D01*
X312447Y385983D01*
X312459Y385884D01*
X312462Y385785D01*
X312479Y385727D01*
X312487Y385667D01*
X312523Y385575D01*
X312551Y385480D01*
X312581Y385428D01*
X312604Y385371D01*
X312662Y385291D01*
X312712Y385206D01*
X312778Y385131D01*
X312790Y385114D01*
X312800Y385106D01*
X312818Y385085D01*
X316843Y381060D01*
X316921Y381000D01*
X316994Y380932D01*
X317047Y380903D01*
X317094Y380866D01*
X317185Y380826D01*
X317272Y380778D01*
X317331Y380763D01*
X317386Y380739D01*
X317484Y380724D01*
X317580Y380699D01*
X317680Y380693D01*
X317700Y380689D01*
X317713Y380691D01*
X317741Y380689D01*
X322434Y380689D01*
X322461Y380692D01*
X322487Y380690D01*
X322618Y380712D01*
X322750Y380729D01*
X322774Y380738D01*
X322801Y380743D01*
X322922Y380797D01*
X323045Y380846D01*
X323067Y380861D01*
X323091Y380872D01*
X323195Y380954D01*
X323303Y381032D01*
X323320Y381053D01*
X323341Y381070D01*
X323421Y381175D01*
X323505Y381277D01*
X323517Y381302D01*
X323533Y381323D01*
X323604Y381467D01*
X330844Y398731D01*
X343600Y398731D01*
X343629Y398734D01*
X343658Y398732D01*
X343787Y398754D01*
X343915Y398771D01*
X343943Y398781D01*
X343972Y398787D01*
X344090Y398840D01*
X344211Y398888D01*
X344235Y398905D01*
X344262Y398917D01*
X344363Y398998D01*
X344468Y399074D01*
X344487Y399097D01*
X344510Y399116D01*
X344588Y399219D01*
X344671Y399319D01*
X344684Y399346D01*
X344701Y399370D01*
X344772Y399514D01*
X345525Y401331D01*
X348669Y404475D01*
X352777Y406177D01*
X357223Y406177D01*
X361331Y404475D01*
X364102Y401704D01*
X364197Y401631D01*
X364286Y401552D01*
X364322Y401534D01*
X364354Y401509D01*
X364463Y401461D01*
X364569Y401407D01*
X364608Y401399D01*
X364646Y401382D01*
X364763Y401364D01*
X364879Y401338D01*
X364920Y401339D01*
X364960Y401333D01*
X365078Y401344D01*
X365197Y401347D01*
X365236Y401359D01*
X365276Y401362D01*
X365389Y401403D01*
X365503Y401436D01*
X365537Y401456D01*
X365576Y401470D01*
X365674Y401537D01*
X365777Y401597D01*
X365822Y401637D01*
X365839Y401649D01*
X365852Y401664D01*
X365897Y401704D01*
X368669Y404475D01*
X372777Y406177D01*
X377223Y406177D01*
X381331Y404475D01*
X384475Y401331D01*
X385228Y399514D01*
X385237Y399498D01*
X385240Y399488D01*
X385245Y399480D01*
X385251Y399461D01*
X385321Y399351D01*
X385385Y399238D01*
X385406Y399217D01*
X385422Y399192D01*
X385516Y399103D01*
X385607Y399010D01*
X385632Y398994D01*
X385653Y398974D01*
X385767Y398911D01*
X385878Y398843D01*
X385906Y398835D01*
X385932Y398820D01*
X386057Y398788D01*
X386182Y398750D01*
X386211Y398748D01*
X386240Y398741D01*
X386400Y398731D01*
X398146Y398731D01*
X398264Y398746D01*
X398383Y398753D01*
X398421Y398766D01*
X398462Y398771D01*
X398572Y398814D01*
X398685Y398851D01*
X398720Y398873D01*
X398757Y398888D01*
X398853Y398958D01*
X398954Y399021D01*
X398982Y399051D01*
X399015Y399074D01*
X399091Y399166D01*
X399172Y399253D01*
X399192Y399288D01*
X399217Y399319D01*
X399268Y399427D01*
X399326Y399531D01*
X399336Y399571D01*
X399353Y399607D01*
X399375Y399724D01*
X399405Y399839D01*
X399409Y399900D01*
X399413Y399920D01*
X399411Y399940D01*
X399413Y399946D01*
X399412Y399953D01*
X399415Y400000D01*
X399415Y401009D01*
X400494Y403613D01*
X402487Y405606D01*
X405091Y406685D01*
X407909Y406685D01*
X410513Y405606D01*
X412506Y403613D01*
X413600Y400972D01*
X413615Y400947D01*
X413624Y400919D01*
X413693Y400809D01*
X413758Y400696D01*
X413778Y400675D01*
X413794Y400650D01*
X413889Y400561D01*
X413979Y400468D01*
X414004Y400452D01*
X414026Y400432D01*
X414139Y400369D01*
X414250Y400301D01*
X414278Y400293D01*
X414304Y400278D01*
X414430Y400246D01*
X414554Y400208D01*
X414583Y400206D01*
X414612Y400199D01*
X414773Y400189D01*
X489712Y400189D01*
X491766Y399338D01*
X492001Y399103D01*
X492079Y399042D01*
X492152Y398974D01*
X492205Y398945D01*
X492252Y398908D01*
X492343Y398868D01*
X492430Y398820D01*
X492489Y398805D01*
X492544Y398781D01*
X492642Y398766D01*
X492738Y398741D01*
X492838Y398735D01*
X492858Y398731D01*
X492871Y398733D01*
X492899Y398731D01*
X497436Y398731D01*
X497557Y398746D01*
X497678Y398754D01*
X497714Y398766D01*
X497751Y398771D01*
X497865Y398815D01*
X497981Y398854D01*
X498012Y398874D01*
X498047Y398888D01*
X498146Y398959D01*
X498248Y399025D01*
X498274Y399052D01*
X498305Y399074D01*
X498382Y399168D01*
X498465Y399257D01*
X498483Y399290D01*
X498507Y399319D01*
X498559Y399429D01*
X498618Y399537D01*
X498627Y399573D01*
X498643Y399607D01*
X498666Y399726D01*
X498696Y399845D01*
X498699Y399900D01*
X498703Y399920D01*
X498701Y399940D01*
X498703Y399946D01*
X498702Y399953D01*
X498705Y400006D01*
X498671Y407678D01*
X498670Y407685D01*
X498671Y407692D01*
X498665Y407732D01*
X498665Y408984D01*
X498665Y408985D01*
X498665Y408989D01*
X498661Y410050D01*
X499064Y411025D01*
X499065Y411027D01*
X499067Y411030D01*
X499107Y411130D01*
X499132Y411223D01*
X499166Y411313D01*
X499174Y411376D01*
X499190Y411437D01*
X499191Y411533D01*
X499202Y411629D01*
X499193Y411692D01*
X499194Y411755D01*
X499171Y411848D01*
X499157Y411944D01*
X499123Y412045D01*
X499118Y412064D01*
X499113Y412073D01*
X499105Y412096D01*
X498823Y412777D01*
X498823Y417223D01*
X500525Y421331D01*
X503669Y424475D01*
X507777Y426177D01*
X512223Y426177D01*
X516331Y424475D01*
X519102Y421704D01*
X519197Y421631D01*
X519286Y421552D01*
X519322Y421534D01*
X519354Y421509D01*
X519463Y421461D01*
X519569Y421407D01*
X519608Y421399D01*
X519646Y421382D01*
X519763Y421364D01*
X519879Y421338D01*
X519920Y421339D01*
X519960Y421333D01*
X520078Y421344D01*
X520197Y421347D01*
X520236Y421359D01*
X520276Y421362D01*
X520389Y421403D01*
X520503Y421436D01*
X520537Y421456D01*
X520576Y421470D01*
X520674Y421537D01*
X520777Y421597D01*
X520822Y421637D01*
X520839Y421649D01*
X520852Y421664D01*
X520897Y421704D01*
X523669Y424475D01*
X527777Y426177D01*
X532223Y426177D01*
X536331Y424475D01*
X539102Y421704D01*
X539197Y421631D01*
X539286Y421552D01*
X539322Y421534D01*
X539354Y421509D01*
X539463Y421461D01*
X539569Y421407D01*
X539608Y421399D01*
X539646Y421382D01*
X539763Y421364D01*
X539879Y421338D01*
X539920Y421339D01*
X539960Y421333D01*
X540078Y421344D01*
X540197Y421347D01*
X540236Y421359D01*
X540276Y421362D01*
X540389Y421403D01*
X540503Y421436D01*
X540537Y421456D01*
X540576Y421470D01*
X540674Y421537D01*
X540777Y421597D01*
X540822Y421637D01*
X540839Y421649D01*
X540852Y421664D01*
X540897Y421704D01*
X543669Y424475D01*
X547777Y426177D01*
X552223Y426177D01*
X556331Y424475D01*
X559102Y421704D01*
X559197Y421631D01*
X559286Y421552D01*
X559322Y421534D01*
X559354Y421509D01*
X559463Y421461D01*
X559569Y421407D01*
X559608Y421399D01*
X559646Y421382D01*
X559763Y421364D01*
X559879Y421338D01*
X559920Y421339D01*
X559960Y421333D01*
X560078Y421344D01*
X560197Y421347D01*
X560236Y421359D01*
X560276Y421362D01*
X560389Y421403D01*
X560503Y421436D01*
X560537Y421456D01*
X560576Y421470D01*
X560674Y421537D01*
X560777Y421597D01*
X560822Y421637D01*
X560839Y421649D01*
X560852Y421664D01*
X560897Y421704D01*
X563669Y424475D01*
X567777Y426177D01*
X572223Y426177D01*
X576331Y424475D01*
X579103Y421704D01*
X579197Y421631D01*
X579286Y421552D01*
X579322Y421534D01*
X579354Y421509D01*
X579463Y421461D01*
X579569Y421407D01*
X579608Y421399D01*
X579646Y421382D01*
X579763Y421364D01*
X579879Y421338D01*
X579920Y421339D01*
X579960Y421333D01*
X580078Y421344D01*
X580197Y421347D01*
X580236Y421359D01*
X580276Y421362D01*
X580389Y421403D01*
X580503Y421436D01*
X580538Y421456D01*
X580576Y421470D01*
X580674Y421537D01*
X580777Y421597D01*
X580822Y421637D01*
X580839Y421649D01*
X580852Y421664D01*
X580898Y421704D01*
X583669Y424475D01*
X587777Y426177D01*
X592223Y426177D01*
X596331Y424475D01*
X599475Y421331D01*
X601177Y417223D01*
X601177Y412777D01*
X599475Y408669D01*
X596331Y405525D01*
X592223Y403823D01*
X587777Y403823D01*
X583669Y405525D01*
X580898Y408296D01*
X580803Y408369D01*
X580714Y408448D01*
X580678Y408466D01*
X580646Y408491D01*
X580537Y408539D01*
X580431Y408593D01*
X580392Y408601D01*
X580354Y408618D01*
X580237Y408636D01*
X580121Y408662D01*
X580080Y408661D01*
X580040Y408667D01*
X579922Y408656D01*
X579803Y408653D01*
X579764Y408641D01*
X579724Y408638D01*
X579611Y408597D01*
X579497Y408564D01*
X579463Y408544D01*
X579424Y408530D01*
X579326Y408463D01*
X579223Y408403D01*
X579178Y408363D01*
X579161Y408351D01*
X579148Y408336D01*
X579103Y408296D01*
X576331Y405525D01*
X572223Y403823D01*
X567777Y403823D01*
X563669Y405525D01*
X560897Y408296D01*
X560803Y408369D01*
X560714Y408448D01*
X560678Y408466D01*
X560646Y408491D01*
X560537Y408539D01*
X560431Y408593D01*
X560392Y408601D01*
X560354Y408618D01*
X560237Y408636D01*
X560121Y408662D01*
X560080Y408661D01*
X560040Y408667D01*
X559922Y408656D01*
X559803Y408653D01*
X559764Y408641D01*
X559724Y408638D01*
X559611Y408597D01*
X559497Y408564D01*
X559462Y408544D01*
X559424Y408530D01*
X559326Y408463D01*
X559223Y408403D01*
X559178Y408363D01*
X559161Y408351D01*
X559148Y408336D01*
X559102Y408296D01*
X556331Y405525D01*
X552223Y403823D01*
X551785Y403823D01*
X551648Y403806D01*
X551509Y403793D01*
X551490Y403786D01*
X551470Y403783D01*
X551341Y403732D01*
X551210Y403685D01*
X551193Y403674D01*
X551174Y403666D01*
X551062Y403585D01*
X550947Y403507D01*
X550933Y403491D01*
X550917Y403480D01*
X550828Y403372D01*
X550736Y403268D01*
X550727Y403250D01*
X550714Y403235D01*
X550655Y403109D01*
X550592Y402985D01*
X550587Y402965D01*
X550578Y402947D01*
X550552Y402811D01*
X550522Y402675D01*
X550523Y402654D01*
X550519Y402635D01*
X550527Y402496D01*
X550532Y402357D01*
X550537Y402337D01*
X550538Y402317D01*
X550581Y402185D01*
X550620Y402051D01*
X550630Y402034D01*
X550636Y402015D01*
X550711Y401897D01*
X550782Y401777D01*
X550800Y401756D01*
X550807Y401746D01*
X550822Y401732D01*
X550888Y401657D01*
X553442Y399103D01*
X553520Y399042D01*
X553592Y398974D01*
X553645Y398945D01*
X553693Y398908D01*
X553784Y398868D01*
X553871Y398820D01*
X553929Y398805D01*
X553985Y398781D01*
X554083Y398766D01*
X554179Y398741D01*
X554279Y398735D01*
X554299Y398731D01*
X554311Y398733D01*
X554339Y398731D01*
X713600Y398731D01*
X713629Y398734D01*
X713658Y398732D01*
X713787Y398754D01*
X713915Y398771D01*
X713943Y398781D01*
X713972Y398787D01*
X714090Y398840D01*
X714211Y398888D01*
X714235Y398905D01*
X714262Y398917D01*
X714363Y398998D01*
X714468Y399074D01*
X714487Y399097D01*
X714510Y399116D01*
X714588Y399219D01*
X714671Y399319D01*
X714684Y399346D01*
X714701Y399370D01*
X714772Y399514D01*
X715525Y401331D01*
X718669Y404475D01*
X722777Y406177D01*
X727223Y406177D01*
X731331Y404475D01*
X734102Y401704D01*
X734197Y401631D01*
X734286Y401552D01*
X734322Y401534D01*
X734354Y401509D01*
X734463Y401461D01*
X734569Y401407D01*
X734608Y401399D01*
X734646Y401382D01*
X734763Y401364D01*
X734879Y401338D01*
X734920Y401339D01*
X734960Y401333D01*
X735078Y401344D01*
X735197Y401347D01*
X735236Y401359D01*
X735276Y401362D01*
X735389Y401403D01*
X735503Y401436D01*
X735537Y401456D01*
X735576Y401470D01*
X735674Y401537D01*
X735777Y401597D01*
X735822Y401637D01*
X735839Y401649D01*
X735852Y401664D01*
X735897Y401704D01*
X738669Y404475D01*
X742777Y406177D01*
X747223Y406177D01*
X751331Y404475D01*
X754475Y401331D01*
X755228Y399514D01*
X755237Y399498D01*
X755240Y399488D01*
X755245Y399480D01*
X755251Y399461D01*
X755321Y399351D01*
X755385Y399238D01*
X755406Y399217D01*
X755422Y399192D01*
X755516Y399103D01*
X755607Y399010D01*
X755632Y398994D01*
X755653Y398974D01*
X755767Y398911D01*
X755878Y398843D01*
X755906Y398835D01*
X755932Y398820D01*
X756057Y398788D01*
X756182Y398750D01*
X756211Y398748D01*
X756240Y398741D01*
X756400Y398731D01*
X769156Y398731D01*
X778521Y376399D01*
X778544Y376358D01*
X778560Y376314D01*
X778623Y376221D01*
X778680Y376124D01*
X778712Y376090D01*
X778739Y376051D01*
X778823Y375977D01*
X778902Y375896D01*
X778942Y375872D01*
X778977Y375841D01*
X779077Y375789D01*
X779174Y375731D01*
X779219Y375717D01*
X779260Y375696D01*
X779370Y375671D01*
X779478Y375639D01*
X779525Y375637D01*
X779571Y375626D01*
X779683Y375630D01*
X779796Y375625D01*
X779842Y375635D01*
X779889Y375636D01*
X779997Y375667D01*
X780107Y375691D01*
X780149Y375712D01*
X780194Y375725D01*
X780291Y375782D01*
X780392Y375832D01*
X780427Y375862D01*
X780468Y375886D01*
X780589Y375992D01*
X787600Y383003D01*
X787673Y383097D01*
X787751Y383187D01*
X787770Y383223D01*
X787794Y383254D01*
X787842Y383364D01*
X787896Y383470D01*
X787905Y383509D01*
X787921Y383546D01*
X787940Y383664D01*
X787966Y383780D01*
X787964Y383820D01*
X787971Y383860D01*
X787959Y383979D01*
X787956Y384098D01*
X787945Y384137D01*
X787941Y384177D01*
X787901Y384289D01*
X787867Y384403D01*
X787847Y384438D01*
X787833Y384476D01*
X787766Y384575D01*
X787706Y384677D01*
X787666Y384723D01*
X787655Y384739D01*
X787639Y384753D01*
X787600Y384798D01*
X787553Y384844D01*
X787553Y395156D01*
X794844Y402447D01*
X805156Y402447D01*
X809103Y398500D01*
X809197Y398427D01*
X809286Y398348D01*
X809322Y398330D01*
X809354Y398305D01*
X809463Y398257D01*
X809569Y398203D01*
X809608Y398195D01*
X809646Y398179D01*
X809763Y398160D01*
X809879Y398134D01*
X809920Y398135D01*
X809960Y398129D01*
X810078Y398140D01*
X810197Y398143D01*
X810236Y398155D01*
X810276Y398158D01*
X810389Y398199D01*
X810503Y398232D01*
X810538Y398252D01*
X810576Y398266D01*
X810674Y398333D01*
X810777Y398393D01*
X810822Y398433D01*
X810839Y398445D01*
X810852Y398460D01*
X810898Y398500D01*
X814844Y402447D01*
X825156Y402447D01*
X832447Y395156D01*
X832447Y384844D01*
X825017Y377414D01*
X824971Y377396D01*
X824891Y377338D01*
X824806Y377288D01*
X824731Y377222D01*
X824714Y377210D01*
X824706Y377200D01*
X824685Y377182D01*
X806966Y359462D01*
X804912Y358611D01*
X792341Y358611D01*
X792242Y358599D01*
X792143Y358596D01*
X792085Y358579D01*
X792025Y358571D01*
X791933Y358535D01*
X791838Y358507D01*
X791786Y358477D01*
X791729Y358454D01*
X791649Y358396D01*
X791564Y358346D01*
X791489Y358280D01*
X791472Y358268D01*
X791464Y358258D01*
X791443Y358240D01*
X788307Y355103D01*
X788287Y355077D01*
X788262Y355056D01*
X788190Y354952D01*
X788112Y354852D01*
X788099Y354822D01*
X788080Y354796D01*
X788036Y354677D01*
X787985Y354560D01*
X787980Y354528D01*
X787969Y354498D01*
X787955Y354372D01*
X787936Y354246D01*
X787939Y354214D01*
X787935Y354181D01*
X787953Y354056D01*
X787965Y353929D01*
X787976Y353899D01*
X787981Y353867D01*
X788034Y353715D01*
X845826Y215903D01*
X845849Y215862D01*
X845865Y215818D01*
X845928Y215725D01*
X845985Y215627D01*
X846017Y215594D01*
X846044Y215555D01*
X846128Y215480D01*
X846207Y215400D01*
X846247Y215375D01*
X846282Y215344D01*
X846382Y215293D01*
X846479Y215235D01*
X846524Y215221D01*
X846565Y215200D01*
X846675Y215175D01*
X846783Y215142D01*
X846830Y215140D01*
X846876Y215130D01*
X846988Y215133D01*
X847101Y215129D01*
X847147Y215138D01*
X847193Y215140D01*
X847302Y215171D01*
X847412Y215194D01*
X847454Y215215D01*
X847499Y215228D01*
X847596Y215285D01*
X847697Y215335D01*
X847733Y215366D01*
X847773Y215390D01*
X847894Y215496D01*
X851500Y219103D01*
X851573Y219197D01*
X851652Y219286D01*
X851670Y219322D01*
X851695Y219354D01*
X851743Y219463D01*
X851797Y219569D01*
X851805Y219608D01*
X851821Y219646D01*
X851840Y219763D01*
X851866Y219879D01*
X851865Y219920D01*
X851871Y219960D01*
X851860Y220078D01*
X851857Y220197D01*
X851845Y220236D01*
X851842Y220276D01*
X851801Y220389D01*
X851768Y220503D01*
X851748Y220538D01*
X851734Y220576D01*
X851667Y220674D01*
X851607Y220777D01*
X851567Y220822D01*
X851555Y220839D01*
X851540Y220852D01*
X851500Y220898D01*
X847553Y224844D01*
X847553Y235156D01*
X854844Y242447D01*
X865156Y242447D01*
X872447Y235156D01*
X872447Y224844D01*
X868500Y220898D01*
X868427Y220803D01*
X868348Y220714D01*
X868330Y220678D01*
X868305Y220646D01*
X868258Y220537D01*
X868203Y220431D01*
X868195Y220392D01*
X868179Y220354D01*
X868160Y220237D01*
X868134Y220121D01*
X868135Y220080D01*
X868129Y220040D01*
X868140Y219922D01*
X868143Y219803D01*
X868155Y219764D01*
X868158Y219724D01*
X868199Y219611D01*
X868232Y219497D01*
X868252Y219463D01*
X868266Y219424D01*
X868333Y219326D01*
X868393Y219223D01*
X868433Y219178D01*
X868445Y219161D01*
X868460Y219148D01*
X868500Y219103D01*
X871642Y215960D01*
X871720Y215900D01*
X871792Y215832D01*
X871845Y215803D01*
X871893Y215766D01*
X871984Y215726D01*
X872071Y215678D01*
X872129Y215663D01*
X872185Y215639D01*
X872283Y215624D01*
X872379Y215599D01*
X872479Y215593D01*
X872499Y215589D01*
X872511Y215591D01*
X872539Y215589D01*
X873212Y215589D01*
X875266Y214738D01*
X890347Y199656D01*
X890425Y199596D01*
X890498Y199528D01*
X890551Y199499D01*
X890598Y199462D01*
X890689Y199422D01*
X890776Y199374D01*
X890835Y199359D01*
X890890Y199335D01*
X890988Y199320D01*
X891084Y199295D01*
X891184Y199289D01*
X891204Y199285D01*
X891217Y199287D01*
X891245Y199285D01*
X891309Y199285D01*
X893913Y198206D01*
X895906Y196213D01*
X896985Y193609D01*
X896985Y190791D01*
X895906Y188187D01*
X893913Y186194D01*
X891309Y185115D01*
X888491Y185115D01*
X885887Y186194D01*
X883894Y188187D01*
X882815Y190791D01*
X882815Y190855D01*
X882803Y190954D01*
X882800Y191053D01*
X882783Y191111D01*
X882775Y191171D01*
X882739Y191263D01*
X882711Y191358D01*
X882681Y191410D01*
X882658Y191467D01*
X882600Y191547D01*
X882550Y191632D01*
X882484Y191707D01*
X882472Y191724D01*
X882462Y191732D01*
X882444Y191753D01*
X871797Y202400D01*
X871703Y202473D01*
X871614Y202551D01*
X871578Y202570D01*
X871546Y202594D01*
X871436Y202642D01*
X871330Y202696D01*
X871291Y202705D01*
X871254Y202721D01*
X871136Y202740D01*
X871020Y202766D01*
X870980Y202764D01*
X870940Y202771D01*
X870821Y202760D01*
X870702Y202756D01*
X870663Y202745D01*
X870623Y202741D01*
X870511Y202701D01*
X870397Y202667D01*
X870362Y202647D01*
X870324Y202633D01*
X870225Y202566D01*
X870123Y202506D01*
X870077Y202466D01*
X870061Y202455D01*
X870047Y202439D01*
X870002Y202400D01*
X865156Y197553D01*
X855429Y197553D01*
X855377Y197547D01*
X855325Y197549D01*
X855220Y197527D01*
X855114Y197513D01*
X855065Y197494D01*
X855014Y197483D01*
X854917Y197436D01*
X854818Y197396D01*
X854776Y197366D01*
X854729Y197342D01*
X854647Y197272D01*
X854561Y197210D01*
X854527Y197169D01*
X854487Y197135D01*
X854426Y197047D01*
X854358Y196965D01*
X854336Y196917D01*
X854306Y196874D01*
X854268Y196774D01*
X854222Y196677D01*
X854213Y196625D01*
X854194Y196576D01*
X854183Y196470D01*
X854163Y196365D01*
X854166Y196312D01*
X854160Y196260D01*
X854176Y196154D01*
X854182Y196047D01*
X854198Y195997D01*
X854206Y195945D01*
X854259Y195793D01*
X888046Y115224D01*
X888059Y115201D01*
X888067Y115176D01*
X888138Y115063D01*
X888205Y114949D01*
X888223Y114930D01*
X888238Y114907D01*
X888334Y114816D01*
X888427Y114721D01*
X888450Y114707D01*
X888469Y114689D01*
X888585Y114625D01*
X888699Y114556D01*
X888724Y114548D01*
X888748Y114535D01*
X888876Y114502D01*
X889003Y114464D01*
X889030Y114463D01*
X889056Y114456D01*
X889216Y114446D01*
X925584Y114446D01*
X925597Y114447D01*
X925610Y114446D01*
X925754Y114467D01*
X925899Y114486D01*
X925911Y114490D01*
X925924Y114492D01*
X926059Y114549D01*
X926195Y114603D01*
X926205Y114610D01*
X926218Y114615D01*
X926334Y114704D01*
X926452Y114789D01*
X926461Y114800D01*
X926471Y114808D01*
X926561Y114921D01*
X926655Y115034D01*
X926661Y115046D01*
X926669Y115057D01*
X926728Y115190D01*
X926791Y115322D01*
X926793Y115335D01*
X926798Y115347D01*
X926823Y115492D01*
X926850Y115634D01*
X926849Y115648D01*
X926852Y115661D01*
X926840Y115807D01*
X926831Y115952D01*
X926826Y115964D01*
X926825Y115978D01*
X926778Y116116D01*
X926733Y116254D01*
X926725Y116266D01*
X926721Y116278D01*
X926641Y116399D01*
X926562Y116523D01*
X926553Y116532D01*
X926545Y116543D01*
X926433Y116658D01*
X924291Y118587D01*
X921007Y125963D01*
X921007Y134037D01*
X924291Y141413D01*
X930291Y146816D01*
X937970Y149311D01*
X946000Y148467D01*
X952993Y144430D01*
X953258Y144065D01*
X953313Y144007D01*
X953359Y143942D01*
X953421Y143891D01*
X953476Y143833D01*
X953543Y143790D01*
X953604Y143739D01*
X953677Y143705D01*
X953744Y143662D01*
X953820Y143638D01*
X953892Y143604D01*
X953971Y143589D01*
X954047Y143564D01*
X954126Y143559D01*
X954205Y143544D01*
X954284Y143549D01*
X954364Y143544D01*
X954442Y143559D01*
X954522Y143564D01*
X954598Y143588D01*
X954677Y143603D01*
X954749Y143637D01*
X954824Y143662D01*
X954892Y143705D01*
X954964Y143739D01*
X955026Y143789D01*
X955093Y143832D01*
X955148Y143890D01*
X955210Y143941D01*
X955256Y144006D01*
X955311Y144064D01*
X955350Y144133D01*
X955397Y144198D01*
X955426Y144272D01*
X955465Y144342D01*
X955485Y144419D01*
X955514Y144494D01*
X955524Y144573D01*
X955544Y144650D01*
X955554Y144808D01*
X955554Y144809D01*
X955554Y144810D01*
X955554Y144811D01*
X955554Y160000D01*
X955553Y160013D01*
X955554Y160042D01*
X955285Y168214D01*
X955282Y168233D01*
X955274Y168338D01*
X953130Y184541D01*
X953129Y184544D01*
X953129Y184547D01*
X953097Y184705D01*
X948845Y200485D01*
X948838Y200504D01*
X948806Y200605D01*
X945912Y208251D01*
X945906Y208262D01*
X945896Y208290D01*
X846807Y446105D01*
X846630Y446529D01*
X845896Y448290D01*
X845887Y448306D01*
X845869Y448352D01*
X843861Y452528D01*
X843850Y452546D01*
X843843Y452565D01*
X843759Y452703D01*
X841734Y455615D01*
X841654Y455703D01*
X841580Y455797D01*
X841548Y455821D01*
X841521Y455851D01*
X841422Y455917D01*
X841327Y455989D01*
X841289Y456005D01*
X841256Y456027D01*
X841143Y456066D01*
X841034Y456112D01*
X840994Y456118D01*
X840955Y456132D01*
X840837Y456142D01*
X840719Y456159D01*
X840679Y456155D01*
X840639Y456158D01*
X840521Y456139D01*
X840403Y456126D01*
X840365Y456112D01*
X840325Y456105D01*
X840216Y456057D01*
X840105Y456016D01*
X840071Y455993D01*
X840034Y455976D01*
X839941Y455902D01*
X839843Y455834D01*
X839817Y455804D01*
X839785Y455779D01*
X839713Y455684D01*
X839635Y455594D01*
X839617Y455558D01*
X839593Y455525D01*
X839547Y455416D01*
X839494Y455309D01*
X839477Y455251D01*
X839469Y455232D01*
X839466Y455212D01*
X839450Y455154D01*
X837739Y447102D01*
X832993Y440570D01*
X826000Y436533D01*
X817970Y435689D01*
X810291Y438184D01*
X804291Y443587D01*
X801007Y450963D01*
X801007Y459037D01*
X804291Y466413D01*
X810291Y471816D01*
X812755Y472616D01*
X812769Y472623D01*
X812784Y472626D01*
X812913Y472691D01*
X813043Y472752D01*
X813055Y472762D01*
X813069Y472769D01*
X813177Y472863D01*
X813288Y472955D01*
X813297Y472967D01*
X813309Y472977D01*
X813390Y473095D01*
X813475Y473212D01*
X813481Y473226D01*
X813489Y473239D01*
X813539Y473373D01*
X813592Y473507D01*
X813594Y473523D01*
X813599Y473537D01*
X813614Y473680D01*
X813632Y473823D01*
X813630Y473838D01*
X813632Y473853D01*
X813610Y473996D01*
X813593Y474138D01*
X813587Y474153D01*
X813585Y474168D01*
X813528Y474301D01*
X813476Y474434D01*
X813467Y474447D01*
X813461Y474461D01*
X813373Y474576D01*
X813289Y474692D01*
X813277Y474701D01*
X813268Y474714D01*
X813154Y474803D01*
X813044Y474895D01*
X813030Y474901D01*
X813018Y474911D01*
X812887Y474969D01*
X812756Y475030D01*
X812741Y475033D01*
X812727Y475039D01*
X812571Y475076D01*
X809787Y475537D01*
X809763Y475538D01*
X809740Y475544D01*
X809579Y475554D01*
X692183Y475554D01*
X692120Y475546D01*
X692056Y475548D01*
X691963Y475526D01*
X691868Y475514D01*
X691808Y475491D01*
X691746Y475477D01*
X691701Y475453D01*
X689912Y475552D01*
X689893Y475551D01*
X689842Y475554D01*
X689399Y475554D01*
X689387Y475553D01*
X689360Y475554D01*
X686738Y475472D01*
X686655Y475459D01*
X686571Y475456D01*
X686433Y475424D01*
X686424Y475423D01*
X686421Y475421D01*
X686414Y475420D01*
X680864Y473760D01*
X680737Y473704D01*
X680609Y473652D01*
X680585Y473636D01*
X680573Y473631D01*
X680557Y473619D01*
X680473Y473565D01*
X675816Y470121D01*
X675755Y470063D01*
X675688Y470012D01*
X675592Y469907D01*
X675586Y469901D01*
X675584Y469898D01*
X675579Y469893D01*
X673764Y467623D01*
X673753Y467604D01*
X673699Y467534D01*
X655006Y439495D01*
X653699Y437534D01*
X651083Y433610D01*
X643499Y428002D01*
X634462Y425299D01*
X630472Y425521D01*
X629753Y425561D01*
X629492Y425576D01*
X627390Y425692D01*
X624411Y425858D01*
X614259Y429242D01*
X605355Y435178D01*
X598326Y443248D01*
X596568Y446884D01*
X595997Y448065D01*
X595986Y448083D01*
X595948Y448157D01*
X594900Y449937D01*
X594853Y449997D01*
X594815Y450063D01*
X594710Y450184D01*
X591817Y453115D01*
X591717Y453194D01*
X591621Y453278D01*
X591581Y453301D01*
X591567Y453312D01*
X591547Y453321D01*
X591481Y453359D01*
X587798Y455201D01*
X587678Y455243D01*
X587560Y455291D01*
X587515Y455300D01*
X587498Y455306D01*
X587476Y455308D01*
X587402Y455323D01*
X583322Y455878D01*
X583246Y455879D01*
X583171Y455890D01*
X583010Y455882D01*
X580957Y455653D01*
X580935Y455648D01*
X580854Y455637D01*
X570683Y453647D01*
X550000Y452313D01*
X529317Y453647D01*
X519548Y455559D01*
X519547Y455559D01*
X519146Y455637D01*
X519125Y455638D01*
X519043Y455653D01*
X516990Y455882D01*
X516914Y455881D01*
X516839Y455890D01*
X516678Y455878D01*
X512598Y455323D01*
X512475Y455290D01*
X512350Y455263D01*
X512308Y455245D01*
X512291Y455241D01*
X512272Y455230D01*
X512202Y455201D01*
X508519Y453359D01*
X508413Y453288D01*
X508303Y453222D01*
X508269Y453192D01*
X508254Y453182D01*
X508240Y453166D01*
X508183Y453115D01*
X505290Y450184D01*
X505244Y450124D01*
X505191Y450070D01*
X505100Y449937D01*
X504052Y448157D01*
X504043Y448137D01*
X504003Y448065D01*
X502972Y445934D01*
X501674Y443248D01*
X494645Y435178D01*
X485741Y429242D01*
X475589Y425858D01*
X472610Y425692D01*
X470269Y425562D01*
X470268Y425562D01*
X470247Y425561D01*
X470048Y425550D01*
X465538Y425299D01*
X456501Y428002D01*
X448917Y433610D01*
X446301Y437534D01*
X444988Y439503D01*
X444988Y439504D01*
X427026Y466446D01*
X426301Y467534D01*
X426287Y467550D01*
X426236Y467623D01*
X424421Y469893D01*
X424360Y469952D01*
X424307Y470017D01*
X424199Y470108D01*
X424192Y470114D01*
X424189Y470116D01*
X424184Y470121D01*
X419527Y473565D01*
X419405Y473633D01*
X419287Y473704D01*
X419260Y473714D01*
X419249Y473720D01*
X419229Y473725D01*
X419136Y473760D01*
X413586Y475420D01*
X413503Y475434D01*
X413422Y475457D01*
X413282Y475470D01*
X413273Y475472D01*
X413269Y475472D01*
X413262Y475472D01*
X410640Y475554D01*
X410628Y475553D01*
X410601Y475554D01*
X410158Y475554D01*
X410140Y475552D01*
X410088Y475552D01*
X408306Y475453D01*
X408285Y475465D01*
X408193Y475488D01*
X408103Y475522D01*
X408039Y475528D01*
X407977Y475544D01*
X407817Y475554D01*
X290421Y475554D01*
X290397Y475551D01*
X290374Y475553D01*
X290213Y475537D01*
X287650Y475112D01*
X287610Y475100D01*
X287568Y475096D01*
X287458Y475055D01*
X287345Y475021D01*
X287309Y475000D01*
X287270Y474985D01*
X287174Y474918D01*
X287073Y474858D01*
X287043Y474828D01*
X287009Y474804D01*
X286932Y474715D01*
X286850Y474631D01*
X286828Y474595D01*
X286801Y474563D01*
X286749Y474458D01*
X286690Y474356D01*
X286678Y474316D01*
X286659Y474279D01*
X286635Y474163D01*
X286603Y474050D01*
X286602Y474009D01*
X286593Y473967D01*
X286598Y473850D01*
X286595Y473733D01*
X286604Y473692D01*
X286606Y473650D01*
X286640Y473537D01*
X286666Y473423D01*
X286686Y473385D01*
X286698Y473345D01*
X286758Y473244D01*
X286812Y473140D01*
X286840Y473109D01*
X286862Y473073D01*
X286946Y472991D01*
X287024Y472903D01*
X287059Y472880D01*
X287089Y472850D01*
X287223Y472761D01*
X292993Y469430D01*
X297739Y462898D01*
X299417Y455000D01*
X297739Y447102D01*
X292993Y440570D01*
X286000Y436533D01*
X277970Y435689D01*
X270291Y438184D01*
X264291Y443587D01*
X261007Y450963D01*
X261007Y455507D01*
X260995Y455599D01*
X260993Y455692D01*
X260975Y455757D01*
X260967Y455823D01*
X260933Y455909D01*
X260908Y455998D01*
X260875Y456056D01*
X260850Y456119D01*
X260796Y456193D01*
X260749Y456274D01*
X260703Y456322D01*
X260663Y456376D01*
X260592Y456435D01*
X260527Y456501D01*
X260470Y456536D01*
X260418Y456579D01*
X260335Y456618D01*
X260255Y456666D01*
X260191Y456686D01*
X260131Y456714D01*
X260040Y456732D01*
X259951Y456759D01*
X259884Y456762D01*
X259818Y456774D01*
X259726Y456768D01*
X259633Y456772D01*
X259568Y456758D01*
X259501Y456754D01*
X259413Y456726D01*
X259322Y456707D01*
X259262Y456677D01*
X259198Y456656D01*
X259120Y456607D01*
X259037Y456566D01*
X258986Y456522D01*
X258930Y456486D01*
X258866Y456419D01*
X258796Y456358D01*
X258723Y456267D01*
X258712Y456255D01*
X258707Y456247D01*
X258696Y456232D01*
X256241Y452703D01*
X256231Y452684D01*
X256217Y452668D01*
X256139Y452528D01*
X254131Y448352D01*
X254126Y448334D01*
X254104Y448290D01*
X253193Y446105D01*
X155014Y210475D01*
X154104Y208290D01*
X154100Y208278D01*
X154088Y208251D01*
X151194Y200605D01*
X151189Y200586D01*
X151155Y200485D01*
X146903Y184705D01*
X146903Y184702D01*
X146901Y184699D01*
X146870Y184541D01*
X144726Y168338D01*
X144726Y168319D01*
X144715Y168214D01*
X144446Y160042D01*
X144448Y160029D01*
X144446Y160000D01*
X144446Y144403D01*
X144459Y144298D01*
X144463Y144192D01*
X144479Y144141D01*
X144486Y144088D01*
X144525Y143989D01*
X144555Y143888D01*
X144583Y143842D01*
X144603Y143792D01*
X144665Y143706D01*
X144720Y143616D01*
X144758Y143578D01*
X144789Y143535D01*
X144871Y143467D01*
X144947Y143393D01*
X144993Y143366D01*
X145034Y143332D01*
X145130Y143287D01*
X145222Y143234D01*
X145274Y143219D01*
X145322Y143196D01*
X145426Y143177D01*
X145528Y143148D01*
X145582Y143147D01*
X145634Y143137D01*
X145740Y143143D01*
X145846Y143141D01*
X145899Y143153D01*
X145952Y143156D01*
X146053Y143189D01*
X146156Y143213D01*
X146203Y143238D01*
X146254Y143254D01*
X146344Y143311D01*
X146438Y143360D01*
X146505Y143413D01*
X146523Y143425D01*
X146534Y143436D01*
X146564Y143460D01*
X150291Y146816D01*
X157970Y149311D01*
X166000Y148467D01*
X172993Y144430D01*
X177739Y137898D01*
X179417Y130000D01*
X177739Y122102D01*
X173640Y116461D01*
X173621Y116426D01*
X173596Y116396D01*
X173545Y116287D01*
X173487Y116182D01*
X173477Y116144D01*
X173460Y116108D01*
X173438Y115991D01*
X173408Y115874D01*
X173408Y115834D01*
X173400Y115795D01*
X173408Y115676D01*
X173408Y115556D01*
X173417Y115518D01*
X173420Y115478D01*
X173457Y115364D01*
X173487Y115248D01*
X173506Y115213D01*
X173518Y115176D01*
X173582Y115074D01*
X173640Y114969D01*
X173667Y114940D01*
X173688Y114907D01*
X173775Y114825D01*
X173857Y114738D01*
X173891Y114716D01*
X173920Y114689D01*
X174024Y114631D01*
X174126Y114567D01*
X174164Y114555D01*
X174198Y114535D01*
X174314Y114506D01*
X174428Y114468D01*
X174468Y114466D01*
X174506Y114456D01*
X174667Y114446D01*
X210784Y114446D01*
X210810Y114449D01*
G37*
G36*
X493036Y258743D02*
X493036Y258743D01*
X493135Y258746D01*
X493194Y258763D01*
X493254Y258771D01*
X493346Y258807D01*
X493441Y258835D01*
X493493Y258865D01*
X493549Y258888D01*
X493629Y258946D01*
X493715Y258996D01*
X493790Y259062D01*
X493807Y259074D01*
X493815Y259084D01*
X493836Y259103D01*
X497656Y262922D01*
X497716Y263001D01*
X497784Y263073D01*
X497808Y263116D01*
X497817Y263127D01*
X497822Y263137D01*
X497850Y263174D01*
X497890Y263265D01*
X497938Y263351D01*
X497953Y263410D01*
X497977Y263465D01*
X497992Y263563D01*
X498017Y263659D01*
X498023Y263759D01*
X498027Y263780D01*
X498025Y263792D01*
X498027Y263820D01*
X498027Y271962D01*
X498012Y272080D01*
X498005Y272199D01*
X497992Y272237D01*
X497987Y272278D01*
X497944Y272388D01*
X497907Y272501D01*
X497885Y272536D01*
X497870Y272573D01*
X497801Y272669D01*
X497737Y272770D01*
X497707Y272798D01*
X497684Y272831D01*
X497592Y272907D01*
X497505Y272988D01*
X497470Y273008D01*
X497439Y273033D01*
X497331Y273084D01*
X497227Y273142D01*
X497187Y273152D01*
X497151Y273169D01*
X497137Y273172D01*
X494762Y274155D01*
X493055Y275862D01*
X492131Y278093D01*
X492131Y280507D01*
X493055Y282738D01*
X494762Y284445D01*
X496993Y285369D01*
X499407Y285369D01*
X501638Y284445D01*
X503345Y282738D01*
X504269Y280507D01*
X504269Y280224D01*
X504281Y280126D01*
X504284Y280027D01*
X504301Y279968D01*
X504309Y279908D01*
X504345Y279816D01*
X504373Y279721D01*
X504403Y279669D01*
X504426Y279613D01*
X504484Y279533D01*
X504534Y279447D01*
X504600Y279372D01*
X504612Y279355D01*
X504622Y279347D01*
X504640Y279326D01*
X507173Y276794D01*
X507173Y260000D01*
X507188Y259882D01*
X507195Y259763D01*
X507208Y259725D01*
X507213Y259684D01*
X507256Y259574D01*
X507293Y259461D01*
X507315Y259426D01*
X507330Y259389D01*
X507399Y259293D01*
X507463Y259192D01*
X507493Y259164D01*
X507516Y259131D01*
X507608Y259056D01*
X507695Y258974D01*
X507730Y258954D01*
X507761Y258929D01*
X507869Y258878D01*
X507973Y258820D01*
X508013Y258810D01*
X508049Y258793D01*
X508166Y258771D01*
X508281Y258741D01*
X508341Y258737D01*
X508361Y258733D01*
X508382Y258735D01*
X508442Y258731D01*
X597538Y258731D01*
X597676Y258748D01*
X597815Y258761D01*
X597834Y258768D01*
X597854Y258771D01*
X597983Y258822D01*
X598114Y258869D01*
X598131Y258880D01*
X598149Y258888D01*
X598262Y258969D01*
X598377Y259047D01*
X598390Y259063D01*
X598407Y259074D01*
X598495Y259182D01*
X598587Y259286D01*
X598597Y259304D01*
X598610Y259319D01*
X598669Y259445D01*
X598732Y259569D01*
X598736Y259589D01*
X598745Y259607D01*
X598771Y259743D01*
X598802Y259879D01*
X598801Y259900D01*
X598805Y259920D01*
X598796Y260058D01*
X598792Y260197D01*
X598786Y260217D01*
X598785Y260237D01*
X598742Y260369D01*
X598704Y260503D01*
X598693Y260520D01*
X598687Y260539D01*
X598613Y260657D01*
X598542Y260777D01*
X598524Y260798D01*
X598517Y260808D01*
X598502Y260822D01*
X598436Y260898D01*
X596527Y262806D01*
X596527Y268380D01*
X596515Y268478D01*
X596512Y268577D01*
X596495Y268636D01*
X596487Y268696D01*
X596451Y268788D01*
X596423Y268883D01*
X596393Y268935D01*
X596370Y268991D01*
X596312Y269071D01*
X596262Y269157D01*
X596196Y269232D01*
X596184Y269249D01*
X596174Y269257D01*
X596156Y269278D01*
X585874Y279560D01*
X585795Y279620D01*
X585723Y279688D01*
X585670Y279717D01*
X585622Y279754D01*
X585531Y279794D01*
X585445Y279842D01*
X585386Y279857D01*
X585331Y279881D01*
X585233Y279896D01*
X585137Y279921D01*
X585037Y279927D01*
X585016Y279931D01*
X585004Y279929D01*
X584976Y279931D01*
X584593Y279931D01*
X582362Y280855D01*
X580655Y282562D01*
X579731Y284793D01*
X579731Y287207D01*
X580655Y289438D01*
X582362Y291145D01*
X584593Y292069D01*
X587007Y292069D01*
X589238Y291145D01*
X590945Y289438D01*
X591869Y287207D01*
X591869Y287024D01*
X591881Y286926D01*
X591884Y286827D01*
X591901Y286768D01*
X591909Y286708D01*
X591945Y286616D01*
X591973Y286521D01*
X592003Y286469D01*
X592026Y286413D01*
X592084Y286333D01*
X592134Y286247D01*
X592200Y286172D01*
X592212Y286155D01*
X592222Y286147D01*
X592240Y286126D01*
X605673Y272694D01*
X605673Y267120D01*
X605685Y267022D01*
X605688Y266923D01*
X605705Y266864D01*
X605713Y266804D01*
X605749Y266712D01*
X605777Y266617D01*
X605807Y266565D01*
X605830Y266509D01*
X605888Y266429D01*
X605938Y266343D01*
X606004Y266268D01*
X606016Y266251D01*
X606026Y266243D01*
X606044Y266222D01*
X613164Y259103D01*
X613243Y259042D01*
X613315Y258974D01*
X613368Y258945D01*
X613416Y258908D01*
X613507Y258868D01*
X613593Y258820D01*
X613652Y258805D01*
X613707Y258781D01*
X613805Y258766D01*
X613901Y258741D01*
X614001Y258735D01*
X614022Y258731D01*
X614034Y258733D01*
X614062Y258731D01*
X668570Y258731D01*
X668688Y258746D01*
X668807Y258753D01*
X668845Y258766D01*
X668886Y258771D01*
X668996Y258814D01*
X669109Y258851D01*
X669144Y258873D01*
X669181Y258888D01*
X669277Y258958D01*
X669378Y259021D01*
X669406Y259051D01*
X669439Y259074D01*
X669515Y259166D01*
X669596Y259253D01*
X669616Y259288D01*
X669641Y259319D01*
X669692Y259427D01*
X669750Y259531D01*
X669760Y259571D01*
X669777Y259607D01*
X669799Y259724D01*
X669829Y259839D01*
X669833Y259900D01*
X669837Y259920D01*
X669835Y259940D01*
X669839Y260000D01*
X669839Y262021D01*
X671386Y265756D01*
X674244Y268614D01*
X674760Y268827D01*
X674881Y268896D01*
X675004Y268961D01*
X675019Y268975D01*
X675036Y268985D01*
X675136Y269082D01*
X675239Y269175D01*
X675250Y269192D01*
X675265Y269206D01*
X675337Y269325D01*
X675414Y269441D01*
X675420Y269460D01*
X675431Y269477D01*
X675472Y269610D01*
X675517Y269742D01*
X675518Y269762D01*
X675524Y269781D01*
X675531Y269920D01*
X675542Y270059D01*
X675539Y270079D01*
X675540Y270099D01*
X675511Y270235D01*
X675488Y270372D01*
X675479Y270391D01*
X675475Y270410D01*
X675414Y270535D01*
X675357Y270662D01*
X675344Y270678D01*
X675336Y270696D01*
X675245Y270802D01*
X675158Y270910D01*
X675142Y270923D01*
X675129Y270938D01*
X675015Y271018D01*
X674904Y271102D01*
X674879Y271114D01*
X674869Y271121D01*
X674850Y271128D01*
X674760Y271173D01*
X674244Y271386D01*
X671386Y274244D01*
X669839Y277979D01*
X669839Y282021D01*
X671386Y285756D01*
X674244Y288614D01*
X674760Y288827D01*
X674881Y288896D01*
X675004Y288961D01*
X675019Y288975D01*
X675036Y288985D01*
X675136Y289082D01*
X675239Y289175D01*
X675250Y289192D01*
X675265Y289206D01*
X675337Y289325D01*
X675414Y289441D01*
X675420Y289460D01*
X675431Y289477D01*
X675472Y289610D01*
X675517Y289742D01*
X675518Y289762D01*
X675524Y289781D01*
X675531Y289920D01*
X675542Y290059D01*
X675539Y290079D01*
X675540Y290099D01*
X675511Y290235D01*
X675488Y290372D01*
X675479Y290391D01*
X675475Y290410D01*
X675414Y290535D01*
X675357Y290662D01*
X675344Y290678D01*
X675336Y290696D01*
X675245Y290802D01*
X675158Y290910D01*
X675142Y290923D01*
X675129Y290938D01*
X675015Y291018D01*
X674904Y291102D01*
X674879Y291114D01*
X674869Y291121D01*
X674850Y291128D01*
X674760Y291173D01*
X674244Y291386D01*
X671386Y294244D01*
X669839Y297979D01*
X669839Y302021D01*
X671386Y305756D01*
X674244Y308614D01*
X674760Y308827D01*
X674881Y308896D01*
X675004Y308961D01*
X675019Y308975D01*
X675036Y308985D01*
X675136Y309082D01*
X675239Y309175D01*
X675250Y309192D01*
X675265Y309206D01*
X675337Y309325D01*
X675414Y309441D01*
X675420Y309460D01*
X675431Y309477D01*
X675472Y309610D01*
X675517Y309742D01*
X675518Y309762D01*
X675524Y309781D01*
X675531Y309920D01*
X675542Y310059D01*
X675539Y310079D01*
X675540Y310099D01*
X675511Y310235D01*
X675488Y310372D01*
X675479Y310391D01*
X675475Y310410D01*
X675414Y310535D01*
X675357Y310662D01*
X675344Y310678D01*
X675336Y310696D01*
X675245Y310802D01*
X675158Y310910D01*
X675142Y310923D01*
X675129Y310938D01*
X675015Y311018D01*
X674904Y311102D01*
X674879Y311114D01*
X674869Y311121D01*
X674850Y311128D01*
X674760Y311173D01*
X674244Y311386D01*
X671386Y314244D01*
X669839Y317979D01*
X669839Y322021D01*
X671227Y325372D01*
X671240Y325420D01*
X671262Y325465D01*
X671282Y325573D01*
X671311Y325679D01*
X671312Y325729D01*
X671321Y325778D01*
X671315Y325887D01*
X671316Y325997D01*
X671305Y326045D01*
X671302Y326095D01*
X671268Y326199D01*
X671242Y326306D01*
X671219Y326350D01*
X671204Y326397D01*
X671145Y326490D01*
X671093Y326587D01*
X671060Y326624D01*
X671033Y326666D01*
X670953Y326741D01*
X670880Y326823D01*
X670838Y326850D01*
X670802Y326884D01*
X670706Y326937D01*
X670614Y326997D01*
X670567Y327014D01*
X670523Y327038D01*
X670417Y327065D01*
X670313Y327101D01*
X670263Y327105D01*
X670215Y327117D01*
X670055Y327127D01*
X632820Y327127D01*
X632722Y327115D01*
X632623Y327112D01*
X632564Y327095D01*
X632504Y327087D01*
X632412Y327051D01*
X632317Y327023D01*
X632265Y326993D01*
X632209Y326970D01*
X632129Y326912D01*
X632043Y326862D01*
X631968Y326796D01*
X631951Y326784D01*
X631943Y326774D01*
X631922Y326756D01*
X618394Y313227D01*
X583075Y313227D01*
X583046Y313224D01*
X583017Y313226D01*
X582889Y313204D01*
X582760Y313187D01*
X582733Y313177D01*
X582703Y313172D01*
X582585Y313118D01*
X582464Y313070D01*
X582440Y313053D01*
X582413Y313041D01*
X582312Y312960D01*
X582207Y312884D01*
X582188Y312861D01*
X582165Y312842D01*
X582087Y312739D01*
X582004Y312639D01*
X581991Y312612D01*
X581974Y312588D01*
X581903Y312444D01*
X581745Y312062D01*
X580038Y310355D01*
X579299Y310049D01*
X579256Y310025D01*
X579209Y310008D01*
X579118Y309946D01*
X579023Y309892D01*
X578988Y309857D01*
X578946Y309829D01*
X578874Y309747D01*
X578795Y309671D01*
X578769Y309628D01*
X578736Y309591D01*
X578686Y309493D01*
X578628Y309399D01*
X578614Y309352D01*
X578591Y309308D01*
X578567Y309201D01*
X578535Y309096D01*
X578532Y309046D01*
X578522Y308997D01*
X578525Y308888D01*
X578520Y308778D01*
X578530Y308729D01*
X578531Y308680D01*
X578562Y308574D01*
X578584Y308466D01*
X578606Y308422D01*
X578620Y308374D01*
X578675Y308279D01*
X578724Y308181D01*
X578756Y308143D01*
X578781Y308100D01*
X578888Y307979D01*
X579322Y307544D01*
X579401Y307484D01*
X579473Y307416D01*
X579526Y307387D01*
X579574Y307350D01*
X579665Y307310D01*
X579751Y307262D01*
X579810Y307247D01*
X579865Y307223D01*
X579963Y307208D01*
X580059Y307183D01*
X580159Y307177D01*
X580180Y307173D01*
X580192Y307175D01*
X580220Y307173D01*
X581064Y307173D01*
X581163Y307185D01*
X581262Y307188D01*
X581320Y307205D01*
X581380Y307213D01*
X581472Y307249D01*
X581567Y307277D01*
X581619Y307307D01*
X581676Y307330D01*
X581756Y307388D01*
X581841Y307438D01*
X581917Y307504D01*
X581933Y307516D01*
X581941Y307526D01*
X581962Y307544D01*
X582162Y307745D01*
X584393Y308669D01*
X586807Y308669D01*
X589038Y307745D01*
X590745Y306038D01*
X591669Y303807D01*
X591669Y301393D01*
X590745Y299162D01*
X589038Y297455D01*
X586807Y296531D01*
X584393Y296531D01*
X582162Y297455D01*
X581962Y297656D01*
X581884Y297716D01*
X581812Y297784D01*
X581759Y297813D01*
X581711Y297850D01*
X581620Y297890D01*
X581533Y297938D01*
X581475Y297953D01*
X581419Y297977D01*
X581321Y297992D01*
X581225Y298017D01*
X581125Y298023D01*
X581105Y298027D01*
X581092Y298025D01*
X581064Y298027D01*
X575906Y298027D01*
X550074Y323860D01*
X549995Y323920D01*
X549923Y323988D01*
X549870Y324017D01*
X549822Y324054D01*
X549731Y324094D01*
X549645Y324142D01*
X549586Y324157D01*
X549531Y324181D01*
X549433Y324196D01*
X549337Y324221D01*
X549237Y324227D01*
X549216Y324231D01*
X549204Y324229D01*
X549176Y324231D01*
X548893Y324231D01*
X546662Y325155D01*
X544955Y326862D01*
X544031Y329093D01*
X544031Y331507D01*
X544955Y333738D01*
X546778Y335561D01*
X546863Y335670D01*
X546952Y335777D01*
X546961Y335796D01*
X546973Y335812D01*
X547028Y335940D01*
X547087Y336065D01*
X547091Y336085D01*
X547099Y336104D01*
X547121Y336242D01*
X547147Y336378D01*
X547146Y336398D01*
X547149Y336418D01*
X547136Y336557D01*
X547127Y336695D01*
X547121Y336714D01*
X547119Y336734D01*
X547072Y336866D01*
X547029Y336997D01*
X547019Y337015D01*
X547012Y337034D01*
X546934Y337149D01*
X546859Y337266D01*
X546845Y337280D01*
X546833Y337297D01*
X546729Y337389D01*
X546628Y337484D01*
X546610Y337494D01*
X546595Y337507D01*
X546471Y337571D01*
X546349Y337638D01*
X546330Y337643D01*
X546312Y337652D01*
X546176Y337682D01*
X546041Y337717D01*
X546013Y337719D01*
X546001Y337722D01*
X545981Y337721D01*
X545881Y337727D01*
X539136Y337727D01*
X539037Y337715D01*
X538938Y337712D01*
X538880Y337695D01*
X538820Y337687D01*
X538728Y337651D01*
X538633Y337623D01*
X538581Y337593D01*
X538524Y337570D01*
X538444Y337512D01*
X538359Y337462D01*
X538283Y337396D01*
X538267Y337384D01*
X538259Y337374D01*
X538238Y337356D01*
X538038Y337155D01*
X535807Y336231D01*
X533393Y336231D01*
X531162Y337155D01*
X529455Y338862D01*
X528531Y341093D01*
X528531Y343507D01*
X529455Y345738D01*
X531162Y347445D01*
X533393Y348369D01*
X535807Y348369D01*
X538038Y347445D01*
X538238Y347244D01*
X538316Y347184D01*
X538388Y347116D01*
X538441Y347087D01*
X538489Y347050D01*
X538580Y347010D01*
X538667Y346962D01*
X538725Y346947D01*
X538781Y346923D01*
X538879Y346908D01*
X538975Y346883D01*
X539075Y346877D01*
X539095Y346873D01*
X539108Y346875D01*
X539136Y346873D01*
X584064Y346873D01*
X584163Y346885D01*
X584262Y346888D01*
X584320Y346905D01*
X584380Y346913D01*
X584472Y346949D01*
X584567Y346977D01*
X584619Y347007D01*
X584676Y347030D01*
X584756Y347088D01*
X584841Y347138D01*
X584917Y347204D01*
X584933Y347216D01*
X584941Y347226D01*
X584962Y347244D01*
X585262Y347545D01*
X587493Y348469D01*
X589907Y348469D01*
X592138Y347545D01*
X593845Y345838D01*
X594769Y343607D01*
X594769Y341193D01*
X593845Y338962D01*
X592138Y337255D01*
X589907Y336331D01*
X587493Y336331D01*
X585262Y337255D01*
X585162Y337356D01*
X585084Y337416D01*
X585012Y337484D01*
X584959Y337513D01*
X584911Y337550D01*
X584820Y337590D01*
X584733Y337638D01*
X584675Y337653D01*
X584619Y337677D01*
X584521Y337692D01*
X584425Y337717D01*
X584325Y337723D01*
X584305Y337727D01*
X584292Y337725D01*
X584264Y337727D01*
X554319Y337727D01*
X554182Y337710D01*
X554043Y337697D01*
X554024Y337690D01*
X554004Y337687D01*
X553875Y337636D01*
X553744Y337589D01*
X553727Y337578D01*
X553708Y337570D01*
X553596Y337489D01*
X553481Y337411D01*
X553467Y337395D01*
X553451Y337384D01*
X553362Y337276D01*
X553270Y337172D01*
X553261Y337154D01*
X553248Y337139D01*
X553189Y337013D01*
X553126Y336889D01*
X553121Y336869D01*
X553113Y336851D01*
X553086Y336714D01*
X553056Y336579D01*
X553057Y336558D01*
X553053Y336539D01*
X553061Y336400D01*
X553066Y336261D01*
X553071Y336241D01*
X553073Y336221D01*
X553115Y336089D01*
X553154Y335955D01*
X553164Y335938D01*
X553171Y335919D01*
X553245Y335801D01*
X553316Y335681D01*
X553334Y335660D01*
X553341Y335650D01*
X553356Y335636D01*
X553422Y335561D01*
X555245Y333738D01*
X556169Y331507D01*
X556169Y331224D01*
X556181Y331126D01*
X556184Y331027D01*
X556201Y330968D01*
X556209Y330908D01*
X556245Y330816D01*
X556273Y330721D01*
X556303Y330669D01*
X556326Y330613D01*
X556384Y330533D01*
X556434Y330447D01*
X556500Y330372D01*
X556512Y330355D01*
X556522Y330347D01*
X556540Y330326D01*
X569079Y317788D01*
X569119Y317757D01*
X569152Y317720D01*
X569244Y317660D01*
X569331Y317593D01*
X569376Y317573D01*
X569418Y317546D01*
X569521Y317510D01*
X569622Y317466D01*
X569672Y317458D01*
X569718Y317442D01*
X569828Y317434D01*
X569936Y317416D01*
X569986Y317421D01*
X570035Y317417D01*
X570144Y317436D01*
X570253Y317446D01*
X570300Y317463D01*
X570349Y317472D01*
X570449Y317517D01*
X570552Y317554D01*
X570593Y317582D01*
X570639Y317602D01*
X570725Y317671D01*
X570815Y317732D01*
X570848Y317770D01*
X570887Y317801D01*
X570953Y317888D01*
X571026Y317971D01*
X571049Y318015D01*
X571078Y318055D01*
X571149Y318199D01*
X571455Y318938D01*
X573162Y320645D01*
X574748Y321301D01*
X574773Y321316D01*
X574801Y321325D01*
X574911Y321395D01*
X575024Y321459D01*
X575045Y321480D01*
X575070Y321495D01*
X575159Y321590D01*
X575252Y321680D01*
X575268Y321705D01*
X575288Y321727D01*
X575351Y321841D01*
X575419Y321951D01*
X575427Y321980D01*
X575442Y322006D01*
X575474Y322131D01*
X575512Y322255D01*
X575514Y322285D01*
X575521Y322313D01*
X575531Y322474D01*
X575531Y325107D01*
X576455Y327338D01*
X578162Y329045D01*
X580393Y329969D01*
X582807Y329969D01*
X585038Y329045D01*
X585238Y328844D01*
X585316Y328784D01*
X585388Y328716D01*
X585441Y328687D01*
X585489Y328650D01*
X585580Y328610D01*
X585667Y328562D01*
X585725Y328547D01*
X585781Y328523D01*
X585879Y328508D01*
X585975Y328483D01*
X586075Y328477D01*
X586095Y328473D01*
X586108Y328475D01*
X586136Y328473D01*
X611380Y328473D01*
X611478Y328485D01*
X611577Y328488D01*
X611636Y328505D01*
X611696Y328513D01*
X611788Y328549D01*
X611883Y328577D01*
X611935Y328607D01*
X611991Y328630D01*
X612071Y328688D01*
X612157Y328738D01*
X612232Y328804D01*
X612249Y328816D01*
X612257Y328826D01*
X612278Y328844D01*
X626006Y342573D01*
X748196Y342573D01*
X748225Y342576D01*
X748255Y342574D01*
X748383Y342596D01*
X748512Y342613D01*
X748539Y342623D01*
X748568Y342628D01*
X748687Y342682D01*
X748807Y342730D01*
X748831Y342747D01*
X748858Y342759D01*
X748960Y342840D01*
X749065Y342916D01*
X749084Y342939D01*
X749107Y342958D01*
X749185Y343061D01*
X749268Y343161D01*
X749280Y343188D01*
X749298Y343212D01*
X749369Y343356D01*
X750355Y345738D01*
X752062Y347445D01*
X754293Y348369D01*
X756707Y348369D01*
X758537Y347611D01*
X758542Y347609D01*
X758547Y347607D01*
X758697Y347567D01*
X758844Y347527D01*
X758849Y347527D01*
X758854Y347525D01*
X759009Y347524D01*
X759162Y347522D01*
X759167Y347523D01*
X759172Y347523D01*
X759320Y347560D01*
X759471Y347596D01*
X759476Y347598D01*
X759481Y347599D01*
X759616Y347672D01*
X759752Y347745D01*
X759756Y347748D01*
X759761Y347750D01*
X759874Y347855D01*
X759988Y347958D01*
X759991Y347963D01*
X759994Y347966D01*
X760077Y348094D01*
X760163Y348224D01*
X760164Y348229D01*
X760167Y348233D01*
X760215Y348378D01*
X760266Y348525D01*
X760266Y348530D01*
X760268Y348535D01*
X760279Y348687D01*
X760291Y348842D01*
X760290Y348847D01*
X760290Y348852D01*
X760263Y349002D01*
X760237Y349155D01*
X760235Y349160D01*
X760234Y349165D01*
X760176Y349315D01*
X744120Y384102D01*
X744118Y384105D01*
X744117Y384109D01*
X744034Y384240D01*
X743952Y384372D01*
X743949Y384375D01*
X743946Y384378D01*
X743833Y384485D01*
X743722Y384591D01*
X743718Y384593D01*
X743715Y384596D01*
X743578Y384671D01*
X743444Y384746D01*
X743440Y384748D01*
X743436Y384750D01*
X743288Y384788D01*
X743137Y384828D01*
X743132Y384828D01*
X743128Y384829D01*
X742981Y384838D01*
X739244Y386386D01*
X736386Y389244D01*
X736173Y389760D01*
X736104Y389881D01*
X736039Y390004D01*
X736025Y390018D01*
X736015Y390036D01*
X735918Y390136D01*
X735825Y390239D01*
X735808Y390250D01*
X735794Y390265D01*
X735675Y390337D01*
X735559Y390414D01*
X735540Y390420D01*
X735523Y390431D01*
X735390Y390472D01*
X735258Y390517D01*
X735238Y390518D01*
X735219Y390524D01*
X735080Y390531D01*
X734941Y390542D01*
X734921Y390539D01*
X734901Y390539D01*
X734765Y390511D01*
X734628Y390488D01*
X734609Y390479D01*
X734590Y390475D01*
X734465Y390414D01*
X734338Y390357D01*
X734322Y390344D01*
X734304Y390335D01*
X734198Y390245D01*
X734090Y390158D01*
X734077Y390142D01*
X734062Y390129D01*
X733982Y390015D01*
X733898Y389904D01*
X733886Y389879D01*
X733879Y389869D01*
X733872Y389850D01*
X733827Y389760D01*
X733614Y389244D01*
X730756Y386386D01*
X727021Y384839D01*
X722979Y384839D01*
X719244Y386386D01*
X716386Y389244D01*
X715872Y390486D01*
X715857Y390511D01*
X715848Y390539D01*
X715779Y390649D01*
X715714Y390762D01*
X715694Y390783D01*
X715678Y390808D01*
X715583Y390897D01*
X715493Y390990D01*
X715468Y391006D01*
X715446Y391026D01*
X715333Y391089D01*
X715222Y391157D01*
X715194Y391165D01*
X715168Y391180D01*
X715042Y391212D01*
X714918Y391250D01*
X714889Y391252D01*
X714860Y391259D01*
X714699Y391269D01*
X709424Y391269D01*
X709375Y391263D01*
X709325Y391265D01*
X709218Y391243D01*
X709109Y391229D01*
X709063Y391211D01*
X709014Y391201D01*
X708915Y391153D01*
X708813Y391112D01*
X708773Y391083D01*
X708728Y391061D01*
X708645Y390990D01*
X708556Y390926D01*
X708524Y390887D01*
X708486Y390855D01*
X708423Y390765D01*
X708353Y390681D01*
X708332Y390636D01*
X708303Y390595D01*
X708264Y390492D01*
X708217Y390393D01*
X708208Y390344D01*
X708190Y390298D01*
X708178Y390188D01*
X708158Y390081D01*
X708161Y390031D01*
X708155Y389982D01*
X708170Y389873D01*
X708177Y389763D01*
X708193Y389716D01*
X708200Y389667D01*
X708252Y389514D01*
X708669Y388507D01*
X708669Y386093D01*
X707745Y383862D01*
X706038Y382155D01*
X703807Y381231D01*
X703524Y381231D01*
X703426Y381219D01*
X703327Y381216D01*
X703268Y381199D01*
X703208Y381191D01*
X703116Y381155D01*
X703021Y381127D01*
X702969Y381097D01*
X702913Y381074D01*
X702833Y381016D01*
X702747Y380966D01*
X702672Y380900D01*
X702655Y380888D01*
X702647Y380878D01*
X702626Y380860D01*
X675740Y353974D01*
X675680Y353895D01*
X675612Y353823D01*
X675583Y353770D01*
X675546Y353722D01*
X675506Y353631D01*
X675458Y353545D01*
X675443Y353486D01*
X675419Y353431D01*
X675404Y353333D01*
X675379Y353237D01*
X675373Y353137D01*
X675369Y353116D01*
X675371Y353104D01*
X675369Y353076D01*
X675369Y352793D01*
X674445Y350562D01*
X672738Y348855D01*
X670507Y347931D01*
X668093Y347931D01*
X665862Y348855D01*
X664155Y350562D01*
X663231Y352793D01*
X663231Y355207D01*
X664155Y357438D01*
X665862Y359145D01*
X668093Y360069D01*
X668376Y360069D01*
X668474Y360081D01*
X668573Y360084D01*
X668632Y360101D01*
X668692Y360109D01*
X668784Y360145D01*
X668879Y360173D01*
X668931Y360203D01*
X668987Y360226D01*
X669067Y360284D01*
X669153Y360334D01*
X669228Y360400D01*
X669245Y360412D01*
X669253Y360422D01*
X669274Y360440D01*
X696160Y387326D01*
X696220Y387405D01*
X696288Y387477D01*
X696317Y387530D01*
X696354Y387578D01*
X696394Y387669D01*
X696442Y387755D01*
X696457Y387814D01*
X696481Y387869D01*
X696496Y387967D01*
X696521Y388063D01*
X696527Y388163D01*
X696531Y388184D01*
X696529Y388196D01*
X696531Y388224D01*
X696531Y388507D01*
X696948Y389514D01*
X696962Y389562D01*
X696983Y389607D01*
X697003Y389715D01*
X697032Y389821D01*
X697033Y389871D01*
X697042Y389920D01*
X697036Y390029D01*
X697037Y390139D01*
X697026Y390187D01*
X697023Y390237D01*
X696989Y390341D01*
X696963Y390448D01*
X696940Y390492D01*
X696925Y390539D01*
X696866Y390632D01*
X696815Y390729D01*
X696781Y390766D01*
X696755Y390808D01*
X696674Y390883D01*
X696601Y390965D01*
X696559Y390992D01*
X696523Y391026D01*
X696427Y391079D01*
X696335Y391139D01*
X696288Y391156D01*
X696244Y391180D01*
X696138Y391207D01*
X696034Y391243D01*
X695985Y391247D01*
X695936Y391259D01*
X695776Y391269D01*
X562903Y391269D01*
X562765Y391252D01*
X562626Y391239D01*
X562607Y391232D01*
X562587Y391229D01*
X562458Y391178D01*
X562327Y391131D01*
X562310Y391120D01*
X562291Y391112D01*
X562179Y391031D01*
X562064Y390953D01*
X562050Y390937D01*
X562034Y390926D01*
X561945Y390818D01*
X561853Y390714D01*
X561844Y390696D01*
X561831Y390681D01*
X561772Y390555D01*
X561709Y390431D01*
X561704Y390411D01*
X561696Y390393D01*
X561670Y390257D01*
X561639Y390121D01*
X561640Y390100D01*
X561636Y390081D01*
X561645Y389942D01*
X561649Y389803D01*
X561654Y389783D01*
X561656Y389763D01*
X561698Y389631D01*
X561737Y389497D01*
X561747Y389480D01*
X561754Y389461D01*
X561828Y389343D01*
X561899Y389223D01*
X561917Y389202D01*
X561924Y389192D01*
X561939Y389178D01*
X562005Y389103D01*
X588273Y362835D01*
X588296Y362816D01*
X588316Y362794D01*
X588421Y362719D01*
X588524Y362640D01*
X588551Y362628D01*
X588576Y362611D01*
X588697Y362565D01*
X588816Y362513D01*
X588845Y362509D01*
X588873Y362498D01*
X589002Y362484D01*
X589130Y362463D01*
X589160Y362466D01*
X589189Y362463D01*
X589317Y362481D01*
X589447Y362493D01*
X589475Y362503D01*
X589504Y362507D01*
X589656Y362559D01*
X592093Y363569D01*
X594507Y363569D01*
X596738Y362645D01*
X598445Y360938D01*
X599369Y358707D01*
X599369Y356293D01*
X598445Y354062D01*
X596738Y352355D01*
X594507Y351431D01*
X592093Y351431D01*
X589862Y352355D01*
X589408Y352810D01*
X589330Y352870D01*
X589258Y352938D01*
X589205Y352967D01*
X589157Y353004D01*
X589066Y353044D01*
X588979Y353092D01*
X588921Y353107D01*
X588865Y353131D01*
X588767Y353146D01*
X588671Y353171D01*
X588571Y353177D01*
X588551Y353181D01*
X588538Y353179D01*
X588510Y353181D01*
X585711Y353181D01*
X547995Y390898D01*
X547917Y390958D01*
X547845Y391026D01*
X547792Y391055D01*
X547744Y391092D01*
X547653Y391132D01*
X547566Y391180D01*
X547507Y391195D01*
X547452Y391219D01*
X547354Y391234D01*
X547258Y391259D01*
X547158Y391265D01*
X547138Y391269D01*
X547125Y391267D01*
X547097Y391269D01*
X510593Y391269D01*
X510543Y391263D01*
X510494Y391265D01*
X510386Y391243D01*
X510277Y391229D01*
X510231Y391211D01*
X510182Y391201D01*
X510084Y391153D01*
X509982Y391112D01*
X509941Y391083D01*
X509897Y391061D01*
X509813Y390990D01*
X509724Y390926D01*
X509693Y390887D01*
X509655Y390855D01*
X509592Y390765D01*
X509521Y390681D01*
X509500Y390636D01*
X509472Y390595D01*
X509433Y390492D01*
X509386Y390393D01*
X509377Y390344D01*
X509359Y390298D01*
X509347Y390188D01*
X509326Y390081D01*
X509329Y390031D01*
X509324Y389982D01*
X509339Y389873D01*
X509346Y389763D01*
X509361Y389716D01*
X509368Y389667D01*
X509420Y389514D01*
X510169Y387707D01*
X510169Y385293D01*
X509245Y383062D01*
X507538Y381355D01*
X505307Y380431D01*
X503500Y380431D01*
X503362Y380414D01*
X503223Y380401D01*
X503204Y380394D01*
X503184Y380391D01*
X503055Y380340D01*
X502924Y380293D01*
X502907Y380282D01*
X502889Y380274D01*
X502776Y380193D01*
X502661Y380115D01*
X502648Y380099D01*
X502631Y380088D01*
X502542Y379980D01*
X502451Y379876D01*
X502441Y379858D01*
X502428Y379843D01*
X502369Y379717D01*
X502306Y379593D01*
X502301Y379573D01*
X502293Y379555D01*
X502267Y379419D01*
X502236Y379283D01*
X502237Y379262D01*
X502233Y379243D01*
X502242Y379104D01*
X502246Y378965D01*
X502252Y378945D01*
X502253Y378925D01*
X502296Y378793D01*
X502334Y378659D01*
X502345Y378642D01*
X502351Y378623D01*
X502425Y378505D01*
X502496Y378385D01*
X502514Y378364D01*
X502521Y378354D01*
X502536Y378340D01*
X502602Y378265D01*
X514926Y365940D01*
X515005Y365880D01*
X515077Y365812D01*
X515130Y365783D01*
X515178Y365746D01*
X515269Y365706D01*
X515355Y365658D01*
X515414Y365643D01*
X515469Y365619D01*
X515567Y365604D01*
X515663Y365579D01*
X515763Y365573D01*
X515784Y365569D01*
X515796Y365571D01*
X515824Y365569D01*
X516107Y365569D01*
X518338Y364645D01*
X520045Y362938D01*
X520969Y360707D01*
X520969Y358293D01*
X520045Y356062D01*
X518338Y354355D01*
X516107Y353431D01*
X513693Y353431D01*
X511462Y354355D01*
X509755Y356062D01*
X508831Y358293D01*
X508831Y358576D01*
X508819Y358674D01*
X508816Y358773D01*
X508799Y358832D01*
X508791Y358892D01*
X508755Y358984D01*
X508727Y359079D01*
X508697Y359131D01*
X508674Y359187D01*
X508616Y359267D01*
X508566Y359353D01*
X508500Y359428D01*
X508488Y359445D01*
X508478Y359453D01*
X508460Y359474D01*
X493678Y374256D01*
X490627Y377306D01*
X490627Y385580D01*
X490615Y385678D01*
X490612Y385777D01*
X490595Y385836D01*
X490587Y385896D01*
X490551Y385988D01*
X490523Y386083D01*
X490493Y386135D01*
X490470Y386191D01*
X490412Y386271D01*
X490362Y386357D01*
X490296Y386432D01*
X490284Y386449D01*
X490274Y386457D01*
X490256Y386478D01*
X487078Y389656D01*
X486999Y389716D01*
X486927Y389784D01*
X486874Y389813D01*
X486826Y389850D01*
X486735Y389890D01*
X486649Y389938D01*
X486590Y389953D01*
X486535Y389977D01*
X486437Y389992D01*
X486341Y390017D01*
X486241Y390023D01*
X486220Y390027D01*
X486208Y390025D01*
X486180Y390027D01*
X409606Y390027D01*
X408736Y390897D01*
X408658Y390958D01*
X408585Y391026D01*
X408532Y391055D01*
X408484Y391092D01*
X408394Y391132D01*
X408307Y391180D01*
X408248Y391195D01*
X408193Y391219D01*
X408095Y391234D01*
X407999Y391259D01*
X407899Y391265D01*
X407878Y391269D01*
X407866Y391267D01*
X407838Y391269D01*
X385301Y391269D01*
X385271Y391266D01*
X385242Y391268D01*
X385114Y391246D01*
X384985Y391229D01*
X384958Y391219D01*
X384929Y391214D01*
X384810Y391160D01*
X384689Y391112D01*
X384666Y391095D01*
X384639Y391083D01*
X384537Y391002D01*
X384432Y390926D01*
X384413Y390903D01*
X384390Y390884D01*
X384312Y390781D01*
X384229Y390681D01*
X384217Y390654D01*
X384199Y390630D01*
X384128Y390486D01*
X383614Y389244D01*
X380756Y386386D01*
X377021Y384839D01*
X372979Y384839D01*
X369244Y386386D01*
X366386Y389244D01*
X366173Y389760D01*
X366104Y389881D01*
X366039Y390004D01*
X366025Y390018D01*
X366015Y390036D01*
X365918Y390136D01*
X365825Y390239D01*
X365808Y390250D01*
X365794Y390265D01*
X365675Y390337D01*
X365559Y390414D01*
X365540Y390420D01*
X365523Y390431D01*
X365390Y390472D01*
X365258Y390517D01*
X365238Y390518D01*
X365219Y390524D01*
X365080Y390531D01*
X364941Y390542D01*
X364921Y390539D01*
X364901Y390539D01*
X364765Y390511D01*
X364628Y390488D01*
X364609Y390479D01*
X364590Y390475D01*
X364465Y390414D01*
X364338Y390357D01*
X364322Y390344D01*
X364304Y390335D01*
X364198Y390245D01*
X364090Y390158D01*
X364077Y390142D01*
X364062Y390129D01*
X363982Y390015D01*
X363898Y389904D01*
X363886Y389879D01*
X363879Y389869D01*
X363872Y389850D01*
X363827Y389760D01*
X363614Y389244D01*
X360756Y386386D01*
X357020Y384839D01*
X356871Y384819D01*
X356717Y384799D01*
X356713Y384798D01*
X356709Y384797D01*
X356566Y384740D01*
X356421Y384682D01*
X356418Y384680D01*
X356414Y384678D01*
X356289Y384586D01*
X356164Y384496D01*
X356161Y384492D01*
X356158Y384490D01*
X356060Y384370D01*
X355961Y384251D01*
X355959Y384247D01*
X355957Y384244D01*
X355880Y384102D01*
X354667Y381474D01*
X354644Y381402D01*
X354612Y381335D01*
X354597Y381252D01*
X354571Y381171D01*
X354567Y381096D01*
X354553Y381022D01*
X354558Y380938D01*
X354553Y380853D01*
X354568Y380780D01*
X354572Y380705D01*
X354599Y380624D01*
X354615Y380541D01*
X354647Y380474D01*
X354670Y380403D01*
X354716Y380331D01*
X354752Y380254D01*
X354801Y380197D01*
X354841Y380134D01*
X354902Y380076D01*
X354957Y380011D01*
X355018Y379967D01*
X355072Y379916D01*
X355147Y379875D01*
X355215Y379826D01*
X355285Y379799D01*
X355351Y379762D01*
X355433Y379741D01*
X355512Y379711D01*
X355586Y379702D01*
X355659Y379683D01*
X355819Y379673D01*
X370794Y379673D01*
X394926Y355540D01*
X395005Y355480D01*
X395077Y355412D01*
X395130Y355383D01*
X395178Y355346D01*
X395269Y355306D01*
X395355Y355258D01*
X395414Y355243D01*
X395469Y355219D01*
X395567Y355204D01*
X395663Y355179D01*
X395763Y355173D01*
X395784Y355169D01*
X395796Y355171D01*
X395824Y355169D01*
X396107Y355169D01*
X398338Y354245D01*
X400045Y352538D01*
X400969Y350307D01*
X400969Y347893D01*
X400045Y345662D01*
X398338Y343955D01*
X396107Y343031D01*
X393693Y343031D01*
X391462Y343955D01*
X389755Y345662D01*
X388831Y347893D01*
X388831Y348176D01*
X388819Y348274D01*
X388816Y348373D01*
X388799Y348432D01*
X388791Y348492D01*
X388755Y348584D01*
X388727Y348679D01*
X388697Y348731D01*
X388674Y348787D01*
X388616Y348867D01*
X388566Y348953D01*
X388500Y349028D01*
X388488Y349045D01*
X388478Y349053D01*
X388460Y349074D01*
X387735Y349798D01*
X387638Y349873D01*
X387638Y349874D01*
X387637Y349874D01*
X387626Y349883D01*
X387519Y349972D01*
X387500Y349980D01*
X387484Y349993D01*
X387356Y350048D01*
X387231Y350107D01*
X387211Y350111D01*
X387192Y350119D01*
X387054Y350141D01*
X386918Y350167D01*
X386898Y350166D01*
X386878Y350169D01*
X386739Y350156D01*
X386601Y350147D01*
X386582Y350141D01*
X386562Y350139D01*
X386431Y350092D01*
X386299Y350049D01*
X386281Y350038D01*
X386262Y350031D01*
X386148Y349954D01*
X386030Y349879D01*
X386016Y349864D01*
X385999Y349853D01*
X385907Y349749D01*
X385812Y349647D01*
X385802Y349630D01*
X385789Y349614D01*
X385726Y349491D01*
X385658Y349369D01*
X385653Y349349D01*
X385644Y349331D01*
X385614Y349195D01*
X385579Y349061D01*
X385577Y349033D01*
X385574Y349021D01*
X385575Y349000D01*
X385569Y348900D01*
X385569Y348293D01*
X384645Y346062D01*
X382938Y344355D01*
X380707Y343431D01*
X378293Y343431D01*
X376062Y344355D01*
X374355Y346062D01*
X373431Y348293D01*
X373431Y348576D01*
X373419Y348674D01*
X373416Y348773D01*
X373399Y348832D01*
X373391Y348892D01*
X373355Y348984D01*
X373327Y349079D01*
X373297Y349131D01*
X373274Y349187D01*
X373216Y349267D01*
X373166Y349353D01*
X373100Y349428D01*
X373088Y349445D01*
X373078Y349453D01*
X373060Y349474D01*
X359378Y363156D01*
X359299Y363216D01*
X359227Y363284D01*
X359174Y363313D01*
X359126Y363350D01*
X359035Y363390D01*
X358949Y363438D01*
X358890Y363453D01*
X358835Y363477D01*
X358737Y363492D01*
X358641Y363517D01*
X358541Y363523D01*
X358520Y363527D01*
X358508Y363525D01*
X358480Y363527D01*
X347196Y363527D01*
X347192Y363527D01*
X347188Y363527D01*
X347034Y363507D01*
X346880Y363487D01*
X346877Y363486D01*
X346872Y363485D01*
X346728Y363427D01*
X346585Y363370D01*
X346581Y363368D01*
X346577Y363366D01*
X346453Y363275D01*
X346327Y363184D01*
X346325Y363180D01*
X346321Y363178D01*
X346225Y363060D01*
X346125Y362939D01*
X346123Y362935D01*
X346120Y362932D01*
X346044Y362790D01*
X320474Y307390D01*
X320452Y307318D01*
X320420Y307251D01*
X320404Y307168D01*
X320378Y307087D01*
X320374Y307012D01*
X320360Y306938D01*
X320365Y306854D01*
X320361Y306769D01*
X320375Y306696D01*
X320380Y306621D01*
X320406Y306540D01*
X320422Y306457D01*
X320455Y306390D01*
X320478Y306319D01*
X320523Y306247D01*
X320560Y306170D01*
X320608Y306113D01*
X320648Y306050D01*
X320710Y305992D01*
X320764Y305927D01*
X320825Y305883D01*
X320880Y305832D01*
X320954Y305791D01*
X321023Y305742D01*
X321093Y305715D01*
X321158Y305678D01*
X321240Y305657D01*
X321319Y305627D01*
X321394Y305618D01*
X321466Y305599D01*
X321627Y305589D01*
X340694Y305589D01*
X340792Y305601D01*
X340891Y305604D01*
X340949Y305621D01*
X341009Y305629D01*
X341101Y305665D01*
X341196Y305693D01*
X341248Y305723D01*
X341305Y305746D01*
X341385Y305804D01*
X341470Y305854D01*
X341546Y305920D01*
X341562Y305932D01*
X341570Y305942D01*
X341591Y305960D01*
X344244Y308614D01*
X347979Y310161D01*
X352021Y310161D01*
X355756Y308614D01*
X358614Y305756D01*
X358827Y305240D01*
X358896Y305119D01*
X358961Y304996D01*
X358975Y304981D01*
X358985Y304964D01*
X359082Y304864D01*
X359175Y304761D01*
X359192Y304750D01*
X359206Y304735D01*
X359324Y304663D01*
X359441Y304586D01*
X359460Y304580D01*
X359477Y304569D01*
X359610Y304528D01*
X359742Y304483D01*
X359762Y304482D01*
X359781Y304476D01*
X359920Y304469D01*
X360059Y304458D01*
X360079Y304461D01*
X360099Y304460D01*
X360235Y304489D01*
X360372Y304512D01*
X360390Y304521D01*
X360410Y304525D01*
X360536Y304586D01*
X360662Y304643D01*
X360678Y304656D01*
X360696Y304664D01*
X360802Y304755D01*
X360911Y304842D01*
X360923Y304858D01*
X360938Y304871D01*
X361018Y304984D01*
X361102Y305096D01*
X361114Y305121D01*
X361121Y305131D01*
X361128Y305150D01*
X361173Y305240D01*
X361386Y305756D01*
X364244Y308614D01*
X367979Y310161D01*
X372021Y310161D01*
X375756Y308614D01*
X378614Y305756D01*
X379123Y304526D01*
X379167Y304448D01*
X379203Y304366D01*
X379246Y304311D01*
X379281Y304250D01*
X379343Y304186D01*
X379398Y304115D01*
X379453Y304072D01*
X379502Y304022D01*
X379578Y303975D01*
X379649Y303920D01*
X379713Y303892D01*
X379773Y303855D01*
X379859Y303829D01*
X379941Y303793D01*
X380010Y303782D01*
X380077Y303762D01*
X380166Y303757D01*
X380255Y303743D01*
X380325Y303750D01*
X380395Y303747D01*
X380482Y303765D01*
X380571Y303773D01*
X380637Y303797D01*
X380706Y303811D01*
X380787Y303850D01*
X380871Y303880D01*
X380929Y303920D01*
X380992Y303951D01*
X381060Y304009D01*
X381134Y304059D01*
X381180Y304111D01*
X381234Y304157D01*
X381285Y304230D01*
X381345Y304297D01*
X381408Y304405D01*
X381417Y304417D01*
X381419Y304423D01*
X381427Y304436D01*
X381744Y305059D01*
X382637Y306288D01*
X383712Y307363D01*
X384941Y308256D01*
X386295Y308946D01*
X387740Y309415D01*
X388001Y309456D01*
X388001Y300730D01*
X388016Y300612D01*
X388023Y300493D01*
X388035Y300455D01*
X388041Y300415D01*
X388084Y300304D01*
X388121Y300191D01*
X388143Y300157D01*
X388158Y300119D01*
X388227Y300023D01*
X388238Y300006D01*
X388224Y299982D01*
X388199Y299950D01*
X388148Y299843D01*
X388090Y299738D01*
X388080Y299699D01*
X388063Y299663D01*
X388041Y299546D01*
X388011Y299430D01*
X388007Y299370D01*
X388003Y299350D01*
X388005Y299330D01*
X388001Y299270D01*
X388001Y290544D01*
X387740Y290585D01*
X386295Y291054D01*
X384941Y291744D01*
X383712Y292637D01*
X382637Y293712D01*
X381744Y294941D01*
X381427Y295564D01*
X381376Y295638D01*
X381334Y295717D01*
X381287Y295769D01*
X381248Y295827D01*
X381181Y295887D01*
X381121Y295953D01*
X381062Y295991D01*
X381009Y296038D01*
X380930Y296078D01*
X380855Y296128D01*
X380788Y296150D01*
X380726Y296182D01*
X380639Y296202D01*
X380554Y296231D01*
X380484Y296236D01*
X380416Y296252D01*
X380326Y296249D01*
X380237Y296256D01*
X380168Y296244D01*
X380098Y296242D01*
X380012Y296217D01*
X379924Y296202D01*
X379860Y296173D01*
X379792Y296153D01*
X379715Y296108D01*
X379634Y296071D01*
X379579Y296027D01*
X379519Y295992D01*
X379455Y295928D01*
X379385Y295872D01*
X379343Y295816D01*
X379293Y295767D01*
X379248Y295690D01*
X379194Y295618D01*
X379139Y295506D01*
X379131Y295493D01*
X379129Y295487D01*
X379123Y295474D01*
X378614Y294244D01*
X375756Y291386D01*
X375356Y291221D01*
X375331Y291206D01*
X375303Y291197D01*
X375193Y291128D01*
X375080Y291063D01*
X375059Y291043D01*
X375034Y291027D01*
X374945Y290932D01*
X374852Y290842D01*
X374836Y290817D01*
X374816Y290795D01*
X374753Y290682D01*
X374685Y290571D01*
X374677Y290543D01*
X374662Y290517D01*
X374630Y290391D01*
X374592Y290267D01*
X374590Y290237D01*
X374583Y290209D01*
X374573Y290048D01*
X374573Y274920D01*
X374585Y274822D01*
X374588Y274723D01*
X374605Y274664D01*
X374613Y274604D01*
X374649Y274512D01*
X374677Y274417D01*
X374707Y274365D01*
X374730Y274309D01*
X374788Y274229D01*
X374838Y274143D01*
X374904Y274068D01*
X374916Y274051D01*
X374926Y274043D01*
X374944Y274022D01*
X389864Y259103D01*
X389943Y259042D01*
X390015Y258974D01*
X390068Y258945D01*
X390116Y258908D01*
X390207Y258868D01*
X390293Y258820D01*
X390352Y258805D01*
X390407Y258781D01*
X390505Y258766D01*
X390601Y258741D01*
X390701Y258735D01*
X390722Y258731D01*
X390734Y258733D01*
X390762Y258731D01*
X492938Y258731D01*
X493036Y258743D01*
G37*
G36*
X660315Y121315D02*
X660315Y121315D01*
X660415Y121317D01*
X660488Y121335D01*
X660561Y121344D01*
X660656Y121377D01*
X660753Y121402D01*
X660819Y121436D01*
X660889Y121461D01*
X660974Y121516D01*
X661063Y121562D01*
X661120Y121610D01*
X661182Y121650D01*
X661252Y121722D01*
X661329Y121787D01*
X661373Y121847D01*
X661424Y121901D01*
X661476Y121987D01*
X661536Y122068D01*
X661565Y122136D01*
X661603Y122200D01*
X661634Y122296D01*
X661674Y122388D01*
X661687Y122461D01*
X661710Y122532D01*
X661718Y122632D01*
X661735Y122731D01*
X661732Y122805D01*
X661738Y122879D01*
X661723Y122979D01*
X661717Y123079D01*
X661697Y123150D01*
X661686Y123224D01*
X661649Y123317D01*
X661621Y123414D01*
X661585Y123479D01*
X661557Y123548D01*
X661500Y123630D01*
X661451Y123718D01*
X661386Y123794D01*
X661358Y123834D01*
X661332Y123858D01*
X661292Y123904D01*
X659648Y125548D01*
X657862Y127334D01*
X657731Y127650D01*
X657658Y127782D01*
X657589Y127916D01*
X657574Y127934D01*
X657562Y127955D01*
X657461Y128066D01*
X657363Y128181D01*
X657344Y128195D01*
X657328Y128213D01*
X657204Y128298D01*
X657083Y128388D01*
X657061Y128398D01*
X657041Y128411D01*
X656901Y128467D01*
X656763Y128526D01*
X656739Y128530D01*
X656717Y128539D01*
X656568Y128561D01*
X656420Y128588D01*
X656396Y128587D01*
X656372Y128590D01*
X656222Y128578D01*
X656072Y128570D01*
X656049Y128563D01*
X656025Y128561D01*
X655882Y128515D01*
X655737Y128473D01*
X655716Y128461D01*
X655693Y128454D01*
X655565Y128377D01*
X655433Y128303D01*
X655411Y128284D01*
X655394Y128274D01*
X655361Y128242D01*
X655247Y128145D01*
X654244Y127142D01*
X652574Y127142D01*
X652574Y136286D01*
X652571Y136312D01*
X652573Y136338D01*
X652551Y136485D01*
X652534Y136632D01*
X652526Y136657D01*
X652522Y136683D01*
X652467Y136821D01*
X652417Y136960D01*
X652403Y136983D01*
X652393Y137007D01*
X652308Y137128D01*
X652228Y137253D01*
X652209Y137272D01*
X652194Y137293D01*
X652178Y137307D01*
X652260Y137392D01*
X652274Y137415D01*
X652291Y137434D01*
X652363Y137564D01*
X652439Y137691D01*
X652447Y137716D01*
X652460Y137739D01*
X652500Y137882D01*
X652545Y138023D01*
X652547Y138049D01*
X652555Y138075D01*
X652574Y138319D01*
X652574Y147463D01*
X653693Y147463D01*
X653793Y147475D01*
X653893Y147476D01*
X653965Y147494D01*
X654039Y147503D01*
X654134Y147537D01*
X654231Y147561D01*
X654297Y147595D01*
X654367Y147620D01*
X654452Y147675D01*
X654541Y147721D01*
X654598Y147769D01*
X654660Y147809D01*
X654730Y147882D01*
X654807Y147947D01*
X654851Y148007D01*
X654902Y148060D01*
X654954Y148146D01*
X655014Y148227D01*
X655043Y148295D01*
X655081Y148359D01*
X655112Y148455D01*
X655152Y148547D01*
X655165Y148620D01*
X655187Y148691D01*
X655196Y148791D01*
X655213Y148890D01*
X655209Y148965D01*
X655215Y149039D01*
X655201Y149138D01*
X655195Y149238D01*
X655175Y149310D01*
X655164Y149383D01*
X655127Y149477D01*
X655099Y149573D01*
X655063Y149638D01*
X655035Y149707D01*
X654978Y149790D01*
X654929Y149877D01*
X654864Y149954D01*
X654836Y149993D01*
X654810Y150017D01*
X654770Y150063D01*
X654262Y150571D01*
X654163Y150650D01*
X654069Y150735D01*
X654027Y150758D01*
X653989Y150788D01*
X653875Y150842D01*
X653764Y150903D01*
X653718Y150916D01*
X653674Y150937D01*
X653550Y150964D01*
X653429Y150998D01*
X653368Y151003D01*
X653333Y151010D01*
X653285Y151010D01*
X653185Y151018D01*
X645195Y151018D01*
X638412Y157801D01*
X638392Y157817D01*
X638374Y157837D01*
X638255Y157925D01*
X638139Y158017D01*
X638115Y158028D01*
X638094Y158044D01*
X637958Y158103D01*
X637824Y158166D01*
X637798Y158172D01*
X637774Y158182D01*
X637628Y158208D01*
X637483Y158239D01*
X637457Y158239D01*
X637431Y158244D01*
X637283Y158236D01*
X637135Y158233D01*
X637109Y158227D01*
X637083Y158226D01*
X636941Y158185D01*
X636797Y158148D01*
X636773Y158136D01*
X636748Y158129D01*
X636619Y158057D01*
X636487Y157989D01*
X636467Y157972D01*
X636444Y157959D01*
X636258Y157801D01*
X629537Y151079D01*
X629520Y151059D01*
X629500Y151042D01*
X629412Y150922D01*
X629320Y150806D01*
X629309Y150783D01*
X629293Y150762D01*
X629235Y150625D01*
X629171Y150491D01*
X629166Y150466D01*
X629155Y150442D01*
X629129Y150295D01*
X629098Y150151D01*
X629098Y150125D01*
X629094Y150099D01*
X629101Y149950D01*
X629104Y149802D01*
X629110Y149777D01*
X629112Y149751D01*
X629153Y149608D01*
X629189Y149464D01*
X629201Y149441D01*
X629208Y149416D01*
X629280Y149286D01*
X629348Y149154D01*
X629365Y149134D01*
X629378Y149111D01*
X629537Y148925D01*
X636320Y142142D01*
X636320Y132462D01*
X629475Y125618D01*
X619795Y125618D01*
X612950Y132462D01*
X612950Y142142D01*
X619733Y148925D01*
X619749Y148946D01*
X619769Y148963D01*
X619858Y149082D01*
X619950Y149198D01*
X619961Y149222D01*
X619977Y149243D01*
X620035Y149379D01*
X620099Y149513D01*
X620104Y149539D01*
X620115Y149563D01*
X620141Y149709D01*
X620172Y149854D01*
X620172Y149880D01*
X620176Y149906D01*
X620169Y150055D01*
X620166Y150202D01*
X620160Y150228D01*
X620158Y150254D01*
X620117Y150397D01*
X620081Y150540D01*
X620069Y150564D01*
X620062Y150589D01*
X619989Y150718D01*
X619921Y150850D01*
X619904Y150870D01*
X619892Y150893D01*
X619733Y151079D01*
X612950Y157862D01*
X612950Y167542D01*
X617123Y171715D01*
X617185Y171793D01*
X617255Y171866D01*
X617293Y171930D01*
X617339Y171988D01*
X617382Y172079D01*
X617434Y172165D01*
X617457Y172236D01*
X617488Y172303D01*
X617509Y172401D01*
X617540Y172497D01*
X617546Y172571D01*
X617562Y172644D01*
X617560Y172744D01*
X617568Y172844D01*
X617557Y172918D01*
X617556Y172992D01*
X617531Y173089D01*
X617516Y173189D01*
X617489Y173258D01*
X617471Y173330D01*
X617425Y173420D01*
X617388Y173513D01*
X617345Y173574D01*
X617311Y173640D01*
X617246Y173717D01*
X617189Y173799D01*
X617134Y173849D01*
X617085Y173905D01*
X617004Y173965D01*
X616930Y174032D01*
X616865Y174068D01*
X616805Y174113D01*
X616713Y174152D01*
X616625Y174201D01*
X616553Y174221D01*
X616485Y174251D01*
X616386Y174268D01*
X616290Y174296D01*
X616189Y174304D01*
X616142Y174312D01*
X616106Y174310D01*
X616046Y174315D01*
X615591Y174315D01*
X612983Y175395D01*
X612981Y175396D01*
X612980Y175397D01*
X612818Y175443D01*
X612648Y175491D01*
X612646Y175491D01*
X612644Y175492D01*
X612400Y175511D01*
X588562Y175511D01*
X588436Y175497D01*
X588310Y175490D01*
X588263Y175477D01*
X588215Y175471D01*
X588096Y175429D01*
X587975Y175394D01*
X587933Y175370D01*
X587887Y175354D01*
X587781Y175285D01*
X587671Y175224D01*
X587624Y175184D01*
X587594Y175165D01*
X587561Y175130D01*
X587523Y175098D01*
X584909Y174015D01*
X582091Y174015D01*
X579487Y175094D01*
X577494Y177087D01*
X576415Y179691D01*
X576415Y182509D01*
X577494Y185113D01*
X579487Y187106D01*
X582091Y188185D01*
X584909Y188185D01*
X587529Y187100D01*
X587583Y187056D01*
X587677Y186972D01*
X587720Y186948D01*
X587757Y186918D01*
X587872Y186864D01*
X587982Y186803D01*
X588029Y186790D01*
X588073Y186769D01*
X588196Y186743D01*
X588318Y186708D01*
X588379Y186703D01*
X588413Y186696D01*
X588461Y186697D01*
X588562Y186689D01*
X611638Y186689D01*
X611764Y186703D01*
X611890Y186710D01*
X611937Y186723D01*
X611985Y186729D01*
X612104Y186771D01*
X612225Y186806D01*
X612267Y186830D01*
X612313Y186846D01*
X612419Y186915D01*
X612529Y186976D01*
X612576Y187016D01*
X612606Y187035D01*
X612639Y187070D01*
X612716Y187135D01*
X612987Y187406D01*
X615591Y188485D01*
X618409Y188485D01*
X621013Y187406D01*
X623006Y185413D01*
X624085Y182809D01*
X624085Y179991D01*
X623006Y177387D01*
X622607Y176987D01*
X622544Y176909D01*
X622475Y176837D01*
X622436Y176773D01*
X622390Y176714D01*
X622347Y176624D01*
X622296Y176537D01*
X622273Y176467D01*
X622241Y176399D01*
X622220Y176301D01*
X622189Y176206D01*
X622183Y176131D01*
X622168Y176059D01*
X622170Y175958D01*
X622161Y175858D01*
X622173Y175785D01*
X622174Y175710D01*
X622198Y175613D01*
X622213Y175513D01*
X622241Y175444D01*
X622259Y175372D01*
X622305Y175283D01*
X622342Y175190D01*
X622384Y175129D01*
X622418Y175062D01*
X622484Y174986D01*
X622541Y174903D01*
X622596Y174854D01*
X622644Y174797D01*
X622725Y174737D01*
X622800Y174670D01*
X622865Y174634D01*
X622925Y174590D01*
X623017Y174550D01*
X623105Y174501D01*
X623176Y174481D01*
X623245Y174452D01*
X623343Y174434D01*
X623440Y174407D01*
X623540Y174399D01*
X623588Y174390D01*
X623623Y174392D01*
X623684Y174387D01*
X629475Y174387D01*
X636258Y167604D01*
X636278Y167588D01*
X636295Y167568D01*
X636415Y167480D01*
X636531Y167388D01*
X636554Y167376D01*
X636576Y167361D01*
X636712Y167302D01*
X636846Y167239D01*
X636872Y167233D01*
X636896Y167223D01*
X637042Y167196D01*
X637187Y167165D01*
X637213Y167166D01*
X637239Y167161D01*
X637387Y167169D01*
X637535Y167171D01*
X637561Y167178D01*
X637587Y167179D01*
X637729Y167220D01*
X637873Y167256D01*
X637896Y167268D01*
X637922Y167275D01*
X638051Y167348D01*
X638183Y167416D01*
X638203Y167433D01*
X638226Y167446D01*
X638412Y167604D01*
X645195Y174387D01*
X654875Y174387D01*
X661658Y167604D01*
X661678Y167588D01*
X661695Y167568D01*
X661815Y167480D01*
X661931Y167388D01*
X661954Y167376D01*
X661976Y167361D01*
X662112Y167302D01*
X662246Y167239D01*
X662272Y167233D01*
X662296Y167223D01*
X662442Y167196D01*
X662587Y167165D01*
X662613Y167166D01*
X662639Y167161D01*
X662787Y167169D01*
X662935Y167171D01*
X662961Y167178D01*
X662987Y167179D01*
X663129Y167220D01*
X663273Y167256D01*
X663296Y167268D01*
X663322Y167275D01*
X663451Y167348D01*
X663583Y167416D01*
X663603Y167433D01*
X663626Y167446D01*
X663812Y167604D01*
X670595Y174387D01*
X680275Y174387D01*
X685925Y168737D01*
X686024Y168659D01*
X686118Y168574D01*
X686160Y168551D01*
X686198Y168521D01*
X686312Y168467D01*
X686423Y168405D01*
X686469Y168392D01*
X686513Y168372D01*
X686636Y168345D01*
X686758Y168311D01*
X686819Y168306D01*
X686854Y168298D01*
X686902Y168299D01*
X687002Y168291D01*
X698456Y168291D01*
X698582Y168306D01*
X698708Y168312D01*
X698755Y168325D01*
X698803Y168331D01*
X698922Y168374D01*
X699043Y168409D01*
X699085Y168432D01*
X699131Y168448D01*
X699237Y168517D01*
X699347Y168579D01*
X699394Y168618D01*
X699424Y168637D01*
X699457Y168672D01*
X699534Y168737D01*
X711034Y180238D01*
X713088Y181089D01*
X753054Y181089D01*
X753180Y181103D01*
X753306Y181110D01*
X753352Y181123D01*
X753400Y181129D01*
X753519Y181171D01*
X753641Y181206D01*
X753683Y181230D01*
X753728Y181246D01*
X753835Y181315D01*
X753945Y181376D01*
X753991Y181416D01*
X754021Y181435D01*
X754055Y181470D01*
X754088Y181498D01*
X754095Y181503D01*
X754099Y181508D01*
X754131Y181535D01*
X754165Y181569D01*
X754233Y181654D01*
X754263Y181686D01*
X754270Y181697D01*
X754328Y181762D01*
X754352Y181804D01*
X754382Y181842D01*
X754436Y181956D01*
X754497Y182067D01*
X754510Y182113D01*
X754531Y182157D01*
X754557Y182280D01*
X754592Y182402D01*
X754597Y182463D01*
X754604Y182498D01*
X754603Y182546D01*
X754611Y182646D01*
X754611Y219117D01*
X754603Y219193D01*
X754604Y219269D01*
X754583Y219365D01*
X754571Y219463D01*
X754546Y219535D01*
X754529Y219610D01*
X754487Y219698D01*
X754454Y219791D01*
X754412Y219855D01*
X754380Y219924D01*
X754318Y220001D01*
X754265Y220084D01*
X754210Y220137D01*
X754162Y220197D01*
X754085Y220258D01*
X754014Y220326D01*
X753949Y220365D01*
X753889Y220413D01*
X753756Y220481D01*
X753715Y220505D01*
X753697Y220511D01*
X753671Y220524D01*
X753669Y220525D01*
X751077Y223117D01*
X751057Y223133D01*
X751040Y223153D01*
X750920Y223241D01*
X750804Y223333D01*
X750780Y223344D01*
X750759Y223360D01*
X750623Y223419D01*
X750489Y223482D01*
X750463Y223488D01*
X750439Y223498D01*
X750293Y223524D01*
X750148Y223556D01*
X750122Y223555D01*
X750096Y223560D01*
X749948Y223552D01*
X749800Y223550D01*
X749774Y223543D01*
X749748Y223542D01*
X749606Y223501D01*
X749462Y223465D01*
X749439Y223453D01*
X749413Y223445D01*
X749284Y223373D01*
X749152Y223305D01*
X749132Y223288D01*
X749109Y223275D01*
X748923Y223117D01*
X746331Y220525D01*
X742223Y218823D01*
X737777Y218823D01*
X733669Y220525D01*
X731077Y223117D01*
X731057Y223133D01*
X731040Y223153D01*
X730920Y223241D01*
X730804Y223333D01*
X730780Y223344D01*
X730759Y223360D01*
X730623Y223419D01*
X730489Y223482D01*
X730463Y223488D01*
X730439Y223498D01*
X730293Y223524D01*
X730148Y223556D01*
X730122Y223555D01*
X730096Y223560D01*
X729948Y223552D01*
X729800Y223550D01*
X729774Y223543D01*
X729748Y223542D01*
X729606Y223501D01*
X729462Y223465D01*
X729439Y223453D01*
X729413Y223445D01*
X729284Y223373D01*
X729152Y223305D01*
X729132Y223288D01*
X729109Y223275D01*
X728923Y223117D01*
X726331Y220525D01*
X722223Y218823D01*
X717777Y218823D01*
X716493Y219355D01*
X716445Y219369D01*
X716399Y219390D01*
X716278Y219416D01*
X716158Y219451D01*
X716108Y219453D01*
X716058Y219464D01*
X715934Y219462D01*
X715810Y219468D01*
X715760Y219459D01*
X715710Y219458D01*
X715589Y219427D01*
X715467Y219405D01*
X715421Y219385D01*
X715372Y219373D01*
X715261Y219316D01*
X715147Y219266D01*
X715107Y219236D01*
X715062Y219213D01*
X714967Y219132D01*
X714868Y219058D01*
X714835Y219020D01*
X714797Y218987D01*
X714723Y218887D01*
X714642Y218792D01*
X714620Y218747D01*
X714590Y218707D01*
X714540Y218593D01*
X714484Y218482D01*
X714472Y218433D01*
X714452Y218387D01*
X714430Y218264D01*
X714400Y218144D01*
X714399Y218094D01*
X714390Y218044D01*
X714396Y217920D01*
X714395Y217795D01*
X714405Y217746D01*
X714408Y217696D01*
X714442Y217576D01*
X714469Y217455D01*
X714490Y217409D01*
X714504Y217361D01*
X714565Y217252D01*
X714619Y217140D01*
X714650Y217101D01*
X714675Y217057D01*
X714833Y216871D01*
X718773Y212931D01*
X718872Y212852D01*
X718966Y212768D01*
X719008Y212744D01*
X719046Y212714D01*
X719160Y212660D01*
X719271Y212599D01*
X719317Y212586D01*
X719361Y212565D01*
X719484Y212539D01*
X719606Y212504D01*
X719667Y212499D01*
X719702Y212492D01*
X719750Y212493D01*
X719799Y212489D01*
X722413Y211406D01*
X724406Y209413D01*
X725485Y206809D01*
X725485Y203991D01*
X724406Y201387D01*
X722413Y199394D01*
X719809Y198315D01*
X716991Y198315D01*
X714387Y199394D01*
X712394Y201387D01*
X711309Y204006D01*
X711301Y204076D01*
X711294Y204202D01*
X711281Y204248D01*
X711275Y204296D01*
X711233Y204415D01*
X711198Y204537D01*
X711174Y204579D01*
X711158Y204624D01*
X711089Y204731D01*
X711028Y204841D01*
X710988Y204887D01*
X710969Y204917D01*
X710934Y204951D01*
X710869Y205027D01*
X692731Y223165D01*
X692632Y223244D01*
X692538Y223328D01*
X692496Y223352D01*
X692458Y223382D01*
X692344Y223436D01*
X692233Y223497D01*
X692187Y223510D01*
X692143Y223531D01*
X692020Y223557D01*
X691898Y223592D01*
X691837Y223597D01*
X691802Y223604D01*
X691754Y223603D01*
X691654Y223611D01*
X684862Y223611D01*
X684736Y223597D01*
X684610Y223590D01*
X684563Y223577D01*
X684515Y223571D01*
X684396Y223529D01*
X684275Y223494D01*
X684233Y223470D01*
X684187Y223454D01*
X684081Y223385D01*
X683971Y223324D01*
X683924Y223284D01*
X683894Y223265D01*
X683861Y223230D01*
X683823Y223198D01*
X681209Y222115D01*
X678391Y222115D01*
X675787Y223194D01*
X673794Y225187D01*
X672715Y227791D01*
X672715Y230609D01*
X673794Y233213D01*
X674592Y234011D01*
X674654Y234090D01*
X674724Y234162D01*
X674762Y234226D01*
X674808Y234284D01*
X674851Y234375D01*
X674903Y234461D01*
X674925Y234532D01*
X674957Y234599D01*
X674978Y234697D01*
X675009Y234793D01*
X675015Y234867D01*
X675031Y234940D01*
X675029Y235040D01*
X675037Y235140D01*
X675026Y235214D01*
X675025Y235288D01*
X675000Y235385D01*
X674985Y235485D01*
X674958Y235554D01*
X674940Y235626D01*
X674894Y235715D01*
X674856Y235809D01*
X674814Y235870D01*
X674780Y235936D01*
X674715Y236012D01*
X674658Y236095D01*
X674602Y236145D01*
X674554Y236201D01*
X674473Y236261D01*
X674399Y236328D01*
X674334Y236364D01*
X674274Y236409D01*
X674182Y236448D01*
X674094Y236497D01*
X674022Y236517D01*
X673954Y236547D01*
X673855Y236564D01*
X673758Y236592D01*
X673658Y236600D01*
X673611Y236608D01*
X673575Y236606D01*
X673515Y236611D01*
X662688Y236611D01*
X660634Y237462D01*
X655531Y242565D01*
X655432Y242644D01*
X655338Y242728D01*
X655296Y242752D01*
X655258Y242782D01*
X655144Y242836D01*
X655033Y242897D01*
X654987Y242910D01*
X654943Y242931D01*
X654820Y242957D01*
X654698Y242992D01*
X654637Y242997D01*
X654602Y243004D01*
X654554Y243003D01*
X654454Y243011D01*
X616088Y243011D01*
X614034Y243862D01*
X612248Y245648D01*
X612248Y245649D01*
X608167Y249729D01*
X608067Y249809D01*
X607972Y249894D01*
X607931Y249917D01*
X607894Y249946D01*
X607778Y250001D01*
X607666Y250062D01*
X607621Y250075D01*
X607579Y250095D01*
X607454Y250122D01*
X607331Y250156D01*
X607272Y250161D01*
X607238Y250168D01*
X607190Y250168D01*
X607087Y250176D01*
X499718Y249986D01*
X499594Y249972D01*
X499469Y249965D01*
X499421Y249951D01*
X499372Y249946D01*
X499254Y249903D01*
X499134Y249869D01*
X499091Y249844D01*
X499044Y249827D01*
X498939Y249760D01*
X498830Y249698D01*
X498782Y249658D01*
X498751Y249638D01*
X498718Y249604D01*
X498644Y249540D01*
X490866Y241762D01*
X488812Y240911D01*
X457688Y240911D01*
X455634Y241762D01*
X449731Y247665D01*
X449632Y247744D01*
X449538Y247828D01*
X449496Y247852D01*
X449458Y247882D01*
X449344Y247936D01*
X449233Y247997D01*
X449187Y248010D01*
X449143Y248031D01*
X449020Y248057D01*
X448898Y248092D01*
X448837Y248097D01*
X448802Y248104D01*
X448754Y248103D01*
X448654Y248111D01*
X398785Y248111D01*
X398735Y248106D01*
X398684Y248108D01*
X398562Y248086D01*
X398438Y248071D01*
X398391Y248054D01*
X398341Y248045D01*
X398227Y247996D01*
X398110Y247954D01*
X398068Y247927D01*
X398022Y247907D01*
X397922Y247832D01*
X397818Y247765D01*
X397783Y247729D01*
X397742Y247699D01*
X397662Y247604D01*
X397575Y247514D01*
X397549Y247471D01*
X397517Y247433D01*
X397460Y247322D01*
X397396Y247215D01*
X397381Y247167D01*
X397358Y247122D01*
X397328Y247002D01*
X397290Y246883D01*
X397286Y246833D01*
X397274Y246784D01*
X397272Y246660D01*
X397262Y246536D01*
X397270Y246486D01*
X397269Y246436D01*
X397296Y246314D01*
X397314Y246191D01*
X397333Y246144D01*
X397343Y246095D01*
X397397Y245983D01*
X397443Y245867D01*
X397471Y245826D01*
X397493Y245780D01*
X397571Y245683D01*
X397642Y245581D01*
X397679Y245547D01*
X397710Y245508D01*
X397808Y245431D01*
X397900Y245348D01*
X397945Y245323D01*
X397984Y245292D01*
X398202Y245181D01*
X400313Y244306D01*
X402306Y242313D01*
X403385Y239709D01*
X403385Y236891D01*
X402306Y234287D01*
X402235Y234216D01*
X402156Y234117D01*
X402072Y234023D01*
X402048Y233980D01*
X402018Y233943D01*
X401964Y233828D01*
X401903Y233718D01*
X401890Y233671D01*
X401869Y233627D01*
X401843Y233504D01*
X401808Y233382D01*
X401803Y233321D01*
X401796Y233287D01*
X401797Y233239D01*
X401789Y233138D01*
X401789Y224988D01*
X400938Y222934D01*
X387119Y209115D01*
X387071Y209055D01*
X387017Y209002D01*
X386963Y208919D01*
X386902Y208842D01*
X386870Y208773D01*
X386828Y208709D01*
X386795Y208616D01*
X386753Y208527D01*
X386737Y208453D01*
X386712Y208380D01*
X386701Y208282D01*
X386680Y208186D01*
X386681Y208110D01*
X386673Y208034D01*
X386684Y207936D01*
X386686Y207838D01*
X386705Y207764D01*
X386714Y207688D01*
X386759Y207546D01*
X386771Y207500D01*
X386780Y207483D01*
X386789Y207455D01*
X387885Y204809D01*
X387885Y201991D01*
X386806Y199387D01*
X384813Y197394D01*
X382209Y196315D01*
X379391Y196315D01*
X376787Y197394D01*
X374794Y199387D01*
X373715Y201991D01*
X373715Y204809D01*
X374800Y207429D01*
X374844Y207483D01*
X374928Y207577D01*
X374952Y207620D01*
X374982Y207657D01*
X375036Y207772D01*
X375097Y207882D01*
X375110Y207929D01*
X375131Y207973D01*
X375157Y208096D01*
X375192Y208218D01*
X375197Y208279D01*
X375204Y208313D01*
X375203Y208361D01*
X375211Y208462D01*
X375211Y211812D01*
X376062Y213866D01*
X378458Y216261D01*
X378551Y216379D01*
X378648Y216494D01*
X378659Y216516D01*
X378674Y216534D01*
X378739Y216671D01*
X378807Y216804D01*
X378813Y216828D01*
X378823Y216850D01*
X378855Y216997D01*
X378891Y217142D01*
X378892Y217167D01*
X378897Y217190D01*
X378894Y217340D01*
X378896Y217491D01*
X378891Y217515D01*
X378891Y217539D01*
X378854Y217684D01*
X378822Y217831D01*
X378812Y217853D01*
X378806Y217877D01*
X378737Y218010D01*
X378672Y218146D01*
X378657Y218165D01*
X378646Y218187D01*
X378549Y218301D01*
X378455Y218419D01*
X378436Y218434D01*
X378420Y218452D01*
X378300Y218541D01*
X378181Y218634D01*
X378155Y218648D01*
X378140Y218659D01*
X378097Y218678D01*
X377964Y218746D01*
X373669Y220525D01*
X371077Y223117D01*
X371057Y223133D01*
X371040Y223153D01*
X370920Y223241D01*
X370804Y223333D01*
X370780Y223344D01*
X370759Y223360D01*
X370623Y223419D01*
X370489Y223482D01*
X370463Y223488D01*
X370439Y223498D01*
X370293Y223524D01*
X370148Y223556D01*
X370122Y223555D01*
X370096Y223560D01*
X369948Y223552D01*
X369800Y223550D01*
X369774Y223543D01*
X369748Y223542D01*
X369606Y223501D01*
X369462Y223465D01*
X369439Y223453D01*
X369413Y223445D01*
X369284Y223373D01*
X369152Y223305D01*
X369132Y223288D01*
X369109Y223275D01*
X368923Y223117D01*
X366331Y220525D01*
X362223Y218823D01*
X357777Y218823D01*
X353669Y220525D01*
X351077Y223117D01*
X351057Y223133D01*
X351040Y223153D01*
X350920Y223241D01*
X350804Y223333D01*
X350780Y223344D01*
X350759Y223360D01*
X350623Y223419D01*
X350489Y223482D01*
X350463Y223488D01*
X350439Y223498D01*
X350293Y223524D01*
X350148Y223556D01*
X350122Y223555D01*
X350096Y223560D01*
X349948Y223552D01*
X349800Y223550D01*
X349774Y223543D01*
X349748Y223542D01*
X349606Y223501D01*
X349462Y223465D01*
X349439Y223453D01*
X349413Y223445D01*
X349284Y223373D01*
X349152Y223305D01*
X349132Y223288D01*
X349109Y223275D01*
X348923Y223117D01*
X346316Y220510D01*
X346291Y220500D01*
X346211Y220444D01*
X346125Y220396D01*
X346068Y220345D01*
X346005Y220301D01*
X345939Y220228D01*
X345866Y220162D01*
X345823Y220099D01*
X345772Y220042D01*
X345724Y219956D01*
X345668Y219875D01*
X345640Y219804D01*
X345603Y219737D01*
X345576Y219643D01*
X345540Y219551D01*
X345529Y219475D01*
X345508Y219402D01*
X345496Y219253D01*
X345489Y219206D01*
X345491Y219187D01*
X345489Y219158D01*
X345489Y184746D01*
X345503Y184620D01*
X345510Y184494D01*
X345523Y184448D01*
X345529Y184400D01*
X345571Y184281D01*
X345606Y184159D01*
X345630Y184117D01*
X345646Y184072D01*
X345715Y183965D01*
X345776Y183855D01*
X345816Y183809D01*
X345835Y183779D01*
X345870Y183745D01*
X345935Y183669D01*
X348769Y180835D01*
X348868Y180756D01*
X348962Y180672D01*
X349004Y180648D01*
X349042Y180618D01*
X349156Y180564D01*
X349267Y180503D01*
X349313Y180490D01*
X349357Y180469D01*
X349480Y180443D01*
X349602Y180408D01*
X349663Y180403D01*
X349698Y180396D01*
X349746Y180397D01*
X349846Y180389D01*
X383912Y180389D01*
X385966Y179538D01*
X396775Y168729D01*
X396874Y168650D01*
X396968Y168565D01*
X397010Y168542D01*
X397048Y168512D01*
X397162Y168458D01*
X397273Y168397D01*
X397319Y168384D01*
X397363Y168363D01*
X397487Y168337D01*
X397608Y168302D01*
X397669Y168297D01*
X397704Y168290D01*
X397752Y168291D01*
X397852Y168282D01*
X413021Y168282D01*
X413148Y168297D01*
X413276Y168304D01*
X413321Y168317D01*
X413367Y168322D01*
X413488Y168365D01*
X413610Y168401D01*
X413651Y168424D01*
X413696Y168440D01*
X413803Y168509D01*
X413914Y168572D01*
X413959Y168610D01*
X413988Y168629D01*
X414022Y168664D01*
X414100Y168731D01*
X419720Y174370D01*
X429400Y174387D01*
X436257Y167554D01*
X436273Y157874D01*
X429502Y151079D01*
X429486Y151059D01*
X429466Y151042D01*
X429378Y150922D01*
X429286Y150806D01*
X429275Y150782D01*
X429260Y150761D01*
X429201Y150625D01*
X429138Y150491D01*
X429132Y150465D01*
X429122Y150441D01*
X429096Y150295D01*
X429065Y150150D01*
X429066Y150124D01*
X429061Y150098D01*
X429069Y149950D01*
X429072Y149801D01*
X429078Y149776D01*
X429080Y149750D01*
X429121Y149608D01*
X429157Y149464D01*
X429169Y149440D01*
X429177Y149415D01*
X429249Y149286D01*
X429317Y149154D01*
X429334Y149134D01*
X429347Y149111D01*
X429506Y148925D01*
X436239Y142216D01*
X436260Y142200D01*
X436277Y142180D01*
X436396Y142092D01*
X436512Y142000D01*
X436536Y141988D01*
X436557Y141973D01*
X436694Y141914D01*
X436828Y141851D01*
X436853Y141846D01*
X436878Y141835D01*
X437024Y141809D01*
X437169Y141779D01*
X437195Y141779D01*
X437221Y141774D01*
X437369Y141782D01*
X437517Y141785D01*
X437543Y141792D01*
X437569Y141793D01*
X437711Y141834D01*
X437855Y141871D01*
X437878Y141883D01*
X437903Y141890D01*
X438033Y141963D01*
X438164Y142031D01*
X438184Y142048D01*
X438207Y142061D01*
X438393Y142220D01*
X445164Y149014D01*
X454844Y149031D01*
X461639Y142260D01*
X461660Y142244D01*
X461677Y142224D01*
X461796Y142136D01*
X461912Y142044D01*
X461936Y142033D01*
X461957Y142017D01*
X462094Y141959D01*
X462228Y141896D01*
X462253Y141890D01*
X462277Y141880D01*
X462424Y141854D01*
X462569Y141823D01*
X462595Y141823D01*
X462621Y141819D01*
X462769Y141827D01*
X462917Y141829D01*
X462942Y141836D01*
X462969Y141837D01*
X463111Y141879D01*
X463255Y141915D01*
X463278Y141927D01*
X463303Y141934D01*
X463433Y142007D01*
X463564Y142075D01*
X463584Y142092D01*
X463607Y142105D01*
X463793Y142264D01*
X470503Y148997D01*
X470519Y149017D01*
X470539Y149034D01*
X470627Y149154D01*
X470719Y149270D01*
X470730Y149294D01*
X470745Y149315D01*
X470804Y149451D01*
X470867Y149586D01*
X470873Y149611D01*
X470883Y149635D01*
X470909Y149781D01*
X470940Y149926D01*
X470939Y149953D01*
X470944Y149978D01*
X470936Y150126D01*
X470933Y150275D01*
X470927Y150300D01*
X470925Y150326D01*
X470884Y150469D01*
X470848Y150613D01*
X470836Y150636D01*
X470828Y150661D01*
X470756Y150790D01*
X470688Y150922D01*
X470670Y150942D01*
X470658Y150965D01*
X470499Y151151D01*
X463704Y157922D01*
X463687Y167602D01*
X470520Y174459D01*
X471146Y174460D01*
X471245Y174471D01*
X471344Y174473D01*
X471417Y174491D01*
X471492Y174500D01*
X471586Y174534D01*
X471682Y174558D01*
X471749Y174593D01*
X471820Y174618D01*
X471903Y174672D01*
X471991Y174718D01*
X472049Y174767D01*
X472113Y174808D01*
X472181Y174879D01*
X472257Y174943D01*
X472302Y175004D01*
X472354Y175059D01*
X472405Y175144D01*
X472464Y175224D01*
X472494Y175293D01*
X472533Y175358D01*
X472563Y175453D01*
X472602Y175544D01*
X472615Y175618D01*
X472638Y175690D01*
X472646Y175789D01*
X472664Y175887D01*
X472660Y175962D01*
X472666Y176038D01*
X472651Y176136D01*
X472646Y176235D01*
X472625Y176308D01*
X472613Y176382D01*
X472577Y176474D01*
X472549Y176570D01*
X472512Y176636D01*
X472484Y176706D01*
X472428Y176787D01*
X472379Y176874D01*
X472313Y176952D01*
X472285Y176992D01*
X472259Y177015D01*
X472221Y177060D01*
X470894Y178387D01*
X469815Y180991D01*
X469815Y183809D01*
X470894Y186413D01*
X472887Y188406D01*
X475491Y189485D01*
X478309Y189485D01*
X480929Y188400D01*
X480983Y188356D01*
X481077Y188272D01*
X481120Y188248D01*
X481157Y188218D01*
X481272Y188164D01*
X481382Y188103D01*
X481429Y188090D01*
X481473Y188069D01*
X481596Y188043D01*
X481718Y188008D01*
X481779Y188003D01*
X481813Y187996D01*
X481861Y187997D01*
X481962Y187989D01*
X509438Y187989D01*
X509564Y188003D01*
X509690Y188010D01*
X509737Y188023D01*
X509785Y188029D01*
X509904Y188071D01*
X510025Y188106D01*
X510067Y188130D01*
X510113Y188146D01*
X510219Y188215D01*
X510329Y188276D01*
X510376Y188316D01*
X510406Y188335D01*
X510439Y188370D01*
X510516Y188435D01*
X510787Y188706D01*
X513391Y189785D01*
X516209Y189785D01*
X518813Y188706D01*
X520806Y186713D01*
X521885Y184109D01*
X521885Y181291D01*
X520806Y178687D01*
X518813Y176694D01*
X516209Y175615D01*
X513391Y175615D01*
X510783Y176695D01*
X510781Y176696D01*
X510780Y176697D01*
X510618Y176743D01*
X510448Y176791D01*
X510446Y176791D01*
X510444Y176792D01*
X510200Y176811D01*
X481962Y176811D01*
X481836Y176797D01*
X481710Y176790D01*
X481663Y176777D01*
X481615Y176771D01*
X481496Y176729D01*
X481375Y176694D01*
X481333Y176670D01*
X481287Y176654D01*
X481181Y176585D01*
X481071Y176524D01*
X481024Y176484D01*
X480994Y176465D01*
X480961Y176430D01*
X480884Y176365D01*
X480758Y176238D01*
X480742Y176225D01*
X480627Y176126D01*
X480614Y176108D01*
X480597Y176093D01*
X480510Y175968D01*
X480421Y175846D01*
X480412Y175825D01*
X480399Y175806D01*
X480343Y175665D01*
X480283Y175525D01*
X480279Y175503D01*
X480271Y175482D01*
X480249Y175332D01*
X480222Y175182D01*
X480223Y175159D01*
X480220Y175137D01*
X480233Y174985D01*
X480241Y174834D01*
X480247Y174812D01*
X480249Y174790D01*
X480296Y174645D01*
X480338Y174500D01*
X480349Y174480D01*
X480356Y174458D01*
X480434Y174328D01*
X480509Y174196D01*
X480526Y174175D01*
X480536Y174159D01*
X480568Y174126D01*
X480667Y174010D01*
X487057Y167643D01*
X487073Y157963D01*
X480302Y151168D01*
X480286Y151147D01*
X480266Y151130D01*
X480178Y151011D01*
X480086Y150895D01*
X480075Y150871D01*
X480059Y150850D01*
X480001Y150713D01*
X479938Y150579D01*
X479932Y150554D01*
X479922Y150530D01*
X479896Y150383D01*
X479865Y150239D01*
X479866Y150212D01*
X479861Y150186D01*
X479869Y150039D01*
X479872Y149890D01*
X479878Y149865D01*
X479879Y149838D01*
X479921Y149696D01*
X479957Y149552D01*
X479969Y149529D01*
X479977Y149504D01*
X480049Y149375D01*
X480117Y149243D01*
X480134Y149223D01*
X480147Y149200D01*
X480306Y149014D01*
X487101Y142243D01*
X487118Y132563D01*
X480285Y125706D01*
X473247Y125694D01*
X473149Y125682D01*
X473050Y125681D01*
X472976Y125662D01*
X472901Y125653D01*
X472808Y125620D01*
X472712Y125596D01*
X472644Y125561D01*
X472573Y125535D01*
X472490Y125481D01*
X472402Y125436D01*
X472344Y125387D01*
X472281Y125346D01*
X472212Y125274D01*
X472137Y125210D01*
X472092Y125149D01*
X472039Y125095D01*
X471988Y125010D01*
X471929Y124930D01*
X471899Y124860D01*
X471861Y124795D01*
X471831Y124701D01*
X471791Y124610D01*
X471778Y124535D01*
X471755Y124463D01*
X471747Y124365D01*
X471730Y124267D01*
X471734Y124191D01*
X471728Y124116D01*
X471743Y124018D01*
X471748Y123919D01*
X471769Y123846D01*
X471780Y123771D01*
X471817Y123679D01*
X471844Y123584D01*
X471881Y123518D01*
X471909Y123448D01*
X471966Y123366D01*
X472014Y123280D01*
X472081Y123202D01*
X472109Y123162D01*
X472135Y123139D01*
X472173Y123094D01*
X473517Y121750D01*
X473616Y121671D01*
X473709Y121587D01*
X473752Y121563D01*
X473790Y121533D01*
X473904Y121479D01*
X474014Y121418D01*
X474061Y121405D01*
X474105Y121384D01*
X474228Y121358D01*
X474350Y121323D01*
X474410Y121318D01*
X474445Y121311D01*
X474494Y121312D01*
X474594Y121304D01*
X660215Y121304D01*
X660315Y121315D01*
G37*
G36*
X461436Y114457D02*
X461436Y114457D01*
X461536Y114459D01*
X461608Y114477D01*
X461682Y114486D01*
X461777Y114519D01*
X461874Y114544D01*
X461940Y114578D01*
X462010Y114603D01*
X462095Y114658D01*
X462184Y114704D01*
X462241Y114752D01*
X462303Y114792D01*
X462373Y114864D01*
X462449Y114929D01*
X462494Y114989D01*
X462545Y115043D01*
X462597Y115129D01*
X462656Y115210D01*
X462686Y115278D01*
X462724Y115342D01*
X462755Y115438D01*
X462794Y115530D01*
X462808Y115603D01*
X462830Y115674D01*
X462838Y115774D01*
X462856Y115873D01*
X462852Y115947D01*
X462858Y116021D01*
X462843Y116121D01*
X462838Y116221D01*
X462818Y116292D01*
X462807Y116366D01*
X462770Y116459D01*
X462742Y116556D01*
X462705Y116621D01*
X462678Y116690D01*
X462621Y116772D01*
X462572Y116860D01*
X462506Y116936D01*
X462479Y116976D01*
X462452Y117000D01*
X462413Y117046D01*
X454246Y125213D01*
X454146Y125292D01*
X454051Y125378D01*
X454010Y125400D01*
X453973Y125429D01*
X453858Y125484D01*
X453746Y125545D01*
X453701Y125558D01*
X453658Y125578D01*
X453533Y125605D01*
X453410Y125640D01*
X453352Y125644D01*
X453318Y125652D01*
X453269Y125651D01*
X453167Y125659D01*
X445205Y125645D01*
X438410Y132416D01*
X438390Y132432D01*
X438373Y132452D01*
X438254Y132540D01*
X438137Y132632D01*
X438113Y132643D01*
X438092Y132659D01*
X437956Y132718D01*
X437822Y132781D01*
X437796Y132786D01*
X437772Y132796D01*
X437626Y132822D01*
X437481Y132853D01*
X437454Y132853D01*
X437429Y132858D01*
X437281Y132850D01*
X437132Y132847D01*
X437107Y132840D01*
X437081Y132839D01*
X436938Y132798D01*
X436794Y132761D01*
X436771Y132749D01*
X436746Y132742D01*
X436617Y132669D01*
X436485Y132601D01*
X436465Y132584D01*
X436442Y132571D01*
X436256Y132412D01*
X429485Y125618D01*
X419805Y125601D01*
X412948Y132433D01*
X412934Y140452D01*
X412920Y140576D01*
X412913Y140701D01*
X412900Y140749D01*
X412894Y140798D01*
X412852Y140916D01*
X412817Y141036D01*
X412793Y141079D01*
X412776Y141126D01*
X412708Y141231D01*
X412647Y141340D01*
X412606Y141388D01*
X412586Y141419D01*
X412552Y141452D01*
X412488Y141527D01*
X404450Y149565D01*
X404351Y149644D01*
X404257Y149728D01*
X404215Y149752D01*
X404177Y149782D01*
X404063Y149836D01*
X403952Y149897D01*
X403905Y149910D01*
X403862Y149931D01*
X403738Y149957D01*
X403616Y149992D01*
X403556Y149997D01*
X403521Y150004D01*
X403473Y150003D01*
X403373Y150011D01*
X390888Y150011D01*
X388834Y150862D01*
X378131Y161565D01*
X378032Y161644D01*
X377938Y161728D01*
X377896Y161752D01*
X377858Y161782D01*
X377744Y161836D01*
X377633Y161897D01*
X377587Y161910D01*
X377543Y161931D01*
X377420Y161957D01*
X377298Y161992D01*
X377237Y161997D01*
X377202Y162004D01*
X377154Y162003D01*
X377054Y162011D01*
X343588Y162011D01*
X341534Y162862D01*
X327962Y176434D01*
X327111Y178488D01*
X327111Y214354D01*
X327097Y214480D01*
X327090Y214606D01*
X327077Y214652D01*
X327071Y214700D01*
X327029Y214819D01*
X326994Y214941D01*
X326970Y214983D01*
X326954Y215028D01*
X326885Y215135D01*
X326824Y215245D01*
X326784Y215291D01*
X326765Y215321D01*
X326730Y215355D01*
X326665Y215431D01*
X323685Y218411D01*
X323625Y218459D01*
X323572Y218514D01*
X323489Y218567D01*
X323412Y218628D01*
X323343Y218660D01*
X323279Y218702D01*
X323186Y218735D01*
X323097Y218777D01*
X323022Y218793D01*
X322950Y218818D01*
X322853Y218829D01*
X322756Y218850D01*
X322680Y218849D01*
X322604Y218857D01*
X322506Y218846D01*
X322408Y218844D01*
X322334Y218825D01*
X322316Y218823D01*
X317777Y218823D01*
X313669Y220525D01*
X310525Y223669D01*
X308823Y227777D01*
X308823Y232223D01*
X310525Y236331D01*
X313669Y239475D01*
X317777Y241177D01*
X322223Y241177D01*
X326331Y239475D01*
X328923Y236883D01*
X328943Y236867D01*
X328960Y236847D01*
X329080Y236759D01*
X329196Y236667D01*
X329220Y236656D01*
X329241Y236640D01*
X329377Y236581D01*
X329511Y236518D01*
X329537Y236512D01*
X329561Y236502D01*
X329707Y236476D01*
X329852Y236444D01*
X329878Y236445D01*
X329904Y236440D01*
X330052Y236448D01*
X330200Y236450D01*
X330226Y236457D01*
X330252Y236458D01*
X330394Y236499D01*
X330538Y236535D01*
X330561Y236547D01*
X330587Y236555D01*
X330716Y236627D01*
X330848Y236695D01*
X330868Y236712D01*
X330891Y236725D01*
X331077Y236883D01*
X333669Y239475D01*
X337777Y241177D01*
X342223Y241177D01*
X346331Y239475D01*
X348923Y236883D01*
X348943Y236867D01*
X348960Y236847D01*
X349080Y236759D01*
X349196Y236667D01*
X349220Y236656D01*
X349241Y236640D01*
X349377Y236581D01*
X349511Y236518D01*
X349537Y236512D01*
X349561Y236502D01*
X349707Y236476D01*
X349852Y236444D01*
X349878Y236445D01*
X349904Y236440D01*
X350052Y236448D01*
X350200Y236450D01*
X350226Y236457D01*
X350252Y236458D01*
X350394Y236499D01*
X350538Y236535D01*
X350561Y236547D01*
X350587Y236555D01*
X350716Y236627D01*
X350848Y236695D01*
X350868Y236712D01*
X350891Y236725D01*
X351077Y236883D01*
X353669Y239475D01*
X357777Y241177D01*
X362223Y241177D01*
X366331Y239475D01*
X368923Y236883D01*
X368943Y236867D01*
X368960Y236847D01*
X369080Y236759D01*
X369196Y236667D01*
X369220Y236656D01*
X369241Y236640D01*
X369377Y236581D01*
X369511Y236518D01*
X369537Y236512D01*
X369561Y236502D01*
X369707Y236476D01*
X369852Y236444D01*
X369878Y236445D01*
X369904Y236440D01*
X370052Y236448D01*
X370200Y236450D01*
X370226Y236457D01*
X370252Y236458D01*
X370394Y236499D01*
X370538Y236535D01*
X370561Y236547D01*
X370587Y236555D01*
X370716Y236627D01*
X370848Y236695D01*
X370868Y236712D01*
X370891Y236725D01*
X371077Y236883D01*
X373669Y239475D01*
X377777Y241177D01*
X382223Y241177D01*
X386331Y239475D01*
X386690Y239116D01*
X386808Y239023D01*
X386922Y238926D01*
X386944Y238915D01*
X386963Y238900D01*
X387099Y238835D01*
X387233Y238767D01*
X387256Y238761D01*
X387278Y238751D01*
X387425Y238719D01*
X387571Y238683D01*
X387595Y238683D01*
X387619Y238677D01*
X387769Y238680D01*
X387919Y238678D01*
X387943Y238683D01*
X387967Y238683D01*
X388113Y238720D01*
X388260Y238752D01*
X388282Y238762D01*
X388305Y238768D01*
X388439Y238838D01*
X388575Y238902D01*
X388593Y238917D01*
X388615Y238928D01*
X388730Y239026D01*
X388847Y239119D01*
X388862Y239138D01*
X388880Y239154D01*
X388970Y239275D01*
X389063Y239393D01*
X389076Y239419D01*
X389088Y239434D01*
X389106Y239477D01*
X389174Y239611D01*
X390294Y242313D01*
X392287Y244306D01*
X394398Y245181D01*
X394442Y245205D01*
X394490Y245222D01*
X394594Y245290D01*
X394703Y245350D01*
X394740Y245384D01*
X394782Y245411D01*
X394869Y245501D01*
X394961Y245584D01*
X394990Y245626D01*
X395025Y245662D01*
X395089Y245769D01*
X395159Y245871D01*
X395178Y245918D01*
X395204Y245961D01*
X395241Y246079D01*
X395287Y246195D01*
X395294Y246245D01*
X395310Y246293D01*
X395320Y246417D01*
X395338Y246540D01*
X395334Y246590D01*
X395338Y246640D01*
X395319Y246763D01*
X395309Y246887D01*
X395293Y246935D01*
X395286Y246985D01*
X395240Y247100D01*
X395202Y247219D01*
X395176Y247262D01*
X395157Y247309D01*
X395086Y247411D01*
X395022Y247517D01*
X394987Y247554D01*
X394958Y247595D01*
X394866Y247678D01*
X394779Y247767D01*
X394737Y247795D01*
X394700Y247828D01*
X394591Y247888D01*
X394486Y247956D01*
X394439Y247973D01*
X394395Y247997D01*
X394275Y248031D01*
X394158Y248072D01*
X394108Y248078D01*
X394059Y248092D01*
X393815Y248111D01*
X387688Y248111D01*
X385634Y248962D01*
X385260Y249336D01*
X385160Y249415D01*
X385065Y249501D01*
X385024Y249523D01*
X384987Y249553D01*
X384872Y249607D01*
X384760Y249669D01*
X384715Y249681D01*
X384672Y249701D01*
X384547Y249728D01*
X384424Y249763D01*
X384366Y249768D01*
X384332Y249775D01*
X384283Y249774D01*
X384181Y249782D01*
X294197Y249623D01*
X294066Y249608D01*
X293934Y249600D01*
X293893Y249588D01*
X293851Y249583D01*
X293727Y249538D01*
X293600Y249500D01*
X293563Y249479D01*
X293523Y249465D01*
X293413Y249393D01*
X293298Y249327D01*
X293266Y249298D01*
X293231Y249275D01*
X293139Y249180D01*
X293042Y249090D01*
X293019Y249055D01*
X292989Y249024D01*
X292921Y248910D01*
X292848Y248801D01*
X292832Y248761D01*
X292811Y248725D01*
X292771Y248599D01*
X292724Y248475D01*
X292715Y248423D01*
X292705Y248393D01*
X292701Y248343D01*
X292683Y248234D01*
X281014Y116103D01*
X281017Y116010D01*
X281009Y115917D01*
X281021Y115836D01*
X281024Y115755D01*
X281047Y115664D01*
X281061Y115572D01*
X281091Y115496D01*
X281112Y115417D01*
X281155Y115335D01*
X281190Y115248D01*
X281236Y115181D01*
X281274Y115109D01*
X281335Y115039D01*
X281389Y114962D01*
X281449Y114907D01*
X281503Y114846D01*
X281578Y114791D01*
X281647Y114729D01*
X281719Y114689D01*
X281785Y114641D01*
X281871Y114605D01*
X281953Y114560D01*
X282031Y114538D01*
X282106Y114506D01*
X282198Y114491D01*
X282288Y114465D01*
X282401Y114456D01*
X282450Y114448D01*
X282481Y114450D01*
X282532Y114446D01*
X461336Y114446D01*
X461436Y114457D01*
G37*
G36*
X815952Y114456D02*
X815952Y114456D01*
X816046Y114457D01*
X816124Y114476D01*
X816205Y114486D01*
X816293Y114517D01*
X816384Y114539D01*
X816456Y114576D01*
X816533Y114603D01*
X816612Y114654D01*
X816695Y114696D01*
X816757Y114748D01*
X816826Y114792D01*
X816891Y114860D01*
X816963Y114920D01*
X817011Y114985D01*
X817068Y115043D01*
X817116Y115123D01*
X817172Y115198D01*
X817205Y115272D01*
X817247Y115342D01*
X817275Y115431D01*
X817313Y115517D01*
X817328Y115597D01*
X817353Y115674D01*
X817360Y115767D01*
X817378Y115860D01*
X817377Y115972D01*
X817381Y116021D01*
X817376Y116052D01*
X817376Y116104D01*
X815299Y139399D01*
X815277Y139506D01*
X815264Y139614D01*
X815238Y139696D01*
X815229Y139740D01*
X815212Y139777D01*
X815189Y139847D01*
X814715Y140991D01*
X814715Y143809D01*
X814729Y143842D01*
X814748Y143910D01*
X814776Y143974D01*
X814796Y144077D01*
X814825Y144178D01*
X814828Y144247D01*
X814841Y144316D01*
X814840Y144484D01*
X814842Y144526D01*
X814839Y144540D01*
X814839Y144561D01*
X813675Y157620D01*
X813663Y157677D01*
X813660Y157736D01*
X813628Y157848D01*
X813604Y157961D01*
X813580Y158014D01*
X813563Y158071D01*
X813507Y158172D01*
X813458Y158277D01*
X813422Y158324D01*
X813393Y158375D01*
X813258Y158534D01*
X813244Y158552D01*
X813240Y158556D01*
X813235Y158562D01*
X809527Y162269D01*
X809428Y162348D01*
X809334Y162432D01*
X809292Y162456D01*
X809254Y162486D01*
X809140Y162540D01*
X809029Y162601D01*
X808983Y162614D01*
X808939Y162635D01*
X808816Y162661D01*
X808694Y162696D01*
X808633Y162701D01*
X808598Y162708D01*
X808550Y162707D01*
X808501Y162711D01*
X805887Y163794D01*
X803894Y165787D01*
X802815Y168391D01*
X802815Y171209D01*
X803894Y173813D01*
X805887Y175806D01*
X808491Y176885D01*
X810293Y176885D01*
X810386Y176895D01*
X810480Y176896D01*
X810558Y176915D01*
X810639Y176925D01*
X810727Y176956D01*
X810818Y176978D01*
X810891Y177015D01*
X810967Y177042D01*
X811046Y177093D01*
X811130Y177135D01*
X811192Y177187D01*
X811260Y177231D01*
X811325Y177299D01*
X811397Y177359D01*
X811446Y177424D01*
X811502Y177482D01*
X811550Y177562D01*
X811607Y177637D01*
X811639Y177711D01*
X811681Y177781D01*
X811709Y177870D01*
X811747Y177956D01*
X811762Y178036D01*
X811787Y178113D01*
X811794Y178206D01*
X811812Y178299D01*
X811811Y178411D01*
X811815Y178460D01*
X811813Y178471D01*
X811814Y178474D01*
X811810Y178497D01*
X811810Y178543D01*
X808241Y218578D01*
X808224Y218659D01*
X808217Y218742D01*
X808189Y218829D01*
X808171Y218919D01*
X808136Y218994D01*
X808110Y219073D01*
X808063Y219152D01*
X808024Y219235D01*
X807974Y219301D01*
X807931Y219372D01*
X807867Y219438D01*
X807810Y219510D01*
X807746Y219562D01*
X807688Y219622D01*
X807610Y219672D01*
X807539Y219729D01*
X807464Y219765D01*
X807395Y219810D01*
X807308Y219841D01*
X807225Y219881D01*
X807144Y219899D01*
X807066Y219927D01*
X806975Y219937D01*
X806885Y219957D01*
X806802Y219956D01*
X806720Y219966D01*
X806629Y219955D01*
X806537Y219954D01*
X806456Y219935D01*
X806374Y219925D01*
X806246Y219884D01*
X806198Y219872D01*
X806177Y219861D01*
X806141Y219850D01*
X804609Y219215D01*
X801791Y219215D01*
X799187Y220294D01*
X797194Y222287D01*
X796115Y224891D01*
X796115Y227709D01*
X797200Y230329D01*
X797244Y230383D01*
X797328Y230477D01*
X797352Y230520D01*
X797382Y230557D01*
X797436Y230672D01*
X797497Y230782D01*
X797510Y230829D01*
X797531Y230873D01*
X797557Y230996D01*
X797592Y231118D01*
X797597Y231179D01*
X797604Y231213D01*
X797603Y231261D01*
X797611Y231362D01*
X797611Y239154D01*
X797597Y239280D01*
X797590Y239406D01*
X797577Y239452D01*
X797571Y239500D01*
X797529Y239619D01*
X797494Y239741D01*
X797470Y239783D01*
X797454Y239828D01*
X797385Y239935D01*
X797324Y240045D01*
X797284Y240091D01*
X797265Y240121D01*
X797230Y240155D01*
X797165Y240231D01*
X787351Y250046D01*
X787250Y250125D01*
X787155Y250211D01*
X787114Y250233D01*
X787078Y250262D01*
X786962Y250317D01*
X786850Y250379D01*
X786805Y250391D01*
X786762Y250411D01*
X786638Y250438D01*
X786515Y250473D01*
X786456Y250477D01*
X786422Y250485D01*
X786373Y250484D01*
X786271Y250492D01*
X713495Y250363D01*
X713371Y250349D01*
X713246Y250343D01*
X713199Y250329D01*
X713149Y250323D01*
X713032Y250281D01*
X712911Y250246D01*
X712868Y250222D01*
X712821Y250205D01*
X712717Y250137D01*
X712607Y250076D01*
X712559Y250035D01*
X712529Y250015D01*
X712496Y249981D01*
X712421Y249917D01*
X699966Y237462D01*
X698009Y236652D01*
X697921Y236603D01*
X697829Y236562D01*
X697769Y236518D01*
X697705Y236482D01*
X697630Y236415D01*
X697549Y236354D01*
X697501Y236298D01*
X697446Y236248D01*
X697389Y236165D01*
X697324Y236088D01*
X697290Y236022D01*
X697248Y235962D01*
X697211Y235868D01*
X697165Y235778D01*
X697148Y235706D01*
X697120Y235637D01*
X697106Y235538D01*
X697081Y235440D01*
X697080Y235366D01*
X697070Y235293D01*
X697078Y235192D01*
X697077Y235091D01*
X697092Y235019D01*
X697099Y234945D01*
X697130Y234849D01*
X697151Y234751D01*
X697183Y234684D01*
X697206Y234614D01*
X697258Y234527D01*
X697301Y234436D01*
X697347Y234378D01*
X697385Y234315D01*
X697456Y234242D01*
X697519Y234164D01*
X697577Y234118D01*
X697628Y234065D01*
X697658Y234046D01*
X706871Y224833D01*
X706910Y224802D01*
X706944Y224764D01*
X707046Y224694D01*
X707144Y224616D01*
X707189Y224595D01*
X707231Y224566D01*
X707346Y224521D01*
X707459Y224468D01*
X707508Y224457D01*
X707555Y224438D01*
X707678Y224420D01*
X707799Y224394D01*
X707850Y224395D01*
X707900Y224388D01*
X708024Y224398D01*
X708148Y224400D01*
X708197Y224412D01*
X708247Y224417D01*
X708365Y224455D01*
X708486Y224485D01*
X708531Y224508D01*
X708579Y224524D01*
X708685Y224588D01*
X708796Y224645D01*
X708834Y224677D01*
X708877Y224703D01*
X708966Y224790D01*
X709061Y224871D01*
X709091Y224911D01*
X709127Y224946D01*
X709194Y225051D01*
X709268Y225151D01*
X709288Y225197D01*
X709315Y225239D01*
X709357Y225357D01*
X709406Y225471D01*
X709415Y225520D01*
X709432Y225568D01*
X709446Y225692D01*
X709468Y225814D01*
X709465Y225864D01*
X709471Y225914D01*
X709456Y226038D01*
X709450Y226162D01*
X709436Y226210D01*
X709430Y226260D01*
X709355Y226493D01*
X708823Y227777D01*
X708823Y232223D01*
X710525Y236331D01*
X713669Y239475D01*
X717777Y241177D01*
X722223Y241177D01*
X726331Y239475D01*
X728923Y236883D01*
X728943Y236867D01*
X728960Y236847D01*
X729080Y236759D01*
X729196Y236667D01*
X729220Y236656D01*
X729241Y236640D01*
X729377Y236581D01*
X729511Y236518D01*
X729537Y236512D01*
X729561Y236502D01*
X729707Y236476D01*
X729852Y236444D01*
X729878Y236445D01*
X729904Y236440D01*
X730052Y236448D01*
X730200Y236450D01*
X730226Y236457D01*
X730252Y236458D01*
X730394Y236499D01*
X730538Y236535D01*
X730561Y236547D01*
X730587Y236555D01*
X730716Y236627D01*
X730848Y236695D01*
X730868Y236712D01*
X730891Y236725D01*
X731077Y236883D01*
X733669Y239475D01*
X737777Y241177D01*
X742223Y241177D01*
X746331Y239475D01*
X748923Y236883D01*
X748943Y236867D01*
X748960Y236847D01*
X749080Y236759D01*
X749196Y236667D01*
X749220Y236656D01*
X749241Y236640D01*
X749377Y236581D01*
X749511Y236518D01*
X749537Y236512D01*
X749561Y236502D01*
X749707Y236476D01*
X749852Y236444D01*
X749878Y236445D01*
X749904Y236440D01*
X750052Y236448D01*
X750200Y236450D01*
X750226Y236457D01*
X750252Y236458D01*
X750394Y236499D01*
X750538Y236535D01*
X750561Y236547D01*
X750587Y236555D01*
X750716Y236627D01*
X750848Y236695D01*
X750868Y236712D01*
X750891Y236725D01*
X751077Y236883D01*
X753669Y239475D01*
X757777Y241177D01*
X762223Y241177D01*
X766331Y239475D01*
X768923Y236883D01*
X768943Y236867D01*
X768960Y236847D01*
X769080Y236759D01*
X769196Y236667D01*
X769220Y236656D01*
X769241Y236640D01*
X769377Y236581D01*
X769511Y236518D01*
X769537Y236512D01*
X769561Y236502D01*
X769707Y236476D01*
X769852Y236444D01*
X769878Y236445D01*
X769904Y236440D01*
X770052Y236448D01*
X770200Y236450D01*
X770226Y236457D01*
X770252Y236458D01*
X770394Y236499D01*
X770538Y236535D01*
X770561Y236547D01*
X770587Y236555D01*
X770716Y236627D01*
X770848Y236695D01*
X770868Y236712D01*
X770891Y236725D01*
X771077Y236883D01*
X773669Y239475D01*
X777777Y241177D01*
X782223Y241177D01*
X786331Y239475D01*
X789475Y236331D01*
X791177Y232223D01*
X791177Y227777D01*
X789475Y223669D01*
X786331Y220525D01*
X782223Y218823D01*
X777688Y218823D01*
X777640Y218837D01*
X777564Y218841D01*
X777488Y218854D01*
X777390Y218849D01*
X777292Y218854D01*
X777216Y218840D01*
X777140Y218836D01*
X777046Y218809D01*
X776949Y218791D01*
X776879Y218761D01*
X776805Y218740D01*
X776719Y218692D01*
X776629Y218653D01*
X776568Y218607D01*
X776501Y218570D01*
X776387Y218473D01*
X776350Y218445D01*
X776337Y218430D01*
X776315Y218411D01*
X773535Y215631D01*
X773456Y215532D01*
X773372Y215438D01*
X773348Y215396D01*
X773318Y215358D01*
X773264Y215244D01*
X773203Y215133D01*
X773190Y215087D01*
X773169Y215043D01*
X773143Y214920D01*
X773108Y214798D01*
X773103Y214737D01*
X773096Y214702D01*
X773097Y214654D01*
X773089Y214554D01*
X773089Y175988D01*
X772238Y173934D01*
X770452Y172148D01*
X770451Y172148D01*
X761966Y163662D01*
X759912Y162811D01*
X720146Y162811D01*
X720020Y162797D01*
X719894Y162790D01*
X719848Y162777D01*
X719800Y162771D01*
X719681Y162729D01*
X719559Y162694D01*
X719517Y162670D01*
X719472Y162654D01*
X719365Y162585D01*
X719255Y162524D01*
X719209Y162484D01*
X719179Y162465D01*
X719145Y162430D01*
X719069Y162365D01*
X707466Y150762D01*
X705412Y149911D01*
X696578Y149911D01*
X696453Y149897D01*
X696327Y149890D01*
X696280Y149877D01*
X696232Y149871D01*
X696113Y149829D01*
X695992Y149794D01*
X695950Y149770D01*
X695904Y149754D01*
X695798Y149685D01*
X695688Y149624D01*
X695641Y149584D01*
X695611Y149565D01*
X695578Y149530D01*
X695501Y149465D01*
X687566Y141530D01*
X687487Y141431D01*
X687403Y141337D01*
X687379Y141294D01*
X687349Y141257D01*
X687295Y141142D01*
X687234Y141032D01*
X687221Y140985D01*
X687200Y140941D01*
X687174Y140818D01*
X687139Y140696D01*
X687134Y140636D01*
X687127Y140601D01*
X687128Y140553D01*
X687120Y140452D01*
X687120Y132462D01*
X680275Y125618D01*
X679063Y125618D01*
X678964Y125606D01*
X678863Y125604D01*
X678791Y125586D01*
X678717Y125578D01*
X678623Y125544D01*
X678525Y125519D01*
X678459Y125485D01*
X678389Y125460D01*
X678305Y125406D01*
X678216Y125360D01*
X678159Y125312D01*
X678096Y125271D01*
X678027Y125199D01*
X677950Y125134D01*
X677906Y125074D01*
X677854Y125021D01*
X677803Y124934D01*
X677743Y124854D01*
X677714Y124785D01*
X677675Y124721D01*
X677645Y124626D01*
X677605Y124534D01*
X677592Y124460D01*
X677569Y124390D01*
X677561Y124290D01*
X677543Y124191D01*
X677547Y124116D01*
X677541Y124042D01*
X677556Y123943D01*
X677561Y123843D01*
X677582Y123771D01*
X677593Y123698D01*
X677630Y123604D01*
X677658Y123508D01*
X677694Y123443D01*
X677722Y123374D01*
X677779Y123291D01*
X677828Y123204D01*
X677893Y123127D01*
X677920Y123087D01*
X677947Y123064D01*
X677986Y123017D01*
X679254Y121750D01*
X679353Y121671D01*
X679447Y121587D01*
X679489Y121563D01*
X679527Y121533D01*
X679641Y121479D01*
X679752Y121418D01*
X679798Y121405D01*
X679842Y121384D01*
X679965Y121358D01*
X680087Y121323D01*
X680148Y121318D01*
X680183Y121311D01*
X680231Y121312D01*
X680331Y121304D01*
X768369Y121304D01*
X768495Y121318D01*
X768621Y121325D01*
X768667Y121338D01*
X768715Y121344D01*
X768834Y121386D01*
X768956Y121421D01*
X768998Y121445D01*
X769043Y121461D01*
X769150Y121530D01*
X769260Y121591D01*
X769306Y121631D01*
X769336Y121650D01*
X769370Y121685D01*
X769446Y121750D01*
X780865Y133169D01*
X780937Y133259D01*
X780997Y133322D01*
X781007Y133338D01*
X781028Y133362D01*
X781052Y133404D01*
X781082Y133442D01*
X781129Y133543D01*
X781176Y133621D01*
X781183Y133641D01*
X781197Y133667D01*
X781210Y133713D01*
X781231Y133757D01*
X781253Y133861D01*
X781282Y133953D01*
X781284Y133976D01*
X781292Y134002D01*
X781297Y134063D01*
X781304Y134098D01*
X781303Y134146D01*
X781311Y134246D01*
X781311Y162238D01*
X781297Y162364D01*
X781290Y162490D01*
X781277Y162537D01*
X781271Y162585D01*
X781229Y162704D01*
X781194Y162825D01*
X781170Y162867D01*
X781154Y162913D01*
X781085Y163019D01*
X781024Y163129D01*
X780984Y163176D01*
X780965Y163206D01*
X780930Y163239D01*
X780898Y163277D01*
X779815Y165891D01*
X779815Y168709D01*
X780894Y171313D01*
X782887Y173306D01*
X785491Y174385D01*
X788309Y174385D01*
X790913Y173306D01*
X792906Y171313D01*
X793985Y168709D01*
X793985Y165891D01*
X792900Y163271D01*
X792856Y163217D01*
X792772Y163123D01*
X792748Y163080D01*
X792718Y163043D01*
X792664Y162928D01*
X792603Y162818D01*
X792590Y162771D01*
X792569Y162727D01*
X792543Y162604D01*
X792508Y162482D01*
X792503Y162421D01*
X792496Y162387D01*
X792497Y162339D01*
X792489Y162238D01*
X792489Y130188D01*
X791638Y128134D01*
X780550Y117046D01*
X780487Y116968D01*
X780418Y116895D01*
X780379Y116831D01*
X780333Y116773D01*
X780290Y116682D01*
X780239Y116596D01*
X780216Y116525D01*
X780184Y116458D01*
X780163Y116360D01*
X780132Y116264D01*
X780126Y116190D01*
X780111Y116117D01*
X780113Y116017D01*
X780104Y115917D01*
X780116Y115843D01*
X780117Y115769D01*
X780141Y115672D01*
X780156Y115572D01*
X780184Y115503D01*
X780202Y115431D01*
X780248Y115341D01*
X780285Y115248D01*
X780327Y115187D01*
X780361Y115121D01*
X780427Y115044D01*
X780484Y114962D01*
X780539Y114912D01*
X780587Y114856D01*
X780668Y114796D01*
X780743Y114729D01*
X780808Y114693D01*
X780868Y114648D01*
X780960Y114609D01*
X781048Y114560D01*
X781119Y114540D01*
X781188Y114510D01*
X781286Y114493D01*
X781383Y114465D01*
X781483Y114457D01*
X781531Y114449D01*
X781566Y114451D01*
X781627Y114446D01*
X815858Y114446D01*
X815952Y114456D01*
G37*
G36*
X706436Y258743D02*
X706436Y258743D01*
X706535Y258746D01*
X706594Y258763D01*
X706654Y258771D01*
X706746Y258807D01*
X706841Y258835D01*
X706893Y258865D01*
X706949Y258888D01*
X707029Y258946D01*
X707115Y258996D01*
X707190Y259062D01*
X707207Y259074D01*
X707215Y259084D01*
X707236Y259103D01*
X708260Y260126D01*
X708320Y260205D01*
X708388Y260277D01*
X708417Y260330D01*
X708454Y260378D01*
X708494Y260469D01*
X708542Y260555D01*
X708557Y260614D01*
X708581Y260669D01*
X708596Y260767D01*
X708621Y260863D01*
X708627Y260963D01*
X708631Y260984D01*
X708629Y260996D01*
X708631Y261024D01*
X708631Y261307D01*
X709555Y263538D01*
X711262Y265245D01*
X713493Y266169D01*
X715907Y266169D01*
X718138Y265245D01*
X719845Y263538D01*
X720769Y261307D01*
X720769Y260000D01*
X720784Y259882D01*
X720791Y259763D01*
X720804Y259725D01*
X720809Y259684D01*
X720852Y259574D01*
X720889Y259461D01*
X720911Y259426D01*
X720926Y259389D01*
X720995Y259293D01*
X721059Y259192D01*
X721089Y259164D01*
X721112Y259131D01*
X721204Y259056D01*
X721291Y258974D01*
X721326Y258954D01*
X721357Y258929D01*
X721465Y258878D01*
X721569Y258820D01*
X721609Y258810D01*
X721645Y258793D01*
X721762Y258771D01*
X721877Y258741D01*
X721937Y258737D01*
X721957Y258733D01*
X721978Y258735D01*
X722038Y258731D01*
X725934Y258731D01*
X726004Y258740D01*
X726074Y258738D01*
X726161Y258759D01*
X726250Y258771D01*
X726315Y258796D01*
X726383Y258813D01*
X726462Y258855D01*
X726546Y258888D01*
X726602Y258929D01*
X726664Y258961D01*
X726730Y259022D01*
X726803Y259074D01*
X726848Y259128D01*
X726899Y259175D01*
X726949Y259250D01*
X727006Y259319D01*
X727036Y259383D01*
X727074Y259441D01*
X727103Y259526D01*
X727141Y259607D01*
X727154Y259676D01*
X727177Y259742D01*
X727184Y259831D01*
X727201Y259920D01*
X727197Y259989D01*
X727202Y260059D01*
X727187Y260147D01*
X727181Y260237D01*
X727160Y260303D01*
X727148Y260372D01*
X727111Y260454D01*
X727083Y260539D01*
X727046Y260598D01*
X727017Y260662D01*
X726961Y260732D01*
X726913Y260808D01*
X726862Y260856D01*
X726819Y260911D01*
X726747Y260964D01*
X726682Y261026D01*
X726620Y261060D01*
X726565Y261102D01*
X726469Y261149D01*
X724755Y262862D01*
X723831Y265093D01*
X723831Y267507D01*
X724755Y269738D01*
X726462Y271445D01*
X728693Y272369D01*
X731107Y272369D01*
X733338Y271445D01*
X733538Y271244D01*
X733616Y271184D01*
X733688Y271116D01*
X733741Y271087D01*
X733789Y271050D01*
X733880Y271010D01*
X733967Y270962D01*
X734025Y270947D01*
X734081Y270923D01*
X734179Y270908D01*
X734275Y270883D01*
X734375Y270877D01*
X734395Y270873D01*
X734408Y270875D01*
X734436Y270873D01*
X780894Y270873D01*
X792664Y259103D01*
X792743Y259042D01*
X792815Y258974D01*
X792868Y258945D01*
X792916Y258908D01*
X793007Y258868D01*
X793093Y258820D01*
X793152Y258805D01*
X793207Y258781D01*
X793305Y258766D01*
X793401Y258741D01*
X793501Y258735D01*
X793522Y258731D01*
X793534Y258733D01*
X793562Y258731D01*
X800000Y258731D01*
X800074Y258740D01*
X800149Y258740D01*
X800231Y258760D01*
X800316Y258771D01*
X800385Y258798D01*
X800458Y258816D01*
X800532Y258856D01*
X800611Y258888D01*
X800672Y258932D01*
X800738Y258967D01*
X800800Y259025D01*
X800869Y259074D01*
X800916Y259132D01*
X800971Y259183D01*
X801017Y259254D01*
X801071Y259319D01*
X801103Y259387D01*
X801144Y259450D01*
X801171Y259530D01*
X801207Y259607D01*
X801221Y259681D01*
X801245Y259752D01*
X801251Y259836D01*
X801267Y259920D01*
X801262Y259994D01*
X801267Y260069D01*
X801252Y260152D01*
X801247Y260237D01*
X801224Y260308D01*
X801211Y260382D01*
X801152Y260532D01*
X778490Y309633D01*
X778467Y309671D01*
X778450Y309712D01*
X778383Y309805D01*
X778322Y309903D01*
X778290Y309934D01*
X778264Y309970D01*
X778175Y310043D01*
X778092Y310122D01*
X778053Y310144D01*
X778019Y310172D01*
X777915Y310221D01*
X777814Y310278D01*
X777771Y310289D01*
X777731Y310308D01*
X777618Y310329D01*
X777507Y310359D01*
X777462Y310359D01*
X777418Y310368D01*
X777304Y310361D01*
X777189Y310362D01*
X777146Y310351D01*
X777101Y310348D01*
X776992Y310313D01*
X776880Y310285D01*
X776841Y310264D01*
X776799Y310250D01*
X776702Y310189D01*
X776600Y310134D01*
X776568Y310104D01*
X776530Y310080D01*
X776451Y309996D01*
X776367Y309918D01*
X776343Y309881D01*
X776312Y309848D01*
X776256Y309747D01*
X776194Y309651D01*
X776180Y309609D01*
X776158Y309570D01*
X776130Y309458D01*
X776093Y309349D01*
X776090Y309305D01*
X776079Y309262D01*
X776069Y309101D01*
X776069Y307993D01*
X775145Y305762D01*
X773438Y304055D01*
X771207Y303131D01*
X768793Y303131D01*
X766562Y304055D01*
X764855Y305762D01*
X763931Y307993D01*
X763931Y308276D01*
X763919Y308374D01*
X763916Y308473D01*
X763899Y308532D01*
X763891Y308592D01*
X763855Y308684D01*
X763827Y308779D01*
X763797Y308831D01*
X763774Y308887D01*
X763716Y308967D01*
X763666Y309053D01*
X763600Y309128D01*
X763588Y309145D01*
X763578Y309153D01*
X763560Y309174D01*
X754278Y318456D01*
X754199Y318516D01*
X754127Y318584D01*
X754074Y318613D01*
X754026Y318650D01*
X753935Y318690D01*
X753849Y318738D01*
X753790Y318753D01*
X753735Y318777D01*
X753637Y318792D01*
X753541Y318817D01*
X753441Y318823D01*
X753420Y318827D01*
X753408Y318825D01*
X753380Y318827D01*
X721936Y318827D01*
X721837Y318815D01*
X721738Y318812D01*
X721680Y318795D01*
X721620Y318787D01*
X721528Y318751D01*
X721433Y318723D01*
X721381Y318693D01*
X721324Y318670D01*
X721244Y318612D01*
X721159Y318562D01*
X721083Y318496D01*
X721067Y318484D01*
X721059Y318474D01*
X721038Y318456D01*
X720838Y318255D01*
X718607Y317331D01*
X716193Y317331D01*
X713962Y318255D01*
X712255Y319962D01*
X711331Y322193D01*
X711331Y324607D01*
X711648Y325372D01*
X711661Y325420D01*
X711682Y325465D01*
X711703Y325573D01*
X711732Y325679D01*
X711733Y325729D01*
X711742Y325778D01*
X711735Y325887D01*
X711737Y325997D01*
X711726Y326045D01*
X711723Y326095D01*
X711689Y326199D01*
X711663Y326306D01*
X711640Y326350D01*
X711624Y326397D01*
X711566Y326490D01*
X711514Y326587D01*
X711481Y326624D01*
X711454Y326666D01*
X711374Y326741D01*
X711300Y326823D01*
X711259Y326850D01*
X711223Y326884D01*
X711127Y326937D01*
X711035Y326997D01*
X710988Y327014D01*
X710944Y327038D01*
X710838Y327065D01*
X710734Y327101D01*
X710684Y327105D01*
X710636Y327117D01*
X710476Y327127D01*
X689945Y327127D01*
X689896Y327121D01*
X689846Y327123D01*
X689739Y327101D01*
X689630Y327087D01*
X689584Y327069D01*
X689535Y327059D01*
X689436Y327011D01*
X689334Y326970D01*
X689294Y326941D01*
X689249Y326919D01*
X689165Y326848D01*
X689077Y326784D01*
X689045Y326745D01*
X689007Y326713D01*
X688944Y326623D01*
X688874Y326539D01*
X688853Y326494D01*
X688824Y326453D01*
X688785Y326350D01*
X688738Y326251D01*
X688729Y326202D01*
X688711Y326156D01*
X688699Y326046D01*
X688679Y325939D01*
X688682Y325889D01*
X688676Y325840D01*
X688692Y325731D01*
X688698Y325621D01*
X688714Y325574D01*
X688721Y325525D01*
X688773Y325372D01*
X690161Y322021D01*
X690161Y317979D01*
X688614Y314244D01*
X685756Y311386D01*
X685240Y311173D01*
X685119Y311104D01*
X684996Y311039D01*
X684981Y311025D01*
X684964Y311015D01*
X684864Y310918D01*
X684761Y310825D01*
X684750Y310808D01*
X684735Y310794D01*
X684663Y310676D01*
X684586Y310559D01*
X684580Y310540D01*
X684569Y310523D01*
X684528Y310390D01*
X684483Y310258D01*
X684482Y310238D01*
X684476Y310219D01*
X684469Y310080D01*
X684458Y309941D01*
X684461Y309921D01*
X684460Y309901D01*
X684489Y309765D01*
X684512Y309628D01*
X684521Y309610D01*
X684525Y309590D01*
X684586Y309464D01*
X684643Y309338D01*
X684656Y309322D01*
X684664Y309304D01*
X684755Y309198D01*
X684842Y309089D01*
X684858Y309077D01*
X684871Y309062D01*
X684985Y308982D01*
X685096Y308898D01*
X685121Y308886D01*
X685131Y308879D01*
X685150Y308872D01*
X685240Y308827D01*
X685756Y308614D01*
X688614Y305756D01*
X690161Y302021D01*
X690161Y297979D01*
X688614Y294244D01*
X685756Y291386D01*
X685240Y291173D01*
X685119Y291104D01*
X684996Y291039D01*
X684981Y291025D01*
X684964Y291015D01*
X684864Y290918D01*
X684761Y290825D01*
X684750Y290808D01*
X684735Y290794D01*
X684663Y290676D01*
X684586Y290559D01*
X684580Y290540D01*
X684569Y290523D01*
X684528Y290389D01*
X684483Y290258D01*
X684482Y290238D01*
X684476Y290219D01*
X684469Y290080D01*
X684458Y289941D01*
X684461Y289921D01*
X684460Y289901D01*
X684489Y289765D01*
X684512Y289628D01*
X684521Y289610D01*
X684525Y289590D01*
X684586Y289464D01*
X684643Y289338D01*
X684656Y289322D01*
X684664Y289304D01*
X684755Y289198D01*
X684842Y289089D01*
X684858Y289077D01*
X684871Y289062D01*
X684985Y288982D01*
X685096Y288898D01*
X685121Y288886D01*
X685131Y288879D01*
X685150Y288872D01*
X685240Y288827D01*
X685756Y288614D01*
X688614Y285756D01*
X690161Y282021D01*
X690161Y277979D01*
X688614Y274244D01*
X685756Y271386D01*
X685240Y271173D01*
X685119Y271104D01*
X684996Y271039D01*
X684981Y271025D01*
X684964Y271015D01*
X684864Y270918D01*
X684761Y270825D01*
X684750Y270808D01*
X684735Y270794D01*
X684663Y270676D01*
X684586Y270559D01*
X684580Y270540D01*
X684569Y270523D01*
X684528Y270390D01*
X684483Y270258D01*
X684482Y270238D01*
X684476Y270219D01*
X684469Y270080D01*
X684458Y269941D01*
X684461Y269921D01*
X684460Y269901D01*
X684489Y269765D01*
X684512Y269628D01*
X684521Y269610D01*
X684525Y269590D01*
X684586Y269464D01*
X684643Y269338D01*
X684656Y269322D01*
X684664Y269304D01*
X684755Y269198D01*
X684842Y269089D01*
X684858Y269077D01*
X684871Y269062D01*
X684985Y268982D01*
X685096Y268898D01*
X685121Y268886D01*
X685131Y268879D01*
X685150Y268872D01*
X685240Y268827D01*
X685756Y268614D01*
X688614Y265756D01*
X690161Y262021D01*
X690161Y260000D01*
X690176Y259882D01*
X690183Y259763D01*
X690196Y259725D01*
X690201Y259684D01*
X690244Y259574D01*
X690281Y259461D01*
X690303Y259426D01*
X690318Y259389D01*
X690387Y259293D01*
X690451Y259192D01*
X690481Y259164D01*
X690504Y259131D01*
X690596Y259056D01*
X690683Y258974D01*
X690718Y258954D01*
X690749Y258929D01*
X690857Y258878D01*
X690961Y258820D01*
X691001Y258810D01*
X691037Y258793D01*
X691154Y258771D01*
X691269Y258741D01*
X691329Y258737D01*
X691349Y258733D01*
X691370Y258735D01*
X691430Y258731D01*
X706338Y258731D01*
X706436Y258743D01*
G37*
%LPC*%
G36*
X413093Y276831D02*
X413093Y276831D01*
X410862Y277755D01*
X409155Y279462D01*
X408231Y281693D01*
X408231Y284107D01*
X409155Y286338D01*
X410862Y288045D01*
X413093Y288969D01*
X415507Y288969D01*
X417738Y288045D01*
X417938Y287844D01*
X418016Y287784D01*
X418088Y287716D01*
X418141Y287687D01*
X418189Y287650D01*
X418280Y287610D01*
X418367Y287562D01*
X418425Y287547D01*
X418481Y287523D01*
X418579Y287508D01*
X418675Y287483D01*
X418775Y287477D01*
X418795Y287473D01*
X418808Y287475D01*
X418836Y287473D01*
X432280Y287473D01*
X432378Y287485D01*
X432477Y287488D01*
X432536Y287505D01*
X432596Y287513D01*
X432688Y287549D01*
X432783Y287577D01*
X432835Y287607D01*
X432891Y287630D01*
X432971Y287688D01*
X433057Y287738D01*
X433132Y287804D01*
X433149Y287816D01*
X433157Y287826D01*
X433178Y287844D01*
X441306Y295973D01*
X475380Y295973D01*
X475478Y295985D01*
X475577Y295988D01*
X475636Y296005D01*
X475696Y296013D01*
X475788Y296049D01*
X475883Y296077D01*
X475935Y296107D01*
X475991Y296130D01*
X476071Y296188D01*
X476157Y296238D01*
X476232Y296304D01*
X476249Y296316D01*
X476257Y296326D01*
X476278Y296344D01*
X482006Y302073D01*
X536064Y302073D01*
X536163Y302085D01*
X536262Y302088D01*
X536320Y302105D01*
X536380Y302113D01*
X536472Y302149D01*
X536567Y302177D01*
X536619Y302207D01*
X536676Y302230D01*
X536756Y302288D01*
X536841Y302338D01*
X536917Y302404D01*
X536933Y302416D01*
X536941Y302426D01*
X536962Y302444D01*
X537162Y302645D01*
X539393Y303569D01*
X541807Y303569D01*
X544038Y302645D01*
X545745Y300938D01*
X546669Y298707D01*
X546669Y296293D01*
X545745Y294062D01*
X544038Y292355D01*
X541807Y291431D01*
X539393Y291431D01*
X537162Y292355D01*
X536962Y292556D01*
X536884Y292616D01*
X536812Y292684D01*
X536759Y292713D01*
X536711Y292750D01*
X536620Y292790D01*
X536533Y292838D01*
X536475Y292853D01*
X536419Y292877D01*
X536321Y292892D01*
X536225Y292917D01*
X536125Y292923D01*
X536105Y292927D01*
X536092Y292925D01*
X536064Y292927D01*
X486320Y292927D01*
X486222Y292915D01*
X486123Y292912D01*
X486064Y292895D01*
X486004Y292887D01*
X485912Y292851D01*
X485817Y292823D01*
X485765Y292793D01*
X485709Y292770D01*
X485629Y292712D01*
X485543Y292662D01*
X485468Y292596D01*
X485451Y292584D01*
X485443Y292574D01*
X485422Y292556D01*
X479694Y286827D01*
X445620Y286827D01*
X445522Y286815D01*
X445423Y286812D01*
X445364Y286795D01*
X445304Y286787D01*
X445212Y286751D01*
X445117Y286723D01*
X445065Y286693D01*
X445009Y286670D01*
X444929Y286612D01*
X444843Y286562D01*
X444768Y286496D01*
X444751Y286484D01*
X444743Y286474D01*
X444722Y286456D01*
X436594Y278327D01*
X418836Y278327D01*
X418737Y278315D01*
X418638Y278312D01*
X418580Y278295D01*
X418520Y278287D01*
X418428Y278251D01*
X418333Y278223D01*
X418281Y278193D01*
X418224Y278170D01*
X418144Y278112D01*
X418059Y278062D01*
X417983Y277996D01*
X417967Y277984D01*
X417959Y277974D01*
X417938Y277956D01*
X417738Y277755D01*
X415507Y276831D01*
X413093Y276831D01*
G37*
%LPD*%
%LPC*%
G36*
X834844Y327553D02*
X834844Y327553D01*
X827553Y334844D01*
X827553Y345156D01*
X834844Y352447D01*
X845156Y352447D01*
X849103Y348500D01*
X849197Y348427D01*
X849286Y348348D01*
X849322Y348330D01*
X849354Y348305D01*
X849463Y348257D01*
X849569Y348203D01*
X849608Y348195D01*
X849646Y348179D01*
X849763Y348160D01*
X849879Y348134D01*
X849920Y348135D01*
X849960Y348129D01*
X850078Y348140D01*
X850197Y348143D01*
X850236Y348155D01*
X850276Y348158D01*
X850389Y348199D01*
X850503Y348232D01*
X850538Y348252D01*
X850576Y348266D01*
X850674Y348333D01*
X850777Y348393D01*
X850822Y348433D01*
X850839Y348445D01*
X850852Y348460D01*
X850898Y348500D01*
X854844Y352447D01*
X865156Y352447D01*
X872447Y345156D01*
X872447Y334844D01*
X865156Y327553D01*
X854844Y327553D01*
X850898Y331500D01*
X850803Y331573D01*
X850714Y331652D01*
X850678Y331670D01*
X850646Y331695D01*
X850537Y331742D01*
X850431Y331797D01*
X850392Y331805D01*
X850354Y331821D01*
X850237Y331840D01*
X850121Y331866D01*
X850080Y331865D01*
X850040Y331871D01*
X849922Y331860D01*
X849803Y331857D01*
X849764Y331845D01*
X849724Y331842D01*
X849611Y331801D01*
X849497Y331768D01*
X849463Y331748D01*
X849424Y331734D01*
X849326Y331667D01*
X849223Y331607D01*
X849178Y331567D01*
X849161Y331555D01*
X849148Y331540D01*
X849103Y331500D01*
X845156Y327553D01*
X834844Y327553D01*
G37*
%LPD*%
%LPC*%
G36*
X234844Y327553D02*
X234844Y327553D01*
X227553Y334844D01*
X227553Y345156D01*
X234844Y352447D01*
X245156Y352447D01*
X249103Y348500D01*
X249197Y348427D01*
X249286Y348348D01*
X249322Y348330D01*
X249354Y348305D01*
X249463Y348257D01*
X249569Y348203D01*
X249608Y348195D01*
X249646Y348179D01*
X249763Y348160D01*
X249879Y348134D01*
X249920Y348135D01*
X249960Y348129D01*
X250078Y348140D01*
X250197Y348143D01*
X250236Y348155D01*
X250276Y348158D01*
X250389Y348199D01*
X250503Y348232D01*
X250538Y348252D01*
X250576Y348266D01*
X250674Y348333D01*
X250777Y348393D01*
X250822Y348433D01*
X250839Y348445D01*
X250852Y348460D01*
X250898Y348500D01*
X254844Y352447D01*
X265156Y352447D01*
X272447Y345156D01*
X272447Y334844D01*
X265156Y327553D01*
X254844Y327553D01*
X250898Y331500D01*
X250803Y331573D01*
X250714Y331652D01*
X250678Y331670D01*
X250646Y331695D01*
X250537Y331742D01*
X250431Y331797D01*
X250392Y331805D01*
X250354Y331821D01*
X250237Y331840D01*
X250121Y331866D01*
X250080Y331865D01*
X250040Y331871D01*
X249922Y331860D01*
X249803Y331857D01*
X249764Y331845D01*
X249724Y331842D01*
X249611Y331801D01*
X249497Y331768D01*
X249463Y331748D01*
X249424Y331734D01*
X249326Y331667D01*
X249223Y331607D01*
X249178Y331567D01*
X249161Y331555D01*
X249148Y331540D01*
X249103Y331500D01*
X245156Y327553D01*
X234844Y327553D01*
G37*
%LPD*%
%LPC*%
G36*
X224844Y257553D02*
X224844Y257553D01*
X217553Y264844D01*
X217553Y275156D01*
X221500Y279102D01*
X221573Y279197D01*
X221652Y279286D01*
X221670Y279322D01*
X221695Y279354D01*
X221742Y279463D01*
X221797Y279569D01*
X221805Y279608D01*
X221821Y279646D01*
X221840Y279763D01*
X221866Y279879D01*
X221865Y279920D01*
X221871Y279960D01*
X221860Y280078D01*
X221857Y280197D01*
X221845Y280236D01*
X221842Y280276D01*
X221801Y280389D01*
X221768Y280503D01*
X221748Y280537D01*
X221734Y280576D01*
X221667Y280674D01*
X221607Y280777D01*
X221567Y280822D01*
X221555Y280839D01*
X221540Y280852D01*
X221500Y280897D01*
X217553Y284844D01*
X217553Y295156D01*
X224844Y302447D01*
X235156Y302447D01*
X242447Y295156D01*
X242447Y284844D01*
X238500Y280897D01*
X238427Y280803D01*
X238348Y280714D01*
X238330Y280678D01*
X238305Y280646D01*
X238257Y280537D01*
X238203Y280431D01*
X238195Y280392D01*
X238179Y280354D01*
X238160Y280237D01*
X238134Y280121D01*
X238135Y280080D01*
X238129Y280040D01*
X238140Y279922D01*
X238143Y279803D01*
X238155Y279764D01*
X238158Y279724D01*
X238199Y279611D01*
X238232Y279497D01*
X238252Y279462D01*
X238266Y279424D01*
X238333Y279326D01*
X238393Y279223D01*
X238433Y279178D01*
X238445Y279161D01*
X238460Y279148D01*
X238500Y279102D01*
X242447Y275156D01*
X242447Y264844D01*
X235156Y257553D01*
X224844Y257553D01*
G37*
%LPD*%
%LPC*%
G36*
X864844Y257553D02*
X864844Y257553D01*
X857553Y264844D01*
X857553Y275156D01*
X861500Y279103D01*
X861573Y279197D01*
X861652Y279286D01*
X861670Y279322D01*
X861695Y279354D01*
X861743Y279463D01*
X861797Y279569D01*
X861805Y279608D01*
X861821Y279646D01*
X861840Y279763D01*
X861866Y279879D01*
X861865Y279920D01*
X861871Y279960D01*
X861860Y280078D01*
X861857Y280197D01*
X861845Y280236D01*
X861842Y280276D01*
X861801Y280389D01*
X861768Y280503D01*
X861748Y280538D01*
X861734Y280576D01*
X861667Y280674D01*
X861607Y280777D01*
X861567Y280822D01*
X861555Y280839D01*
X861540Y280852D01*
X861500Y280898D01*
X857553Y284844D01*
X857553Y295156D01*
X864844Y302447D01*
X875156Y302447D01*
X882447Y295156D01*
X882447Y284844D01*
X878500Y280898D01*
X878427Y280803D01*
X878348Y280714D01*
X878330Y280678D01*
X878305Y280646D01*
X878258Y280537D01*
X878203Y280431D01*
X878195Y280392D01*
X878179Y280354D01*
X878160Y280237D01*
X878134Y280121D01*
X878135Y280080D01*
X878129Y280040D01*
X878140Y279922D01*
X878143Y279803D01*
X878155Y279764D01*
X878158Y279724D01*
X878199Y279611D01*
X878232Y279497D01*
X878252Y279463D01*
X878266Y279424D01*
X878333Y279326D01*
X878393Y279223D01*
X878433Y279178D01*
X878445Y279161D01*
X878460Y279148D01*
X878500Y279103D01*
X882447Y275156D01*
X882447Y264844D01*
X875156Y257553D01*
X864844Y257553D01*
G37*
%LPD*%
%LPC*%
G36*
X316459Y439486D02*
X316459Y439486D01*
X310078Y442559D01*
X305663Y448096D01*
X304087Y455000D01*
X305663Y461904D01*
X310078Y467441D01*
X316459Y470514D01*
X323541Y470514D01*
X329922Y467441D01*
X334337Y461904D01*
X335913Y455000D01*
X334337Y448096D01*
X329922Y442559D01*
X323541Y439486D01*
X316459Y439486D01*
G37*
%LPD*%
%LPC*%
G36*
X776459Y439486D02*
X776459Y439486D01*
X770078Y442559D01*
X765663Y448096D01*
X764087Y455000D01*
X765663Y461904D01*
X770078Y467441D01*
X776459Y470514D01*
X783541Y470514D01*
X789922Y467441D01*
X794337Y461904D01*
X795913Y455000D01*
X794337Y448096D01*
X789922Y442559D01*
X783541Y439486D01*
X776459Y439486D01*
G37*
%LPD*%
%LPC*%
G36*
X534944Y126753D02*
X534944Y126753D01*
X527653Y134044D01*
X527653Y144356D01*
X534944Y151647D01*
X545256Y151647D01*
X550101Y146802D01*
X550121Y146786D01*
X550138Y146766D01*
X550258Y146677D01*
X550374Y146585D01*
X550397Y146574D01*
X550418Y146558D01*
X550555Y146500D01*
X550689Y146436D01*
X550714Y146431D01*
X550738Y146420D01*
X550885Y146394D01*
X551029Y146363D01*
X551055Y146363D01*
X551081Y146359D01*
X551230Y146366D01*
X551378Y146369D01*
X551403Y146375D01*
X551429Y146377D01*
X551572Y146418D01*
X551716Y146454D01*
X551739Y146466D01*
X551764Y146473D01*
X551894Y146546D01*
X552026Y146613D01*
X552046Y146630D01*
X552068Y146643D01*
X552255Y146802D01*
X555576Y150123D01*
X558069Y150123D01*
X558069Y139708D01*
X558072Y139682D01*
X558070Y139656D01*
X558092Y139509D01*
X558109Y139362D01*
X558117Y139337D01*
X558121Y139311D01*
X558164Y139204D01*
X558143Y139128D01*
X558098Y138987D01*
X558095Y138961D01*
X558088Y138936D01*
X558069Y138692D01*
X558069Y128277D01*
X555576Y128277D01*
X552255Y131598D01*
X552234Y131614D01*
X552217Y131634D01*
X552098Y131723D01*
X551982Y131815D01*
X551958Y131826D01*
X551937Y131842D01*
X551801Y131900D01*
X551667Y131964D01*
X551641Y131969D01*
X551617Y131980D01*
X551471Y132006D01*
X551326Y132037D01*
X551300Y132037D01*
X551274Y132041D01*
X551125Y132034D01*
X550977Y132031D01*
X550952Y132025D01*
X550926Y132023D01*
X550783Y131982D01*
X550639Y131946D01*
X550616Y131934D01*
X550591Y131927D01*
X550461Y131854D01*
X550330Y131787D01*
X550310Y131770D01*
X550287Y131757D01*
X550101Y131598D01*
X545256Y126753D01*
X534944Y126753D01*
G37*
%LPD*%
%LPC*%
G36*
X437693Y322431D02*
X437693Y322431D01*
X435462Y323355D01*
X433755Y325062D01*
X432831Y327293D01*
X432831Y329707D01*
X433755Y331938D01*
X435462Y333645D01*
X437693Y334569D01*
X440107Y334569D01*
X442338Y333645D01*
X442792Y333190D01*
X442870Y333130D01*
X442942Y333062D01*
X442995Y333033D01*
X443043Y332996D01*
X443134Y332956D01*
X443221Y332908D01*
X443279Y332893D01*
X443335Y332869D01*
X443433Y332854D01*
X443529Y332829D01*
X443629Y332823D01*
X443649Y332819D01*
X443662Y332821D01*
X443690Y332819D01*
X460685Y332819D01*
X460784Y332831D01*
X460883Y332834D01*
X460941Y332851D01*
X461001Y332859D01*
X461093Y332895D01*
X461188Y332923D01*
X461240Y332953D01*
X461297Y332976D01*
X461377Y333034D01*
X461462Y333084D01*
X461537Y333150D01*
X461554Y333162D01*
X461562Y333172D01*
X461583Y333190D01*
X470560Y342167D01*
X470620Y342245D01*
X470688Y342318D01*
X470717Y342371D01*
X470754Y342418D01*
X470794Y342509D01*
X470842Y342596D01*
X470857Y342655D01*
X470881Y342710D01*
X470896Y342808D01*
X470921Y342904D01*
X470927Y343004D01*
X470931Y343024D01*
X470929Y343037D01*
X470931Y343065D01*
X470931Y343707D01*
X471855Y345938D01*
X473562Y347645D01*
X475793Y348569D01*
X478207Y348569D01*
X480438Y347645D01*
X482145Y345938D01*
X483069Y343707D01*
X483069Y341293D01*
X482145Y339062D01*
X480438Y337355D01*
X478207Y336431D01*
X477565Y336431D01*
X477466Y336419D01*
X477367Y336416D01*
X477309Y336399D01*
X477249Y336391D01*
X477157Y336355D01*
X477062Y336327D01*
X477010Y336297D01*
X476953Y336274D01*
X476873Y336216D01*
X476788Y336166D01*
X476713Y336100D01*
X476696Y336088D01*
X476688Y336078D01*
X476667Y336060D01*
X464789Y324181D01*
X443690Y324181D01*
X443591Y324169D01*
X443492Y324166D01*
X443434Y324149D01*
X443374Y324141D01*
X443282Y324105D01*
X443187Y324077D01*
X443135Y324047D01*
X443078Y324024D01*
X442998Y323966D01*
X442913Y323916D01*
X442837Y323850D01*
X442821Y323838D01*
X442813Y323828D01*
X442792Y323810D01*
X442338Y323355D01*
X440107Y322431D01*
X437693Y322431D01*
G37*
%LPD*%
%LPC*%
G36*
X562131Y141231D02*
X562131Y141231D01*
X562131Y150123D01*
X564624Y150123D01*
X571023Y143724D01*
X571023Y141231D01*
X562131Y141231D01*
G37*
%LPD*%
%LPC*%
G36*
X562131Y128277D02*
X562131Y128277D01*
X562131Y137169D01*
X571023Y137169D01*
X571023Y134676D01*
X564624Y128277D01*
X562131Y128277D01*
G37*
%LPD*%
%LPC*%
G36*
X452502Y172903D02*
X452502Y172903D01*
X454171Y172906D01*
X460134Y166965D01*
X460137Y165295D01*
X452515Y165282D01*
X452502Y172903D01*
G37*
%LPD*%
%LPC*%
G36*
X639874Y139842D02*
X639874Y139842D01*
X639874Y141511D01*
X645826Y147463D01*
X647496Y147463D01*
X647496Y139842D01*
X639874Y139842D01*
G37*
%LPD*%
%LPC*%
G36*
X452524Y160203D02*
X452524Y160203D01*
X460145Y160217D01*
X460148Y158547D01*
X454207Y152585D01*
X452537Y152582D01*
X452524Y160203D01*
G37*
%LPD*%
%LPC*%
G36*
X439812Y166929D02*
X439812Y166929D01*
X445754Y172891D01*
X447423Y172894D01*
X447437Y165273D01*
X439815Y165260D01*
X439812Y166929D01*
G37*
%LPD*%
%LPC*%
G36*
X439827Y158512D02*
X439827Y158512D01*
X439824Y160181D01*
X447445Y160194D01*
X447459Y152573D01*
X445789Y152570D01*
X439827Y158512D01*
G37*
%LPD*%
%LPC*%
G36*
X645826Y127142D02*
X645826Y127142D01*
X639874Y133094D01*
X639874Y134763D01*
X647496Y134763D01*
X647496Y127142D01*
X645826Y127142D01*
G37*
%LPD*%
%LPC*%
G36*
X391999Y301999D02*
X391999Y301999D01*
X391999Y309456D01*
X392260Y309415D01*
X393705Y308946D01*
X395059Y308256D01*
X396288Y307363D01*
X397363Y306288D01*
X398256Y305059D01*
X398946Y303705D01*
X399415Y302260D01*
X399456Y301999D01*
X391999Y301999D01*
G37*
%LPD*%
%LPC*%
G36*
X391999Y298001D02*
X391999Y298001D01*
X399456Y298001D01*
X399415Y297740D01*
X398946Y296295D01*
X398256Y294941D01*
X397363Y293712D01*
X396288Y292637D01*
X395059Y291744D01*
X393705Y291054D01*
X392260Y290585D01*
X391999Y290544D01*
X391999Y298001D01*
G37*
%LPD*%
D10*
X475380Y162782D03*
X475425Y137382D03*
X449980Y162738D03*
X450025Y137338D03*
X424580Y162694D03*
X424625Y137294D03*
D11*
X320000Y230000D03*
X340000Y230000D03*
X360000Y230000D03*
X380000Y230000D03*
D12*
X624635Y137302D03*
X624635Y162702D03*
X650035Y137302D03*
X650035Y162702D03*
X675435Y137302D03*
X675435Y162702D03*
D11*
X720000Y230000D03*
X740000Y230000D03*
X760000Y230000D03*
X780000Y230000D03*
D13*
X560100Y139200D03*
X540100Y139200D03*
D11*
X510000Y415000D03*
X530000Y415000D03*
X550000Y415000D03*
X570000Y415000D03*
X590000Y415000D03*
X680000Y260000D03*
X680000Y280000D03*
X680000Y300000D03*
X680000Y320000D03*
X390000Y300000D03*
X370000Y300000D03*
X350000Y300000D03*
D13*
X260000Y340000D03*
X240000Y340000D03*
X300000Y390000D03*
X280000Y390000D03*
X860000Y340000D03*
X840000Y340000D03*
X820000Y390000D03*
X800000Y390000D03*
D14*
X230000Y270000D03*
X230000Y290000D03*
X240000Y210000D03*
X240000Y230000D03*
D15*
X870000Y290000D03*
X870000Y270000D03*
X860000Y230000D03*
X860000Y210000D03*
D11*
X355000Y395000D03*
X375000Y395000D03*
X725000Y395000D03*
X745000Y395000D03*
D16*
X730100Y279300D03*
X817800Y220900D03*
D17*
X817800Y243000D01*
X796000Y264800D01*
D16*
X654200Y262200D03*
X517500Y285100D03*
X430500Y290600D03*
X463300Y268900D03*
X567600Y285100D03*
X821800Y142400D03*
D17*
X821800Y157900D01*
X809900Y169800D01*
D16*
X809900Y169800D03*
X486300Y383200D03*
D18*
X486800Y383200D01*
X490000Y380000D01*
D16*
X532500Y374200D03*
D18*
X532500Y372500D01*
X530000Y370000D01*
D16*
X517500Y373800D03*
D18*
X517500Y372500D01*
X520000Y370000D01*
D17*
X654200Y262200D02*
X667000Y249400D01*
X692500Y249400D02*
X705100Y262000D01*
X692500Y249400D02*
X667000Y249400D01*
D16*
X655700Y380000D03*
D17*
X677385Y115715D02*
X771315Y115715D01*
X677385Y115715D02*
X662600Y130500D01*
X662600Y150137D01*
X650035Y162702D01*
X677385Y115715D02*
X471648Y115715D01*
X450025Y137338D01*
X786900Y131300D02*
X786900Y167300D01*
D16*
X786900Y167300D03*
D17*
X786900Y131300D02*
X771315Y115715D01*
D16*
X803200Y226300D03*
D17*
X803200Y242100D01*
X779000Y266300D02*
X729900Y266300D01*
D16*
X729900Y266300D03*
D17*
X779000Y266300D02*
X803200Y242100D01*
D16*
X476900Y182400D03*
D17*
X514500Y182400D01*
X514800Y182700D01*
D16*
X514800Y182700D03*
X583500Y181100D03*
X617000Y181400D03*
D17*
X616700Y181100D02*
X583500Y181100D01*
X616700Y181100D02*
X617000Y181400D01*
D16*
X718400Y205400D03*
X380800Y203400D03*
D17*
X380800Y210700D01*
X396200Y226100D01*
X396200Y238200D01*
X396300Y238300D01*
D16*
X396300Y238300D03*
D17*
X679800Y229200D02*
X694600Y229200D01*
D16*
X679800Y229200D03*
D17*
X694600Y229200D02*
X718400Y205400D01*
X344700Y167600D02*
X332700Y179600D01*
X332700Y217300D02*
X320000Y230000D01*
X332700Y217300D02*
X332700Y179600D01*
X406319Y155600D02*
X424625Y137294D01*
X380000Y167600D02*
X344700Y167600D01*
X392000Y155600D02*
X406319Y155600D01*
X392000Y155600D02*
X380000Y167600D01*
X675435Y162702D02*
X701402Y162702D01*
X714200Y175500D01*
X756000Y175500D01*
X760200Y179700D01*
X760200Y229800D01*
X760000Y230000D01*
X693633Y155500D02*
X675435Y137302D01*
X717200Y168400D02*
X758800Y168400D01*
X767500Y177100D01*
X767500Y217500D02*
X780000Y230000D01*
X704300Y155500D02*
X693633Y155500D01*
X704300Y155500D02*
X717200Y168400D01*
X767500Y177100D02*
X767500Y217500D01*
X346900Y174800D02*
X339900Y181800D01*
X339900Y229900D01*
X340000Y230000D01*
X394906Y162694D02*
X424580Y162694D01*
X394906Y162694D02*
X382800Y174800D01*
X346900Y174800D01*
X370000Y272500D02*
X370000Y300000D01*
X451600Y253700D02*
X458800Y246500D01*
X487700Y246500D01*
X502600Y261400D01*
X502600Y274900D01*
X498200Y279300D01*
D16*
X498200Y279300D03*
D17*
X388800Y253700D02*
X370000Y272500D01*
X388800Y253700D02*
X451600Y253700D01*
D16*
X585600Y302600D03*
D17*
X577800Y302600D01*
X550100Y330300D01*
D16*
X550100Y330300D03*
X383300Y133200D03*
X412600Y199900D03*
X457700Y210100D03*
X514400Y154500D03*
X642300Y214400D03*
X717300Y133000D03*
X684400Y208300D03*
X590900Y160600D03*
X406900Y141400D03*
X693800Y137900D03*
X504100Y386500D03*
D18*
X504000Y409000D01*
X510000Y415000D01*
X504100Y388500D02*
X504100Y386500D01*
D16*
X477000Y342500D03*
D18*
X463000Y328500D01*
X438900Y328500D01*
D16*
X438900Y328500D03*
X593300Y357500D03*
D18*
X587500Y357500D01*
X530000Y415000D01*
D17*
X540600Y297500D02*
X483900Y297500D01*
X477800Y291400D01*
D16*
X414300Y282900D03*
D17*
X443200Y291400D02*
X477800Y291400D01*
X443200Y291400D02*
X434700Y282900D01*
X414300Y282900D01*
D16*
X334700Y282900D03*
D17*
X280900Y282900D01*
X260000Y262000D01*
D16*
X260000Y262000D03*
X540600Y297500D03*
X588700Y342400D03*
D17*
X495200Y379200D02*
X495200Y388000D01*
X488600Y394600D01*
X411500Y394600D01*
X406500Y399600D01*
D16*
X406500Y399600D03*
D17*
X495200Y379200D02*
X514900Y359500D01*
D16*
X514900Y359500D03*
X534600Y342300D03*
D17*
X588600Y342300D01*
X588700Y342400D01*
D16*
X379500Y349500D03*
D17*
X360900Y368100D01*
X301900Y368100D02*
X280000Y390000D01*
X301900Y368100D02*
X360900Y368100D01*
D16*
X394900Y349100D03*
D17*
X314900Y375100D02*
X300000Y390000D01*
X368900Y375100D02*
X394900Y349100D01*
X368900Y375100D02*
X314900Y375100D01*
X860000Y210000D02*
X872100Y210000D01*
X889900Y192200D01*
D16*
X889900Y192200D03*
D17*
X617200Y248600D02*
X601100Y264700D01*
X617200Y248600D02*
X657400Y248600D01*
X663800Y242200D01*
X696800Y242200D01*
D16*
X714700Y260100D03*
D17*
X696800Y242200D01*
X601100Y264700D02*
X601100Y270800D01*
X585900Y286000D01*
X585800Y286000D01*
D16*
X585800Y286000D03*
X286900Y275900D03*
D17*
X284900Y275900D01*
X270200Y261200D01*
D16*
X270200Y261200D03*
D19*
X285200Y300000D02*
X350000Y300000D01*
X285200Y300000D02*
X284700Y299500D01*
D17*
X210000Y117911D02*
X209300Y117211D01*
X210000Y117911D02*
X210000Y120000D01*
D16*
X329000Y431100D03*
X378300Y441800D03*
X421600Y434700D03*
X276900Y311300D03*
X822100Y311300D03*
X770700Y431400D03*
X690500Y442900D03*
X717600Y414200D03*
X199800Y149800D03*
X206000Y225300D03*
X899900Y151900D03*
X919100Y197800D03*
X160900Y210900D03*
X938400Y209200D03*
X670600Y453300D03*
X431800Y451100D03*
X182600Y117400D03*
D17*
X184285Y115715D01*
X185000Y115715D01*
X751200Y338000D02*
X755500Y342300D01*
D16*
X755500Y342300D03*
X768300Y355800D03*
D17*
X800000Y387500D01*
X800000Y390000D01*
D16*
X581600Y323900D03*
D17*
X613800Y323900D01*
X627900Y338000D01*
X751200Y338000D01*
X695700Y331800D02*
X695600Y331700D01*
X758000Y331700D02*
X763300Y337000D01*
D16*
X763300Y337000D03*
X775700Y350400D03*
D17*
X789500Y364200D01*
X803800Y364200D01*
X758000Y331700D02*
X695600Y331700D01*
X820000Y380400D02*
X820000Y390000D01*
X820000Y380400D02*
X803800Y364200D01*
D16*
X576600Y315500D03*
D17*
X578900Y317800D01*
X616500Y317800D01*
X630400Y331700D01*
X695600Y331700D01*
D16*
X669300Y354000D03*
D17*
X702600Y387300D01*
D16*
X702600Y387300D03*
X717400Y323400D03*
D17*
X755800Y323400D01*
X770000Y309200D01*
D16*
X770000Y309200D03*
M02*
