M48
;GenerationSoftware,Autodesk,EAGLE,8.6.0*%
;CreationDate,2018-03-08T00:53:41Z*%
FMAT,2
ICI,OFF
METRIC,TZ,000.000
T4C0.350
T3C0.800
T2C0.813
T1C1.016
%
G90
M71
T1
X44998Y16274
X62463Y16270
X47538Y16278
X47542Y13738
X45002Y13734
X42458Y16269
X42462Y13729
X65003Y13730
X65003Y16270
X67543Y13730
X67543Y16270
X62463Y13730
T2
X28000Y39000
X86000Y34000
X84000Y34000
X82000Y39000
X80000Y39000
X23000Y27000
X23000Y29000
X24000Y21000
X30000Y39000
X56010Y13920
X54010Y13920
X24000Y23000
X87000Y29000
X86000Y23000
X86000Y21000
X87000Y27000
X26000Y34000
X24000Y34000
T3
X78000Y23000
X32000Y23000
X34000Y23000
X36000Y23000
X38000Y23000
X72000Y23000
X74000Y23000
X76000Y23000
X51000Y41500
X53000Y41500
X55000Y41500
X57000Y41500
X68000Y26000
X68000Y28000
X68000Y30000
X68000Y32000
X39000Y30000
X59000Y41500
X37000Y30000
X35000Y30000
X35500Y39500
X37500Y39500
X72500Y39500
X74500Y39500
T4
X28690Y27590
X27020Y26120
X32900Y43110
X37830Y44180
X42160Y43470
X27690Y31130
X82210Y31130
X77070Y43140
X69050Y44290
X71760Y41420
X19980Y14980
X20600Y22530
X89990Y15190
X91910Y19780
X51480Y18270
X93840Y20920
X67060Y45330
X43180Y45110
X18260Y11740
X75550Y34230
X76830Y35580
X58160Y32390
X76330Y33700
X77570Y35040
X57660Y31550
X66930Y35400
X70260Y38730
X71740Y32340
X77000Y30920
X73010Y27930
X81780Y22090
X16090Y21090
X65420Y26220
X51750Y28510
X43050Y29060
X46330Y26890
X56760Y28510
X82180Y14240
X80990Y16980
X48630Y38320
X53250Y37420
X51750Y37380
X65570Y38000
X78690Y16730
X80320Y22630
X72990Y26630
X47690Y18240
X58350Y18110
X61700Y18140
X71840Y20540
X38080Y20340
X39630Y23830
X67980Y22920
X49820Y27930
X58560Y30260
X55010Y33030
X38330Y13320
X41260Y19990
X45770Y21010
X51440Y15450
X64230Y21440
X71730Y13300
X68440Y20830
X59090Y16060
X40690Y14140
X88990Y19220
X69380Y13790
X50410Y38650
X47700Y34250
X43890Y32850
X59330Y35750
X41430Y28290
X33470Y28290
X26000Y26200
X54060Y29750
X58870Y34240
X40650Y39960
X51490Y35950
X53460Y34230
X37950Y34950
X39490Y34910
X71470Y26010
X58580Y28600
M30