G04 EAGLE Gerber X2 export*
G04 #@! %TF.Part,Single*
G04 #@! %TF.FileFunction,Profile,NP*
G04 #@! %TF.FilePolarity,Positive*
G04 #@! %TF.GenerationSoftware,Autodesk,EAGLE,8.6.0*
G04 #@! %TF.CreationDate,2018-03-08T00:53:42Z*
G75*
%MOMM*%
%FSLAX34Y34*%
%LPD*%
%AMOC8*
5,1,8,0,0,1.08239X$1,22.5*%
G01*
%ADD10C,0.254000*%


D10*
X140000Y130000D02*
X140076Y128257D01*
X140304Y126527D01*
X140681Y124824D01*
X141206Y123160D01*
X141874Y121548D01*
X142680Y120000D01*
X143617Y118528D01*
X144679Y117144D01*
X145858Y115858D01*
X147144Y114679D01*
X148528Y113617D01*
X150000Y112680D01*
X151548Y111874D01*
X153160Y111206D01*
X154824Y110681D01*
X156527Y110304D01*
X158257Y110076D01*
X160000Y110000D01*
X940000Y110000D01*
X941743Y110076D01*
X943473Y110304D01*
X945176Y110681D01*
X946840Y111206D01*
X948452Y111874D01*
X950000Y112680D01*
X951472Y113617D01*
X952856Y114679D01*
X954142Y115858D01*
X955321Y117144D01*
X956383Y118528D01*
X957321Y120000D01*
X958126Y121548D01*
X958794Y123160D01*
X959319Y124824D01*
X959696Y126527D01*
X959924Y128257D01*
X960000Y130000D01*
X960000Y160000D01*
X959505Y171330D01*
X958025Y182574D01*
X955570Y193646D01*
X952160Y204463D01*
X950000Y210000D01*
X850000Y450000D01*
X848176Y453890D01*
X846021Y457605D01*
X843549Y461119D01*
X840781Y464404D01*
X837737Y467435D01*
X834441Y470190D01*
X830916Y472647D01*
X827192Y474787D01*
X823294Y476594D01*
X819255Y478055D01*
X815103Y479158D01*
X810871Y479895D01*
X810000Y480000D01*
X690000Y480000D01*
X688034Y480023D01*
X686074Y479875D01*
X684134Y479557D01*
X682229Y479071D01*
X680374Y478420D01*
X678583Y477611D01*
X676868Y476648D01*
X675245Y475540D01*
X673724Y474294D01*
X672317Y472920D01*
X671036Y471429D01*
X670000Y470000D01*
X650000Y440000D01*
X648839Y438413D01*
X647545Y436934D01*
X646126Y435573D01*
X644594Y434341D01*
X642961Y433247D01*
X641238Y432300D01*
X639439Y431506D01*
X637579Y430872D01*
X635669Y430403D01*
X633727Y430102D01*
X631765Y429971D01*
X630000Y430000D01*
X626917Y430307D01*
X623873Y430881D01*
X620891Y431718D01*
X617993Y432812D01*
X615201Y434154D01*
X612537Y435735D01*
X610020Y437542D01*
X607671Y439561D01*
X605507Y441777D01*
X603544Y444174D01*
X601797Y446732D01*
X600280Y449433D01*
X600000Y450000D01*
X599243Y451406D01*
X598366Y452741D01*
X597376Y453995D01*
X596280Y455157D01*
X595088Y456220D01*
X593807Y457175D01*
X592448Y458014D01*
X591021Y458732D01*
X589537Y459322D01*
X588007Y459781D01*
X586443Y460105D01*
X584857Y460292D01*
X583260Y460339D01*
X581665Y460247D01*
X580085Y460016D01*
X580000Y460000D01*
X566522Y457969D01*
X552918Y457120D01*
X539292Y457460D01*
X525748Y458987D01*
X520000Y460000D01*
X518421Y460238D01*
X516826Y460338D01*
X515230Y460298D01*
X513642Y460119D01*
X512077Y459802D01*
X510545Y459350D01*
X509058Y458767D01*
X507627Y458056D01*
X506264Y457223D01*
X504979Y456275D01*
X503782Y455218D01*
X502681Y454060D01*
X501685Y452811D01*
X500802Y451481D01*
X500038Y450078D01*
X500000Y450000D01*
X498531Y447272D01*
X496831Y444683D01*
X494911Y442252D01*
X492786Y439998D01*
X490473Y437937D01*
X487990Y436086D01*
X485354Y434458D01*
X482587Y433066D01*
X479708Y431921D01*
X476741Y431030D01*
X473708Y430402D01*
X470631Y430041D01*
X470000Y430000D01*
X468034Y429977D01*
X466074Y430125D01*
X464134Y430443D01*
X462229Y430929D01*
X460374Y431580D01*
X458583Y432389D01*
X456868Y433352D01*
X455245Y434461D01*
X453724Y435706D01*
X452318Y437080D01*
X451036Y438571D01*
X450000Y440000D01*
X430000Y470000D01*
X428839Y471587D01*
X427545Y473066D01*
X426126Y474427D01*
X424594Y475659D01*
X422961Y476753D01*
X421238Y477700D01*
X419439Y478494D01*
X417579Y479128D01*
X415669Y479597D01*
X413727Y479898D01*
X411765Y480029D01*
X410000Y480000D01*
X290000Y480000D01*
X285755Y479338D01*
X281585Y478309D01*
X277519Y476921D01*
X273591Y475183D01*
X269828Y473110D01*
X266261Y470716D01*
X262916Y468021D01*
X259818Y465044D01*
X256992Y461809D01*
X254459Y458340D01*
X252237Y454663D01*
X250345Y450807D01*
X250000Y450000D01*
X150000Y210000D01*
X146099Y199351D01*
X143141Y188403D01*
X141148Y177238D01*
X140136Y165942D01*
X140000Y160000D01*
X140000Y130000D01*
X251500Y134548D02*
X251429Y133647D01*
X251288Y132755D01*
X251077Y131876D01*
X250798Y131017D01*
X250452Y130182D01*
X250041Y129377D01*
X249569Y128606D01*
X249038Y127875D01*
X248451Y127188D01*
X247812Y126549D01*
X247125Y125962D01*
X246394Y125431D01*
X245623Y124959D01*
X244818Y124548D01*
X243983Y124202D01*
X243124Y123923D01*
X242245Y123712D01*
X241353Y123571D01*
X240452Y123500D01*
X239548Y123500D01*
X238647Y123571D01*
X237755Y123712D01*
X236876Y123923D01*
X236017Y124202D01*
X235182Y124548D01*
X234377Y124959D01*
X233606Y125431D01*
X232875Y125962D01*
X232188Y126549D01*
X231549Y127188D01*
X230962Y127875D01*
X230431Y128606D01*
X229959Y129377D01*
X229548Y130182D01*
X229202Y131017D01*
X228923Y131876D01*
X228712Y132755D01*
X228571Y133647D01*
X228500Y134548D01*
X228500Y135452D01*
X228571Y136353D01*
X228712Y137245D01*
X228923Y138124D01*
X229202Y138983D01*
X229548Y139818D01*
X229959Y140623D01*
X230431Y141394D01*
X230962Y142125D01*
X231549Y142812D01*
X232188Y143451D01*
X232875Y144038D01*
X233606Y144569D01*
X234377Y145041D01*
X235182Y145452D01*
X236017Y145798D01*
X236876Y146077D01*
X237755Y146288D01*
X238647Y146429D01*
X239548Y146500D01*
X240452Y146500D01*
X241353Y146429D01*
X242245Y146288D01*
X243124Y146077D01*
X243983Y145798D01*
X244818Y145452D01*
X245623Y145041D01*
X246394Y144569D01*
X247125Y144038D01*
X247812Y143451D01*
X248451Y142812D01*
X249038Y142125D01*
X249569Y141394D01*
X250041Y140623D01*
X250452Y139818D01*
X250798Y138983D01*
X251077Y138124D01*
X251288Y137245D01*
X251429Y136353D01*
X251500Y135452D01*
X251500Y134548D01*
X871500Y134548D02*
X871429Y133647D01*
X871288Y132755D01*
X871077Y131876D01*
X870798Y131017D01*
X870452Y130182D01*
X870041Y129377D01*
X869569Y128606D01*
X869038Y127875D01*
X868451Y127188D01*
X867812Y126549D01*
X867125Y125962D01*
X866394Y125431D01*
X865623Y124959D01*
X864818Y124548D01*
X863983Y124202D01*
X863124Y123923D01*
X862245Y123712D01*
X861353Y123571D01*
X860452Y123500D01*
X859548Y123500D01*
X858647Y123571D01*
X857755Y123712D01*
X856876Y123923D01*
X856017Y124202D01*
X855182Y124548D01*
X854377Y124959D01*
X853606Y125431D01*
X852875Y125962D01*
X852188Y126549D01*
X851549Y127188D01*
X850962Y127875D01*
X850431Y128606D01*
X849959Y129377D01*
X849548Y130182D01*
X849202Y131017D01*
X848923Y131876D01*
X848712Y132755D01*
X848571Y133647D01*
X848500Y134548D01*
X848500Y135452D01*
X848571Y136353D01*
X848712Y137245D01*
X848923Y138124D01*
X849202Y138983D01*
X849548Y139818D01*
X849959Y140623D01*
X850431Y141394D01*
X850962Y142125D01*
X851549Y142812D01*
X852188Y143451D01*
X852875Y144038D01*
X853606Y144569D01*
X854377Y145041D01*
X855182Y145452D01*
X856017Y145798D01*
X856876Y146077D01*
X857755Y146288D01*
X858647Y146429D01*
X859548Y146500D01*
X860452Y146500D01*
X861353Y146429D01*
X862245Y146288D01*
X863124Y146077D01*
X863983Y145798D01*
X864818Y145452D01*
X865623Y145041D01*
X866394Y144569D01*
X867125Y144038D01*
X867812Y143451D01*
X868451Y142812D01*
X869038Y142125D01*
X869569Y141394D01*
X870041Y140623D01*
X870452Y139818D01*
X870798Y138983D01*
X871077Y138124D01*
X871288Y137245D01*
X871429Y136353D01*
X871500Y135452D01*
X871500Y134548D01*
X295000Y454464D02*
X294924Y453396D01*
X294771Y452335D01*
X294543Y451288D01*
X294241Y450260D01*
X293867Y449256D01*
X293422Y448281D01*
X292908Y447341D01*
X292329Y446440D01*
X291687Y445582D01*
X290985Y444772D01*
X290228Y444015D01*
X289418Y443313D01*
X288560Y442671D01*
X287659Y442092D01*
X286719Y441578D01*
X285744Y441133D01*
X284740Y440759D01*
X283712Y440457D01*
X282665Y440229D01*
X281604Y440076D01*
X280536Y440000D01*
X279464Y440000D01*
X278396Y440076D01*
X277335Y440229D01*
X276288Y440457D01*
X275260Y440759D01*
X274256Y441133D01*
X273281Y441578D01*
X272341Y442092D01*
X271440Y442671D01*
X270582Y443313D01*
X269772Y444015D01*
X269015Y444772D01*
X268313Y445582D01*
X267671Y446440D01*
X267092Y447341D01*
X266578Y448281D01*
X266133Y449256D01*
X265759Y450260D01*
X265457Y451288D01*
X265229Y452335D01*
X265076Y453396D01*
X265000Y454464D01*
X265000Y455536D01*
X265076Y456604D01*
X265229Y457665D01*
X265457Y458712D01*
X265759Y459740D01*
X266133Y460744D01*
X266578Y461719D01*
X267092Y462659D01*
X267671Y463560D01*
X268313Y464418D01*
X269015Y465228D01*
X269772Y465985D01*
X270582Y466687D01*
X271440Y467329D01*
X272341Y467908D01*
X273281Y468422D01*
X274256Y468867D01*
X275260Y469241D01*
X276288Y469543D01*
X277335Y469771D01*
X278396Y469924D01*
X279464Y470000D01*
X280536Y470000D01*
X281604Y469924D01*
X282665Y469771D01*
X283712Y469543D01*
X284740Y469241D01*
X285744Y468867D01*
X286719Y468422D01*
X287659Y467908D01*
X288560Y467329D01*
X289418Y466687D01*
X290228Y465985D01*
X290985Y465228D01*
X291687Y464418D01*
X292329Y463560D01*
X292908Y462659D01*
X293422Y461719D01*
X293867Y460744D01*
X294241Y459740D01*
X294543Y458712D01*
X294771Y457665D01*
X294924Y456604D01*
X295000Y455536D01*
X295000Y454464D01*
X175000Y129464D02*
X174924Y128396D01*
X174771Y127335D01*
X174543Y126288D01*
X174241Y125260D01*
X173867Y124256D01*
X173422Y123281D01*
X172908Y122341D01*
X172329Y121440D01*
X171687Y120582D01*
X170985Y119772D01*
X170228Y119015D01*
X169418Y118313D01*
X168560Y117671D01*
X167659Y117092D01*
X166719Y116578D01*
X165744Y116133D01*
X164740Y115759D01*
X163712Y115457D01*
X162665Y115229D01*
X161604Y115076D01*
X160536Y115000D01*
X159464Y115000D01*
X158396Y115076D01*
X157335Y115229D01*
X156288Y115457D01*
X155260Y115759D01*
X154256Y116133D01*
X153281Y116578D01*
X152341Y117092D01*
X151440Y117671D01*
X150582Y118313D01*
X149772Y119015D01*
X149015Y119772D01*
X148313Y120582D01*
X147671Y121440D01*
X147092Y122341D01*
X146578Y123281D01*
X146133Y124256D01*
X145759Y125260D01*
X145457Y126288D01*
X145229Y127335D01*
X145076Y128396D01*
X145000Y129464D01*
X145000Y130536D01*
X145076Y131604D01*
X145229Y132665D01*
X145457Y133712D01*
X145759Y134740D01*
X146133Y135744D01*
X146578Y136719D01*
X147092Y137659D01*
X147671Y138560D01*
X148313Y139418D01*
X149015Y140228D01*
X149772Y140985D01*
X150582Y141687D01*
X151440Y142329D01*
X152341Y142908D01*
X153281Y143422D01*
X154256Y143867D01*
X155260Y144241D01*
X156288Y144543D01*
X157335Y144771D01*
X158396Y144924D01*
X159464Y145000D01*
X160536Y145000D01*
X161604Y144924D01*
X162665Y144771D01*
X163712Y144543D01*
X164740Y144241D01*
X165744Y143867D01*
X166719Y143422D01*
X167659Y142908D01*
X168560Y142329D01*
X169418Y141687D01*
X170228Y140985D01*
X170985Y140228D01*
X171687Y139418D01*
X172329Y138560D01*
X172908Y137659D01*
X173422Y136719D01*
X173867Y135744D01*
X174241Y134740D01*
X174543Y133712D01*
X174771Y132665D01*
X174924Y131604D01*
X175000Y130536D01*
X175000Y129464D01*
X955000Y129464D02*
X954924Y128396D01*
X954771Y127335D01*
X954543Y126288D01*
X954241Y125260D01*
X953867Y124256D01*
X953422Y123281D01*
X952908Y122341D01*
X952329Y121440D01*
X951687Y120582D01*
X950985Y119772D01*
X950228Y119015D01*
X949418Y118313D01*
X948560Y117671D01*
X947659Y117092D01*
X946719Y116578D01*
X945744Y116133D01*
X944740Y115759D01*
X943712Y115457D01*
X942665Y115229D01*
X941604Y115076D01*
X940536Y115000D01*
X939464Y115000D01*
X938396Y115076D01*
X937335Y115229D01*
X936288Y115457D01*
X935260Y115759D01*
X934256Y116133D01*
X933281Y116578D01*
X932341Y117092D01*
X931440Y117671D01*
X930582Y118313D01*
X929772Y119015D01*
X929015Y119772D01*
X928313Y120582D01*
X927671Y121440D01*
X927092Y122341D01*
X926578Y123281D01*
X926133Y124256D01*
X925759Y125260D01*
X925457Y126288D01*
X925229Y127335D01*
X925076Y128396D01*
X925000Y129464D01*
X925000Y130536D01*
X925076Y131604D01*
X925229Y132665D01*
X925457Y133712D01*
X925759Y134740D01*
X926133Y135744D01*
X926578Y136719D01*
X927092Y137659D01*
X927671Y138560D01*
X928313Y139418D01*
X929015Y140228D01*
X929772Y140985D01*
X930582Y141687D01*
X931440Y142329D01*
X932341Y142908D01*
X933281Y143422D01*
X934256Y143867D01*
X935260Y144241D01*
X936288Y144543D01*
X937335Y144771D01*
X938396Y144924D01*
X939464Y145000D01*
X940536Y145000D01*
X941604Y144924D01*
X942665Y144771D01*
X943712Y144543D01*
X944740Y144241D01*
X945744Y143867D01*
X946719Y143422D01*
X947659Y142908D01*
X948560Y142329D01*
X949418Y141687D01*
X950228Y140985D01*
X950985Y140228D01*
X951687Y139418D01*
X952329Y138560D01*
X952908Y137659D01*
X953422Y136719D01*
X953867Y135744D01*
X954241Y134740D01*
X954543Y133712D01*
X954771Y132665D01*
X954924Y131604D01*
X955000Y130536D01*
X955000Y129464D01*
X835000Y454464D02*
X834924Y453396D01*
X834771Y452335D01*
X834543Y451288D01*
X834241Y450260D01*
X833867Y449256D01*
X833422Y448281D01*
X832908Y447341D01*
X832329Y446440D01*
X831687Y445582D01*
X830985Y444772D01*
X830228Y444015D01*
X829418Y443313D01*
X828560Y442671D01*
X827659Y442092D01*
X826719Y441578D01*
X825744Y441133D01*
X824740Y440759D01*
X823712Y440457D01*
X822665Y440229D01*
X821604Y440076D01*
X820536Y440000D01*
X819464Y440000D01*
X818396Y440076D01*
X817335Y440229D01*
X816288Y440457D01*
X815260Y440759D01*
X814256Y441133D01*
X813281Y441578D01*
X812341Y442092D01*
X811440Y442671D01*
X810582Y443313D01*
X809772Y444015D01*
X809015Y444772D01*
X808313Y445582D01*
X807671Y446440D01*
X807092Y447341D01*
X806578Y448281D01*
X806133Y449256D01*
X805759Y450260D01*
X805457Y451288D01*
X805229Y452335D01*
X805076Y453396D01*
X805000Y454464D01*
X805000Y455536D01*
X805076Y456604D01*
X805229Y457665D01*
X805457Y458712D01*
X805759Y459740D01*
X806133Y460744D01*
X806578Y461719D01*
X807092Y462659D01*
X807671Y463560D01*
X808313Y464418D01*
X809015Y465228D01*
X809772Y465985D01*
X810582Y466687D01*
X811440Y467329D01*
X812341Y467908D01*
X813281Y468422D01*
X814256Y468867D01*
X815260Y469241D01*
X816288Y469543D01*
X817335Y469771D01*
X818396Y469924D01*
X819464Y470000D01*
X820536Y470000D01*
X821604Y469924D01*
X822665Y469771D01*
X823712Y469543D01*
X824740Y469241D01*
X825744Y468867D01*
X826719Y468422D01*
X827659Y467908D01*
X828560Y467329D01*
X829418Y466687D01*
X830228Y465985D01*
X830985Y465228D01*
X831687Y464418D01*
X832329Y463560D01*
X832908Y462659D01*
X833422Y461719D01*
X833867Y460744D01*
X834241Y459740D01*
X834543Y458712D01*
X834771Y457665D01*
X834924Y456604D01*
X835000Y455536D01*
X835000Y454464D01*
X331500Y454548D02*
X331429Y453647D01*
X331288Y452755D01*
X331077Y451876D01*
X330798Y451017D01*
X330452Y450182D01*
X330041Y449377D01*
X329569Y448606D01*
X329038Y447875D01*
X328451Y447188D01*
X327812Y446549D01*
X327125Y445962D01*
X326394Y445431D01*
X325623Y444959D01*
X324818Y444548D01*
X323983Y444202D01*
X323124Y443923D01*
X322245Y443712D01*
X321353Y443571D01*
X320452Y443500D01*
X319548Y443500D01*
X318647Y443571D01*
X317755Y443712D01*
X316876Y443923D01*
X316017Y444202D01*
X315182Y444548D01*
X314377Y444959D01*
X313606Y445431D01*
X312875Y445962D01*
X312188Y446549D01*
X311549Y447188D01*
X310962Y447875D01*
X310431Y448606D01*
X309959Y449377D01*
X309548Y450182D01*
X309202Y451017D01*
X308923Y451876D01*
X308712Y452755D01*
X308571Y453647D01*
X308500Y454548D01*
X308500Y455452D01*
X308571Y456353D01*
X308712Y457245D01*
X308923Y458124D01*
X309202Y458983D01*
X309548Y459818D01*
X309959Y460623D01*
X310431Y461394D01*
X310962Y462125D01*
X311549Y462812D01*
X312188Y463451D01*
X312875Y464038D01*
X313606Y464569D01*
X314377Y465041D01*
X315182Y465452D01*
X316017Y465798D01*
X316876Y466077D01*
X317755Y466288D01*
X318647Y466429D01*
X319548Y466500D01*
X320452Y466500D01*
X321353Y466429D01*
X322245Y466288D01*
X323124Y466077D01*
X323983Y465798D01*
X324818Y465452D01*
X325623Y465041D01*
X326394Y464569D01*
X327125Y464038D01*
X327812Y463451D01*
X328451Y462812D01*
X329038Y462125D01*
X329569Y461394D01*
X330041Y460623D01*
X330452Y459818D01*
X330798Y458983D01*
X331077Y458124D01*
X331288Y457245D01*
X331429Y456353D01*
X331500Y455452D01*
X331500Y454548D01*
X791500Y454548D02*
X791429Y453647D01*
X791288Y452755D01*
X791077Y451876D01*
X790798Y451017D01*
X790452Y450182D01*
X790041Y449377D01*
X789569Y448606D01*
X789038Y447875D01*
X788451Y447188D01*
X787812Y446549D01*
X787125Y445962D01*
X786394Y445431D01*
X785623Y444959D01*
X784818Y444548D01*
X783983Y444202D01*
X783124Y443923D01*
X782245Y443712D01*
X781353Y443571D01*
X780452Y443500D01*
X779548Y443500D01*
X778647Y443571D01*
X777755Y443712D01*
X776876Y443923D01*
X776017Y444202D01*
X775182Y444548D01*
X774377Y444959D01*
X773606Y445431D01*
X772875Y445962D01*
X772188Y446549D01*
X771549Y447188D01*
X770962Y447875D01*
X770431Y448606D01*
X769959Y449377D01*
X769548Y450182D01*
X769202Y451017D01*
X768923Y451876D01*
X768712Y452755D01*
X768571Y453647D01*
X768500Y454548D01*
X768500Y455452D01*
X768571Y456353D01*
X768712Y457245D01*
X768923Y458124D01*
X769202Y458983D01*
X769548Y459818D01*
X769959Y460623D01*
X770431Y461394D01*
X770962Y462125D01*
X771549Y462812D01*
X772188Y463451D01*
X772875Y464038D01*
X773606Y464569D01*
X774377Y465041D01*
X775182Y465452D01*
X776017Y465798D01*
X776876Y466077D01*
X777755Y466288D01*
X778647Y466429D01*
X779548Y466500D01*
X780452Y466500D01*
X781353Y466429D01*
X782245Y466288D01*
X783124Y466077D01*
X783983Y465798D01*
X784818Y465452D01*
X785623Y465041D01*
X786394Y464569D01*
X787125Y464038D01*
X787812Y463451D01*
X788451Y462812D01*
X789038Y462125D01*
X789569Y461394D01*
X790041Y460623D01*
X790452Y459818D01*
X790798Y458983D01*
X791077Y458124D01*
X791288Y457245D01*
X791429Y456353D01*
X791500Y455452D01*
X791500Y454548D01*
M02*
