G04 EAGLE Gerber X2 export*
G04 #@! %TF.Part,Single*
G04 #@! %TF.FileFunction,Soldermask,Bot,1*
G04 #@! %TF.FilePolarity,Negative*
G04 #@! %TF.GenerationSoftware,Autodesk,EAGLE,8.6.0*
G04 #@! %TF.CreationDate,2018-03-08T00:53:42Z*
G75*
%MOMM*%
%FSLAX34Y34*%
%LPD*%
%AMOC8*
5,1,8,0,0,1.08239X$1,22.5*%
G01*
%ADD10P,1.787026X8X202.600000*%
%ADD11C,1.549400*%
%ADD12P,1.787026X8X22.500000*%
%ADD13P,1.951982X8X202.500000*%
%ADD14P,1.951982X8X112.500000*%
%ADD15P,1.951982X8X292.500000*%
%ADD16C,0.731000*%


D10*
X475380Y162782D03*
X475425Y137382D03*
X449980Y162738D03*
X450025Y137338D03*
X424580Y162694D03*
X424625Y137294D03*
D11*
X320000Y230000D03*
X340000Y230000D03*
X360000Y230000D03*
X380000Y230000D03*
D12*
X624635Y137302D03*
X624635Y162702D03*
X650035Y137302D03*
X650035Y162702D03*
X675435Y137302D03*
X675435Y162702D03*
D11*
X720000Y230000D03*
X740000Y230000D03*
X760000Y230000D03*
X780000Y230000D03*
D13*
X560100Y139200D03*
X540100Y139200D03*
D11*
X510000Y415000D03*
X530000Y415000D03*
X550000Y415000D03*
X570000Y415000D03*
X590000Y415000D03*
X680000Y260000D03*
X680000Y280000D03*
X680000Y300000D03*
X680000Y320000D03*
X390000Y300000D03*
X370000Y300000D03*
X350000Y300000D03*
D13*
X260000Y340000D03*
X240000Y340000D03*
X300000Y390000D03*
X280000Y390000D03*
X860000Y340000D03*
X840000Y340000D03*
X820000Y390000D03*
X800000Y390000D03*
D14*
X230000Y270000D03*
X230000Y290000D03*
X240000Y210000D03*
X240000Y230000D03*
D15*
X870000Y290000D03*
X870000Y270000D03*
X860000Y230000D03*
X860000Y210000D03*
D11*
X355000Y395000D03*
X375000Y395000D03*
X725000Y395000D03*
X745000Y395000D03*
D16*
X730100Y279300D03*
X817800Y220900D03*
X654200Y262200D03*
X517500Y285100D03*
X430500Y290600D03*
X463300Y268900D03*
X567600Y285100D03*
X821800Y142400D03*
X809900Y169800D03*
X486300Y383200D03*
X532500Y374200D03*
X517500Y373800D03*
X655700Y380000D03*
X786900Y167300D03*
X803200Y226300D03*
X729900Y266300D03*
X476900Y182400D03*
X514800Y182700D03*
X583500Y181100D03*
X617000Y181400D03*
X718400Y205400D03*
X380800Y203400D03*
X396300Y238300D03*
X679800Y229200D03*
X498200Y279300D03*
X585600Y302600D03*
X550100Y330300D03*
X383300Y133200D03*
X412600Y199900D03*
X457700Y210100D03*
X514400Y154500D03*
X642300Y214400D03*
X717300Y133000D03*
X684400Y208300D03*
X590900Y160600D03*
X406900Y141400D03*
X693800Y137900D03*
X504100Y386500D03*
X477000Y342500D03*
X438900Y328500D03*
X593300Y357500D03*
X414300Y282900D03*
X334700Y282900D03*
X260000Y262000D03*
X540600Y297500D03*
X588700Y342400D03*
X406500Y399600D03*
X514900Y359500D03*
X534600Y342300D03*
X379500Y349500D03*
X394900Y349100D03*
X889900Y192200D03*
X714700Y260100D03*
X585800Y286000D03*
X286900Y275900D03*
X270200Y261200D03*
X329000Y431100D03*
X378300Y441800D03*
X421600Y434700D03*
X276900Y311300D03*
X822100Y311300D03*
X770700Y431400D03*
X690500Y442900D03*
X717600Y414200D03*
X199800Y149800D03*
X206000Y225300D03*
X899900Y151900D03*
X919100Y197800D03*
X160900Y210900D03*
X938400Y209200D03*
X670600Y453300D03*
X431800Y451100D03*
X182600Y117400D03*
X755500Y342300D03*
X768300Y355800D03*
X581600Y323900D03*
X763300Y337000D03*
X775700Y350400D03*
X576600Y315500D03*
X669300Y354000D03*
X702600Y387300D03*
X717400Y323400D03*
X770000Y309200D03*
M02*
