M48
;GenerationSoftware,Autodesk,EAGLE,8.6.0*%
;CreationDate,2018-03-08T02:15:53Z*%
FMAT,2
ICI,OFF
METRIC,TZ,000.000
T3C0.350
T2C0.800
T1C1.016
%
G90
M71
T1
X50810Y35000
X48270Y35000
X45730Y35000
X35570Y35000
X43190Y35000
X40650Y35000
X38110Y35000
X48270Y56610
X45730Y56610
X43190Y56610
X45730Y32000
X50810Y56610
X48270Y32000
X58430Y35000
X55890Y35000
X53350Y35000
T2
X31000Y42000
X29000Y42000
X27000Y42000
X27500Y51500
X29500Y51500
X66500Y51500
X28000Y54000
X30000Y54000
X32000Y54000
X34000Y54000
X36000Y54000
X44400Y53490
X42400Y53490
X40400Y53490
X38400Y53490
X70000Y38000
X72000Y38000
X66000Y54000
X64000Y54000
X62000Y54000
X60000Y54000
X58000Y54000
X68000Y35000
X24000Y35000
X26000Y35000
X28000Y35000
X30000Y35000
X64000Y35000
X66000Y35000
X64500Y51500
X70000Y35000
X60000Y38000
X60000Y40000
X60000Y42000
X60000Y44000
T3
X57440Y48000
X44220Y49360
X45640Y49370
X44240Y40810
X38560Y38270
X48270Y41420
X42860Y43670
X37000Y50930
X60940Y51080
X64640Y49500
X21710Y37360
X73270Y34920
X56990Y39740
X72380Y35680
X62220Y36610
X42900Y45750
X31890Y46240
X38750Y41030
X44210Y43060
X38690Y40090
X46060Y43830
X47270Y47750
X45571Y37909
X45240Y40610
X51370Y51120
X32310Y51690
X35310Y51690
X20890Y34690
X42420Y39250
X42750Y47490
X33000Y55220
X56880Y43750
X38380Y39250
X36290Y37160
X33610Y36800
X60970Y49310
X56850Y45160
X47820Y37670
X55030Y54010
M30