G04 EAGLE Gerber X2 export*
G04 #@! %TF.Part,Single*
G04 #@! %TF.FileFunction,Profile,NP*
G04 #@! %TF.FilePolarity,Positive*
G04 #@! %TF.GenerationSoftware,Autodesk,EAGLE,8.6.0*
G04 #@! %TF.CreationDate,2018-03-08T02:15:54Z*
G75*
%MOMM*%
%FSLAX34Y34*%
%LPD*%
%AMOC8*
5,1,8,0,0,1.08239X$1,22.5*%
G01*
%ADD10C,0.254000*%


D10*
X180000Y320000D02*
X185000Y295000D01*
X190000Y290000D01*
X280000Y290000D01*
X285000Y295000D01*
X295000Y315000D01*
X307500Y320000D01*
X430000Y320000D01*
X442500Y315000D01*
X447500Y302500D01*
X452500Y300000D01*
X487500Y300000D01*
X492500Y302500D01*
X497500Y315000D01*
X510000Y320000D01*
X630000Y320000D01*
X642500Y315000D01*
X655000Y295000D01*
X660000Y290000D01*
X750000Y290000D01*
X755000Y295000D01*
X760000Y320000D01*
X760000Y325000D01*
X662500Y575000D01*
X652500Y580000D01*
X587500Y580000D01*
X577500Y575000D01*
X567500Y562500D01*
X532500Y562500D01*
X525000Y572500D01*
X522500Y582500D01*
X517500Y587500D01*
X422500Y587500D01*
X417500Y582500D01*
X415000Y572500D01*
X407500Y562500D01*
X372500Y562500D01*
X362500Y575000D01*
X352500Y580000D01*
X287500Y580000D01*
X277500Y575000D01*
X180000Y325000D01*
X180000Y320000D01*
M02*
