G04 EAGLE Gerber X2 export*
G04 #@! %TF.Part,Single*
G04 #@! %TF.FileFunction,Legend,Top,1*
G04 #@! %TF.FilePolarity,Positive*
G04 #@! %TF.GenerationSoftware,Autodesk,EAGLE,8.6.0*
G04 #@! %TF.CreationDate,2018-03-08T02:15:54Z*
G75*
%MOMM*%
%FSLAX34Y34*%
%LPD*%
%AMOC8*
5,1,8,0,0,1.08239X$1,22.5*%
G01*
%ADD10C,0.152400*%
%ADD11C,0.127000*%
%ADD12R,0.508000X0.508000*%
%ADD13C,0.025400*%
%ADD14C,0.203200*%

G36*
X439551Y474891D02*
X439551Y474891D01*
X439597Y474904D01*
X439673Y474915D01*
X440864Y475276D01*
X440907Y475298D01*
X440979Y475324D01*
X442077Y475911D01*
X442115Y475941D01*
X442180Y475980D01*
X443143Y476770D01*
X443174Y476806D01*
X443230Y476858D01*
X444020Y477820D01*
X444044Y477862D01*
X444089Y477923D01*
X444676Y479021D01*
X444691Y479067D01*
X444724Y479136D01*
X445085Y480327D01*
X445090Y480368D01*
X445094Y480380D01*
X445094Y480388D01*
X445109Y480449D01*
X445231Y481688D01*
X445227Y481736D01*
X445231Y481812D01*
X445109Y483051D01*
X445096Y483097D01*
X445093Y483122D01*
X445092Y483142D01*
X445088Y483151D01*
X445085Y483173D01*
X444724Y484364D01*
X444702Y484407D01*
X444676Y484479D01*
X444089Y485577D01*
X444059Y485615D01*
X444020Y485680D01*
X443230Y486643D01*
X443194Y486674D01*
X443143Y486730D01*
X442180Y487520D01*
X442138Y487544D01*
X442077Y487589D01*
X440979Y488176D01*
X440933Y488191D01*
X440864Y488224D01*
X439673Y488585D01*
X439625Y488591D01*
X439551Y488609D01*
X438312Y488731D01*
X438264Y488727D01*
X438188Y488731D01*
X436949Y488609D01*
X436903Y488596D01*
X436827Y488585D01*
X435636Y488224D01*
X435593Y488202D01*
X435521Y488176D01*
X434423Y487589D01*
X434385Y487559D01*
X434320Y487520D01*
X433358Y486730D01*
X433326Y486694D01*
X433270Y486643D01*
X432480Y485680D01*
X432456Y485638D01*
X432411Y485577D01*
X431824Y484479D01*
X431809Y484433D01*
X431776Y484364D01*
X431415Y483173D01*
X431410Y483130D01*
X431401Y483105D01*
X431402Y483094D01*
X431391Y483051D01*
X431269Y481812D01*
X431273Y481764D01*
X431269Y481688D01*
X431391Y480449D01*
X431404Y480403D01*
X431415Y480327D01*
X431776Y479136D01*
X431798Y479093D01*
X431824Y479021D01*
X432411Y477923D01*
X432441Y477885D01*
X432480Y477820D01*
X433270Y476858D01*
X433306Y476826D01*
X433358Y476770D01*
X434320Y475980D01*
X434362Y475956D01*
X434423Y475911D01*
X435521Y475324D01*
X435567Y475309D01*
X435636Y475276D01*
X436827Y474915D01*
X436875Y474909D01*
X436949Y474891D01*
X438188Y474769D01*
X438236Y474773D01*
X438312Y474769D01*
X439551Y474891D01*
G37*
D10*
X512500Y500000D02*
X427500Y500000D01*
X420000Y492500D02*
X420000Y407500D01*
X427500Y400000D02*
X512500Y400000D01*
X520000Y407500D02*
X520000Y492500D01*
X512500Y500000D01*
X520000Y407500D02*
X512500Y400000D01*
X427500Y400000D02*
X420000Y407500D01*
X420000Y492500D02*
X427500Y500000D01*
D11*
X463160Y452540D02*
X463160Y448871D01*
X463162Y448797D01*
X463168Y448724D01*
X463177Y448650D01*
X463191Y448578D01*
X463208Y448506D01*
X463229Y448435D01*
X463254Y448365D01*
X463282Y448297D01*
X463314Y448230D01*
X463349Y448166D01*
X463388Y448103D01*
X463429Y448042D01*
X463474Y447983D01*
X463522Y447927D01*
X463573Y447873D01*
X463627Y447822D01*
X463683Y447774D01*
X463742Y447729D01*
X463803Y447688D01*
X463866Y447649D01*
X463930Y447614D01*
X463997Y447582D01*
X464065Y447554D01*
X464135Y447529D01*
X464206Y447508D01*
X464278Y447491D01*
X464350Y447477D01*
X464424Y447468D01*
X464497Y447462D01*
X464571Y447460D01*
X464645Y447462D01*
X464718Y447468D01*
X464792Y447477D01*
X464864Y447491D01*
X464936Y447508D01*
X465007Y447529D01*
X465077Y447554D01*
X465145Y447582D01*
X465212Y447614D01*
X465277Y447649D01*
X465339Y447688D01*
X465400Y447729D01*
X465459Y447774D01*
X465515Y447822D01*
X465569Y447873D01*
X465620Y447927D01*
X465668Y447983D01*
X465713Y448042D01*
X465754Y448103D01*
X465793Y448166D01*
X465828Y448230D01*
X465860Y448297D01*
X465888Y448365D01*
X465913Y448435D01*
X465934Y448506D01*
X465951Y448578D01*
X465965Y448650D01*
X465974Y448724D01*
X465980Y448797D01*
X465982Y448871D01*
X465982Y452540D01*
X470095Y452540D02*
X470095Y447460D01*
X470095Y450000D02*
X469390Y450423D01*
X469389Y450423D02*
X469342Y450454D01*
X469296Y450488D01*
X469253Y450525D01*
X469213Y450564D01*
X469175Y450607D01*
X469140Y450651D01*
X469109Y450698D01*
X469080Y450747D01*
X469055Y450798D01*
X469033Y450851D01*
X469015Y450904D01*
X469001Y450959D01*
X468990Y451015D01*
X468983Y451071D01*
X468980Y451128D01*
X468981Y451184D01*
X468985Y451241D01*
X468994Y451297D01*
X469006Y451352D01*
X469021Y451407D01*
X469041Y451460D01*
X469063Y451512D01*
X469090Y451562D01*
X469119Y451610D01*
X469152Y451657D01*
X469188Y451700D01*
X469227Y451742D01*
X469268Y451781D01*
X469312Y451816D01*
X469358Y451849D01*
X469406Y451879D01*
X469457Y451905D01*
X469508Y451928D01*
X469562Y451947D01*
X469616Y451963D01*
X469672Y451975D01*
X469672Y451976D02*
X469761Y451990D01*
X469850Y452001D01*
X469939Y452008D01*
X470028Y452012D01*
X470118Y452012D01*
X470207Y452008D01*
X470297Y452001D01*
X470386Y451990D01*
X470474Y451976D01*
X470562Y451958D01*
X470649Y451937D01*
X470735Y451912D01*
X470820Y451884D01*
X470904Y451852D01*
X470986Y451817D01*
X471067Y451779D01*
X471147Y451738D01*
X471224Y451693D01*
X470095Y450000D02*
X470801Y449577D01*
X470848Y449546D01*
X470894Y449512D01*
X470937Y449475D01*
X470977Y449436D01*
X471015Y449393D01*
X471050Y449349D01*
X471081Y449302D01*
X471110Y449253D01*
X471135Y449202D01*
X471157Y449149D01*
X471175Y449096D01*
X471189Y449041D01*
X471200Y448985D01*
X471207Y448929D01*
X471210Y448872D01*
X471209Y448816D01*
X471205Y448759D01*
X471196Y448703D01*
X471184Y448648D01*
X471169Y448593D01*
X471149Y448540D01*
X471127Y448488D01*
X471100Y448438D01*
X471071Y448390D01*
X471038Y448343D01*
X471002Y448300D01*
X470963Y448258D01*
X470922Y448219D01*
X470878Y448184D01*
X470832Y448151D01*
X470784Y448121D01*
X470733Y448095D01*
X470682Y448072D01*
X470628Y448053D01*
X470574Y448037D01*
X470519Y448025D01*
X470519Y448024D02*
X470430Y448010D01*
X470342Y447999D01*
X470252Y447992D01*
X470163Y447988D01*
X470073Y447988D01*
X469984Y447992D01*
X469894Y447999D01*
X469805Y448010D01*
X469717Y448024D01*
X469629Y448042D01*
X469542Y448063D01*
X469456Y448088D01*
X469371Y448116D01*
X469287Y448148D01*
X469205Y448183D01*
X469124Y448221D01*
X469044Y448262D01*
X468967Y448307D01*
X474018Y451411D02*
X475429Y452540D01*
X475429Y447460D01*
X474018Y447460D02*
X476840Y447460D01*
X384351Y482494D02*
X384351Y483566D01*
X384351Y482494D02*
X384349Y482429D01*
X384343Y482365D01*
X384333Y482301D01*
X384320Y482237D01*
X384302Y482175D01*
X384281Y482114D01*
X384257Y482054D01*
X384228Y481996D01*
X384196Y481939D01*
X384161Y481885D01*
X384123Y481833D01*
X384081Y481783D01*
X384037Y481736D01*
X383990Y481692D01*
X383940Y481650D01*
X383888Y481612D01*
X383834Y481577D01*
X383777Y481545D01*
X383719Y481516D01*
X383659Y481492D01*
X383598Y481471D01*
X383536Y481453D01*
X383472Y481440D01*
X383408Y481430D01*
X383344Y481424D01*
X383279Y481422D01*
X383279Y481421D02*
X380597Y481421D01*
X380532Y481423D01*
X380468Y481429D01*
X380404Y481439D01*
X380340Y481452D01*
X380278Y481470D01*
X380217Y481491D01*
X380157Y481516D01*
X380098Y481544D01*
X380042Y481576D01*
X379987Y481611D01*
X379935Y481649D01*
X379885Y481691D01*
X379838Y481735D01*
X379794Y481782D01*
X379752Y481832D01*
X379714Y481884D01*
X379679Y481939D01*
X379647Y481995D01*
X379619Y482054D01*
X379594Y482113D01*
X379573Y482175D01*
X379555Y482237D01*
X379542Y482301D01*
X379532Y482365D01*
X379526Y482429D01*
X379524Y482494D01*
X379525Y482494D02*
X379525Y483566D01*
X384887Y485742D02*
X384887Y487886D01*
X384351Y491752D02*
X379525Y490143D01*
X379525Y493360D02*
X384351Y491752D01*
X384351Y495898D02*
X384351Y497238D01*
X384349Y497309D01*
X384343Y497381D01*
X384334Y497451D01*
X384321Y497521D01*
X384304Y497591D01*
X384283Y497659D01*
X384259Y497726D01*
X384231Y497792D01*
X384200Y497856D01*
X384165Y497919D01*
X384127Y497979D01*
X384086Y498038D01*
X384042Y498094D01*
X383995Y498148D01*
X383946Y498199D01*
X383893Y498247D01*
X383838Y498293D01*
X383781Y498335D01*
X383721Y498375D01*
X383660Y498411D01*
X383596Y498444D01*
X383531Y498473D01*
X383465Y498499D01*
X383397Y498522D01*
X383328Y498541D01*
X383258Y498556D01*
X383188Y498567D01*
X383117Y498575D01*
X383046Y498579D01*
X382974Y498579D01*
X382903Y498575D01*
X382832Y498567D01*
X382762Y498556D01*
X382692Y498541D01*
X382623Y498522D01*
X382555Y498499D01*
X382489Y498473D01*
X382424Y498444D01*
X382360Y498411D01*
X382299Y498375D01*
X382239Y498335D01*
X382182Y498293D01*
X382127Y498247D01*
X382074Y498199D01*
X382025Y498148D01*
X381978Y498094D01*
X381934Y498038D01*
X381893Y497979D01*
X381855Y497919D01*
X381820Y497856D01*
X381789Y497792D01*
X381761Y497726D01*
X381737Y497659D01*
X381716Y497591D01*
X381699Y497521D01*
X381686Y497451D01*
X381677Y497381D01*
X381671Y497309D01*
X381669Y497238D01*
X379525Y497506D02*
X379525Y495898D01*
X379525Y497506D02*
X379527Y497571D01*
X379533Y497635D01*
X379543Y497699D01*
X379556Y497763D01*
X379574Y497825D01*
X379595Y497886D01*
X379619Y497946D01*
X379648Y498004D01*
X379680Y498061D01*
X379715Y498115D01*
X379753Y498167D01*
X379795Y498217D01*
X379839Y498264D01*
X379886Y498308D01*
X379936Y498350D01*
X379988Y498388D01*
X380042Y498423D01*
X380099Y498455D01*
X380157Y498484D01*
X380217Y498508D01*
X380278Y498529D01*
X380340Y498547D01*
X380404Y498560D01*
X380468Y498570D01*
X380532Y498576D01*
X380597Y498578D01*
X380662Y498576D01*
X380726Y498570D01*
X380790Y498560D01*
X380854Y498547D01*
X380916Y498529D01*
X380977Y498508D01*
X381037Y498484D01*
X381095Y498455D01*
X381152Y498423D01*
X381206Y498388D01*
X381258Y498350D01*
X381308Y498308D01*
X381355Y498264D01*
X381399Y498217D01*
X381441Y498167D01*
X381479Y498115D01*
X381514Y498061D01*
X381546Y498004D01*
X381575Y497946D01*
X381599Y497886D01*
X381620Y497825D01*
X381638Y497763D01*
X381651Y497699D01*
X381661Y497635D01*
X381667Y497571D01*
X381669Y497506D01*
X381670Y497506D02*
X381670Y496434D01*
X404351Y481006D02*
X404351Y479934D01*
X404349Y479869D01*
X404343Y479805D01*
X404333Y479741D01*
X404320Y479677D01*
X404302Y479615D01*
X404281Y479554D01*
X404257Y479494D01*
X404228Y479436D01*
X404196Y479379D01*
X404161Y479325D01*
X404123Y479273D01*
X404081Y479223D01*
X404037Y479176D01*
X403990Y479132D01*
X403940Y479090D01*
X403888Y479052D01*
X403834Y479017D01*
X403777Y478985D01*
X403719Y478956D01*
X403659Y478932D01*
X403598Y478911D01*
X403536Y478893D01*
X403472Y478880D01*
X403408Y478870D01*
X403344Y478864D01*
X403279Y478862D01*
X403279Y478861D02*
X400597Y478861D01*
X400532Y478863D01*
X400468Y478869D01*
X400404Y478879D01*
X400340Y478892D01*
X400278Y478910D01*
X400217Y478931D01*
X400157Y478956D01*
X400098Y478984D01*
X400042Y479016D01*
X399987Y479051D01*
X399935Y479089D01*
X399885Y479131D01*
X399838Y479175D01*
X399794Y479222D01*
X399752Y479272D01*
X399714Y479324D01*
X399679Y479379D01*
X399647Y479435D01*
X399619Y479494D01*
X399594Y479553D01*
X399573Y479615D01*
X399555Y479677D01*
X399542Y479741D01*
X399532Y479805D01*
X399526Y479869D01*
X399524Y479934D01*
X399525Y479934D02*
X399525Y481006D01*
X404887Y483181D02*
X404887Y485326D01*
X401670Y488180D02*
X401670Y489521D01*
X401669Y489521D02*
X401671Y489592D01*
X401677Y489664D01*
X401686Y489734D01*
X401699Y489804D01*
X401716Y489874D01*
X401737Y489942D01*
X401761Y490009D01*
X401789Y490075D01*
X401820Y490139D01*
X401855Y490202D01*
X401893Y490262D01*
X401934Y490321D01*
X401978Y490377D01*
X402025Y490431D01*
X402074Y490482D01*
X402127Y490530D01*
X402182Y490576D01*
X402239Y490618D01*
X402299Y490658D01*
X402360Y490694D01*
X402424Y490727D01*
X402489Y490756D01*
X402555Y490782D01*
X402623Y490805D01*
X402692Y490824D01*
X402762Y490839D01*
X402832Y490850D01*
X402903Y490858D01*
X402974Y490862D01*
X403046Y490862D01*
X403117Y490858D01*
X403188Y490850D01*
X403258Y490839D01*
X403328Y490824D01*
X403397Y490805D01*
X403465Y490782D01*
X403531Y490756D01*
X403596Y490727D01*
X403660Y490694D01*
X403721Y490658D01*
X403781Y490618D01*
X403838Y490576D01*
X403893Y490530D01*
X403946Y490482D01*
X403995Y490431D01*
X404042Y490377D01*
X404086Y490321D01*
X404127Y490262D01*
X404165Y490202D01*
X404200Y490139D01*
X404231Y490075D01*
X404259Y490009D01*
X404283Y489942D01*
X404304Y489874D01*
X404321Y489804D01*
X404334Y489734D01*
X404343Y489664D01*
X404349Y489592D01*
X404351Y489521D01*
X404351Y488180D01*
X399525Y488180D01*
X399525Y489521D01*
X399527Y489586D01*
X399533Y489650D01*
X399543Y489714D01*
X399556Y489778D01*
X399574Y489840D01*
X399595Y489901D01*
X399619Y489961D01*
X399648Y490019D01*
X399680Y490076D01*
X399715Y490130D01*
X399753Y490182D01*
X399795Y490232D01*
X399839Y490279D01*
X399886Y490323D01*
X399936Y490365D01*
X399988Y490403D01*
X400042Y490438D01*
X400099Y490470D01*
X400157Y490499D01*
X400217Y490523D01*
X400278Y490544D01*
X400340Y490562D01*
X400404Y490575D01*
X400468Y490585D01*
X400532Y490591D01*
X400597Y490593D01*
X400662Y490591D01*
X400726Y490585D01*
X400790Y490575D01*
X400854Y490562D01*
X400916Y490544D01*
X400977Y490523D01*
X401037Y490499D01*
X401095Y490470D01*
X401152Y490438D01*
X401206Y490403D01*
X401258Y490365D01*
X401308Y490323D01*
X401355Y490279D01*
X401399Y490232D01*
X401441Y490182D01*
X401479Y490130D01*
X401514Y490076D01*
X401546Y490019D01*
X401575Y489961D01*
X401599Y489901D01*
X401620Y489840D01*
X401638Y489778D01*
X401651Y489714D01*
X401661Y489650D01*
X401667Y489586D01*
X401669Y489521D01*
X404351Y493069D02*
X399525Y494678D01*
X404351Y496286D01*
X403145Y495884D02*
X403145Y493471D01*
X404351Y499798D02*
X399525Y499798D01*
X399525Y498458D02*
X399525Y501139D01*
X404351Y430823D02*
X404351Y429751D01*
X404349Y429686D01*
X404343Y429622D01*
X404333Y429558D01*
X404320Y429494D01*
X404302Y429432D01*
X404281Y429371D01*
X404257Y429311D01*
X404228Y429253D01*
X404196Y429196D01*
X404161Y429142D01*
X404123Y429090D01*
X404081Y429040D01*
X404037Y428993D01*
X403990Y428949D01*
X403940Y428907D01*
X403888Y428869D01*
X403834Y428834D01*
X403777Y428802D01*
X403719Y428773D01*
X403659Y428749D01*
X403598Y428728D01*
X403536Y428710D01*
X403472Y428697D01*
X403408Y428687D01*
X403344Y428681D01*
X403279Y428679D01*
X403279Y428678D02*
X400597Y428678D01*
X400532Y428680D01*
X400468Y428686D01*
X400404Y428696D01*
X400340Y428709D01*
X400278Y428727D01*
X400217Y428748D01*
X400157Y428773D01*
X400098Y428801D01*
X400042Y428833D01*
X399987Y428868D01*
X399935Y428906D01*
X399885Y428948D01*
X399838Y428992D01*
X399794Y429039D01*
X399752Y429089D01*
X399714Y429141D01*
X399679Y429196D01*
X399647Y429252D01*
X399619Y429311D01*
X399594Y429370D01*
X399573Y429432D01*
X399555Y429494D01*
X399542Y429558D01*
X399532Y429622D01*
X399526Y429686D01*
X399524Y429751D01*
X399525Y429751D02*
X399525Y430823D01*
X404887Y432998D02*
X404887Y435143D01*
X404351Y439009D02*
X399525Y437400D01*
X399525Y440617D02*
X404351Y439009D01*
X404351Y442886D02*
X399525Y444495D01*
X404351Y446104D01*
X403145Y445701D02*
X403145Y443288D01*
X400597Y448641D02*
X399525Y449981D01*
X404351Y449981D01*
X404351Y448641D02*
X404351Y451322D01*
X384351Y430823D02*
X384351Y429751D01*
X384349Y429686D01*
X384343Y429622D01*
X384333Y429558D01*
X384320Y429494D01*
X384302Y429432D01*
X384281Y429371D01*
X384257Y429311D01*
X384228Y429253D01*
X384196Y429196D01*
X384161Y429142D01*
X384123Y429090D01*
X384081Y429040D01*
X384037Y428993D01*
X383990Y428949D01*
X383940Y428907D01*
X383888Y428869D01*
X383834Y428834D01*
X383777Y428802D01*
X383719Y428773D01*
X383659Y428749D01*
X383598Y428728D01*
X383536Y428710D01*
X383472Y428697D01*
X383408Y428687D01*
X383344Y428681D01*
X383279Y428679D01*
X383279Y428678D02*
X380597Y428678D01*
X380532Y428680D01*
X380468Y428686D01*
X380404Y428696D01*
X380340Y428709D01*
X380278Y428727D01*
X380217Y428748D01*
X380157Y428773D01*
X380098Y428801D01*
X380042Y428833D01*
X379987Y428868D01*
X379935Y428906D01*
X379885Y428948D01*
X379838Y428992D01*
X379794Y429039D01*
X379752Y429089D01*
X379714Y429141D01*
X379679Y429196D01*
X379647Y429252D01*
X379619Y429311D01*
X379594Y429370D01*
X379573Y429432D01*
X379555Y429494D01*
X379542Y429558D01*
X379532Y429622D01*
X379526Y429686D01*
X379524Y429751D01*
X379525Y429751D02*
X379525Y430823D01*
X384887Y432998D02*
X384887Y435143D01*
X384351Y439009D02*
X379525Y437400D01*
X379525Y440617D02*
X384351Y439009D01*
X384351Y442886D02*
X379525Y444495D01*
X384351Y446104D01*
X383145Y445701D02*
X383145Y443288D01*
X379525Y450115D02*
X379527Y450183D01*
X379533Y450250D01*
X379542Y450317D01*
X379555Y450384D01*
X379572Y450449D01*
X379593Y450514D01*
X379617Y450577D01*
X379645Y450639D01*
X379676Y450699D01*
X379710Y450757D01*
X379748Y450813D01*
X379788Y450868D01*
X379832Y450919D01*
X379879Y450968D01*
X379928Y451015D01*
X379979Y451059D01*
X380034Y451099D01*
X380090Y451137D01*
X380148Y451171D01*
X380208Y451202D01*
X380270Y451230D01*
X380333Y451254D01*
X380398Y451275D01*
X380463Y451292D01*
X380530Y451305D01*
X380597Y451314D01*
X380664Y451320D01*
X380732Y451322D01*
X379525Y450115D02*
X379527Y450037D01*
X379533Y449959D01*
X379543Y449882D01*
X379556Y449805D01*
X379574Y449729D01*
X379595Y449654D01*
X379620Y449580D01*
X379649Y449508D01*
X379681Y449437D01*
X379717Y449368D01*
X379756Y449300D01*
X379799Y449235D01*
X379845Y449172D01*
X379894Y449111D01*
X379946Y449053D01*
X380001Y448998D01*
X380058Y448945D01*
X380118Y448896D01*
X380181Y448849D01*
X380246Y448806D01*
X380312Y448766D01*
X380381Y448729D01*
X380452Y448696D01*
X380524Y448666D01*
X380598Y448640D01*
X381670Y450920D02*
X381621Y450969D01*
X381569Y451016D01*
X381514Y451059D01*
X381457Y451100D01*
X381398Y451138D01*
X381337Y451172D01*
X381274Y451203D01*
X381210Y451231D01*
X381144Y451255D01*
X381078Y451275D01*
X381010Y451292D01*
X380941Y451305D01*
X380872Y451314D01*
X380802Y451320D01*
X380732Y451322D01*
X381670Y450920D02*
X384351Y448641D01*
X384351Y451322D01*
X397594Y391825D02*
X398666Y391825D01*
X397594Y391825D02*
X397529Y391827D01*
X397465Y391833D01*
X397401Y391843D01*
X397337Y391856D01*
X397275Y391874D01*
X397214Y391895D01*
X397154Y391919D01*
X397096Y391948D01*
X397039Y391980D01*
X396985Y392015D01*
X396933Y392053D01*
X396883Y392095D01*
X396836Y392139D01*
X396792Y392186D01*
X396750Y392236D01*
X396712Y392288D01*
X396677Y392342D01*
X396645Y392399D01*
X396616Y392457D01*
X396592Y392517D01*
X396571Y392578D01*
X396553Y392640D01*
X396540Y392704D01*
X396530Y392768D01*
X396524Y392832D01*
X396522Y392897D01*
X396521Y392897D02*
X396521Y395579D01*
X396522Y395579D02*
X396524Y395644D01*
X396530Y395708D01*
X396540Y395772D01*
X396553Y395836D01*
X396571Y395898D01*
X396592Y395959D01*
X396616Y396019D01*
X396645Y396077D01*
X396677Y396134D01*
X396712Y396188D01*
X396750Y396240D01*
X396792Y396290D01*
X396836Y396337D01*
X396883Y396381D01*
X396933Y396423D01*
X396985Y396461D01*
X397039Y396496D01*
X397096Y396528D01*
X397154Y396557D01*
X397214Y396581D01*
X397275Y396602D01*
X397337Y396620D01*
X397401Y396633D01*
X397465Y396643D01*
X397529Y396649D01*
X397594Y396651D01*
X398666Y396651D01*
X400842Y391289D02*
X402986Y391289D01*
X406852Y391825D02*
X405243Y396651D01*
X408460Y396651D02*
X406852Y391825D01*
X410998Y395579D02*
X412338Y396651D01*
X412338Y391825D01*
X410998Y391825D02*
X413679Y391825D01*
X542494Y385649D02*
X543566Y385649D01*
X542494Y385649D02*
X542429Y385651D01*
X542365Y385657D01*
X542301Y385667D01*
X542237Y385680D01*
X542175Y385698D01*
X542114Y385719D01*
X542054Y385743D01*
X541996Y385772D01*
X541939Y385804D01*
X541885Y385839D01*
X541833Y385877D01*
X541783Y385919D01*
X541736Y385963D01*
X541692Y386010D01*
X541650Y386060D01*
X541612Y386112D01*
X541577Y386166D01*
X541545Y386223D01*
X541516Y386281D01*
X541492Y386341D01*
X541471Y386402D01*
X541453Y386464D01*
X541440Y386528D01*
X541430Y386592D01*
X541424Y386656D01*
X541422Y386721D01*
X541421Y386721D02*
X541421Y389403D01*
X541422Y389403D02*
X541424Y389468D01*
X541430Y389532D01*
X541440Y389596D01*
X541453Y389660D01*
X541471Y389722D01*
X541492Y389783D01*
X541516Y389843D01*
X541545Y389901D01*
X541577Y389958D01*
X541612Y390012D01*
X541650Y390064D01*
X541692Y390114D01*
X541736Y390161D01*
X541783Y390205D01*
X541833Y390247D01*
X541885Y390285D01*
X541939Y390320D01*
X541996Y390352D01*
X542054Y390381D01*
X542114Y390405D01*
X542175Y390426D01*
X542237Y390444D01*
X542301Y390457D01*
X542365Y390467D01*
X542429Y390473D01*
X542494Y390475D01*
X543566Y390475D01*
X545742Y385113D02*
X547886Y385113D01*
X551752Y385649D02*
X550143Y390475D01*
X553360Y390475D02*
X551752Y385649D01*
X555898Y386721D02*
X556970Y390475D01*
X555898Y386721D02*
X558579Y386721D01*
X557774Y385649D02*
X557774Y387794D01*
X540794Y365649D02*
X539721Y365649D01*
X539656Y365651D01*
X539592Y365657D01*
X539528Y365667D01*
X539464Y365680D01*
X539402Y365698D01*
X539341Y365719D01*
X539281Y365743D01*
X539223Y365772D01*
X539166Y365804D01*
X539112Y365839D01*
X539060Y365877D01*
X539010Y365919D01*
X538963Y365963D01*
X538919Y366010D01*
X538877Y366060D01*
X538839Y366112D01*
X538804Y366166D01*
X538772Y366223D01*
X538743Y366281D01*
X538719Y366341D01*
X538698Y366402D01*
X538680Y366464D01*
X538667Y366528D01*
X538657Y366592D01*
X538651Y366656D01*
X538649Y366721D01*
X538649Y369403D01*
X538650Y369403D02*
X538652Y369468D01*
X538658Y369532D01*
X538668Y369596D01*
X538681Y369660D01*
X538699Y369722D01*
X538720Y369783D01*
X538744Y369843D01*
X538773Y369901D01*
X538805Y369958D01*
X538840Y370012D01*
X538878Y370064D01*
X538920Y370114D01*
X538964Y370161D01*
X539011Y370205D01*
X539061Y370247D01*
X539113Y370285D01*
X539167Y370320D01*
X539224Y370352D01*
X539282Y370381D01*
X539342Y370405D01*
X539403Y370426D01*
X539465Y370444D01*
X539529Y370457D01*
X539593Y370467D01*
X539657Y370473D01*
X539722Y370475D01*
X539721Y370475D02*
X540794Y370475D01*
X542969Y365113D02*
X545114Y365113D01*
X548979Y365649D02*
X547371Y370475D01*
X550588Y370475D02*
X548979Y365649D01*
X554169Y365649D02*
X555241Y365649D01*
X554169Y365649D02*
X554104Y365651D01*
X554040Y365657D01*
X553976Y365667D01*
X553912Y365680D01*
X553850Y365698D01*
X553789Y365719D01*
X553729Y365743D01*
X553671Y365772D01*
X553614Y365804D01*
X553560Y365839D01*
X553508Y365877D01*
X553458Y365919D01*
X553411Y365963D01*
X553367Y366010D01*
X553325Y366060D01*
X553287Y366112D01*
X553252Y366166D01*
X553220Y366223D01*
X553191Y366281D01*
X553167Y366341D01*
X553146Y366402D01*
X553128Y366464D01*
X553115Y366528D01*
X553105Y366592D01*
X553099Y366656D01*
X553097Y366721D01*
X553096Y366721D02*
X553096Y369403D01*
X553097Y369403D02*
X553099Y369468D01*
X553105Y369532D01*
X553115Y369596D01*
X553128Y369660D01*
X553146Y369722D01*
X553167Y369783D01*
X553191Y369843D01*
X553220Y369901D01*
X553252Y369958D01*
X553287Y370012D01*
X553325Y370064D01*
X553367Y370114D01*
X553411Y370161D01*
X553458Y370205D01*
X553508Y370247D01*
X553560Y370285D01*
X553614Y370320D01*
X553671Y370352D01*
X553729Y370381D01*
X553789Y370405D01*
X553850Y370426D01*
X553912Y370444D01*
X553976Y370457D01*
X554040Y370467D01*
X554104Y370473D01*
X554169Y370475D01*
X555241Y370475D01*
X559038Y370475D02*
X557429Y365649D01*
X560646Y365649D02*
X559038Y370475D01*
X560244Y366856D02*
X557831Y366856D01*
X563513Y365649D02*
X563513Y370475D01*
X564853Y370475D01*
X564924Y370473D01*
X564996Y370467D01*
X565066Y370458D01*
X565136Y370445D01*
X565206Y370428D01*
X565274Y370407D01*
X565341Y370383D01*
X565407Y370355D01*
X565471Y370324D01*
X565534Y370289D01*
X565594Y370251D01*
X565653Y370210D01*
X565709Y370166D01*
X565763Y370119D01*
X565814Y370070D01*
X565862Y370017D01*
X565908Y369962D01*
X565950Y369905D01*
X565990Y369845D01*
X566026Y369784D01*
X566059Y369720D01*
X566088Y369655D01*
X566114Y369589D01*
X566137Y369521D01*
X566156Y369452D01*
X566171Y369382D01*
X566182Y369312D01*
X566190Y369241D01*
X566194Y369170D01*
X566194Y369098D01*
X566190Y369027D01*
X566182Y368956D01*
X566171Y368886D01*
X566156Y368816D01*
X566137Y368747D01*
X566114Y368679D01*
X566088Y368613D01*
X566059Y368548D01*
X566026Y368484D01*
X565990Y368423D01*
X565950Y368363D01*
X565908Y368306D01*
X565862Y368251D01*
X565814Y368198D01*
X565763Y368149D01*
X565709Y368102D01*
X565653Y368058D01*
X565594Y368017D01*
X565534Y367979D01*
X565471Y367944D01*
X565407Y367913D01*
X565341Y367885D01*
X565274Y367861D01*
X565206Y367840D01*
X565136Y367823D01*
X565066Y367810D01*
X564996Y367801D01*
X564924Y367795D01*
X564853Y367793D01*
X564853Y367794D02*
X563513Y367794D01*
X568670Y369403D02*
X570010Y370475D01*
X570010Y365649D01*
X568670Y365649D02*
X571351Y365649D01*
X548566Y509525D02*
X547494Y509525D01*
X547429Y509527D01*
X547365Y509533D01*
X547301Y509543D01*
X547237Y509556D01*
X547175Y509574D01*
X547114Y509595D01*
X547054Y509619D01*
X546996Y509648D01*
X546939Y509680D01*
X546885Y509715D01*
X546833Y509753D01*
X546783Y509795D01*
X546736Y509839D01*
X546692Y509886D01*
X546650Y509936D01*
X546612Y509988D01*
X546577Y510042D01*
X546545Y510099D01*
X546516Y510157D01*
X546492Y510217D01*
X546471Y510278D01*
X546453Y510340D01*
X546440Y510404D01*
X546430Y510468D01*
X546424Y510532D01*
X546422Y510597D01*
X546421Y510597D02*
X546421Y513279D01*
X546422Y513279D02*
X546424Y513344D01*
X546430Y513408D01*
X546440Y513472D01*
X546453Y513536D01*
X546471Y513598D01*
X546492Y513659D01*
X546516Y513719D01*
X546545Y513777D01*
X546577Y513834D01*
X546612Y513888D01*
X546650Y513940D01*
X546692Y513990D01*
X546736Y514037D01*
X546783Y514081D01*
X546833Y514123D01*
X546885Y514161D01*
X546939Y514196D01*
X546996Y514228D01*
X547054Y514257D01*
X547114Y514281D01*
X547175Y514302D01*
X547237Y514320D01*
X547301Y514333D01*
X547365Y514343D01*
X547429Y514349D01*
X547494Y514351D01*
X548566Y514351D01*
X550742Y508989D02*
X552886Y508989D01*
X556752Y509525D02*
X555143Y514351D01*
X558360Y514351D02*
X556752Y509525D01*
X562372Y514351D02*
X562440Y514349D01*
X562507Y514343D01*
X562574Y514334D01*
X562641Y514321D01*
X562706Y514304D01*
X562771Y514283D01*
X562834Y514259D01*
X562896Y514231D01*
X562956Y514200D01*
X563014Y514166D01*
X563070Y514128D01*
X563125Y514088D01*
X563176Y514044D01*
X563225Y513997D01*
X563272Y513948D01*
X563316Y513897D01*
X563356Y513842D01*
X563394Y513786D01*
X563428Y513728D01*
X563459Y513668D01*
X563487Y513606D01*
X563511Y513543D01*
X563532Y513478D01*
X563549Y513413D01*
X563562Y513346D01*
X563571Y513279D01*
X563577Y513212D01*
X563579Y513144D01*
X562372Y514351D02*
X562294Y514349D01*
X562216Y514343D01*
X562139Y514333D01*
X562062Y514320D01*
X561986Y514302D01*
X561911Y514281D01*
X561837Y514256D01*
X561765Y514227D01*
X561694Y514195D01*
X561625Y514159D01*
X561557Y514120D01*
X561492Y514077D01*
X561429Y514031D01*
X561368Y513982D01*
X561310Y513930D01*
X561255Y513875D01*
X561202Y513818D01*
X561153Y513758D01*
X561106Y513695D01*
X561063Y513631D01*
X561023Y513564D01*
X560986Y513495D01*
X560953Y513424D01*
X560923Y513352D01*
X560897Y513279D01*
X563177Y512206D02*
X563226Y512255D01*
X563273Y512307D01*
X563316Y512362D01*
X563357Y512419D01*
X563395Y512478D01*
X563429Y512539D01*
X563460Y512602D01*
X563488Y512666D01*
X563512Y512732D01*
X563532Y512798D01*
X563549Y512866D01*
X563562Y512935D01*
X563571Y513004D01*
X563577Y513074D01*
X563579Y513144D01*
X563176Y512206D02*
X560898Y509525D01*
X563579Y509525D01*
X540794Y489525D02*
X539721Y489525D01*
X539656Y489527D01*
X539592Y489533D01*
X539528Y489543D01*
X539464Y489556D01*
X539402Y489574D01*
X539341Y489595D01*
X539281Y489619D01*
X539223Y489648D01*
X539166Y489680D01*
X539112Y489715D01*
X539060Y489753D01*
X539010Y489795D01*
X538963Y489839D01*
X538919Y489886D01*
X538877Y489936D01*
X538839Y489988D01*
X538804Y490042D01*
X538772Y490099D01*
X538743Y490157D01*
X538719Y490217D01*
X538698Y490278D01*
X538680Y490340D01*
X538667Y490404D01*
X538657Y490468D01*
X538651Y490532D01*
X538649Y490597D01*
X538649Y493279D01*
X538650Y493279D02*
X538652Y493344D01*
X538658Y493408D01*
X538668Y493472D01*
X538681Y493536D01*
X538699Y493598D01*
X538720Y493659D01*
X538744Y493719D01*
X538773Y493777D01*
X538805Y493834D01*
X538840Y493888D01*
X538878Y493940D01*
X538920Y493990D01*
X538964Y494037D01*
X539011Y494081D01*
X539061Y494123D01*
X539113Y494161D01*
X539167Y494196D01*
X539224Y494228D01*
X539282Y494257D01*
X539342Y494281D01*
X539403Y494302D01*
X539465Y494320D01*
X539529Y494333D01*
X539593Y494343D01*
X539657Y494349D01*
X539722Y494351D01*
X539721Y494351D02*
X540794Y494351D01*
X542969Y488989D02*
X545114Y488989D01*
X548979Y489525D02*
X547371Y494351D01*
X550588Y494351D02*
X548979Y489525D01*
X554169Y489525D02*
X555241Y489525D01*
X554169Y489525D02*
X554104Y489527D01*
X554040Y489533D01*
X553976Y489543D01*
X553912Y489556D01*
X553850Y489574D01*
X553789Y489595D01*
X553729Y489619D01*
X553671Y489648D01*
X553614Y489680D01*
X553560Y489715D01*
X553508Y489753D01*
X553458Y489795D01*
X553411Y489839D01*
X553367Y489886D01*
X553325Y489936D01*
X553287Y489988D01*
X553252Y490042D01*
X553220Y490099D01*
X553191Y490157D01*
X553167Y490217D01*
X553146Y490278D01*
X553128Y490340D01*
X553115Y490404D01*
X553105Y490468D01*
X553099Y490532D01*
X553097Y490597D01*
X553096Y490597D02*
X553096Y493279D01*
X553097Y493279D02*
X553099Y493344D01*
X553105Y493408D01*
X553115Y493472D01*
X553128Y493536D01*
X553146Y493598D01*
X553167Y493659D01*
X553191Y493719D01*
X553220Y493777D01*
X553252Y493834D01*
X553287Y493888D01*
X553325Y493940D01*
X553367Y493990D01*
X553411Y494037D01*
X553458Y494081D01*
X553508Y494123D01*
X553560Y494161D01*
X553614Y494196D01*
X553671Y494228D01*
X553729Y494257D01*
X553789Y494281D01*
X553850Y494302D01*
X553912Y494320D01*
X553976Y494333D01*
X554040Y494343D01*
X554104Y494349D01*
X554169Y494351D01*
X555241Y494351D01*
X559038Y494351D02*
X557429Y489525D01*
X560646Y489525D02*
X559038Y494351D01*
X560244Y490732D02*
X557831Y490732D01*
X563513Y489525D02*
X563513Y494351D01*
X564853Y494351D01*
X564924Y494349D01*
X564996Y494343D01*
X565066Y494334D01*
X565136Y494321D01*
X565206Y494304D01*
X565274Y494283D01*
X565341Y494259D01*
X565407Y494231D01*
X565471Y494200D01*
X565534Y494165D01*
X565594Y494127D01*
X565653Y494086D01*
X565709Y494042D01*
X565763Y493995D01*
X565814Y493946D01*
X565862Y493893D01*
X565908Y493838D01*
X565950Y493781D01*
X565990Y493721D01*
X566026Y493660D01*
X566059Y493596D01*
X566088Y493531D01*
X566114Y493465D01*
X566137Y493397D01*
X566156Y493328D01*
X566171Y493258D01*
X566182Y493188D01*
X566190Y493117D01*
X566194Y493046D01*
X566194Y492974D01*
X566190Y492903D01*
X566182Y492832D01*
X566171Y492762D01*
X566156Y492692D01*
X566137Y492623D01*
X566114Y492555D01*
X566088Y492489D01*
X566059Y492424D01*
X566026Y492360D01*
X565990Y492299D01*
X565950Y492239D01*
X565908Y492182D01*
X565862Y492127D01*
X565814Y492074D01*
X565763Y492025D01*
X565709Y491978D01*
X565653Y491934D01*
X565594Y491893D01*
X565534Y491855D01*
X565471Y491820D01*
X565407Y491789D01*
X565341Y491761D01*
X565274Y491737D01*
X565206Y491716D01*
X565136Y491699D01*
X565066Y491686D01*
X564996Y491677D01*
X564924Y491671D01*
X564853Y491669D01*
X564853Y491670D02*
X563513Y491670D01*
X570144Y494351D02*
X570212Y494349D01*
X570279Y494343D01*
X570346Y494334D01*
X570413Y494321D01*
X570478Y494304D01*
X570543Y494283D01*
X570606Y494259D01*
X570668Y494231D01*
X570728Y494200D01*
X570786Y494166D01*
X570842Y494128D01*
X570897Y494088D01*
X570948Y494044D01*
X570997Y493997D01*
X571044Y493948D01*
X571088Y493897D01*
X571128Y493842D01*
X571166Y493786D01*
X571200Y493728D01*
X571231Y493668D01*
X571259Y493606D01*
X571283Y493543D01*
X571304Y493478D01*
X571321Y493413D01*
X571334Y493346D01*
X571343Y493279D01*
X571349Y493212D01*
X571351Y493144D01*
X570144Y494351D02*
X570066Y494349D01*
X569988Y494343D01*
X569911Y494333D01*
X569834Y494320D01*
X569758Y494302D01*
X569683Y494281D01*
X569609Y494256D01*
X569537Y494227D01*
X569466Y494195D01*
X569397Y494159D01*
X569329Y494120D01*
X569264Y494077D01*
X569201Y494031D01*
X569140Y493982D01*
X569082Y493930D01*
X569027Y493875D01*
X568974Y493818D01*
X568925Y493758D01*
X568878Y493695D01*
X568835Y493631D01*
X568795Y493564D01*
X568758Y493495D01*
X568725Y493424D01*
X568695Y493352D01*
X568669Y493279D01*
X570949Y492206D02*
X570998Y492255D01*
X571045Y492307D01*
X571088Y492362D01*
X571129Y492419D01*
X571167Y492478D01*
X571201Y492539D01*
X571232Y492602D01*
X571260Y492666D01*
X571284Y492732D01*
X571304Y492798D01*
X571321Y492866D01*
X571334Y492935D01*
X571343Y493004D01*
X571349Y493074D01*
X571351Y493144D01*
X570949Y492206D02*
X568670Y489525D01*
X571351Y489525D01*
X341904Y504955D02*
X340832Y504955D01*
X340767Y504957D01*
X340703Y504963D01*
X340639Y504973D01*
X340575Y504986D01*
X340513Y505004D01*
X340452Y505025D01*
X340392Y505049D01*
X340334Y505078D01*
X340277Y505110D01*
X340223Y505145D01*
X340171Y505183D01*
X340121Y505225D01*
X340074Y505269D01*
X340030Y505316D01*
X339988Y505366D01*
X339950Y505418D01*
X339915Y505472D01*
X339883Y505529D01*
X339854Y505587D01*
X339830Y505647D01*
X339809Y505708D01*
X339791Y505770D01*
X339778Y505834D01*
X339768Y505898D01*
X339762Y505962D01*
X339760Y506027D01*
X339759Y506027D02*
X339759Y508709D01*
X339760Y508709D02*
X339762Y508774D01*
X339768Y508838D01*
X339778Y508902D01*
X339791Y508966D01*
X339809Y509028D01*
X339830Y509089D01*
X339854Y509149D01*
X339883Y509207D01*
X339915Y509264D01*
X339950Y509318D01*
X339988Y509370D01*
X340030Y509420D01*
X340074Y509467D01*
X340121Y509511D01*
X340171Y509553D01*
X340223Y509591D01*
X340277Y509626D01*
X340334Y509658D01*
X340392Y509687D01*
X340452Y509711D01*
X340513Y509732D01*
X340575Y509750D01*
X340639Y509763D01*
X340703Y509773D01*
X340767Y509779D01*
X340832Y509781D01*
X341904Y509781D01*
X344360Y508709D02*
X345700Y509781D01*
X345700Y504955D01*
X344360Y504955D02*
X347041Y504955D01*
X341704Y430355D02*
X340632Y430355D01*
X340567Y430357D01*
X340503Y430363D01*
X340439Y430373D01*
X340375Y430386D01*
X340313Y430404D01*
X340252Y430425D01*
X340192Y430449D01*
X340134Y430478D01*
X340077Y430510D01*
X340023Y430545D01*
X339971Y430583D01*
X339921Y430625D01*
X339874Y430669D01*
X339830Y430716D01*
X339788Y430766D01*
X339750Y430818D01*
X339715Y430872D01*
X339683Y430929D01*
X339654Y430987D01*
X339630Y431047D01*
X339609Y431108D01*
X339591Y431170D01*
X339578Y431234D01*
X339568Y431298D01*
X339562Y431362D01*
X339560Y431427D01*
X339559Y431427D02*
X339559Y434109D01*
X339560Y434109D02*
X339562Y434174D01*
X339568Y434238D01*
X339578Y434302D01*
X339591Y434366D01*
X339609Y434428D01*
X339630Y434489D01*
X339654Y434549D01*
X339683Y434607D01*
X339715Y434664D01*
X339750Y434718D01*
X339788Y434770D01*
X339830Y434820D01*
X339874Y434867D01*
X339921Y434911D01*
X339971Y434953D01*
X340023Y434991D01*
X340077Y435026D01*
X340134Y435058D01*
X340192Y435087D01*
X340252Y435111D01*
X340313Y435132D01*
X340375Y435150D01*
X340439Y435163D01*
X340503Y435173D01*
X340567Y435179D01*
X340632Y435181D01*
X341704Y435181D01*
X345634Y435181D02*
X345702Y435179D01*
X345769Y435173D01*
X345836Y435164D01*
X345903Y435151D01*
X345968Y435134D01*
X346033Y435113D01*
X346096Y435089D01*
X346158Y435061D01*
X346218Y435030D01*
X346276Y434996D01*
X346332Y434958D01*
X346387Y434918D01*
X346438Y434874D01*
X346487Y434827D01*
X346534Y434778D01*
X346578Y434727D01*
X346618Y434672D01*
X346656Y434616D01*
X346690Y434558D01*
X346721Y434498D01*
X346749Y434436D01*
X346773Y434373D01*
X346794Y434308D01*
X346811Y434243D01*
X346824Y434176D01*
X346833Y434109D01*
X346839Y434042D01*
X346841Y433974D01*
X345634Y435181D02*
X345556Y435179D01*
X345478Y435173D01*
X345401Y435163D01*
X345324Y435150D01*
X345248Y435132D01*
X345173Y435111D01*
X345099Y435086D01*
X345027Y435057D01*
X344956Y435025D01*
X344887Y434989D01*
X344819Y434950D01*
X344754Y434907D01*
X344691Y434861D01*
X344630Y434812D01*
X344572Y434760D01*
X344517Y434705D01*
X344464Y434648D01*
X344415Y434588D01*
X344368Y434525D01*
X344325Y434461D01*
X344285Y434394D01*
X344248Y434325D01*
X344215Y434254D01*
X344185Y434182D01*
X344159Y434109D01*
X346439Y433036D02*
X346488Y433085D01*
X346535Y433137D01*
X346578Y433192D01*
X346619Y433249D01*
X346657Y433308D01*
X346691Y433369D01*
X346722Y433432D01*
X346750Y433496D01*
X346774Y433562D01*
X346794Y433628D01*
X346811Y433696D01*
X346824Y433765D01*
X346833Y433834D01*
X346839Y433904D01*
X346841Y433974D01*
X346439Y433036D02*
X344160Y430355D01*
X346841Y430355D01*
D12*
X240000Y350000D03*
X260000Y350000D03*
X280000Y350000D03*
X300000Y350000D03*
X640000Y350000D03*
X660000Y350000D03*
X680000Y350000D03*
X700000Y350000D03*
X600000Y380000D03*
X600000Y400000D03*
X600000Y420000D03*
X600000Y440000D03*
X310000Y420000D03*
X290000Y420000D03*
X270000Y420000D03*
X275000Y515000D03*
X295000Y515000D03*
X645000Y515000D03*
X665000Y515000D03*
X280000Y540000D03*
X300000Y540000D03*
X320000Y540000D03*
X340000Y540000D03*
X360000Y540000D03*
D11*
X343000Y362700D02*
X597000Y362700D01*
X597000Y337300D01*
X343000Y337300D01*
X343000Y362700D01*
X355573Y372098D02*
X355573Y380353D01*
X355573Y372098D02*
X355575Y371987D01*
X355581Y371877D01*
X355590Y371766D01*
X355604Y371656D01*
X355621Y371547D01*
X355642Y371438D01*
X355667Y371330D01*
X355696Y371223D01*
X355728Y371117D01*
X355764Y371012D01*
X355804Y370909D01*
X355847Y370807D01*
X355894Y370706D01*
X355945Y370607D01*
X355998Y370511D01*
X356055Y370416D01*
X356116Y370323D01*
X356179Y370232D01*
X356246Y370143D01*
X356316Y370057D01*
X356389Y369974D01*
X356464Y369892D01*
X356542Y369814D01*
X356624Y369739D01*
X356707Y369666D01*
X356793Y369596D01*
X356882Y369529D01*
X356973Y369466D01*
X357066Y369405D01*
X357161Y369348D01*
X357257Y369295D01*
X357356Y369244D01*
X357457Y369197D01*
X357559Y369154D01*
X357662Y369114D01*
X357767Y369078D01*
X357873Y369046D01*
X357980Y369017D01*
X358088Y368992D01*
X358197Y368971D01*
X358306Y368954D01*
X358416Y368940D01*
X358527Y368931D01*
X358637Y368925D01*
X358748Y368923D01*
X358859Y368925D01*
X358969Y368931D01*
X359080Y368940D01*
X359190Y368954D01*
X359299Y368971D01*
X359408Y368992D01*
X359516Y369017D01*
X359623Y369046D01*
X359729Y369078D01*
X359834Y369114D01*
X359937Y369154D01*
X360039Y369197D01*
X360140Y369244D01*
X360239Y369295D01*
X360335Y369348D01*
X360430Y369405D01*
X360523Y369466D01*
X360614Y369529D01*
X360703Y369596D01*
X360789Y369666D01*
X360872Y369739D01*
X360954Y369814D01*
X361032Y369892D01*
X361107Y369974D01*
X361180Y370057D01*
X361250Y370143D01*
X361317Y370232D01*
X361380Y370323D01*
X361441Y370416D01*
X361498Y370510D01*
X361551Y370607D01*
X361602Y370706D01*
X361649Y370807D01*
X361692Y370909D01*
X361732Y371012D01*
X361768Y371117D01*
X361800Y371223D01*
X361829Y371330D01*
X361854Y371438D01*
X361875Y371547D01*
X361892Y371656D01*
X361906Y371766D01*
X361915Y371877D01*
X361921Y371987D01*
X361923Y372098D01*
X361923Y380353D01*
X369797Y380353D02*
X369797Y368923D01*
X369797Y374638D02*
X368210Y375591D01*
X368209Y375590D02*
X368136Y375637D01*
X368065Y375686D01*
X367996Y375739D01*
X367930Y375795D01*
X367866Y375854D01*
X367805Y375915D01*
X367747Y375979D01*
X367692Y376046D01*
X367640Y376116D01*
X367592Y376187D01*
X367546Y376261D01*
X367504Y376337D01*
X367466Y376415D01*
X367431Y376494D01*
X367400Y376575D01*
X367373Y376657D01*
X367349Y376740D01*
X367329Y376825D01*
X367313Y376910D01*
X367301Y376996D01*
X367293Y377082D01*
X367289Y377168D01*
X367288Y377255D01*
X367292Y377342D01*
X367300Y377428D01*
X367311Y377514D01*
X367327Y377599D01*
X367346Y377683D01*
X367369Y377767D01*
X367396Y377849D01*
X367427Y377930D01*
X367462Y378010D01*
X367499Y378087D01*
X367541Y378163D01*
X367586Y378238D01*
X367634Y378309D01*
X367686Y378379D01*
X367740Y378446D01*
X367798Y378511D01*
X367858Y378573D01*
X367922Y378632D01*
X367988Y378688D01*
X368056Y378742D01*
X368127Y378791D01*
X368200Y378838D01*
X368275Y378881D01*
X368352Y378921D01*
X368430Y378957D01*
X368511Y378990D01*
X368592Y379019D01*
X368675Y379044D01*
X368759Y379066D01*
X368844Y379083D01*
X368845Y379083D02*
X368982Y379106D01*
X369121Y379126D01*
X369259Y379141D01*
X369398Y379153D01*
X369538Y379161D01*
X369677Y379164D01*
X369817Y379165D01*
X369956Y379161D01*
X370095Y379153D01*
X370234Y379142D01*
X370373Y379126D01*
X370511Y379107D01*
X370649Y379084D01*
X370786Y379057D01*
X370922Y379026D01*
X371057Y378992D01*
X371191Y378954D01*
X371325Y378912D01*
X371456Y378866D01*
X371587Y378817D01*
X371716Y378764D01*
X371844Y378708D01*
X371970Y378648D01*
X372094Y378585D01*
X372217Y378518D01*
X372337Y378448D01*
X369797Y374638D02*
X371385Y373686D01*
X371458Y373639D01*
X371529Y373590D01*
X371598Y373537D01*
X371664Y373481D01*
X371728Y373422D01*
X371789Y373361D01*
X371847Y373297D01*
X371902Y373230D01*
X371954Y373160D01*
X372002Y373089D01*
X372048Y373015D01*
X372090Y372939D01*
X372128Y372861D01*
X372163Y372782D01*
X372194Y372701D01*
X372221Y372619D01*
X372245Y372536D01*
X372265Y372451D01*
X372281Y372366D01*
X372293Y372280D01*
X372301Y372194D01*
X372305Y372108D01*
X372306Y372021D01*
X372302Y371934D01*
X372294Y371848D01*
X372283Y371762D01*
X372267Y371677D01*
X372248Y371593D01*
X372225Y371509D01*
X372198Y371427D01*
X372167Y371346D01*
X372132Y371266D01*
X372095Y371189D01*
X372053Y371113D01*
X372008Y371038D01*
X371960Y370967D01*
X371908Y370897D01*
X371854Y370830D01*
X371796Y370765D01*
X371736Y370703D01*
X371672Y370644D01*
X371606Y370588D01*
X371538Y370534D01*
X371467Y370485D01*
X371394Y370438D01*
X371319Y370395D01*
X371242Y370355D01*
X371164Y370319D01*
X371083Y370286D01*
X371002Y370257D01*
X370919Y370232D01*
X370835Y370210D01*
X370750Y370193D01*
X370749Y370193D02*
X370612Y370170D01*
X370473Y370150D01*
X370335Y370135D01*
X370196Y370123D01*
X370056Y370115D01*
X369917Y370112D01*
X369777Y370111D01*
X369638Y370115D01*
X369499Y370123D01*
X369360Y370134D01*
X369221Y370150D01*
X369083Y370169D01*
X368945Y370192D01*
X368808Y370219D01*
X368672Y370250D01*
X368537Y370284D01*
X368403Y370322D01*
X368269Y370364D01*
X368138Y370410D01*
X368007Y370459D01*
X367878Y370512D01*
X367750Y370568D01*
X367624Y370628D01*
X367500Y370691D01*
X367377Y370758D01*
X367257Y370828D01*
X377290Y379083D02*
X377290Y380353D01*
X383640Y380353D01*
X380465Y368923D01*
D10*
X476350Y307300D02*
X489050Y307300D01*
X476350Y307300D02*
X470000Y313650D01*
X470000Y326350D01*
X476350Y332700D01*
X495400Y326350D02*
X495400Y313650D01*
X489050Y307300D01*
X495400Y326350D02*
X489050Y332700D01*
X476350Y332700D01*
X470000Y313650D02*
X463650Y307300D01*
X450950Y307300D01*
X444600Y313650D01*
X444600Y326350D01*
X450950Y332700D01*
X463650Y332700D01*
X470000Y326350D01*
D11*
X472338Y301077D02*
X472338Y292187D01*
X472336Y292087D01*
X472330Y291988D01*
X472320Y291888D01*
X472307Y291790D01*
X472289Y291691D01*
X472268Y291594D01*
X472243Y291498D01*
X472214Y291402D01*
X472181Y291308D01*
X472145Y291215D01*
X472105Y291124D01*
X472061Y291034D01*
X472014Y290946D01*
X471964Y290860D01*
X471910Y290776D01*
X471853Y290694D01*
X471793Y290615D01*
X471729Y290537D01*
X471663Y290463D01*
X471594Y290391D01*
X471522Y290322D01*
X471448Y290256D01*
X471370Y290192D01*
X471291Y290132D01*
X471209Y290075D01*
X471125Y290021D01*
X471039Y289971D01*
X470951Y289924D01*
X470861Y289880D01*
X470770Y289840D01*
X470677Y289804D01*
X470583Y289771D01*
X470487Y289742D01*
X470391Y289717D01*
X470294Y289696D01*
X470195Y289678D01*
X470097Y289665D01*
X469997Y289655D01*
X469898Y289649D01*
X469798Y289647D01*
X468528Y289647D01*
X478319Y289647D02*
X478319Y301077D01*
X481494Y301077D01*
X481605Y301075D01*
X481715Y301069D01*
X481826Y301060D01*
X481936Y301046D01*
X482045Y301029D01*
X482154Y301008D01*
X482262Y300983D01*
X482369Y300954D01*
X482475Y300922D01*
X482580Y300886D01*
X482683Y300846D01*
X482785Y300803D01*
X482886Y300756D01*
X482985Y300705D01*
X483082Y300652D01*
X483176Y300595D01*
X483269Y300534D01*
X483360Y300471D01*
X483449Y300404D01*
X483535Y300334D01*
X483618Y300261D01*
X483700Y300186D01*
X483778Y300108D01*
X483853Y300026D01*
X483926Y299943D01*
X483996Y299857D01*
X484063Y299768D01*
X484126Y299677D01*
X484187Y299584D01*
X484244Y299489D01*
X484297Y299393D01*
X484348Y299294D01*
X484395Y299193D01*
X484438Y299091D01*
X484478Y298988D01*
X484514Y298883D01*
X484546Y298777D01*
X484575Y298670D01*
X484600Y298562D01*
X484621Y298453D01*
X484638Y298344D01*
X484652Y298234D01*
X484661Y298123D01*
X484667Y298013D01*
X484669Y297902D01*
X484667Y297791D01*
X484661Y297681D01*
X484652Y297570D01*
X484638Y297460D01*
X484621Y297351D01*
X484600Y297242D01*
X484575Y297134D01*
X484546Y297027D01*
X484514Y296921D01*
X484478Y296816D01*
X484438Y296713D01*
X484395Y296611D01*
X484348Y296510D01*
X484297Y296411D01*
X484244Y296314D01*
X484187Y296220D01*
X484126Y296127D01*
X484063Y296036D01*
X483996Y295947D01*
X483926Y295861D01*
X483853Y295778D01*
X483778Y295696D01*
X483700Y295618D01*
X483618Y295543D01*
X483535Y295470D01*
X483449Y295400D01*
X483360Y295333D01*
X483269Y295270D01*
X483176Y295209D01*
X483082Y295152D01*
X482985Y295099D01*
X482886Y295048D01*
X482785Y295001D01*
X482683Y294958D01*
X482580Y294918D01*
X482475Y294882D01*
X482369Y294850D01*
X482262Y294821D01*
X482154Y294796D01*
X482045Y294775D01*
X481936Y294758D01*
X481826Y294744D01*
X481715Y294735D01*
X481605Y294729D01*
X481494Y294727D01*
X478319Y294727D01*
X489177Y298537D02*
X492352Y301077D01*
X492352Y289647D01*
X489177Y289647D02*
X495527Y289647D01*
D10*
X470000Y572450D02*
X476350Y578800D01*
X489050Y578800D01*
X495400Y572450D01*
X495400Y559750D01*
X489050Y553400D01*
X476350Y553400D01*
X470000Y559750D01*
X438250Y578800D02*
X425550Y578800D01*
X438250Y578800D02*
X444600Y572450D01*
X444600Y559750D01*
X438250Y553400D01*
X444600Y572450D02*
X450950Y578800D01*
X463650Y578800D01*
X470000Y572450D01*
X470000Y559750D01*
X463650Y553400D01*
X450950Y553400D01*
X444600Y559750D01*
X419200Y559750D02*
X419200Y572450D01*
X425550Y578800D01*
X419200Y559750D02*
X425550Y553400D01*
X438250Y553400D01*
X501750Y578800D02*
X514450Y578800D01*
X520800Y572450D01*
X520800Y559750D01*
X514450Y553400D01*
X495400Y572450D02*
X501750Y578800D01*
X495400Y559750D02*
X501750Y553400D01*
X514450Y553400D01*
D11*
X422883Y587563D02*
X422883Y596453D01*
X422883Y587563D02*
X422881Y587463D01*
X422875Y587364D01*
X422865Y587264D01*
X422852Y587166D01*
X422834Y587067D01*
X422813Y586970D01*
X422788Y586874D01*
X422759Y586778D01*
X422726Y586684D01*
X422690Y586591D01*
X422650Y586500D01*
X422606Y586410D01*
X422559Y586322D01*
X422509Y586236D01*
X422455Y586152D01*
X422398Y586070D01*
X422338Y585991D01*
X422274Y585913D01*
X422208Y585839D01*
X422139Y585767D01*
X422067Y585698D01*
X421993Y585632D01*
X421915Y585568D01*
X421836Y585508D01*
X421754Y585451D01*
X421670Y585397D01*
X421584Y585347D01*
X421496Y585300D01*
X421406Y585256D01*
X421315Y585216D01*
X421222Y585180D01*
X421128Y585147D01*
X421032Y585118D01*
X420936Y585093D01*
X420839Y585072D01*
X420740Y585054D01*
X420642Y585041D01*
X420542Y585031D01*
X420443Y585025D01*
X420343Y585023D01*
X419073Y585023D01*
X428863Y585023D02*
X428863Y596453D01*
X432038Y596453D01*
X432149Y596451D01*
X432259Y596445D01*
X432370Y596436D01*
X432480Y596422D01*
X432589Y596405D01*
X432698Y596384D01*
X432806Y596359D01*
X432913Y596330D01*
X433019Y596298D01*
X433124Y596262D01*
X433227Y596222D01*
X433329Y596179D01*
X433430Y596132D01*
X433529Y596081D01*
X433626Y596028D01*
X433720Y595971D01*
X433813Y595910D01*
X433904Y595847D01*
X433993Y595780D01*
X434079Y595710D01*
X434162Y595637D01*
X434244Y595562D01*
X434322Y595484D01*
X434397Y595402D01*
X434470Y595319D01*
X434540Y595233D01*
X434607Y595144D01*
X434670Y595053D01*
X434731Y594960D01*
X434788Y594865D01*
X434841Y594769D01*
X434892Y594670D01*
X434939Y594569D01*
X434982Y594467D01*
X435022Y594364D01*
X435058Y594259D01*
X435090Y594153D01*
X435119Y594046D01*
X435144Y593938D01*
X435165Y593829D01*
X435182Y593720D01*
X435196Y593610D01*
X435205Y593499D01*
X435211Y593389D01*
X435213Y593278D01*
X435211Y593167D01*
X435205Y593057D01*
X435196Y592946D01*
X435182Y592836D01*
X435165Y592727D01*
X435144Y592618D01*
X435119Y592510D01*
X435090Y592403D01*
X435058Y592297D01*
X435022Y592192D01*
X434982Y592089D01*
X434939Y591987D01*
X434892Y591886D01*
X434841Y591787D01*
X434788Y591691D01*
X434731Y591596D01*
X434670Y591503D01*
X434607Y591412D01*
X434540Y591323D01*
X434470Y591237D01*
X434397Y591154D01*
X434322Y591072D01*
X434244Y590994D01*
X434162Y590919D01*
X434079Y590846D01*
X433993Y590776D01*
X433904Y590709D01*
X433813Y590646D01*
X433720Y590585D01*
X433626Y590528D01*
X433529Y590475D01*
X433430Y590424D01*
X433329Y590377D01*
X433227Y590334D01*
X433124Y590294D01*
X433019Y590258D01*
X432913Y590226D01*
X432806Y590197D01*
X432698Y590172D01*
X432589Y590151D01*
X432480Y590134D01*
X432370Y590120D01*
X432259Y590111D01*
X432149Y590105D01*
X432038Y590103D01*
X428863Y590103D01*
X443214Y596454D02*
X443318Y596452D01*
X443423Y596446D01*
X443527Y596437D01*
X443630Y596424D01*
X443733Y596406D01*
X443835Y596386D01*
X443937Y596361D01*
X444037Y596333D01*
X444137Y596301D01*
X444235Y596265D01*
X444332Y596226D01*
X444427Y596184D01*
X444521Y596138D01*
X444613Y596088D01*
X444703Y596036D01*
X444791Y595980D01*
X444877Y595920D01*
X444961Y595858D01*
X445042Y595793D01*
X445121Y595725D01*
X445198Y595653D01*
X445271Y595580D01*
X445343Y595503D01*
X445411Y595424D01*
X445476Y595343D01*
X445538Y595259D01*
X445598Y595173D01*
X445654Y595085D01*
X445706Y594995D01*
X445756Y594903D01*
X445802Y594809D01*
X445844Y594714D01*
X445883Y594617D01*
X445919Y594519D01*
X445951Y594419D01*
X445979Y594319D01*
X446004Y594217D01*
X446024Y594115D01*
X446042Y594012D01*
X446055Y593909D01*
X446064Y593805D01*
X446070Y593700D01*
X446072Y593596D01*
X443214Y596453D02*
X443096Y596451D01*
X442977Y596445D01*
X442859Y596436D01*
X442742Y596423D01*
X442625Y596405D01*
X442508Y596385D01*
X442392Y596360D01*
X442277Y596332D01*
X442164Y596299D01*
X442051Y596264D01*
X441939Y596224D01*
X441829Y596182D01*
X441720Y596135D01*
X441612Y596085D01*
X441507Y596032D01*
X441403Y595975D01*
X441301Y595915D01*
X441201Y595852D01*
X441103Y595785D01*
X441007Y595716D01*
X440914Y595643D01*
X440823Y595567D01*
X440734Y595489D01*
X440648Y595407D01*
X440565Y595323D01*
X440484Y595237D01*
X440407Y595147D01*
X440332Y595056D01*
X440260Y594962D01*
X440191Y594865D01*
X440126Y594767D01*
X440063Y594666D01*
X440004Y594563D01*
X439948Y594459D01*
X439896Y594353D01*
X439847Y594245D01*
X439802Y594136D01*
X439760Y594025D01*
X439722Y593913D01*
X445120Y591374D02*
X445196Y591449D01*
X445271Y591528D01*
X445342Y591609D01*
X445411Y591693D01*
X445476Y591779D01*
X445538Y591867D01*
X445598Y591957D01*
X445654Y592049D01*
X445707Y592144D01*
X445756Y592240D01*
X445802Y592338D01*
X445845Y592437D01*
X445884Y592538D01*
X445919Y592640D01*
X445951Y592743D01*
X445979Y592847D01*
X446004Y592952D01*
X446025Y593059D01*
X446042Y593165D01*
X446055Y593272D01*
X446064Y593380D01*
X446070Y593488D01*
X446072Y593596D01*
X445119Y591373D02*
X439722Y585023D01*
X446072Y585023D01*
D12*
X444000Y534900D03*
X424000Y534900D03*
X404000Y534900D03*
X384000Y534900D03*
D11*
X264351Y380887D02*
X259525Y380887D01*
X259525Y382228D01*
X259527Y382299D01*
X259533Y382371D01*
X259542Y382441D01*
X259555Y382511D01*
X259572Y382581D01*
X259593Y382649D01*
X259617Y382716D01*
X259645Y382782D01*
X259676Y382846D01*
X259711Y382909D01*
X259749Y382969D01*
X259790Y383028D01*
X259834Y383084D01*
X259881Y383138D01*
X259930Y383189D01*
X259983Y383237D01*
X260038Y383283D01*
X260095Y383325D01*
X260155Y383365D01*
X260216Y383401D01*
X260280Y383434D01*
X260345Y383463D01*
X260411Y383489D01*
X260479Y383512D01*
X260548Y383531D01*
X260618Y383546D01*
X260688Y383557D01*
X260759Y383565D01*
X260830Y383569D01*
X260902Y383569D01*
X260973Y383565D01*
X261044Y383557D01*
X261114Y383546D01*
X261184Y383531D01*
X261253Y383512D01*
X261321Y383489D01*
X261387Y383463D01*
X261452Y383434D01*
X261516Y383401D01*
X261577Y383365D01*
X261637Y383325D01*
X261694Y383283D01*
X261749Y383237D01*
X261802Y383189D01*
X261851Y383138D01*
X261898Y383084D01*
X261942Y383028D01*
X261983Y382969D01*
X262021Y382909D01*
X262056Y382846D01*
X262087Y382782D01*
X262115Y382716D01*
X262139Y382649D01*
X262160Y382581D01*
X262177Y382511D01*
X262190Y382441D01*
X262199Y382371D01*
X262205Y382299D01*
X262207Y382228D01*
X262206Y382228D02*
X262206Y380887D01*
X262206Y382496D02*
X264351Y383568D01*
X264351Y387736D02*
X264349Y387801D01*
X264343Y387865D01*
X264333Y387929D01*
X264320Y387993D01*
X264302Y388055D01*
X264281Y388116D01*
X264257Y388176D01*
X264228Y388234D01*
X264196Y388291D01*
X264161Y388345D01*
X264123Y388397D01*
X264081Y388447D01*
X264037Y388494D01*
X263990Y388538D01*
X263940Y388580D01*
X263888Y388618D01*
X263834Y388653D01*
X263777Y388685D01*
X263719Y388714D01*
X263659Y388738D01*
X263598Y388759D01*
X263536Y388777D01*
X263472Y388790D01*
X263408Y388800D01*
X263344Y388806D01*
X263279Y388808D01*
X264351Y387736D02*
X264349Y387642D01*
X264343Y387548D01*
X264333Y387454D01*
X264320Y387361D01*
X264302Y387269D01*
X264281Y387177D01*
X264256Y387086D01*
X264227Y386996D01*
X264194Y386908D01*
X264158Y386821D01*
X264118Y386736D01*
X264075Y386652D01*
X264028Y386571D01*
X263978Y386491D01*
X263925Y386413D01*
X263868Y386338D01*
X263809Y386265D01*
X263746Y386195D01*
X263681Y386127D01*
X260597Y386261D02*
X260532Y386263D01*
X260468Y386269D01*
X260404Y386279D01*
X260340Y386292D01*
X260278Y386310D01*
X260217Y386331D01*
X260157Y386355D01*
X260099Y386384D01*
X260042Y386416D01*
X259988Y386451D01*
X259936Y386489D01*
X259886Y386531D01*
X259839Y386575D01*
X259795Y386622D01*
X259753Y386672D01*
X259715Y386724D01*
X259680Y386778D01*
X259648Y386835D01*
X259619Y386893D01*
X259595Y386953D01*
X259574Y387014D01*
X259556Y387076D01*
X259543Y387140D01*
X259533Y387204D01*
X259527Y387268D01*
X259525Y387333D01*
X259527Y387419D01*
X259532Y387505D01*
X259542Y387591D01*
X259555Y387676D01*
X259571Y387761D01*
X259591Y387845D01*
X259615Y387928D01*
X259642Y388010D01*
X259673Y388090D01*
X259707Y388170D01*
X259745Y388247D01*
X259786Y388323D01*
X259830Y388397D01*
X259877Y388470D01*
X259927Y388540D01*
X261535Y386797D02*
X261502Y386744D01*
X261465Y386693D01*
X261426Y386644D01*
X261384Y386597D01*
X261339Y386553D01*
X261292Y386512D01*
X261243Y386473D01*
X261191Y386437D01*
X261137Y386404D01*
X261082Y386375D01*
X261025Y386349D01*
X260966Y386326D01*
X260907Y386306D01*
X260846Y386290D01*
X260785Y386277D01*
X260722Y386268D01*
X260660Y386263D01*
X260597Y386261D01*
X262341Y388272D02*
X262374Y388325D01*
X262411Y388376D01*
X262450Y388425D01*
X262492Y388472D01*
X262537Y388516D01*
X262584Y388557D01*
X262633Y388596D01*
X262685Y388632D01*
X262739Y388665D01*
X262794Y388694D01*
X262851Y388720D01*
X262910Y388743D01*
X262969Y388763D01*
X263030Y388779D01*
X263091Y388792D01*
X263154Y388801D01*
X263216Y388806D01*
X263279Y388808D01*
X262340Y388272D02*
X261536Y386797D01*
X259525Y392405D02*
X264351Y392405D01*
X259525Y391065D02*
X259525Y393746D01*
X259525Y396432D02*
X264351Y396432D01*
X259525Y396432D02*
X259525Y397772D01*
X259527Y397843D01*
X259533Y397915D01*
X259542Y397985D01*
X259555Y398055D01*
X259572Y398125D01*
X259593Y398193D01*
X259617Y398260D01*
X259645Y398326D01*
X259676Y398390D01*
X259711Y398453D01*
X259749Y398513D01*
X259790Y398572D01*
X259834Y398628D01*
X259881Y398682D01*
X259930Y398733D01*
X259983Y398781D01*
X260038Y398827D01*
X260095Y398869D01*
X260155Y398909D01*
X260216Y398945D01*
X260280Y398978D01*
X260345Y399007D01*
X260411Y399033D01*
X260479Y399056D01*
X260548Y399075D01*
X260618Y399090D01*
X260688Y399101D01*
X260759Y399109D01*
X260830Y399113D01*
X260902Y399113D01*
X260973Y399109D01*
X261044Y399101D01*
X261114Y399090D01*
X261184Y399075D01*
X261253Y399056D01*
X261321Y399033D01*
X261387Y399007D01*
X261452Y398978D01*
X261516Y398945D01*
X261577Y398909D01*
X261637Y398869D01*
X261694Y398827D01*
X261749Y398781D01*
X261802Y398733D01*
X261851Y398682D01*
X261898Y398628D01*
X261942Y398572D01*
X261983Y398513D01*
X262021Y398453D01*
X262056Y398390D01*
X262087Y398326D01*
X262115Y398260D01*
X262139Y398193D01*
X262160Y398125D01*
X262177Y398055D01*
X262190Y397985D01*
X262199Y397915D01*
X262205Y397843D01*
X262207Y397772D01*
X262206Y397772D02*
X262206Y396432D01*
X262206Y398040D02*
X264351Y399113D01*
X244351Y381293D02*
X239525Y381293D01*
X239525Y382633D01*
X239527Y382704D01*
X239533Y382776D01*
X239542Y382846D01*
X239555Y382916D01*
X239572Y382986D01*
X239593Y383054D01*
X239617Y383121D01*
X239645Y383187D01*
X239676Y383251D01*
X239711Y383314D01*
X239749Y383374D01*
X239790Y383433D01*
X239834Y383489D01*
X239881Y383543D01*
X239930Y383594D01*
X239983Y383642D01*
X240038Y383688D01*
X240095Y383730D01*
X240155Y383770D01*
X240216Y383806D01*
X240280Y383839D01*
X240345Y383868D01*
X240411Y383894D01*
X240479Y383917D01*
X240548Y383936D01*
X240618Y383951D01*
X240688Y383962D01*
X240759Y383970D01*
X240830Y383974D01*
X240902Y383974D01*
X240973Y383970D01*
X241044Y383962D01*
X241114Y383951D01*
X241184Y383936D01*
X241253Y383917D01*
X241321Y383894D01*
X241387Y383868D01*
X241452Y383839D01*
X241516Y383806D01*
X241577Y383770D01*
X241637Y383730D01*
X241694Y383688D01*
X241749Y383642D01*
X241802Y383594D01*
X241851Y383543D01*
X241898Y383489D01*
X241942Y383433D01*
X241983Y383374D01*
X242021Y383314D01*
X242056Y383251D01*
X242087Y383187D01*
X242115Y383121D01*
X242139Y383054D01*
X242160Y382986D01*
X242177Y382916D01*
X242190Y382846D01*
X242199Y382776D01*
X242205Y382704D01*
X242207Y382633D01*
X242206Y382633D02*
X242206Y381293D01*
X242206Y382902D02*
X244351Y383974D01*
X244351Y388141D02*
X244349Y388206D01*
X244343Y388270D01*
X244333Y388334D01*
X244320Y388398D01*
X244302Y388460D01*
X244281Y388521D01*
X244257Y388581D01*
X244228Y388639D01*
X244196Y388696D01*
X244161Y388750D01*
X244123Y388802D01*
X244081Y388852D01*
X244037Y388899D01*
X243990Y388943D01*
X243940Y388985D01*
X243888Y389023D01*
X243834Y389058D01*
X243777Y389090D01*
X243719Y389119D01*
X243659Y389143D01*
X243598Y389164D01*
X243536Y389182D01*
X243472Y389195D01*
X243408Y389205D01*
X243344Y389211D01*
X243279Y389213D01*
X244351Y388141D02*
X244349Y388047D01*
X244343Y387953D01*
X244333Y387859D01*
X244320Y387766D01*
X244302Y387674D01*
X244281Y387582D01*
X244256Y387491D01*
X244227Y387401D01*
X244194Y387313D01*
X244158Y387226D01*
X244118Y387141D01*
X244075Y387057D01*
X244028Y386976D01*
X243978Y386896D01*
X243925Y386818D01*
X243868Y386743D01*
X243809Y386670D01*
X243746Y386600D01*
X243681Y386532D01*
X240597Y386667D02*
X240532Y386669D01*
X240468Y386675D01*
X240404Y386685D01*
X240340Y386698D01*
X240278Y386716D01*
X240217Y386737D01*
X240157Y386761D01*
X240099Y386790D01*
X240042Y386822D01*
X239988Y386857D01*
X239936Y386895D01*
X239886Y386937D01*
X239839Y386981D01*
X239795Y387028D01*
X239753Y387078D01*
X239715Y387130D01*
X239680Y387184D01*
X239648Y387241D01*
X239619Y387299D01*
X239595Y387359D01*
X239574Y387420D01*
X239556Y387482D01*
X239543Y387546D01*
X239533Y387610D01*
X239527Y387674D01*
X239525Y387739D01*
X239527Y387825D01*
X239532Y387911D01*
X239542Y387997D01*
X239555Y388082D01*
X239571Y388167D01*
X239591Y388251D01*
X239615Y388334D01*
X239642Y388416D01*
X239673Y388496D01*
X239707Y388576D01*
X239745Y388653D01*
X239786Y388729D01*
X239830Y388803D01*
X239877Y388876D01*
X239927Y388946D01*
X241535Y387203D02*
X241502Y387150D01*
X241465Y387099D01*
X241426Y387050D01*
X241384Y387003D01*
X241339Y386959D01*
X241292Y386918D01*
X241243Y386879D01*
X241191Y386843D01*
X241137Y386810D01*
X241082Y386781D01*
X241025Y386755D01*
X240966Y386732D01*
X240907Y386712D01*
X240846Y386696D01*
X240785Y386683D01*
X240722Y386674D01*
X240660Y386669D01*
X240597Y386667D01*
X242341Y388678D02*
X242374Y388731D01*
X242411Y388782D01*
X242450Y388831D01*
X242492Y388878D01*
X242537Y388922D01*
X242584Y388963D01*
X242633Y389002D01*
X242685Y389038D01*
X242739Y389071D01*
X242794Y389100D01*
X242851Y389126D01*
X242910Y389149D01*
X242969Y389169D01*
X243030Y389185D01*
X243091Y389198D01*
X243154Y389207D01*
X243216Y389212D01*
X243279Y389214D01*
X242340Y388678D02*
X241536Y387203D01*
X239525Y392811D02*
X244351Y392811D01*
X239525Y391470D02*
X239525Y394151D01*
X244351Y397635D02*
X244351Y398707D01*
X244351Y397635D02*
X244349Y397570D01*
X244343Y397506D01*
X244333Y397442D01*
X244320Y397378D01*
X244302Y397316D01*
X244281Y397255D01*
X244257Y397195D01*
X244228Y397137D01*
X244196Y397080D01*
X244161Y397026D01*
X244123Y396974D01*
X244081Y396924D01*
X244037Y396877D01*
X243990Y396833D01*
X243940Y396791D01*
X243888Y396753D01*
X243834Y396718D01*
X243777Y396686D01*
X243719Y396657D01*
X243659Y396633D01*
X243598Y396612D01*
X243536Y396594D01*
X243472Y396581D01*
X243408Y396571D01*
X243344Y396565D01*
X243279Y396563D01*
X243279Y396562D02*
X240597Y396562D01*
X240532Y396564D01*
X240468Y396570D01*
X240404Y396580D01*
X240340Y396593D01*
X240278Y396611D01*
X240217Y396632D01*
X240157Y396657D01*
X240098Y396685D01*
X240042Y396717D01*
X239987Y396752D01*
X239935Y396790D01*
X239885Y396832D01*
X239838Y396876D01*
X239794Y396923D01*
X239752Y396973D01*
X239714Y397025D01*
X239679Y397080D01*
X239647Y397136D01*
X239619Y397195D01*
X239594Y397254D01*
X239573Y397316D01*
X239555Y397378D01*
X239542Y397442D01*
X239532Y397506D01*
X239526Y397570D01*
X239524Y397635D01*
X239525Y397635D02*
X239525Y398707D01*
D10*
X306400Y434400D02*
X306400Y484400D01*
X256400Y484400D01*
X256400Y434400D01*
X306400Y434400D01*
D13*
X277270Y456310D02*
X277268Y456252D01*
X277262Y456195D01*
X277252Y456138D01*
X277239Y456081D01*
X277221Y456026D01*
X277200Y455973D01*
X277175Y455920D01*
X277147Y455870D01*
X277115Y455822D01*
X277080Y455775D01*
X277042Y455732D01*
X277001Y455691D01*
X276958Y455653D01*
X276911Y455618D01*
X276863Y455586D01*
X276813Y455558D01*
X276760Y455533D01*
X276707Y455512D01*
X276652Y455494D01*
X276595Y455481D01*
X276538Y455471D01*
X276481Y455465D01*
X276423Y455463D01*
X276340Y455465D01*
X276257Y455471D01*
X276175Y455480D01*
X276093Y455494D01*
X276012Y455511D01*
X275931Y455532D01*
X275852Y455557D01*
X275774Y455585D01*
X275697Y455617D01*
X275622Y455652D01*
X275549Y455691D01*
X275477Y455734D01*
X275408Y455779D01*
X275341Y455828D01*
X275276Y455880D01*
X275213Y455934D01*
X275153Y455992D01*
X275259Y458426D02*
X275261Y458481D01*
X275266Y458537D01*
X275275Y458591D01*
X275288Y458645D01*
X275304Y458698D01*
X275323Y458750D01*
X275346Y458801D01*
X275372Y458850D01*
X275402Y458897D01*
X275434Y458942D01*
X275469Y458984D01*
X275507Y459025D01*
X275548Y459063D01*
X275590Y459098D01*
X275635Y459130D01*
X275683Y459160D01*
X275731Y459186D01*
X275782Y459209D01*
X275834Y459228D01*
X275887Y459244D01*
X275941Y459257D01*
X275995Y459266D01*
X276051Y459271D01*
X276106Y459273D01*
X276106Y459274D02*
X276185Y459272D01*
X276263Y459266D01*
X276341Y459257D01*
X276418Y459243D01*
X276495Y459226D01*
X276571Y459204D01*
X276645Y459180D01*
X276719Y459151D01*
X276790Y459119D01*
X276860Y459083D01*
X276929Y459044D01*
X276995Y459002D01*
X277059Y458956D01*
X275682Y457685D02*
X275635Y457715D01*
X275590Y457748D01*
X275547Y457784D01*
X275507Y457822D01*
X275469Y457863D01*
X275434Y457906D01*
X275402Y457952D01*
X275372Y457999D01*
X275346Y458049D01*
X275323Y458100D01*
X275304Y458152D01*
X275288Y458205D01*
X275275Y458260D01*
X275266Y458315D01*
X275261Y458370D01*
X275259Y458426D01*
X276847Y457051D02*
X276894Y457021D01*
X276939Y456988D01*
X276982Y456952D01*
X277022Y456914D01*
X277060Y456873D01*
X277095Y456830D01*
X277127Y456784D01*
X277157Y456737D01*
X277183Y456687D01*
X277206Y456636D01*
X277225Y456584D01*
X277241Y456531D01*
X277254Y456476D01*
X277263Y456421D01*
X277268Y456366D01*
X277270Y456310D01*
X276847Y457051D02*
X275683Y457686D01*
X278542Y459273D02*
X279388Y455463D01*
X280235Y458003D01*
X281082Y455463D01*
X281928Y459273D01*
X283649Y459273D02*
X283649Y455463D01*
X283226Y455463D02*
X284072Y455463D01*
X284072Y459273D02*
X283226Y459273D01*
X286331Y459273D02*
X286331Y455463D01*
X285273Y459273D02*
X287389Y459273D01*
X289524Y455463D02*
X290370Y455463D01*
X289524Y455463D02*
X289469Y455465D01*
X289413Y455470D01*
X289359Y455479D01*
X289305Y455492D01*
X289252Y455508D01*
X289200Y455527D01*
X289149Y455550D01*
X289101Y455576D01*
X289053Y455606D01*
X289008Y455638D01*
X288966Y455673D01*
X288925Y455711D01*
X288887Y455752D01*
X288852Y455794D01*
X288820Y455839D01*
X288790Y455887D01*
X288764Y455935D01*
X288741Y455986D01*
X288722Y456038D01*
X288706Y456091D01*
X288693Y456145D01*
X288684Y456199D01*
X288679Y456255D01*
X288677Y456310D01*
X288677Y458426D01*
X288679Y458484D01*
X288685Y458541D01*
X288695Y458598D01*
X288708Y458655D01*
X288726Y458710D01*
X288747Y458763D01*
X288772Y458816D01*
X288800Y458866D01*
X288832Y458914D01*
X288867Y458961D01*
X288905Y459004D01*
X288946Y459045D01*
X288989Y459083D01*
X289036Y459118D01*
X289084Y459150D01*
X289134Y459178D01*
X289187Y459203D01*
X289240Y459224D01*
X289295Y459242D01*
X289352Y459255D01*
X289409Y459265D01*
X289466Y459271D01*
X289524Y459273D01*
X290370Y459273D01*
X291856Y459273D02*
X291856Y455463D01*
X291856Y457580D02*
X293973Y457580D01*
X293973Y459273D02*
X293973Y455463D01*
D11*
X678081Y421151D02*
X678081Y417666D01*
X678080Y417666D02*
X678082Y417595D01*
X678088Y417523D01*
X678097Y417453D01*
X678110Y417383D01*
X678127Y417313D01*
X678148Y417245D01*
X678172Y417178D01*
X678200Y417112D01*
X678231Y417048D01*
X678266Y416985D01*
X678304Y416925D01*
X678345Y416866D01*
X678389Y416810D01*
X678436Y416756D01*
X678485Y416705D01*
X678538Y416657D01*
X678593Y416611D01*
X678650Y416569D01*
X678710Y416529D01*
X678771Y416493D01*
X678835Y416460D01*
X678900Y416431D01*
X678966Y416405D01*
X679034Y416382D01*
X679103Y416363D01*
X679173Y416348D01*
X679243Y416337D01*
X679314Y416329D01*
X679385Y416325D01*
X679457Y416325D01*
X679528Y416329D01*
X679599Y416337D01*
X679669Y416348D01*
X679739Y416363D01*
X679808Y416382D01*
X679876Y416405D01*
X679942Y416431D01*
X680007Y416460D01*
X680071Y416493D01*
X680132Y416529D01*
X680192Y416569D01*
X680249Y416611D01*
X680304Y416657D01*
X680357Y416705D01*
X680406Y416756D01*
X680453Y416810D01*
X680497Y416866D01*
X680538Y416925D01*
X680576Y416985D01*
X680611Y417048D01*
X680642Y417112D01*
X680670Y417178D01*
X680694Y417245D01*
X680715Y417313D01*
X680732Y417383D01*
X680745Y417453D01*
X680754Y417523D01*
X680760Y417595D01*
X680762Y417666D01*
X680762Y421151D01*
X684080Y419006D02*
X685420Y419006D01*
X685420Y419007D02*
X685491Y419005D01*
X685563Y418999D01*
X685633Y418990D01*
X685703Y418977D01*
X685773Y418960D01*
X685841Y418939D01*
X685908Y418915D01*
X685974Y418887D01*
X686038Y418856D01*
X686101Y418821D01*
X686161Y418783D01*
X686220Y418742D01*
X686276Y418698D01*
X686330Y418651D01*
X686381Y418602D01*
X686429Y418549D01*
X686475Y418494D01*
X686517Y418437D01*
X686557Y418377D01*
X686593Y418316D01*
X686626Y418252D01*
X686655Y418187D01*
X686681Y418121D01*
X686704Y418053D01*
X686723Y417984D01*
X686738Y417914D01*
X686749Y417844D01*
X686757Y417773D01*
X686761Y417702D01*
X686761Y417630D01*
X686757Y417559D01*
X686749Y417488D01*
X686738Y417418D01*
X686723Y417348D01*
X686704Y417279D01*
X686681Y417211D01*
X686655Y417145D01*
X686626Y417080D01*
X686593Y417016D01*
X686557Y416955D01*
X686517Y416895D01*
X686475Y416838D01*
X686429Y416783D01*
X686381Y416730D01*
X686330Y416681D01*
X686276Y416634D01*
X686220Y416590D01*
X686161Y416549D01*
X686101Y416511D01*
X686038Y416476D01*
X685974Y416445D01*
X685908Y416417D01*
X685841Y416393D01*
X685773Y416372D01*
X685703Y416355D01*
X685633Y416342D01*
X685563Y416333D01*
X685491Y416327D01*
X685420Y416325D01*
X684080Y416325D01*
X684080Y421151D01*
X685420Y421151D01*
X685485Y421149D01*
X685549Y421143D01*
X685613Y421133D01*
X685677Y421120D01*
X685739Y421102D01*
X685800Y421081D01*
X685860Y421057D01*
X685918Y421028D01*
X685975Y420996D01*
X686029Y420961D01*
X686081Y420923D01*
X686131Y420881D01*
X686178Y420837D01*
X686222Y420790D01*
X686264Y420740D01*
X686302Y420688D01*
X686337Y420634D01*
X686369Y420577D01*
X686398Y420519D01*
X686422Y420459D01*
X686443Y420398D01*
X686461Y420336D01*
X686474Y420272D01*
X686484Y420208D01*
X686490Y420144D01*
X686492Y420079D01*
X686490Y420014D01*
X686484Y419950D01*
X686474Y419886D01*
X686461Y419822D01*
X686443Y419760D01*
X686422Y419699D01*
X686398Y419639D01*
X686369Y419581D01*
X686337Y419524D01*
X686302Y419470D01*
X686264Y419418D01*
X686222Y419368D01*
X686178Y419321D01*
X686131Y419277D01*
X686081Y419235D01*
X686029Y419197D01*
X685975Y419162D01*
X685918Y419130D01*
X685860Y419101D01*
X685800Y419077D01*
X685739Y419056D01*
X685677Y419038D01*
X685613Y419025D01*
X685549Y419015D01*
X685485Y419009D01*
X685420Y419007D01*
X690211Y421151D02*
X690211Y416325D01*
X688871Y421151D02*
X691552Y421151D01*
X694238Y421151D02*
X694238Y416325D01*
X694238Y421151D02*
X695579Y421151D01*
X695650Y421149D01*
X695722Y421143D01*
X695792Y421134D01*
X695862Y421121D01*
X695932Y421104D01*
X696000Y421083D01*
X696067Y421059D01*
X696133Y421031D01*
X696197Y421000D01*
X696260Y420965D01*
X696320Y420927D01*
X696379Y420886D01*
X696435Y420842D01*
X696489Y420795D01*
X696540Y420746D01*
X696588Y420693D01*
X696634Y420638D01*
X696676Y420581D01*
X696716Y420521D01*
X696752Y420460D01*
X696785Y420396D01*
X696814Y420331D01*
X696840Y420265D01*
X696863Y420197D01*
X696882Y420128D01*
X696897Y420058D01*
X696908Y419988D01*
X696916Y419917D01*
X696920Y419846D01*
X696920Y419774D01*
X696916Y419703D01*
X696908Y419632D01*
X696897Y419562D01*
X696882Y419492D01*
X696863Y419423D01*
X696840Y419355D01*
X696814Y419289D01*
X696785Y419224D01*
X696752Y419160D01*
X696716Y419099D01*
X696676Y419039D01*
X696634Y418982D01*
X696588Y418927D01*
X696540Y418874D01*
X696489Y418825D01*
X696435Y418778D01*
X696379Y418734D01*
X696320Y418693D01*
X696260Y418655D01*
X696197Y418620D01*
X696133Y418589D01*
X696067Y418561D01*
X696000Y418537D01*
X695932Y418516D01*
X695862Y418499D01*
X695792Y418486D01*
X695722Y418477D01*
X695650Y418471D01*
X695579Y418469D01*
X695579Y418470D02*
X694238Y418470D01*
X695847Y418470D02*
X696919Y416325D01*
X612334Y492887D02*
X608849Y492887D01*
X612334Y492886D02*
X612405Y492888D01*
X612477Y492894D01*
X612547Y492903D01*
X612617Y492916D01*
X612687Y492933D01*
X612755Y492954D01*
X612822Y492978D01*
X612888Y493006D01*
X612952Y493037D01*
X613015Y493072D01*
X613075Y493110D01*
X613134Y493151D01*
X613190Y493195D01*
X613244Y493242D01*
X613295Y493291D01*
X613343Y493344D01*
X613389Y493399D01*
X613431Y493456D01*
X613471Y493516D01*
X613507Y493577D01*
X613540Y493641D01*
X613569Y493706D01*
X613595Y493772D01*
X613618Y493840D01*
X613637Y493909D01*
X613652Y493979D01*
X613663Y494049D01*
X613671Y494120D01*
X613675Y494191D01*
X613675Y494263D01*
X613671Y494334D01*
X613663Y494405D01*
X613652Y494475D01*
X613637Y494545D01*
X613618Y494614D01*
X613595Y494682D01*
X613569Y494748D01*
X613540Y494813D01*
X613507Y494877D01*
X613471Y494938D01*
X613431Y494998D01*
X613389Y495055D01*
X613343Y495110D01*
X613295Y495163D01*
X613244Y495212D01*
X613190Y495259D01*
X613134Y495303D01*
X613075Y495344D01*
X613015Y495382D01*
X612952Y495417D01*
X612888Y495448D01*
X612822Y495476D01*
X612755Y495500D01*
X612687Y495521D01*
X612617Y495538D01*
X612547Y495551D01*
X612477Y495560D01*
X612405Y495566D01*
X612334Y495568D01*
X608849Y495568D01*
X610994Y498885D02*
X610994Y500226D01*
X610993Y500226D02*
X610995Y500297D01*
X611001Y500369D01*
X611010Y500439D01*
X611023Y500509D01*
X611040Y500579D01*
X611061Y500647D01*
X611085Y500714D01*
X611113Y500780D01*
X611144Y500844D01*
X611179Y500907D01*
X611217Y500967D01*
X611258Y501026D01*
X611302Y501082D01*
X611349Y501136D01*
X611398Y501187D01*
X611451Y501235D01*
X611506Y501281D01*
X611563Y501323D01*
X611623Y501363D01*
X611684Y501399D01*
X611748Y501432D01*
X611813Y501461D01*
X611879Y501487D01*
X611947Y501510D01*
X612016Y501529D01*
X612086Y501544D01*
X612156Y501555D01*
X612227Y501563D01*
X612298Y501567D01*
X612370Y501567D01*
X612441Y501563D01*
X612512Y501555D01*
X612582Y501544D01*
X612652Y501529D01*
X612721Y501510D01*
X612789Y501487D01*
X612855Y501461D01*
X612920Y501432D01*
X612984Y501399D01*
X613045Y501363D01*
X613105Y501323D01*
X613162Y501281D01*
X613217Y501235D01*
X613270Y501187D01*
X613319Y501136D01*
X613366Y501082D01*
X613410Y501026D01*
X613451Y500967D01*
X613489Y500907D01*
X613524Y500844D01*
X613555Y500780D01*
X613583Y500714D01*
X613607Y500647D01*
X613628Y500579D01*
X613645Y500509D01*
X613658Y500439D01*
X613667Y500369D01*
X613673Y500297D01*
X613675Y500226D01*
X613675Y498885D01*
X608849Y498885D01*
X608849Y500226D01*
X608851Y500291D01*
X608857Y500355D01*
X608867Y500419D01*
X608880Y500483D01*
X608898Y500545D01*
X608919Y500606D01*
X608943Y500666D01*
X608972Y500724D01*
X609004Y500781D01*
X609039Y500835D01*
X609077Y500887D01*
X609119Y500937D01*
X609163Y500984D01*
X609210Y501028D01*
X609260Y501070D01*
X609312Y501108D01*
X609366Y501143D01*
X609423Y501175D01*
X609481Y501204D01*
X609541Y501228D01*
X609602Y501249D01*
X609664Y501267D01*
X609728Y501280D01*
X609792Y501290D01*
X609856Y501296D01*
X609921Y501298D01*
X609986Y501296D01*
X610050Y501290D01*
X610114Y501280D01*
X610178Y501267D01*
X610240Y501249D01*
X610301Y501228D01*
X610361Y501204D01*
X610419Y501175D01*
X610476Y501143D01*
X610530Y501108D01*
X610582Y501070D01*
X610632Y501028D01*
X610679Y500984D01*
X610723Y500937D01*
X610765Y500887D01*
X610803Y500835D01*
X610838Y500781D01*
X610870Y500724D01*
X610899Y500666D01*
X610923Y500606D01*
X610944Y500545D01*
X610962Y500483D01*
X610975Y500419D01*
X610985Y500355D01*
X610991Y500291D01*
X610993Y500226D01*
X608849Y505017D02*
X613675Y505017D01*
X608849Y503677D02*
X608849Y506358D01*
X613675Y509841D02*
X613675Y510913D01*
X613675Y509841D02*
X613673Y509776D01*
X613667Y509712D01*
X613657Y509648D01*
X613644Y509584D01*
X613626Y509522D01*
X613605Y509461D01*
X613581Y509401D01*
X613552Y509343D01*
X613520Y509286D01*
X613485Y509232D01*
X613447Y509180D01*
X613405Y509130D01*
X613361Y509083D01*
X613314Y509039D01*
X613264Y508997D01*
X613212Y508959D01*
X613158Y508924D01*
X613101Y508892D01*
X613043Y508863D01*
X612983Y508839D01*
X612922Y508818D01*
X612860Y508800D01*
X612796Y508787D01*
X612732Y508777D01*
X612668Y508771D01*
X612603Y508769D01*
X612603Y508768D02*
X609921Y508768D01*
X609856Y508770D01*
X609792Y508776D01*
X609728Y508786D01*
X609664Y508799D01*
X609602Y508817D01*
X609541Y508838D01*
X609481Y508863D01*
X609422Y508891D01*
X609366Y508923D01*
X609311Y508958D01*
X609259Y508996D01*
X609209Y509038D01*
X609162Y509082D01*
X609118Y509129D01*
X609076Y509179D01*
X609038Y509231D01*
X609003Y509286D01*
X608971Y509342D01*
X608943Y509401D01*
X608918Y509460D01*
X608897Y509522D01*
X608879Y509584D01*
X608866Y509648D01*
X608856Y509712D01*
X608850Y509776D01*
X608848Y509841D01*
X608849Y509841D02*
X608849Y510913D01*
D10*
X632718Y466067D02*
X674267Y493882D01*
X632718Y466067D02*
X660533Y424518D01*
X702082Y452333D01*
X674267Y493882D01*
D13*
X662392Y468430D02*
X662345Y468401D01*
X662296Y468375D01*
X662246Y468352D01*
X662194Y468332D01*
X662141Y468316D01*
X662087Y468303D01*
X662032Y468294D01*
X661977Y468289D01*
X661922Y468287D01*
X661866Y468289D01*
X661811Y468294D01*
X661756Y468303D01*
X661702Y468316D01*
X661649Y468332D01*
X661598Y468351D01*
X661547Y468374D01*
X661498Y468400D01*
X661451Y468429D01*
X661406Y468462D01*
X661363Y468497D01*
X661323Y468535D01*
X661285Y468575D01*
X661249Y468618D01*
X661217Y468663D01*
X661173Y468733D01*
X661131Y468805D01*
X661094Y468879D01*
X661059Y468955D01*
X661028Y469032D01*
X661001Y469110D01*
X660977Y469190D01*
X660957Y469271D01*
X660941Y469352D01*
X660929Y469434D01*
X660921Y469517D01*
X660916Y469600D01*
X660915Y469683D01*
X660918Y469766D01*
X660925Y469849D01*
X660936Y469931D01*
X660951Y470013D01*
X663033Y471280D02*
X663080Y471309D01*
X663129Y471335D01*
X663179Y471358D01*
X663231Y471378D01*
X663284Y471394D01*
X663338Y471407D01*
X663393Y471416D01*
X663448Y471421D01*
X663503Y471423D01*
X663559Y471421D01*
X663614Y471416D01*
X663669Y471407D01*
X663723Y471394D01*
X663776Y471378D01*
X663827Y471359D01*
X663878Y471336D01*
X663927Y471310D01*
X663974Y471281D01*
X664019Y471248D01*
X664062Y471213D01*
X664102Y471175D01*
X664140Y471135D01*
X664176Y471092D01*
X664208Y471047D01*
X664208Y471046D02*
X664250Y470980D01*
X664288Y470912D01*
X664324Y470841D01*
X664356Y470770D01*
X664384Y470696D01*
X664408Y470622D01*
X664429Y470546D01*
X664446Y470469D01*
X664459Y470392D01*
X664469Y470314D01*
X664474Y470235D01*
X664476Y470157D01*
X664474Y470078D01*
X662652Y470516D02*
X662651Y470571D01*
X662653Y470627D01*
X662659Y470683D01*
X662669Y470738D01*
X662681Y470792D01*
X662698Y470845D01*
X662718Y470897D01*
X662741Y470948D01*
X662768Y470997D01*
X662797Y471045D01*
X662830Y471090D01*
X662865Y471133D01*
X662903Y471174D01*
X662944Y471212D01*
X662987Y471247D01*
X663033Y471280D01*
X662773Y469194D02*
X662774Y469139D01*
X662772Y469083D01*
X662766Y469027D01*
X662756Y468972D01*
X662744Y468918D01*
X662727Y468865D01*
X662707Y468813D01*
X662684Y468762D01*
X662657Y468713D01*
X662628Y468665D01*
X662595Y468620D01*
X662560Y468577D01*
X662522Y468536D01*
X662481Y468498D01*
X662438Y468463D01*
X662392Y468430D01*
X662772Y469195D02*
X662652Y470515D01*
X665562Y469022D02*
X662867Y466199D01*
X665449Y466909D01*
X663809Y464792D01*
X667446Y466208D01*
X668403Y464778D02*
X665237Y462659D01*
X665002Y463011D02*
X665473Y462307D01*
X668639Y464427D02*
X668168Y465130D01*
X669895Y462550D02*
X666729Y460430D01*
X669306Y463429D02*
X670484Y461670D01*
X668505Y457777D02*
X668976Y457073D01*
X668505Y457777D02*
X668476Y457824D01*
X668450Y457873D01*
X668427Y457923D01*
X668407Y457975D01*
X668391Y458028D01*
X668378Y458082D01*
X668369Y458137D01*
X668364Y458192D01*
X668362Y458247D01*
X668364Y458303D01*
X668369Y458358D01*
X668378Y458413D01*
X668391Y458467D01*
X668407Y458520D01*
X668426Y458571D01*
X668449Y458622D01*
X668475Y458671D01*
X668504Y458718D01*
X668537Y458763D01*
X668572Y458806D01*
X668610Y458846D01*
X668650Y458884D01*
X668693Y458920D01*
X668738Y458952D01*
X670497Y460129D01*
X670497Y460130D02*
X670544Y460159D01*
X670593Y460185D01*
X670643Y460208D01*
X670695Y460228D01*
X670748Y460244D01*
X670802Y460257D01*
X670857Y460266D01*
X670912Y460271D01*
X670967Y460273D01*
X671023Y460271D01*
X671078Y460266D01*
X671133Y460257D01*
X671187Y460244D01*
X671240Y460228D01*
X671291Y460209D01*
X671342Y460186D01*
X671391Y460160D01*
X671438Y460131D01*
X671483Y460098D01*
X671526Y460063D01*
X671566Y460025D01*
X671604Y459985D01*
X671640Y459942D01*
X671672Y459897D01*
X671671Y459897D02*
X672142Y459193D01*
X672969Y457958D02*
X669803Y455839D01*
X671562Y457016D02*
X672739Y455257D01*
X674146Y456199D02*
X670980Y454080D01*
D11*
X246051Y324351D02*
X246051Y319525D01*
X248196Y319525D01*
X250805Y319525D02*
X252950Y319525D01*
X250805Y319525D02*
X250805Y324351D01*
X252950Y324351D01*
X252414Y322206D02*
X250805Y322206D01*
X255541Y324351D02*
X255541Y319525D01*
X255541Y324351D02*
X256881Y324351D01*
X256951Y324349D01*
X257021Y324344D01*
X257091Y324334D01*
X257160Y324322D01*
X257228Y324305D01*
X257295Y324285D01*
X257362Y324262D01*
X257426Y324235D01*
X257490Y324205D01*
X257552Y324171D01*
X257611Y324135D01*
X257669Y324095D01*
X257725Y324052D01*
X257778Y324007D01*
X257829Y323958D01*
X257878Y323907D01*
X257923Y323854D01*
X257966Y323798D01*
X258006Y323740D01*
X258042Y323681D01*
X258076Y323619D01*
X258106Y323555D01*
X258133Y323491D01*
X258156Y323424D01*
X258176Y323357D01*
X258193Y323289D01*
X258205Y323220D01*
X258215Y323150D01*
X258220Y323080D01*
X258222Y323010D01*
X258222Y320866D01*
X258220Y320796D01*
X258215Y320726D01*
X258205Y320656D01*
X258193Y320587D01*
X258176Y320519D01*
X258156Y320452D01*
X258133Y320385D01*
X258106Y320321D01*
X258076Y320257D01*
X258042Y320195D01*
X258006Y320136D01*
X257966Y320078D01*
X257923Y320022D01*
X257878Y319969D01*
X257829Y319918D01*
X257778Y319869D01*
X257725Y319824D01*
X257669Y319781D01*
X257611Y319741D01*
X257551Y319705D01*
X257490Y319671D01*
X257426Y319641D01*
X257362Y319614D01*
X257295Y319591D01*
X257228Y319571D01*
X257160Y319554D01*
X257091Y319542D01*
X257021Y319532D01*
X256951Y319527D01*
X256881Y319525D01*
X255541Y319525D01*
X260929Y318989D02*
X263074Y318989D01*
X265846Y319525D02*
X265846Y324351D01*
X267186Y324351D01*
X267257Y324349D01*
X267329Y324343D01*
X267399Y324334D01*
X267469Y324321D01*
X267539Y324304D01*
X267607Y324283D01*
X267674Y324259D01*
X267740Y324231D01*
X267804Y324200D01*
X267867Y324165D01*
X267927Y324127D01*
X267986Y324086D01*
X268042Y324042D01*
X268096Y323995D01*
X268147Y323946D01*
X268195Y323893D01*
X268241Y323838D01*
X268283Y323781D01*
X268323Y323721D01*
X268359Y323660D01*
X268392Y323596D01*
X268421Y323531D01*
X268447Y323465D01*
X268470Y323397D01*
X268489Y323328D01*
X268504Y323258D01*
X268515Y323188D01*
X268523Y323117D01*
X268527Y323046D01*
X268527Y322974D01*
X268523Y322903D01*
X268515Y322832D01*
X268504Y322762D01*
X268489Y322692D01*
X268470Y322623D01*
X268447Y322555D01*
X268421Y322489D01*
X268392Y322424D01*
X268359Y322360D01*
X268323Y322299D01*
X268283Y322239D01*
X268241Y322182D01*
X268195Y322127D01*
X268147Y322074D01*
X268096Y322025D01*
X268042Y321978D01*
X267986Y321934D01*
X267927Y321893D01*
X267867Y321855D01*
X267804Y321820D01*
X267740Y321789D01*
X267674Y321761D01*
X267607Y321737D01*
X267539Y321716D01*
X267469Y321699D01*
X267399Y321686D01*
X267329Y321677D01*
X267257Y321671D01*
X267186Y321669D01*
X267186Y321670D02*
X265846Y321670D01*
X267454Y321670D02*
X268527Y319525D01*
X272743Y324351D02*
X272811Y324349D01*
X272878Y324343D01*
X272945Y324334D01*
X273012Y324321D01*
X273077Y324304D01*
X273142Y324283D01*
X273205Y324259D01*
X273267Y324231D01*
X273327Y324200D01*
X273385Y324166D01*
X273441Y324128D01*
X273496Y324088D01*
X273547Y324044D01*
X273596Y323997D01*
X273643Y323948D01*
X273687Y323897D01*
X273727Y323842D01*
X273765Y323786D01*
X273799Y323728D01*
X273830Y323668D01*
X273858Y323606D01*
X273882Y323543D01*
X273903Y323478D01*
X273920Y323413D01*
X273933Y323346D01*
X273942Y323279D01*
X273948Y323212D01*
X273950Y323144D01*
X272743Y324351D02*
X272665Y324349D01*
X272587Y324343D01*
X272510Y324333D01*
X272433Y324320D01*
X272357Y324302D01*
X272282Y324281D01*
X272208Y324256D01*
X272136Y324227D01*
X272065Y324195D01*
X271996Y324159D01*
X271928Y324120D01*
X271863Y324077D01*
X271800Y324031D01*
X271739Y323982D01*
X271681Y323930D01*
X271626Y323875D01*
X271573Y323818D01*
X271524Y323758D01*
X271477Y323695D01*
X271434Y323631D01*
X271394Y323564D01*
X271357Y323495D01*
X271324Y323424D01*
X271294Y323352D01*
X271268Y323279D01*
X273548Y322206D02*
X273597Y322255D01*
X273644Y322307D01*
X273687Y322362D01*
X273728Y322419D01*
X273766Y322478D01*
X273800Y322539D01*
X273831Y322602D01*
X273859Y322666D01*
X273883Y322732D01*
X273903Y322798D01*
X273920Y322866D01*
X273933Y322935D01*
X273942Y323004D01*
X273948Y323074D01*
X273950Y323144D01*
X273547Y322206D02*
X271268Y319525D01*
X273949Y319525D01*
D14*
X196000Y316825D02*
X196000Y303175D01*
D11*
X211080Y299840D02*
X211080Y295014D01*
X213225Y295014D01*
X215835Y295014D02*
X217979Y295014D01*
X215835Y295014D02*
X215835Y299840D01*
X217979Y299840D01*
X217443Y297695D02*
X215835Y297695D01*
X220570Y299840D02*
X220570Y295014D01*
X220570Y299840D02*
X221910Y299840D01*
X221980Y299838D01*
X222050Y299833D01*
X222120Y299823D01*
X222189Y299811D01*
X222257Y299794D01*
X222324Y299774D01*
X222391Y299751D01*
X222455Y299724D01*
X222519Y299694D01*
X222581Y299660D01*
X222640Y299624D01*
X222698Y299584D01*
X222754Y299541D01*
X222807Y299496D01*
X222858Y299447D01*
X222907Y299396D01*
X222952Y299343D01*
X222995Y299287D01*
X223035Y299229D01*
X223071Y299170D01*
X223105Y299108D01*
X223135Y299044D01*
X223162Y298980D01*
X223185Y298913D01*
X223205Y298846D01*
X223222Y298778D01*
X223234Y298709D01*
X223244Y298639D01*
X223249Y298569D01*
X223251Y298499D01*
X223251Y296355D01*
X223249Y296285D01*
X223244Y296215D01*
X223234Y296145D01*
X223222Y296076D01*
X223205Y296008D01*
X223185Y295941D01*
X223162Y295874D01*
X223135Y295810D01*
X223105Y295746D01*
X223071Y295684D01*
X223035Y295625D01*
X222995Y295567D01*
X222952Y295511D01*
X222907Y295458D01*
X222858Y295407D01*
X222807Y295358D01*
X222754Y295313D01*
X222698Y295270D01*
X222640Y295230D01*
X222580Y295194D01*
X222519Y295160D01*
X222455Y295130D01*
X222391Y295103D01*
X222324Y295080D01*
X222257Y295060D01*
X222189Y295043D01*
X222120Y295031D01*
X222050Y295021D01*
X221980Y295016D01*
X221910Y295014D01*
X220570Y295014D01*
X227714Y299840D02*
X227782Y299838D01*
X227849Y299832D01*
X227916Y299823D01*
X227983Y299810D01*
X228048Y299793D01*
X228113Y299772D01*
X228176Y299748D01*
X228238Y299720D01*
X228298Y299689D01*
X228356Y299655D01*
X228412Y299617D01*
X228467Y299577D01*
X228518Y299533D01*
X228567Y299486D01*
X228614Y299437D01*
X228658Y299386D01*
X228698Y299331D01*
X228736Y299275D01*
X228770Y299217D01*
X228801Y299157D01*
X228829Y299095D01*
X228853Y299032D01*
X228874Y298967D01*
X228891Y298902D01*
X228904Y298835D01*
X228913Y298768D01*
X228919Y298701D01*
X228921Y298633D01*
X227714Y299840D02*
X227636Y299838D01*
X227558Y299832D01*
X227481Y299822D01*
X227404Y299809D01*
X227328Y299791D01*
X227253Y299770D01*
X227179Y299745D01*
X227107Y299716D01*
X227036Y299684D01*
X226967Y299648D01*
X226899Y299609D01*
X226834Y299566D01*
X226771Y299520D01*
X226710Y299471D01*
X226652Y299419D01*
X226597Y299364D01*
X226544Y299307D01*
X226495Y299247D01*
X226448Y299184D01*
X226405Y299120D01*
X226365Y299053D01*
X226328Y298984D01*
X226295Y298913D01*
X226265Y298841D01*
X226239Y298768D01*
X228518Y297695D02*
X228567Y297744D01*
X228614Y297796D01*
X228657Y297851D01*
X228698Y297908D01*
X228736Y297967D01*
X228770Y298028D01*
X228801Y298091D01*
X228829Y298155D01*
X228853Y298221D01*
X228873Y298287D01*
X228890Y298355D01*
X228903Y298424D01*
X228912Y298493D01*
X228918Y298563D01*
X228920Y298633D01*
X228518Y297695D02*
X226239Y295014D01*
X228920Y295014D01*
X246051Y339525D02*
X246051Y344351D01*
X246051Y339525D02*
X248196Y339525D01*
X250805Y339525D02*
X252950Y339525D01*
X250805Y339525D02*
X250805Y344351D01*
X252950Y344351D01*
X252414Y342206D02*
X250805Y342206D01*
X255541Y344351D02*
X255541Y339525D01*
X255541Y344351D02*
X256881Y344351D01*
X256951Y344349D01*
X257021Y344344D01*
X257091Y344334D01*
X257160Y344322D01*
X257228Y344305D01*
X257295Y344285D01*
X257362Y344262D01*
X257426Y344235D01*
X257490Y344205D01*
X257552Y344171D01*
X257611Y344135D01*
X257669Y344095D01*
X257725Y344052D01*
X257778Y344007D01*
X257829Y343958D01*
X257878Y343907D01*
X257923Y343854D01*
X257966Y343798D01*
X258006Y343740D01*
X258042Y343681D01*
X258076Y343619D01*
X258106Y343555D01*
X258133Y343491D01*
X258156Y343424D01*
X258176Y343357D01*
X258193Y343289D01*
X258205Y343220D01*
X258215Y343150D01*
X258220Y343080D01*
X258222Y343010D01*
X258222Y340866D01*
X258220Y340796D01*
X258215Y340726D01*
X258205Y340656D01*
X258193Y340587D01*
X258176Y340519D01*
X258156Y340452D01*
X258133Y340385D01*
X258106Y340321D01*
X258076Y340257D01*
X258042Y340195D01*
X258006Y340136D01*
X257966Y340078D01*
X257923Y340022D01*
X257878Y339969D01*
X257829Y339918D01*
X257778Y339869D01*
X257725Y339824D01*
X257669Y339781D01*
X257611Y339741D01*
X257551Y339705D01*
X257490Y339671D01*
X257426Y339641D01*
X257362Y339614D01*
X257295Y339591D01*
X257228Y339571D01*
X257160Y339554D01*
X257091Y339542D01*
X257021Y339532D01*
X256951Y339527D01*
X256881Y339525D01*
X255541Y339525D01*
X260929Y338989D02*
X263074Y338989D01*
X265846Y339525D02*
X265846Y344351D01*
X267186Y344351D01*
X267257Y344349D01*
X267329Y344343D01*
X267399Y344334D01*
X267469Y344321D01*
X267539Y344304D01*
X267607Y344283D01*
X267674Y344259D01*
X267740Y344231D01*
X267804Y344200D01*
X267867Y344165D01*
X267927Y344127D01*
X267986Y344086D01*
X268042Y344042D01*
X268096Y343995D01*
X268147Y343946D01*
X268195Y343893D01*
X268241Y343838D01*
X268283Y343781D01*
X268323Y343721D01*
X268359Y343660D01*
X268392Y343596D01*
X268421Y343531D01*
X268447Y343465D01*
X268470Y343397D01*
X268489Y343328D01*
X268504Y343258D01*
X268515Y343188D01*
X268523Y343117D01*
X268527Y343046D01*
X268527Y342974D01*
X268523Y342903D01*
X268515Y342832D01*
X268504Y342762D01*
X268489Y342692D01*
X268470Y342623D01*
X268447Y342555D01*
X268421Y342489D01*
X268392Y342424D01*
X268359Y342360D01*
X268323Y342299D01*
X268283Y342239D01*
X268241Y342182D01*
X268195Y342127D01*
X268147Y342074D01*
X268096Y342025D01*
X268042Y341978D01*
X267986Y341934D01*
X267927Y341893D01*
X267867Y341855D01*
X267804Y341820D01*
X267740Y341789D01*
X267674Y341761D01*
X267607Y341737D01*
X267539Y341716D01*
X267469Y341699D01*
X267399Y341686D01*
X267329Y341677D01*
X267257Y341671D01*
X267186Y341669D01*
X267186Y341670D02*
X265846Y341670D01*
X267454Y341670D02*
X268527Y339525D01*
X271268Y343279D02*
X272609Y344351D01*
X272609Y339525D01*
X273949Y339525D02*
X271268Y339525D01*
D14*
X196000Y336825D02*
X196000Y323175D01*
D11*
X211080Y319840D02*
X211080Y315014D01*
X213225Y315014D01*
X215835Y315014D02*
X217979Y315014D01*
X215835Y315014D02*
X215835Y319840D01*
X217979Y319840D01*
X217443Y317695D02*
X215835Y317695D01*
X220570Y319840D02*
X220570Y315014D01*
X220570Y319840D02*
X221910Y319840D01*
X221980Y319838D01*
X222050Y319833D01*
X222120Y319823D01*
X222189Y319811D01*
X222257Y319794D01*
X222324Y319774D01*
X222391Y319751D01*
X222455Y319724D01*
X222519Y319694D01*
X222581Y319660D01*
X222640Y319624D01*
X222698Y319584D01*
X222754Y319541D01*
X222807Y319496D01*
X222858Y319447D01*
X222907Y319396D01*
X222952Y319343D01*
X222995Y319287D01*
X223035Y319229D01*
X223071Y319170D01*
X223105Y319108D01*
X223135Y319044D01*
X223162Y318980D01*
X223185Y318913D01*
X223205Y318846D01*
X223222Y318778D01*
X223234Y318709D01*
X223244Y318639D01*
X223249Y318569D01*
X223251Y318499D01*
X223251Y316355D01*
X223249Y316285D01*
X223244Y316215D01*
X223234Y316145D01*
X223222Y316076D01*
X223205Y316008D01*
X223185Y315941D01*
X223162Y315874D01*
X223135Y315810D01*
X223105Y315746D01*
X223071Y315684D01*
X223035Y315625D01*
X222995Y315567D01*
X222952Y315511D01*
X222907Y315458D01*
X222858Y315407D01*
X222807Y315358D01*
X222754Y315313D01*
X222698Y315270D01*
X222640Y315230D01*
X222580Y315194D01*
X222519Y315160D01*
X222455Y315130D01*
X222391Y315103D01*
X222324Y315080D01*
X222257Y315060D01*
X222189Y315043D01*
X222120Y315031D01*
X222050Y315021D01*
X221980Y315016D01*
X221910Y315014D01*
X220570Y315014D01*
X226239Y318768D02*
X227580Y319840D01*
X227580Y315014D01*
X228920Y315014D02*
X226239Y315014D01*
X666051Y315649D02*
X666051Y320475D01*
X666051Y315649D02*
X668195Y315649D01*
X670805Y315649D02*
X672950Y315649D01*
X670805Y315649D02*
X670805Y320475D01*
X672950Y320475D01*
X672414Y318330D02*
X670805Y318330D01*
X675541Y320475D02*
X675541Y315649D01*
X675541Y320475D02*
X676881Y320475D01*
X676951Y320473D01*
X677021Y320468D01*
X677091Y320458D01*
X677160Y320446D01*
X677228Y320429D01*
X677295Y320409D01*
X677362Y320386D01*
X677426Y320359D01*
X677490Y320329D01*
X677552Y320295D01*
X677611Y320259D01*
X677669Y320219D01*
X677725Y320176D01*
X677778Y320131D01*
X677829Y320082D01*
X677878Y320031D01*
X677923Y319978D01*
X677966Y319922D01*
X678006Y319864D01*
X678042Y319805D01*
X678076Y319743D01*
X678106Y319679D01*
X678133Y319615D01*
X678156Y319548D01*
X678176Y319481D01*
X678193Y319413D01*
X678205Y319344D01*
X678215Y319274D01*
X678220Y319204D01*
X678222Y319134D01*
X678222Y316990D01*
X678220Y316920D01*
X678215Y316850D01*
X678205Y316780D01*
X678193Y316711D01*
X678176Y316643D01*
X678156Y316576D01*
X678133Y316509D01*
X678106Y316445D01*
X678076Y316381D01*
X678042Y316319D01*
X678006Y316260D01*
X677966Y316202D01*
X677923Y316146D01*
X677878Y316093D01*
X677829Y316042D01*
X677778Y315993D01*
X677725Y315948D01*
X677669Y315905D01*
X677611Y315865D01*
X677551Y315829D01*
X677490Y315795D01*
X677426Y315765D01*
X677362Y315738D01*
X677295Y315715D01*
X677228Y315695D01*
X677160Y315678D01*
X677091Y315666D01*
X677021Y315656D01*
X676951Y315651D01*
X676881Y315649D01*
X675541Y315649D01*
X680929Y315113D02*
X683074Y315113D01*
X685846Y315649D02*
X685846Y320475D01*
X687186Y320475D01*
X687257Y320473D01*
X687329Y320467D01*
X687399Y320458D01*
X687469Y320445D01*
X687539Y320428D01*
X687607Y320407D01*
X687674Y320383D01*
X687740Y320355D01*
X687804Y320324D01*
X687867Y320289D01*
X687927Y320251D01*
X687986Y320210D01*
X688042Y320166D01*
X688096Y320119D01*
X688147Y320070D01*
X688195Y320017D01*
X688241Y319962D01*
X688283Y319905D01*
X688323Y319845D01*
X688359Y319784D01*
X688392Y319720D01*
X688421Y319655D01*
X688447Y319589D01*
X688470Y319521D01*
X688489Y319452D01*
X688504Y319382D01*
X688515Y319312D01*
X688523Y319241D01*
X688527Y319170D01*
X688527Y319098D01*
X688523Y319027D01*
X688515Y318956D01*
X688504Y318886D01*
X688489Y318816D01*
X688470Y318747D01*
X688447Y318679D01*
X688421Y318613D01*
X688392Y318548D01*
X688359Y318484D01*
X688323Y318423D01*
X688283Y318363D01*
X688241Y318306D01*
X688195Y318251D01*
X688147Y318198D01*
X688096Y318149D01*
X688042Y318102D01*
X687986Y318058D01*
X687927Y318017D01*
X687867Y317979D01*
X687804Y317944D01*
X687740Y317913D01*
X687674Y317885D01*
X687607Y317861D01*
X687539Y317840D01*
X687469Y317823D01*
X687399Y317810D01*
X687329Y317801D01*
X687257Y317795D01*
X687186Y317793D01*
X687186Y317794D02*
X685846Y317794D01*
X687454Y317794D02*
X688527Y315649D01*
X691268Y315649D02*
X692609Y315649D01*
X692680Y315651D01*
X692752Y315657D01*
X692822Y315666D01*
X692892Y315679D01*
X692962Y315696D01*
X693030Y315717D01*
X693097Y315741D01*
X693163Y315769D01*
X693227Y315800D01*
X693290Y315835D01*
X693350Y315873D01*
X693409Y315914D01*
X693465Y315958D01*
X693519Y316005D01*
X693570Y316054D01*
X693618Y316107D01*
X693664Y316162D01*
X693706Y316219D01*
X693746Y316279D01*
X693782Y316340D01*
X693815Y316404D01*
X693844Y316469D01*
X693870Y316535D01*
X693893Y316603D01*
X693912Y316672D01*
X693927Y316742D01*
X693938Y316812D01*
X693946Y316883D01*
X693950Y316954D01*
X693950Y317026D01*
X693946Y317097D01*
X693938Y317168D01*
X693927Y317238D01*
X693912Y317308D01*
X693893Y317377D01*
X693870Y317445D01*
X693844Y317511D01*
X693815Y317576D01*
X693782Y317640D01*
X693746Y317701D01*
X693706Y317761D01*
X693664Y317818D01*
X693618Y317873D01*
X693570Y317926D01*
X693519Y317975D01*
X693465Y318022D01*
X693409Y318066D01*
X693350Y318107D01*
X693290Y318145D01*
X693227Y318180D01*
X693163Y318211D01*
X693097Y318239D01*
X693030Y318263D01*
X692962Y318284D01*
X692892Y318301D01*
X692822Y318314D01*
X692752Y318323D01*
X692680Y318329D01*
X692609Y318331D01*
X692877Y320475D02*
X691268Y320475D01*
X692877Y320475D02*
X692942Y320473D01*
X693006Y320467D01*
X693070Y320457D01*
X693134Y320444D01*
X693196Y320426D01*
X693257Y320405D01*
X693317Y320381D01*
X693375Y320352D01*
X693432Y320320D01*
X693486Y320285D01*
X693538Y320247D01*
X693588Y320205D01*
X693635Y320161D01*
X693679Y320114D01*
X693721Y320064D01*
X693759Y320012D01*
X693794Y319958D01*
X693826Y319901D01*
X693855Y319843D01*
X693879Y319783D01*
X693900Y319722D01*
X693918Y319660D01*
X693931Y319596D01*
X693941Y319532D01*
X693947Y319468D01*
X693949Y319403D01*
X693947Y319338D01*
X693941Y319274D01*
X693931Y319210D01*
X693918Y319146D01*
X693900Y319084D01*
X693879Y319023D01*
X693855Y318963D01*
X693826Y318905D01*
X693794Y318848D01*
X693759Y318794D01*
X693721Y318742D01*
X693679Y318692D01*
X693635Y318645D01*
X693588Y318601D01*
X693538Y318559D01*
X693486Y318521D01*
X693432Y318486D01*
X693375Y318454D01*
X693317Y318425D01*
X693257Y318401D01*
X693196Y318380D01*
X693134Y318362D01*
X693070Y318349D01*
X693006Y318339D01*
X692942Y318333D01*
X692877Y318331D01*
X692877Y318330D02*
X691805Y318330D01*
D14*
X744000Y323175D02*
X744000Y336825D01*
D11*
X711080Y340160D02*
X711080Y344986D01*
X711080Y340160D02*
X713225Y340160D01*
X715835Y340160D02*
X717979Y340160D01*
X715835Y340160D02*
X715835Y344986D01*
X717979Y344986D01*
X717443Y342841D02*
X715835Y342841D01*
X720570Y344986D02*
X720570Y340160D01*
X720570Y344986D02*
X721910Y344986D01*
X721980Y344984D01*
X722050Y344979D01*
X722120Y344969D01*
X722189Y344957D01*
X722257Y344940D01*
X722324Y344920D01*
X722391Y344897D01*
X722455Y344870D01*
X722519Y344840D01*
X722581Y344806D01*
X722640Y344770D01*
X722698Y344730D01*
X722754Y344687D01*
X722807Y344642D01*
X722858Y344593D01*
X722907Y344542D01*
X722952Y344489D01*
X722995Y344433D01*
X723035Y344375D01*
X723071Y344316D01*
X723105Y344254D01*
X723135Y344190D01*
X723162Y344126D01*
X723185Y344059D01*
X723205Y343992D01*
X723222Y343924D01*
X723234Y343855D01*
X723244Y343785D01*
X723249Y343715D01*
X723251Y343645D01*
X723251Y341501D01*
X723249Y341431D01*
X723244Y341361D01*
X723234Y341291D01*
X723222Y341222D01*
X723205Y341154D01*
X723185Y341087D01*
X723162Y341020D01*
X723135Y340956D01*
X723105Y340892D01*
X723071Y340830D01*
X723035Y340771D01*
X722995Y340713D01*
X722952Y340657D01*
X722907Y340604D01*
X722858Y340553D01*
X722807Y340504D01*
X722754Y340459D01*
X722698Y340416D01*
X722640Y340376D01*
X722580Y340340D01*
X722519Y340306D01*
X722455Y340276D01*
X722391Y340249D01*
X722324Y340226D01*
X722257Y340206D01*
X722189Y340189D01*
X722120Y340177D01*
X722050Y340167D01*
X721980Y340162D01*
X721910Y340160D01*
X720570Y340160D01*
X726239Y340160D02*
X727580Y340160D01*
X727651Y340162D01*
X727723Y340168D01*
X727793Y340177D01*
X727863Y340190D01*
X727933Y340207D01*
X728001Y340228D01*
X728068Y340252D01*
X728134Y340280D01*
X728198Y340311D01*
X728261Y340346D01*
X728321Y340384D01*
X728380Y340425D01*
X728436Y340469D01*
X728490Y340516D01*
X728541Y340565D01*
X728589Y340618D01*
X728635Y340673D01*
X728677Y340730D01*
X728717Y340790D01*
X728753Y340851D01*
X728786Y340915D01*
X728815Y340980D01*
X728841Y341046D01*
X728864Y341114D01*
X728883Y341183D01*
X728898Y341253D01*
X728909Y341323D01*
X728917Y341394D01*
X728921Y341465D01*
X728921Y341537D01*
X728917Y341608D01*
X728909Y341679D01*
X728898Y341749D01*
X728883Y341819D01*
X728864Y341888D01*
X728841Y341956D01*
X728815Y342022D01*
X728786Y342087D01*
X728753Y342151D01*
X728717Y342212D01*
X728677Y342272D01*
X728635Y342329D01*
X728589Y342384D01*
X728541Y342437D01*
X728490Y342486D01*
X728436Y342533D01*
X728380Y342577D01*
X728321Y342618D01*
X728261Y342656D01*
X728198Y342691D01*
X728134Y342722D01*
X728068Y342750D01*
X728001Y342774D01*
X727933Y342795D01*
X727863Y342812D01*
X727793Y342825D01*
X727723Y342834D01*
X727651Y342840D01*
X727580Y342842D01*
X727848Y344986D02*
X726239Y344986D01*
X727848Y344986D02*
X727913Y344984D01*
X727977Y344978D01*
X728041Y344968D01*
X728105Y344955D01*
X728167Y344937D01*
X728228Y344916D01*
X728288Y344892D01*
X728346Y344863D01*
X728403Y344831D01*
X728457Y344796D01*
X728509Y344758D01*
X728559Y344716D01*
X728606Y344672D01*
X728650Y344625D01*
X728692Y344575D01*
X728730Y344523D01*
X728765Y344469D01*
X728797Y344412D01*
X728826Y344354D01*
X728850Y344294D01*
X728871Y344233D01*
X728889Y344171D01*
X728902Y344107D01*
X728912Y344043D01*
X728918Y343979D01*
X728920Y343914D01*
X728918Y343849D01*
X728912Y343785D01*
X728902Y343721D01*
X728889Y343657D01*
X728871Y343595D01*
X728850Y343534D01*
X728826Y343474D01*
X728797Y343416D01*
X728765Y343359D01*
X728730Y343305D01*
X728692Y343253D01*
X728650Y343203D01*
X728606Y343156D01*
X728559Y343112D01*
X728509Y343070D01*
X728457Y343032D01*
X728403Y342997D01*
X728346Y342965D01*
X728288Y342936D01*
X728228Y342912D01*
X728167Y342891D01*
X728105Y342873D01*
X728041Y342860D01*
X727977Y342850D01*
X727913Y342844D01*
X727848Y342842D01*
X727848Y342841D02*
X726775Y342841D01*
X666051Y300475D02*
X666051Y295649D01*
X668195Y295649D01*
X670805Y295649D02*
X672950Y295649D01*
X670805Y295649D02*
X670805Y300475D01*
X672950Y300475D01*
X672414Y298330D02*
X670805Y298330D01*
X675541Y300475D02*
X675541Y295649D01*
X675541Y300475D02*
X676881Y300475D01*
X676951Y300473D01*
X677021Y300468D01*
X677091Y300458D01*
X677160Y300446D01*
X677228Y300429D01*
X677295Y300409D01*
X677362Y300386D01*
X677426Y300359D01*
X677490Y300329D01*
X677552Y300295D01*
X677611Y300259D01*
X677669Y300219D01*
X677725Y300176D01*
X677778Y300131D01*
X677829Y300082D01*
X677878Y300031D01*
X677923Y299978D01*
X677966Y299922D01*
X678006Y299864D01*
X678042Y299805D01*
X678076Y299743D01*
X678106Y299679D01*
X678133Y299615D01*
X678156Y299548D01*
X678176Y299481D01*
X678193Y299413D01*
X678205Y299344D01*
X678215Y299274D01*
X678220Y299204D01*
X678222Y299134D01*
X678222Y296990D01*
X678220Y296920D01*
X678215Y296850D01*
X678205Y296780D01*
X678193Y296711D01*
X678176Y296643D01*
X678156Y296576D01*
X678133Y296509D01*
X678106Y296445D01*
X678076Y296381D01*
X678042Y296319D01*
X678006Y296260D01*
X677966Y296202D01*
X677923Y296146D01*
X677878Y296093D01*
X677829Y296042D01*
X677778Y295993D01*
X677725Y295948D01*
X677669Y295905D01*
X677611Y295865D01*
X677551Y295829D01*
X677490Y295795D01*
X677426Y295765D01*
X677362Y295738D01*
X677295Y295715D01*
X677228Y295695D01*
X677160Y295678D01*
X677091Y295666D01*
X677021Y295656D01*
X676951Y295651D01*
X676881Y295649D01*
X675541Y295649D01*
X680929Y295113D02*
X683074Y295113D01*
X685846Y295649D02*
X685846Y300475D01*
X687186Y300475D01*
X687257Y300473D01*
X687329Y300467D01*
X687399Y300458D01*
X687469Y300445D01*
X687539Y300428D01*
X687607Y300407D01*
X687674Y300383D01*
X687740Y300355D01*
X687804Y300324D01*
X687867Y300289D01*
X687927Y300251D01*
X687986Y300210D01*
X688042Y300166D01*
X688096Y300119D01*
X688147Y300070D01*
X688195Y300017D01*
X688241Y299962D01*
X688283Y299905D01*
X688323Y299845D01*
X688359Y299784D01*
X688392Y299720D01*
X688421Y299655D01*
X688447Y299589D01*
X688470Y299521D01*
X688489Y299452D01*
X688504Y299382D01*
X688515Y299312D01*
X688523Y299241D01*
X688527Y299170D01*
X688527Y299098D01*
X688523Y299027D01*
X688515Y298956D01*
X688504Y298886D01*
X688489Y298816D01*
X688470Y298747D01*
X688447Y298679D01*
X688421Y298613D01*
X688392Y298548D01*
X688359Y298484D01*
X688323Y298423D01*
X688283Y298363D01*
X688241Y298306D01*
X688195Y298251D01*
X688147Y298198D01*
X688096Y298149D01*
X688042Y298102D01*
X687986Y298058D01*
X687927Y298017D01*
X687867Y297979D01*
X687804Y297944D01*
X687740Y297913D01*
X687674Y297885D01*
X687607Y297861D01*
X687539Y297840D01*
X687469Y297823D01*
X687399Y297810D01*
X687329Y297801D01*
X687257Y297795D01*
X687186Y297793D01*
X687186Y297794D02*
X685846Y297794D01*
X687454Y297794D02*
X688527Y295649D01*
X691268Y296721D02*
X692341Y300475D01*
X691268Y296721D02*
X693949Y296721D01*
X693145Y297794D02*
X693145Y295649D01*
D14*
X744000Y303175D02*
X744000Y316825D01*
D11*
X711080Y320160D02*
X711080Y324986D01*
X711080Y320160D02*
X713225Y320160D01*
X715835Y320160D02*
X717979Y320160D01*
X715835Y320160D02*
X715835Y324986D01*
X717979Y324986D01*
X717443Y322841D02*
X715835Y322841D01*
X720570Y324986D02*
X720570Y320160D01*
X720570Y324986D02*
X721910Y324986D01*
X721980Y324984D01*
X722050Y324979D01*
X722120Y324969D01*
X722189Y324957D01*
X722257Y324940D01*
X722324Y324920D01*
X722391Y324897D01*
X722455Y324870D01*
X722519Y324840D01*
X722581Y324806D01*
X722640Y324770D01*
X722698Y324730D01*
X722754Y324687D01*
X722807Y324642D01*
X722858Y324593D01*
X722907Y324542D01*
X722952Y324489D01*
X722995Y324433D01*
X723035Y324375D01*
X723071Y324316D01*
X723105Y324254D01*
X723135Y324190D01*
X723162Y324126D01*
X723185Y324059D01*
X723205Y323992D01*
X723222Y323924D01*
X723234Y323855D01*
X723244Y323785D01*
X723249Y323715D01*
X723251Y323645D01*
X723251Y321501D01*
X723249Y321431D01*
X723244Y321361D01*
X723234Y321291D01*
X723222Y321222D01*
X723205Y321154D01*
X723185Y321087D01*
X723162Y321020D01*
X723135Y320956D01*
X723105Y320892D01*
X723071Y320830D01*
X723035Y320771D01*
X722995Y320713D01*
X722952Y320657D01*
X722907Y320604D01*
X722858Y320553D01*
X722807Y320504D01*
X722754Y320459D01*
X722698Y320416D01*
X722640Y320376D01*
X722580Y320340D01*
X722519Y320306D01*
X722455Y320276D01*
X722391Y320249D01*
X722324Y320226D01*
X722257Y320206D01*
X722189Y320189D01*
X722120Y320177D01*
X722050Y320167D01*
X721980Y320162D01*
X721910Y320160D01*
X720570Y320160D01*
X726239Y321232D02*
X727312Y324986D01*
X726239Y321232D02*
X728920Y321232D01*
X728116Y322305D02*
X728116Y320160D01*
D12*
X700000Y380000D03*
X720000Y380000D03*
X660000Y540000D03*
X640000Y540000D03*
X620000Y540000D03*
X600000Y540000D03*
X580000Y540000D03*
D11*
X331051Y574525D02*
X331051Y579351D01*
X331051Y574525D02*
X333196Y574525D01*
X335805Y574525D02*
X337950Y574525D01*
X335805Y574525D02*
X335805Y579351D01*
X337950Y579351D01*
X337414Y577206D02*
X335805Y577206D01*
X340541Y579351D02*
X340541Y574525D01*
X340541Y579351D02*
X341881Y579351D01*
X341951Y579349D01*
X342021Y579344D01*
X342091Y579334D01*
X342160Y579322D01*
X342228Y579305D01*
X342295Y579285D01*
X342362Y579262D01*
X342426Y579235D01*
X342490Y579205D01*
X342552Y579171D01*
X342611Y579135D01*
X342669Y579095D01*
X342725Y579052D01*
X342778Y579007D01*
X342829Y578958D01*
X342878Y578907D01*
X342923Y578854D01*
X342966Y578798D01*
X343006Y578740D01*
X343042Y578681D01*
X343076Y578619D01*
X343106Y578555D01*
X343133Y578491D01*
X343156Y578424D01*
X343176Y578357D01*
X343193Y578289D01*
X343205Y578220D01*
X343215Y578150D01*
X343220Y578080D01*
X343222Y578010D01*
X343222Y575866D01*
X343220Y575796D01*
X343215Y575726D01*
X343205Y575656D01*
X343193Y575587D01*
X343176Y575519D01*
X343156Y575452D01*
X343133Y575385D01*
X343106Y575321D01*
X343076Y575257D01*
X343042Y575195D01*
X343006Y575136D01*
X342966Y575078D01*
X342923Y575022D01*
X342878Y574969D01*
X342829Y574918D01*
X342778Y574869D01*
X342725Y574824D01*
X342669Y574781D01*
X342611Y574741D01*
X342551Y574705D01*
X342490Y574671D01*
X342426Y574641D01*
X342362Y574614D01*
X342295Y574591D01*
X342228Y574571D01*
X342160Y574554D01*
X342091Y574542D01*
X342021Y574532D01*
X341951Y574527D01*
X341881Y574525D01*
X340541Y574525D01*
X345929Y573989D02*
X348074Y573989D01*
X350846Y574525D02*
X350846Y579351D01*
X352186Y579351D01*
X352257Y579349D01*
X352329Y579343D01*
X352399Y579334D01*
X352469Y579321D01*
X352539Y579304D01*
X352607Y579283D01*
X352674Y579259D01*
X352740Y579231D01*
X352804Y579200D01*
X352867Y579165D01*
X352927Y579127D01*
X352986Y579086D01*
X353042Y579042D01*
X353096Y578995D01*
X353147Y578946D01*
X353195Y578893D01*
X353241Y578838D01*
X353283Y578781D01*
X353323Y578721D01*
X353359Y578660D01*
X353392Y578596D01*
X353421Y578531D01*
X353447Y578465D01*
X353470Y578397D01*
X353489Y578328D01*
X353504Y578258D01*
X353515Y578188D01*
X353523Y578117D01*
X353527Y578046D01*
X353527Y577974D01*
X353523Y577903D01*
X353515Y577832D01*
X353504Y577762D01*
X353489Y577692D01*
X353470Y577623D01*
X353447Y577555D01*
X353421Y577489D01*
X353392Y577424D01*
X353359Y577360D01*
X353323Y577299D01*
X353283Y577239D01*
X353241Y577182D01*
X353195Y577127D01*
X353147Y577074D01*
X353096Y577025D01*
X353042Y576978D01*
X352986Y576934D01*
X352927Y576893D01*
X352867Y576855D01*
X352804Y576820D01*
X352740Y576789D01*
X352674Y576761D01*
X352607Y576737D01*
X352539Y576716D01*
X352469Y576699D01*
X352399Y576686D01*
X352329Y576677D01*
X352257Y576671D01*
X352186Y576669D01*
X352186Y576670D02*
X350846Y576670D01*
X352454Y576670D02*
X353527Y574525D01*
X356268Y574525D02*
X357877Y574525D01*
X357942Y574527D01*
X358006Y574533D01*
X358070Y574543D01*
X358134Y574556D01*
X358196Y574574D01*
X358257Y574595D01*
X358317Y574619D01*
X358375Y574648D01*
X358432Y574680D01*
X358486Y574715D01*
X358538Y574753D01*
X358588Y574795D01*
X358635Y574839D01*
X358679Y574886D01*
X358721Y574936D01*
X358759Y574988D01*
X358794Y575042D01*
X358826Y575099D01*
X358855Y575157D01*
X358879Y575217D01*
X358900Y575278D01*
X358918Y575340D01*
X358931Y575404D01*
X358941Y575468D01*
X358947Y575532D01*
X358949Y575597D01*
X358949Y576134D01*
X358947Y576199D01*
X358941Y576263D01*
X358931Y576327D01*
X358918Y576391D01*
X358900Y576453D01*
X358879Y576514D01*
X358855Y576574D01*
X358826Y576632D01*
X358794Y576689D01*
X358759Y576743D01*
X358721Y576795D01*
X358679Y576845D01*
X358635Y576892D01*
X358588Y576936D01*
X358538Y576978D01*
X358486Y577016D01*
X358432Y577051D01*
X358375Y577083D01*
X358317Y577112D01*
X358257Y577136D01*
X358196Y577157D01*
X358134Y577175D01*
X358070Y577188D01*
X358006Y577198D01*
X357942Y577204D01*
X357877Y577206D01*
X356268Y577206D01*
X356268Y579351D01*
X358949Y579351D01*
D14*
X281000Y571825D02*
X281000Y558175D01*
D11*
X296080Y554840D02*
X296080Y550014D01*
X298225Y550014D01*
X300835Y550014D02*
X302979Y550014D01*
X300835Y550014D02*
X300835Y554840D01*
X302979Y554840D01*
X302443Y552695D02*
X300835Y552695D01*
X305570Y554840D02*
X305570Y550014D01*
X305570Y554840D02*
X306910Y554840D01*
X306980Y554838D01*
X307050Y554833D01*
X307120Y554823D01*
X307189Y554811D01*
X307257Y554794D01*
X307324Y554774D01*
X307391Y554751D01*
X307455Y554724D01*
X307519Y554694D01*
X307581Y554660D01*
X307640Y554624D01*
X307698Y554584D01*
X307754Y554541D01*
X307807Y554496D01*
X307858Y554447D01*
X307907Y554396D01*
X307952Y554343D01*
X307995Y554287D01*
X308035Y554229D01*
X308071Y554170D01*
X308105Y554108D01*
X308135Y554044D01*
X308162Y553980D01*
X308185Y553913D01*
X308205Y553846D01*
X308222Y553778D01*
X308234Y553709D01*
X308244Y553639D01*
X308249Y553569D01*
X308251Y553499D01*
X308251Y551355D01*
X308249Y551285D01*
X308244Y551215D01*
X308234Y551145D01*
X308222Y551076D01*
X308205Y551008D01*
X308185Y550941D01*
X308162Y550874D01*
X308135Y550810D01*
X308105Y550746D01*
X308071Y550684D01*
X308035Y550625D01*
X307995Y550567D01*
X307952Y550511D01*
X307907Y550458D01*
X307858Y550407D01*
X307807Y550358D01*
X307754Y550313D01*
X307698Y550270D01*
X307640Y550230D01*
X307580Y550194D01*
X307519Y550160D01*
X307455Y550130D01*
X307391Y550103D01*
X307324Y550080D01*
X307257Y550060D01*
X307189Y550043D01*
X307120Y550031D01*
X307050Y550021D01*
X306980Y550016D01*
X306910Y550014D01*
X305570Y550014D01*
X311239Y550014D02*
X312848Y550014D01*
X312913Y550016D01*
X312977Y550022D01*
X313041Y550032D01*
X313105Y550045D01*
X313167Y550063D01*
X313228Y550084D01*
X313288Y550108D01*
X313346Y550137D01*
X313403Y550169D01*
X313457Y550204D01*
X313509Y550242D01*
X313559Y550284D01*
X313606Y550328D01*
X313650Y550375D01*
X313692Y550425D01*
X313730Y550477D01*
X313765Y550531D01*
X313797Y550588D01*
X313826Y550646D01*
X313850Y550706D01*
X313871Y550767D01*
X313889Y550829D01*
X313902Y550893D01*
X313912Y550957D01*
X313918Y551021D01*
X313920Y551086D01*
X313920Y551623D01*
X313918Y551688D01*
X313912Y551752D01*
X313902Y551816D01*
X313889Y551880D01*
X313871Y551942D01*
X313850Y552003D01*
X313826Y552063D01*
X313797Y552121D01*
X313765Y552178D01*
X313730Y552232D01*
X313692Y552284D01*
X313650Y552334D01*
X313606Y552381D01*
X313559Y552425D01*
X313509Y552467D01*
X313457Y552505D01*
X313403Y552540D01*
X313346Y552572D01*
X313288Y552601D01*
X313228Y552625D01*
X313167Y552646D01*
X313105Y552664D01*
X313041Y552677D01*
X312977Y552687D01*
X312913Y552693D01*
X312848Y552695D01*
X311239Y552695D01*
X311239Y554840D01*
X313920Y554840D01*
X581051Y555475D02*
X581051Y550649D01*
X583195Y550649D01*
X585805Y550649D02*
X587950Y550649D01*
X585805Y550649D02*
X585805Y555475D01*
X587950Y555475D01*
X587414Y553330D02*
X585805Y553330D01*
X590541Y555475D02*
X590541Y550649D01*
X590541Y555475D02*
X591881Y555475D01*
X591951Y555473D01*
X592021Y555468D01*
X592091Y555458D01*
X592160Y555446D01*
X592228Y555429D01*
X592295Y555409D01*
X592362Y555386D01*
X592426Y555359D01*
X592490Y555329D01*
X592552Y555295D01*
X592611Y555259D01*
X592669Y555219D01*
X592725Y555176D01*
X592778Y555131D01*
X592829Y555082D01*
X592878Y555031D01*
X592923Y554978D01*
X592966Y554922D01*
X593006Y554864D01*
X593042Y554805D01*
X593076Y554743D01*
X593106Y554679D01*
X593133Y554615D01*
X593156Y554548D01*
X593176Y554481D01*
X593193Y554413D01*
X593205Y554344D01*
X593215Y554274D01*
X593220Y554204D01*
X593222Y554134D01*
X593222Y551990D01*
X593220Y551920D01*
X593215Y551850D01*
X593205Y551780D01*
X593193Y551711D01*
X593176Y551643D01*
X593156Y551576D01*
X593133Y551509D01*
X593106Y551445D01*
X593076Y551381D01*
X593042Y551319D01*
X593006Y551260D01*
X592966Y551202D01*
X592923Y551146D01*
X592878Y551093D01*
X592829Y551042D01*
X592778Y550993D01*
X592725Y550948D01*
X592669Y550905D01*
X592611Y550865D01*
X592551Y550829D01*
X592490Y550795D01*
X592426Y550765D01*
X592362Y550738D01*
X592295Y550715D01*
X592228Y550695D01*
X592160Y550678D01*
X592091Y550666D01*
X592021Y550656D01*
X591951Y550651D01*
X591881Y550649D01*
X590541Y550649D01*
X595929Y550113D02*
X598074Y550113D01*
X600846Y550649D02*
X600846Y555475D01*
X602186Y555475D01*
X602257Y555473D01*
X602329Y555467D01*
X602399Y555458D01*
X602469Y555445D01*
X602539Y555428D01*
X602607Y555407D01*
X602674Y555383D01*
X602740Y555355D01*
X602804Y555324D01*
X602867Y555289D01*
X602927Y555251D01*
X602986Y555210D01*
X603042Y555166D01*
X603096Y555119D01*
X603147Y555070D01*
X603195Y555017D01*
X603241Y554962D01*
X603283Y554905D01*
X603323Y554845D01*
X603359Y554784D01*
X603392Y554720D01*
X603421Y554655D01*
X603447Y554589D01*
X603470Y554521D01*
X603489Y554452D01*
X603504Y554382D01*
X603515Y554312D01*
X603523Y554241D01*
X603527Y554170D01*
X603527Y554098D01*
X603523Y554027D01*
X603515Y553956D01*
X603504Y553886D01*
X603489Y553816D01*
X603470Y553747D01*
X603447Y553679D01*
X603421Y553613D01*
X603392Y553548D01*
X603359Y553484D01*
X603323Y553423D01*
X603283Y553363D01*
X603241Y553306D01*
X603195Y553251D01*
X603147Y553198D01*
X603096Y553149D01*
X603042Y553102D01*
X602986Y553058D01*
X602927Y553017D01*
X602867Y552979D01*
X602804Y552944D01*
X602740Y552913D01*
X602674Y552885D01*
X602607Y552861D01*
X602539Y552840D01*
X602469Y552823D01*
X602399Y552810D01*
X602329Y552801D01*
X602257Y552795D01*
X602186Y552793D01*
X602186Y552794D02*
X600846Y552794D01*
X602454Y552794D02*
X603527Y550649D01*
X606268Y553330D02*
X607877Y553330D01*
X607942Y553328D01*
X608006Y553322D01*
X608070Y553312D01*
X608134Y553299D01*
X608196Y553281D01*
X608257Y553260D01*
X608317Y553236D01*
X608375Y553207D01*
X608432Y553175D01*
X608486Y553140D01*
X608538Y553102D01*
X608588Y553060D01*
X608635Y553016D01*
X608679Y552969D01*
X608721Y552919D01*
X608759Y552867D01*
X608794Y552813D01*
X608826Y552756D01*
X608855Y552698D01*
X608879Y552638D01*
X608900Y552577D01*
X608918Y552515D01*
X608931Y552451D01*
X608941Y552387D01*
X608947Y552323D01*
X608949Y552258D01*
X608949Y551990D01*
X608950Y551990D02*
X608948Y551919D01*
X608942Y551847D01*
X608933Y551777D01*
X608920Y551707D01*
X608903Y551637D01*
X608882Y551569D01*
X608858Y551502D01*
X608830Y551436D01*
X608799Y551372D01*
X608764Y551309D01*
X608726Y551249D01*
X608685Y551190D01*
X608641Y551134D01*
X608594Y551080D01*
X608545Y551029D01*
X608492Y550981D01*
X608437Y550935D01*
X608380Y550893D01*
X608320Y550853D01*
X608259Y550817D01*
X608195Y550784D01*
X608130Y550755D01*
X608064Y550729D01*
X607996Y550706D01*
X607927Y550687D01*
X607857Y550672D01*
X607787Y550661D01*
X607716Y550653D01*
X607645Y550649D01*
X607573Y550649D01*
X607502Y550653D01*
X607431Y550661D01*
X607361Y550672D01*
X607291Y550687D01*
X607222Y550706D01*
X607154Y550729D01*
X607088Y550755D01*
X607023Y550784D01*
X606959Y550817D01*
X606898Y550853D01*
X606838Y550893D01*
X606781Y550935D01*
X606726Y550981D01*
X606673Y551029D01*
X606624Y551080D01*
X606577Y551134D01*
X606533Y551190D01*
X606492Y551249D01*
X606454Y551309D01*
X606419Y551372D01*
X606388Y551436D01*
X606360Y551502D01*
X606336Y551569D01*
X606315Y551637D01*
X606298Y551707D01*
X606285Y551777D01*
X606276Y551847D01*
X606270Y551919D01*
X606268Y551990D01*
X606268Y553330D01*
X606270Y553421D01*
X606276Y553512D01*
X606285Y553602D01*
X606299Y553693D01*
X606316Y553782D01*
X606337Y553870D01*
X606362Y553958D01*
X606391Y554045D01*
X606423Y554130D01*
X606458Y554214D01*
X606498Y554296D01*
X606540Y554376D01*
X606586Y554455D01*
X606636Y554531D01*
X606688Y554605D01*
X606744Y554678D01*
X606803Y554747D01*
X606864Y554814D01*
X606929Y554879D01*
X606996Y554940D01*
X607065Y554999D01*
X607137Y555055D01*
X607212Y555107D01*
X607288Y555157D01*
X607367Y555203D01*
X607447Y555245D01*
X607529Y555285D01*
X607613Y555320D01*
X607698Y555352D01*
X607785Y555381D01*
X607872Y555406D01*
X607961Y555427D01*
X608050Y555444D01*
X608141Y555458D01*
X608231Y555467D01*
X608322Y555473D01*
X608413Y555475D01*
D14*
X659000Y558175D02*
X659000Y571825D01*
D11*
X626080Y575160D02*
X626080Y579986D01*
X626080Y575160D02*
X628225Y575160D01*
X630835Y575160D02*
X632979Y575160D01*
X630835Y575160D02*
X630835Y579986D01*
X632979Y579986D01*
X632443Y577841D02*
X630835Y577841D01*
X635570Y579986D02*
X635570Y575160D01*
X635570Y579986D02*
X636910Y579986D01*
X636980Y579984D01*
X637050Y579979D01*
X637120Y579969D01*
X637189Y579957D01*
X637257Y579940D01*
X637324Y579920D01*
X637391Y579897D01*
X637455Y579870D01*
X637519Y579840D01*
X637581Y579806D01*
X637640Y579770D01*
X637698Y579730D01*
X637754Y579687D01*
X637807Y579642D01*
X637858Y579593D01*
X637907Y579542D01*
X637952Y579489D01*
X637995Y579433D01*
X638035Y579375D01*
X638071Y579316D01*
X638105Y579254D01*
X638135Y579190D01*
X638162Y579126D01*
X638185Y579059D01*
X638205Y578992D01*
X638222Y578924D01*
X638234Y578855D01*
X638244Y578785D01*
X638249Y578715D01*
X638251Y578645D01*
X638251Y576501D01*
X638249Y576431D01*
X638244Y576361D01*
X638234Y576291D01*
X638222Y576222D01*
X638205Y576154D01*
X638185Y576087D01*
X638162Y576020D01*
X638135Y575956D01*
X638105Y575892D01*
X638071Y575830D01*
X638035Y575771D01*
X637995Y575713D01*
X637952Y575657D01*
X637907Y575604D01*
X637858Y575553D01*
X637807Y575504D01*
X637754Y575459D01*
X637698Y575416D01*
X637640Y575376D01*
X637580Y575340D01*
X637519Y575306D01*
X637455Y575276D01*
X637391Y575249D01*
X637324Y575226D01*
X637257Y575206D01*
X637189Y575189D01*
X637120Y575177D01*
X637050Y575167D01*
X636980Y575162D01*
X636910Y575160D01*
X635570Y575160D01*
X641239Y577841D02*
X642848Y577841D01*
X642913Y577839D01*
X642977Y577833D01*
X643041Y577823D01*
X643105Y577810D01*
X643167Y577792D01*
X643228Y577771D01*
X643288Y577747D01*
X643346Y577718D01*
X643403Y577686D01*
X643457Y577651D01*
X643509Y577613D01*
X643559Y577571D01*
X643606Y577527D01*
X643650Y577480D01*
X643692Y577430D01*
X643730Y577378D01*
X643765Y577324D01*
X643797Y577267D01*
X643826Y577209D01*
X643850Y577149D01*
X643871Y577088D01*
X643889Y577026D01*
X643902Y576962D01*
X643912Y576898D01*
X643918Y576834D01*
X643920Y576769D01*
X643920Y576501D01*
X643921Y576501D02*
X643919Y576430D01*
X643913Y576358D01*
X643904Y576288D01*
X643891Y576218D01*
X643874Y576148D01*
X643853Y576080D01*
X643829Y576013D01*
X643801Y575947D01*
X643770Y575883D01*
X643735Y575820D01*
X643697Y575760D01*
X643656Y575701D01*
X643612Y575645D01*
X643565Y575591D01*
X643516Y575540D01*
X643463Y575492D01*
X643408Y575446D01*
X643351Y575404D01*
X643291Y575364D01*
X643230Y575328D01*
X643166Y575295D01*
X643101Y575266D01*
X643035Y575240D01*
X642967Y575217D01*
X642898Y575198D01*
X642828Y575183D01*
X642758Y575172D01*
X642687Y575164D01*
X642616Y575160D01*
X642544Y575160D01*
X642473Y575164D01*
X642402Y575172D01*
X642332Y575183D01*
X642262Y575198D01*
X642193Y575217D01*
X642125Y575240D01*
X642059Y575266D01*
X641994Y575295D01*
X641930Y575328D01*
X641869Y575364D01*
X641809Y575404D01*
X641752Y575446D01*
X641697Y575492D01*
X641644Y575540D01*
X641595Y575591D01*
X641548Y575645D01*
X641504Y575701D01*
X641463Y575760D01*
X641425Y575820D01*
X641390Y575883D01*
X641359Y575947D01*
X641331Y576013D01*
X641307Y576080D01*
X641286Y576148D01*
X641269Y576218D01*
X641256Y576288D01*
X641247Y576358D01*
X641241Y576430D01*
X641239Y576501D01*
X641239Y577841D01*
X641241Y577932D01*
X641247Y578023D01*
X641256Y578113D01*
X641270Y578204D01*
X641287Y578293D01*
X641308Y578381D01*
X641333Y578469D01*
X641362Y578556D01*
X641394Y578641D01*
X641429Y578725D01*
X641469Y578807D01*
X641511Y578887D01*
X641557Y578966D01*
X641607Y579042D01*
X641659Y579116D01*
X641715Y579189D01*
X641774Y579258D01*
X641835Y579325D01*
X641900Y579390D01*
X641967Y579451D01*
X642036Y579510D01*
X642108Y579566D01*
X642183Y579618D01*
X642259Y579668D01*
X642338Y579714D01*
X642418Y579756D01*
X642500Y579796D01*
X642584Y579831D01*
X642669Y579863D01*
X642756Y579892D01*
X642843Y579917D01*
X642932Y579938D01*
X643021Y579955D01*
X643112Y579969D01*
X643202Y579978D01*
X643293Y579984D01*
X643384Y579986D01*
M02*
