G04 EAGLE Gerber X2 export*
G04 #@! %TF.Part,Single*
G04 #@! %TF.FileFunction,Soldermask,Bot,1*
G04 #@! %TF.FilePolarity,Negative*
G04 #@! %TF.GenerationSoftware,Autodesk,EAGLE,8.6.0*
G04 #@! %TF.CreationDate,2018-03-08T02:15:54Z*
G75*
%MOMM*%
%FSLAX34Y34*%
%LPD*%
%AMOC8*
5,1,8,0,0,1.08239X$1,22.5*%
G01*
%ADD10C,1.549400*%
%ADD11P,2.061953X8X112.500000*%
%ADD12C,1.651000*%
%ADD13C,0.731000*%


D10*
X240000Y350000D03*
X260000Y350000D03*
X280000Y350000D03*
X300000Y350000D03*
X640000Y350000D03*
X660000Y350000D03*
X680000Y350000D03*
X700000Y350000D03*
X600000Y380000D03*
X600000Y400000D03*
X600000Y420000D03*
X600000Y440000D03*
X310000Y420000D03*
X290000Y420000D03*
X270000Y420000D03*
X275000Y515000D03*
X295000Y515000D03*
X645000Y515000D03*
X665000Y515000D03*
X280000Y540000D03*
X300000Y540000D03*
X320000Y540000D03*
X340000Y540000D03*
X360000Y540000D03*
D11*
X355700Y350000D03*
X381100Y350000D03*
X406500Y350000D03*
X431900Y350000D03*
X457300Y350000D03*
X482700Y350000D03*
X508100Y350000D03*
X533500Y350000D03*
X558900Y350000D03*
X584300Y350000D03*
D12*
X482700Y327620D02*
X482700Y312380D01*
X457300Y312380D02*
X457300Y327620D01*
X431900Y558480D02*
X431900Y573720D01*
X457300Y573720D02*
X457300Y558480D01*
X482700Y558480D02*
X482700Y573720D01*
X508100Y573720D02*
X508100Y558480D01*
D10*
X444000Y534900D03*
X424000Y534900D03*
X404000Y534900D03*
X384000Y534900D03*
X700000Y380000D03*
X720000Y380000D03*
X660000Y540000D03*
X640000Y540000D03*
X620000Y540000D03*
X600000Y540000D03*
X580000Y540000D03*
D13*
X574400Y480000D03*
X442200Y493600D03*
X456400Y493700D03*
X442400Y408100D03*
X385600Y382700D03*
X482700Y414200D03*
X428600Y436700D03*
X370000Y509300D03*
X609400Y510800D03*
X646400Y495000D03*
X217100Y373600D03*
X208900Y346900D03*
X732700Y349200D03*
X569900Y397400D03*
X723800Y356800D03*
X622200Y366100D03*
X429000Y457500D03*
X318900Y462400D03*
X387500Y410300D03*
X442100Y430600D03*
X386900Y400900D03*
X460600Y438300D03*
X472700Y477500D03*
X353100Y516900D03*
X323100Y516900D03*
X513700Y511200D03*
X452400Y406100D03*
X455711Y379089D03*
X550300Y540100D03*
X478200Y376700D03*
X568500Y451600D03*
X609700Y493100D03*
X336100Y368000D03*
X362900Y371600D03*
X424200Y392500D03*
X383800Y392500D03*
X568800Y437500D03*
X330000Y552200D03*
X427500Y474900D03*
M02*
