0
SECTION
2
HEADER
9
$INSUNITS
70
4
9
$ACADVER
1
AC1014
9
$HANDSEED
5
FFFF
0
ENDSEC
0
SECTION
2
TABLES
0
TABLE
2
VPORT
5
8
100
AcDbSymbolTable
0
ENDTAB
0
TABLE
2
LTYPE
5
5
100
AcDbSymbolTable
0
LTYPE
5
14
100
AcDbSymbolTableRecord
100
AcDbLinetypeTableRecord
2
BYBLOCK
70
0
0
LTYPE
5
15
100
AcDbSymbolTableRecord
100
AcDbLinetypeTableRecord
2
BYLAYER
70
0
0
ENDTAB
0
TABLE
2
LAYER
5
2
100
AcDbSymbolTable
70
2
0
LAYER
5
50
100
AcDbSymbolTableRecord
100
AcDbLayerTableRecord
2
0
70
0
6
CONTINUOUS
0
ENDTAB
0
TABLE
2
STYLE
5
3
100
AcDbSymbolTable
70
1
0
STYLE
5
11
100
AcDbSymbolTableRecord
100
AcDbTextStyleTableRecord
2
STANDARD
70
0
0
ENDTAB
0
TABLE
2
VIEW
5
6
100
AcDbSymbolTable
70
0
0
ENDTAB
0
TABLE
2
UCS
5
7
100
AcDbSymbolTable
70
0
0
ENDTAB
0
TABLE
2
APPID
5
9
100
AcDbSymbolTable
70
2
0
APPID
5
12
100
AcDbSymbolTableRecord
100
AcDbRegAppTableRecord
2
ACAD
70
0
0
ENDTAB
0
TABLE
2
DIMSTYLE
5
A
100
AcDbSymbolTable
70
1
0
ENDTAB
0
TABLE
2
BLOCK_RECORD
5
1
100
AcDbSymbolTable
70
1
0
BLOCK_RECORD
5
1F
100
AcDbSymbolTableRecord
100
AcDbBlockTableRecord
2
*MODEL_SPACE
0
BLOCK_RECORD
5
1B
100
AcDbSymbolTableRecord
100
AcDbBlockTableRecord
2
*PAPER_SPACE
0
ENDTAB
0
ENDSEC
0
SECTION
2
BLOCKS
0
BLOCK
5
20
100
AcDbEntity
100
AcDbBlockBegin
2
*MODEL_SPACE
0
ENDBLK
5
21
100
AcDbEntity
100
AcDbBlockEnd
0
BLOCK
5
1C
100
AcDbEntity
100
AcDbBlockBegin
2
*PAPER_SPACE
0
ENDBLK
5
1D
100
AcDbEntity
100
AcDbBlockEnd
0
ENDSEC
0
SECTION
2
ENTITIES
0
CIRCLE
5
100
100
AcDbEntity
8
0
100
AcDbCircle
10
11.576874798991083
20
-30.100000000020199
30
0
40
1.6000000000000003
0
LWPOLYLINE
5
101
100
AcDbEntity
8
0
100
AcDbPolyline
90
7
70
1
43
0.0
10
22.749999807684759
20
33.000000491738319
10
22.749999807492657
20
29.622910659959501
42
-0.61497407411357052
10
21.953559088096508
20
29.220265779374902
10
16.197532089553018
20
33.458046678796563
42
-0.72413364827830462
10
16.790413528345315
20
35.263336440022655
10
20.749998369543192
20
35.263336440022648
42
-0.41421377355868755
10
22.749998369542674
20
33.263334997957308
0
LWPOLYLINE
5
102
100
AcDbEntity
8
0
100
AcDbPolyline
90
6
70
1
43
0.0
10
2.4999999999999845
20
-25.600000000000009
10
12.595663197792215
20
-25.600000000000019
42
0.79450537770315877
10
12.815873168355868
20
-24.651104055638346
10
2.2202099705636384
20
-19.453305523049458
42
0.5550546739464981
10
1.4999999999999862
20
-19.902201467411128
10
1.499999999999984
20
-24.600000000000012
42
0.41421356237309825
0
LINE
5
103
100
AcDbEntity
8
0
100
AcDbLine
10
20.022596739641653
20
-28.237815848677258
30
0
11
18.080205226689472
21
-30.600000000020202
31
0
0
LWPOLYLINE
5
104
100
AcDbEntity
8
0
100
AcDbPolyline
90
6
70
1
43
0.0
10
5.1545253875945356
20
-6.5999999999999961
10
15.250188585386768
20
-6.5999999999999908
42
-0.41421356237309631
10
16.250188585386766
20
-7.599999999999989
10
16.25018858538677
20
-12.297798532588882
42
-0.55505467394649799
10
15.529978614823117
20
-12.746694476950553
10
4.9343154170308807
20
-7.5488959443616723
42
-0.79450537770316099
0
LWPOLYLINE
5
105
100
AcDbEntity
8
0
100
AcDbPolyline
90
6
70
1
43
0.0
10
2.4999999999999911
20
-14.599999999999987
10
12.595663197792216
20
-14.599999999999987
42
0.79450537770316232
10
12.81587316835587
20
-13.651104055638317
10
2.2202099705636469
20
-8.4533055230494334
42
0.55505467394650043
10
1.4999999999999944
20
-8.9022014674111034
10
1.4999999999999913
20
-13.599999999999985
42
0.41421356237309492
0
LWPOLYLINE
5
106
100
AcDbEntity
8
0
100
AcDbPolyline
90
6
70
1
43
0.0
10
5.1545253875945374
20
-17.600000000000023
10
15.250188585386768
20
-17.600000000000023
42
-0.41421356237309631
10
16.250188585386766
20
-18.600000000000026
10
16.250188585386766
20
-23.297798532588917
42
-0.55505467394650199
10
15.529978614823111
20
-23.746694476950587
10
4.9343154170308834
20
-18.548895944361693
42
-0.79450537770316432
0
LINE
5
107
100
AcDbEntity
8
0
100
AcDbLine
10
-20.250000000000004
20
1.099999999981468
30
0
11
20.249987436282719
21
1.099999999981468
31
0
0
LINE
5
108
100
AcDbEntity
8
0
100
AcDbLine
10
20.249987436282719
20
1.099999999981468
30
0
11
21.24998743626708
21
1.1000055929566297
31
0
0
LINE
5
109
100
AcDbEntity
8
0
100
AcDbLine
10
0
20
-34.600000000020202
30
0
11
13.799067158070468
21
-34.600000000020202
31
0
0
LINE
5
110
100
AcDbEntity
8
0
100
AcDbLine
10
24.250059965944672
20
-16.400000457462419
30
0
11
20.750122108854679
21
-16.400002058555707
31
0
0
CIRCLE
5
111
100
AcDbEntity
8
0
100
AcDbCircle
10
11.576874798991083
20
-30.100000000020199
30
0
40
1.6000000000000003
0
CIRCLE
5
112
100
AcDbEntity
8
0
100
AcDbCircle
10
-2.7554552980815472e-16
20
-30.100000000020199
30
0
40
1.6000000000000003
0
LWPOLYLINE
5
113
100
AcDbEntity
8
0
100
AcDbPolyline
90
3
70
1
43
0.0
10
25.265803515161597
20
35.253194182381634
10
25.320028633545025
20
35.299880087439007
10
25.265819305523046
20
35.29998473665119
0
LINE
5
114
100
AcDbEntity
8
0
100
AcDbLine
10
20.250000000000004
20
1.0999999999814669
30
0
11
-20.249987436282719
21
1.0999999999814669
31
0
0
CIRCLE
5
115
100
AcDbEntity
8
0
100
AcDbCircle
10
2.7554552980815472e-16
20
-30.100000000020199
30
0
40
1.6000000000000003
0
CIRCLE
5
116
100
AcDbEntity
8
0
100
AcDbCircle
10
-11.576874798991083
20
-30.100000000020199
30
0
40
1.6000000000000003
0
ARC
5
117
100
AcDbEntity
8
0
100
AcDbCircle
10
19.250195509937637
20
-27.602680949343522
30
0
40
0.99999999999997413
100
AcDbArc
50
-39.429990416435672
51
0.00032045299423232601
0
ARC
5
118
100
AcDbEntity
8
0
100
AcDbCircle
10
13.799067158070464
20
-32.500000000020194
30
0
40
2.1000000000000085
100
AcDbArc
50
270.00000000000011
51
320.5700095835648
0
ARC
5
119
100
AcDbEntity
8
0
100
AcDbCircle
10
-19.250195509937637
20
-27.602680949343522
30
0
40
0.99999999999997413
100
AcDbArc
50
179.99967954700574
51
219.42999041643566
0
LINE
5
120
100
AcDbEntity
8
0
100
AcDbLine
10
42.770940238126791
20
35.263336440022655
30
0
11
29.250059508481332
21
35.263336440022655
31
0
0
LINE
5
121
100
AcDbEntity
8
0
100
AcDbLine
10
30.253358325069581
20
70.126196895538158
30
0
11
43.698943490777907
21
36.635908531125757
31
0
0
LINE
5
122
100
AcDbEntity
8
0
100
AcDbLine
10
25.250059508481325
20
-16.399999999999281
30
0
11
22.993226044044228
21
-16.400001032417872
31
0
0
LINE
5
123
100
AcDbEntity
8
0
100
AcDbLine
10
25.250059508481325
20
-16.399999999999281
30
0
11
27.750059508481328
21
-16.399999999999281
31
0
0
LINE
5
124
100
AcDbEntity
8
0
100
AcDbLine
10
28.250059508481332
20
34.263336440022655
30
0
11
28.250059508481328
21
-15.899999999999279
31
0
0
CIRCLE
5
125
100
AcDbEntity
8
0
100
AcDbCircle
10
25.750059508481332
20
27.100000000000001
30
0
40
1.3000000000000025
0
CIRCLE
5
126
100
AcDbEntity
8
0
100
AcDbCircle
10
25.750059508481328
20
-7.9000000000000012
30
0
40
1.3000000000000025
0
LINE
5
127
100
AcDbEntity
8
0
100
AcDbLine
10
21.24998743626708
20
1.1000055929566297
30
0
11
23.749990232709578
21
1.1000195754101738
31
0
0
LINE
5
128
100
AcDbEntity
8
0
100
AcDbLine
10
24.249987436221993
20
1.6000195754005133
30
0
11
24.249987436280882
21
17.599999997366854
31
0
0
ARC
5
129
100
AcDbEntity
8
0
100
AcDbCircle
10
25.61334206181396
20
68.263336440022627
30
0
40
5.0000000000000178
100
AcDbArc
50
21.874332514764177
51
89.999999999999844
0
ARC
5
130
100
AcDbEntity
8
0
100
AcDbCircle
10
42.770940238126791
20
36.263336440022655
30
0
40
1.0000000000000009
100
AcDbArc
50
-90
51
21.87433251476412
0
ARC
5
131
100
AcDbEntity
8
0
100
AcDbCircle
10
29.250059508481336
20
34.263336440022648
30
0
40
1.0000000000000053
100
AcDbArc
50
90.000000000000199
51
180
0
LINE
5
132
100
AcDbEntity
8
0
100
AcDbLine
10
0
20
73.263336440022641
30
0
11
25.549999428912997
21
73.263336440022641
31
0
0
LINE
5
133
100
AcDbEntity
8
0
100
AcDbLine
10
25.549999428912997
20
73.263336440022641
30
0
11
25.613342061813974
21
73.263336440022641
31
0
0
LWPOLYLINE
5
134
100
AcDbEntity
8
0
100
AcDbPolyline
90
8
70
1
43
0.0
10
5.9927814147457674
20
35.263336440022655
10
6.9909782274216798
20
35.263336440022655
42
-0.1465365787355099
10
9.1897750495212964
20
34.604787103301206
10
22.299699045601006
20
25.977977335514815
42
-0.25235941260010203
10
22.749999840076107
20
25.14261467381759
10
22.749991405058179
20
23.604293508285306
42
-0.60131524131710201
10
21.189690941332309
20
22.776004792980476
10
5.4324809510196372
20
33.435047003685156
42
-0.73944410626960799
0
LINE
5
135
100
AcDbEntity
8
0
100
AcDbLine
10
22.292617328016611
20
18.841705122657466
30
0
11
1.5426174613205168
21
32.245968468920317
31
0
0
ARC
5
136
100
AcDbEntity
8
0
100
AcDbCircle
10
23.749987436221996
20
1.6000195754023525
30
0
40
0.499999999999999
100
AcDbArc
50
270.00032045387184
51
360
0
ARC
5
137
100
AcDbEntity
8
0
100
AcDbCircle
10
27.750059508481328
20
-15.899999999999279
30
0
40
0.50000000000000044
100
AcDbArc
50
-90
51
0
0
ARC
5
138
100
AcDbEntity
8
0
100
AcDbCircle
10
20.750122337586344
20
-16.900002058555643
30
0
40
0.49999999999998834
100
AcDbArc
50
90.000026210718062
51
180.00038941251512
0
ARC
5
139
100
AcDbEntity
8
0
100
AcDbCircle
10
23.749987436280882
20
17.599999997368695
30
0
40
0.50000000000000266
100
AcDbArc
50
0
51
89.999999939711742
0
LINE
5
140
100
AcDbEntity
8
0
100
AcDbLine
10
-8.972171046612938e-15
20
73.263336440022641
30
0
11
-25.549999428913004
21
73.263336440022641
31
0
0
ARC
5
141
100
AcDbEntity
8
0
100
AcDbCircle
10
-25.613342061813967
20
68.263336440022627
30
0
40
5.0000000000000178
100
AcDbArc
50
90.000000000000171
51
158.12566748523585
0
LINE
5
142
100
AcDbEntity
8
0
100
AcDbLine
10
-30.253358325069591
20
70.126196895538158
30
0
11
-43.698943490777907
21
36.63590853112575
31
0
0
ARC
5
143
100
AcDbEntity
8
0
100
AcDbCircle
10
-42.770940238126791
20
36.263336440022648
30
0
40
1
100
AcDbArc
50
158.12566748523588
51
270
0
LINE
5
144
100
AcDbEntity
8
0
100
AcDbLine
10
-42.770940238126791
20
35.263336440022648
30
0
11
-29.250059508481332
21
35.263336440022648
31
0
0
ARC
5
145
100
AcDbEntity
8
0
100
AcDbCircle
10
-29.250059508481336
20
34.263336440022641
30
0
40
1.0000000000000053
100
AcDbArc
50
0
51
89.999999999999801
0
LINE
5
146
100
AcDbEntity
8
0
100
AcDbLine
10
-28.250059508481332
20
34.263336440022648
30
0
11
-28.250059508481328
21
-15.899999999999284
31
0
0
LWPOLYLINE
5
147
100
AcDbEntity
8
0
100
AcDbPolyline
90
7
70
1
43
0.0
10
-22.749998369513371
20
33.263347362572105
42
-0.41421196280366246
10
-20.749998369543192
20
35.263336440022648
10
-16.790413528345319
20
35.263336440022655
42
-0.72413364827830462
10
-16.197532089553025
20
33.458046678796563
10
-21.953559088096508
20
29.220265779374898
42
-0.61497407411357052
10
-22.749999807492649
20
29.622910659959494
10
-22.749999807684759
20
33.000000491738312
0
LINE
5
148
100
AcDbEntity
8
0
100
AcDbLine
10
-25.549999428913004
20
73.263336440022641
30
0
11
-25.613342061813981
21
73.263336440022641
31
0
0
LWPOLYLINE
5
149
100
AcDbEntity
8
0
100
AcDbPolyline
90
8
70
1
43
0.0
10
-5.992781414745771
20
35.263336440022655
42
-0.73944410626960799
10
-5.4324809510196399
20
33.435047003685156
10
-21.189690941332309
20
22.776004792980473
42
-0.60131524131710201
10
-22.749991405058179
20
23.604293508285302
10
-22.749999840076107
20
25.142614673817583
42
-0.25235941260010203
10
-22.29969904560101
20
25.977977335514812
10
-9.1897750495213
20
34.604787103301206
42
-0.1465365787355099
10
-6.9909782274216852
20
35.263336440022655
0
LINE
5
150
100
AcDbEntity
8
0
100
AcDbLine
10
-22.292617328016611
20
18.841705122657466
30
0
11
-1.5426174613205208
21
32.245968468920317
31
0
0
ARC
5
151
100
AcDbEntity
8
0
100
AcDbCircle
10
-23.749987436280882
20
17.599999997368695
30
0
40
0.50000000000000044
100
AcDbArc
50
90.000000060288258
51
180
0
CIRCLE
5
152
100
AcDbEntity
8
0
100
AcDbCircle
10
-25.750059508481332
20
27.099999999999994
30
0
40
1.3000000000000025
0
CIRCLE
5
153
100
AcDbEntity
8
0
100
AcDbCircle
10
-25.750059508481328
20
-7.9000000000000048
30
0
40
1.3000000000000025
0
LINE
5
154
100
AcDbEntity
8
0
100
AcDbLine
10
-24.250059965944672
20
-16.400000457462419
30
0
11
-20.750122108854679
21
-16.400002058555707
31
0
0
LINE
5
155
100
AcDbEntity
8
0
100
AcDbLine
10
-25.250059508481325
20
-16.399999999999281
30
0
11
-22.993226044044228
21
-16.400001032417876
31
0
0
LINE
5
156
100
AcDbEntity
8
0
100
AcDbLine
10
-25.250059508481325
20
-16.399999999999281
30
0
11
-27.750059508481328
21
-16.399999999999284
31
0
0
ARC
5
157
100
AcDbEntity
8
0
100
AcDbCircle
10
-27.750059508481328
20
-15.899999999999284
30
0
40
0.49999999999999822
100
AcDbArc
50
180
51
270
0
ARC
5
158
100
AcDbEntity
8
0
100
AcDbCircle
10
-20.750122337586344
20
-16.900002058555643
30
0
40
0.49999999999998684
100
AcDbArc
50
-0.00038941251512929431
51
89.999973789281938
0
LINE
5
159
100
AcDbEntity
8
0
100
AcDbLine
10
22.292617328016611
20
18.841705122657466
30
0
11
23.719989914308776
21
18.099999997368698
31
0
0
LINE
5
160
100
AcDbEntity
8
0
100
AcDbLine
10
-22.292617328016611
20
18.841705122657466
30
0
11
-23.719989914308776
21
18.099999997368695
31
0
0
LINE
5
161
100
AcDbEntity
8
0
100
AcDbLine
10
-22.292617328016611
20
18.841705122657466
30
0
11
-1.5426174613205208
21
32.245968468920317
31
0
0
ARC
5
162
100
AcDbEntity
8
0
100
AcDbCircle
10
-23.749987436280882
20
17.599999997368695
30
0
40
0.50000000000000044
100
AcDbArc
50
90.000000060288258
51
180
0
LINE
5
163
100
AcDbEntity
8
0
100
AcDbLine
10
20.250711983925701
20
-16.875726584172209
30
0
11
20.250195509921973
21
-27.602675356368351
31
0
0
LINE
5
164
100
AcDbEntity
8
0
100
AcDbLine
10
18.080205226689472
20
-30.600000000020202
30
0
11
15.421109740448957
21
-33.833783288621063
31
0
0
LINE
5
165
100
AcDbEntity
8
0
100
AcDbLine
10
-1.5426174613205208
20
32.245968468920317
30
0
11
-0.27130873066026101
21
33.067219414927507
31
0
0
LINE
5
166
100
AcDbEntity
8
0
100
AcDbLine
10
1.5426174613205168
20
32.245968468920317
30
0
11
0.27130873066025712
21
33.067219414927507
31
0
0
ARC
5
167
100
AcDbEntity
8
0
100
AcDbCircle
10
-1.9428902930940239e-15
20
32.647229447585978
30
0
40
0.50000000000002021
100
AcDbArc
50
57.138000833997175
51
122.86199916600282
0
ARC
5
168
100
AcDbEntity
8
0
100
AcDbCircle
10
-23.749987436280882
20
17.599999997368695
30
0
40
0.50000000000000044
100
AcDbArc
50
90.000000060288258
51
180
0
LINE
5
169
100
AcDbEntity
8
0
100
AcDbLine
10
-24.249987436221993
20
1.6000195754005104
30
0
11
-24.249987436280882
21
17.599999997366851
31
0
0
LINE
5
170
100
AcDbEntity
8
0
100
AcDbLine
10
-21.24998743626708
20
1.100005592956627
30
0
11
-23.749990232709578
21
1.1000195754101709
31
0
0
LINE
5
171
100
AcDbEntity
8
0
100
AcDbLine
10
-20.249987436282719
20
1.0999999999814656
30
0
11
-21.24998743626708
21
1.100005592956627
31
0
0
LINE
5
172
100
AcDbEntity
8
0
100
AcDbLine
10
20.250000000000004
20
1.0999999999814705
30
0
11
-20.249987436282719
21
1.0999999999814656
31
0
0
ARC
5
173
100
AcDbEntity
8
0
100
AcDbCircle
10
-23.749987436221996
20
1.6000195754023496
30
0
40
0.49999999999999822
100
AcDbArc
50
180
51
269.99967954612816
0
LWPOLYLINE
5
174
100
AcDbEntity
8
0
100
AcDbPolyline
90
6
70
1
43
0.0
10
-5.1545253875945356
20
-6.599999999999997
10
-15.250188585386768
20
-6.5999999999999925
42
0.41421356237309631
10
-16.250188585386766
20
-7.5999999999999908
10
-16.25018858538677
20
-12.297798532588883
42
0.55505467394649799
10
-15.529978614823117
20
-12.746694476950555
10
-4.9343154170308789
20
-7.5488959443616732
42
0.79450537770316032
0
LWPOLYLINE
5
175
100
AcDbEntity
8
0
100
AcDbPolyline
90
6
70
1
43
0.0
10
-2.2202099705636447
20
-8.4533055230494334
10
-12.81587316835587
20
-13.651104055638319
42
0.79450537770316232
10
-12.595663197792216
20
-14.599999999999989
10
-2.4999999999999893
20
-14.599999999999987
42
0.41421356237309492
10
-1.4999999999999898
20
-13.599999999999985
10
-1.4999999999999933
20
-8.9022014674111034
42
0.55505467394650043
0
LWPOLYLINE
5
176
100
AcDbEntity
8
0
100
AcDbPolyline
90
6
70
1
43
0.0
10
-5.1545253875945356
20
-17.600000000000023
10
-15.250188585386768
20
-17.600000000000023
42
0.41421356237309503
10
-16.250188585386763
20
-18.600000000000026
10
-16.250188585386759
20
-23.297798532588917
42
0.55505467394650199
10
-15.529978614823108
20
-23.746694476950587
10
-4.9343154170308816
20
-18.548895944361693
42
0.79450537770316432
0
LWPOLYLINE
5
177
100
AcDbEntity
8
0
100
AcDbPolyline
90
6
70
1
43
0.0
10
-12.815873168355862
20
-24.651104055638346
10
-2.2202099705636362
20
-19.453305523049455
42
-0.5550546739464981
10
-1.499999999999984
20
-19.902201467411128
10
-1.4999999999999831
20
-24.600000000000012
42
-0.41421356237309814
10
-2.49999999999998
20
-25.600000000000009
10
-12.595663197792211
20
-25.600000000000019
42
-0.79450537770315877
0
CIRCLE
5
178
100
AcDbEntity
8
0
100
AcDbCircle
10
-11.57687479899108
20
-30.100000000020199
30
0
40
1.6000000000000003
0
LINE
5
179
100
AcDbEntity
8
0
100
AcDbLine
10
4.2372779250523161e-15
20
-34.600000000020202
30
0
11
-13.799067158070464
21
-34.600000000020202
31
0
0
ARC
5
180
100
AcDbEntity
8
0
100
AcDbCircle
10
-13.799067158070459
20
-32.500000000020194
30
0
40
2.1000000000000085
100
AcDbArc
50
219.42999041643515
51
269.99999999999983
0
LINE
5
181
100
AcDbEntity
8
0
100
AcDbLine
10
-18.080205226689468
20
-30.600000000020202
30
0
11
-15.421109740448953
21
-33.833783288621063
31
0
0
LINE
5
182
100
AcDbEntity
8
0
100
AcDbLine
10
-20.022596739641653
20
-28.237815848677261
30
0
11
-18.080205226689468
21
-30.600000000020202
31
0
0
ARC
5
183
100
AcDbEntity
8
0
100
AcDbCircle
10
-19.250195509937633
20
-27.602680949343529
30
0
40
0.99999999999997857
100
AcDbArc
50
179.99967954700574
51
219.42999041643537
0
LINE
5
184
100
AcDbEntity
8
0
100
AcDbLine
10
-20.250711983925701
20
-16.875726584172209
30
0
11
-20.250195509921973
21
-27.602675356368355
31
0
0
ARC
5
185
100
AcDbEntity
8
0
100
AcDbCircle
10
-20.750122337586344
20
-16.900002058555643
30
0
40
0.49999999999998684
100
AcDbArc
50
-0.00038941251512929431
51
89.999973789281938
0
LINE
5
186
100
AcDbEntity
8
0
100
AcDbLine
10
-24.250059965944672
20
-16.400000457462419
30
0
11
-20.750122108854679
21
-16.400002058555707
31
0
0
CIRCLE
5
187
100
AcDbEntity
8
0
100
AcDbCircle
10
-25.750059508481328
20
-7.9000000000000048
30
0
40
1.3000000000000025
0
CIRCLE
5
188
100
AcDbEntity
8
0
100
AcDbCircle
10
-25.750059508481332
20
27.099999999999994
30
0
40
1.3000000000000025
0
LINE
5
189
100
AcDbEntity
8
0
100
AcDbLine
10
23.719989914308776
20
18.099999997368698
30
0
11
23.749987436806997
21
18.099999997368698
31
0
0
LINE
5
190
100
AcDbEntity
8
0
100
AcDbLine
10
-23.749987436806997
20
18.099999997368695
30
0
11
-23.719989914308776
21
18.099999997368695
31
0
0
CIRCLE
5
191
100
AcDbEntity
8
0
100
AcDbCircle
10
-38.411458352725091
20
38.639564507215042
30
0
40
1.4999999999999989
0
CIRCLE
5
192
100
AcDbEntity
8
0
100
AcDbCircle
10
-27.000000402331366
20
68.000001013279004
30
0
40
1.4999999999999973
0
CIRCLE
5
193
100
AcDbEntity
8
0
100
AcDbCircle
10
-23.021561697932619
20
69.7494507153923
30
0
40
1.1499999999999999
0
CIRCLE
5
194
100
AcDbEntity
8
0
100
AcDbCircle
10
23.021561697932619
20
69.7494507153923
30
0
40
1.1499999999999999
0
CIRCLE
5
195
100
AcDbEntity
8
0
100
AcDbCircle
10
27.000000402331366
20
68.000001013279004
30
0
40
1.4999999999999973
0
CIRCLE
5
196
100
AcDbEntity
8
0
100
AcDbCircle
10
38.411458352725091
20
38.639564507215042
30
0
40
1.4999999999999989
0
LWPOLYLINE
5
197
100
AcDbEntity
8
0
100
AcDbPolyline
90
8
70
1
43
0.0
10
-29.427863880972787
20
59.434713970737349
10
-28.384237235581008
20
62.034069303474567
42
-0.17447457293843077
10
-27.033408110953154
20
63.551845892589824
10
-17.646279163879882
20
68.656425798492236
42
-0.12548924171048434
10
-16.20925228928256
20
69.020889032887879
10
-13.751282800461627
20
69.017724091975708
42
-0.75746373773670039
10
-13.49175117612052
20
68.090748227784601
10
-28.70368959009415
20
58.821444743798068
42
-0.72142822294830156
0
LWPOLYLINE
5
198
100
AcDbEntity
8
0
100
AcDbPolyline
90
8
70
1
43
0.0
10
-31.946122977670335
20
52.931969660255483
10
-8.3994441657991246
20
68.838751483054224
42
-0.1499616782039763
10
-7.8383749096965136
20
69.010110488886411
10
-4.6038458981352175
20
69.005945631166682
42
-0.73918839028065741
10
-4.3245988931821122
20
68.091625963069745
10
-32.649629441856028
20
48.95686455312039
42
-0.73939323144049918
10
-33.393519113346677
20
49.557477583965515
10
-32.130231016156557
20
52.703942525919771
42
-0.14982625196469379
0
LINE
5
199
100
AcDbEntity
8
0
100
AcDbLine
10
-0.75673389617448583
20
64.970902034675021
30
0
11
-33.729028077143184
21
42.917561563079055
31
0
0
LINE
5
200
100
AcDbEntity
8
0
100
AcDbLine
10
-1.11015799288336
20
61.241286314205425
30
0
11
-32.186427220001505
21
40.31862646287999
31
0
0
LINE
5
201
100
AcDbEntity
8
0
100
AcDbLine
10
-34.035182894867326
20
41.579622624820438
30
0
11
-33.304077583159554
21
40.335769731885875
31
0
0
ARC
5
202
100
AcDbEntity
8
0
100
AcDbCircle
10
-33.173075213686943
20
42.086347743647003
30
0
40
1.0000000000000091
100
AcDbArc
50
123.77637075504217
51
210.44593669750759
0
ARC
5
203
100
AcDbEntity
8
0
100
AcDbCircle
10
-32.59606090113094
20
41.041965439865777
30
0
40
1.0000000000000164
100
AcDbArc
50
224.92622461048276
51
255.06737586687834
0
ARC
5
204
100
AcDbEntity
8
0
100
AcDbCircle
10
-32.724902403415513
20
40.558850684047805
30
0
40
0.50000000000000921
100
AcDbArc
50
255.06737586687882
51
303.95112368991619
0
LINE
5
205
100
AcDbEntity
8
0
100
AcDbLine
10
-32.445659659670568
20
40.144093538159034
30
0
11
-32.067311326211907
21
40.398823390974286
31
0
0
LWPOLYLINE
5
206
100
AcDbEntity
8
0
100
AcDbPolyline
90
14
70
1
43
0.0
10
-20.136654667099894
20
40.065282290224587
10
-25.230765533694154
20
40.181822309006343
42
-0.72407235134089687
10
-25.50654977654726
20
41.090964896447517
10
-1.1440183741778931
20
58.188106870603988
42
-0.31623260536806141
10
1.1558482434967887
20
58.186626189300405
10
25.496344774725927
20
41.058128630287285
42
-0.72407235134089376
10
25.219390127499231
20
40.149341902674692
10
20.125133424236424
20
40.039361275319756
42
-0.1678211257610929
10
19.814341368375821
20
40.139244793281996
10
18.800000298023221
20
40.900000596046446
10
1.2022522538926634
20
54.098311629144369
42
0.33297569851422554
10
-1.1956865543658468
20
54.099855450483076
10
-18.810414460336187
20
40.924214625471002
10
-19.825734256556995
20
40.164765542354829
42
-0.16782112576109062
0
LINE
5
207
100
AcDbEntity
8
0
100
AcDbLine
10
-1.7524423894985368
20
47.741354141205321
30
0
11
-11.298454202579187
21
40.885177140109406
31
0
0
LINE
5
208
100
AcDbEntity
8
0
100
AcDbLine
10
-11.007420795480719
20
39.979068702049766
30
0
11
-0.011633800826746133
21
39.964910260995183
31
0
0
ARC
5
209
100
AcDbEntity
8
0
100
AcDbCircle
10
-11.006776983931612
20
40.479068287556288
30
0
40
0.49999999999999484
100
AcDbArc
50
125.68682342270304
51
269.92622461048245
0
ARC
5
210
100
AcDbEntity
8
0
100
AcDbCircle
10
-0.0023790776131211999
20
45.304701025886544
30
0
40
3.000000000000008
100
AcDbArc
50
54.239401187781084
51
125.68682342270175
0
LINE
5
211
100
AcDbEntity
8
0
100
AcDbLine
10
10.995796110025617
20
39.964902771016895
30
0
11
2.6020852139652106e-17
21
39.964902771016746
31
0
0
ARC
5
212
100
AcDbEntity
8
0
100
AcDbCircle
10
10.99579611002561
20
40.464902771016895
30
0
40
0.50000000000000266
100
AcDbArc
50
-89.99999999999919
51
54.239401187779819
0
LINE
5
213
100
AcDbEntity
8
0
100
AcDbLine
10
1.7508202743262258
20
47.739098699307938
30
0
11
11.287996002015507
21
40.870635716587117
31
0
0
LINE
5
214
100
AcDbEntity
8
0
100
AcDbLine
10
1.1259192346466169
20
61.239846701264938
30
0
11
32.175222199842153
21
40.277189672488888
31
0
0
ARC
5
215
100
AcDbEntity
8
0
100
AcDbCircle
10
0.0068129820964307058
20
59.582257730650376
30
0
40
1.9999999999999938
100
AcDbArc
50
55.975100920565666
51
123.95112368991708
0
LINE
5
216
100
AcDbEntity
8
0
100
AcDbLine
10
-0.75673389617448583
20
64.970902034675021
30
0
11
-0.27003981278041989
21
65.300329703446835
31
0
0
ARC
5
217
100
AcDbEntity
8
0
100
AcDbCircle
10
0.010227764254512051
20
64.886264388233187
30
0
40
0.50000000000000333
100
AcDbArc
50
55.833409315786945
51
124.09281529469554
0
LINE
5
218
100
AcDbEntity
8
0
100
AcDbLine
10
0.77729777027082159
20
64.969914406962118
30
0
11
0.2910282690153127
21
65.299968481186212
31
0
0
LINE
5
219
100
AcDbEntity
8
0
100
AcDbLine
10
0.77729777027082159
20
64.969914406962118
30
0
11
33.721168227053589
21
42.874136329709664
31
0
0
ARC
5
220
100
AcDbEntity
8
0
100
AcDbCircle
10
33.16414553436158
20
42.043639057091525
30
0
40
1.0000000000000073
100
AcDbArc
50
-30.519712087024878
51
56.149853855441314
0
LINE
5
221
100
AcDbEntity
8
0
100
AcDbLine
10
34.025600029898484
20
41.535804288570048
30
0
11
33.292893710551766
21
40.292893814859895
31
0
0
ARC
5
222
100
AcDbEntity
8
0
100
AcDbCircle
10
32.714006255123195
20
40.516720341429973
30
0
40
0.50000000000001033
100
AcDbArc
50
235.97510092056564
51
284.85884874360386
0
ARC
5
223
100
AcDbEntity
8
0
100
AcDbCircle
10
32.58578692936522
20
41.000000596046462
30
0
40
1.0000000000000133
100
AcDbArc
50
284.85884874360465
51
314.99999999999915
0
LINE
5
224
100
AcDbEntity
8
0
100
AcDbLine
10
32.434229691985642
20
40.102323098776324
30
0
11
32.056209668215118
21
40.357539910477186
31
0
0
LWPOLYLINE
5
225
100
AcDbEntity
8
0
100
AcDbPolyline
90
8
70
1
43
0.0
10
32.64954683260089
20
48.914824171862527
10
4.3491781257781978
20
68.086041682935956
42
-0.73918839028065764
10
4.6296021983629636
20
69.000001028180122
10
7.8641338913088701
20
69.000001028180122
42
-0.14996167820397663
10
8.4249820364783812
20
68.827919718668454
10
31.951159388766616
20
52.890831834860293
42
-0.14982625196469765
10
32.134973661624493
20
52.66256782779319
10
33.394209250628286
20
49.514478855283734
42
-0.73939323144051083
0
LWPOLYLINE
5
226
100
AcDbEntity
8
0
100
AcDbPolyline
90
8
70
1
43
0.0
10
28.716312113279329
20
58.784477068229045
10
13.516321679074625
20
68.073360111354148
42
-0.75746373773669839
10
13.777046683801617
20
69.000001028180122
10
16.235018210248906
20
69.000001028180122
42
-0.12548924171048401
10
17.671574602290626
20
68.633687746923272
10
27.052122992562872
20
63.517024988592965
42
-0.17447457293843055
10
28.40099667317693
20
61.997510298912118
10
29.441275463448946
20
59.396813323232074
42
-0.72142822294830244
0
ENDSEC
0
SECTION
2
OBJECTS
0
DICTIONARY
5
C
100
AcDbDictionary
3
ACAD_GROUP
350
D
3
ACAD_MLINESTYLE
350
17
0
DICTIONARY
5
D
100
AcDbDictionary
0
DICTIONARY
5
1A
330
C
100
AcDbDictionary
0
DICTIONARY
5
17
100
AcDbDictionary
0
ENDSEC
0
EOF
