G04 EAGLE Gerber X2 export*
G04 #@! %TF.Part,Single*
G04 #@! %TF.FileFunction,Copper,L2,Bot,Mixed*
G04 #@! %TF.FilePolarity,Positive*
G04 #@! %TF.GenerationSoftware,Autodesk,EAGLE,8.6.0*
G04 #@! %TF.CreationDate,2018-03-03T07:27:46Z*
G75*
%MOMM*%
%FSLAX34Y34*%
%LPD*%
%AMOC8*
5,1,8,0,0,1.08239X$1,22.5*%
G01*
%ADD10P,1.814519X8X202.500000*%
%ADD11P,1.814519X8X22.500000*%
%ADD12C,1.879600*%
%ADD13C,1.422400*%
%ADD14C,1.200000*%
%ADD15C,0.604000*%
%ADD16C,0.254000*%

G36*
X452178Y35084D02*
X452178Y35084D01*
X452197Y35082D01*
X452299Y35104D01*
X452401Y35120D01*
X452418Y35130D01*
X452438Y35134D01*
X452527Y35187D01*
X452618Y35236D01*
X452632Y35250D01*
X452649Y35260D01*
X452716Y35339D01*
X452788Y35414D01*
X452796Y35432D01*
X452809Y35447D01*
X452848Y35543D01*
X452891Y35637D01*
X452893Y35657D01*
X452901Y35675D01*
X452919Y35842D01*
X452919Y59080D01*
X452908Y59150D01*
X452906Y59222D01*
X452888Y59271D01*
X452880Y59322D01*
X452846Y59386D01*
X452821Y59453D01*
X452789Y59494D01*
X452764Y59540D01*
X452712Y59589D01*
X452668Y59645D01*
X452624Y59673D01*
X452586Y59709D01*
X452521Y59739D01*
X452461Y59778D01*
X452410Y59791D01*
X452363Y59813D01*
X452292Y59821D01*
X452222Y59838D01*
X452170Y59834D01*
X452119Y59840D01*
X452048Y59825D01*
X451977Y59819D01*
X451929Y59799D01*
X451878Y59788D01*
X451817Y59751D01*
X451751Y59723D01*
X451695Y59678D01*
X451667Y59661D01*
X451652Y59644D01*
X451620Y59618D01*
X449275Y57273D01*
X444887Y55455D01*
X440137Y55455D01*
X435749Y57273D01*
X432391Y60631D01*
X430573Y65019D01*
X430573Y69769D01*
X432391Y74157D01*
X435749Y77515D01*
X440137Y79333D01*
X444887Y79333D01*
X449275Y77515D01*
X451620Y75170D01*
X451678Y75128D01*
X451730Y75079D01*
X451777Y75057D01*
X451819Y75027D01*
X451888Y75006D01*
X451953Y74975D01*
X452005Y74970D01*
X452055Y74954D01*
X452126Y74956D01*
X452197Y74948D01*
X452248Y74959D01*
X452300Y74961D01*
X452368Y74985D01*
X452438Y75000D01*
X452483Y75027D01*
X452531Y75045D01*
X452587Y75090D01*
X452649Y75127D01*
X452683Y75166D01*
X452723Y75199D01*
X452762Y75259D01*
X452809Y75314D01*
X452828Y75362D01*
X452856Y75406D01*
X452874Y75475D01*
X452901Y75542D01*
X452909Y75613D01*
X452917Y75644D01*
X452915Y75668D01*
X452919Y75708D01*
X452919Y104292D01*
X452908Y104362D01*
X452906Y104434D01*
X452888Y104483D01*
X452880Y104534D01*
X452846Y104598D01*
X452821Y104665D01*
X452789Y104706D01*
X452764Y104752D01*
X452712Y104801D01*
X452668Y104857D01*
X452624Y104885D01*
X452586Y104921D01*
X452521Y104951D01*
X452461Y104990D01*
X452410Y105003D01*
X452363Y105025D01*
X452292Y105033D01*
X452222Y105050D01*
X452170Y105046D01*
X452119Y105052D01*
X452048Y105037D01*
X451977Y105031D01*
X451929Y105011D01*
X451878Y105000D01*
X451817Y104963D01*
X451751Y104935D01*
X451695Y104890D01*
X451667Y104873D01*
X451652Y104856D01*
X451620Y104830D01*
X449275Y102485D01*
X444887Y100667D01*
X440137Y100667D01*
X435749Y102485D01*
X432391Y105843D01*
X430573Y110231D01*
X430573Y114981D01*
X432391Y119369D01*
X435749Y122727D01*
X440137Y124545D01*
X444887Y124545D01*
X449275Y122727D01*
X451620Y120382D01*
X451678Y120340D01*
X451730Y120291D01*
X451777Y120269D01*
X451819Y120239D01*
X451888Y120218D01*
X451953Y120187D01*
X452005Y120182D01*
X452055Y120166D01*
X452126Y120168D01*
X452197Y120160D01*
X452248Y120171D01*
X452300Y120173D01*
X452368Y120197D01*
X452438Y120212D01*
X452483Y120239D01*
X452531Y120257D01*
X452587Y120302D01*
X452649Y120339D01*
X452683Y120378D01*
X452723Y120411D01*
X452762Y120471D01*
X452809Y120526D01*
X452828Y120574D01*
X452856Y120618D01*
X452874Y120687D01*
X452901Y120754D01*
X452909Y120825D01*
X452917Y120856D01*
X452915Y120880D01*
X452919Y120920D01*
X452919Y165158D01*
X452916Y165178D01*
X452918Y165197D01*
X452896Y165299D01*
X452880Y165401D01*
X452870Y165418D01*
X452866Y165438D01*
X452813Y165527D01*
X452764Y165618D01*
X452750Y165632D01*
X452740Y165649D01*
X452661Y165716D01*
X452586Y165788D01*
X452568Y165796D01*
X452553Y165809D01*
X452457Y165848D01*
X452363Y165891D01*
X452343Y165893D01*
X452325Y165901D01*
X452158Y165919D01*
X26842Y165919D01*
X26822Y165916D01*
X26803Y165918D01*
X26701Y165896D01*
X26599Y165880D01*
X26582Y165870D01*
X26562Y165866D01*
X26473Y165813D01*
X26382Y165764D01*
X26368Y165750D01*
X26351Y165740D01*
X26284Y165661D01*
X26212Y165586D01*
X26204Y165568D01*
X26191Y165553D01*
X26152Y165457D01*
X26109Y165363D01*
X26107Y165343D01*
X26099Y165325D01*
X26081Y165158D01*
X26081Y71884D01*
X26095Y71796D01*
X26102Y71707D01*
X26115Y71675D01*
X26120Y71641D01*
X26162Y71563D01*
X26197Y71480D01*
X26219Y71454D01*
X26236Y71424D01*
X26300Y71363D01*
X26359Y71296D01*
X26389Y71278D01*
X26414Y71254D01*
X26495Y71217D01*
X26572Y71172D01*
X26606Y71165D01*
X26637Y71151D01*
X26726Y71141D01*
X26813Y71123D01*
X26847Y71128D01*
X26881Y71124D01*
X26968Y71143D01*
X27057Y71154D01*
X27088Y71169D01*
X27122Y71176D01*
X27198Y71222D01*
X27279Y71260D01*
X27312Y71289D01*
X27333Y71302D01*
X27354Y71326D01*
X27405Y71371D01*
X28893Y73004D01*
X37140Y77111D01*
X46313Y77961D01*
X55174Y75440D01*
X62525Y69888D01*
X64141Y67278D01*
X64165Y67251D01*
X64182Y67219D01*
X64245Y67159D01*
X64302Y67093D01*
X64334Y67075D01*
X64360Y67050D01*
X64439Y67013D01*
X64515Y66969D01*
X64550Y66961D01*
X64583Y66946D01*
X64670Y66936D01*
X64755Y66919D01*
X64792Y66923D01*
X64827Y66919D01*
X64913Y66938D01*
X65000Y66948D01*
X65032Y66964D01*
X65068Y66971D01*
X65143Y67016D01*
X65222Y67054D01*
X65248Y67079D01*
X65279Y67097D01*
X65336Y67164D01*
X65399Y67225D01*
X65415Y67257D01*
X65439Y67284D01*
X65472Y67366D01*
X65512Y67443D01*
X65517Y67479D01*
X65531Y67513D01*
X65549Y67679D01*
X65549Y69669D01*
X67367Y74057D01*
X70725Y77415D01*
X75113Y79233D01*
X79863Y79233D01*
X84251Y77415D01*
X87609Y74057D01*
X89427Y69669D01*
X89427Y64919D01*
X87609Y60531D01*
X84251Y57173D01*
X79863Y55355D01*
X75113Y55355D01*
X70725Y57173D01*
X69465Y58433D01*
X69450Y58444D01*
X69439Y58458D01*
X69350Y58515D01*
X69266Y58576D01*
X69248Y58582D01*
X69232Y58592D01*
X69130Y58618D01*
X69030Y58649D01*
X69012Y58648D01*
X68994Y58653D01*
X68889Y58645D01*
X68785Y58642D01*
X68767Y58636D01*
X68749Y58635D01*
X68652Y58594D01*
X68554Y58558D01*
X68539Y58546D01*
X68522Y58539D01*
X68443Y58470D01*
X68362Y58404D01*
X68351Y58388D01*
X68338Y58376D01*
X68285Y58285D01*
X68229Y58197D01*
X68224Y58179D01*
X68215Y58163D01*
X68194Y58060D01*
X68168Y57959D01*
X68170Y57940D01*
X68166Y57922D01*
X68179Y57755D01*
X69068Y53000D01*
X67375Y43945D01*
X62606Y36243D01*
X62565Y36144D01*
X62520Y36047D01*
X62518Y36031D01*
X62512Y36015D01*
X62505Y35909D01*
X62493Y35803D01*
X62497Y35786D01*
X62495Y35770D01*
X62523Y35667D01*
X62545Y35562D01*
X62554Y35548D01*
X62558Y35532D01*
X62617Y35443D01*
X62671Y35351D01*
X62684Y35340D01*
X62693Y35327D01*
X62777Y35261D01*
X62858Y35191D01*
X62874Y35185D01*
X62887Y35175D01*
X62987Y35139D01*
X63087Y35099D01*
X63107Y35097D01*
X63118Y35093D01*
X63149Y35092D01*
X63253Y35081D01*
X452158Y35081D01*
X452178Y35084D01*
G37*
%LPC*%
G36*
X229894Y71439D02*
X229894Y71439D01*
X227850Y72286D01*
X226286Y73850D01*
X225439Y75894D01*
X225439Y78106D01*
X226286Y80150D01*
X227850Y81714D01*
X229894Y82561D01*
X232106Y82561D01*
X233097Y82150D01*
X233211Y82124D01*
X233324Y82095D01*
X233330Y82096D01*
X233336Y82094D01*
X233453Y82105D01*
X233569Y82114D01*
X233575Y82117D01*
X233581Y82117D01*
X233689Y82165D01*
X233795Y82211D01*
X233801Y82215D01*
X233806Y82217D01*
X233819Y82230D01*
X233926Y82315D01*
X244966Y93356D01*
X245019Y93429D01*
X245079Y93499D01*
X245091Y93529D01*
X245110Y93555D01*
X245137Y93642D01*
X245171Y93727D01*
X245175Y93768D01*
X245182Y93790D01*
X245181Y93823D01*
X245189Y93894D01*
X245189Y102578D01*
X253701Y111090D01*
X253742Y111148D01*
X253792Y111200D01*
X253814Y111247D01*
X253844Y111289D01*
X253865Y111358D01*
X253895Y111423D01*
X253901Y111475D01*
X253916Y111525D01*
X253915Y111596D01*
X253922Y111667D01*
X253911Y111718D01*
X253910Y111770D01*
X253885Y111838D01*
X253870Y111908D01*
X253844Y111953D01*
X253826Y112001D01*
X253781Y112057D01*
X253744Y112119D01*
X253704Y112153D01*
X253672Y112193D01*
X253612Y112232D01*
X253557Y112279D01*
X253509Y112298D01*
X253465Y112326D01*
X253396Y112344D01*
X253329Y112371D01*
X253258Y112379D01*
X253226Y112387D01*
X253203Y112385D01*
X253162Y112389D01*
X215894Y112389D01*
X215804Y112375D01*
X215713Y112367D01*
X215683Y112355D01*
X215651Y112350D01*
X215570Y112307D01*
X215486Y112271D01*
X215454Y112245D01*
X215434Y112234D01*
X215411Y112211D01*
X215356Y112166D01*
X209684Y106494D01*
X209631Y106421D01*
X209571Y106351D01*
X209559Y106321D01*
X209540Y106295D01*
X209513Y106208D01*
X209479Y106123D01*
X209475Y106082D01*
X209468Y106060D01*
X209469Y106027D01*
X209461Y105956D01*
X209461Y104994D01*
X208614Y102950D01*
X207050Y101386D01*
X205006Y100539D01*
X202794Y100539D01*
X200750Y101386D01*
X199186Y102950D01*
X198339Y104994D01*
X198339Y107206D01*
X199186Y109250D01*
X200750Y110814D01*
X202794Y111661D01*
X203756Y111661D01*
X203846Y111675D01*
X203937Y111683D01*
X203967Y111695D01*
X203999Y111700D01*
X204080Y111743D01*
X204164Y111779D01*
X204196Y111805D01*
X204216Y111816D01*
X204239Y111839D01*
X204294Y111884D01*
X212422Y120011D01*
X302306Y120011D01*
X302396Y120025D01*
X302487Y120033D01*
X302517Y120045D01*
X302549Y120050D01*
X302630Y120093D01*
X302714Y120129D01*
X302746Y120155D01*
X302766Y120166D01*
X302789Y120189D01*
X302845Y120234D01*
X319966Y137355D01*
X319966Y137356D01*
X321589Y138978D01*
X321630Y139036D01*
X321680Y139088D01*
X321702Y139135D01*
X321732Y139177D01*
X321753Y139246D01*
X321783Y139311D01*
X321789Y139363D01*
X321804Y139413D01*
X321803Y139484D01*
X321810Y139555D01*
X321799Y139606D01*
X321798Y139658D01*
X321773Y139726D01*
X321758Y139796D01*
X321732Y139841D01*
X321714Y139889D01*
X321669Y139945D01*
X321632Y140007D01*
X321592Y140041D01*
X321560Y140081D01*
X321500Y140120D01*
X321445Y140167D01*
X321397Y140186D01*
X321353Y140214D01*
X321284Y140232D01*
X321217Y140259D01*
X321146Y140267D01*
X321114Y140275D01*
X321091Y140273D01*
X321050Y140277D01*
X320276Y140277D01*
X315338Y145215D01*
X315322Y145226D01*
X315310Y145242D01*
X315222Y145298D01*
X315139Y145358D01*
X315120Y145364D01*
X315103Y145375D01*
X315002Y145400D01*
X314903Y145431D01*
X314884Y145430D01*
X314864Y145435D01*
X314761Y145427D01*
X314658Y145424D01*
X314639Y145417D01*
X314619Y145416D01*
X314524Y145375D01*
X314427Y145340D01*
X314411Y145327D01*
X314393Y145319D01*
X314262Y145215D01*
X309324Y140277D01*
X300276Y140277D01*
X295338Y145215D01*
X295322Y145226D01*
X295310Y145242D01*
X295222Y145298D01*
X295139Y145358D01*
X295120Y145364D01*
X295103Y145375D01*
X295002Y145400D01*
X294903Y145431D01*
X294884Y145430D01*
X294864Y145435D01*
X294761Y145427D01*
X294658Y145424D01*
X294639Y145417D01*
X294619Y145416D01*
X294524Y145375D01*
X294427Y145340D01*
X294411Y145327D01*
X294393Y145319D01*
X294262Y145215D01*
X289324Y140277D01*
X280276Y140277D01*
X275338Y145215D01*
X275322Y145226D01*
X275310Y145242D01*
X275222Y145298D01*
X275139Y145358D01*
X275120Y145364D01*
X275103Y145375D01*
X275002Y145400D01*
X274903Y145431D01*
X274884Y145430D01*
X274864Y145435D01*
X274761Y145427D01*
X274658Y145424D01*
X274639Y145417D01*
X274619Y145416D01*
X274524Y145375D01*
X274427Y145340D01*
X274411Y145327D01*
X274393Y145319D01*
X274262Y145215D01*
X269324Y140277D01*
X260276Y140277D01*
X253877Y146676D01*
X253877Y155724D01*
X260276Y162123D01*
X269324Y162123D01*
X274262Y157185D01*
X274278Y157174D01*
X274290Y157158D01*
X274378Y157102D01*
X274461Y157042D01*
X274480Y157036D01*
X274497Y157025D01*
X274598Y157000D01*
X274697Y156969D01*
X274716Y156970D01*
X274736Y156965D01*
X274839Y156973D01*
X274942Y156976D01*
X274961Y156983D01*
X274981Y156984D01*
X275076Y157025D01*
X275173Y157060D01*
X275189Y157073D01*
X275207Y157081D01*
X275338Y157185D01*
X280276Y162123D01*
X289324Y162123D01*
X294262Y157185D01*
X294278Y157174D01*
X294290Y157158D01*
X294378Y157102D01*
X294461Y157042D01*
X294480Y157036D01*
X294497Y157025D01*
X294598Y157000D01*
X294697Y156969D01*
X294716Y156970D01*
X294736Y156965D01*
X294839Y156973D01*
X294942Y156976D01*
X294961Y156983D01*
X294981Y156984D01*
X295076Y157025D01*
X295173Y157060D01*
X295189Y157073D01*
X295207Y157081D01*
X295338Y157185D01*
X300276Y162123D01*
X309324Y162123D01*
X314262Y157185D01*
X314278Y157174D01*
X314290Y157158D01*
X314378Y157102D01*
X314461Y157042D01*
X314480Y157036D01*
X314497Y157025D01*
X314598Y157000D01*
X314697Y156969D01*
X314716Y156970D01*
X314736Y156965D01*
X314839Y156973D01*
X314942Y156976D01*
X314961Y156983D01*
X314981Y156984D01*
X315076Y157025D01*
X315173Y157060D01*
X315189Y157073D01*
X315207Y157081D01*
X315338Y157185D01*
X320276Y162123D01*
X329324Y162123D01*
X335723Y155724D01*
X335723Y146676D01*
X330157Y141110D01*
X330115Y141052D01*
X330066Y141000D01*
X330044Y140953D01*
X330014Y140911D01*
X329993Y140842D01*
X329962Y140777D01*
X329957Y140725D01*
X329941Y140675D01*
X329943Y140604D01*
X329935Y140533D01*
X329946Y140482D01*
X329948Y140430D01*
X329972Y140362D01*
X329988Y140292D01*
X330014Y140247D01*
X330032Y140199D01*
X330077Y140143D01*
X330114Y140081D01*
X330153Y140047D01*
X330186Y140007D01*
X330246Y139968D01*
X330301Y139921D01*
X330349Y139902D01*
X330393Y139874D01*
X330462Y139856D01*
X330529Y139829D01*
X330600Y139821D01*
X330631Y139813D01*
X330655Y139815D01*
X330696Y139811D01*
X364204Y139811D01*
X364275Y139822D01*
X364347Y139824D01*
X364396Y139842D01*
X364447Y139850D01*
X364510Y139884D01*
X364578Y139909D01*
X364618Y139941D01*
X364665Y139966D01*
X364714Y140018D01*
X364770Y140062D01*
X364798Y140106D01*
X364834Y140144D01*
X364864Y140209D01*
X364903Y140269D01*
X364916Y140320D01*
X364938Y140367D01*
X364945Y140438D01*
X364963Y140508D01*
X364959Y140560D01*
X364965Y140611D01*
X364949Y140682D01*
X364944Y140753D01*
X364923Y140801D01*
X364912Y140852D01*
X364876Y140913D01*
X364847Y140979D01*
X364803Y141035D01*
X364786Y141063D01*
X364768Y141078D01*
X364743Y141110D01*
X358977Y146876D01*
X358977Y149877D01*
X369138Y149877D01*
X369158Y149880D01*
X369177Y149878D01*
X369279Y149900D01*
X369381Y149917D01*
X369398Y149926D01*
X369418Y149930D01*
X369507Y149983D01*
X369598Y150032D01*
X369612Y150046D01*
X369629Y150056D01*
X369696Y150135D01*
X369767Y150210D01*
X369776Y150228D01*
X369789Y150243D01*
X369827Y150339D01*
X369871Y150433D01*
X369873Y150453D01*
X369881Y150471D01*
X369899Y150638D01*
X369899Y151401D01*
X370662Y151401D01*
X370682Y151404D01*
X370701Y151402D01*
X370803Y151424D01*
X370905Y151441D01*
X370922Y151450D01*
X370942Y151454D01*
X371031Y151507D01*
X371122Y151556D01*
X371136Y151570D01*
X371153Y151580D01*
X371220Y151659D01*
X371291Y151734D01*
X371300Y151752D01*
X371313Y151767D01*
X371352Y151863D01*
X371395Y151957D01*
X371397Y151977D01*
X371405Y151995D01*
X371423Y152162D01*
X371423Y162323D01*
X374424Y162323D01*
X379362Y157385D01*
X379378Y157374D01*
X379390Y157358D01*
X379478Y157302D01*
X379561Y157242D01*
X379580Y157236D01*
X379597Y157225D01*
X379698Y157200D01*
X379797Y157169D01*
X379816Y157170D01*
X379836Y157165D01*
X379939Y157173D01*
X380042Y157176D01*
X380061Y157183D01*
X380081Y157184D01*
X380176Y157225D01*
X380273Y157260D01*
X380289Y157273D01*
X380307Y157281D01*
X380438Y157385D01*
X385376Y162323D01*
X394424Y162323D01*
X399362Y157385D01*
X399378Y157374D01*
X399390Y157358D01*
X399478Y157302D01*
X399561Y157242D01*
X399580Y157236D01*
X399597Y157225D01*
X399698Y157200D01*
X399797Y157169D01*
X399816Y157170D01*
X399836Y157165D01*
X399939Y157173D01*
X400042Y157176D01*
X400061Y157183D01*
X400081Y157184D01*
X400176Y157225D01*
X400273Y157260D01*
X400289Y157273D01*
X400307Y157281D01*
X400438Y157385D01*
X405376Y162323D01*
X414424Y162323D01*
X419362Y157385D01*
X419378Y157374D01*
X419390Y157358D01*
X419478Y157302D01*
X419561Y157242D01*
X419580Y157236D01*
X419597Y157225D01*
X419698Y157200D01*
X419797Y157169D01*
X419816Y157170D01*
X419836Y157165D01*
X419939Y157173D01*
X420042Y157176D01*
X420061Y157183D01*
X420081Y157184D01*
X420176Y157225D01*
X420273Y157260D01*
X420289Y157273D01*
X420307Y157281D01*
X420438Y157385D01*
X425376Y162323D01*
X428377Y162323D01*
X428377Y152162D01*
X428380Y152142D01*
X428378Y152123D01*
X428400Y152021D01*
X428417Y151919D01*
X428426Y151902D01*
X428430Y151882D01*
X428483Y151793D01*
X428532Y151702D01*
X428546Y151688D01*
X428556Y151671D01*
X428635Y151604D01*
X428710Y151533D01*
X428728Y151524D01*
X428743Y151511D01*
X428839Y151473D01*
X428933Y151429D01*
X428953Y151427D01*
X428971Y151419D01*
X429138Y151401D01*
X429901Y151401D01*
X429901Y151399D01*
X429138Y151399D01*
X429118Y151396D01*
X429099Y151398D01*
X428997Y151376D01*
X428895Y151359D01*
X428878Y151350D01*
X428858Y151346D01*
X428769Y151293D01*
X428678Y151244D01*
X428664Y151230D01*
X428647Y151220D01*
X428580Y151141D01*
X428509Y151066D01*
X428500Y151048D01*
X428487Y151033D01*
X428448Y150937D01*
X428405Y150843D01*
X428403Y150823D01*
X428395Y150805D01*
X428377Y150638D01*
X428377Y140477D01*
X425376Y140477D01*
X420438Y145415D01*
X420422Y145426D01*
X420410Y145442D01*
X420323Y145498D01*
X420239Y145558D01*
X420220Y145564D01*
X420203Y145575D01*
X420102Y145600D01*
X420003Y145631D01*
X419984Y145630D01*
X419964Y145635D01*
X419861Y145627D01*
X419758Y145624D01*
X419739Y145617D01*
X419719Y145616D01*
X419624Y145575D01*
X419527Y145540D01*
X419511Y145527D01*
X419493Y145519D01*
X419362Y145415D01*
X414424Y140477D01*
X405371Y140477D01*
X405294Y140527D01*
X405210Y140587D01*
X405191Y140593D01*
X405174Y140604D01*
X405074Y140629D01*
X404975Y140659D01*
X404955Y140659D01*
X404935Y140664D01*
X404832Y140656D01*
X404729Y140653D01*
X404710Y140646D01*
X404690Y140645D01*
X404595Y140604D01*
X404498Y140569D01*
X404482Y140556D01*
X404464Y140548D01*
X404333Y140444D01*
X396078Y132189D01*
X358413Y132189D01*
X358342Y132178D01*
X358270Y132176D01*
X358221Y132158D01*
X358170Y132150D01*
X358106Y132116D01*
X358039Y132091D01*
X357998Y132059D01*
X357952Y132034D01*
X357903Y131982D01*
X357847Y131938D01*
X357819Y131894D01*
X357783Y131856D01*
X357753Y131791D01*
X357714Y131731D01*
X357701Y131680D01*
X357679Y131633D01*
X357672Y131562D01*
X357654Y131492D01*
X357658Y131440D01*
X357652Y131389D01*
X357668Y131318D01*
X357673Y131247D01*
X357694Y131199D01*
X357705Y131148D01*
X357741Y131087D01*
X357769Y131021D01*
X357814Y130965D01*
X357831Y130937D01*
X357849Y130922D01*
X357874Y130890D01*
X358714Y130050D01*
X359561Y128006D01*
X359561Y125794D01*
X358714Y123750D01*
X357150Y122186D01*
X355106Y121339D01*
X352894Y121339D01*
X352540Y121486D01*
X352427Y121512D01*
X352313Y121541D01*
X352306Y121541D01*
X352300Y121542D01*
X352184Y121531D01*
X352067Y121522D01*
X352062Y121520D01*
X352055Y121519D01*
X351948Y121471D01*
X351841Y121426D01*
X351835Y121421D01*
X351831Y121419D01*
X351817Y121406D01*
X351710Y121321D01*
X318784Y88394D01*
X318731Y88321D01*
X318671Y88251D01*
X318659Y88221D01*
X318640Y88195D01*
X318613Y88108D01*
X318579Y88023D01*
X318575Y87982D01*
X318568Y87960D01*
X318569Y87927D01*
X318561Y87856D01*
X318561Y86894D01*
X317714Y84850D01*
X316150Y83286D01*
X314106Y82439D01*
X311894Y82439D01*
X309850Y83286D01*
X308286Y84850D01*
X307439Y86894D01*
X307439Y89106D01*
X308286Y91150D01*
X309850Y92714D01*
X311894Y93561D01*
X312856Y93561D01*
X312946Y93575D01*
X313037Y93583D01*
X313067Y93595D01*
X313099Y93600D01*
X313180Y93643D01*
X313264Y93679D01*
X313296Y93705D01*
X313316Y93716D01*
X313339Y93739D01*
X313394Y93784D01*
X348914Y129303D01*
X348952Y129356D01*
X348998Y129403D01*
X349038Y129476D01*
X349057Y129503D01*
X349063Y129521D01*
X349079Y129550D01*
X349286Y130050D01*
X350126Y130890D01*
X350168Y130948D01*
X350217Y131000D01*
X350239Y131047D01*
X350269Y131089D01*
X350290Y131158D01*
X350321Y131223D01*
X350326Y131275D01*
X350342Y131325D01*
X350340Y131396D01*
X350348Y131467D01*
X350337Y131518D01*
X350335Y131570D01*
X350311Y131638D01*
X350295Y131708D01*
X350269Y131753D01*
X350251Y131801D01*
X350206Y131857D01*
X350169Y131919D01*
X350130Y131953D01*
X350097Y131993D01*
X350037Y132032D01*
X349982Y132079D01*
X349934Y132098D01*
X349890Y132126D01*
X349821Y132144D01*
X349754Y132171D01*
X349683Y132179D01*
X349652Y132187D01*
X349628Y132185D01*
X349587Y132189D01*
X325894Y132189D01*
X325804Y132175D01*
X325713Y132167D01*
X325683Y132155D01*
X325651Y132150D01*
X325570Y132107D01*
X325486Y132071D01*
X325454Y132045D01*
X325434Y132034D01*
X325411Y132011D01*
X325355Y131966D01*
X318801Y125412D01*
X318775Y125375D01*
X318741Y125344D01*
X318703Y125275D01*
X318658Y125212D01*
X318644Y125169D01*
X318622Y125128D01*
X318608Y125052D01*
X318585Y124977D01*
X318587Y124931D01*
X318578Y124886D01*
X318590Y124809D01*
X318592Y124731D01*
X318608Y124688D01*
X318614Y124643D01*
X318649Y124574D01*
X318676Y124500D01*
X318705Y124465D01*
X318726Y124424D01*
X318781Y124369D01*
X318830Y124308D01*
X318868Y124284D01*
X318901Y124251D01*
X319021Y124185D01*
X319037Y124175D01*
X319042Y124174D01*
X319048Y124170D01*
X320150Y123714D01*
X321714Y122150D01*
X322561Y120106D01*
X322561Y117894D01*
X321714Y115850D01*
X320150Y114286D01*
X318106Y113439D01*
X317144Y113439D01*
X317054Y113425D01*
X316963Y113417D01*
X316933Y113405D01*
X316901Y113400D01*
X316820Y113357D01*
X316736Y113321D01*
X316704Y113295D01*
X316684Y113284D01*
X316661Y113261D01*
X316606Y113216D01*
X310578Y107189D01*
X260894Y107189D01*
X260804Y107175D01*
X260713Y107167D01*
X260683Y107155D01*
X260651Y107150D01*
X260570Y107107D01*
X260486Y107071D01*
X260454Y107045D01*
X260434Y107034D01*
X260411Y107011D01*
X260356Y106966D01*
X253034Y99644D01*
X252981Y99571D01*
X252921Y99501D01*
X252909Y99471D01*
X252890Y99445D01*
X252863Y99358D01*
X252829Y99273D01*
X252825Y99232D01*
X252818Y99210D01*
X252819Y99177D01*
X252811Y99106D01*
X252811Y90422D01*
X235578Y73189D01*
X235369Y73189D01*
X235279Y73175D01*
X235188Y73167D01*
X235158Y73155D01*
X235126Y73150D01*
X235045Y73107D01*
X234961Y73071D01*
X234929Y73045D01*
X234909Y73034D01*
X234886Y73011D01*
X234830Y72966D01*
X234150Y72286D01*
X232106Y71439D01*
X229894Y71439D01*
G37*
%LPD*%
%LPC*%
G36*
X91580Y141147D02*
X91580Y141147D01*
X88032Y142617D01*
X85317Y145332D01*
X83847Y148880D01*
X83847Y152720D01*
X85317Y156268D01*
X88032Y158983D01*
X91580Y160453D01*
X95420Y160453D01*
X98968Y158983D01*
X101683Y156268D01*
X102797Y153580D01*
X102835Y153519D01*
X102864Y153453D01*
X102899Y153415D01*
X102926Y153371D01*
X102982Y153325D01*
X103030Y153272D01*
X103076Y153247D01*
X103116Y153214D01*
X103183Y153188D01*
X103246Y153153D01*
X103297Y153144D01*
X103345Y153126D01*
X103417Y153122D01*
X103488Y153110D01*
X103539Y153117D01*
X103591Y153115D01*
X103660Y153135D01*
X103731Y153146D01*
X103777Y153169D01*
X103827Y153184D01*
X103886Y153224D01*
X103950Y153257D01*
X103987Y153294D01*
X104029Y153324D01*
X104072Y153381D01*
X104122Y153433D01*
X104157Y153495D01*
X104176Y153521D01*
X104183Y153544D01*
X104203Y153580D01*
X105317Y156268D01*
X108032Y158983D01*
X111580Y160453D01*
X115420Y160453D01*
X118968Y158983D01*
X121683Y156268D01*
X122824Y153515D01*
X122877Y153429D01*
X122925Y153340D01*
X122941Y153325D01*
X122953Y153306D01*
X123031Y153241D01*
X123105Y153172D01*
X123126Y153163D01*
X123143Y153149D01*
X123237Y153113D01*
X123329Y153071D01*
X123352Y153069D01*
X123372Y153061D01*
X123473Y153056D01*
X123574Y153046D01*
X123596Y153051D01*
X123618Y153050D01*
X123715Y153078D01*
X123814Y153101D01*
X123833Y153113D01*
X123854Y153119D01*
X123937Y153176D01*
X124024Y153229D01*
X124038Y153246D01*
X124056Y153259D01*
X124117Y153340D01*
X124182Y153418D01*
X124193Y153443D01*
X124203Y153456D01*
X124213Y153488D01*
X124251Y153571D01*
X124554Y154505D01*
X125244Y155859D01*
X126137Y157088D01*
X127212Y158163D01*
X128441Y159056D01*
X129795Y159746D01*
X131240Y160215D01*
X131977Y160332D01*
X131977Y151562D01*
X131980Y151542D01*
X131978Y151523D01*
X132000Y151421D01*
X132017Y151319D01*
X132026Y151302D01*
X132030Y151282D01*
X132083Y151193D01*
X132132Y151102D01*
X132146Y151088D01*
X132156Y151071D01*
X132235Y151004D01*
X132310Y150933D01*
X132328Y150924D01*
X132343Y150911D01*
X132439Y150873D01*
X132533Y150829D01*
X132553Y150827D01*
X132571Y150819D01*
X132738Y150801D01*
X133501Y150801D01*
X133501Y150799D01*
X132738Y150799D01*
X132718Y150796D01*
X132699Y150798D01*
X132597Y150776D01*
X132495Y150759D01*
X132478Y150750D01*
X132458Y150746D01*
X132369Y150693D01*
X132278Y150644D01*
X132264Y150630D01*
X132247Y150620D01*
X132180Y150541D01*
X132109Y150466D01*
X132100Y150448D01*
X132087Y150433D01*
X132048Y150337D01*
X132005Y150243D01*
X132003Y150223D01*
X131995Y150205D01*
X131977Y150038D01*
X131977Y141268D01*
X131240Y141385D01*
X129795Y141854D01*
X128441Y142544D01*
X127212Y143437D01*
X126137Y144512D01*
X125244Y145741D01*
X124554Y147095D01*
X124251Y148029D01*
X124204Y148119D01*
X124163Y148212D01*
X124148Y148228D01*
X124138Y148248D01*
X124065Y148318D01*
X123997Y148393D01*
X123977Y148403D01*
X123961Y148419D01*
X123870Y148463D01*
X123781Y148511D01*
X123759Y148515D01*
X123739Y148525D01*
X123639Y148537D01*
X123539Y148555D01*
X123517Y148552D01*
X123495Y148555D01*
X123396Y148534D01*
X123296Y148519D01*
X123276Y148509D01*
X123254Y148505D01*
X123167Y148454D01*
X123077Y148408D01*
X123061Y148392D01*
X123042Y148381D01*
X122976Y148305D01*
X122904Y148232D01*
X122891Y148208D01*
X122880Y148196D01*
X122868Y148165D01*
X122824Y148085D01*
X121683Y145332D01*
X118968Y142617D01*
X115420Y141147D01*
X111580Y141147D01*
X108032Y142617D01*
X105317Y145332D01*
X104203Y148020D01*
X104165Y148081D01*
X104136Y148147D01*
X104101Y148185D01*
X104074Y148229D01*
X104018Y148275D01*
X103970Y148328D01*
X103924Y148353D01*
X103884Y148386D01*
X103817Y148412D01*
X103754Y148447D01*
X103703Y148456D01*
X103655Y148474D01*
X103583Y148478D01*
X103512Y148490D01*
X103461Y148483D01*
X103409Y148485D01*
X103340Y148465D01*
X103269Y148454D01*
X103223Y148431D01*
X103173Y148416D01*
X103114Y148376D01*
X103050Y148343D01*
X103013Y148306D01*
X102971Y148276D01*
X102928Y148219D01*
X102878Y148167D01*
X102843Y148105D01*
X102824Y148079D01*
X102817Y148056D01*
X102797Y148020D01*
X101683Y145332D01*
X98968Y142617D01*
X95420Y141147D01*
X91580Y141147D01*
G37*
%LPD*%
%LPC*%
G36*
X180676Y129077D02*
X180676Y129077D01*
X174277Y135476D01*
X174277Y144524D01*
X180676Y150923D01*
X189724Y150923D01*
X194662Y145985D01*
X194678Y145974D01*
X194690Y145958D01*
X194778Y145902D01*
X194861Y145842D01*
X194880Y145836D01*
X194897Y145825D01*
X194998Y145800D01*
X195097Y145769D01*
X195116Y145770D01*
X195136Y145765D01*
X195239Y145773D01*
X195342Y145776D01*
X195361Y145783D01*
X195381Y145784D01*
X195476Y145825D01*
X195573Y145860D01*
X195589Y145873D01*
X195607Y145881D01*
X195738Y145985D01*
X200676Y150923D01*
X203677Y150923D01*
X203677Y140762D01*
X203680Y140742D01*
X203678Y140723D01*
X203700Y140621D01*
X203717Y140519D01*
X203726Y140502D01*
X203730Y140482D01*
X203783Y140393D01*
X203832Y140302D01*
X203846Y140288D01*
X203856Y140271D01*
X203935Y140204D01*
X204010Y140133D01*
X204028Y140124D01*
X204043Y140111D01*
X204139Y140073D01*
X204233Y140029D01*
X204253Y140027D01*
X204271Y140019D01*
X204438Y140001D01*
X205201Y140001D01*
X205201Y139999D01*
X204438Y139999D01*
X204418Y139996D01*
X204399Y139998D01*
X204297Y139976D01*
X204195Y139959D01*
X204178Y139950D01*
X204158Y139946D01*
X204069Y139893D01*
X203978Y139844D01*
X203964Y139830D01*
X203947Y139820D01*
X203880Y139741D01*
X203809Y139666D01*
X203800Y139648D01*
X203787Y139633D01*
X203748Y139537D01*
X203705Y139443D01*
X203703Y139423D01*
X203695Y139405D01*
X203677Y139238D01*
X203677Y129077D01*
X200676Y129077D01*
X195738Y134015D01*
X195722Y134026D01*
X195710Y134042D01*
X195622Y134098D01*
X195539Y134158D01*
X195520Y134164D01*
X195503Y134175D01*
X195402Y134200D01*
X195303Y134231D01*
X195284Y134230D01*
X195264Y134235D01*
X195161Y134227D01*
X195058Y134224D01*
X195039Y134217D01*
X195019Y134216D01*
X194924Y134175D01*
X194827Y134140D01*
X194811Y134127D01*
X194793Y134119D01*
X194662Y134015D01*
X189724Y129077D01*
X180676Y129077D01*
G37*
%LPD*%
%LPC*%
G36*
X140137Y100567D02*
X140137Y100567D01*
X135749Y102385D01*
X132391Y105743D01*
X130573Y110131D01*
X130573Y114881D01*
X132391Y119269D01*
X135749Y122627D01*
X140137Y124445D01*
X144887Y124445D01*
X149275Y122627D01*
X152633Y119269D01*
X154451Y114881D01*
X154451Y110131D01*
X152633Y105743D01*
X149275Y102385D01*
X144887Y100567D01*
X140137Y100567D01*
G37*
%LPD*%
%LPC*%
G36*
X75113Y100567D02*
X75113Y100567D01*
X70725Y102385D01*
X67367Y105743D01*
X65549Y110131D01*
X65549Y114881D01*
X67367Y119269D01*
X70725Y122627D01*
X75113Y124445D01*
X79863Y124445D01*
X84251Y122627D01*
X87609Y119269D01*
X89427Y114881D01*
X89427Y110131D01*
X87609Y105743D01*
X84251Y102385D01*
X79863Y100567D01*
X75113Y100567D01*
G37*
%LPD*%
%LPC*%
G36*
X375113Y55455D02*
X375113Y55455D01*
X370725Y57273D01*
X367367Y60631D01*
X365549Y65019D01*
X365549Y69769D01*
X367367Y74157D01*
X370725Y77515D01*
X375113Y79333D01*
X379863Y79333D01*
X384251Y77515D01*
X387609Y74157D01*
X389427Y69769D01*
X389427Y65019D01*
X387609Y60631D01*
X384251Y57273D01*
X379863Y55455D01*
X375113Y55455D01*
G37*
%LPD*%
%LPC*%
G36*
X39301Y138859D02*
X39301Y138859D01*
X36162Y140160D01*
X33760Y142562D01*
X32459Y145701D01*
X32459Y149099D01*
X33760Y152238D01*
X36162Y154640D01*
X39301Y155941D01*
X42699Y155941D01*
X45838Y154640D01*
X48240Y152238D01*
X49541Y149099D01*
X49541Y145701D01*
X48240Y142562D01*
X45838Y140160D01*
X42699Y138859D01*
X39301Y138859D01*
G37*
%LPD*%
%LPC*%
G36*
X39301Y113459D02*
X39301Y113459D01*
X36162Y114760D01*
X33760Y117162D01*
X32459Y120301D01*
X32459Y123699D01*
X33760Y126838D01*
X36162Y129240D01*
X39301Y130541D01*
X42699Y130541D01*
X45838Y129240D01*
X48240Y126838D01*
X49541Y123699D01*
X49541Y120301D01*
X48240Y117162D01*
X45838Y114760D01*
X42699Y113459D01*
X39301Y113459D01*
G37*
%LPD*%
%LPC*%
G36*
X39301Y88059D02*
X39301Y88059D01*
X36162Y89360D01*
X33760Y91762D01*
X32459Y94901D01*
X32459Y98299D01*
X33760Y101438D01*
X36162Y103840D01*
X39301Y105141D01*
X42699Y105141D01*
X45838Y103840D01*
X48240Y101438D01*
X49541Y98299D01*
X49541Y94901D01*
X48240Y91762D01*
X45838Y89360D01*
X42699Y88059D01*
X39301Y88059D01*
G37*
%LPD*%
%LPC*%
G36*
X379011Y114129D02*
X379011Y114129D01*
X379011Y124452D01*
X380284Y124251D01*
X382071Y123670D01*
X383745Y122817D01*
X385266Y121712D01*
X386594Y120384D01*
X387699Y118863D01*
X388552Y117189D01*
X389133Y115402D01*
X389334Y114129D01*
X379011Y114129D01*
G37*
%LPD*%
%LPC*%
G36*
X144035Y68817D02*
X144035Y68817D01*
X144035Y79140D01*
X145308Y78939D01*
X147095Y78358D01*
X148769Y77505D01*
X150290Y76400D01*
X151618Y75072D01*
X152723Y73551D01*
X153576Y71877D01*
X154157Y70090D01*
X154358Y68817D01*
X144035Y68817D01*
G37*
%LPD*%
%LPC*%
G36*
X365642Y114129D02*
X365642Y114129D01*
X365843Y115402D01*
X366424Y117189D01*
X367277Y118863D01*
X368382Y120384D01*
X369710Y121712D01*
X371231Y122817D01*
X372905Y123670D01*
X374692Y124251D01*
X375965Y124452D01*
X375965Y114129D01*
X365642Y114129D01*
G37*
%LPD*%
%LPC*%
G36*
X379011Y111083D02*
X379011Y111083D01*
X389334Y111083D01*
X389133Y109810D01*
X388552Y108023D01*
X387699Y106349D01*
X386594Y104828D01*
X385266Y103500D01*
X383745Y102395D01*
X382071Y101542D01*
X380284Y100961D01*
X379011Y100760D01*
X379011Y111083D01*
G37*
%LPD*%
%LPC*%
G36*
X130666Y68817D02*
X130666Y68817D01*
X130867Y70090D01*
X131448Y71877D01*
X132301Y73551D01*
X133406Y75072D01*
X134734Y76400D01*
X136255Y77505D01*
X137929Y78358D01*
X139716Y78939D01*
X140989Y79140D01*
X140989Y68817D01*
X130666Y68817D01*
G37*
%LPD*%
%LPC*%
G36*
X144035Y65771D02*
X144035Y65771D01*
X154358Y65771D01*
X154157Y64498D01*
X153576Y62711D01*
X152723Y61037D01*
X151618Y59516D01*
X150290Y58188D01*
X148769Y57083D01*
X147095Y56230D01*
X145308Y55649D01*
X144035Y55448D01*
X144035Y65771D01*
G37*
%LPD*%
%LPC*%
G36*
X374692Y100961D02*
X374692Y100961D01*
X372905Y101542D01*
X371231Y102395D01*
X369710Y103500D01*
X368382Y104828D01*
X367277Y106349D01*
X366424Y108023D01*
X365843Y109810D01*
X365642Y111083D01*
X375965Y111083D01*
X375965Y100760D01*
X374692Y100961D01*
G37*
%LPD*%
%LPC*%
G36*
X139716Y55649D02*
X139716Y55649D01*
X137929Y56230D01*
X136255Y57083D01*
X134734Y58188D01*
X133406Y59516D01*
X132301Y61037D01*
X131448Y62711D01*
X130867Y64498D01*
X130666Y65771D01*
X140989Y65771D01*
X140989Y55448D01*
X139716Y55649D01*
G37*
%LPD*%
%LPC*%
G36*
X431423Y152923D02*
X431423Y152923D01*
X431423Y162323D01*
X434424Y162323D01*
X440823Y155924D01*
X440823Y152923D01*
X431423Y152923D01*
G37*
%LPD*%
%LPC*%
G36*
X206723Y141523D02*
X206723Y141523D01*
X206723Y150923D01*
X209724Y150923D01*
X216123Y144524D01*
X216123Y141523D01*
X206723Y141523D01*
G37*
%LPD*%
%LPC*%
G36*
X358977Y152923D02*
X358977Y152923D01*
X358977Y155924D01*
X365376Y162323D01*
X368377Y162323D01*
X368377Y152923D01*
X358977Y152923D01*
G37*
%LPD*%
%LPC*%
G36*
X431423Y140477D02*
X431423Y140477D01*
X431423Y149877D01*
X440823Y149877D01*
X440823Y146876D01*
X434424Y140477D01*
X431423Y140477D01*
G37*
%LPD*%
%LPC*%
G36*
X206723Y129077D02*
X206723Y129077D01*
X206723Y138477D01*
X216123Y138477D01*
X216123Y135476D01*
X209724Y129077D01*
X206723Y129077D01*
G37*
%LPD*%
%LPC*%
G36*
X135023Y152323D02*
X135023Y152323D01*
X135023Y160332D01*
X135760Y160215D01*
X137205Y159746D01*
X138559Y159056D01*
X139788Y158163D01*
X140863Y157088D01*
X141756Y155859D01*
X142446Y154505D01*
X142915Y153060D01*
X143032Y152323D01*
X135023Y152323D01*
G37*
%LPD*%
%LPC*%
G36*
X135023Y149277D02*
X135023Y149277D01*
X143032Y149277D01*
X142915Y148540D01*
X142446Y147095D01*
X141756Y145741D01*
X140863Y144512D01*
X139788Y143437D01*
X138559Y142544D01*
X137205Y141854D01*
X135760Y141385D01*
X135023Y141268D01*
X135023Y149277D01*
G37*
%LPD*%
%LPC*%
G36*
X377487Y112605D02*
X377487Y112605D01*
X377487Y112607D01*
X377489Y112607D01*
X377489Y112605D01*
X377487Y112605D01*
G37*
%LPD*%
%LPC*%
G36*
X142511Y67293D02*
X142511Y67293D01*
X142511Y67295D01*
X142513Y67295D01*
X142513Y67293D01*
X142511Y67293D01*
G37*
%LPD*%
D10*
X429900Y151400D03*
X409900Y151400D03*
X389900Y151400D03*
X369900Y151400D03*
X324800Y151200D03*
X304800Y151200D03*
X284800Y151200D03*
X264800Y151200D03*
D11*
X185200Y140000D03*
X205200Y140000D03*
D12*
X142512Y67294D03*
X77488Y67294D03*
X142512Y112506D03*
X77488Y112506D03*
X377488Y112606D03*
X442512Y112606D03*
X377488Y67394D03*
X442512Y67394D03*
D13*
X133500Y150800D03*
X113500Y150800D03*
X93500Y150800D03*
D14*
X41000Y122000D03*
X41000Y96600D03*
X41000Y147400D03*
D15*
X231000Y77000D03*
D16*
X234000Y77000D01*
X249000Y92000D01*
X249000Y101000D01*
X259000Y111000D01*
X309000Y111000D02*
X317000Y119000D01*
D15*
X317000Y119000D03*
D16*
X309000Y111000D02*
X259000Y111000D01*
D15*
X313000Y88000D03*
D16*
X351900Y126900D01*
X354000Y126900D01*
D15*
X354000Y126900D03*
X203900Y106100D03*
D16*
X214000Y116200D01*
X394500Y136000D02*
X409900Y151400D01*
X304200Y116200D02*
X214000Y116200D01*
X304200Y116200D02*
X324000Y136000D01*
X394500Y136000D01*
D15*
X410100Y89500D03*
X300500Y81000D03*
X214700Y98900D03*
X202400Y40300D03*
M02*
