M48
;GenerationSoftware,Autodesk,EAGLE,8.6.0*%
;CreationDate,2018-03-03T07:27:46Z*%
FMAT,2
ICI,OFF
METRIC,TZ,000.000
T4C0.350
T3C0.800
T2C0.813
T1C1.016
%
G90
M71
T1
X44251Y11261
X37749Y11261
X7749Y11251
X14251Y11251
X7749Y6729
X14251Y6729
X37749Y6739
X44251Y6739
T2
X26480Y15120
X20520Y14000
X18520Y14000
X42990Y15140
X40990Y15140
X38990Y15140
X36990Y15140
X32480Y15120
X30480Y15120
X28480Y15120
T3
X4100Y14740
X13350Y15080
X11350Y15080
X9350Y15080
X4100Y12200
X4100Y9660
T4
X31700Y11900
X20240Y4030
X21470Y9890
X30050Y8100
X41010Y8950
X20390Y10610
X35400Y12690
X31300Y8800
X23100Y7700
M30