G04 EAGLE Gerber X2 export*
G04 #@! %TF.Part,Single*
G04 #@! %TF.FileFunction,Legend,Top,1*
G04 #@! %TF.FilePolarity,Positive*
G04 #@! %TF.GenerationSoftware,Autodesk,EAGLE,8.6.0*
G04 #@! %TF.CreationDate,2018-03-03T07:27:46Z*
G75*
%MOMM*%
%FSLAX34Y34*%
%LPD*%
%AMOC8*
5,1,8,0,0,1.08239X$1,22.5*%
G01*
%ADD10C,0.127000*%
%ADD11C,0.101600*%
%ADD12C,0.203200*%
%ADD13C,0.152400*%
%ADD14C,0.025400*%
%ADD15R,0.508000X0.508000*%
%ADD16C,0.177800*%


D10*
X449400Y168400D02*
X419400Y168400D01*
X380400Y168400D01*
X350400Y168400D01*
X350400Y123400D02*
X449400Y123400D01*
X350400Y123400D02*
X350400Y145400D01*
X350400Y154400D01*
X350400Y168400D01*
X449400Y145400D02*
X449400Y123400D01*
X449400Y145400D02*
X449400Y154400D01*
X449400Y168400D01*
X443400Y129400D02*
X356400Y129400D01*
X443400Y129400D02*
X443400Y145400D01*
X443400Y154400D01*
X443400Y162400D01*
X419400Y162400D01*
X356400Y145400D02*
X356400Y129400D01*
X356400Y145400D02*
X356400Y154400D01*
X356400Y162400D01*
X443400Y154400D02*
X449400Y154400D01*
X449400Y145400D02*
X443400Y145400D01*
X356400Y145400D02*
X350400Y145400D01*
X350400Y154400D02*
X356400Y154400D01*
X419400Y162400D02*
X419400Y168400D01*
X380400Y168400D02*
X380400Y162400D01*
X356400Y162400D01*
D11*
X432021Y115891D02*
X432021Y104207D01*
X432021Y115891D02*
X435267Y115891D01*
X435380Y115889D01*
X435493Y115883D01*
X435606Y115873D01*
X435719Y115859D01*
X435831Y115842D01*
X435942Y115820D01*
X436052Y115795D01*
X436162Y115765D01*
X436270Y115732D01*
X436377Y115695D01*
X436483Y115655D01*
X436587Y115610D01*
X436690Y115562D01*
X436791Y115511D01*
X436890Y115456D01*
X436987Y115398D01*
X437082Y115336D01*
X437175Y115271D01*
X437265Y115203D01*
X437353Y115132D01*
X437439Y115057D01*
X437522Y114980D01*
X437602Y114900D01*
X437679Y114817D01*
X437754Y114731D01*
X437825Y114643D01*
X437893Y114553D01*
X437958Y114460D01*
X438020Y114365D01*
X438078Y114268D01*
X438133Y114169D01*
X438184Y114068D01*
X438232Y113965D01*
X438277Y113861D01*
X438317Y113755D01*
X438354Y113648D01*
X438387Y113540D01*
X438417Y113430D01*
X438442Y113320D01*
X438464Y113209D01*
X438481Y113097D01*
X438495Y112984D01*
X438505Y112871D01*
X438511Y112758D01*
X438513Y112645D01*
X438511Y112532D01*
X438505Y112419D01*
X438495Y112306D01*
X438481Y112193D01*
X438464Y112081D01*
X438442Y111970D01*
X438417Y111860D01*
X438387Y111750D01*
X438354Y111642D01*
X438317Y111535D01*
X438277Y111429D01*
X438232Y111325D01*
X438184Y111222D01*
X438133Y111121D01*
X438078Y111022D01*
X438020Y110925D01*
X437958Y110830D01*
X437893Y110737D01*
X437825Y110647D01*
X437754Y110559D01*
X437679Y110473D01*
X437602Y110390D01*
X437522Y110310D01*
X437439Y110233D01*
X437353Y110158D01*
X437265Y110087D01*
X437175Y110019D01*
X437082Y109954D01*
X436987Y109892D01*
X436890Y109834D01*
X436791Y109779D01*
X436690Y109728D01*
X436587Y109680D01*
X436483Y109635D01*
X436377Y109595D01*
X436270Y109558D01*
X436162Y109525D01*
X436052Y109495D01*
X435942Y109470D01*
X435831Y109448D01*
X435719Y109431D01*
X435606Y109417D01*
X435493Y109407D01*
X435380Y109401D01*
X435267Y109399D01*
X435267Y109400D02*
X432021Y109400D01*
X442901Y113295D02*
X446146Y115891D01*
X446146Y104207D01*
X442901Y104207D02*
X449392Y104207D01*
X367145Y185891D02*
X363900Y183295D01*
X367145Y185891D02*
X367145Y174207D01*
X363900Y174207D02*
X370391Y174207D01*
D10*
X344300Y168200D02*
X314300Y168200D01*
X275300Y168200D01*
X245300Y168200D01*
X245300Y123200D02*
X344300Y123200D01*
X245300Y123200D02*
X245300Y145200D01*
X245300Y154200D01*
X245300Y168200D01*
X344300Y145200D02*
X344300Y123200D01*
X344300Y145200D02*
X344300Y154200D01*
X344300Y168200D01*
X338300Y129200D02*
X251300Y129200D01*
X338300Y129200D02*
X338300Y145200D01*
X338300Y154200D01*
X338300Y162200D01*
X314300Y162200D01*
X251300Y145200D02*
X251300Y129200D01*
X251300Y145200D02*
X251300Y154200D01*
X251300Y162200D01*
X338300Y154200D02*
X344300Y154200D01*
X344300Y145200D02*
X338300Y145200D01*
X251300Y145200D02*
X245300Y145200D01*
X245300Y154200D02*
X251300Y154200D01*
X314300Y162200D02*
X314300Y168200D01*
X275300Y168200D02*
X275300Y162200D01*
X251300Y162200D01*
D11*
X326921Y115691D02*
X326921Y104007D01*
X326921Y115691D02*
X330167Y115691D01*
X330280Y115689D01*
X330393Y115683D01*
X330506Y115673D01*
X330619Y115659D01*
X330731Y115642D01*
X330842Y115620D01*
X330952Y115595D01*
X331062Y115565D01*
X331170Y115532D01*
X331277Y115495D01*
X331383Y115455D01*
X331487Y115410D01*
X331590Y115362D01*
X331691Y115311D01*
X331790Y115256D01*
X331887Y115198D01*
X331982Y115136D01*
X332075Y115071D01*
X332165Y115003D01*
X332253Y114932D01*
X332339Y114857D01*
X332422Y114780D01*
X332502Y114700D01*
X332579Y114617D01*
X332654Y114531D01*
X332725Y114443D01*
X332793Y114353D01*
X332858Y114260D01*
X332920Y114165D01*
X332978Y114068D01*
X333033Y113969D01*
X333084Y113868D01*
X333132Y113765D01*
X333177Y113661D01*
X333217Y113555D01*
X333254Y113448D01*
X333287Y113340D01*
X333317Y113230D01*
X333342Y113120D01*
X333364Y113009D01*
X333381Y112897D01*
X333395Y112784D01*
X333405Y112671D01*
X333411Y112558D01*
X333413Y112445D01*
X333411Y112332D01*
X333405Y112219D01*
X333395Y112106D01*
X333381Y111993D01*
X333364Y111881D01*
X333342Y111770D01*
X333317Y111660D01*
X333287Y111550D01*
X333254Y111442D01*
X333217Y111335D01*
X333177Y111229D01*
X333132Y111125D01*
X333084Y111022D01*
X333033Y110921D01*
X332978Y110822D01*
X332920Y110725D01*
X332858Y110630D01*
X332793Y110537D01*
X332725Y110447D01*
X332654Y110359D01*
X332579Y110273D01*
X332502Y110190D01*
X332422Y110110D01*
X332339Y110033D01*
X332253Y109958D01*
X332165Y109887D01*
X332075Y109819D01*
X331982Y109754D01*
X331887Y109692D01*
X331790Y109634D01*
X331691Y109579D01*
X331590Y109528D01*
X331487Y109480D01*
X331383Y109435D01*
X331277Y109395D01*
X331170Y109358D01*
X331062Y109325D01*
X330952Y109295D01*
X330842Y109270D01*
X330731Y109248D01*
X330619Y109231D01*
X330506Y109217D01*
X330393Y109207D01*
X330280Y109201D01*
X330167Y109199D01*
X330167Y109200D02*
X326921Y109200D01*
X341371Y115691D02*
X341478Y115689D01*
X341584Y115683D01*
X341690Y115673D01*
X341796Y115660D01*
X341902Y115642D01*
X342006Y115621D01*
X342110Y115596D01*
X342213Y115567D01*
X342314Y115535D01*
X342414Y115498D01*
X342513Y115458D01*
X342611Y115415D01*
X342707Y115368D01*
X342801Y115317D01*
X342893Y115263D01*
X342983Y115206D01*
X343071Y115146D01*
X343156Y115082D01*
X343239Y115015D01*
X343320Y114945D01*
X343398Y114873D01*
X343474Y114797D01*
X343546Y114719D01*
X343616Y114638D01*
X343683Y114555D01*
X343747Y114470D01*
X343807Y114382D01*
X343864Y114292D01*
X343918Y114200D01*
X343969Y114106D01*
X344016Y114010D01*
X344059Y113912D01*
X344099Y113813D01*
X344136Y113713D01*
X344168Y113612D01*
X344197Y113509D01*
X344222Y113405D01*
X344243Y113301D01*
X344261Y113195D01*
X344274Y113089D01*
X344284Y112983D01*
X344290Y112877D01*
X344292Y112770D01*
X341371Y115691D02*
X341250Y115689D01*
X341129Y115683D01*
X341009Y115673D01*
X340888Y115660D01*
X340769Y115642D01*
X340649Y115621D01*
X340531Y115596D01*
X340414Y115567D01*
X340297Y115534D01*
X340182Y115498D01*
X340068Y115457D01*
X339955Y115414D01*
X339843Y115366D01*
X339734Y115315D01*
X339626Y115260D01*
X339519Y115202D01*
X339415Y115141D01*
X339313Y115076D01*
X339213Y115008D01*
X339115Y114937D01*
X339019Y114863D01*
X338926Y114786D01*
X338836Y114705D01*
X338748Y114622D01*
X338663Y114536D01*
X338580Y114447D01*
X338501Y114356D01*
X338424Y114262D01*
X338351Y114166D01*
X338281Y114068D01*
X338214Y113967D01*
X338150Y113864D01*
X338090Y113759D01*
X338033Y113652D01*
X337979Y113544D01*
X337929Y113434D01*
X337883Y113322D01*
X337840Y113209D01*
X337801Y113094D01*
X343319Y110498D02*
X343398Y110575D01*
X343474Y110656D01*
X343547Y110739D01*
X343617Y110824D01*
X343684Y110912D01*
X343748Y111002D01*
X343808Y111094D01*
X343865Y111189D01*
X343919Y111285D01*
X343970Y111383D01*
X344017Y111483D01*
X344061Y111585D01*
X344101Y111688D01*
X344137Y111792D01*
X344169Y111898D01*
X344198Y112004D01*
X344223Y112112D01*
X344245Y112220D01*
X344262Y112330D01*
X344276Y112439D01*
X344285Y112549D01*
X344291Y112660D01*
X344293Y112770D01*
X343318Y110498D02*
X337801Y104007D01*
X344292Y104007D01*
X262045Y185691D02*
X258800Y183095D01*
X262045Y185691D02*
X262045Y174007D01*
X258800Y174007D02*
X265291Y174007D01*
D10*
X191200Y123000D02*
X165700Y123000D01*
X191200Y123000D02*
X199200Y123000D01*
X224700Y123000D01*
X224700Y168000D02*
X165700Y168000D01*
X224700Y168000D02*
X224700Y146000D01*
X224700Y137000D01*
X224700Y123000D01*
X165700Y146000D02*
X165700Y168000D01*
X165700Y146000D02*
X165700Y137000D01*
X165700Y123000D01*
X171700Y162000D02*
X218700Y162000D01*
X171700Y162000D02*
X171700Y146000D01*
X171700Y137000D01*
X171700Y129000D01*
X191200Y129000D01*
X218700Y146000D02*
X218700Y162000D01*
X218700Y146000D02*
X218700Y137000D01*
X218700Y129000D01*
X171700Y137000D02*
X165700Y137000D01*
X165700Y146000D02*
X171700Y146000D01*
X218700Y146000D02*
X224700Y146000D01*
X224700Y137000D02*
X218700Y137000D01*
X218700Y129000D02*
X199200Y129000D01*
X199200Y123000D01*
X191200Y123000D02*
X191200Y129000D01*
D11*
X165708Y175509D02*
X165708Y187193D01*
X168954Y187193D01*
X169067Y187191D01*
X169180Y187185D01*
X169293Y187175D01*
X169406Y187161D01*
X169518Y187144D01*
X169629Y187122D01*
X169739Y187097D01*
X169849Y187067D01*
X169957Y187034D01*
X170064Y186997D01*
X170170Y186957D01*
X170274Y186912D01*
X170377Y186864D01*
X170478Y186813D01*
X170577Y186758D01*
X170674Y186700D01*
X170769Y186638D01*
X170862Y186573D01*
X170952Y186505D01*
X171040Y186434D01*
X171126Y186359D01*
X171209Y186282D01*
X171289Y186202D01*
X171366Y186119D01*
X171441Y186033D01*
X171512Y185945D01*
X171580Y185855D01*
X171645Y185762D01*
X171707Y185667D01*
X171765Y185570D01*
X171820Y185471D01*
X171871Y185370D01*
X171919Y185267D01*
X171964Y185163D01*
X172004Y185057D01*
X172041Y184950D01*
X172074Y184842D01*
X172104Y184732D01*
X172129Y184622D01*
X172151Y184511D01*
X172168Y184399D01*
X172182Y184286D01*
X172192Y184173D01*
X172198Y184060D01*
X172200Y183947D01*
X172198Y183834D01*
X172192Y183721D01*
X172182Y183608D01*
X172168Y183495D01*
X172151Y183383D01*
X172129Y183272D01*
X172104Y183162D01*
X172074Y183052D01*
X172041Y182944D01*
X172004Y182837D01*
X171964Y182731D01*
X171919Y182627D01*
X171871Y182524D01*
X171820Y182423D01*
X171765Y182324D01*
X171707Y182227D01*
X171645Y182132D01*
X171580Y182039D01*
X171512Y181949D01*
X171441Y181861D01*
X171366Y181775D01*
X171289Y181692D01*
X171209Y181612D01*
X171126Y181535D01*
X171040Y181460D01*
X170952Y181389D01*
X170862Y181321D01*
X170769Y181256D01*
X170674Y181194D01*
X170577Y181136D01*
X170478Y181081D01*
X170377Y181030D01*
X170274Y180982D01*
X170170Y180937D01*
X170064Y180897D01*
X169957Y180860D01*
X169849Y180827D01*
X169739Y180797D01*
X169629Y180772D01*
X169518Y180750D01*
X169406Y180733D01*
X169293Y180719D01*
X169180Y180709D01*
X169067Y180703D01*
X168954Y180701D01*
X168954Y180702D02*
X165708Y180702D01*
X176588Y175509D02*
X179833Y175509D01*
X179946Y175511D01*
X180059Y175517D01*
X180172Y175527D01*
X180285Y175541D01*
X180397Y175558D01*
X180508Y175580D01*
X180618Y175605D01*
X180728Y175635D01*
X180836Y175668D01*
X180943Y175705D01*
X181049Y175745D01*
X181153Y175790D01*
X181256Y175838D01*
X181357Y175889D01*
X181456Y175944D01*
X181553Y176002D01*
X181648Y176064D01*
X181741Y176129D01*
X181831Y176197D01*
X181919Y176268D01*
X182005Y176343D01*
X182088Y176420D01*
X182168Y176500D01*
X182245Y176583D01*
X182320Y176669D01*
X182391Y176757D01*
X182459Y176847D01*
X182524Y176940D01*
X182586Y177035D01*
X182644Y177132D01*
X182699Y177231D01*
X182750Y177332D01*
X182798Y177435D01*
X182843Y177539D01*
X182883Y177645D01*
X182920Y177752D01*
X182953Y177860D01*
X182983Y177970D01*
X183008Y178080D01*
X183030Y178191D01*
X183047Y178303D01*
X183061Y178416D01*
X183071Y178529D01*
X183077Y178642D01*
X183079Y178755D01*
X183077Y178868D01*
X183071Y178981D01*
X183061Y179094D01*
X183047Y179207D01*
X183030Y179319D01*
X183008Y179430D01*
X182983Y179540D01*
X182953Y179650D01*
X182920Y179758D01*
X182883Y179865D01*
X182843Y179971D01*
X182798Y180075D01*
X182750Y180178D01*
X182699Y180279D01*
X182644Y180378D01*
X182586Y180475D01*
X182524Y180570D01*
X182459Y180663D01*
X182391Y180753D01*
X182320Y180841D01*
X182245Y180927D01*
X182168Y181010D01*
X182088Y181090D01*
X182005Y181167D01*
X181919Y181242D01*
X181831Y181313D01*
X181741Y181381D01*
X181648Y181446D01*
X181553Y181508D01*
X181456Y181566D01*
X181357Y181621D01*
X181256Y181672D01*
X181153Y181720D01*
X181049Y181765D01*
X180943Y181805D01*
X180836Y181842D01*
X180728Y181875D01*
X180618Y181905D01*
X180508Y181930D01*
X180397Y181952D01*
X180285Y181969D01*
X180172Y181983D01*
X180059Y181993D01*
X179946Y181999D01*
X179833Y182001D01*
X180482Y187193D02*
X176588Y187193D01*
X180482Y187193D02*
X180583Y187191D01*
X180683Y187185D01*
X180783Y187175D01*
X180883Y187162D01*
X180982Y187144D01*
X181081Y187123D01*
X181178Y187098D01*
X181275Y187069D01*
X181370Y187036D01*
X181464Y187000D01*
X181556Y186960D01*
X181647Y186917D01*
X181736Y186870D01*
X181823Y186820D01*
X181909Y186766D01*
X181992Y186709D01*
X182072Y186649D01*
X182151Y186586D01*
X182227Y186519D01*
X182300Y186450D01*
X182370Y186378D01*
X182438Y186304D01*
X182503Y186227D01*
X182564Y186147D01*
X182623Y186065D01*
X182678Y185981D01*
X182730Y185895D01*
X182779Y185807D01*
X182824Y185717D01*
X182866Y185625D01*
X182904Y185532D01*
X182938Y185437D01*
X182969Y185342D01*
X182996Y185245D01*
X183019Y185147D01*
X183039Y185048D01*
X183054Y184948D01*
X183066Y184848D01*
X183074Y184748D01*
X183078Y184647D01*
X183078Y184547D01*
X183074Y184446D01*
X183066Y184346D01*
X183054Y184246D01*
X183039Y184146D01*
X183019Y184047D01*
X182996Y183949D01*
X182969Y183852D01*
X182938Y183757D01*
X182904Y183662D01*
X182866Y183569D01*
X182824Y183477D01*
X182779Y183387D01*
X182730Y183299D01*
X182678Y183213D01*
X182623Y183129D01*
X182564Y183047D01*
X182503Y182967D01*
X182438Y182890D01*
X182370Y182816D01*
X182300Y182744D01*
X182227Y182675D01*
X182151Y182608D01*
X182072Y182545D01*
X181992Y182485D01*
X181909Y182428D01*
X181823Y182374D01*
X181736Y182324D01*
X181647Y182277D01*
X181556Y182234D01*
X181464Y182194D01*
X181370Y182158D01*
X181275Y182125D01*
X181178Y182096D01*
X181081Y182071D01*
X180982Y182050D01*
X180883Y182032D01*
X180783Y182019D01*
X180683Y182009D01*
X180583Y182003D01*
X180482Y182001D01*
X180482Y182000D02*
X177886Y182000D01*
X207955Y117193D02*
X204709Y114597D01*
X207955Y117193D02*
X207955Y105509D01*
X211200Y105509D02*
X204709Y105509D01*
D10*
X192951Y78029D02*
X188125Y78029D01*
X188125Y79370D01*
X188127Y79440D01*
X188132Y79510D01*
X188142Y79580D01*
X188154Y79649D01*
X188171Y79717D01*
X188191Y79784D01*
X188214Y79851D01*
X188241Y79915D01*
X188271Y79979D01*
X188305Y80041D01*
X188341Y80100D01*
X188381Y80158D01*
X188424Y80214D01*
X188469Y80267D01*
X188518Y80318D01*
X188569Y80367D01*
X188622Y80412D01*
X188678Y80455D01*
X188736Y80495D01*
X188796Y80531D01*
X188857Y80565D01*
X188921Y80595D01*
X188985Y80622D01*
X189052Y80645D01*
X189119Y80665D01*
X189187Y80682D01*
X189256Y80694D01*
X189326Y80704D01*
X189396Y80709D01*
X189466Y80711D01*
X189466Y80710D02*
X191610Y80710D01*
X191610Y80711D02*
X191680Y80709D01*
X191750Y80704D01*
X191820Y80694D01*
X191889Y80682D01*
X191957Y80665D01*
X192024Y80645D01*
X192091Y80622D01*
X192155Y80595D01*
X192219Y80565D01*
X192281Y80531D01*
X192340Y80495D01*
X192398Y80455D01*
X192454Y80412D01*
X192507Y80367D01*
X192558Y80318D01*
X192607Y80267D01*
X192652Y80214D01*
X192695Y80158D01*
X192735Y80100D01*
X192771Y80040D01*
X192805Y79979D01*
X192835Y79915D01*
X192862Y79851D01*
X192885Y79784D01*
X192905Y79717D01*
X192922Y79649D01*
X192934Y79580D01*
X192944Y79510D01*
X192949Y79440D01*
X192951Y79370D01*
X192951Y78029D01*
X192951Y83945D02*
X188125Y83945D01*
X188125Y85286D01*
X188127Y85357D01*
X188133Y85429D01*
X188142Y85499D01*
X188155Y85569D01*
X188172Y85639D01*
X188193Y85707D01*
X188217Y85774D01*
X188245Y85840D01*
X188276Y85904D01*
X188311Y85967D01*
X188349Y86027D01*
X188390Y86086D01*
X188434Y86142D01*
X188481Y86196D01*
X188530Y86247D01*
X188583Y86295D01*
X188638Y86341D01*
X188695Y86383D01*
X188755Y86423D01*
X188816Y86459D01*
X188880Y86492D01*
X188945Y86521D01*
X189011Y86547D01*
X189079Y86570D01*
X189148Y86589D01*
X189218Y86604D01*
X189288Y86615D01*
X189359Y86623D01*
X189430Y86627D01*
X189502Y86627D01*
X189573Y86623D01*
X189644Y86615D01*
X189714Y86604D01*
X189784Y86589D01*
X189853Y86570D01*
X189921Y86547D01*
X189987Y86521D01*
X190052Y86492D01*
X190116Y86459D01*
X190177Y86423D01*
X190237Y86383D01*
X190294Y86341D01*
X190349Y86295D01*
X190402Y86247D01*
X190451Y86196D01*
X190498Y86142D01*
X190542Y86086D01*
X190583Y86027D01*
X190621Y85967D01*
X190656Y85904D01*
X190687Y85840D01*
X190715Y85774D01*
X190739Y85707D01*
X190760Y85639D01*
X190777Y85569D01*
X190790Y85499D01*
X190799Y85429D01*
X190805Y85357D01*
X190807Y85286D01*
X190806Y85286D02*
X190806Y83945D01*
X190806Y85554D02*
X192951Y86626D01*
X192951Y90793D02*
X192949Y90858D01*
X192943Y90922D01*
X192933Y90986D01*
X192920Y91050D01*
X192902Y91112D01*
X192881Y91173D01*
X192857Y91233D01*
X192828Y91291D01*
X192796Y91348D01*
X192761Y91402D01*
X192723Y91454D01*
X192681Y91504D01*
X192637Y91551D01*
X192590Y91595D01*
X192540Y91637D01*
X192488Y91675D01*
X192434Y91710D01*
X192377Y91742D01*
X192319Y91771D01*
X192259Y91795D01*
X192198Y91816D01*
X192136Y91834D01*
X192072Y91847D01*
X192008Y91857D01*
X191944Y91863D01*
X191879Y91865D01*
X192951Y90793D02*
X192949Y90699D01*
X192943Y90605D01*
X192933Y90511D01*
X192920Y90418D01*
X192902Y90326D01*
X192881Y90234D01*
X192856Y90143D01*
X192827Y90053D01*
X192794Y89965D01*
X192758Y89878D01*
X192718Y89793D01*
X192675Y89709D01*
X192628Y89628D01*
X192578Y89548D01*
X192525Y89470D01*
X192468Y89395D01*
X192409Y89322D01*
X192346Y89252D01*
X192281Y89184D01*
X189197Y89319D02*
X189132Y89321D01*
X189068Y89327D01*
X189004Y89337D01*
X188940Y89350D01*
X188878Y89368D01*
X188817Y89389D01*
X188757Y89413D01*
X188699Y89442D01*
X188642Y89474D01*
X188588Y89509D01*
X188536Y89547D01*
X188486Y89589D01*
X188439Y89633D01*
X188395Y89680D01*
X188353Y89730D01*
X188315Y89782D01*
X188280Y89836D01*
X188248Y89893D01*
X188219Y89951D01*
X188195Y90011D01*
X188174Y90072D01*
X188156Y90134D01*
X188143Y90198D01*
X188133Y90262D01*
X188127Y90326D01*
X188125Y90391D01*
X188127Y90477D01*
X188132Y90563D01*
X188142Y90649D01*
X188155Y90734D01*
X188171Y90819D01*
X188191Y90903D01*
X188215Y90986D01*
X188242Y91068D01*
X188273Y91148D01*
X188307Y91228D01*
X188345Y91305D01*
X188386Y91381D01*
X188430Y91455D01*
X188477Y91528D01*
X188527Y91598D01*
X190135Y89855D02*
X190102Y89802D01*
X190065Y89751D01*
X190026Y89702D01*
X189984Y89655D01*
X189939Y89611D01*
X189892Y89570D01*
X189843Y89531D01*
X189791Y89495D01*
X189737Y89462D01*
X189682Y89433D01*
X189625Y89407D01*
X189566Y89384D01*
X189507Y89364D01*
X189446Y89348D01*
X189385Y89335D01*
X189322Y89326D01*
X189260Y89321D01*
X189197Y89319D01*
X190941Y91330D02*
X190974Y91383D01*
X191011Y91434D01*
X191050Y91483D01*
X191092Y91530D01*
X191137Y91574D01*
X191184Y91615D01*
X191233Y91654D01*
X191285Y91690D01*
X191339Y91723D01*
X191394Y91752D01*
X191451Y91778D01*
X191510Y91801D01*
X191569Y91821D01*
X191630Y91837D01*
X191691Y91850D01*
X191754Y91859D01*
X191816Y91864D01*
X191879Y91866D01*
X190940Y91330D02*
X190136Y89855D01*
X188125Y95463D02*
X192951Y95463D01*
X188125Y94123D02*
X188125Y96804D01*
X188125Y99490D02*
X192951Y99490D01*
X188125Y99490D02*
X188125Y100830D01*
X188127Y100901D01*
X188133Y100973D01*
X188142Y101043D01*
X188155Y101113D01*
X188172Y101183D01*
X188193Y101251D01*
X188217Y101318D01*
X188245Y101384D01*
X188276Y101448D01*
X188311Y101511D01*
X188349Y101571D01*
X188390Y101630D01*
X188434Y101686D01*
X188481Y101740D01*
X188530Y101791D01*
X188583Y101839D01*
X188638Y101885D01*
X188695Y101927D01*
X188755Y101967D01*
X188816Y102003D01*
X188880Y102036D01*
X188945Y102065D01*
X189011Y102091D01*
X189079Y102114D01*
X189148Y102133D01*
X189218Y102148D01*
X189288Y102159D01*
X189359Y102167D01*
X189430Y102171D01*
X189502Y102171D01*
X189573Y102167D01*
X189644Y102159D01*
X189714Y102148D01*
X189784Y102133D01*
X189853Y102114D01*
X189921Y102091D01*
X189987Y102065D01*
X190052Y102036D01*
X190116Y102003D01*
X190177Y101967D01*
X190237Y101927D01*
X190294Y101885D01*
X190349Y101839D01*
X190402Y101791D01*
X190451Y101740D01*
X190498Y101686D01*
X190542Y101630D01*
X190583Y101571D01*
X190621Y101511D01*
X190656Y101448D01*
X190687Y101384D01*
X190715Y101318D01*
X190739Y101251D01*
X190760Y101183D01*
X190777Y101113D01*
X190790Y101043D01*
X190799Y100973D01*
X190805Y100901D01*
X190807Y100830D01*
X190806Y100830D02*
X190806Y99490D01*
X190806Y101098D02*
X192951Y102171D01*
X172851Y78335D02*
X168025Y78335D01*
X168025Y79675D01*
X168027Y79745D01*
X168032Y79815D01*
X168042Y79885D01*
X168054Y79954D01*
X168071Y80022D01*
X168091Y80089D01*
X168114Y80156D01*
X168141Y80220D01*
X168171Y80284D01*
X168205Y80346D01*
X168241Y80405D01*
X168281Y80463D01*
X168324Y80519D01*
X168369Y80572D01*
X168418Y80623D01*
X168469Y80672D01*
X168522Y80717D01*
X168578Y80760D01*
X168636Y80800D01*
X168696Y80836D01*
X168757Y80870D01*
X168821Y80900D01*
X168885Y80927D01*
X168952Y80950D01*
X169019Y80970D01*
X169087Y80987D01*
X169156Y80999D01*
X169226Y81009D01*
X169296Y81014D01*
X169366Y81016D01*
X171510Y81016D01*
X171510Y81017D02*
X171580Y81015D01*
X171650Y81010D01*
X171720Y81000D01*
X171789Y80988D01*
X171857Y80971D01*
X171924Y80951D01*
X171991Y80928D01*
X172055Y80901D01*
X172119Y80871D01*
X172181Y80837D01*
X172240Y80801D01*
X172298Y80761D01*
X172354Y80718D01*
X172407Y80673D01*
X172458Y80624D01*
X172507Y80573D01*
X172552Y80520D01*
X172595Y80464D01*
X172635Y80406D01*
X172671Y80346D01*
X172705Y80285D01*
X172735Y80221D01*
X172762Y80157D01*
X172785Y80090D01*
X172805Y80023D01*
X172822Y79955D01*
X172834Y79886D01*
X172844Y79816D01*
X172849Y79746D01*
X172851Y79676D01*
X172851Y79675D02*
X172851Y78335D01*
X172851Y84251D02*
X168025Y84251D01*
X168025Y85591D01*
X168027Y85662D01*
X168033Y85734D01*
X168042Y85804D01*
X168055Y85874D01*
X168072Y85944D01*
X168093Y86012D01*
X168117Y86079D01*
X168145Y86145D01*
X168176Y86209D01*
X168211Y86272D01*
X168249Y86332D01*
X168290Y86391D01*
X168334Y86447D01*
X168381Y86501D01*
X168430Y86552D01*
X168483Y86600D01*
X168538Y86646D01*
X168595Y86688D01*
X168655Y86728D01*
X168716Y86764D01*
X168780Y86797D01*
X168845Y86826D01*
X168911Y86852D01*
X168979Y86875D01*
X169048Y86894D01*
X169118Y86909D01*
X169188Y86920D01*
X169259Y86928D01*
X169330Y86932D01*
X169402Y86932D01*
X169473Y86928D01*
X169544Y86920D01*
X169614Y86909D01*
X169684Y86894D01*
X169753Y86875D01*
X169821Y86852D01*
X169887Y86826D01*
X169952Y86797D01*
X170016Y86764D01*
X170077Y86728D01*
X170137Y86688D01*
X170194Y86646D01*
X170249Y86600D01*
X170302Y86552D01*
X170351Y86501D01*
X170398Y86447D01*
X170442Y86391D01*
X170483Y86332D01*
X170521Y86272D01*
X170556Y86209D01*
X170587Y86145D01*
X170615Y86079D01*
X170639Y86012D01*
X170660Y85944D01*
X170677Y85874D01*
X170690Y85804D01*
X170699Y85734D01*
X170705Y85662D01*
X170707Y85591D01*
X170706Y85591D02*
X170706Y84251D01*
X170706Y85859D02*
X172851Y86932D01*
X172851Y91099D02*
X172849Y91164D01*
X172843Y91228D01*
X172833Y91292D01*
X172820Y91356D01*
X172802Y91418D01*
X172781Y91479D01*
X172757Y91539D01*
X172728Y91597D01*
X172696Y91654D01*
X172661Y91708D01*
X172623Y91760D01*
X172581Y91810D01*
X172537Y91857D01*
X172490Y91901D01*
X172440Y91943D01*
X172388Y91981D01*
X172334Y92016D01*
X172277Y92048D01*
X172219Y92077D01*
X172159Y92101D01*
X172098Y92122D01*
X172036Y92140D01*
X171972Y92153D01*
X171908Y92163D01*
X171844Y92169D01*
X171779Y92171D01*
X172851Y91099D02*
X172849Y91005D01*
X172843Y90911D01*
X172833Y90817D01*
X172820Y90724D01*
X172802Y90632D01*
X172781Y90540D01*
X172756Y90449D01*
X172727Y90359D01*
X172694Y90271D01*
X172658Y90184D01*
X172618Y90099D01*
X172575Y90015D01*
X172528Y89934D01*
X172478Y89854D01*
X172425Y89776D01*
X172368Y89701D01*
X172309Y89628D01*
X172246Y89558D01*
X172181Y89490D01*
X169097Y89625D02*
X169032Y89627D01*
X168968Y89633D01*
X168904Y89643D01*
X168840Y89656D01*
X168778Y89674D01*
X168717Y89695D01*
X168657Y89719D01*
X168599Y89748D01*
X168542Y89780D01*
X168488Y89815D01*
X168436Y89853D01*
X168386Y89895D01*
X168339Y89939D01*
X168295Y89986D01*
X168253Y90036D01*
X168215Y90088D01*
X168180Y90142D01*
X168148Y90199D01*
X168119Y90257D01*
X168095Y90317D01*
X168074Y90378D01*
X168056Y90440D01*
X168043Y90504D01*
X168033Y90568D01*
X168027Y90632D01*
X168025Y90697D01*
X168027Y90783D01*
X168032Y90869D01*
X168042Y90955D01*
X168055Y91040D01*
X168071Y91125D01*
X168091Y91209D01*
X168115Y91292D01*
X168142Y91374D01*
X168173Y91454D01*
X168207Y91534D01*
X168245Y91611D01*
X168286Y91687D01*
X168330Y91761D01*
X168377Y91834D01*
X168427Y91904D01*
X170035Y90161D02*
X170002Y90108D01*
X169965Y90057D01*
X169926Y90008D01*
X169884Y89961D01*
X169839Y89917D01*
X169792Y89876D01*
X169743Y89837D01*
X169691Y89801D01*
X169637Y89768D01*
X169582Y89739D01*
X169525Y89713D01*
X169466Y89690D01*
X169407Y89670D01*
X169346Y89654D01*
X169285Y89641D01*
X169222Y89632D01*
X169160Y89627D01*
X169097Y89625D01*
X170841Y91635D02*
X170874Y91688D01*
X170911Y91739D01*
X170950Y91788D01*
X170992Y91835D01*
X171037Y91879D01*
X171084Y91920D01*
X171133Y91959D01*
X171185Y91995D01*
X171239Y92028D01*
X171294Y92057D01*
X171351Y92083D01*
X171410Y92106D01*
X171469Y92126D01*
X171530Y92142D01*
X171591Y92155D01*
X171654Y92164D01*
X171716Y92169D01*
X171779Y92171D01*
X170840Y91635D02*
X170036Y90161D01*
X168025Y95769D02*
X172851Y95769D01*
X168025Y94428D02*
X168025Y97109D01*
X172851Y100593D02*
X172851Y101665D01*
X172851Y100593D02*
X172849Y100528D01*
X172843Y100464D01*
X172833Y100400D01*
X172820Y100336D01*
X172802Y100274D01*
X172781Y100213D01*
X172757Y100153D01*
X172728Y100095D01*
X172696Y100038D01*
X172661Y99984D01*
X172623Y99932D01*
X172581Y99882D01*
X172537Y99835D01*
X172490Y99791D01*
X172440Y99749D01*
X172388Y99711D01*
X172334Y99676D01*
X172277Y99644D01*
X172219Y99615D01*
X172159Y99591D01*
X172098Y99570D01*
X172036Y99552D01*
X171972Y99539D01*
X171908Y99529D01*
X171844Y99523D01*
X171779Y99521D01*
X171779Y99520D02*
X169097Y99520D01*
X169032Y99522D01*
X168968Y99528D01*
X168904Y99538D01*
X168840Y99551D01*
X168778Y99569D01*
X168717Y99590D01*
X168657Y99615D01*
X168598Y99643D01*
X168542Y99675D01*
X168487Y99710D01*
X168435Y99748D01*
X168385Y99790D01*
X168338Y99834D01*
X168294Y99881D01*
X168252Y99931D01*
X168214Y99983D01*
X168179Y100038D01*
X168147Y100094D01*
X168119Y100153D01*
X168094Y100212D01*
X168073Y100274D01*
X168055Y100336D01*
X168042Y100400D01*
X168032Y100464D01*
X168026Y100528D01*
X168024Y100593D01*
X168025Y100593D02*
X168025Y101665D01*
D12*
X131590Y59420D02*
X88410Y59420D01*
X88410Y120380D02*
X131590Y120380D01*
X79520Y100060D02*
X79520Y79920D01*
X140480Y79620D02*
X140480Y100060D01*
X92220Y89900D02*
X92225Y90336D01*
X92241Y90772D01*
X92268Y91208D01*
X92306Y91643D01*
X92354Y92076D01*
X92412Y92509D01*
X92482Y92940D01*
X92562Y93369D01*
X92652Y93796D01*
X92753Y94220D01*
X92864Y94642D01*
X92986Y95061D01*
X93117Y95477D01*
X93259Y95890D01*
X93411Y96299D01*
X93573Y96704D01*
X93745Y97105D01*
X93927Y97502D01*
X94118Y97894D01*
X94319Y98281D01*
X94530Y98664D01*
X94750Y99041D01*
X94979Y99412D01*
X95216Y99778D01*
X95463Y100138D01*
X95719Y100492D01*
X95983Y100839D01*
X96256Y101180D01*
X96537Y101513D01*
X96826Y101840D01*
X97123Y102160D01*
X97428Y102472D01*
X97740Y102777D01*
X98060Y103074D01*
X98387Y103363D01*
X98720Y103644D01*
X99061Y103917D01*
X99408Y104181D01*
X99762Y104437D01*
X100122Y104684D01*
X100488Y104921D01*
X100859Y105150D01*
X101236Y105370D01*
X101619Y105581D01*
X102006Y105782D01*
X102398Y105973D01*
X102795Y106155D01*
X103196Y106327D01*
X103601Y106489D01*
X104010Y106641D01*
X104423Y106783D01*
X104839Y106914D01*
X105258Y107036D01*
X105680Y107147D01*
X106104Y107248D01*
X106531Y107338D01*
X106960Y107418D01*
X107391Y107488D01*
X107824Y107546D01*
X108257Y107594D01*
X108692Y107632D01*
X109128Y107659D01*
X109564Y107675D01*
X110000Y107680D01*
X110436Y107675D01*
X110872Y107659D01*
X111308Y107632D01*
X111743Y107594D01*
X112176Y107546D01*
X112609Y107488D01*
X113040Y107418D01*
X113469Y107338D01*
X113896Y107248D01*
X114320Y107147D01*
X114742Y107036D01*
X115161Y106914D01*
X115577Y106783D01*
X115990Y106641D01*
X116399Y106489D01*
X116804Y106327D01*
X117205Y106155D01*
X117602Y105973D01*
X117994Y105782D01*
X118381Y105581D01*
X118764Y105370D01*
X119141Y105150D01*
X119512Y104921D01*
X119878Y104684D01*
X120238Y104437D01*
X120592Y104181D01*
X120939Y103917D01*
X121280Y103644D01*
X121613Y103363D01*
X121940Y103074D01*
X122260Y102777D01*
X122572Y102472D01*
X122877Y102160D01*
X123174Y101840D01*
X123463Y101513D01*
X123744Y101180D01*
X124017Y100839D01*
X124281Y100492D01*
X124537Y100138D01*
X124784Y99778D01*
X125021Y99412D01*
X125250Y99041D01*
X125470Y98664D01*
X125681Y98281D01*
X125882Y97894D01*
X126073Y97502D01*
X126255Y97105D01*
X126427Y96704D01*
X126589Y96299D01*
X126741Y95890D01*
X126883Y95477D01*
X127014Y95061D01*
X127136Y94642D01*
X127247Y94220D01*
X127348Y93796D01*
X127438Y93369D01*
X127518Y92940D01*
X127588Y92509D01*
X127646Y92076D01*
X127694Y91643D01*
X127732Y91208D01*
X127759Y90772D01*
X127775Y90336D01*
X127780Y89900D01*
X127775Y89464D01*
X127759Y89028D01*
X127732Y88592D01*
X127694Y88157D01*
X127646Y87724D01*
X127588Y87291D01*
X127518Y86860D01*
X127438Y86431D01*
X127348Y86004D01*
X127247Y85580D01*
X127136Y85158D01*
X127014Y84739D01*
X126883Y84323D01*
X126741Y83910D01*
X126589Y83501D01*
X126427Y83096D01*
X126255Y82695D01*
X126073Y82298D01*
X125882Y81906D01*
X125681Y81519D01*
X125470Y81136D01*
X125250Y80759D01*
X125021Y80388D01*
X124784Y80022D01*
X124537Y79662D01*
X124281Y79308D01*
X124017Y78961D01*
X123744Y78620D01*
X123463Y78287D01*
X123174Y77960D01*
X122877Y77640D01*
X122572Y77328D01*
X122260Y77023D01*
X121940Y76726D01*
X121613Y76437D01*
X121280Y76156D01*
X120939Y75883D01*
X120592Y75619D01*
X120238Y75363D01*
X119878Y75116D01*
X119512Y74879D01*
X119141Y74650D01*
X118764Y74430D01*
X118381Y74219D01*
X117994Y74018D01*
X117602Y73827D01*
X117205Y73645D01*
X116804Y73473D01*
X116399Y73311D01*
X115990Y73159D01*
X115577Y73017D01*
X115161Y72886D01*
X114742Y72764D01*
X114320Y72653D01*
X113896Y72552D01*
X113469Y72462D01*
X113040Y72382D01*
X112609Y72312D01*
X112176Y72254D01*
X111743Y72206D01*
X111308Y72168D01*
X110872Y72141D01*
X110436Y72125D01*
X110000Y72120D01*
X109564Y72125D01*
X109128Y72141D01*
X108692Y72168D01*
X108257Y72206D01*
X107824Y72254D01*
X107391Y72312D01*
X106960Y72382D01*
X106531Y72462D01*
X106104Y72552D01*
X105680Y72653D01*
X105258Y72764D01*
X104839Y72886D01*
X104423Y73017D01*
X104010Y73159D01*
X103601Y73311D01*
X103196Y73473D01*
X102795Y73645D01*
X102398Y73827D01*
X102006Y74018D01*
X101619Y74219D01*
X101236Y74430D01*
X100859Y74650D01*
X100488Y74879D01*
X100122Y75116D01*
X99762Y75363D01*
X99408Y75619D01*
X99061Y75883D01*
X98720Y76156D01*
X98387Y76437D01*
X98060Y76726D01*
X97740Y77023D01*
X97428Y77328D01*
X97123Y77640D01*
X96826Y77960D01*
X96537Y78287D01*
X96256Y78620D01*
X95983Y78961D01*
X95719Y79308D01*
X95463Y79662D01*
X95216Y80022D01*
X94979Y80388D01*
X94750Y80759D01*
X94530Y81136D01*
X94319Y81519D01*
X94118Y81906D01*
X93927Y82298D01*
X93745Y82695D01*
X93573Y83096D01*
X93411Y83501D01*
X93259Y83910D01*
X93117Y84323D01*
X92986Y84739D01*
X92864Y85158D01*
X92753Y85580D01*
X92652Y86004D01*
X92562Y86431D01*
X92482Y86860D01*
X92412Y87291D01*
X92354Y87724D01*
X92306Y88157D01*
X92268Y88592D01*
X92241Y89028D01*
X92225Y89464D01*
X92220Y89900D01*
D10*
X95858Y56245D02*
X95858Y51419D01*
X95858Y56245D02*
X97199Y56245D01*
X97269Y56243D01*
X97339Y56238D01*
X97409Y56228D01*
X97478Y56216D01*
X97546Y56199D01*
X97613Y56179D01*
X97680Y56156D01*
X97744Y56129D01*
X97808Y56099D01*
X97870Y56065D01*
X97929Y56029D01*
X97987Y55989D01*
X98043Y55946D01*
X98096Y55901D01*
X98147Y55852D01*
X98196Y55801D01*
X98241Y55748D01*
X98284Y55692D01*
X98324Y55634D01*
X98360Y55575D01*
X98394Y55513D01*
X98424Y55449D01*
X98451Y55385D01*
X98474Y55318D01*
X98494Y55251D01*
X98511Y55183D01*
X98523Y55114D01*
X98533Y55044D01*
X98538Y54974D01*
X98540Y54904D01*
X98539Y54904D02*
X98539Y52760D01*
X98540Y52760D02*
X98538Y52690D01*
X98533Y52620D01*
X98523Y52550D01*
X98511Y52481D01*
X98494Y52413D01*
X98474Y52346D01*
X98451Y52279D01*
X98424Y52215D01*
X98394Y52151D01*
X98360Y52089D01*
X98324Y52030D01*
X98284Y51972D01*
X98241Y51916D01*
X98196Y51863D01*
X98147Y51812D01*
X98096Y51763D01*
X98043Y51718D01*
X97987Y51675D01*
X97929Y51635D01*
X97869Y51599D01*
X97808Y51565D01*
X97744Y51535D01*
X97680Y51508D01*
X97613Y51485D01*
X97546Y51465D01*
X97478Y51448D01*
X97409Y51436D01*
X97339Y51426D01*
X97269Y51421D01*
X97199Y51419D01*
X95858Y51419D01*
X101774Y51419D02*
X101774Y56245D01*
X103114Y56245D01*
X103185Y56243D01*
X103257Y56237D01*
X103327Y56228D01*
X103397Y56215D01*
X103467Y56198D01*
X103535Y56177D01*
X103602Y56153D01*
X103668Y56125D01*
X103732Y56094D01*
X103795Y56059D01*
X103855Y56021D01*
X103914Y55980D01*
X103970Y55936D01*
X104024Y55889D01*
X104075Y55840D01*
X104123Y55787D01*
X104169Y55732D01*
X104211Y55675D01*
X104251Y55615D01*
X104287Y55554D01*
X104320Y55490D01*
X104349Y55425D01*
X104375Y55359D01*
X104398Y55291D01*
X104417Y55222D01*
X104432Y55152D01*
X104443Y55082D01*
X104451Y55011D01*
X104455Y54940D01*
X104455Y54868D01*
X104451Y54797D01*
X104443Y54726D01*
X104432Y54656D01*
X104417Y54586D01*
X104398Y54517D01*
X104375Y54449D01*
X104349Y54383D01*
X104320Y54318D01*
X104287Y54254D01*
X104251Y54193D01*
X104211Y54133D01*
X104169Y54076D01*
X104123Y54021D01*
X104075Y53968D01*
X104024Y53919D01*
X103970Y53872D01*
X103914Y53828D01*
X103855Y53787D01*
X103795Y53749D01*
X103732Y53714D01*
X103668Y53683D01*
X103602Y53655D01*
X103535Y53631D01*
X103467Y53610D01*
X103397Y53593D01*
X103327Y53580D01*
X103257Y53571D01*
X103185Y53565D01*
X103114Y53563D01*
X103114Y53564D02*
X101774Y53564D01*
X103382Y53564D02*
X104455Y51419D01*
X107399Y51419D02*
X109544Y51419D01*
X107399Y51419D02*
X107399Y56245D01*
X109544Y56245D01*
X109008Y54100D02*
X107399Y54100D01*
X113377Y51419D02*
X113442Y51421D01*
X113506Y51427D01*
X113570Y51437D01*
X113634Y51450D01*
X113696Y51468D01*
X113757Y51489D01*
X113817Y51513D01*
X113875Y51542D01*
X113932Y51574D01*
X113986Y51609D01*
X114038Y51647D01*
X114088Y51689D01*
X114135Y51733D01*
X114179Y51780D01*
X114221Y51830D01*
X114259Y51882D01*
X114294Y51936D01*
X114326Y51993D01*
X114355Y52051D01*
X114379Y52111D01*
X114400Y52172D01*
X114418Y52234D01*
X114431Y52298D01*
X114441Y52362D01*
X114447Y52426D01*
X114449Y52491D01*
X113377Y51419D02*
X113283Y51421D01*
X113189Y51427D01*
X113095Y51437D01*
X113002Y51450D01*
X112910Y51468D01*
X112818Y51489D01*
X112727Y51514D01*
X112637Y51543D01*
X112549Y51576D01*
X112462Y51612D01*
X112377Y51652D01*
X112293Y51695D01*
X112212Y51742D01*
X112132Y51792D01*
X112054Y51845D01*
X111979Y51902D01*
X111906Y51961D01*
X111836Y52024D01*
X111768Y52089D01*
X111903Y55173D02*
X111905Y55238D01*
X111911Y55302D01*
X111921Y55366D01*
X111934Y55430D01*
X111952Y55492D01*
X111973Y55553D01*
X111997Y55613D01*
X112026Y55671D01*
X112058Y55728D01*
X112093Y55782D01*
X112131Y55834D01*
X112173Y55884D01*
X112217Y55931D01*
X112264Y55975D01*
X112314Y56017D01*
X112366Y56055D01*
X112420Y56090D01*
X112477Y56122D01*
X112535Y56151D01*
X112595Y56175D01*
X112656Y56196D01*
X112718Y56214D01*
X112782Y56227D01*
X112846Y56237D01*
X112910Y56243D01*
X112975Y56245D01*
X113061Y56243D01*
X113147Y56238D01*
X113233Y56228D01*
X113318Y56215D01*
X113403Y56199D01*
X113487Y56179D01*
X113570Y56155D01*
X113652Y56128D01*
X113732Y56097D01*
X113812Y56063D01*
X113889Y56025D01*
X113965Y55984D01*
X114039Y55940D01*
X114111Y55893D01*
X114182Y55843D01*
X112439Y54235D02*
X112386Y54268D01*
X112335Y54305D01*
X112286Y54344D01*
X112239Y54386D01*
X112195Y54431D01*
X112154Y54478D01*
X112115Y54527D01*
X112079Y54579D01*
X112046Y54633D01*
X112017Y54688D01*
X111991Y54745D01*
X111968Y54804D01*
X111948Y54863D01*
X111932Y54924D01*
X111919Y54985D01*
X111910Y55048D01*
X111905Y55110D01*
X111903Y55173D01*
X113913Y53429D02*
X113966Y53396D01*
X114017Y53359D01*
X114066Y53320D01*
X114113Y53278D01*
X114157Y53233D01*
X114198Y53186D01*
X114237Y53137D01*
X114273Y53085D01*
X114306Y53031D01*
X114335Y52976D01*
X114361Y52919D01*
X114384Y52860D01*
X114404Y52801D01*
X114420Y52740D01*
X114433Y52679D01*
X114442Y52616D01*
X114447Y52554D01*
X114449Y52491D01*
X113913Y53430D02*
X112439Y54234D01*
X117274Y51419D02*
X119419Y51419D01*
X117274Y51419D02*
X117274Y56245D01*
X119419Y56245D01*
X118883Y54100D02*
X117274Y54100D01*
X122801Y56245D02*
X122801Y51419D01*
X121461Y56245D02*
X124142Y56245D01*
X271749Y40229D02*
X275234Y40229D01*
X275305Y40231D01*
X275377Y40237D01*
X275447Y40246D01*
X275517Y40259D01*
X275587Y40276D01*
X275655Y40297D01*
X275722Y40321D01*
X275788Y40349D01*
X275852Y40380D01*
X275915Y40415D01*
X275975Y40453D01*
X276034Y40494D01*
X276090Y40538D01*
X276144Y40585D01*
X276195Y40634D01*
X276243Y40687D01*
X276289Y40742D01*
X276331Y40799D01*
X276371Y40859D01*
X276407Y40920D01*
X276440Y40984D01*
X276469Y41049D01*
X276495Y41115D01*
X276518Y41183D01*
X276537Y41252D01*
X276552Y41322D01*
X276563Y41392D01*
X276571Y41463D01*
X276575Y41534D01*
X276575Y41606D01*
X276571Y41677D01*
X276563Y41748D01*
X276552Y41818D01*
X276537Y41888D01*
X276518Y41957D01*
X276495Y42025D01*
X276469Y42091D01*
X276440Y42156D01*
X276407Y42220D01*
X276371Y42281D01*
X276331Y42341D01*
X276289Y42398D01*
X276243Y42453D01*
X276195Y42506D01*
X276144Y42555D01*
X276090Y42602D01*
X276034Y42646D01*
X275975Y42687D01*
X275915Y42725D01*
X275852Y42760D01*
X275788Y42791D01*
X275722Y42819D01*
X275655Y42843D01*
X275587Y42864D01*
X275517Y42881D01*
X275447Y42894D01*
X275377Y42903D01*
X275305Y42909D01*
X275234Y42911D01*
X275234Y42910D02*
X271749Y42910D01*
X271749Y46145D02*
X276575Y46145D01*
X271749Y46145D02*
X271749Y47486D01*
X271751Y47557D01*
X271757Y47629D01*
X271766Y47699D01*
X271779Y47769D01*
X271796Y47839D01*
X271817Y47907D01*
X271841Y47974D01*
X271869Y48040D01*
X271900Y48104D01*
X271935Y48167D01*
X271973Y48227D01*
X272014Y48286D01*
X272058Y48342D01*
X272105Y48396D01*
X272154Y48447D01*
X272207Y48495D01*
X272262Y48541D01*
X272319Y48583D01*
X272379Y48623D01*
X272440Y48659D01*
X272504Y48692D01*
X272569Y48721D01*
X272635Y48747D01*
X272703Y48770D01*
X272772Y48789D01*
X272842Y48804D01*
X272912Y48815D01*
X272983Y48823D01*
X273054Y48827D01*
X273126Y48827D01*
X273197Y48823D01*
X273268Y48815D01*
X273338Y48804D01*
X273408Y48789D01*
X273477Y48770D01*
X273545Y48747D01*
X273611Y48721D01*
X273676Y48692D01*
X273740Y48659D01*
X273801Y48623D01*
X273861Y48583D01*
X273918Y48541D01*
X273973Y48495D01*
X274026Y48447D01*
X274075Y48396D01*
X274122Y48342D01*
X274166Y48286D01*
X274207Y48227D01*
X274245Y48167D01*
X274280Y48104D01*
X274311Y48040D01*
X274339Y47974D01*
X274363Y47907D01*
X274384Y47839D01*
X274401Y47769D01*
X274414Y47699D01*
X274423Y47629D01*
X274429Y47557D01*
X274431Y47486D01*
X274430Y47486D02*
X274430Y46145D01*
X274430Y47754D02*
X276575Y48826D01*
X276575Y52993D02*
X276573Y53058D01*
X276567Y53122D01*
X276557Y53186D01*
X276544Y53250D01*
X276526Y53312D01*
X276505Y53373D01*
X276481Y53433D01*
X276452Y53491D01*
X276420Y53548D01*
X276385Y53602D01*
X276347Y53654D01*
X276305Y53704D01*
X276261Y53751D01*
X276214Y53795D01*
X276164Y53837D01*
X276112Y53875D01*
X276058Y53910D01*
X276001Y53942D01*
X275943Y53971D01*
X275883Y53995D01*
X275822Y54016D01*
X275760Y54034D01*
X275696Y54047D01*
X275632Y54057D01*
X275568Y54063D01*
X275503Y54065D01*
X276575Y52993D02*
X276573Y52899D01*
X276567Y52805D01*
X276557Y52711D01*
X276544Y52618D01*
X276526Y52526D01*
X276505Y52434D01*
X276480Y52343D01*
X276451Y52253D01*
X276418Y52165D01*
X276382Y52078D01*
X276342Y51993D01*
X276299Y51909D01*
X276252Y51828D01*
X276202Y51748D01*
X276149Y51670D01*
X276092Y51595D01*
X276033Y51522D01*
X275970Y51452D01*
X275905Y51384D01*
X272821Y51519D02*
X272756Y51521D01*
X272692Y51527D01*
X272628Y51537D01*
X272564Y51550D01*
X272502Y51568D01*
X272441Y51589D01*
X272381Y51613D01*
X272323Y51642D01*
X272266Y51674D01*
X272212Y51709D01*
X272160Y51747D01*
X272110Y51789D01*
X272063Y51833D01*
X272019Y51880D01*
X271977Y51930D01*
X271939Y51982D01*
X271904Y52036D01*
X271872Y52093D01*
X271843Y52151D01*
X271819Y52211D01*
X271798Y52272D01*
X271780Y52334D01*
X271767Y52398D01*
X271757Y52462D01*
X271751Y52526D01*
X271749Y52591D01*
X271751Y52677D01*
X271756Y52763D01*
X271766Y52849D01*
X271779Y52934D01*
X271795Y53019D01*
X271815Y53103D01*
X271839Y53186D01*
X271866Y53268D01*
X271897Y53348D01*
X271931Y53428D01*
X271969Y53505D01*
X272010Y53581D01*
X272054Y53655D01*
X272101Y53728D01*
X272151Y53798D01*
X273759Y52055D02*
X273726Y52002D01*
X273689Y51951D01*
X273650Y51902D01*
X273608Y51855D01*
X273563Y51811D01*
X273516Y51770D01*
X273467Y51731D01*
X273415Y51695D01*
X273361Y51662D01*
X273306Y51633D01*
X273249Y51607D01*
X273190Y51584D01*
X273131Y51564D01*
X273070Y51548D01*
X273009Y51535D01*
X272946Y51526D01*
X272884Y51521D01*
X272821Y51519D01*
X274565Y53530D02*
X274598Y53583D01*
X274635Y53634D01*
X274674Y53683D01*
X274716Y53730D01*
X274761Y53774D01*
X274808Y53815D01*
X274857Y53854D01*
X274909Y53890D01*
X274963Y53923D01*
X275018Y53952D01*
X275075Y53978D01*
X275134Y54001D01*
X275193Y54021D01*
X275254Y54037D01*
X275315Y54050D01*
X275378Y54059D01*
X275440Y54064D01*
X275503Y54066D01*
X274564Y53530D02*
X273760Y52055D01*
X271749Y57663D02*
X276575Y57663D01*
X271749Y56323D02*
X271749Y59004D01*
X271749Y61690D02*
X276575Y61690D01*
X271749Y61690D02*
X271749Y63030D01*
X271751Y63101D01*
X271757Y63173D01*
X271766Y63243D01*
X271779Y63313D01*
X271796Y63383D01*
X271817Y63451D01*
X271841Y63518D01*
X271869Y63584D01*
X271900Y63648D01*
X271935Y63711D01*
X271973Y63771D01*
X272014Y63830D01*
X272058Y63886D01*
X272105Y63940D01*
X272154Y63991D01*
X272207Y64039D01*
X272262Y64085D01*
X272319Y64127D01*
X272379Y64167D01*
X272440Y64203D01*
X272504Y64236D01*
X272569Y64265D01*
X272635Y64291D01*
X272703Y64314D01*
X272772Y64333D01*
X272842Y64348D01*
X272912Y64359D01*
X272983Y64367D01*
X273054Y64371D01*
X273126Y64371D01*
X273197Y64367D01*
X273268Y64359D01*
X273338Y64348D01*
X273408Y64333D01*
X273477Y64314D01*
X273545Y64291D01*
X273611Y64265D01*
X273676Y64236D01*
X273740Y64203D01*
X273801Y64167D01*
X273861Y64127D01*
X273918Y64085D01*
X273973Y64039D01*
X274026Y63991D01*
X274075Y63940D01*
X274122Y63886D01*
X274166Y63830D01*
X274207Y63771D01*
X274245Y63711D01*
X274280Y63648D01*
X274311Y63584D01*
X274339Y63518D01*
X274363Y63451D01*
X274384Y63383D01*
X274401Y63313D01*
X274414Y63243D01*
X274423Y63173D01*
X274429Y63101D01*
X274431Y63030D01*
X274430Y63030D02*
X274430Y61690D01*
X274430Y63298D02*
X276575Y64371D01*
X295425Y78235D02*
X298910Y78235D01*
X298910Y78234D02*
X298981Y78236D01*
X299053Y78242D01*
X299123Y78251D01*
X299193Y78264D01*
X299263Y78281D01*
X299331Y78302D01*
X299398Y78326D01*
X299464Y78354D01*
X299528Y78385D01*
X299591Y78420D01*
X299651Y78458D01*
X299710Y78499D01*
X299766Y78543D01*
X299820Y78590D01*
X299871Y78639D01*
X299919Y78692D01*
X299965Y78747D01*
X300007Y78804D01*
X300047Y78864D01*
X300083Y78925D01*
X300116Y78989D01*
X300145Y79054D01*
X300171Y79120D01*
X300194Y79188D01*
X300213Y79257D01*
X300228Y79327D01*
X300239Y79397D01*
X300247Y79468D01*
X300251Y79539D01*
X300251Y79611D01*
X300247Y79682D01*
X300239Y79753D01*
X300228Y79823D01*
X300213Y79893D01*
X300194Y79962D01*
X300171Y80030D01*
X300145Y80096D01*
X300116Y80161D01*
X300083Y80225D01*
X300047Y80286D01*
X300007Y80346D01*
X299965Y80403D01*
X299919Y80458D01*
X299871Y80511D01*
X299820Y80560D01*
X299766Y80607D01*
X299710Y80651D01*
X299651Y80692D01*
X299591Y80730D01*
X299528Y80765D01*
X299464Y80796D01*
X299398Y80824D01*
X299331Y80848D01*
X299263Y80869D01*
X299193Y80886D01*
X299123Y80899D01*
X299053Y80908D01*
X298981Y80914D01*
X298910Y80916D01*
X295425Y80916D01*
X295425Y84151D02*
X300251Y84151D01*
X295425Y84151D02*
X295425Y85491D01*
X295427Y85562D01*
X295433Y85634D01*
X295442Y85704D01*
X295455Y85774D01*
X295472Y85844D01*
X295493Y85912D01*
X295517Y85979D01*
X295545Y86045D01*
X295576Y86109D01*
X295611Y86172D01*
X295649Y86232D01*
X295690Y86291D01*
X295734Y86347D01*
X295781Y86401D01*
X295830Y86452D01*
X295883Y86500D01*
X295938Y86546D01*
X295995Y86588D01*
X296055Y86628D01*
X296116Y86664D01*
X296180Y86697D01*
X296245Y86726D01*
X296311Y86752D01*
X296379Y86775D01*
X296448Y86794D01*
X296518Y86809D01*
X296588Y86820D01*
X296659Y86828D01*
X296730Y86832D01*
X296802Y86832D01*
X296873Y86828D01*
X296944Y86820D01*
X297014Y86809D01*
X297084Y86794D01*
X297153Y86775D01*
X297221Y86752D01*
X297287Y86726D01*
X297352Y86697D01*
X297416Y86664D01*
X297477Y86628D01*
X297537Y86588D01*
X297594Y86546D01*
X297649Y86500D01*
X297702Y86452D01*
X297751Y86401D01*
X297798Y86347D01*
X297842Y86291D01*
X297883Y86232D01*
X297921Y86172D01*
X297956Y86109D01*
X297987Y86045D01*
X298015Y85979D01*
X298039Y85912D01*
X298060Y85844D01*
X298077Y85774D01*
X298090Y85704D01*
X298099Y85634D01*
X298105Y85562D01*
X298107Y85491D01*
X298106Y85491D02*
X298106Y84151D01*
X298106Y85759D02*
X300251Y86832D01*
X300251Y90999D02*
X300249Y91064D01*
X300243Y91128D01*
X300233Y91192D01*
X300220Y91256D01*
X300202Y91318D01*
X300181Y91379D01*
X300157Y91439D01*
X300128Y91497D01*
X300096Y91554D01*
X300061Y91608D01*
X300023Y91660D01*
X299981Y91710D01*
X299937Y91757D01*
X299890Y91801D01*
X299840Y91843D01*
X299788Y91881D01*
X299734Y91916D01*
X299677Y91948D01*
X299619Y91977D01*
X299559Y92001D01*
X299498Y92022D01*
X299436Y92040D01*
X299372Y92053D01*
X299308Y92063D01*
X299244Y92069D01*
X299179Y92071D01*
X300251Y90999D02*
X300249Y90905D01*
X300243Y90811D01*
X300233Y90717D01*
X300220Y90624D01*
X300202Y90532D01*
X300181Y90440D01*
X300156Y90349D01*
X300127Y90259D01*
X300094Y90171D01*
X300058Y90084D01*
X300018Y89999D01*
X299975Y89915D01*
X299928Y89834D01*
X299878Y89754D01*
X299825Y89676D01*
X299768Y89601D01*
X299709Y89528D01*
X299646Y89458D01*
X299581Y89390D01*
X296497Y89525D02*
X296432Y89527D01*
X296368Y89533D01*
X296304Y89543D01*
X296240Y89556D01*
X296178Y89574D01*
X296117Y89595D01*
X296057Y89619D01*
X295999Y89648D01*
X295942Y89680D01*
X295888Y89715D01*
X295836Y89753D01*
X295786Y89795D01*
X295739Y89839D01*
X295695Y89886D01*
X295653Y89936D01*
X295615Y89988D01*
X295580Y90042D01*
X295548Y90099D01*
X295519Y90157D01*
X295495Y90217D01*
X295474Y90278D01*
X295456Y90340D01*
X295443Y90404D01*
X295433Y90468D01*
X295427Y90532D01*
X295425Y90597D01*
X295427Y90683D01*
X295432Y90769D01*
X295442Y90855D01*
X295455Y90940D01*
X295471Y91025D01*
X295491Y91109D01*
X295515Y91192D01*
X295542Y91274D01*
X295573Y91354D01*
X295607Y91434D01*
X295645Y91511D01*
X295686Y91587D01*
X295730Y91661D01*
X295777Y91734D01*
X295827Y91804D01*
X297435Y90061D02*
X297402Y90008D01*
X297365Y89957D01*
X297326Y89908D01*
X297284Y89861D01*
X297239Y89817D01*
X297192Y89776D01*
X297143Y89737D01*
X297091Y89701D01*
X297037Y89668D01*
X296982Y89639D01*
X296925Y89613D01*
X296866Y89590D01*
X296807Y89570D01*
X296746Y89554D01*
X296685Y89541D01*
X296622Y89532D01*
X296560Y89527D01*
X296497Y89525D01*
X298241Y91535D02*
X298274Y91588D01*
X298311Y91639D01*
X298350Y91688D01*
X298392Y91735D01*
X298437Y91779D01*
X298484Y91820D01*
X298533Y91859D01*
X298585Y91895D01*
X298639Y91928D01*
X298694Y91957D01*
X298751Y91983D01*
X298810Y92006D01*
X298869Y92026D01*
X298930Y92042D01*
X298991Y92055D01*
X299054Y92064D01*
X299116Y92069D01*
X299179Y92071D01*
X298240Y91535D02*
X297436Y90061D01*
X295425Y95669D02*
X300251Y95669D01*
X295425Y94328D02*
X295425Y97009D01*
X300251Y100493D02*
X300251Y101565D01*
X300251Y100493D02*
X300249Y100428D01*
X300243Y100364D01*
X300233Y100300D01*
X300220Y100236D01*
X300202Y100174D01*
X300181Y100113D01*
X300157Y100053D01*
X300128Y99995D01*
X300096Y99938D01*
X300061Y99884D01*
X300023Y99832D01*
X299981Y99782D01*
X299937Y99735D01*
X299890Y99691D01*
X299840Y99649D01*
X299788Y99611D01*
X299734Y99576D01*
X299677Y99544D01*
X299619Y99515D01*
X299559Y99491D01*
X299498Y99470D01*
X299436Y99452D01*
X299372Y99439D01*
X299308Y99429D01*
X299244Y99423D01*
X299179Y99421D01*
X299179Y99420D02*
X296497Y99420D01*
X296432Y99422D01*
X296368Y99428D01*
X296304Y99438D01*
X296240Y99451D01*
X296178Y99469D01*
X296117Y99490D01*
X296057Y99515D01*
X295998Y99543D01*
X295942Y99575D01*
X295887Y99610D01*
X295835Y99648D01*
X295785Y99690D01*
X295738Y99734D01*
X295694Y99781D01*
X295652Y99831D01*
X295614Y99883D01*
X295579Y99938D01*
X295547Y99994D01*
X295519Y100053D01*
X295494Y100112D01*
X295473Y100174D01*
X295455Y100236D01*
X295442Y100300D01*
X295432Y100364D01*
X295426Y100428D01*
X295424Y100493D01*
X295425Y100493D02*
X295425Y101565D01*
X328749Y80481D02*
X332234Y80481D01*
X332234Y80480D02*
X332305Y80482D01*
X332377Y80488D01*
X332447Y80497D01*
X332517Y80510D01*
X332587Y80527D01*
X332655Y80548D01*
X332722Y80572D01*
X332788Y80600D01*
X332852Y80631D01*
X332915Y80666D01*
X332975Y80704D01*
X333034Y80745D01*
X333090Y80789D01*
X333144Y80836D01*
X333195Y80885D01*
X333243Y80938D01*
X333289Y80993D01*
X333331Y81050D01*
X333371Y81110D01*
X333407Y81171D01*
X333440Y81235D01*
X333469Y81300D01*
X333495Y81366D01*
X333518Y81434D01*
X333537Y81503D01*
X333552Y81573D01*
X333563Y81643D01*
X333571Y81714D01*
X333575Y81785D01*
X333575Y81857D01*
X333571Y81928D01*
X333563Y81999D01*
X333552Y82069D01*
X333537Y82139D01*
X333518Y82208D01*
X333495Y82276D01*
X333469Y82342D01*
X333440Y82407D01*
X333407Y82471D01*
X333371Y82532D01*
X333331Y82592D01*
X333289Y82649D01*
X333243Y82704D01*
X333195Y82757D01*
X333144Y82806D01*
X333090Y82853D01*
X333034Y82897D01*
X332975Y82938D01*
X332915Y82976D01*
X332852Y83011D01*
X332788Y83042D01*
X332722Y83070D01*
X332655Y83094D01*
X332587Y83115D01*
X332517Y83132D01*
X332447Y83145D01*
X332377Y83154D01*
X332305Y83160D01*
X332234Y83162D01*
X328749Y83162D01*
X330894Y86480D02*
X330894Y87820D01*
X330893Y87820D02*
X330895Y87891D01*
X330901Y87963D01*
X330910Y88033D01*
X330923Y88103D01*
X330940Y88173D01*
X330961Y88241D01*
X330985Y88308D01*
X331013Y88374D01*
X331044Y88438D01*
X331079Y88501D01*
X331117Y88561D01*
X331158Y88620D01*
X331202Y88676D01*
X331249Y88730D01*
X331298Y88781D01*
X331351Y88829D01*
X331406Y88875D01*
X331463Y88917D01*
X331523Y88957D01*
X331584Y88993D01*
X331648Y89026D01*
X331713Y89055D01*
X331779Y89081D01*
X331847Y89104D01*
X331916Y89123D01*
X331986Y89138D01*
X332056Y89149D01*
X332127Y89157D01*
X332198Y89161D01*
X332270Y89161D01*
X332341Y89157D01*
X332412Y89149D01*
X332482Y89138D01*
X332552Y89123D01*
X332621Y89104D01*
X332689Y89081D01*
X332755Y89055D01*
X332820Y89026D01*
X332884Y88993D01*
X332945Y88957D01*
X333005Y88917D01*
X333062Y88875D01*
X333117Y88829D01*
X333170Y88781D01*
X333219Y88730D01*
X333266Y88676D01*
X333310Y88620D01*
X333351Y88561D01*
X333389Y88501D01*
X333424Y88438D01*
X333455Y88374D01*
X333483Y88308D01*
X333507Y88241D01*
X333528Y88173D01*
X333545Y88103D01*
X333558Y88033D01*
X333567Y87963D01*
X333573Y87891D01*
X333575Y87820D01*
X333575Y86480D01*
X328749Y86480D01*
X328749Y87820D01*
X328751Y87885D01*
X328757Y87949D01*
X328767Y88013D01*
X328780Y88077D01*
X328798Y88139D01*
X328819Y88200D01*
X328843Y88260D01*
X328872Y88318D01*
X328904Y88375D01*
X328939Y88429D01*
X328977Y88481D01*
X329019Y88531D01*
X329063Y88578D01*
X329110Y88622D01*
X329160Y88664D01*
X329212Y88702D01*
X329266Y88737D01*
X329323Y88769D01*
X329381Y88798D01*
X329441Y88822D01*
X329502Y88843D01*
X329564Y88861D01*
X329628Y88874D01*
X329692Y88884D01*
X329756Y88890D01*
X329821Y88892D01*
X329886Y88890D01*
X329950Y88884D01*
X330014Y88874D01*
X330078Y88861D01*
X330140Y88843D01*
X330201Y88822D01*
X330261Y88798D01*
X330319Y88769D01*
X330376Y88737D01*
X330430Y88702D01*
X330482Y88664D01*
X330532Y88622D01*
X330579Y88578D01*
X330623Y88531D01*
X330665Y88481D01*
X330703Y88429D01*
X330738Y88375D01*
X330770Y88318D01*
X330799Y88260D01*
X330823Y88200D01*
X330844Y88139D01*
X330862Y88077D01*
X330875Y88013D01*
X330885Y87949D01*
X330891Y87885D01*
X330893Y87820D01*
X328749Y92611D02*
X333575Y92611D01*
X328749Y91271D02*
X328749Y93952D01*
X328749Y96638D02*
X333575Y96638D01*
X328749Y96638D02*
X328749Y97979D01*
X328751Y98050D01*
X328757Y98122D01*
X328766Y98192D01*
X328779Y98262D01*
X328796Y98332D01*
X328817Y98400D01*
X328841Y98467D01*
X328869Y98533D01*
X328900Y98597D01*
X328935Y98660D01*
X328973Y98720D01*
X329014Y98779D01*
X329058Y98835D01*
X329105Y98889D01*
X329154Y98940D01*
X329207Y98988D01*
X329262Y99034D01*
X329319Y99076D01*
X329379Y99116D01*
X329440Y99152D01*
X329504Y99185D01*
X329569Y99214D01*
X329635Y99240D01*
X329703Y99263D01*
X329772Y99282D01*
X329842Y99297D01*
X329912Y99308D01*
X329983Y99316D01*
X330054Y99320D01*
X330126Y99320D01*
X330197Y99316D01*
X330268Y99308D01*
X330338Y99297D01*
X330408Y99282D01*
X330477Y99263D01*
X330545Y99240D01*
X330611Y99214D01*
X330676Y99185D01*
X330740Y99152D01*
X330801Y99116D01*
X330861Y99076D01*
X330918Y99034D01*
X330973Y98988D01*
X331026Y98940D01*
X331075Y98889D01*
X331122Y98835D01*
X331166Y98779D01*
X331207Y98720D01*
X331245Y98660D01*
X331280Y98597D01*
X331311Y98533D01*
X331339Y98467D01*
X331363Y98400D01*
X331384Y98332D01*
X331401Y98262D01*
X331414Y98192D01*
X331423Y98122D01*
X331429Y98050D01*
X331431Y97979D01*
X331430Y97979D02*
X331430Y96638D01*
X331430Y98247D02*
X333575Y99319D01*
X348249Y80887D02*
X351734Y80887D01*
X351734Y80886D02*
X351805Y80888D01*
X351877Y80894D01*
X351947Y80903D01*
X352017Y80916D01*
X352087Y80933D01*
X352155Y80954D01*
X352222Y80978D01*
X352288Y81006D01*
X352352Y81037D01*
X352415Y81072D01*
X352475Y81110D01*
X352534Y81151D01*
X352590Y81195D01*
X352644Y81242D01*
X352695Y81291D01*
X352743Y81344D01*
X352789Y81399D01*
X352831Y81456D01*
X352871Y81516D01*
X352907Y81577D01*
X352940Y81641D01*
X352969Y81706D01*
X352995Y81772D01*
X353018Y81840D01*
X353037Y81909D01*
X353052Y81979D01*
X353063Y82049D01*
X353071Y82120D01*
X353075Y82191D01*
X353075Y82263D01*
X353071Y82334D01*
X353063Y82405D01*
X353052Y82475D01*
X353037Y82545D01*
X353018Y82614D01*
X352995Y82682D01*
X352969Y82748D01*
X352940Y82813D01*
X352907Y82877D01*
X352871Y82938D01*
X352831Y82998D01*
X352789Y83055D01*
X352743Y83110D01*
X352695Y83163D01*
X352644Y83212D01*
X352590Y83259D01*
X352534Y83303D01*
X352475Y83344D01*
X352415Y83382D01*
X352352Y83417D01*
X352288Y83448D01*
X352222Y83476D01*
X352155Y83500D01*
X352087Y83521D01*
X352017Y83538D01*
X351947Y83551D01*
X351877Y83560D01*
X351805Y83566D01*
X351734Y83568D01*
X348249Y83568D01*
X350394Y86885D02*
X350394Y88226D01*
X350393Y88226D02*
X350395Y88297D01*
X350401Y88369D01*
X350410Y88439D01*
X350423Y88509D01*
X350440Y88579D01*
X350461Y88647D01*
X350485Y88714D01*
X350513Y88780D01*
X350544Y88844D01*
X350579Y88907D01*
X350617Y88967D01*
X350658Y89026D01*
X350702Y89082D01*
X350749Y89136D01*
X350798Y89187D01*
X350851Y89235D01*
X350906Y89281D01*
X350963Y89323D01*
X351023Y89363D01*
X351084Y89399D01*
X351148Y89432D01*
X351213Y89461D01*
X351279Y89487D01*
X351347Y89510D01*
X351416Y89529D01*
X351486Y89544D01*
X351556Y89555D01*
X351627Y89563D01*
X351698Y89567D01*
X351770Y89567D01*
X351841Y89563D01*
X351912Y89555D01*
X351982Y89544D01*
X352052Y89529D01*
X352121Y89510D01*
X352189Y89487D01*
X352255Y89461D01*
X352320Y89432D01*
X352384Y89399D01*
X352445Y89363D01*
X352505Y89323D01*
X352562Y89281D01*
X352617Y89235D01*
X352670Y89187D01*
X352719Y89136D01*
X352766Y89082D01*
X352810Y89026D01*
X352851Y88967D01*
X352889Y88907D01*
X352924Y88844D01*
X352955Y88780D01*
X352983Y88714D01*
X353007Y88647D01*
X353028Y88579D01*
X353045Y88509D01*
X353058Y88439D01*
X353067Y88369D01*
X353073Y88297D01*
X353075Y88226D01*
X353075Y86885D01*
X348249Y86885D01*
X348249Y88226D01*
X348251Y88291D01*
X348257Y88355D01*
X348267Y88419D01*
X348280Y88483D01*
X348298Y88545D01*
X348319Y88606D01*
X348343Y88666D01*
X348372Y88724D01*
X348404Y88781D01*
X348439Y88835D01*
X348477Y88887D01*
X348519Y88937D01*
X348563Y88984D01*
X348610Y89028D01*
X348660Y89070D01*
X348712Y89108D01*
X348766Y89143D01*
X348823Y89175D01*
X348881Y89204D01*
X348941Y89228D01*
X349002Y89249D01*
X349064Y89267D01*
X349128Y89280D01*
X349192Y89290D01*
X349256Y89296D01*
X349321Y89298D01*
X349386Y89296D01*
X349450Y89290D01*
X349514Y89280D01*
X349578Y89267D01*
X349640Y89249D01*
X349701Y89228D01*
X349761Y89204D01*
X349819Y89175D01*
X349876Y89143D01*
X349930Y89108D01*
X349982Y89070D01*
X350032Y89028D01*
X350079Y88984D01*
X350123Y88937D01*
X350165Y88887D01*
X350203Y88835D01*
X350238Y88781D01*
X350270Y88724D01*
X350299Y88666D01*
X350323Y88606D01*
X350344Y88545D01*
X350362Y88483D01*
X350375Y88419D01*
X350385Y88355D01*
X350391Y88291D01*
X350393Y88226D01*
X348249Y93017D02*
X353075Y93017D01*
X348249Y91677D02*
X348249Y94358D01*
X353075Y97841D02*
X353075Y98913D01*
X353075Y97841D02*
X353073Y97776D01*
X353067Y97712D01*
X353057Y97648D01*
X353044Y97584D01*
X353026Y97522D01*
X353005Y97461D01*
X352981Y97401D01*
X352952Y97343D01*
X352920Y97286D01*
X352885Y97232D01*
X352847Y97180D01*
X352805Y97130D01*
X352761Y97083D01*
X352714Y97039D01*
X352664Y96997D01*
X352612Y96959D01*
X352558Y96924D01*
X352501Y96892D01*
X352443Y96863D01*
X352383Y96839D01*
X352322Y96818D01*
X352260Y96800D01*
X352196Y96787D01*
X352132Y96777D01*
X352068Y96771D01*
X352003Y96769D01*
X352003Y96768D02*
X349321Y96768D01*
X349256Y96770D01*
X349192Y96776D01*
X349128Y96786D01*
X349064Y96799D01*
X349002Y96817D01*
X348941Y96838D01*
X348881Y96863D01*
X348822Y96891D01*
X348766Y96923D01*
X348711Y96958D01*
X348659Y96996D01*
X348609Y97038D01*
X348562Y97082D01*
X348518Y97129D01*
X348476Y97179D01*
X348438Y97231D01*
X348403Y97286D01*
X348371Y97342D01*
X348343Y97401D01*
X348318Y97460D01*
X348297Y97522D01*
X348279Y97584D01*
X348266Y97648D01*
X348256Y97712D01*
X348250Y97776D01*
X348248Y97841D01*
X348249Y97841D02*
X348249Y98913D01*
D12*
X388410Y120480D02*
X431590Y120480D01*
X431590Y59520D02*
X388410Y59520D01*
X440480Y79840D02*
X440480Y99980D01*
X379520Y100280D02*
X379520Y79840D01*
X392220Y90000D02*
X392225Y90436D01*
X392241Y90872D01*
X392268Y91308D01*
X392306Y91743D01*
X392354Y92176D01*
X392412Y92609D01*
X392482Y93040D01*
X392562Y93469D01*
X392652Y93896D01*
X392753Y94320D01*
X392864Y94742D01*
X392986Y95161D01*
X393117Y95577D01*
X393259Y95990D01*
X393411Y96399D01*
X393573Y96804D01*
X393745Y97205D01*
X393927Y97602D01*
X394118Y97994D01*
X394319Y98381D01*
X394530Y98764D01*
X394750Y99141D01*
X394979Y99512D01*
X395216Y99878D01*
X395463Y100238D01*
X395719Y100592D01*
X395983Y100939D01*
X396256Y101280D01*
X396537Y101613D01*
X396826Y101940D01*
X397123Y102260D01*
X397428Y102572D01*
X397740Y102877D01*
X398060Y103174D01*
X398387Y103463D01*
X398720Y103744D01*
X399061Y104017D01*
X399408Y104281D01*
X399762Y104537D01*
X400122Y104784D01*
X400488Y105021D01*
X400859Y105250D01*
X401236Y105470D01*
X401619Y105681D01*
X402006Y105882D01*
X402398Y106073D01*
X402795Y106255D01*
X403196Y106427D01*
X403601Y106589D01*
X404010Y106741D01*
X404423Y106883D01*
X404839Y107014D01*
X405258Y107136D01*
X405680Y107247D01*
X406104Y107348D01*
X406531Y107438D01*
X406960Y107518D01*
X407391Y107588D01*
X407824Y107646D01*
X408257Y107694D01*
X408692Y107732D01*
X409128Y107759D01*
X409564Y107775D01*
X410000Y107780D01*
X410436Y107775D01*
X410872Y107759D01*
X411308Y107732D01*
X411743Y107694D01*
X412176Y107646D01*
X412609Y107588D01*
X413040Y107518D01*
X413469Y107438D01*
X413896Y107348D01*
X414320Y107247D01*
X414742Y107136D01*
X415161Y107014D01*
X415577Y106883D01*
X415990Y106741D01*
X416399Y106589D01*
X416804Y106427D01*
X417205Y106255D01*
X417602Y106073D01*
X417994Y105882D01*
X418381Y105681D01*
X418764Y105470D01*
X419141Y105250D01*
X419512Y105021D01*
X419878Y104784D01*
X420238Y104537D01*
X420592Y104281D01*
X420939Y104017D01*
X421280Y103744D01*
X421613Y103463D01*
X421940Y103174D01*
X422260Y102877D01*
X422572Y102572D01*
X422877Y102260D01*
X423174Y101940D01*
X423463Y101613D01*
X423744Y101280D01*
X424017Y100939D01*
X424281Y100592D01*
X424537Y100238D01*
X424784Y99878D01*
X425021Y99512D01*
X425250Y99141D01*
X425470Y98764D01*
X425681Y98381D01*
X425882Y97994D01*
X426073Y97602D01*
X426255Y97205D01*
X426427Y96804D01*
X426589Y96399D01*
X426741Y95990D01*
X426883Y95577D01*
X427014Y95161D01*
X427136Y94742D01*
X427247Y94320D01*
X427348Y93896D01*
X427438Y93469D01*
X427518Y93040D01*
X427588Y92609D01*
X427646Y92176D01*
X427694Y91743D01*
X427732Y91308D01*
X427759Y90872D01*
X427775Y90436D01*
X427780Y90000D01*
X427775Y89564D01*
X427759Y89128D01*
X427732Y88692D01*
X427694Y88257D01*
X427646Y87824D01*
X427588Y87391D01*
X427518Y86960D01*
X427438Y86531D01*
X427348Y86104D01*
X427247Y85680D01*
X427136Y85258D01*
X427014Y84839D01*
X426883Y84423D01*
X426741Y84010D01*
X426589Y83601D01*
X426427Y83196D01*
X426255Y82795D01*
X426073Y82398D01*
X425882Y82006D01*
X425681Y81619D01*
X425470Y81236D01*
X425250Y80859D01*
X425021Y80488D01*
X424784Y80122D01*
X424537Y79762D01*
X424281Y79408D01*
X424017Y79061D01*
X423744Y78720D01*
X423463Y78387D01*
X423174Y78060D01*
X422877Y77740D01*
X422572Y77428D01*
X422260Y77123D01*
X421940Y76826D01*
X421613Y76537D01*
X421280Y76256D01*
X420939Y75983D01*
X420592Y75719D01*
X420238Y75463D01*
X419878Y75216D01*
X419512Y74979D01*
X419141Y74750D01*
X418764Y74530D01*
X418381Y74319D01*
X417994Y74118D01*
X417602Y73927D01*
X417205Y73745D01*
X416804Y73573D01*
X416399Y73411D01*
X415990Y73259D01*
X415577Y73117D01*
X415161Y72986D01*
X414742Y72864D01*
X414320Y72753D01*
X413896Y72652D01*
X413469Y72562D01*
X413040Y72482D01*
X412609Y72412D01*
X412176Y72354D01*
X411743Y72306D01*
X411308Y72268D01*
X410872Y72241D01*
X410436Y72225D01*
X410000Y72220D01*
X409564Y72225D01*
X409128Y72241D01*
X408692Y72268D01*
X408257Y72306D01*
X407824Y72354D01*
X407391Y72412D01*
X406960Y72482D01*
X406531Y72562D01*
X406104Y72652D01*
X405680Y72753D01*
X405258Y72864D01*
X404839Y72986D01*
X404423Y73117D01*
X404010Y73259D01*
X403601Y73411D01*
X403196Y73573D01*
X402795Y73745D01*
X402398Y73927D01*
X402006Y74118D01*
X401619Y74319D01*
X401236Y74530D01*
X400859Y74750D01*
X400488Y74979D01*
X400122Y75216D01*
X399762Y75463D01*
X399408Y75719D01*
X399061Y75983D01*
X398720Y76256D01*
X398387Y76537D01*
X398060Y76826D01*
X397740Y77123D01*
X397428Y77428D01*
X397123Y77740D01*
X396826Y78060D01*
X396537Y78387D01*
X396256Y78720D01*
X395983Y79061D01*
X395719Y79408D01*
X395463Y79762D01*
X395216Y80122D01*
X394979Y80488D01*
X394750Y80859D01*
X394530Y81236D01*
X394319Y81619D01*
X394118Y82006D01*
X393927Y82398D01*
X393745Y82795D01*
X393573Y83196D01*
X393411Y83601D01*
X393259Y84010D01*
X393117Y84423D01*
X392986Y84839D01*
X392864Y85258D01*
X392753Y85680D01*
X392652Y86104D01*
X392562Y86531D01*
X392482Y86960D01*
X392412Y87391D01*
X392354Y87824D01*
X392306Y88257D01*
X392268Y88692D01*
X392241Y89128D01*
X392225Y89564D01*
X392220Y90000D01*
D10*
X403265Y124996D02*
X403265Y128481D01*
X403264Y124996D02*
X403266Y124925D01*
X403272Y124853D01*
X403281Y124783D01*
X403294Y124713D01*
X403311Y124643D01*
X403332Y124575D01*
X403356Y124508D01*
X403384Y124442D01*
X403415Y124378D01*
X403450Y124315D01*
X403488Y124255D01*
X403529Y124196D01*
X403573Y124140D01*
X403620Y124086D01*
X403669Y124035D01*
X403722Y123987D01*
X403777Y123941D01*
X403834Y123899D01*
X403894Y123859D01*
X403955Y123823D01*
X404019Y123790D01*
X404084Y123761D01*
X404150Y123735D01*
X404218Y123712D01*
X404287Y123693D01*
X404357Y123678D01*
X404427Y123667D01*
X404498Y123659D01*
X404569Y123655D01*
X404641Y123655D01*
X404712Y123659D01*
X404783Y123667D01*
X404853Y123678D01*
X404923Y123693D01*
X404992Y123712D01*
X405060Y123735D01*
X405126Y123761D01*
X405191Y123790D01*
X405255Y123823D01*
X405316Y123859D01*
X405376Y123899D01*
X405433Y123941D01*
X405488Y123987D01*
X405541Y124035D01*
X405590Y124086D01*
X405637Y124140D01*
X405681Y124196D01*
X405722Y124255D01*
X405760Y124315D01*
X405795Y124378D01*
X405826Y124442D01*
X405854Y124508D01*
X405878Y124575D01*
X405899Y124643D01*
X405916Y124713D01*
X405929Y124783D01*
X405938Y124853D01*
X405944Y124925D01*
X405946Y124996D01*
X405946Y128481D01*
X409263Y126336D02*
X410604Y126336D01*
X410604Y126337D02*
X410675Y126335D01*
X410747Y126329D01*
X410817Y126320D01*
X410887Y126307D01*
X410957Y126290D01*
X411025Y126269D01*
X411092Y126245D01*
X411158Y126217D01*
X411222Y126186D01*
X411285Y126151D01*
X411345Y126113D01*
X411404Y126072D01*
X411460Y126028D01*
X411514Y125981D01*
X411565Y125932D01*
X411613Y125879D01*
X411659Y125824D01*
X411701Y125767D01*
X411741Y125707D01*
X411777Y125646D01*
X411810Y125582D01*
X411839Y125517D01*
X411865Y125451D01*
X411888Y125383D01*
X411907Y125314D01*
X411922Y125244D01*
X411933Y125174D01*
X411941Y125103D01*
X411945Y125032D01*
X411945Y124960D01*
X411941Y124889D01*
X411933Y124818D01*
X411922Y124748D01*
X411907Y124678D01*
X411888Y124609D01*
X411865Y124541D01*
X411839Y124475D01*
X411810Y124410D01*
X411777Y124346D01*
X411741Y124285D01*
X411701Y124225D01*
X411659Y124168D01*
X411613Y124113D01*
X411565Y124060D01*
X411514Y124011D01*
X411460Y123964D01*
X411404Y123920D01*
X411345Y123879D01*
X411285Y123841D01*
X411222Y123806D01*
X411158Y123775D01*
X411092Y123747D01*
X411025Y123723D01*
X410957Y123702D01*
X410887Y123685D01*
X410817Y123672D01*
X410747Y123663D01*
X410675Y123657D01*
X410604Y123655D01*
X409263Y123655D01*
X409263Y128481D01*
X410604Y128481D01*
X410669Y128479D01*
X410733Y128473D01*
X410797Y128463D01*
X410861Y128450D01*
X410923Y128432D01*
X410984Y128411D01*
X411044Y128387D01*
X411102Y128358D01*
X411159Y128326D01*
X411213Y128291D01*
X411265Y128253D01*
X411315Y128211D01*
X411362Y128167D01*
X411406Y128120D01*
X411448Y128070D01*
X411486Y128018D01*
X411521Y127964D01*
X411553Y127907D01*
X411582Y127849D01*
X411606Y127789D01*
X411627Y127728D01*
X411645Y127666D01*
X411658Y127602D01*
X411668Y127538D01*
X411674Y127474D01*
X411676Y127409D01*
X411674Y127344D01*
X411668Y127280D01*
X411658Y127216D01*
X411645Y127152D01*
X411627Y127090D01*
X411606Y127029D01*
X411582Y126969D01*
X411553Y126911D01*
X411521Y126854D01*
X411486Y126800D01*
X411448Y126748D01*
X411406Y126698D01*
X411362Y126651D01*
X411315Y126607D01*
X411265Y126565D01*
X411213Y126527D01*
X411159Y126492D01*
X411102Y126460D01*
X411044Y126431D01*
X410984Y126407D01*
X410923Y126386D01*
X410861Y126368D01*
X410797Y126355D01*
X410733Y126345D01*
X410669Y126339D01*
X410604Y126337D01*
X415395Y128481D02*
X415395Y123655D01*
X414054Y128481D02*
X416736Y128481D01*
X190713Y73151D02*
X190713Y68325D01*
X192858Y68325D01*
X195468Y68325D02*
X197613Y68325D01*
X195468Y68325D02*
X195468Y73151D01*
X197613Y73151D01*
X197077Y71006D02*
X195468Y71006D01*
X200203Y73151D02*
X200203Y68325D01*
X200203Y73151D02*
X201544Y73151D01*
X201614Y73149D01*
X201684Y73144D01*
X201754Y73134D01*
X201823Y73122D01*
X201891Y73105D01*
X201958Y73085D01*
X202025Y73062D01*
X202089Y73035D01*
X202153Y73005D01*
X202215Y72971D01*
X202274Y72935D01*
X202332Y72895D01*
X202388Y72852D01*
X202441Y72807D01*
X202492Y72758D01*
X202541Y72707D01*
X202586Y72654D01*
X202629Y72598D01*
X202669Y72540D01*
X202705Y72481D01*
X202739Y72419D01*
X202769Y72355D01*
X202796Y72291D01*
X202819Y72224D01*
X202839Y72157D01*
X202856Y72089D01*
X202868Y72020D01*
X202878Y71950D01*
X202883Y71880D01*
X202885Y71810D01*
X202885Y69666D01*
X202883Y69596D01*
X202878Y69526D01*
X202868Y69456D01*
X202856Y69387D01*
X202839Y69319D01*
X202819Y69252D01*
X202796Y69185D01*
X202769Y69121D01*
X202739Y69057D01*
X202705Y68995D01*
X202669Y68936D01*
X202629Y68878D01*
X202586Y68822D01*
X202541Y68769D01*
X202492Y68718D01*
X202441Y68669D01*
X202388Y68624D01*
X202332Y68581D01*
X202274Y68541D01*
X202214Y68505D01*
X202153Y68471D01*
X202089Y68441D01*
X202025Y68414D01*
X201958Y68391D01*
X201891Y68371D01*
X201823Y68354D01*
X201754Y68342D01*
X201684Y68332D01*
X201614Y68327D01*
X201544Y68325D01*
X200203Y68325D01*
X205605Y68325D02*
X207213Y73151D01*
X208822Y68325D01*
X208420Y69532D02*
X206007Y69532D01*
X211606Y68325D02*
X211606Y73151D01*
X212946Y73151D01*
X213017Y73149D01*
X213089Y73143D01*
X213159Y73134D01*
X213229Y73121D01*
X213299Y73104D01*
X213367Y73083D01*
X213434Y73059D01*
X213500Y73031D01*
X213564Y73000D01*
X213627Y72965D01*
X213687Y72927D01*
X213746Y72886D01*
X213802Y72842D01*
X213856Y72795D01*
X213907Y72746D01*
X213955Y72693D01*
X214001Y72638D01*
X214043Y72581D01*
X214083Y72521D01*
X214119Y72460D01*
X214152Y72396D01*
X214181Y72331D01*
X214207Y72265D01*
X214230Y72197D01*
X214249Y72128D01*
X214264Y72058D01*
X214275Y71988D01*
X214283Y71917D01*
X214287Y71846D01*
X214287Y71774D01*
X214283Y71703D01*
X214275Y71632D01*
X214264Y71562D01*
X214249Y71492D01*
X214230Y71423D01*
X214207Y71355D01*
X214181Y71289D01*
X214152Y71224D01*
X214119Y71160D01*
X214083Y71099D01*
X214043Y71039D01*
X214001Y70982D01*
X213955Y70927D01*
X213907Y70874D01*
X213856Y70825D01*
X213802Y70778D01*
X213746Y70734D01*
X213687Y70693D01*
X213627Y70655D01*
X213564Y70620D01*
X213500Y70589D01*
X213434Y70561D01*
X213367Y70537D01*
X213299Y70516D01*
X213229Y70499D01*
X213159Y70486D01*
X213089Y70477D01*
X213017Y70471D01*
X212946Y70469D01*
X212946Y70470D02*
X211606Y70470D01*
X213214Y70470D02*
X214287Y68325D01*
D12*
X71700Y51725D02*
X71700Y38075D01*
D10*
X86646Y34740D02*
X86646Y29914D01*
X88791Y29914D01*
X91401Y29914D02*
X93545Y29914D01*
X91401Y29914D02*
X91401Y34740D01*
X93545Y34740D01*
X93009Y32595D02*
X91401Y32595D01*
X96136Y34740D02*
X96136Y29914D01*
X96136Y34740D02*
X97476Y34740D01*
X97546Y34738D01*
X97616Y34733D01*
X97686Y34723D01*
X97755Y34711D01*
X97823Y34694D01*
X97890Y34674D01*
X97957Y34651D01*
X98021Y34624D01*
X98085Y34594D01*
X98147Y34560D01*
X98206Y34524D01*
X98264Y34484D01*
X98320Y34441D01*
X98373Y34396D01*
X98424Y34347D01*
X98473Y34296D01*
X98518Y34243D01*
X98561Y34187D01*
X98601Y34129D01*
X98637Y34070D01*
X98671Y34008D01*
X98701Y33944D01*
X98728Y33880D01*
X98751Y33813D01*
X98771Y33746D01*
X98788Y33678D01*
X98800Y33609D01*
X98810Y33539D01*
X98815Y33469D01*
X98817Y33399D01*
X98817Y31255D01*
X98815Y31185D01*
X98810Y31115D01*
X98800Y31045D01*
X98788Y30976D01*
X98771Y30908D01*
X98751Y30841D01*
X98728Y30774D01*
X98701Y30710D01*
X98671Y30646D01*
X98637Y30584D01*
X98601Y30525D01*
X98561Y30467D01*
X98518Y30411D01*
X98473Y30358D01*
X98424Y30307D01*
X98373Y30258D01*
X98320Y30213D01*
X98264Y30170D01*
X98206Y30130D01*
X98146Y30094D01*
X98085Y30060D01*
X98021Y30030D01*
X97957Y30003D01*
X97890Y29980D01*
X97823Y29960D01*
X97755Y29943D01*
X97686Y29931D01*
X97616Y29921D01*
X97546Y29916D01*
X97476Y29914D01*
X96136Y29914D01*
X101537Y29914D02*
X103146Y34740D01*
X104754Y29914D01*
X104352Y31121D02*
X101939Y31121D01*
X308670Y45149D02*
X308670Y49975D01*
X308670Y45149D02*
X310815Y45149D01*
X313425Y45149D02*
X315570Y45149D01*
X313425Y45149D02*
X313425Y49975D01*
X315570Y49975D01*
X315034Y47830D02*
X313425Y47830D01*
X318161Y49975D02*
X318161Y45149D01*
X318161Y49975D02*
X319501Y49975D01*
X319571Y49973D01*
X319641Y49968D01*
X319711Y49958D01*
X319780Y49946D01*
X319848Y49929D01*
X319915Y49909D01*
X319982Y49886D01*
X320046Y49859D01*
X320110Y49829D01*
X320172Y49795D01*
X320231Y49759D01*
X320289Y49719D01*
X320345Y49676D01*
X320398Y49631D01*
X320449Y49582D01*
X320498Y49531D01*
X320543Y49478D01*
X320586Y49422D01*
X320626Y49364D01*
X320662Y49305D01*
X320696Y49243D01*
X320726Y49179D01*
X320753Y49115D01*
X320776Y49048D01*
X320796Y48981D01*
X320813Y48913D01*
X320825Y48844D01*
X320835Y48774D01*
X320840Y48704D01*
X320842Y48634D01*
X320842Y46490D01*
X320840Y46420D01*
X320835Y46350D01*
X320825Y46280D01*
X320813Y46211D01*
X320796Y46143D01*
X320776Y46076D01*
X320753Y46009D01*
X320726Y45945D01*
X320696Y45881D01*
X320662Y45819D01*
X320626Y45760D01*
X320586Y45702D01*
X320543Y45646D01*
X320498Y45593D01*
X320449Y45542D01*
X320398Y45493D01*
X320345Y45448D01*
X320289Y45405D01*
X320231Y45365D01*
X320171Y45329D01*
X320110Y45295D01*
X320046Y45265D01*
X319982Y45238D01*
X319915Y45215D01*
X319848Y45195D01*
X319780Y45178D01*
X319711Y45166D01*
X319641Y45156D01*
X319571Y45151D01*
X319501Y45149D01*
X318161Y45149D01*
X324874Y45149D02*
X325946Y45149D01*
X324874Y45149D02*
X324809Y45151D01*
X324745Y45157D01*
X324681Y45167D01*
X324617Y45180D01*
X324555Y45198D01*
X324494Y45219D01*
X324434Y45243D01*
X324376Y45272D01*
X324319Y45304D01*
X324265Y45339D01*
X324213Y45377D01*
X324163Y45419D01*
X324116Y45463D01*
X324072Y45510D01*
X324030Y45560D01*
X323992Y45612D01*
X323957Y45666D01*
X323925Y45723D01*
X323896Y45781D01*
X323872Y45841D01*
X323851Y45902D01*
X323833Y45964D01*
X323820Y46028D01*
X323810Y46092D01*
X323804Y46156D01*
X323802Y46221D01*
X323801Y46221D02*
X323801Y48903D01*
X323802Y48903D02*
X323804Y48968D01*
X323810Y49032D01*
X323820Y49096D01*
X323833Y49160D01*
X323851Y49222D01*
X323872Y49283D01*
X323896Y49343D01*
X323925Y49401D01*
X323957Y49458D01*
X323992Y49512D01*
X324030Y49564D01*
X324072Y49614D01*
X324116Y49661D01*
X324163Y49705D01*
X324213Y49747D01*
X324265Y49785D01*
X324319Y49820D01*
X324376Y49852D01*
X324434Y49881D01*
X324494Y49905D01*
X324555Y49926D01*
X324617Y49944D01*
X324681Y49957D01*
X324745Y49967D01*
X324809Y49973D01*
X324874Y49975D01*
X325946Y49975D01*
X328648Y49975D02*
X328648Y45149D01*
X328648Y49975D02*
X329989Y49975D01*
X330060Y49973D01*
X330132Y49967D01*
X330202Y49958D01*
X330272Y49945D01*
X330342Y49928D01*
X330410Y49907D01*
X330477Y49883D01*
X330543Y49855D01*
X330607Y49824D01*
X330670Y49789D01*
X330730Y49751D01*
X330789Y49710D01*
X330845Y49666D01*
X330899Y49619D01*
X330950Y49570D01*
X330998Y49517D01*
X331044Y49462D01*
X331086Y49405D01*
X331126Y49345D01*
X331162Y49284D01*
X331195Y49220D01*
X331224Y49155D01*
X331250Y49089D01*
X331273Y49021D01*
X331292Y48952D01*
X331307Y48882D01*
X331318Y48812D01*
X331326Y48741D01*
X331330Y48670D01*
X331330Y48598D01*
X331326Y48527D01*
X331318Y48456D01*
X331307Y48386D01*
X331292Y48316D01*
X331273Y48247D01*
X331250Y48179D01*
X331224Y48113D01*
X331195Y48048D01*
X331162Y47984D01*
X331126Y47923D01*
X331086Y47863D01*
X331044Y47806D01*
X330998Y47751D01*
X330950Y47698D01*
X330899Y47649D01*
X330845Y47602D01*
X330789Y47558D01*
X330730Y47517D01*
X330670Y47479D01*
X330607Y47444D01*
X330543Y47413D01*
X330477Y47385D01*
X330410Y47361D01*
X330342Y47340D01*
X330272Y47323D01*
X330202Y47310D01*
X330132Y47301D01*
X330060Y47295D01*
X329989Y47293D01*
X329989Y47294D02*
X328648Y47294D01*
X330257Y47294D02*
X331330Y45149D01*
D12*
X448300Y51825D02*
X448300Y38175D01*
D10*
X415662Y55160D02*
X415662Y59986D01*
X415662Y55160D02*
X417807Y55160D01*
X420417Y55160D02*
X422562Y55160D01*
X420417Y55160D02*
X420417Y59986D01*
X422562Y59986D01*
X422026Y57841D02*
X420417Y57841D01*
X425152Y59986D02*
X425152Y55160D01*
X425152Y59986D02*
X426493Y59986D01*
X426563Y59984D01*
X426633Y59979D01*
X426703Y59969D01*
X426772Y59957D01*
X426840Y59940D01*
X426907Y59920D01*
X426974Y59897D01*
X427038Y59870D01*
X427102Y59840D01*
X427164Y59806D01*
X427223Y59770D01*
X427281Y59730D01*
X427337Y59687D01*
X427390Y59642D01*
X427441Y59593D01*
X427490Y59542D01*
X427535Y59489D01*
X427578Y59433D01*
X427618Y59375D01*
X427654Y59316D01*
X427688Y59254D01*
X427718Y59190D01*
X427745Y59126D01*
X427768Y59059D01*
X427788Y58992D01*
X427805Y58924D01*
X427817Y58855D01*
X427827Y58785D01*
X427832Y58715D01*
X427834Y58645D01*
X427833Y58645D02*
X427833Y56501D01*
X427834Y56501D02*
X427832Y56431D01*
X427827Y56361D01*
X427817Y56291D01*
X427805Y56222D01*
X427788Y56154D01*
X427768Y56087D01*
X427745Y56020D01*
X427718Y55956D01*
X427688Y55892D01*
X427654Y55830D01*
X427618Y55771D01*
X427578Y55713D01*
X427535Y55657D01*
X427490Y55604D01*
X427441Y55553D01*
X427390Y55504D01*
X427337Y55459D01*
X427281Y55416D01*
X427223Y55376D01*
X427163Y55340D01*
X427102Y55306D01*
X427038Y55276D01*
X426974Y55249D01*
X426907Y55226D01*
X426840Y55206D01*
X426772Y55189D01*
X426703Y55177D01*
X426633Y55167D01*
X426563Y55162D01*
X426493Y55160D01*
X425152Y55160D01*
X431865Y55160D02*
X432938Y55160D01*
X431865Y55160D02*
X431800Y55162D01*
X431736Y55168D01*
X431672Y55178D01*
X431608Y55191D01*
X431546Y55209D01*
X431485Y55230D01*
X431425Y55254D01*
X431367Y55283D01*
X431310Y55315D01*
X431256Y55350D01*
X431204Y55388D01*
X431154Y55430D01*
X431107Y55474D01*
X431063Y55521D01*
X431021Y55571D01*
X430983Y55623D01*
X430948Y55677D01*
X430916Y55734D01*
X430887Y55792D01*
X430863Y55852D01*
X430842Y55913D01*
X430824Y55975D01*
X430811Y56039D01*
X430801Y56103D01*
X430795Y56167D01*
X430793Y56232D01*
X430793Y58914D01*
X430795Y58979D01*
X430801Y59043D01*
X430811Y59107D01*
X430824Y59171D01*
X430842Y59233D01*
X430863Y59294D01*
X430887Y59354D01*
X430916Y59412D01*
X430948Y59469D01*
X430983Y59523D01*
X431021Y59575D01*
X431063Y59625D01*
X431107Y59672D01*
X431154Y59716D01*
X431204Y59758D01*
X431256Y59796D01*
X431310Y59831D01*
X431367Y59863D01*
X431425Y59892D01*
X431485Y59916D01*
X431546Y59937D01*
X431608Y59955D01*
X431672Y59968D01*
X431736Y59978D01*
X431800Y59984D01*
X431865Y59986D01*
X432938Y59986D01*
D13*
X274600Y46100D02*
X224600Y46100D01*
X274600Y46100D02*
X274600Y96100D01*
X224600Y96100D01*
X224600Y46100D01*
D14*
X248626Y60644D02*
X248681Y60642D01*
X248737Y60637D01*
X248791Y60628D01*
X248845Y60615D01*
X248898Y60599D01*
X248950Y60580D01*
X249001Y60557D01*
X249050Y60531D01*
X249097Y60501D01*
X249142Y60469D01*
X249184Y60434D01*
X249225Y60396D01*
X249263Y60355D01*
X249298Y60313D01*
X249330Y60268D01*
X249360Y60221D01*
X249386Y60172D01*
X249409Y60121D01*
X249428Y60069D01*
X249444Y60016D01*
X249457Y59962D01*
X249466Y59908D01*
X249471Y59852D01*
X249473Y59797D01*
X249471Y59714D01*
X249465Y59631D01*
X249456Y59549D01*
X249442Y59467D01*
X249425Y59385D01*
X249404Y59305D01*
X249379Y59226D01*
X249351Y59147D01*
X249319Y59071D01*
X249283Y58996D01*
X249245Y58922D01*
X249202Y58851D01*
X249157Y58781D01*
X249108Y58714D01*
X249056Y58649D01*
X249001Y58587D01*
X248944Y58527D01*
X246510Y58633D02*
X246455Y58635D01*
X246399Y58640D01*
X246345Y58649D01*
X246291Y58662D01*
X246238Y58678D01*
X246186Y58697D01*
X246135Y58720D01*
X246087Y58746D01*
X246039Y58776D01*
X245994Y58808D01*
X245952Y58843D01*
X245911Y58881D01*
X245873Y58922D01*
X245838Y58964D01*
X245806Y59009D01*
X245776Y59057D01*
X245750Y59105D01*
X245727Y59156D01*
X245708Y59208D01*
X245692Y59261D01*
X245679Y59315D01*
X245670Y59369D01*
X245665Y59425D01*
X245663Y59480D01*
X245665Y59559D01*
X245671Y59637D01*
X245680Y59715D01*
X245694Y59792D01*
X245711Y59869D01*
X245733Y59945D01*
X245757Y60019D01*
X245786Y60093D01*
X245818Y60164D01*
X245854Y60234D01*
X245893Y60303D01*
X245935Y60369D01*
X245981Y60433D01*
X247251Y59056D02*
X247221Y59009D01*
X247188Y58964D01*
X247152Y58921D01*
X247114Y58881D01*
X247073Y58843D01*
X247030Y58808D01*
X246984Y58776D01*
X246937Y58746D01*
X246887Y58720D01*
X246836Y58697D01*
X246784Y58678D01*
X246731Y58662D01*
X246676Y58649D01*
X246621Y58640D01*
X246566Y58635D01*
X246510Y58633D01*
X247885Y60221D02*
X247915Y60268D01*
X247948Y60313D01*
X247984Y60356D01*
X248022Y60396D01*
X248063Y60434D01*
X248106Y60469D01*
X248152Y60501D01*
X248199Y60531D01*
X248249Y60557D01*
X248300Y60580D01*
X248352Y60599D01*
X248405Y60615D01*
X248460Y60628D01*
X248515Y60637D01*
X248570Y60642D01*
X248626Y60644D01*
X247886Y60220D02*
X247251Y59056D01*
X245663Y61915D02*
X249473Y62762D01*
X246933Y63609D01*
X249473Y64455D01*
X245663Y65302D01*
X245663Y67022D02*
X249473Y67022D01*
X249473Y66599D02*
X249473Y67446D01*
X245663Y67446D02*
X245663Y66599D01*
X245663Y69705D02*
X249473Y69705D01*
X245663Y68646D02*
X245663Y70763D01*
X249473Y72897D02*
X249473Y73744D01*
X249473Y72897D02*
X249471Y72839D01*
X249465Y72782D01*
X249455Y72725D01*
X249442Y72668D01*
X249424Y72613D01*
X249403Y72560D01*
X249378Y72507D01*
X249350Y72457D01*
X249318Y72409D01*
X249283Y72362D01*
X249245Y72319D01*
X249204Y72278D01*
X249161Y72240D01*
X249114Y72205D01*
X249066Y72173D01*
X249016Y72145D01*
X248963Y72120D01*
X248910Y72099D01*
X248855Y72081D01*
X248798Y72068D01*
X248741Y72058D01*
X248684Y72052D01*
X248626Y72050D01*
X248626Y72051D02*
X246510Y72051D01*
X246510Y72050D02*
X246452Y72052D01*
X246395Y72058D01*
X246338Y72068D01*
X246281Y72081D01*
X246226Y72099D01*
X246173Y72120D01*
X246120Y72145D01*
X246070Y72173D01*
X246022Y72205D01*
X245975Y72240D01*
X245932Y72278D01*
X245891Y72319D01*
X245853Y72362D01*
X245818Y72409D01*
X245786Y72457D01*
X245758Y72507D01*
X245733Y72560D01*
X245712Y72613D01*
X245694Y72668D01*
X245681Y72725D01*
X245671Y72782D01*
X245665Y72839D01*
X245663Y72897D01*
X245663Y73744D01*
X245663Y75230D02*
X249473Y75230D01*
X247356Y75230D02*
X247356Y77347D01*
X245663Y77347D02*
X249473Y77347D01*
D15*
X133500Y150800D03*
X113500Y150800D03*
X93500Y150800D03*
D10*
X61000Y77000D02*
X21000Y77000D01*
X61000Y77000D02*
X61000Y167000D01*
X21000Y167000D01*
X21000Y77000D01*
D16*
X-31014Y192123D02*
X-34047Y193336D01*
X-34047Y193337D02*
X-34119Y193367D01*
X-34189Y193401D01*
X-34257Y193439D01*
X-34323Y193480D01*
X-34388Y193524D01*
X-34449Y193572D01*
X-34509Y193622D01*
X-34566Y193675D01*
X-34620Y193731D01*
X-34671Y193790D01*
X-34720Y193851D01*
X-34765Y193915D01*
X-34807Y193980D01*
X-34846Y194048D01*
X-34882Y194117D01*
X-34913Y194188D01*
X-34942Y194261D01*
X-34967Y194335D01*
X-34988Y194410D01*
X-35005Y194486D01*
X-35018Y194563D01*
X-35028Y194640D01*
X-35034Y194718D01*
X-35036Y194796D01*
X-35034Y194874D01*
X-35028Y194951D01*
X-35019Y195029D01*
X-35005Y195105D01*
X-34988Y195182D01*
X-34967Y195257D01*
X-34943Y195331D01*
X-34914Y195403D01*
X-34883Y195474D01*
X-34847Y195544D01*
X-34809Y195612D01*
X-34767Y195677D01*
X-34721Y195741D01*
X-34673Y195802D01*
X-34622Y195861D01*
X-34568Y195917D01*
X-34511Y195970D01*
X-34452Y196021D01*
X-34390Y196068D01*
X-34326Y196112D01*
X-34259Y196153D01*
X-34191Y196191D01*
X-34121Y196226D01*
X-34050Y196257D01*
X-33977Y196284D01*
X-33902Y196307D01*
X-33827Y196327D01*
X-33751Y196343D01*
X-33674Y196356D01*
X-33596Y196364D01*
X-33518Y196369D01*
X-33441Y196370D01*
X-33441Y196371D02*
X-33275Y196367D01*
X-33109Y196359D01*
X-32944Y196346D01*
X-32779Y196330D01*
X-32615Y196310D01*
X-32451Y196286D01*
X-32288Y196257D01*
X-32125Y196225D01*
X-31963Y196189D01*
X-31803Y196150D01*
X-31643Y196106D01*
X-31484Y196058D01*
X-31326Y196007D01*
X-31170Y195952D01*
X-31015Y195893D01*
X-30862Y195831D01*
X-30710Y195764D01*
X-31014Y192122D02*
X-30942Y192092D01*
X-30872Y192058D01*
X-30804Y192020D01*
X-30738Y191979D01*
X-30673Y191935D01*
X-30612Y191887D01*
X-30552Y191837D01*
X-30495Y191784D01*
X-30441Y191728D01*
X-30390Y191669D01*
X-30341Y191608D01*
X-30296Y191544D01*
X-30254Y191479D01*
X-30215Y191411D01*
X-30179Y191342D01*
X-30148Y191271D01*
X-30119Y191198D01*
X-30094Y191124D01*
X-30073Y191049D01*
X-30056Y190973D01*
X-30043Y190896D01*
X-30033Y190819D01*
X-30027Y190741D01*
X-30025Y190663D01*
X-30027Y190585D01*
X-30033Y190508D01*
X-30042Y190430D01*
X-30056Y190354D01*
X-30073Y190277D01*
X-30094Y190202D01*
X-30118Y190128D01*
X-30147Y190056D01*
X-30178Y189985D01*
X-30214Y189915D01*
X-30252Y189847D01*
X-30294Y189782D01*
X-30340Y189718D01*
X-30388Y189657D01*
X-30439Y189598D01*
X-30493Y189542D01*
X-30550Y189489D01*
X-30609Y189438D01*
X-30671Y189391D01*
X-30735Y189347D01*
X-30802Y189306D01*
X-30870Y189268D01*
X-30940Y189233D01*
X-31011Y189202D01*
X-31084Y189175D01*
X-31159Y189152D01*
X-31234Y189132D01*
X-31310Y189116D01*
X-31387Y189103D01*
X-31465Y189095D01*
X-31543Y189090D01*
X-31620Y189089D01*
X-31863Y189095D01*
X-32106Y189108D01*
X-32349Y189125D01*
X-32591Y189149D01*
X-32833Y189178D01*
X-33074Y189213D01*
X-33314Y189254D01*
X-33553Y189300D01*
X-33791Y189352D01*
X-34027Y189410D01*
X-34262Y189473D01*
X-34496Y189542D01*
X-34727Y189616D01*
X-34957Y189696D01*
X-24989Y190909D02*
X-24989Y200011D01*
X-24989Y190909D02*
X-24987Y190825D01*
X-24981Y190741D01*
X-24972Y190658D01*
X-24958Y190575D01*
X-24941Y190492D01*
X-24920Y190411D01*
X-24895Y190331D01*
X-24866Y190252D01*
X-24834Y190174D01*
X-24798Y190098D01*
X-24759Y190023D01*
X-24716Y189951D01*
X-24670Y189880D01*
X-24621Y189812D01*
X-24569Y189746D01*
X-24514Y189683D01*
X-24456Y189622D01*
X-24395Y189564D01*
X-24332Y189509D01*
X-24266Y189457D01*
X-24198Y189408D01*
X-24127Y189362D01*
X-24055Y189319D01*
X-23980Y189280D01*
X-23904Y189244D01*
X-23826Y189212D01*
X-23747Y189183D01*
X-23667Y189158D01*
X-23586Y189137D01*
X-23503Y189120D01*
X-23420Y189106D01*
X-23337Y189097D01*
X-23253Y189091D01*
X-23169Y189089D01*
X-19196Y189089D02*
X-19196Y196370D01*
X-19499Y199404D02*
X-19499Y200011D01*
X-18892Y200011D01*
X-18892Y199404D01*
X-19499Y199404D01*
X-9610Y200011D02*
X-9610Y189089D01*
X-12644Y189089D01*
X-12728Y189091D01*
X-12812Y189097D01*
X-12895Y189106D01*
X-12978Y189120D01*
X-13061Y189137D01*
X-13142Y189158D01*
X-13222Y189183D01*
X-13301Y189212D01*
X-13379Y189244D01*
X-13455Y189280D01*
X-13530Y189319D01*
X-13602Y189362D01*
X-13673Y189408D01*
X-13741Y189457D01*
X-13807Y189509D01*
X-13870Y189564D01*
X-13931Y189622D01*
X-13989Y189683D01*
X-14044Y189746D01*
X-14096Y189812D01*
X-14145Y189880D01*
X-14191Y189951D01*
X-14234Y190023D01*
X-14273Y190098D01*
X-14309Y190174D01*
X-14341Y190252D01*
X-14370Y190331D01*
X-14395Y190411D01*
X-14416Y190492D01*
X-14433Y190575D01*
X-14447Y190658D01*
X-14456Y190741D01*
X-14462Y190825D01*
X-14464Y190909D01*
X-14465Y190909D02*
X-14465Y194550D01*
X-14464Y194550D02*
X-14462Y194634D01*
X-14456Y194718D01*
X-14447Y194801D01*
X-14433Y194884D01*
X-14416Y194967D01*
X-14395Y195048D01*
X-14370Y195128D01*
X-14341Y195207D01*
X-14309Y195285D01*
X-14273Y195361D01*
X-14234Y195436D01*
X-14191Y195508D01*
X-14145Y195579D01*
X-14096Y195647D01*
X-14044Y195713D01*
X-13989Y195776D01*
X-13931Y195837D01*
X-13870Y195895D01*
X-13807Y195950D01*
X-13741Y196002D01*
X-13673Y196051D01*
X-13602Y196097D01*
X-13530Y196140D01*
X-13455Y196179D01*
X-13379Y196215D01*
X-13301Y196247D01*
X-13222Y196276D01*
X-13142Y196301D01*
X-13061Y196322D01*
X-12978Y196339D01*
X-12895Y196353D01*
X-12812Y196362D01*
X-12728Y196368D01*
X-12644Y196370D01*
X-9610Y196370D01*
X-2276Y189089D02*
X758Y189089D01*
X-2276Y189089D02*
X-2360Y189091D01*
X-2444Y189097D01*
X-2527Y189106D01*
X-2610Y189120D01*
X-2693Y189137D01*
X-2774Y189158D01*
X-2854Y189183D01*
X-2933Y189212D01*
X-3011Y189244D01*
X-3087Y189280D01*
X-3162Y189319D01*
X-3234Y189362D01*
X-3305Y189408D01*
X-3373Y189457D01*
X-3439Y189509D01*
X-3502Y189564D01*
X-3563Y189622D01*
X-3621Y189683D01*
X-3676Y189746D01*
X-3728Y189812D01*
X-3777Y189880D01*
X-3823Y189951D01*
X-3866Y190023D01*
X-3905Y190098D01*
X-3941Y190174D01*
X-3973Y190252D01*
X-4002Y190331D01*
X-4027Y190411D01*
X-4048Y190492D01*
X-4065Y190575D01*
X-4079Y190658D01*
X-4088Y190741D01*
X-4094Y190825D01*
X-4096Y190909D01*
X-4097Y190909D02*
X-4097Y193943D01*
X-4095Y194041D01*
X-4089Y194138D01*
X-4079Y194236D01*
X-4066Y194332D01*
X-4048Y194428D01*
X-4026Y194524D01*
X-4001Y194618D01*
X-3972Y194712D01*
X-3939Y194804D01*
X-3903Y194894D01*
X-3863Y194983D01*
X-3819Y195071D01*
X-3772Y195157D01*
X-3721Y195240D01*
X-3667Y195322D01*
X-3610Y195401D01*
X-3550Y195478D01*
X-3487Y195552D01*
X-3420Y195624D01*
X-3351Y195693D01*
X-3279Y195760D01*
X-3205Y195823D01*
X-3128Y195883D01*
X-3049Y195940D01*
X-2967Y195994D01*
X-2884Y196045D01*
X-2798Y196092D01*
X-2710Y196136D01*
X-2621Y196176D01*
X-2531Y196212D01*
X-2439Y196245D01*
X-2345Y196274D01*
X-2251Y196299D01*
X-2155Y196321D01*
X-2059Y196339D01*
X-1963Y196352D01*
X-1865Y196362D01*
X-1768Y196368D01*
X-1670Y196370D01*
X-1572Y196368D01*
X-1475Y196362D01*
X-1377Y196352D01*
X-1281Y196339D01*
X-1185Y196321D01*
X-1089Y196299D01*
X-995Y196274D01*
X-901Y196245D01*
X-809Y196212D01*
X-719Y196176D01*
X-630Y196136D01*
X-542Y196092D01*
X-457Y196045D01*
X-373Y195994D01*
X-291Y195940D01*
X-212Y195883D01*
X-135Y195823D01*
X-61Y195760D01*
X11Y195693D01*
X80Y195624D01*
X147Y195552D01*
X210Y195478D01*
X270Y195401D01*
X327Y195322D01*
X381Y195240D01*
X432Y195157D01*
X479Y195071D01*
X523Y194983D01*
X563Y194894D01*
X599Y194804D01*
X632Y194712D01*
X661Y194618D01*
X686Y194524D01*
X708Y194428D01*
X726Y194332D01*
X739Y194236D01*
X749Y194138D01*
X755Y194041D01*
X757Y193943D01*
X758Y193943D02*
X758Y192730D01*
X-4097Y192730D01*
X12815Y193336D02*
X15849Y192123D01*
X12816Y193337D02*
X12744Y193367D01*
X12674Y193401D01*
X12606Y193439D01*
X12540Y193480D01*
X12475Y193524D01*
X12414Y193572D01*
X12354Y193622D01*
X12297Y193675D01*
X12243Y193731D01*
X12192Y193790D01*
X12143Y193851D01*
X12098Y193915D01*
X12056Y193980D01*
X12017Y194048D01*
X11981Y194117D01*
X11950Y194188D01*
X11921Y194261D01*
X11896Y194335D01*
X11875Y194410D01*
X11858Y194486D01*
X11845Y194563D01*
X11835Y194640D01*
X11829Y194718D01*
X11827Y194796D01*
X11829Y194874D01*
X11835Y194951D01*
X11844Y195029D01*
X11858Y195105D01*
X11875Y195182D01*
X11896Y195257D01*
X11920Y195331D01*
X11949Y195403D01*
X11980Y195474D01*
X12016Y195544D01*
X12054Y195612D01*
X12096Y195677D01*
X12142Y195741D01*
X12190Y195802D01*
X12241Y195861D01*
X12295Y195917D01*
X12352Y195970D01*
X12411Y196021D01*
X12473Y196068D01*
X12537Y196112D01*
X12604Y196153D01*
X12672Y196191D01*
X12742Y196226D01*
X12813Y196257D01*
X12886Y196284D01*
X12961Y196307D01*
X13036Y196327D01*
X13112Y196343D01*
X13189Y196356D01*
X13267Y196364D01*
X13345Y196369D01*
X13422Y196370D01*
X13422Y196371D02*
X13588Y196367D01*
X13754Y196359D01*
X13919Y196346D01*
X14084Y196330D01*
X14248Y196310D01*
X14412Y196286D01*
X14575Y196257D01*
X14738Y196225D01*
X14900Y196189D01*
X15060Y196150D01*
X15220Y196106D01*
X15379Y196058D01*
X15537Y196007D01*
X15693Y195952D01*
X15848Y195893D01*
X16001Y195831D01*
X16153Y195764D01*
X15849Y192122D02*
X15921Y192092D01*
X15991Y192058D01*
X16059Y192020D01*
X16125Y191979D01*
X16190Y191935D01*
X16251Y191887D01*
X16311Y191837D01*
X16368Y191784D01*
X16422Y191728D01*
X16473Y191669D01*
X16522Y191608D01*
X16567Y191544D01*
X16609Y191479D01*
X16648Y191411D01*
X16684Y191342D01*
X16715Y191271D01*
X16744Y191198D01*
X16769Y191124D01*
X16790Y191049D01*
X16807Y190973D01*
X16820Y190896D01*
X16830Y190819D01*
X16836Y190741D01*
X16838Y190663D01*
X16836Y190585D01*
X16830Y190508D01*
X16821Y190430D01*
X16807Y190354D01*
X16790Y190277D01*
X16769Y190202D01*
X16745Y190128D01*
X16716Y190056D01*
X16685Y189985D01*
X16649Y189915D01*
X16611Y189847D01*
X16569Y189782D01*
X16523Y189718D01*
X16475Y189657D01*
X16424Y189598D01*
X16370Y189542D01*
X16313Y189489D01*
X16254Y189438D01*
X16192Y189391D01*
X16128Y189347D01*
X16061Y189306D01*
X15993Y189268D01*
X15923Y189233D01*
X15852Y189202D01*
X15779Y189175D01*
X15704Y189152D01*
X15629Y189132D01*
X15553Y189116D01*
X15476Y189103D01*
X15398Y189095D01*
X15320Y189090D01*
X15243Y189089D01*
X15000Y189095D01*
X14757Y189108D01*
X14514Y189125D01*
X14272Y189149D01*
X14030Y189178D01*
X13789Y189213D01*
X13549Y189254D01*
X13310Y189300D01*
X13072Y189352D01*
X12836Y189410D01*
X12601Y189473D01*
X12367Y189542D01*
X12136Y189616D01*
X11906Y189696D01*
X23561Y189089D02*
X21741Y196370D01*
X25381Y193943D02*
X23561Y189089D01*
X27202Y189089D02*
X25381Y193943D01*
X29022Y196370D02*
X27202Y189089D01*
X33763Y189089D02*
X33763Y196370D01*
X33460Y199404D02*
X33460Y200011D01*
X34067Y200011D01*
X34067Y199404D01*
X33460Y199404D01*
X37531Y196370D02*
X41172Y196370D01*
X38745Y200011D02*
X38745Y190909D01*
X38747Y190825D01*
X38753Y190741D01*
X38762Y190658D01*
X38776Y190575D01*
X38793Y190492D01*
X38814Y190411D01*
X38839Y190331D01*
X38868Y190252D01*
X38900Y190174D01*
X38936Y190098D01*
X38975Y190023D01*
X39018Y189951D01*
X39064Y189880D01*
X39113Y189812D01*
X39165Y189746D01*
X39220Y189683D01*
X39278Y189622D01*
X39339Y189564D01*
X39402Y189509D01*
X39468Y189457D01*
X39536Y189407D01*
X39607Y189362D01*
X39679Y189319D01*
X39754Y189280D01*
X39830Y189244D01*
X39908Y189212D01*
X39987Y189183D01*
X40067Y189158D01*
X40148Y189137D01*
X40231Y189120D01*
X40314Y189106D01*
X40397Y189097D01*
X40481Y189091D01*
X40565Y189089D01*
X41172Y189089D01*
X47653Y189089D02*
X50080Y189089D01*
X47653Y189089D02*
X47569Y189091D01*
X47485Y189097D01*
X47402Y189106D01*
X47319Y189120D01*
X47236Y189137D01*
X47155Y189158D01*
X47075Y189183D01*
X46996Y189212D01*
X46918Y189244D01*
X46842Y189280D01*
X46767Y189319D01*
X46695Y189362D01*
X46624Y189408D01*
X46556Y189457D01*
X46490Y189509D01*
X46427Y189564D01*
X46366Y189622D01*
X46308Y189683D01*
X46253Y189746D01*
X46201Y189812D01*
X46152Y189880D01*
X46106Y189951D01*
X46063Y190023D01*
X46024Y190098D01*
X45988Y190174D01*
X45956Y190252D01*
X45927Y190331D01*
X45902Y190411D01*
X45881Y190492D01*
X45864Y190575D01*
X45850Y190658D01*
X45841Y190741D01*
X45835Y190825D01*
X45833Y190909D01*
X45832Y190909D02*
X45832Y194550D01*
X45833Y194550D02*
X45835Y194634D01*
X45841Y194718D01*
X45850Y194801D01*
X45864Y194884D01*
X45881Y194967D01*
X45902Y195048D01*
X45927Y195128D01*
X45956Y195207D01*
X45988Y195285D01*
X46024Y195361D01*
X46063Y195436D01*
X46106Y195508D01*
X46152Y195579D01*
X46201Y195647D01*
X46253Y195713D01*
X46308Y195776D01*
X46366Y195837D01*
X46427Y195895D01*
X46490Y195950D01*
X46556Y196002D01*
X46624Y196051D01*
X46695Y196097D01*
X46767Y196140D01*
X46842Y196179D01*
X46918Y196215D01*
X46996Y196247D01*
X47075Y196276D01*
X47155Y196301D01*
X47236Y196322D01*
X47319Y196339D01*
X47402Y196353D01*
X47485Y196362D01*
X47569Y196368D01*
X47653Y196370D01*
X50080Y196370D01*
X54958Y200011D02*
X54958Y189089D01*
X54958Y196370D02*
X57992Y196370D01*
X58076Y196368D01*
X58160Y196362D01*
X58243Y196353D01*
X58326Y196339D01*
X58409Y196322D01*
X58490Y196301D01*
X58570Y196276D01*
X58649Y196247D01*
X58727Y196215D01*
X58803Y196179D01*
X58878Y196140D01*
X58950Y196097D01*
X59021Y196052D01*
X59089Y196002D01*
X59155Y195950D01*
X59218Y195895D01*
X59279Y195837D01*
X59337Y195776D01*
X59392Y195713D01*
X59444Y195647D01*
X59493Y195579D01*
X59539Y195508D01*
X59582Y195436D01*
X59621Y195361D01*
X59657Y195285D01*
X59689Y195207D01*
X59718Y195128D01*
X59743Y195048D01*
X59764Y194967D01*
X59781Y194884D01*
X59795Y194801D01*
X59804Y194718D01*
X59810Y194634D01*
X59812Y194550D01*
X59812Y189089D01*
X74834Y200012D02*
X74936Y200010D01*
X75038Y200004D01*
X75140Y199995D01*
X75241Y199981D01*
X75342Y199964D01*
X75442Y199944D01*
X75541Y199919D01*
X75639Y199891D01*
X75736Y199859D01*
X75832Y199823D01*
X75926Y199784D01*
X76019Y199742D01*
X76110Y199696D01*
X76200Y199646D01*
X76287Y199593D01*
X76372Y199537D01*
X76456Y199478D01*
X76537Y199416D01*
X76615Y199351D01*
X76692Y199283D01*
X76765Y199212D01*
X76836Y199139D01*
X76904Y199062D01*
X76969Y198984D01*
X77031Y198903D01*
X77090Y198819D01*
X77146Y198734D01*
X77199Y198647D01*
X77249Y198557D01*
X77295Y198466D01*
X77337Y198373D01*
X77376Y198279D01*
X77412Y198183D01*
X77444Y198086D01*
X77472Y197988D01*
X77497Y197889D01*
X77517Y197789D01*
X77534Y197688D01*
X77548Y197587D01*
X77557Y197485D01*
X77563Y197383D01*
X77565Y197281D01*
X74834Y200011D02*
X74718Y200009D01*
X74602Y200003D01*
X74486Y199994D01*
X74371Y199980D01*
X74256Y199963D01*
X74142Y199942D01*
X74029Y199917D01*
X73916Y199889D01*
X73805Y199857D01*
X73694Y199821D01*
X73585Y199781D01*
X73477Y199738D01*
X73371Y199691D01*
X73266Y199641D01*
X73163Y199588D01*
X73062Y199531D01*
X72963Y199470D01*
X72866Y199407D01*
X72771Y199340D01*
X72678Y199270D01*
X72588Y199197D01*
X72500Y199122D01*
X72414Y199043D01*
X72332Y198961D01*
X72252Y198877D01*
X72174Y198791D01*
X72100Y198701D01*
X72029Y198610D01*
X71961Y198516D01*
X71896Y198419D01*
X71834Y198321D01*
X71775Y198221D01*
X71720Y198119D01*
X71668Y198015D01*
X71620Y197909D01*
X71575Y197802D01*
X71534Y197694D01*
X71497Y197584D01*
X76654Y195157D02*
X76727Y195230D01*
X76798Y195305D01*
X76866Y195382D01*
X76932Y195462D01*
X76994Y195544D01*
X77054Y195628D01*
X77111Y195715D01*
X77164Y195803D01*
X77215Y195893D01*
X77262Y195985D01*
X77306Y196078D01*
X77347Y196173D01*
X77384Y196270D01*
X77418Y196367D01*
X77448Y196466D01*
X77475Y196565D01*
X77499Y196666D01*
X77519Y196767D01*
X77535Y196869D01*
X77548Y196972D01*
X77557Y197075D01*
X77562Y197178D01*
X77564Y197281D01*
X76654Y195157D02*
X71496Y189089D01*
X77564Y189089D01*
X82228Y189089D02*
X82228Y189696D01*
X82835Y189696D01*
X82835Y189089D01*
X82228Y189089D01*
X87498Y189089D02*
X91139Y189089D01*
X91237Y189091D01*
X91334Y189097D01*
X91432Y189107D01*
X91528Y189120D01*
X91624Y189138D01*
X91720Y189160D01*
X91814Y189185D01*
X91908Y189214D01*
X92000Y189247D01*
X92090Y189283D01*
X92179Y189323D01*
X92267Y189367D01*
X92353Y189414D01*
X92436Y189465D01*
X92518Y189519D01*
X92597Y189576D01*
X92674Y189636D01*
X92748Y189699D01*
X92820Y189766D01*
X92889Y189835D01*
X92956Y189907D01*
X93019Y189981D01*
X93079Y190058D01*
X93136Y190137D01*
X93190Y190219D01*
X93241Y190303D01*
X93288Y190388D01*
X93332Y190476D01*
X93372Y190565D01*
X93408Y190655D01*
X93441Y190747D01*
X93470Y190841D01*
X93495Y190935D01*
X93517Y191031D01*
X93535Y191127D01*
X93548Y191223D01*
X93558Y191321D01*
X93564Y191418D01*
X93566Y191516D01*
X93566Y192730D01*
X93564Y192828D01*
X93558Y192925D01*
X93548Y193023D01*
X93535Y193119D01*
X93517Y193215D01*
X93495Y193311D01*
X93470Y193405D01*
X93441Y193499D01*
X93408Y193591D01*
X93372Y193681D01*
X93332Y193770D01*
X93288Y193858D01*
X93241Y193944D01*
X93190Y194027D01*
X93136Y194109D01*
X93079Y194188D01*
X93019Y194265D01*
X92956Y194339D01*
X92889Y194411D01*
X92820Y194480D01*
X92748Y194547D01*
X92674Y194610D01*
X92597Y194670D01*
X92518Y194727D01*
X92436Y194781D01*
X92353Y194832D01*
X92267Y194879D01*
X92179Y194923D01*
X92090Y194963D01*
X92000Y194999D01*
X91908Y195032D01*
X91814Y195061D01*
X91720Y195086D01*
X91624Y195108D01*
X91528Y195126D01*
X91432Y195139D01*
X91334Y195149D01*
X91237Y195155D01*
X91139Y195157D01*
X87498Y195157D01*
X87498Y200011D01*
X93566Y200011D01*
X99465Y196370D02*
X99465Y189089D01*
X99465Y196370D02*
X104926Y196370D01*
X105010Y196368D01*
X105094Y196362D01*
X105177Y196353D01*
X105260Y196339D01*
X105343Y196322D01*
X105424Y196301D01*
X105504Y196276D01*
X105583Y196247D01*
X105661Y196215D01*
X105737Y196179D01*
X105812Y196140D01*
X105884Y196097D01*
X105955Y196051D01*
X106023Y196002D01*
X106089Y195950D01*
X106152Y195895D01*
X106213Y195837D01*
X106271Y195776D01*
X106326Y195713D01*
X106378Y195647D01*
X106427Y195579D01*
X106473Y195508D01*
X106516Y195436D01*
X106555Y195361D01*
X106591Y195285D01*
X106623Y195207D01*
X106652Y195128D01*
X106677Y195048D01*
X106698Y194967D01*
X106715Y194884D01*
X106729Y194801D01*
X106738Y194718D01*
X106744Y194634D01*
X106746Y194550D01*
X106746Y189089D01*
X103105Y189089D02*
X103105Y196370D01*
X113181Y196370D02*
X113181Y189089D01*
X113181Y196370D02*
X118642Y196370D01*
X118726Y196368D01*
X118810Y196362D01*
X118893Y196353D01*
X118976Y196339D01*
X119059Y196322D01*
X119140Y196301D01*
X119220Y196276D01*
X119299Y196247D01*
X119377Y196215D01*
X119453Y196179D01*
X119528Y196140D01*
X119600Y196097D01*
X119671Y196051D01*
X119739Y196002D01*
X119805Y195950D01*
X119868Y195895D01*
X119929Y195837D01*
X119987Y195776D01*
X120042Y195713D01*
X120094Y195647D01*
X120143Y195579D01*
X120189Y195508D01*
X120232Y195436D01*
X120271Y195361D01*
X120307Y195285D01*
X120339Y195207D01*
X120368Y195128D01*
X120393Y195048D01*
X120414Y194967D01*
X120431Y194884D01*
X120445Y194801D01*
X120454Y194718D01*
X120460Y194634D01*
X120462Y194550D01*
X120462Y189089D01*
X116821Y189089D02*
X116821Y196370D01*
M02*
