G04 EAGLE Gerber X2 export*
G04 #@! %TF.Part,Single*
G04 #@! %TF.FileFunction,Copper,L2,Bot,Mixed*
G04 #@! %TF.FilePolarity,Positive*
G04 #@! %TF.GenerationSoftware,Autodesk,EAGLE,8.6.0*
G04 #@! %TF.CreationDate,2018-03-03T07:21:58Z*
G75*
%MOMM*%
%FSLAX34Y34*%
%LPD*%
%AMOC8*
5,1,8,0,0,1.08239X$1,22.5*%
G01*
%ADD10C,1.500000*%
%ADD11R,0.800000X1.200000*%
%ADD12R,1.200000X0.800000*%
%ADD13R,0.406400X0.812800*%
%ADD14C,1.422400*%
%ADD15C,0.304800*%
%ADD16C,0.604000*%

G36*
X159181Y35487D02*
X159181Y35487D01*
X159272Y35495D01*
X159301Y35507D01*
X159333Y35512D01*
X159414Y35555D01*
X159498Y35591D01*
X159530Y35617D01*
X159551Y35628D01*
X159573Y35651D01*
X159629Y35696D01*
X166504Y42571D01*
X166550Y42635D01*
X166571Y42657D01*
X166576Y42666D01*
X166617Y42715D01*
X166629Y42745D01*
X166648Y42771D01*
X166675Y42858D01*
X166709Y42943D01*
X166713Y42984D01*
X166720Y43006D01*
X166719Y43038D01*
X166727Y43109D01*
X166727Y218691D01*
X166713Y218781D01*
X166705Y218872D01*
X166693Y218901D01*
X166688Y218933D01*
X166645Y219014D01*
X166609Y219098D01*
X166583Y219130D01*
X166572Y219151D01*
X166549Y219173D01*
X166504Y219229D01*
X159629Y226104D01*
X159555Y226157D01*
X159485Y226217D01*
X159455Y226229D01*
X159429Y226248D01*
X159342Y226275D01*
X159257Y226309D01*
X159216Y226313D01*
X159194Y226320D01*
X159162Y226319D01*
X159091Y226327D01*
X156852Y226327D01*
X156844Y226326D01*
X156836Y226327D01*
X156722Y226306D01*
X156609Y226288D01*
X156602Y226284D01*
X156594Y226282D01*
X156493Y226226D01*
X156392Y226172D01*
X156386Y226167D01*
X156379Y226163D01*
X156302Y226078D01*
X156222Y225994D01*
X156219Y225987D01*
X156214Y225981D01*
X156167Y225876D01*
X156119Y225771D01*
X156118Y225763D01*
X156115Y225756D01*
X156104Y225641D01*
X156092Y225527D01*
X156093Y225519D01*
X156093Y225511D01*
X156120Y225398D01*
X156144Y225286D01*
X156148Y225279D01*
X156150Y225272D01*
X156211Y225174D01*
X156270Y225075D01*
X156276Y225070D01*
X156280Y225063D01*
X156404Y224950D01*
X157488Y224163D01*
X158563Y223088D01*
X159456Y221859D01*
X160146Y220505D01*
X160615Y219060D01*
X160732Y218323D01*
X151962Y218323D01*
X151942Y218320D01*
X151923Y218322D01*
X151821Y218300D01*
X151719Y218283D01*
X151702Y218274D01*
X151682Y218270D01*
X151593Y218217D01*
X151502Y218168D01*
X151488Y218154D01*
X151471Y218144D01*
X151404Y218065D01*
X151333Y217990D01*
X151324Y217972D01*
X151311Y217957D01*
X151273Y217861D01*
X151229Y217767D01*
X151227Y217747D01*
X151219Y217729D01*
X151201Y217562D01*
X151201Y216799D01*
X150438Y216799D01*
X150418Y216796D01*
X150399Y216798D01*
X150297Y216776D01*
X150195Y216759D01*
X150178Y216750D01*
X150158Y216746D01*
X150069Y216693D01*
X149978Y216644D01*
X149964Y216630D01*
X149947Y216620D01*
X149880Y216541D01*
X149809Y216466D01*
X149800Y216448D01*
X149787Y216433D01*
X149748Y216337D01*
X149705Y216243D01*
X149703Y216223D01*
X149695Y216205D01*
X149677Y216038D01*
X149677Y207107D01*
X149690Y207029D01*
X149693Y206949D01*
X149709Y206908D01*
X149717Y206865D01*
X149754Y206794D01*
X149777Y206735D01*
X149777Y197462D01*
X149780Y197442D01*
X149778Y197423D01*
X149800Y197321D01*
X149817Y197219D01*
X149826Y197202D01*
X149830Y197182D01*
X149883Y197093D01*
X149932Y197002D01*
X149946Y196988D01*
X149956Y196971D01*
X150035Y196904D01*
X150110Y196833D01*
X150128Y196824D01*
X150143Y196811D01*
X150239Y196773D01*
X150333Y196729D01*
X150353Y196727D01*
X150371Y196719D01*
X150538Y196701D01*
X151301Y196701D01*
X151301Y196699D01*
X150538Y196699D01*
X150518Y196696D01*
X150499Y196698D01*
X150397Y196676D01*
X150295Y196659D01*
X150278Y196650D01*
X150258Y196646D01*
X150169Y196593D01*
X150078Y196544D01*
X150064Y196530D01*
X150047Y196520D01*
X149980Y196441D01*
X149909Y196366D01*
X149900Y196348D01*
X149887Y196333D01*
X149848Y196237D01*
X149805Y196143D01*
X149803Y196123D01*
X149795Y196105D01*
X149777Y195938D01*
X149777Y187168D01*
X149040Y187285D01*
X147595Y187754D01*
X146241Y188444D01*
X145012Y189337D01*
X143937Y190412D01*
X143044Y191641D01*
X142354Y192995D01*
X142293Y193185D01*
X142246Y193275D01*
X142205Y193368D01*
X142190Y193384D01*
X142180Y193404D01*
X142107Y193474D01*
X142038Y193549D01*
X142019Y193560D01*
X142003Y193575D01*
X141912Y193619D01*
X141823Y193667D01*
X141801Y193671D01*
X141781Y193681D01*
X141681Y193693D01*
X141581Y193711D01*
X141559Y193708D01*
X141537Y193711D01*
X141438Y193690D01*
X141338Y193675D01*
X141318Y193665D01*
X141296Y193661D01*
X141208Y193610D01*
X141118Y193564D01*
X141103Y193548D01*
X141084Y193537D01*
X141017Y193461D01*
X140946Y193388D01*
X140933Y193364D01*
X140922Y193352D01*
X140909Y193321D01*
X140865Y193241D01*
X139914Y190944D01*
X137056Y188086D01*
X133321Y186539D01*
X129279Y186539D01*
X125544Y188086D01*
X122686Y190944D01*
X122003Y192593D01*
X121966Y192654D01*
X121936Y192719D01*
X121901Y192758D01*
X121874Y192802D01*
X121818Y192848D01*
X121770Y192901D01*
X121724Y192926D01*
X121684Y192959D01*
X121617Y192985D01*
X121554Y193019D01*
X121503Y193028D01*
X121455Y193047D01*
X121383Y193050D01*
X121312Y193063D01*
X121261Y193055D01*
X121209Y193057D01*
X121140Y193037D01*
X121069Y193027D01*
X121023Y193003D01*
X120973Y192989D01*
X120914Y192948D01*
X120850Y192916D01*
X120813Y192878D01*
X120771Y192849D01*
X120728Y192791D01*
X120678Y192740D01*
X120643Y192677D01*
X120624Y192651D01*
X120617Y192629D01*
X120597Y192593D01*
X119914Y190944D01*
X117056Y188086D01*
X113321Y186539D01*
X109279Y186539D01*
X105544Y188086D01*
X102686Y190944D01*
X101139Y194679D01*
X101139Y198721D01*
X102686Y202456D01*
X105544Y205314D01*
X107264Y206026D01*
X107325Y206064D01*
X107390Y206093D01*
X107428Y206128D01*
X107473Y206156D01*
X107518Y206211D01*
X107571Y206259D01*
X107596Y206305D01*
X107630Y206345D01*
X107655Y206412D01*
X107690Y206475D01*
X107699Y206526D01*
X107718Y206575D01*
X107721Y206646D01*
X107734Y206717D01*
X107726Y206768D01*
X107728Y206820D01*
X107708Y206889D01*
X107698Y206960D01*
X107674Y207007D01*
X107660Y207057D01*
X107619Y207116D01*
X107586Y207179D01*
X107549Y207216D01*
X107519Y207259D01*
X107462Y207302D01*
X107411Y207352D01*
X107348Y207386D01*
X107322Y207406D01*
X107300Y207413D01*
X107264Y207433D01*
X105444Y208186D01*
X102586Y211044D01*
X101039Y214779D01*
X101039Y218821D01*
X102586Y222556D01*
X105058Y225028D01*
X105100Y225086D01*
X105150Y225138D01*
X105171Y225185D01*
X105202Y225227D01*
X105223Y225296D01*
X105253Y225361D01*
X105259Y225413D01*
X105274Y225463D01*
X105272Y225534D01*
X105280Y225605D01*
X105269Y225656D01*
X105268Y225708D01*
X105243Y225776D01*
X105228Y225846D01*
X105201Y225891D01*
X105183Y225939D01*
X105139Y225995D01*
X105102Y226057D01*
X105062Y226091D01*
X105030Y226131D01*
X104969Y226170D01*
X104915Y226217D01*
X104867Y226236D01*
X104823Y226264D01*
X104753Y226282D01*
X104687Y226309D01*
X104615Y226317D01*
X104584Y226325D01*
X104561Y226323D01*
X104520Y226327D01*
X103509Y226327D01*
X103419Y226313D01*
X103328Y226305D01*
X103299Y226293D01*
X103267Y226288D01*
X103186Y226245D01*
X103102Y226209D01*
X103070Y226183D01*
X103049Y226172D01*
X103027Y226149D01*
X102971Y226104D01*
X96096Y219229D01*
X96043Y219155D01*
X95983Y219085D01*
X95971Y219055D01*
X95952Y219029D01*
X95925Y218942D01*
X95891Y218857D01*
X95887Y218816D01*
X95880Y218794D01*
X95881Y218762D01*
X95873Y218691D01*
X95873Y176293D01*
X95875Y176278D01*
X95874Y176265D01*
X95884Y176215D01*
X95886Y176151D01*
X95904Y176102D01*
X95912Y176050D01*
X95926Y176025D01*
X95926Y176024D01*
X95928Y176020D01*
X95946Y175987D01*
X95971Y175920D01*
X96003Y175879D01*
X96028Y175833D01*
X96080Y175784D01*
X96124Y175728D01*
X96168Y175699D01*
X96206Y175664D01*
X96271Y175633D01*
X96331Y175595D01*
X96382Y175582D01*
X96429Y175560D01*
X96500Y175552D01*
X96570Y175534D01*
X96622Y175539D01*
X96673Y175533D01*
X96744Y175548D01*
X96815Y175554D01*
X96863Y175574D01*
X96914Y175585D01*
X96975Y175622D01*
X97041Y175650D01*
X97093Y175691D01*
X97105Y175698D01*
X97109Y175702D01*
X97125Y175711D01*
X97140Y175729D01*
X97172Y175755D01*
X98262Y176845D01*
X100493Y177769D01*
X102907Y177769D01*
X105138Y176845D01*
X106845Y175138D01*
X107769Y172907D01*
X107769Y172413D01*
X107783Y172323D01*
X107791Y172232D01*
X107803Y172203D01*
X107808Y172171D01*
X107851Y172090D01*
X107887Y172006D01*
X107913Y171974D01*
X107924Y171953D01*
X107947Y171931D01*
X107992Y171875D01*
X109925Y169942D01*
X110004Y169885D01*
X110079Y169823D01*
X110104Y169813D01*
X110125Y169798D01*
X110218Y169770D01*
X110309Y169735D01*
X110335Y169734D01*
X110360Y169726D01*
X110457Y169728D01*
X110555Y169724D01*
X110580Y169732D01*
X110606Y169732D01*
X110697Y169766D01*
X110791Y169793D01*
X110812Y169808D01*
X110837Y169817D01*
X110913Y169877D01*
X110993Y169933D01*
X111008Y169954D01*
X111029Y169970D01*
X111081Y170052D01*
X111140Y170130D01*
X111148Y170155D01*
X111162Y170177D01*
X111186Y170272D01*
X111216Y170364D01*
X111216Y170390D01*
X111222Y170416D01*
X111214Y170513D01*
X111213Y170610D01*
X111204Y170642D01*
X111203Y170661D01*
X111190Y170691D01*
X111167Y170771D01*
X111039Y171079D01*
X111039Y175121D01*
X112586Y178856D01*
X115444Y181714D01*
X119179Y183261D01*
X123221Y183261D01*
X126956Y181714D01*
X129814Y178856D01*
X130497Y177207D01*
X130535Y177146D01*
X130564Y177081D01*
X130599Y177042D01*
X130626Y176998D01*
X130682Y176952D01*
X130730Y176899D01*
X130776Y176874D01*
X130816Y176841D01*
X130883Y176815D01*
X130946Y176781D01*
X130997Y176772D01*
X131045Y176753D01*
X131117Y176750D01*
X131188Y176737D01*
X131239Y176745D01*
X131291Y176743D01*
X131360Y176763D01*
X131431Y176773D01*
X131477Y176797D01*
X131527Y176811D01*
X131586Y176852D01*
X131650Y176884D01*
X131687Y176922D01*
X131729Y176951D01*
X131772Y177009D01*
X131822Y177060D01*
X131857Y177123D01*
X131876Y177149D01*
X131883Y177171D01*
X131903Y177207D01*
X132586Y178856D01*
X135444Y181714D01*
X139179Y183261D01*
X143221Y183261D01*
X146956Y181714D01*
X149814Y178856D01*
X151361Y175121D01*
X151361Y171079D01*
X149814Y167344D01*
X146956Y164486D01*
X143221Y162939D01*
X139179Y162939D01*
X135444Y164486D01*
X132586Y167344D01*
X131903Y168993D01*
X131865Y169054D01*
X131836Y169119D01*
X131801Y169158D01*
X131789Y169176D01*
X131786Y169182D01*
X131786Y169183D01*
X131774Y169202D01*
X131718Y169248D01*
X131670Y169301D01*
X131624Y169326D01*
X131584Y169359D01*
X131517Y169385D01*
X131454Y169419D01*
X131403Y169428D01*
X131355Y169447D01*
X131283Y169450D01*
X131212Y169463D01*
X131161Y169455D01*
X131109Y169457D01*
X131040Y169437D01*
X130969Y169427D01*
X130923Y169403D01*
X130873Y169389D01*
X130814Y169348D01*
X130750Y169316D01*
X130713Y169278D01*
X130671Y169249D01*
X130628Y169191D01*
X130578Y169140D01*
X130566Y169120D01*
X130566Y169119D01*
X130543Y169077D01*
X130524Y169051D01*
X130517Y169029D01*
X130497Y168993D01*
X129814Y167344D01*
X126956Y164486D01*
X123221Y162939D01*
X119179Y162939D01*
X115444Y164486D01*
X112572Y167358D01*
X112514Y167400D01*
X112462Y167450D01*
X112415Y167471D01*
X112373Y167502D01*
X112304Y167523D01*
X112239Y167553D01*
X112187Y167559D01*
X112137Y167574D01*
X112066Y167572D01*
X111995Y167580D01*
X111944Y167569D01*
X111892Y167568D01*
X111824Y167543D01*
X111754Y167528D01*
X111709Y167501D01*
X111661Y167483D01*
X111605Y167439D01*
X111543Y167402D01*
X111509Y167362D01*
X111469Y167330D01*
X111430Y167269D01*
X111383Y167215D01*
X111364Y167167D01*
X111336Y167123D01*
X111318Y167053D01*
X111291Y166987D01*
X111283Y166915D01*
X111275Y166884D01*
X111277Y166861D01*
X111273Y166820D01*
X111273Y161310D01*
X111276Y161290D01*
X111274Y161271D01*
X111296Y161169D01*
X111312Y161067D01*
X111322Y161050D01*
X111326Y161030D01*
X111379Y160941D01*
X111428Y160850D01*
X111442Y160836D01*
X111452Y160819D01*
X111531Y160752D01*
X111606Y160680D01*
X111624Y160672D01*
X111639Y160659D01*
X111735Y160620D01*
X111829Y160577D01*
X111849Y160575D01*
X111867Y160567D01*
X111954Y160558D01*
X113749Y158763D01*
X113749Y144237D01*
X111977Y142466D01*
X111966Y142450D01*
X111950Y142437D01*
X111894Y142350D01*
X111834Y142266D01*
X111828Y142247D01*
X111817Y142230D01*
X111792Y142130D01*
X111762Y142031D01*
X111762Y142011D01*
X111757Y141992D01*
X111765Y141889D01*
X111768Y141785D01*
X111775Y141766D01*
X111776Y141747D01*
X111817Y141652D01*
X111852Y141554D01*
X111865Y141539D01*
X111873Y141520D01*
X111977Y141389D01*
X114739Y138627D01*
X114835Y138559D01*
X114928Y138489D01*
X114934Y138488D01*
X114939Y138484D01*
X115051Y138449D01*
X115162Y138413D01*
X115168Y138413D01*
X115174Y138411D01*
X115291Y138415D01*
X115408Y138416D01*
X115415Y138418D01*
X115420Y138418D01*
X115438Y138424D01*
X115569Y138462D01*
X116502Y138849D01*
X120698Y138849D01*
X121631Y138462D01*
X121744Y138436D01*
X121858Y138407D01*
X121864Y138408D01*
X121870Y138406D01*
X121987Y138417D01*
X122103Y138426D01*
X122109Y138429D01*
X122115Y138429D01*
X122223Y138477D01*
X122330Y138523D01*
X122335Y138527D01*
X122340Y138529D01*
X122354Y138542D01*
X122461Y138627D01*
X125804Y141971D01*
X126000Y142167D01*
X126053Y142241D01*
X126113Y142310D01*
X126125Y142341D01*
X126144Y142367D01*
X126171Y142454D01*
X126205Y142539D01*
X126209Y142580D01*
X126216Y142602D01*
X126215Y142634D01*
X126223Y142705D01*
X126223Y149977D01*
X130198Y149977D01*
X130218Y149980D01*
X130237Y149978D01*
X130339Y150000D01*
X130441Y150017D01*
X130458Y150026D01*
X130478Y150030D01*
X130567Y150083D01*
X130658Y150132D01*
X130672Y150146D01*
X130689Y150156D01*
X130756Y150235D01*
X130796Y150277D01*
X136738Y150277D01*
X136758Y150280D01*
X136777Y150278D01*
X136879Y150300D01*
X136981Y150317D01*
X136998Y150326D01*
X137018Y150330D01*
X137107Y150383D01*
X137198Y150432D01*
X137212Y150446D01*
X137229Y150456D01*
X137296Y150535D01*
X137367Y150610D01*
X137376Y150628D01*
X137389Y150643D01*
X137428Y150739D01*
X137471Y150833D01*
X137473Y150853D01*
X137481Y150871D01*
X137499Y151038D01*
X137499Y151801D01*
X137501Y151801D01*
X137501Y151038D01*
X137504Y151018D01*
X137502Y150999D01*
X137524Y150897D01*
X137541Y150795D01*
X137550Y150778D01*
X137554Y150758D01*
X137607Y150669D01*
X137656Y150578D01*
X137670Y150564D01*
X137680Y150547D01*
X137759Y150480D01*
X137834Y150409D01*
X137852Y150400D01*
X137867Y150387D01*
X137963Y150348D01*
X138057Y150305D01*
X138077Y150303D01*
X138095Y150295D01*
X138262Y150277D01*
X144041Y150277D01*
X144041Y146876D01*
X144059Y146763D01*
X144076Y146648D01*
X144079Y146641D01*
X144080Y146634D01*
X144134Y146532D01*
X144186Y146429D01*
X144192Y146423D01*
X144196Y146416D01*
X144279Y146337D01*
X144361Y146256D01*
X144368Y146252D01*
X144374Y146247D01*
X144478Y146198D01*
X144582Y146148D01*
X144590Y146147D01*
X144597Y146143D01*
X144711Y146131D01*
X144826Y146116D01*
X144834Y146117D01*
X144841Y146116D01*
X144954Y146141D01*
X145067Y146163D01*
X145074Y146167D01*
X145082Y146168D01*
X145181Y146228D01*
X145281Y146285D01*
X145288Y146291D01*
X145293Y146295D01*
X145307Y146311D01*
X145399Y146404D01*
X148287Y150054D01*
X148310Y150095D01*
X148341Y150131D01*
X148369Y150202D01*
X148406Y150269D01*
X148415Y150315D01*
X148433Y150359D01*
X148447Y150490D01*
X148451Y150511D01*
X148450Y150517D01*
X148451Y150526D01*
X148451Y159063D01*
X150237Y160849D01*
X160763Y160849D01*
X162549Y159063D01*
X162549Y144537D01*
X160763Y142751D01*
X154539Y142751D01*
X154527Y142749D01*
X154515Y142751D01*
X154406Y142729D01*
X154297Y142712D01*
X154286Y142706D01*
X154274Y142704D01*
X154177Y142648D01*
X154079Y142596D01*
X154071Y142588D01*
X154060Y142582D01*
X153942Y142462D01*
X151137Y138917D01*
X151114Y138876D01*
X151083Y138840D01*
X151055Y138769D01*
X151018Y138702D01*
X151009Y138656D01*
X150991Y138612D01*
X150977Y138481D01*
X150973Y138460D01*
X150974Y138454D01*
X150973Y138445D01*
X150973Y138406D01*
X150431Y137864D01*
X150419Y137848D01*
X150404Y137835D01*
X150348Y137748D01*
X150287Y137664D01*
X150281Y137645D01*
X150271Y137628D01*
X150245Y137528D01*
X150215Y137429D01*
X150215Y137409D01*
X150211Y137390D01*
X150219Y137287D01*
X150221Y137183D01*
X150228Y137164D01*
X150230Y137145D01*
X150270Y137050D01*
X150306Y136952D01*
X150318Y136937D01*
X150326Y136918D01*
X150431Y136787D01*
X152943Y134275D01*
X154549Y130398D01*
X154549Y126202D01*
X154162Y125269D01*
X154136Y125156D01*
X154107Y125042D01*
X154108Y125036D01*
X154106Y125030D01*
X154117Y124913D01*
X154126Y124797D01*
X154129Y124791D01*
X154129Y124785D01*
X154177Y124677D01*
X154223Y124570D01*
X154227Y124565D01*
X154229Y124560D01*
X154242Y124546D01*
X154327Y124439D01*
X160160Y118607D01*
X160170Y118600D01*
X160182Y118586D01*
X160219Y118551D01*
X160283Y118509D01*
X160341Y118459D01*
X160385Y118441D01*
X160425Y118415D01*
X160498Y118396D01*
X160527Y118384D01*
X162349Y116563D01*
X162349Y106037D01*
X160563Y104251D01*
X147553Y104251D01*
X147483Y104240D01*
X147411Y104238D01*
X147362Y104220D01*
X147311Y104212D01*
X147247Y104178D01*
X147180Y104153D01*
X147139Y104121D01*
X147093Y104096D01*
X147044Y104045D01*
X146988Y104000D01*
X146960Y103956D01*
X146924Y103918D01*
X146894Y103853D01*
X146855Y103793D01*
X146842Y103742D01*
X146820Y103695D01*
X146812Y103624D01*
X146795Y103554D01*
X146799Y103502D01*
X146793Y103451D01*
X146808Y103380D01*
X146814Y103309D01*
X146834Y103261D01*
X146845Y103210D01*
X146882Y103149D01*
X146910Y103083D01*
X146955Y103027D01*
X146972Y102999D01*
X146989Y102984D01*
X147015Y102952D01*
X149395Y100572D01*
X149469Y100519D01*
X149539Y100459D01*
X149569Y100447D01*
X149595Y100428D01*
X149682Y100401D01*
X149767Y100367D01*
X149808Y100363D01*
X149830Y100356D01*
X149862Y100357D01*
X149933Y100349D01*
X160563Y100349D01*
X162349Y98563D01*
X162349Y88037D01*
X160563Y86251D01*
X146037Y86251D01*
X144251Y88037D01*
X144251Y92467D01*
X144237Y92557D01*
X144229Y92648D01*
X144217Y92677D01*
X144212Y92709D01*
X144169Y92790D01*
X144133Y92874D01*
X144107Y92906D01*
X144096Y92927D01*
X144073Y92949D01*
X144028Y93005D01*
X143880Y93153D01*
X143822Y93195D01*
X143770Y93244D01*
X143723Y93266D01*
X143681Y93296D01*
X143612Y93318D01*
X143547Y93348D01*
X143495Y93354D01*
X143445Y93369D01*
X143374Y93367D01*
X143303Y93375D01*
X143252Y93364D01*
X143200Y93362D01*
X143132Y93338D01*
X143062Y93323D01*
X143018Y93296D01*
X142969Y93278D01*
X142913Y93233D01*
X142851Y93196D01*
X142817Y93157D01*
X142777Y93124D01*
X142738Y93064D01*
X142691Y93010D01*
X142672Y92961D01*
X142644Y92917D01*
X142626Y92848D01*
X142599Y92781D01*
X142591Y92710D01*
X142583Y92679D01*
X142585Y92656D01*
X142581Y92615D01*
X142581Y86173D01*
X140795Y84387D01*
X134205Y84387D01*
X132419Y86173D01*
X132419Y95899D01*
X132405Y95989D01*
X132397Y96080D01*
X132385Y96109D01*
X132380Y96141D01*
X132337Y96222D01*
X132301Y96306D01*
X132275Y96338D01*
X132264Y96359D01*
X132241Y96381D01*
X132196Y96437D01*
X129529Y99104D01*
X129455Y99157D01*
X129385Y99217D01*
X129355Y99229D01*
X129329Y99248D01*
X129242Y99275D01*
X129157Y99309D01*
X129116Y99313D01*
X129094Y99320D01*
X129062Y99319D01*
X128991Y99327D01*
X127936Y99327D01*
X127889Y99320D01*
X127841Y99321D01*
X127768Y99300D01*
X127694Y99288D01*
X127651Y99265D01*
X127605Y99251D01*
X127543Y99208D01*
X127476Y99172D01*
X127443Y99138D01*
X127404Y99110D01*
X127359Y99049D01*
X127307Y98994D01*
X127287Y98951D01*
X127258Y98912D01*
X127235Y98840D01*
X127203Y98771D01*
X127198Y98723D01*
X127183Y98678D01*
X127184Y98602D01*
X127176Y98527D01*
X127186Y98480D01*
X127187Y98432D01*
X127212Y98360D01*
X127228Y98286D01*
X127253Y98245D01*
X127269Y98200D01*
X127316Y98140D01*
X127354Y98075D01*
X127391Y98044D01*
X127421Y98006D01*
X127524Y97930D01*
X127541Y97915D01*
X127548Y97913D01*
X127556Y97907D01*
X128092Y97597D01*
X128565Y97124D01*
X128900Y96545D01*
X129073Y95898D01*
X129073Y92515D01*
X124754Y92515D01*
X124735Y92512D01*
X124715Y92514D01*
X124613Y92492D01*
X124511Y92476D01*
X124495Y92467D01*
X124451Y92487D01*
X124431Y92489D01*
X124413Y92497D01*
X124246Y92515D01*
X119927Y92515D01*
X119927Y95898D01*
X120100Y96545D01*
X120435Y97124D01*
X120908Y97597D01*
X121444Y97907D01*
X121482Y97937D01*
X121524Y97960D01*
X121576Y98014D01*
X121635Y98062D01*
X121660Y98103D01*
X121693Y98138D01*
X121725Y98207D01*
X121765Y98271D01*
X121777Y98317D01*
X121797Y98361D01*
X121805Y98436D01*
X121823Y98510D01*
X121819Y98558D01*
X121824Y98605D01*
X121808Y98680D01*
X121801Y98755D01*
X121782Y98799D01*
X121772Y98846D01*
X121733Y98911D01*
X121702Y98980D01*
X121670Y99016D01*
X121646Y99057D01*
X121588Y99106D01*
X121537Y99162D01*
X121495Y99186D01*
X121459Y99217D01*
X121388Y99245D01*
X121322Y99282D01*
X121275Y99291D01*
X121230Y99309D01*
X121102Y99323D01*
X121080Y99327D01*
X121074Y99326D01*
X121064Y99327D01*
X118579Y99327D01*
X118463Y99308D01*
X118344Y99290D01*
X118341Y99288D01*
X118336Y99288D01*
X118232Y99232D01*
X118126Y99177D01*
X118123Y99174D01*
X118119Y99172D01*
X118038Y99087D01*
X117954Y99001D01*
X117953Y98997D01*
X117950Y98994D01*
X117900Y98887D01*
X117848Y98779D01*
X117848Y98775D01*
X117846Y98771D01*
X117833Y98653D01*
X117819Y98535D01*
X117819Y98530D01*
X117819Y98527D01*
X117822Y98513D01*
X117844Y98369D01*
X118041Y97634D01*
X118041Y94823D01*
X111023Y94823D01*
X111023Y99841D01*
X112655Y99841D01*
X112725Y99852D01*
X112797Y99854D01*
X112846Y99872D01*
X112897Y99880D01*
X112961Y99914D01*
X113028Y99939D01*
X113069Y99971D01*
X113115Y99996D01*
X113164Y100048D01*
X113220Y100092D01*
X113248Y100136D01*
X113284Y100174D01*
X113314Y100239D01*
X113353Y100299D01*
X113366Y100350D01*
X113388Y100397D01*
X113396Y100468D01*
X113413Y100538D01*
X113409Y100590D01*
X113415Y100641D01*
X113400Y100712D01*
X113394Y100783D01*
X113374Y100831D01*
X113363Y100882D01*
X113326Y100943D01*
X113298Y101009D01*
X113253Y101065D01*
X113236Y101093D01*
X113219Y101108D01*
X113193Y101140D01*
X110305Y104028D01*
X110231Y104081D01*
X110161Y104141D01*
X110131Y104153D01*
X110105Y104172D01*
X110018Y104199D01*
X109933Y104233D01*
X109892Y104237D01*
X109870Y104244D01*
X109838Y104243D01*
X109767Y104251D01*
X102237Y104251D01*
X100451Y106037D01*
X100451Y116563D01*
X102237Y118349D01*
X102560Y118349D01*
X102606Y118356D01*
X102652Y118354D01*
X102726Y118376D01*
X102803Y118388D01*
X102844Y118410D01*
X102888Y118423D01*
X102952Y118467D01*
X103020Y118504D01*
X103052Y118537D01*
X103090Y118564D01*
X103136Y118626D01*
X103189Y118682D01*
X103209Y118724D01*
X103237Y118761D01*
X103260Y118835D01*
X103293Y118905D01*
X103298Y118951D01*
X103312Y118995D01*
X103312Y119073D01*
X103320Y119149D01*
X103315Y119173D01*
X103315Y121691D01*
X104239Y123921D01*
X105946Y125628D01*
X107581Y126306D01*
X107681Y126368D01*
X107781Y126427D01*
X107785Y126432D01*
X107790Y126435D01*
X107865Y126526D01*
X107941Y126614D01*
X107943Y126620D01*
X107947Y126625D01*
X107989Y126733D01*
X108033Y126842D01*
X108034Y126850D01*
X108035Y126855D01*
X108036Y126873D01*
X108051Y127009D01*
X108051Y130398D01*
X108438Y131331D01*
X108464Y131444D01*
X108493Y131558D01*
X108492Y131564D01*
X108494Y131570D01*
X108483Y131687D01*
X108474Y131803D01*
X108471Y131809D01*
X108471Y131815D01*
X108423Y131923D01*
X108377Y132030D01*
X108373Y132035D01*
X108371Y132040D01*
X108358Y132054D01*
X108273Y132161D01*
X102127Y138306D01*
X102127Y141690D01*
X102124Y141710D01*
X102126Y141729D01*
X102104Y141831D01*
X102088Y141933D01*
X102078Y141950D01*
X102074Y141970D01*
X102021Y142059D01*
X101972Y142150D01*
X101958Y142164D01*
X101948Y142181D01*
X101869Y142248D01*
X101794Y142320D01*
X101776Y142328D01*
X101761Y142341D01*
X101665Y142380D01*
X101571Y142423D01*
X101551Y142425D01*
X101533Y142433D01*
X101446Y142442D01*
X99651Y144237D01*
X99651Y158763D01*
X101447Y160559D01*
X101507Y160572D01*
X101609Y160588D01*
X101626Y160598D01*
X101646Y160602D01*
X101735Y160655D01*
X101826Y160704D01*
X101840Y160718D01*
X101857Y160728D01*
X101924Y160807D01*
X101996Y160882D01*
X102004Y160900D01*
X102017Y160915D01*
X102056Y161011D01*
X102099Y161105D01*
X102101Y161125D01*
X102109Y161143D01*
X102127Y161310D01*
X102127Y164491D01*
X102113Y164581D01*
X102105Y164672D01*
X102093Y164701D01*
X102088Y164733D01*
X102045Y164814D01*
X102009Y164898D01*
X101983Y164930D01*
X101972Y164951D01*
X101949Y164973D01*
X101904Y165029D01*
X101525Y165408D01*
X101451Y165461D01*
X101381Y165521D01*
X101351Y165533D01*
X101325Y165552D01*
X101238Y165579D01*
X101153Y165613D01*
X101112Y165617D01*
X101090Y165624D01*
X101058Y165623D01*
X100987Y165631D01*
X100493Y165631D01*
X98262Y166555D01*
X97172Y167645D01*
X97114Y167687D01*
X97062Y167736D01*
X97015Y167758D01*
X96973Y167789D01*
X96904Y167810D01*
X96839Y167840D01*
X96787Y167846D01*
X96737Y167861D01*
X96666Y167859D01*
X96595Y167867D01*
X96544Y167856D01*
X96492Y167855D01*
X96424Y167830D01*
X96354Y167815D01*
X96309Y167788D01*
X96261Y167770D01*
X96205Y167725D01*
X96143Y167689D01*
X96109Y167649D01*
X96069Y167617D01*
X96030Y167556D01*
X95983Y167502D01*
X95964Y167454D01*
X95936Y167410D01*
X95918Y167340D01*
X95891Y167274D01*
X95883Y167202D01*
X95875Y167171D01*
X95877Y167148D01*
X95873Y167107D01*
X95873Y43109D01*
X95887Y43019D01*
X95895Y42928D01*
X95907Y42899D01*
X95912Y42867D01*
X95955Y42786D01*
X95991Y42702D01*
X96017Y42670D01*
X96028Y42649D01*
X96051Y42627D01*
X96074Y42598D01*
X96076Y42594D01*
X96079Y42592D01*
X96096Y42571D01*
X102971Y35696D01*
X103045Y35643D01*
X103115Y35583D01*
X103145Y35571D01*
X103171Y35552D01*
X103258Y35525D01*
X103343Y35491D01*
X103384Y35487D01*
X103406Y35480D01*
X103438Y35481D01*
X103509Y35473D01*
X159091Y35473D01*
X159181Y35487D01*
G37*
%LPC*%
G36*
X116737Y37351D02*
X116737Y37351D01*
X114951Y39137D01*
X114951Y46667D01*
X114937Y46757D01*
X114929Y46848D01*
X114917Y46877D01*
X114912Y46909D01*
X114869Y46990D01*
X114833Y47074D01*
X114807Y47106D01*
X114796Y47127D01*
X114773Y47149D01*
X114728Y47205D01*
X113927Y48006D01*
X113927Y54768D01*
X113908Y54882D01*
X113891Y54999D01*
X113889Y55004D01*
X113888Y55010D01*
X113833Y55113D01*
X113780Y55218D01*
X113775Y55222D01*
X113772Y55228D01*
X113688Y55308D01*
X113604Y55390D01*
X113598Y55394D01*
X113594Y55397D01*
X113577Y55405D01*
X113457Y55471D01*
X112525Y55857D01*
X109557Y58825D01*
X107951Y62702D01*
X107951Y66898D01*
X109557Y70775D01*
X112525Y73743D01*
X116402Y75349D01*
X120598Y75349D01*
X124475Y73743D01*
X127443Y70775D01*
X129049Y66898D01*
X129049Y62702D01*
X127443Y58825D01*
X125366Y56748D01*
X125325Y56690D01*
X125275Y56638D01*
X125253Y56591D01*
X125223Y56549D01*
X125202Y56480D01*
X125172Y56415D01*
X125166Y56363D01*
X125151Y56313D01*
X125152Y56242D01*
X125144Y56171D01*
X125156Y56120D01*
X125157Y56068D01*
X125182Y56000D01*
X125197Y55930D01*
X125223Y55885D01*
X125241Y55837D01*
X125286Y55781D01*
X125323Y55719D01*
X125362Y55685D01*
X125395Y55645D01*
X125455Y55606D01*
X125510Y55559D01*
X125558Y55540D01*
X125602Y55512D01*
X125671Y55494D01*
X125738Y55467D01*
X125809Y55459D01*
X125840Y55451D01*
X125864Y55453D01*
X125905Y55449D01*
X127263Y55449D01*
X129049Y53663D01*
X129049Y39137D01*
X127263Y37351D01*
X116737Y37351D01*
G37*
%LPD*%
%LPC*%
G36*
X139999Y46399D02*
X139999Y46399D01*
X139999Y47162D01*
X139996Y47182D01*
X139998Y47201D01*
X139976Y47303D01*
X139959Y47405D01*
X139950Y47422D01*
X139946Y47442D01*
X139893Y47531D01*
X139844Y47622D01*
X139830Y47636D01*
X139820Y47653D01*
X139741Y47720D01*
X139666Y47791D01*
X139648Y47800D01*
X139633Y47813D01*
X139537Y47852D01*
X139443Y47895D01*
X139423Y47897D01*
X139405Y47905D01*
X139238Y47923D01*
X133459Y47923D01*
X133459Y52734D01*
X133632Y53381D01*
X133967Y53960D01*
X134440Y54433D01*
X135019Y54768D01*
X135666Y54941D01*
X137003Y54941D01*
X137074Y54952D01*
X137146Y54954D01*
X137195Y54972D01*
X137246Y54980D01*
X137309Y55014D01*
X137377Y55039D01*
X137417Y55071D01*
X137463Y55096D01*
X137513Y55148D01*
X137569Y55192D01*
X137597Y55236D01*
X137633Y55274D01*
X137663Y55339D01*
X137702Y55399D01*
X137714Y55450D01*
X137736Y55497D01*
X137744Y55568D01*
X137762Y55638D01*
X137758Y55690D01*
X137764Y55741D01*
X137748Y55812D01*
X137743Y55883D01*
X137722Y55931D01*
X137711Y55982D01*
X137674Y56043D01*
X137646Y56109D01*
X137602Y56165D01*
X137585Y56193D01*
X137567Y56208D01*
X137542Y56240D01*
X134957Y58825D01*
X133351Y62702D01*
X133351Y66898D01*
X134957Y70775D01*
X137925Y73743D01*
X141802Y75349D01*
X145998Y75349D01*
X149875Y73743D01*
X152843Y70775D01*
X154449Y66898D01*
X154449Y62702D01*
X152843Y58825D01*
X149875Y55857D01*
X146693Y54539D01*
X146633Y54502D01*
X146570Y54474D01*
X146530Y54438D01*
X146484Y54409D01*
X146439Y54356D01*
X146388Y54309D01*
X146361Y54261D01*
X146327Y54220D01*
X146302Y54155D01*
X146268Y54094D01*
X146258Y54041D01*
X146239Y53990D01*
X146236Y53921D01*
X146223Y53852D01*
X146230Y53799D01*
X146228Y53744D01*
X146248Y53677D01*
X146257Y53609D01*
X146288Y53540D01*
X146297Y53508D01*
X146309Y53490D01*
X146325Y53455D01*
X146368Y53381D01*
X146541Y52734D01*
X146541Y47923D01*
X140762Y47923D01*
X140742Y47920D01*
X140723Y47922D01*
X140621Y47900D01*
X140519Y47883D01*
X140502Y47874D01*
X140482Y47870D01*
X140393Y47817D01*
X140302Y47768D01*
X140288Y47754D01*
X140271Y47744D01*
X140204Y47665D01*
X140133Y47590D01*
X140124Y47572D01*
X140111Y47557D01*
X140072Y47461D01*
X140029Y47367D01*
X140027Y47347D01*
X140019Y47329D01*
X140001Y47162D01*
X140001Y46399D01*
X139999Y46399D01*
G37*
%LPD*%
%LPC*%
G36*
X152823Y198223D02*
X152823Y198223D01*
X152823Y206393D01*
X152810Y206471D01*
X152807Y206551D01*
X152791Y206592D01*
X152783Y206635D01*
X152746Y206706D01*
X152723Y206765D01*
X152723Y215277D01*
X160732Y215277D01*
X160615Y214540D01*
X160146Y213095D01*
X159456Y211741D01*
X158563Y210512D01*
X157488Y209437D01*
X156259Y208544D01*
X154905Y207854D01*
X153784Y207490D01*
X153777Y207487D01*
X153769Y207485D01*
X153669Y207431D01*
X153566Y207377D01*
X153560Y207372D01*
X153553Y207368D01*
X153475Y207284D01*
X153395Y207201D01*
X153391Y207194D01*
X153386Y207188D01*
X153338Y207083D01*
X153289Y206979D01*
X153288Y206971D01*
X153284Y206964D01*
X153273Y206849D01*
X153259Y206735D01*
X153261Y206727D01*
X153260Y206719D01*
X153286Y206606D01*
X153309Y206494D01*
X153313Y206487D01*
X153315Y206479D01*
X153375Y206380D01*
X153433Y206281D01*
X153439Y206276D01*
X153443Y206269D01*
X153532Y206195D01*
X153618Y206120D01*
X153625Y206116D01*
X153632Y206111D01*
X153784Y206042D01*
X155005Y205646D01*
X156359Y204956D01*
X157588Y204063D01*
X158663Y202988D01*
X159556Y201759D01*
X160246Y200405D01*
X160715Y198960D01*
X160832Y198223D01*
X152823Y198223D01*
G37*
%LPD*%
%LPC*%
G36*
X126223Y153023D02*
X126223Y153023D01*
X126223Y160041D01*
X129034Y160041D01*
X129681Y159868D01*
X130260Y159533D01*
X130412Y159381D01*
X130428Y159370D01*
X130440Y159354D01*
X130527Y159298D01*
X130611Y159238D01*
X130630Y159232D01*
X130647Y159221D01*
X130748Y159196D01*
X130847Y159166D01*
X130867Y159166D01*
X130886Y159161D01*
X130989Y159169D01*
X131092Y159172D01*
X131111Y159179D01*
X131131Y159180D01*
X131226Y159221D01*
X131323Y159256D01*
X131339Y159269D01*
X131357Y159277D01*
X131488Y159381D01*
X131940Y159833D01*
X132519Y160168D01*
X133166Y160341D01*
X135977Y160341D01*
X135977Y153323D01*
X132002Y153323D01*
X131982Y153320D01*
X131963Y153322D01*
X131861Y153300D01*
X131759Y153283D01*
X131742Y153274D01*
X131722Y153270D01*
X131633Y153217D01*
X131542Y153168D01*
X131528Y153154D01*
X131511Y153144D01*
X131444Y153065D01*
X131404Y153023D01*
X126223Y153023D01*
G37*
%LPD*%
%LPC*%
G36*
X152823Y195177D02*
X152823Y195177D01*
X160832Y195177D01*
X160715Y194440D01*
X160246Y192995D01*
X159556Y191641D01*
X158663Y190412D01*
X157588Y189337D01*
X156359Y188444D01*
X155005Y187754D01*
X153560Y187285D01*
X152823Y187168D01*
X152823Y195177D01*
G37*
%LPD*%
%LPC*%
G36*
X139023Y153323D02*
X139023Y153323D01*
X139023Y160341D01*
X141834Y160341D01*
X142481Y160168D01*
X143060Y159833D01*
X143533Y159360D01*
X143868Y158781D01*
X144041Y158134D01*
X144041Y153323D01*
X139023Y153323D01*
G37*
%LPD*%
%LPC*%
G36*
X100959Y94823D02*
X100959Y94823D01*
X100959Y97634D01*
X101132Y98281D01*
X101467Y98860D01*
X101940Y99333D01*
X102519Y99668D01*
X103166Y99841D01*
X107977Y99841D01*
X107977Y94823D01*
X100959Y94823D01*
G37*
%LPD*%
%LPC*%
G36*
X141523Y37859D02*
X141523Y37859D01*
X141523Y44877D01*
X146541Y44877D01*
X146541Y40066D01*
X146368Y39419D01*
X146033Y38840D01*
X145560Y38367D01*
X144981Y38032D01*
X144334Y37859D01*
X141523Y37859D01*
G37*
%LPD*%
%LPC*%
G36*
X118159Y153023D02*
X118159Y153023D01*
X118159Y157834D01*
X118332Y158481D01*
X118667Y159060D01*
X119140Y159533D01*
X119719Y159868D01*
X120366Y160041D01*
X123177Y160041D01*
X123177Y153023D01*
X118159Y153023D01*
G37*
%LPD*%
%LPC*%
G36*
X111023Y86759D02*
X111023Y86759D01*
X111023Y91777D01*
X118041Y91777D01*
X118041Y88966D01*
X117868Y88319D01*
X117533Y87740D01*
X117060Y87267D01*
X116481Y86932D01*
X115834Y86759D01*
X111023Y86759D01*
G37*
%LPD*%
%LPC*%
G36*
X120366Y142959D02*
X120366Y142959D01*
X119719Y143132D01*
X119140Y143467D01*
X118667Y143940D01*
X118332Y144519D01*
X118159Y145166D01*
X118159Y149977D01*
X123177Y149977D01*
X123177Y142959D01*
X120366Y142959D01*
G37*
%LPD*%
%LPC*%
G36*
X103166Y86759D02*
X103166Y86759D01*
X102519Y86932D01*
X101940Y87267D01*
X101467Y87740D01*
X101132Y88319D01*
X100959Y88966D01*
X100959Y91777D01*
X107977Y91777D01*
X107977Y86759D01*
X103166Y86759D01*
G37*
%LPD*%
%LPC*%
G36*
X135666Y37859D02*
X135666Y37859D01*
X135019Y38032D01*
X134440Y38367D01*
X133967Y38840D01*
X133632Y39419D01*
X133459Y40066D01*
X133459Y44877D01*
X138477Y44877D01*
X138477Y37859D01*
X135666Y37859D01*
G37*
%LPD*%
%LPC*%
G36*
X125515Y84895D02*
X125515Y84895D01*
X125515Y90485D01*
X129073Y90485D01*
X129073Y87102D01*
X128900Y86455D01*
X128565Y85876D01*
X128092Y85403D01*
X127513Y85068D01*
X126866Y84895D01*
X125515Y84895D01*
G37*
%LPD*%
%LPC*%
G36*
X122134Y84895D02*
X122134Y84895D01*
X121487Y85068D01*
X120908Y85403D01*
X120435Y85876D01*
X120100Y86455D01*
X119927Y87102D01*
X119927Y90485D01*
X123485Y90485D01*
X123485Y84895D01*
X122134Y84895D01*
G37*
%LPD*%
%LPC*%
G36*
X124699Y151499D02*
X124699Y151499D01*
X124699Y151501D01*
X124701Y151501D01*
X124701Y151499D01*
X124699Y151499D01*
G37*
%LPD*%
%LPC*%
G36*
X109499Y93299D02*
X109499Y93299D01*
X109499Y93301D01*
X109501Y93301D01*
X109501Y93299D01*
X109499Y93299D01*
G37*
%LPD*%
D10*
X118600Y128300D03*
X144000Y128300D03*
D11*
X137500Y151800D03*
X155500Y151800D03*
X106700Y151500D03*
X124700Y151500D03*
D12*
X153300Y93300D03*
X153300Y111300D03*
D10*
X118500Y64800D03*
X143900Y64800D03*
D11*
X140000Y46400D03*
X122000Y46400D03*
D13*
X131000Y112500D03*
X137500Y91500D03*
X124500Y91500D03*
D12*
X109500Y93300D03*
X109500Y111300D03*
D14*
X111300Y196700D03*
X131300Y196700D03*
X151300Y196700D03*
X111200Y216800D03*
X131200Y216800D03*
X151200Y216800D03*
X121200Y173100D03*
X141200Y173100D03*
D15*
X106700Y151500D02*
X106700Y140200D01*
X118600Y128300D01*
X146400Y140300D02*
X155500Y151800D01*
X130600Y140300D02*
X118600Y128300D01*
X130600Y140300D02*
X146400Y140300D01*
X106700Y151500D02*
X106700Y166700D01*
X101700Y171700D01*
D16*
X101700Y171700D03*
D15*
X118500Y49900D02*
X122000Y46400D01*
X118500Y49900D02*
X118500Y64800D01*
X153300Y111300D02*
X157000Y115300D01*
X144000Y128300D01*
X131000Y112500D02*
X149500Y94000D01*
X153300Y93300D01*
X137500Y91500D02*
X137500Y97600D01*
X131200Y103900D01*
X116900Y103900D01*
X109500Y111300D01*
X109500Y120367D01*
X109384Y120484D01*
D16*
X109384Y120484D03*
M02*
