G04 EAGLE Gerber X2 export*
G04 #@! %TF.Part,Single*
G04 #@! %TF.FileFunction,Legend,Bot,1*
G04 #@! %TF.FilePolarity,Positive*
G04 #@! %TF.GenerationSoftware,Autodesk,EAGLE,8.6.0*
G04 #@! %TF.CreationDate,2018-03-03T07:21:58Z*
G75*
%MOMM*%
%FSLAX34Y34*%
%LPD*%
%AMOC8*
5,1,8,0,0,1.08239X$1,22.5*%
G01*
%ADD10C,0.127000*%
%ADD11C,0.152400*%


D10*
X153665Y137449D02*
X154738Y137449D01*
X154803Y137451D01*
X154867Y137457D01*
X154931Y137467D01*
X154995Y137480D01*
X155057Y137498D01*
X155118Y137519D01*
X155178Y137543D01*
X155236Y137572D01*
X155293Y137604D01*
X155347Y137639D01*
X155399Y137677D01*
X155449Y137719D01*
X155496Y137763D01*
X155540Y137810D01*
X155582Y137860D01*
X155620Y137912D01*
X155655Y137966D01*
X155687Y138023D01*
X155716Y138081D01*
X155740Y138141D01*
X155761Y138202D01*
X155779Y138264D01*
X155792Y138328D01*
X155802Y138392D01*
X155808Y138456D01*
X155810Y138521D01*
X155810Y141203D01*
X155808Y141268D01*
X155802Y141332D01*
X155792Y141396D01*
X155779Y141460D01*
X155761Y141522D01*
X155740Y141583D01*
X155716Y141643D01*
X155687Y141701D01*
X155655Y141758D01*
X155620Y141812D01*
X155582Y141864D01*
X155540Y141914D01*
X155496Y141961D01*
X155449Y142005D01*
X155399Y142047D01*
X155347Y142085D01*
X155293Y142120D01*
X155236Y142152D01*
X155178Y142181D01*
X155118Y142205D01*
X155057Y142226D01*
X154995Y142244D01*
X154931Y142257D01*
X154867Y142267D01*
X154803Y142273D01*
X154738Y142275D01*
X153665Y142275D01*
X151007Y137449D02*
X148862Y137449D01*
X151007Y137449D02*
X151007Y142275D01*
X148862Y142275D01*
X149398Y140130D02*
X151007Y140130D01*
X146174Y142275D02*
X146174Y137449D01*
X144565Y139594D02*
X146174Y142275D01*
X144565Y139594D02*
X142957Y142275D01*
X142957Y137449D01*
X139871Y141203D02*
X138530Y142275D01*
X138530Y137449D01*
X137190Y137449D02*
X139871Y137449D01*
X123938Y137149D02*
X122865Y137149D01*
X123938Y137149D02*
X124003Y137151D01*
X124067Y137157D01*
X124131Y137167D01*
X124195Y137180D01*
X124257Y137198D01*
X124318Y137219D01*
X124378Y137243D01*
X124436Y137272D01*
X124493Y137304D01*
X124547Y137339D01*
X124599Y137377D01*
X124649Y137419D01*
X124696Y137463D01*
X124740Y137510D01*
X124782Y137560D01*
X124820Y137612D01*
X124855Y137666D01*
X124887Y137723D01*
X124916Y137781D01*
X124940Y137841D01*
X124961Y137902D01*
X124979Y137964D01*
X124992Y138028D01*
X125002Y138092D01*
X125008Y138156D01*
X125010Y138221D01*
X125010Y140903D01*
X125008Y140968D01*
X125002Y141032D01*
X124992Y141096D01*
X124979Y141160D01*
X124961Y141222D01*
X124940Y141283D01*
X124916Y141343D01*
X124887Y141401D01*
X124855Y141458D01*
X124820Y141512D01*
X124782Y141564D01*
X124740Y141614D01*
X124696Y141661D01*
X124649Y141705D01*
X124599Y141747D01*
X124547Y141785D01*
X124493Y141820D01*
X124436Y141852D01*
X124378Y141881D01*
X124318Y141905D01*
X124257Y141926D01*
X124195Y141944D01*
X124131Y141957D01*
X124067Y141967D01*
X124003Y141973D01*
X123938Y141975D01*
X122865Y141975D01*
X120207Y137149D02*
X118062Y137149D01*
X120207Y137149D02*
X120207Y141975D01*
X118062Y141975D01*
X118598Y139830D02*
X120207Y139830D01*
X115374Y141975D02*
X115374Y137149D01*
X113765Y139294D02*
X115374Y141975D01*
X113765Y139294D02*
X112157Y141975D01*
X112157Y137149D01*
X107596Y141975D02*
X107528Y141973D01*
X107461Y141967D01*
X107394Y141958D01*
X107327Y141945D01*
X107262Y141928D01*
X107197Y141907D01*
X107134Y141883D01*
X107072Y141855D01*
X107012Y141824D01*
X106954Y141790D01*
X106898Y141752D01*
X106843Y141712D01*
X106792Y141668D01*
X106743Y141621D01*
X106696Y141572D01*
X106652Y141521D01*
X106612Y141466D01*
X106574Y141410D01*
X106540Y141352D01*
X106509Y141292D01*
X106481Y141230D01*
X106457Y141167D01*
X106436Y141102D01*
X106419Y141037D01*
X106406Y140970D01*
X106397Y140903D01*
X106391Y140836D01*
X106389Y140768D01*
X107596Y141975D02*
X107674Y141973D01*
X107752Y141967D01*
X107829Y141957D01*
X107906Y141944D01*
X107982Y141926D01*
X108057Y141905D01*
X108131Y141880D01*
X108203Y141851D01*
X108274Y141819D01*
X108343Y141783D01*
X108411Y141744D01*
X108476Y141701D01*
X108539Y141655D01*
X108600Y141606D01*
X108658Y141554D01*
X108713Y141499D01*
X108766Y141442D01*
X108815Y141382D01*
X108862Y141319D01*
X108905Y141254D01*
X108945Y141188D01*
X108982Y141119D01*
X109015Y141048D01*
X109045Y140976D01*
X109071Y140902D01*
X106792Y139830D02*
X106743Y139879D01*
X106696Y139931D01*
X106653Y139986D01*
X106612Y140043D01*
X106574Y140102D01*
X106540Y140163D01*
X106509Y140226D01*
X106481Y140290D01*
X106457Y140356D01*
X106437Y140422D01*
X106420Y140490D01*
X106407Y140559D01*
X106398Y140628D01*
X106392Y140698D01*
X106390Y140768D01*
X106792Y139830D02*
X109071Y137149D01*
X106390Y137149D01*
X162825Y93268D02*
X167651Y93268D01*
X167651Y94608D01*
X167649Y94679D01*
X167643Y94751D01*
X167634Y94821D01*
X167621Y94891D01*
X167604Y94961D01*
X167583Y95029D01*
X167559Y95096D01*
X167531Y95162D01*
X167500Y95226D01*
X167465Y95289D01*
X167427Y95349D01*
X167386Y95408D01*
X167342Y95464D01*
X167295Y95518D01*
X167246Y95569D01*
X167193Y95617D01*
X167138Y95663D01*
X167081Y95705D01*
X167021Y95745D01*
X166960Y95781D01*
X166896Y95814D01*
X166831Y95843D01*
X166765Y95869D01*
X166697Y95892D01*
X166628Y95911D01*
X166558Y95926D01*
X166488Y95937D01*
X166417Y95945D01*
X166346Y95949D01*
X166274Y95949D01*
X166203Y95945D01*
X166132Y95937D01*
X166062Y95926D01*
X165992Y95911D01*
X165923Y95892D01*
X165855Y95869D01*
X165789Y95843D01*
X165724Y95814D01*
X165660Y95781D01*
X165599Y95745D01*
X165539Y95705D01*
X165482Y95663D01*
X165427Y95617D01*
X165374Y95569D01*
X165325Y95518D01*
X165278Y95464D01*
X165234Y95408D01*
X165193Y95349D01*
X165155Y95289D01*
X165120Y95226D01*
X165089Y95162D01*
X165061Y95096D01*
X165037Y95029D01*
X165016Y94961D01*
X164999Y94891D01*
X164986Y94821D01*
X164977Y94751D01*
X164971Y94679D01*
X164969Y94608D01*
X164970Y94608D02*
X164970Y93268D01*
X164970Y94876D02*
X162825Y95949D01*
X162289Y98410D02*
X162289Y100555D01*
X162825Y103282D02*
X162825Y105427D01*
X162825Y103282D02*
X167651Y103282D01*
X167651Y105427D01*
X165506Y104891D02*
X165506Y103282D01*
X167651Y108115D02*
X162825Y108115D01*
X164970Y109724D02*
X167651Y108115D01*
X164970Y109724D02*
X167651Y111332D01*
X162825Y111332D01*
X137720Y60751D02*
X137720Y55925D01*
X137720Y60751D02*
X136379Y60751D01*
X136308Y60749D01*
X136236Y60743D01*
X136166Y60734D01*
X136096Y60721D01*
X136026Y60704D01*
X135958Y60683D01*
X135891Y60659D01*
X135825Y60631D01*
X135761Y60600D01*
X135698Y60565D01*
X135638Y60527D01*
X135579Y60486D01*
X135523Y60442D01*
X135469Y60395D01*
X135418Y60346D01*
X135370Y60293D01*
X135324Y60238D01*
X135282Y60181D01*
X135242Y60121D01*
X135206Y60060D01*
X135173Y59996D01*
X135144Y59931D01*
X135118Y59865D01*
X135095Y59797D01*
X135076Y59728D01*
X135061Y59658D01*
X135050Y59588D01*
X135042Y59517D01*
X135038Y59446D01*
X135038Y59374D01*
X135042Y59303D01*
X135050Y59232D01*
X135061Y59162D01*
X135076Y59092D01*
X135095Y59023D01*
X135118Y58955D01*
X135144Y58889D01*
X135173Y58824D01*
X135206Y58760D01*
X135242Y58699D01*
X135282Y58639D01*
X135324Y58582D01*
X135370Y58527D01*
X135418Y58474D01*
X135469Y58425D01*
X135523Y58378D01*
X135579Y58334D01*
X135638Y58293D01*
X135698Y58255D01*
X135761Y58220D01*
X135825Y58189D01*
X135891Y58161D01*
X135958Y58137D01*
X136026Y58116D01*
X136096Y58099D01*
X136166Y58086D01*
X136236Y58077D01*
X136308Y58071D01*
X136379Y58069D01*
X136379Y58070D02*
X137720Y58070D01*
X136111Y58070D02*
X135039Y55925D01*
X132050Y55925D02*
X132050Y60751D01*
X130710Y60751D01*
X130639Y60749D01*
X130567Y60743D01*
X130497Y60734D01*
X130427Y60721D01*
X130357Y60704D01*
X130289Y60683D01*
X130222Y60659D01*
X130156Y60631D01*
X130092Y60600D01*
X130029Y60565D01*
X129969Y60527D01*
X129910Y60486D01*
X129854Y60442D01*
X129800Y60395D01*
X129749Y60346D01*
X129701Y60293D01*
X129655Y60238D01*
X129613Y60181D01*
X129573Y60121D01*
X129537Y60060D01*
X129504Y59996D01*
X129475Y59931D01*
X129449Y59865D01*
X129426Y59797D01*
X129407Y59728D01*
X129392Y59658D01*
X129381Y59588D01*
X129373Y59517D01*
X129369Y59446D01*
X129369Y59374D01*
X129373Y59303D01*
X129381Y59232D01*
X129392Y59162D01*
X129407Y59092D01*
X129426Y59023D01*
X129449Y58955D01*
X129475Y58889D01*
X129504Y58824D01*
X129537Y58760D01*
X129573Y58699D01*
X129613Y58639D01*
X129655Y58582D01*
X129701Y58527D01*
X129749Y58474D01*
X129800Y58425D01*
X129854Y58378D01*
X129910Y58334D01*
X129969Y58293D01*
X130029Y58255D01*
X130092Y58220D01*
X130156Y58189D01*
X130222Y58161D01*
X130289Y58137D01*
X130357Y58116D01*
X130427Y58099D01*
X130497Y58086D01*
X130567Y58077D01*
X130639Y58071D01*
X130710Y58069D01*
X130710Y58070D02*
X132050Y58070D01*
X130442Y58070D02*
X129369Y55925D01*
X126425Y55925D02*
X124280Y55925D01*
X126425Y55925D02*
X126425Y60751D01*
X124280Y60751D01*
X124817Y58606D02*
X126425Y58606D01*
D11*
X141000Y94200D02*
X141000Y109800D01*
X121100Y109700D02*
X121100Y94100D01*
D10*
X119025Y90384D02*
X123851Y90384D01*
X123851Y91725D01*
X123849Y91796D01*
X123843Y91868D01*
X123834Y91938D01*
X123821Y92008D01*
X123804Y92078D01*
X123783Y92146D01*
X123759Y92213D01*
X123731Y92279D01*
X123700Y92343D01*
X123665Y92406D01*
X123627Y92466D01*
X123586Y92525D01*
X123542Y92581D01*
X123495Y92635D01*
X123446Y92686D01*
X123393Y92734D01*
X123338Y92780D01*
X123281Y92822D01*
X123221Y92862D01*
X123160Y92898D01*
X123096Y92931D01*
X123031Y92960D01*
X122965Y92986D01*
X122897Y93009D01*
X122828Y93028D01*
X122758Y93043D01*
X122688Y93054D01*
X122617Y93062D01*
X122546Y93066D01*
X122474Y93066D01*
X122403Y93062D01*
X122332Y93054D01*
X122262Y93043D01*
X122192Y93028D01*
X122123Y93009D01*
X122055Y92986D01*
X121989Y92960D01*
X121924Y92931D01*
X121860Y92898D01*
X121799Y92862D01*
X121739Y92822D01*
X121682Y92780D01*
X121627Y92734D01*
X121574Y92686D01*
X121525Y92635D01*
X121478Y92581D01*
X121434Y92525D01*
X121393Y92466D01*
X121355Y92406D01*
X121320Y92343D01*
X121289Y92279D01*
X121261Y92213D01*
X121237Y92146D01*
X121216Y92078D01*
X121199Y92008D01*
X121186Y91938D01*
X121177Y91868D01*
X121171Y91796D01*
X121169Y91725D01*
X121170Y91725D02*
X121170Y90384D01*
X121170Y91993D02*
X119025Y93065D01*
X118489Y95526D02*
X118489Y97671D01*
X119025Y100398D02*
X119025Y102543D01*
X119025Y100398D02*
X123851Y100398D01*
X123851Y102543D01*
X121706Y102007D02*
X121706Y100398D01*
X123851Y105231D02*
X119025Y105231D01*
X121170Y106840D02*
X123851Y105231D01*
X121170Y106840D02*
X123851Y108449D01*
X119025Y108449D01*
X122779Y111535D02*
X123851Y112875D01*
X119025Y112875D01*
X119025Y111535D02*
X119025Y114216D01*
M02*
