M48
;GenerationSoftware,Autodesk,EAGLE,8.6.0*%
;CreationDate,2018-03-03T07:32:49Z*%
FMAT,2
ICI,OFF
METRIC,TZ,000.000
T2C0.350
T1C0.800
%
G90
M71
T1
X56250Y12000
X16000Y5500
X8000Y5500
X10000Y5500
X12000Y5500
X14000Y5500
X48000Y5500
X50000Y5500
X52000Y5500
X54000Y5500
X56000Y5500
X60500Y14000
X60500Y12000
X60500Y10000
X60500Y8000
X60500Y6000
X3500Y6000
X3500Y8000
X3500Y10000
X3500Y12000
X3500Y14000
X18000Y5500
X46000Y5500
X54250Y10000
X54250Y12000
X54250Y14000
X56250Y10000
X56250Y14000
X9750Y10000
X9750Y12000
X9750Y14000
X7750Y10000
X7750Y12000
X7750Y14000
X23000Y5500
X41000Y5500
X32000Y21700
T2
X28600Y10400
X41500Y12400
X40300Y13100
X40100Y13900
X51800Y14700
X29751Y16244
X22000Y15700
X31800Y11600
X33700Y9700
X32100Y13100
X32700Y14400
X24500Y13281
X20600Y9300
X34500Y15300
X38900Y21200
X30800Y17900
X57800Y7200
X42500Y8800
X50900Y9500
X29750Y17000
X31790Y16210
X26000Y21800
X30000Y12900
X16000Y10519
X36600Y8400
X34300Y12000
X39600Y20300
X32300Y17800
X39661Y18361
X34200Y18229
X39500Y17400
X33333Y18229
X28500Y17600
X18000Y8400
X18600Y10000
X24200Y18419
X28400Y18500
X15700Y8500
X33800Y10600
X17600Y9800
X23420Y19000
X28000Y9600
X29000Y11400
X29500Y12319
X35500Y12700
X43700Y7800
X42200Y11100
X32200Y10500
X30500Y4560
M30