G04 EAGLE Gerber X2 export*
G04 #@! %TF.Part,Single*
G04 #@! %TF.FileFunction,Legend,Top,1*
G04 #@! %TF.FilePolarity,Positive*
G04 #@! %TF.GenerationSoftware,Autodesk,EAGLE,8.6.0*
G04 #@! %TF.CreationDate,2018-03-03T07:32:50Z*
G75*
%MOMM*%
%FSLAX34Y34*%
%LPD*%
%AMOC8*
5,1,8,0,0,1.08239X$1,22.5*%
G01*
%ADD10C,0.127000*%
%ADD11C,0.152400*%
%ADD12C,0.076200*%
%ADD13R,0.508000X0.508000*%

G36*
X353065Y164879D02*
X353065Y164879D01*
X353111Y164892D01*
X353187Y164903D01*
X354378Y165264D01*
X354421Y165286D01*
X354493Y165312D01*
X355591Y165899D01*
X355629Y165929D01*
X355694Y165968D01*
X356657Y166758D01*
X356688Y166794D01*
X356745Y166846D01*
X357534Y167808D01*
X357558Y167850D01*
X357603Y167911D01*
X358190Y169009D01*
X358205Y169055D01*
X358238Y169124D01*
X358599Y170315D01*
X358604Y170356D01*
X358608Y170368D01*
X358608Y170376D01*
X358623Y170437D01*
X358745Y171676D01*
X358742Y171724D01*
X358745Y171800D01*
X358623Y173039D01*
X358610Y173085D01*
X358607Y173110D01*
X358606Y173130D01*
X358602Y173139D01*
X358599Y173161D01*
X358238Y174352D01*
X358216Y174395D01*
X358190Y174467D01*
X357603Y175565D01*
X357574Y175603D01*
X357534Y175668D01*
X356745Y176631D01*
X356708Y176662D01*
X356657Y176718D01*
X355694Y177508D01*
X355652Y177532D01*
X355591Y177577D01*
X354493Y178164D01*
X354447Y178179D01*
X354378Y178212D01*
X353187Y178573D01*
X353139Y178579D01*
X353065Y178597D01*
X351826Y178719D01*
X351778Y178715D01*
X351702Y178719D01*
X350463Y178597D01*
X350417Y178584D01*
X350341Y178573D01*
X349150Y178212D01*
X349107Y178190D01*
X349035Y178164D01*
X347937Y177577D01*
X347900Y177547D01*
X347834Y177508D01*
X346872Y176718D01*
X346840Y176682D01*
X346784Y176631D01*
X345994Y175668D01*
X345971Y175626D01*
X345925Y175565D01*
X345338Y174467D01*
X345323Y174421D01*
X345291Y174352D01*
X344929Y173161D01*
X344924Y173118D01*
X344916Y173093D01*
X344916Y173082D01*
X344905Y173039D01*
X344783Y171800D01*
X344787Y171752D01*
X344783Y171676D01*
X344905Y170437D01*
X344918Y170391D01*
X344929Y170315D01*
X345291Y169124D01*
X345313Y169081D01*
X345338Y169009D01*
X345925Y167911D01*
X345955Y167873D01*
X345994Y167808D01*
X346784Y166846D01*
X346820Y166814D01*
X346872Y166758D01*
X347834Y165968D01*
X347876Y165944D01*
X347937Y165899D01*
X349035Y165312D01*
X349081Y165297D01*
X349150Y165264D01*
X350341Y164903D01*
X350389Y164897D01*
X350463Y164879D01*
X351702Y164757D01*
X351750Y164761D01*
X351826Y164757D01*
X353065Y164879D01*
G37*
D10*
X487524Y141244D02*
X486452Y141244D01*
X486387Y141246D01*
X486323Y141252D01*
X486259Y141262D01*
X486195Y141275D01*
X486133Y141293D01*
X486072Y141314D01*
X486012Y141338D01*
X485954Y141367D01*
X485897Y141399D01*
X485843Y141434D01*
X485791Y141472D01*
X485741Y141514D01*
X485694Y141558D01*
X485650Y141605D01*
X485608Y141655D01*
X485570Y141707D01*
X485535Y141761D01*
X485503Y141818D01*
X485474Y141876D01*
X485450Y141936D01*
X485429Y141997D01*
X485411Y142059D01*
X485398Y142123D01*
X485388Y142187D01*
X485382Y142251D01*
X485380Y142316D01*
X485379Y142316D02*
X485379Y144997D01*
X485380Y144997D02*
X485382Y145062D01*
X485388Y145126D01*
X485398Y145190D01*
X485411Y145254D01*
X485429Y145316D01*
X485450Y145377D01*
X485474Y145437D01*
X485503Y145495D01*
X485535Y145552D01*
X485570Y145606D01*
X485608Y145658D01*
X485650Y145708D01*
X485694Y145755D01*
X485741Y145799D01*
X485791Y145841D01*
X485843Y145879D01*
X485897Y145914D01*
X485954Y145946D01*
X486012Y145975D01*
X486072Y145999D01*
X486133Y146020D01*
X486195Y146038D01*
X486259Y146051D01*
X486323Y146061D01*
X486387Y146067D01*
X486452Y146069D01*
X486452Y146070D02*
X487524Y146070D01*
X489980Y144997D02*
X491321Y146070D01*
X491321Y141244D01*
X492661Y141244D02*
X489980Y141244D01*
X488495Y103373D02*
X487423Y103373D01*
X487423Y103374D02*
X487358Y103376D01*
X487294Y103382D01*
X487230Y103392D01*
X487166Y103405D01*
X487104Y103423D01*
X487043Y103444D01*
X486983Y103468D01*
X486925Y103497D01*
X486868Y103529D01*
X486814Y103564D01*
X486762Y103602D01*
X486712Y103644D01*
X486665Y103688D01*
X486621Y103735D01*
X486579Y103785D01*
X486541Y103837D01*
X486506Y103891D01*
X486474Y103948D01*
X486445Y104006D01*
X486421Y104066D01*
X486400Y104127D01*
X486382Y104189D01*
X486369Y104253D01*
X486359Y104317D01*
X486353Y104381D01*
X486351Y104446D01*
X486350Y104446D02*
X486350Y107127D01*
X486351Y107127D02*
X486353Y107192D01*
X486359Y107256D01*
X486369Y107320D01*
X486382Y107384D01*
X486400Y107446D01*
X486421Y107507D01*
X486445Y107567D01*
X486474Y107625D01*
X486506Y107682D01*
X486541Y107736D01*
X486579Y107788D01*
X486621Y107838D01*
X486665Y107885D01*
X486712Y107929D01*
X486762Y107971D01*
X486814Y108009D01*
X486868Y108044D01*
X486925Y108076D01*
X486983Y108105D01*
X487043Y108129D01*
X487104Y108150D01*
X487166Y108168D01*
X487230Y108181D01*
X487294Y108191D01*
X487358Y108197D01*
X487423Y108199D01*
X488495Y108199D01*
X492425Y108200D02*
X492493Y108198D01*
X492560Y108192D01*
X492627Y108183D01*
X492694Y108170D01*
X492759Y108153D01*
X492824Y108132D01*
X492887Y108108D01*
X492949Y108080D01*
X493009Y108049D01*
X493067Y108015D01*
X493123Y107977D01*
X493178Y107937D01*
X493229Y107893D01*
X493278Y107846D01*
X493325Y107797D01*
X493369Y107746D01*
X493409Y107691D01*
X493447Y107635D01*
X493481Y107577D01*
X493512Y107517D01*
X493540Y107455D01*
X493564Y107392D01*
X493585Y107327D01*
X493602Y107262D01*
X493615Y107195D01*
X493624Y107128D01*
X493630Y107061D01*
X493632Y106993D01*
X492425Y108199D02*
X492347Y108197D01*
X492269Y108191D01*
X492192Y108181D01*
X492115Y108168D01*
X492039Y108150D01*
X491964Y108129D01*
X491890Y108104D01*
X491818Y108075D01*
X491747Y108043D01*
X491678Y108007D01*
X491610Y107968D01*
X491545Y107925D01*
X491482Y107879D01*
X491421Y107830D01*
X491363Y107778D01*
X491308Y107723D01*
X491255Y107666D01*
X491206Y107606D01*
X491159Y107543D01*
X491116Y107479D01*
X491076Y107412D01*
X491039Y107343D01*
X491006Y107272D01*
X490976Y107200D01*
X490950Y107127D01*
X493230Y106055D02*
X493279Y106104D01*
X493326Y106156D01*
X493369Y106211D01*
X493410Y106268D01*
X493448Y106327D01*
X493482Y106388D01*
X493513Y106451D01*
X493541Y106515D01*
X493565Y106581D01*
X493585Y106647D01*
X493602Y106715D01*
X493615Y106784D01*
X493624Y106853D01*
X493630Y106923D01*
X493632Y106993D01*
X493230Y106054D02*
X490951Y103373D01*
X493632Y103373D01*
X341024Y204126D02*
X339951Y204126D01*
X339886Y204128D01*
X339822Y204134D01*
X339758Y204144D01*
X339694Y204157D01*
X339632Y204175D01*
X339571Y204196D01*
X339511Y204220D01*
X339453Y204249D01*
X339396Y204281D01*
X339342Y204316D01*
X339290Y204354D01*
X339240Y204396D01*
X339193Y204440D01*
X339149Y204487D01*
X339107Y204537D01*
X339069Y204589D01*
X339034Y204643D01*
X339002Y204700D01*
X338973Y204758D01*
X338949Y204818D01*
X338928Y204879D01*
X338910Y204941D01*
X338897Y205005D01*
X338887Y205069D01*
X338881Y205133D01*
X338879Y205198D01*
X338879Y207879D01*
X338881Y207944D01*
X338887Y208008D01*
X338897Y208072D01*
X338910Y208136D01*
X338928Y208198D01*
X338949Y208259D01*
X338973Y208319D01*
X339002Y208377D01*
X339034Y208434D01*
X339069Y208488D01*
X339107Y208540D01*
X339149Y208590D01*
X339193Y208637D01*
X339240Y208681D01*
X339290Y208723D01*
X339342Y208761D01*
X339396Y208796D01*
X339453Y208828D01*
X339511Y208857D01*
X339571Y208881D01*
X339632Y208902D01*
X339694Y208920D01*
X339758Y208933D01*
X339822Y208943D01*
X339886Y208949D01*
X339951Y208951D01*
X339951Y208952D02*
X341024Y208952D01*
X343199Y203589D02*
X345344Y203589D01*
X348198Y206807D02*
X349538Y206807D01*
X349609Y206805D01*
X349681Y206799D01*
X349751Y206790D01*
X349821Y206777D01*
X349891Y206760D01*
X349959Y206739D01*
X350026Y206715D01*
X350092Y206687D01*
X350156Y206656D01*
X350219Y206621D01*
X350279Y206583D01*
X350338Y206542D01*
X350394Y206498D01*
X350448Y206451D01*
X350499Y206402D01*
X350547Y206349D01*
X350593Y206294D01*
X350635Y206237D01*
X350675Y206177D01*
X350711Y206116D01*
X350744Y206052D01*
X350773Y205987D01*
X350799Y205921D01*
X350822Y205853D01*
X350841Y205784D01*
X350856Y205714D01*
X350867Y205644D01*
X350875Y205573D01*
X350879Y205502D01*
X350879Y205430D01*
X350875Y205359D01*
X350867Y205288D01*
X350856Y205218D01*
X350841Y205148D01*
X350822Y205079D01*
X350799Y205011D01*
X350773Y204945D01*
X350744Y204880D01*
X350711Y204816D01*
X350675Y204755D01*
X350635Y204695D01*
X350593Y204638D01*
X350547Y204583D01*
X350499Y204530D01*
X350448Y204481D01*
X350394Y204434D01*
X350338Y204390D01*
X350279Y204349D01*
X350219Y204311D01*
X350156Y204276D01*
X350092Y204245D01*
X350026Y204217D01*
X349959Y204193D01*
X349891Y204172D01*
X349821Y204155D01*
X349751Y204142D01*
X349681Y204133D01*
X349609Y204127D01*
X349538Y204125D01*
X349538Y204126D02*
X348198Y204126D01*
X348198Y208952D01*
X349538Y208952D01*
X349538Y208951D02*
X349603Y208949D01*
X349667Y208943D01*
X349731Y208933D01*
X349795Y208920D01*
X349857Y208902D01*
X349918Y208881D01*
X349978Y208857D01*
X350036Y208828D01*
X350093Y208796D01*
X350147Y208761D01*
X350199Y208723D01*
X350249Y208681D01*
X350296Y208637D01*
X350340Y208590D01*
X350382Y208540D01*
X350420Y208488D01*
X350455Y208434D01*
X350487Y208377D01*
X350516Y208319D01*
X350540Y208259D01*
X350561Y208198D01*
X350579Y208136D01*
X350592Y208072D01*
X350602Y208008D01*
X350608Y207944D01*
X350610Y207879D01*
X350608Y207814D01*
X350602Y207750D01*
X350592Y207686D01*
X350579Y207622D01*
X350561Y207560D01*
X350540Y207499D01*
X350516Y207439D01*
X350487Y207381D01*
X350455Y207324D01*
X350420Y207270D01*
X350382Y207218D01*
X350340Y207168D01*
X350296Y207121D01*
X350249Y207077D01*
X350199Y207035D01*
X350147Y206997D01*
X350093Y206962D01*
X350036Y206930D01*
X349978Y206901D01*
X349918Y206877D01*
X349857Y206856D01*
X349795Y206838D01*
X349731Y206825D01*
X349667Y206815D01*
X349603Y206809D01*
X349538Y206807D01*
X353087Y204126D02*
X354695Y208952D01*
X356304Y204126D01*
X355902Y205332D02*
X353489Y205332D01*
X359816Y204126D02*
X359816Y208952D01*
X358475Y208952D02*
X361157Y208952D01*
X228467Y153575D02*
X228467Y152503D01*
X228466Y152503D02*
X228464Y152438D01*
X228458Y152374D01*
X228448Y152310D01*
X228435Y152246D01*
X228417Y152184D01*
X228396Y152123D01*
X228372Y152063D01*
X228343Y152005D01*
X228311Y151948D01*
X228276Y151894D01*
X228238Y151842D01*
X228196Y151792D01*
X228152Y151745D01*
X228105Y151701D01*
X228055Y151659D01*
X228003Y151621D01*
X227949Y151586D01*
X227892Y151554D01*
X227834Y151525D01*
X227774Y151501D01*
X227713Y151480D01*
X227651Y151462D01*
X227587Y151449D01*
X227523Y151439D01*
X227459Y151433D01*
X227394Y151431D01*
X227394Y151430D02*
X224713Y151430D01*
X224648Y151432D01*
X224584Y151438D01*
X224520Y151448D01*
X224456Y151461D01*
X224394Y151479D01*
X224333Y151500D01*
X224273Y151525D01*
X224214Y151553D01*
X224158Y151585D01*
X224103Y151620D01*
X224051Y151658D01*
X224001Y151700D01*
X223954Y151744D01*
X223910Y151791D01*
X223868Y151841D01*
X223830Y151893D01*
X223795Y151948D01*
X223763Y152004D01*
X223735Y152063D01*
X223710Y152122D01*
X223689Y152184D01*
X223671Y152246D01*
X223658Y152310D01*
X223648Y152374D01*
X223642Y152438D01*
X223640Y152503D01*
X223641Y152503D02*
X223641Y153575D01*
X229003Y155750D02*
X229003Y157895D01*
X228467Y161761D02*
X223641Y160152D01*
X223641Y163369D02*
X228467Y161761D01*
X224713Y165906D02*
X223641Y167247D01*
X228467Y167247D01*
X228467Y165906D02*
X228467Y168588D01*
X377495Y93537D02*
X378567Y93537D01*
X377495Y93537D02*
X377430Y93539D01*
X377366Y93545D01*
X377302Y93555D01*
X377238Y93568D01*
X377176Y93586D01*
X377115Y93607D01*
X377055Y93631D01*
X376997Y93660D01*
X376940Y93692D01*
X376886Y93727D01*
X376834Y93765D01*
X376784Y93807D01*
X376737Y93851D01*
X376693Y93898D01*
X376651Y93948D01*
X376613Y94000D01*
X376578Y94054D01*
X376546Y94111D01*
X376517Y94169D01*
X376493Y94229D01*
X376472Y94290D01*
X376454Y94352D01*
X376441Y94416D01*
X376431Y94480D01*
X376425Y94544D01*
X376423Y94609D01*
X376422Y94609D02*
X376422Y97290D01*
X376423Y97290D02*
X376425Y97355D01*
X376431Y97419D01*
X376441Y97483D01*
X376454Y97547D01*
X376472Y97609D01*
X376493Y97670D01*
X376517Y97730D01*
X376546Y97788D01*
X376578Y97845D01*
X376613Y97899D01*
X376651Y97951D01*
X376693Y98001D01*
X376737Y98048D01*
X376784Y98092D01*
X376834Y98134D01*
X376886Y98172D01*
X376940Y98207D01*
X376997Y98239D01*
X377055Y98268D01*
X377115Y98292D01*
X377176Y98313D01*
X377238Y98331D01*
X377302Y98344D01*
X377366Y98354D01*
X377430Y98360D01*
X377495Y98362D01*
X377495Y98363D02*
X378567Y98363D01*
X380743Y93001D02*
X382887Y93001D01*
X386753Y93537D02*
X385144Y98363D01*
X388361Y98363D02*
X386753Y93537D01*
X392373Y98363D02*
X392441Y98361D01*
X392508Y98355D01*
X392575Y98346D01*
X392642Y98333D01*
X392707Y98316D01*
X392772Y98295D01*
X392835Y98271D01*
X392897Y98243D01*
X392957Y98212D01*
X393015Y98178D01*
X393071Y98140D01*
X393126Y98100D01*
X393177Y98056D01*
X393226Y98009D01*
X393273Y97960D01*
X393317Y97909D01*
X393357Y97854D01*
X393395Y97798D01*
X393429Y97740D01*
X393460Y97680D01*
X393488Y97618D01*
X393512Y97555D01*
X393533Y97490D01*
X393550Y97425D01*
X393563Y97358D01*
X393572Y97291D01*
X393578Y97224D01*
X393580Y97156D01*
X392373Y98363D02*
X392295Y98361D01*
X392217Y98355D01*
X392140Y98345D01*
X392063Y98332D01*
X391987Y98314D01*
X391912Y98293D01*
X391838Y98268D01*
X391766Y98239D01*
X391695Y98207D01*
X391626Y98171D01*
X391558Y98132D01*
X391493Y98089D01*
X391430Y98043D01*
X391369Y97994D01*
X391311Y97942D01*
X391256Y97887D01*
X391203Y97830D01*
X391154Y97770D01*
X391107Y97707D01*
X391064Y97643D01*
X391024Y97576D01*
X390987Y97507D01*
X390954Y97436D01*
X390924Y97364D01*
X390898Y97291D01*
X393178Y96218D02*
X393227Y96267D01*
X393274Y96319D01*
X393317Y96374D01*
X393358Y96431D01*
X393396Y96490D01*
X393430Y96551D01*
X393461Y96614D01*
X393489Y96678D01*
X393513Y96744D01*
X393533Y96810D01*
X393550Y96878D01*
X393563Y96947D01*
X393572Y97016D01*
X393578Y97086D01*
X393580Y97156D01*
X393177Y96218D02*
X390899Y93537D01*
X393580Y93537D01*
X389375Y202489D02*
X389375Y203561D01*
X389374Y202489D02*
X389372Y202424D01*
X389366Y202360D01*
X389356Y202296D01*
X389343Y202232D01*
X389325Y202170D01*
X389304Y202109D01*
X389280Y202049D01*
X389251Y201991D01*
X389219Y201934D01*
X389184Y201880D01*
X389146Y201828D01*
X389104Y201778D01*
X389060Y201731D01*
X389013Y201687D01*
X388963Y201645D01*
X388911Y201607D01*
X388857Y201572D01*
X388800Y201540D01*
X388742Y201511D01*
X388682Y201487D01*
X388621Y201466D01*
X388559Y201448D01*
X388495Y201435D01*
X388431Y201425D01*
X388367Y201419D01*
X388302Y201417D01*
X388302Y201416D02*
X385621Y201416D01*
X385556Y201418D01*
X385492Y201424D01*
X385428Y201434D01*
X385364Y201447D01*
X385302Y201465D01*
X385241Y201486D01*
X385181Y201511D01*
X385122Y201539D01*
X385066Y201571D01*
X385011Y201606D01*
X384959Y201644D01*
X384909Y201686D01*
X384862Y201730D01*
X384818Y201777D01*
X384776Y201827D01*
X384738Y201879D01*
X384703Y201934D01*
X384671Y201990D01*
X384643Y202049D01*
X384618Y202108D01*
X384597Y202170D01*
X384579Y202232D01*
X384566Y202296D01*
X384556Y202360D01*
X384550Y202424D01*
X384548Y202489D01*
X384549Y202489D02*
X384549Y203561D01*
X389911Y205736D02*
X389911Y207881D01*
X389375Y211747D02*
X384549Y210138D01*
X384549Y213355D02*
X389375Y211747D01*
X389375Y215892D02*
X389375Y217233D01*
X389373Y217304D01*
X389367Y217376D01*
X389358Y217446D01*
X389345Y217516D01*
X389328Y217586D01*
X389307Y217654D01*
X389283Y217721D01*
X389255Y217787D01*
X389224Y217851D01*
X389189Y217914D01*
X389151Y217974D01*
X389110Y218033D01*
X389066Y218089D01*
X389019Y218143D01*
X388970Y218194D01*
X388917Y218242D01*
X388862Y218288D01*
X388805Y218330D01*
X388745Y218370D01*
X388684Y218406D01*
X388620Y218439D01*
X388555Y218468D01*
X388489Y218494D01*
X388421Y218517D01*
X388352Y218536D01*
X388282Y218551D01*
X388212Y218562D01*
X388141Y218570D01*
X388070Y218574D01*
X387998Y218574D01*
X387927Y218570D01*
X387856Y218562D01*
X387786Y218551D01*
X387716Y218536D01*
X387647Y218517D01*
X387579Y218494D01*
X387513Y218468D01*
X387448Y218439D01*
X387384Y218406D01*
X387323Y218370D01*
X387263Y218330D01*
X387206Y218288D01*
X387151Y218242D01*
X387098Y218194D01*
X387049Y218143D01*
X387002Y218089D01*
X386958Y218033D01*
X386917Y217974D01*
X386879Y217914D01*
X386844Y217851D01*
X386813Y217787D01*
X386785Y217721D01*
X386761Y217654D01*
X386740Y217586D01*
X386723Y217516D01*
X386710Y217446D01*
X386701Y217376D01*
X386695Y217304D01*
X386693Y217233D01*
X384549Y217501D02*
X384549Y215892D01*
X384549Y217501D02*
X384551Y217566D01*
X384557Y217630D01*
X384567Y217694D01*
X384580Y217758D01*
X384598Y217820D01*
X384619Y217881D01*
X384643Y217941D01*
X384672Y217999D01*
X384704Y218056D01*
X384739Y218110D01*
X384777Y218162D01*
X384819Y218212D01*
X384863Y218259D01*
X384910Y218303D01*
X384960Y218345D01*
X385012Y218383D01*
X385066Y218418D01*
X385123Y218450D01*
X385181Y218479D01*
X385241Y218503D01*
X385302Y218524D01*
X385364Y218542D01*
X385428Y218555D01*
X385492Y218565D01*
X385556Y218571D01*
X385621Y218573D01*
X385686Y218571D01*
X385750Y218565D01*
X385814Y218555D01*
X385878Y218542D01*
X385940Y218524D01*
X386001Y218503D01*
X386061Y218479D01*
X386119Y218450D01*
X386176Y218418D01*
X386230Y218383D01*
X386282Y218345D01*
X386332Y218303D01*
X386379Y218259D01*
X386423Y218212D01*
X386465Y218162D01*
X386503Y218110D01*
X386538Y218056D01*
X386570Y217999D01*
X386599Y217941D01*
X386623Y217881D01*
X386644Y217820D01*
X386662Y217758D01*
X386675Y217694D01*
X386685Y217630D01*
X386691Y217566D01*
X386693Y217501D01*
X386694Y217501D02*
X386694Y216429D01*
X240574Y93518D02*
X239502Y93518D01*
X239502Y93519D02*
X239437Y93521D01*
X239373Y93527D01*
X239309Y93537D01*
X239245Y93550D01*
X239183Y93568D01*
X239122Y93589D01*
X239062Y93613D01*
X239004Y93642D01*
X238947Y93674D01*
X238893Y93709D01*
X238841Y93747D01*
X238791Y93789D01*
X238744Y93833D01*
X238700Y93880D01*
X238658Y93930D01*
X238620Y93982D01*
X238585Y94036D01*
X238553Y94093D01*
X238524Y94151D01*
X238500Y94211D01*
X238479Y94272D01*
X238461Y94334D01*
X238448Y94398D01*
X238438Y94462D01*
X238432Y94526D01*
X238430Y94591D01*
X238429Y94591D02*
X238429Y97272D01*
X238430Y97272D02*
X238432Y97337D01*
X238438Y97401D01*
X238448Y97465D01*
X238461Y97529D01*
X238479Y97591D01*
X238500Y97652D01*
X238524Y97712D01*
X238553Y97770D01*
X238585Y97827D01*
X238620Y97881D01*
X238658Y97933D01*
X238700Y97983D01*
X238744Y98030D01*
X238791Y98074D01*
X238841Y98116D01*
X238893Y98154D01*
X238947Y98189D01*
X239004Y98221D01*
X239062Y98250D01*
X239122Y98274D01*
X239183Y98295D01*
X239245Y98313D01*
X239309Y98326D01*
X239373Y98336D01*
X239437Y98342D01*
X239502Y98344D01*
X240574Y98344D01*
X242750Y92982D02*
X244894Y92982D01*
X248760Y93518D02*
X247151Y98344D01*
X250368Y98344D02*
X248760Y93518D01*
X252906Y94591D02*
X253978Y98344D01*
X252906Y94591D02*
X255587Y94591D01*
X254782Y95663D02*
X254782Y93518D01*
X277755Y227528D02*
X278827Y227528D01*
X277755Y227529D02*
X277690Y227531D01*
X277626Y227537D01*
X277562Y227547D01*
X277498Y227560D01*
X277436Y227578D01*
X277375Y227599D01*
X277315Y227623D01*
X277257Y227652D01*
X277200Y227684D01*
X277146Y227719D01*
X277094Y227757D01*
X277044Y227799D01*
X276997Y227843D01*
X276953Y227890D01*
X276911Y227940D01*
X276873Y227992D01*
X276838Y228046D01*
X276806Y228103D01*
X276777Y228161D01*
X276753Y228221D01*
X276732Y228282D01*
X276714Y228344D01*
X276701Y228408D01*
X276691Y228472D01*
X276685Y228536D01*
X276683Y228601D01*
X276682Y228601D02*
X276682Y231282D01*
X276683Y231282D02*
X276685Y231347D01*
X276691Y231411D01*
X276701Y231475D01*
X276714Y231539D01*
X276732Y231601D01*
X276753Y231662D01*
X276777Y231722D01*
X276806Y231780D01*
X276838Y231837D01*
X276873Y231891D01*
X276911Y231943D01*
X276953Y231993D01*
X276997Y232040D01*
X277044Y232084D01*
X277094Y232126D01*
X277146Y232164D01*
X277200Y232199D01*
X277257Y232231D01*
X277315Y232260D01*
X277375Y232284D01*
X277436Y232305D01*
X277498Y232323D01*
X277562Y232336D01*
X277626Y232346D01*
X277690Y232352D01*
X277755Y232354D01*
X278827Y232354D01*
X281002Y226992D02*
X283147Y226992D01*
X287012Y227528D02*
X285404Y232354D01*
X288621Y232354D02*
X287012Y227528D01*
X290890Y227528D02*
X292499Y232354D01*
X294107Y227528D01*
X293705Y228735D02*
X291292Y228735D01*
X296645Y231282D02*
X297985Y232354D01*
X297985Y227528D01*
X296645Y227528D02*
X299326Y227528D01*
X249639Y212069D02*
X248631Y212436D01*
X248571Y212460D01*
X248513Y212487D01*
X248456Y212518D01*
X248401Y212553D01*
X248348Y212590D01*
X248298Y212631D01*
X248250Y212675D01*
X248205Y212721D01*
X248163Y212771D01*
X248124Y212822D01*
X248088Y212876D01*
X248056Y212932D01*
X248026Y212990D01*
X248001Y213049D01*
X247979Y213110D01*
X247961Y213172D01*
X247946Y213236D01*
X247936Y213299D01*
X247929Y213364D01*
X247926Y213429D01*
X247927Y213493D01*
X247932Y213558D01*
X247941Y213622D01*
X247954Y213686D01*
X247970Y213748D01*
X247991Y213810D01*
X247990Y213810D02*
X248907Y216330D01*
X248908Y216330D02*
X248932Y216390D01*
X248959Y216448D01*
X248990Y216505D01*
X249025Y216560D01*
X249062Y216613D01*
X249103Y216663D01*
X249147Y216711D01*
X249193Y216756D01*
X249243Y216798D01*
X249294Y216837D01*
X249348Y216873D01*
X249404Y216905D01*
X249462Y216935D01*
X249521Y216960D01*
X249582Y216982D01*
X249644Y217000D01*
X249708Y217015D01*
X249771Y217025D01*
X249836Y217032D01*
X249901Y217035D01*
X249965Y217034D01*
X250030Y217029D01*
X250094Y217020D01*
X250158Y217007D01*
X250220Y216991D01*
X250282Y216970D01*
X250282Y216971D02*
X251289Y216604D01*
X251499Y210821D02*
X253515Y210087D01*
X257330Y209269D02*
X257469Y214354D01*
X260493Y213254D02*
X257330Y209269D01*
X260974Y207943D02*
X264136Y211928D01*
X263998Y206843D01*
X264032Y208114D02*
X261765Y208939D01*
X269418Y210006D02*
X269481Y209981D01*
X269542Y209953D01*
X269602Y209921D01*
X269660Y209886D01*
X269716Y209848D01*
X269769Y209806D01*
X269820Y209762D01*
X269869Y209715D01*
X269915Y209665D01*
X269958Y209613D01*
X269998Y209558D01*
X270035Y209501D01*
X270069Y209443D01*
X270099Y209382D01*
X270126Y209320D01*
X270149Y209256D01*
X270169Y209192D01*
X270185Y209126D01*
X270197Y209059D01*
X270206Y208992D01*
X270211Y208925D01*
X270212Y208857D01*
X270209Y208789D01*
X270203Y208722D01*
X270192Y208655D01*
X270178Y208589D01*
X270161Y208523D01*
X270139Y208459D01*
X269418Y210005D02*
X269344Y210030D01*
X269269Y210051D01*
X269193Y210069D01*
X269116Y210082D01*
X269039Y210092D01*
X268961Y210097D01*
X268883Y210099D01*
X268805Y210097D01*
X268728Y210091D01*
X268650Y210081D01*
X268574Y210067D01*
X268498Y210049D01*
X268423Y210028D01*
X268349Y210002D01*
X268277Y209973D01*
X268206Y209941D01*
X268137Y209905D01*
X268069Y209865D01*
X268004Y209822D01*
X267941Y209776D01*
X267881Y209727D01*
X267823Y209675D01*
X267768Y209620D01*
X267715Y209562D01*
X267666Y209502D01*
X269440Y207714D02*
X269503Y207744D01*
X269565Y207777D01*
X269625Y207814D01*
X269682Y207853D01*
X269738Y207896D01*
X269791Y207941D01*
X269841Y207990D01*
X269889Y208041D01*
X269934Y208094D01*
X269977Y208150D01*
X270016Y208208D01*
X270051Y208268D01*
X270084Y208330D01*
X270113Y208394D01*
X270139Y208459D01*
X269440Y207715D02*
X266382Y205975D01*
X268901Y205058D01*
X212457Y96840D02*
X211899Y95925D01*
X211898Y95925D02*
X211863Y95871D01*
X211824Y95819D01*
X211782Y95770D01*
X211738Y95723D01*
X211690Y95679D01*
X211640Y95637D01*
X211588Y95599D01*
X211534Y95564D01*
X211477Y95533D01*
X211419Y95505D01*
X211359Y95480D01*
X211298Y95459D01*
X211235Y95442D01*
X211172Y95429D01*
X211108Y95419D01*
X211043Y95414D01*
X210978Y95412D01*
X210914Y95414D01*
X210849Y95420D01*
X210785Y95430D01*
X210722Y95444D01*
X210660Y95462D01*
X210599Y95483D01*
X210539Y95508D01*
X210481Y95537D01*
X210424Y95569D01*
X210425Y95568D02*
X208136Y96965D01*
X208082Y97000D01*
X208030Y97039D01*
X207981Y97081D01*
X207934Y97125D01*
X207890Y97173D01*
X207848Y97223D01*
X207810Y97275D01*
X207775Y97329D01*
X207744Y97386D01*
X207716Y97444D01*
X207691Y97504D01*
X207670Y97565D01*
X207653Y97628D01*
X207640Y97691D01*
X207630Y97755D01*
X207625Y97820D01*
X207623Y97885D01*
X207625Y97949D01*
X207631Y98014D01*
X207641Y98078D01*
X207655Y98141D01*
X207673Y98203D01*
X207694Y98264D01*
X207719Y98324D01*
X207748Y98382D01*
X207780Y98438D01*
X207779Y98439D02*
X208338Y99355D01*
X214048Y98417D02*
X215166Y100248D01*
X216722Y103827D02*
X211765Y104968D01*
X213441Y107714D02*
X216722Y103827D01*
X219426Y108256D02*
X219985Y109172D01*
X219425Y108256D02*
X219390Y108202D01*
X219351Y108150D01*
X219309Y108101D01*
X219265Y108054D01*
X219217Y108010D01*
X219167Y107968D01*
X219115Y107930D01*
X219061Y107895D01*
X219004Y107864D01*
X218946Y107836D01*
X218886Y107811D01*
X218825Y107790D01*
X218762Y107773D01*
X218699Y107760D01*
X218635Y107750D01*
X218570Y107745D01*
X218505Y107743D01*
X218441Y107745D01*
X218376Y107751D01*
X218312Y107761D01*
X218249Y107775D01*
X218187Y107793D01*
X218126Y107814D01*
X218066Y107839D01*
X218008Y107868D01*
X217951Y107900D01*
X217952Y107900D02*
X215663Y109297D01*
X215609Y109332D01*
X215557Y109371D01*
X215508Y109413D01*
X215461Y109457D01*
X215417Y109505D01*
X215375Y109555D01*
X215337Y109607D01*
X215302Y109661D01*
X215271Y109718D01*
X215243Y109776D01*
X215218Y109836D01*
X215197Y109897D01*
X215180Y109960D01*
X215167Y110023D01*
X215157Y110087D01*
X215152Y110152D01*
X215150Y110217D01*
X215152Y110281D01*
X215158Y110346D01*
X215168Y110410D01*
X215182Y110473D01*
X215200Y110535D01*
X215221Y110596D01*
X215246Y110656D01*
X215275Y110714D01*
X215307Y110770D01*
X215307Y110771D02*
X215865Y111686D01*
X217843Y114926D02*
X221124Y111039D01*
X222801Y113785D02*
X217843Y114926D01*
X220304Y112011D02*
X221561Y114070D01*
X224294Y116232D02*
X220175Y118746D01*
X220873Y119890D01*
X220873Y119891D02*
X220912Y119951D01*
X220954Y120008D01*
X220999Y120064D01*
X221047Y120117D01*
X221098Y120167D01*
X221151Y120215D01*
X221206Y120260D01*
X221264Y120301D01*
X221324Y120340D01*
X221387Y120375D01*
X221450Y120407D01*
X221516Y120435D01*
X221583Y120460D01*
X221651Y120482D01*
X221720Y120499D01*
X221790Y120513D01*
X221861Y120524D01*
X221932Y120530D01*
X222003Y120533D01*
X222075Y120532D01*
X222146Y120527D01*
X222217Y120518D01*
X222287Y120506D01*
X222356Y120490D01*
X222425Y120470D01*
X222492Y120446D01*
X222559Y120419D01*
X222623Y120389D01*
X222686Y120355D01*
X222747Y120318D01*
X222806Y120277D01*
X222862Y120234D01*
X222917Y120187D01*
X222968Y120138D01*
X223017Y120086D01*
X223064Y120032D01*
X223107Y119975D01*
X223147Y119916D01*
X223184Y119855D01*
X223217Y119792D01*
X223248Y119727D01*
X223274Y119661D01*
X223298Y119593D01*
X223317Y119525D01*
X223333Y119455D01*
X223345Y119385D01*
X223353Y119314D01*
X223358Y119243D01*
X223359Y119171D01*
X223356Y119100D01*
X223349Y119029D01*
X223338Y118958D01*
X223324Y118888D01*
X223306Y118819D01*
X223284Y118751D01*
X223259Y118684D01*
X223230Y118619D01*
X223198Y118555D01*
X223163Y118493D01*
X223162Y118493D02*
X222463Y117349D01*
X223777Y122589D02*
X223560Y124292D01*
X227679Y121778D01*
X226981Y120634D02*
X228378Y122922D01*
X424359Y77813D02*
X424359Y76740D01*
X424357Y76675D01*
X424351Y76611D01*
X424341Y76547D01*
X424328Y76483D01*
X424310Y76421D01*
X424289Y76360D01*
X424265Y76300D01*
X424236Y76242D01*
X424204Y76185D01*
X424169Y76131D01*
X424131Y76079D01*
X424089Y76029D01*
X424045Y75982D01*
X423998Y75938D01*
X423948Y75896D01*
X423896Y75858D01*
X423842Y75823D01*
X423785Y75791D01*
X423727Y75762D01*
X423667Y75738D01*
X423606Y75717D01*
X423544Y75699D01*
X423480Y75686D01*
X423416Y75676D01*
X423352Y75670D01*
X423287Y75668D01*
X420606Y75668D01*
X420606Y75667D02*
X420541Y75669D01*
X420477Y75675D01*
X420413Y75685D01*
X420349Y75698D01*
X420287Y75716D01*
X420226Y75737D01*
X420166Y75762D01*
X420107Y75790D01*
X420051Y75822D01*
X419996Y75857D01*
X419944Y75895D01*
X419894Y75937D01*
X419847Y75981D01*
X419803Y76028D01*
X419761Y76078D01*
X419723Y76130D01*
X419688Y76185D01*
X419656Y76241D01*
X419628Y76300D01*
X419603Y76359D01*
X419582Y76421D01*
X419564Y76483D01*
X419551Y76547D01*
X419541Y76611D01*
X419535Y76675D01*
X419533Y76740D01*
X419533Y77813D01*
X424895Y79988D02*
X424895Y82133D01*
X424359Y85998D02*
X419533Y84389D01*
X419533Y87607D02*
X424359Y85998D01*
X424359Y91188D02*
X424359Y92260D01*
X424359Y91188D02*
X424357Y91123D01*
X424351Y91059D01*
X424341Y90995D01*
X424328Y90931D01*
X424310Y90869D01*
X424289Y90808D01*
X424265Y90748D01*
X424236Y90690D01*
X424204Y90633D01*
X424169Y90579D01*
X424131Y90527D01*
X424089Y90477D01*
X424045Y90430D01*
X423998Y90386D01*
X423948Y90344D01*
X423896Y90306D01*
X423842Y90271D01*
X423785Y90239D01*
X423727Y90210D01*
X423667Y90186D01*
X423606Y90165D01*
X423544Y90147D01*
X423480Y90134D01*
X423416Y90124D01*
X423352Y90118D01*
X423287Y90116D01*
X423287Y90115D02*
X420606Y90115D01*
X420541Y90117D01*
X420477Y90123D01*
X420413Y90133D01*
X420349Y90146D01*
X420287Y90164D01*
X420226Y90185D01*
X420166Y90210D01*
X420107Y90238D01*
X420051Y90270D01*
X419996Y90305D01*
X419944Y90343D01*
X419894Y90385D01*
X419847Y90429D01*
X419803Y90476D01*
X419761Y90526D01*
X419723Y90578D01*
X419688Y90633D01*
X419656Y90689D01*
X419628Y90748D01*
X419603Y90807D01*
X419582Y90869D01*
X419564Y90931D01*
X419551Y90995D01*
X419541Y91059D01*
X419535Y91123D01*
X419533Y91188D01*
X419533Y92260D01*
X419533Y96056D02*
X424359Y94448D01*
X424359Y97665D02*
X419533Y96056D01*
X423153Y97263D02*
X423153Y94850D01*
X424359Y100532D02*
X419533Y100532D01*
X419533Y101872D01*
X419535Y101943D01*
X419541Y102015D01*
X419550Y102085D01*
X419563Y102155D01*
X419580Y102225D01*
X419601Y102293D01*
X419625Y102360D01*
X419653Y102426D01*
X419684Y102490D01*
X419719Y102553D01*
X419757Y102613D01*
X419798Y102672D01*
X419842Y102728D01*
X419889Y102782D01*
X419938Y102833D01*
X419991Y102881D01*
X420046Y102927D01*
X420103Y102969D01*
X420163Y103009D01*
X420224Y103045D01*
X420288Y103078D01*
X420353Y103107D01*
X420419Y103133D01*
X420487Y103156D01*
X420556Y103175D01*
X420626Y103190D01*
X420696Y103201D01*
X420767Y103209D01*
X420838Y103213D01*
X420910Y103213D01*
X420981Y103209D01*
X421052Y103201D01*
X421122Y103190D01*
X421192Y103175D01*
X421261Y103156D01*
X421329Y103133D01*
X421395Y103107D01*
X421460Y103078D01*
X421524Y103045D01*
X421585Y103009D01*
X421645Y102969D01*
X421702Y102927D01*
X421757Y102881D01*
X421810Y102833D01*
X421859Y102782D01*
X421906Y102728D01*
X421950Y102672D01*
X421991Y102613D01*
X422029Y102553D01*
X422064Y102490D01*
X422095Y102426D01*
X422123Y102360D01*
X422147Y102293D01*
X422168Y102225D01*
X422185Y102155D01*
X422198Y102085D01*
X422207Y102015D01*
X422213Y101943D01*
X422215Y101872D01*
X422214Y101872D02*
X422214Y100532D01*
X419533Y107163D02*
X419535Y107231D01*
X419541Y107298D01*
X419550Y107365D01*
X419563Y107432D01*
X419580Y107497D01*
X419601Y107562D01*
X419625Y107625D01*
X419653Y107687D01*
X419684Y107747D01*
X419718Y107805D01*
X419756Y107861D01*
X419796Y107916D01*
X419840Y107967D01*
X419887Y108016D01*
X419936Y108063D01*
X419987Y108107D01*
X420042Y108147D01*
X420098Y108185D01*
X420156Y108219D01*
X420216Y108250D01*
X420278Y108278D01*
X420341Y108302D01*
X420406Y108323D01*
X420471Y108340D01*
X420538Y108353D01*
X420605Y108362D01*
X420672Y108368D01*
X420740Y108370D01*
X419533Y107163D02*
X419535Y107085D01*
X419541Y107007D01*
X419551Y106930D01*
X419564Y106853D01*
X419582Y106777D01*
X419603Y106702D01*
X419628Y106628D01*
X419657Y106556D01*
X419689Y106485D01*
X419725Y106416D01*
X419764Y106348D01*
X419807Y106283D01*
X419853Y106220D01*
X419902Y106159D01*
X419954Y106101D01*
X420009Y106046D01*
X420066Y105993D01*
X420126Y105944D01*
X420189Y105897D01*
X420254Y105854D01*
X420320Y105814D01*
X420389Y105777D01*
X420460Y105744D01*
X420532Y105714D01*
X420606Y105688D01*
X421678Y107968D02*
X421629Y108017D01*
X421577Y108064D01*
X421522Y108107D01*
X421465Y108148D01*
X421406Y108186D01*
X421345Y108220D01*
X421282Y108251D01*
X421218Y108279D01*
X421152Y108303D01*
X421086Y108323D01*
X421018Y108340D01*
X420949Y108353D01*
X420880Y108362D01*
X420810Y108368D01*
X420740Y108370D01*
X421678Y107968D02*
X424359Y105689D01*
X424359Y108370D01*
D11*
X370014Y97488D02*
X370014Y182488D01*
X362514Y189988D02*
X277514Y189988D01*
X270014Y182488D02*
X270014Y97488D01*
X277514Y89988D02*
X362514Y89988D01*
X370014Y97488D01*
X277514Y89988D02*
X270014Y97488D01*
X270014Y182488D02*
X277514Y189988D01*
X362514Y189988D02*
X370014Y182488D01*
D10*
X321143Y133148D02*
X317474Y133148D01*
X321143Y133148D02*
X321217Y133150D01*
X321290Y133156D01*
X321364Y133165D01*
X321436Y133179D01*
X321508Y133196D01*
X321579Y133217D01*
X321649Y133242D01*
X321717Y133270D01*
X321784Y133302D01*
X321849Y133337D01*
X321911Y133376D01*
X321972Y133417D01*
X322031Y133462D01*
X322087Y133510D01*
X322141Y133561D01*
X322192Y133615D01*
X322240Y133671D01*
X322285Y133730D01*
X322326Y133791D01*
X322365Y133854D01*
X322400Y133918D01*
X322432Y133985D01*
X322460Y134053D01*
X322485Y134123D01*
X322506Y134194D01*
X322523Y134266D01*
X322537Y134338D01*
X322546Y134412D01*
X322552Y134485D01*
X322554Y134559D01*
X322552Y134633D01*
X322546Y134706D01*
X322537Y134780D01*
X322523Y134852D01*
X322506Y134924D01*
X322485Y134995D01*
X322460Y135065D01*
X322432Y135133D01*
X322400Y135200D01*
X322365Y135265D01*
X322326Y135327D01*
X322285Y135388D01*
X322240Y135447D01*
X322192Y135503D01*
X322141Y135557D01*
X322087Y135608D01*
X322031Y135656D01*
X321972Y135701D01*
X321911Y135742D01*
X321849Y135781D01*
X321784Y135816D01*
X321717Y135848D01*
X321649Y135876D01*
X321579Y135901D01*
X321508Y135922D01*
X321436Y135939D01*
X321364Y135953D01*
X321290Y135962D01*
X321217Y135968D01*
X321143Y135970D01*
X317474Y135970D01*
X317474Y140083D02*
X322554Y140083D01*
X320014Y140083D02*
X319591Y139378D01*
X319591Y139377D02*
X319560Y139330D01*
X319526Y139284D01*
X319489Y139241D01*
X319450Y139201D01*
X319407Y139163D01*
X319363Y139128D01*
X319316Y139097D01*
X319267Y139068D01*
X319216Y139043D01*
X319163Y139021D01*
X319110Y139003D01*
X319055Y138989D01*
X318999Y138978D01*
X318943Y138971D01*
X318886Y138968D01*
X318830Y138969D01*
X318773Y138973D01*
X318717Y138982D01*
X318662Y138994D01*
X318607Y139009D01*
X318554Y139029D01*
X318502Y139051D01*
X318452Y139078D01*
X318404Y139107D01*
X318357Y139140D01*
X318314Y139176D01*
X318272Y139215D01*
X318233Y139256D01*
X318198Y139300D01*
X318165Y139346D01*
X318135Y139394D01*
X318109Y139445D01*
X318086Y139496D01*
X318067Y139550D01*
X318051Y139604D01*
X318039Y139660D01*
X318038Y139660D02*
X318024Y139749D01*
X318013Y139838D01*
X318006Y139927D01*
X318002Y140016D01*
X318002Y140106D01*
X318006Y140195D01*
X318013Y140285D01*
X318024Y140374D01*
X318038Y140462D01*
X318056Y140550D01*
X318077Y140637D01*
X318102Y140723D01*
X318130Y140808D01*
X318162Y140892D01*
X318197Y140974D01*
X318235Y141055D01*
X318276Y141135D01*
X318321Y141212D01*
X320014Y140083D02*
X320438Y140789D01*
X320437Y140789D02*
X320468Y140836D01*
X320502Y140882D01*
X320539Y140925D01*
X320578Y140965D01*
X320621Y141003D01*
X320665Y141038D01*
X320712Y141069D01*
X320761Y141098D01*
X320812Y141123D01*
X320865Y141145D01*
X320918Y141163D01*
X320973Y141177D01*
X321029Y141188D01*
X321085Y141195D01*
X321142Y141198D01*
X321198Y141197D01*
X321255Y141193D01*
X321311Y141184D01*
X321366Y141172D01*
X321421Y141157D01*
X321474Y141137D01*
X321526Y141115D01*
X321576Y141088D01*
X321624Y141059D01*
X321671Y141026D01*
X321714Y140990D01*
X321756Y140951D01*
X321795Y140910D01*
X321830Y140866D01*
X321863Y140820D01*
X321893Y140772D01*
X321919Y140721D01*
X321942Y140670D01*
X321961Y140616D01*
X321977Y140562D01*
X321989Y140507D01*
X321990Y140507D02*
X322004Y140418D01*
X322015Y140330D01*
X322022Y140240D01*
X322026Y140151D01*
X322026Y140061D01*
X322022Y139972D01*
X322015Y139882D01*
X322004Y139793D01*
X321990Y139705D01*
X321972Y139617D01*
X321951Y139530D01*
X321926Y139444D01*
X321898Y139359D01*
X321866Y139275D01*
X321831Y139193D01*
X321793Y139112D01*
X321752Y139032D01*
X321707Y138955D01*
X318603Y144006D02*
X317474Y145417D01*
X322554Y145417D01*
X322554Y144006D02*
X322554Y146828D01*
X136551Y120357D02*
X136551Y119284D01*
X136549Y119219D01*
X136543Y119155D01*
X136533Y119091D01*
X136520Y119027D01*
X136502Y118965D01*
X136481Y118904D01*
X136457Y118844D01*
X136428Y118786D01*
X136396Y118729D01*
X136361Y118675D01*
X136323Y118623D01*
X136281Y118573D01*
X136237Y118526D01*
X136190Y118482D01*
X136140Y118440D01*
X136088Y118402D01*
X136034Y118367D01*
X135977Y118335D01*
X135919Y118306D01*
X135859Y118282D01*
X135798Y118261D01*
X135736Y118243D01*
X135672Y118230D01*
X135608Y118220D01*
X135544Y118214D01*
X135479Y118212D01*
X132797Y118212D01*
X132732Y118214D01*
X132668Y118220D01*
X132604Y118230D01*
X132540Y118243D01*
X132478Y118261D01*
X132417Y118282D01*
X132357Y118307D01*
X132298Y118335D01*
X132242Y118367D01*
X132187Y118402D01*
X132135Y118440D01*
X132085Y118482D01*
X132038Y118526D01*
X131994Y118573D01*
X131952Y118623D01*
X131914Y118675D01*
X131879Y118730D01*
X131847Y118786D01*
X131819Y118845D01*
X131794Y118904D01*
X131773Y118966D01*
X131755Y119028D01*
X131742Y119092D01*
X131732Y119156D01*
X131726Y119220D01*
X131724Y119285D01*
X131725Y119284D02*
X131725Y120357D01*
X131725Y123142D02*
X136551Y123142D01*
X131725Y123142D02*
X131725Y124483D01*
X131727Y124554D01*
X131733Y124626D01*
X131742Y124696D01*
X131755Y124766D01*
X131772Y124836D01*
X131793Y124904D01*
X131817Y124971D01*
X131845Y125037D01*
X131876Y125101D01*
X131911Y125164D01*
X131949Y125224D01*
X131990Y125283D01*
X132034Y125339D01*
X132081Y125393D01*
X132130Y125444D01*
X132183Y125492D01*
X132238Y125538D01*
X132295Y125580D01*
X132355Y125620D01*
X132416Y125656D01*
X132480Y125689D01*
X132545Y125718D01*
X132611Y125744D01*
X132679Y125767D01*
X132748Y125786D01*
X132818Y125801D01*
X132888Y125812D01*
X132959Y125820D01*
X133030Y125824D01*
X133102Y125824D01*
X133173Y125820D01*
X133244Y125812D01*
X133314Y125801D01*
X133384Y125786D01*
X133453Y125767D01*
X133521Y125744D01*
X133587Y125718D01*
X133652Y125689D01*
X133716Y125656D01*
X133777Y125620D01*
X133837Y125580D01*
X133894Y125538D01*
X133949Y125492D01*
X134002Y125444D01*
X134051Y125393D01*
X134098Y125339D01*
X134142Y125283D01*
X134183Y125224D01*
X134221Y125164D01*
X134256Y125101D01*
X134287Y125037D01*
X134315Y124971D01*
X134339Y124904D01*
X134360Y124836D01*
X134377Y124766D01*
X134390Y124696D01*
X134399Y124626D01*
X134405Y124554D01*
X134407Y124483D01*
X134406Y124483D02*
X134406Y123142D01*
X131725Y128226D02*
X136551Y129299D01*
X133334Y130371D01*
X136551Y131444D01*
X131725Y132516D01*
X131725Y135495D02*
X136551Y135495D01*
X131725Y135495D02*
X131725Y136836D01*
X131727Y136907D01*
X131733Y136979D01*
X131742Y137049D01*
X131755Y137119D01*
X131772Y137189D01*
X131793Y137257D01*
X131817Y137324D01*
X131845Y137390D01*
X131876Y137454D01*
X131911Y137517D01*
X131949Y137577D01*
X131990Y137636D01*
X132034Y137692D01*
X132081Y137746D01*
X132130Y137797D01*
X132183Y137845D01*
X132238Y137891D01*
X132295Y137933D01*
X132355Y137973D01*
X132416Y138009D01*
X132480Y138042D01*
X132545Y138071D01*
X132611Y138097D01*
X132679Y138120D01*
X132748Y138139D01*
X132818Y138154D01*
X132888Y138165D01*
X132959Y138173D01*
X133030Y138177D01*
X133102Y138177D01*
X133173Y138173D01*
X133244Y138165D01*
X133314Y138154D01*
X133384Y138139D01*
X133453Y138120D01*
X133521Y138097D01*
X133587Y138071D01*
X133652Y138042D01*
X133716Y138009D01*
X133777Y137973D01*
X133837Y137933D01*
X133894Y137891D01*
X133949Y137845D01*
X134002Y137797D01*
X134051Y137746D01*
X134098Y137692D01*
X134142Y137636D01*
X134183Y137577D01*
X134221Y137517D01*
X134256Y137454D01*
X134287Y137390D01*
X134315Y137324D01*
X134339Y137257D01*
X134360Y137189D01*
X134377Y137119D01*
X134390Y137049D01*
X134399Y136979D01*
X134405Y136907D01*
X134407Y136836D01*
X134406Y136836D02*
X134406Y135495D01*
X134406Y137104D02*
X136551Y138176D01*
X137087Y140637D02*
X137087Y142782D01*
X136551Y145307D02*
X136551Y146647D01*
X136549Y146718D01*
X136543Y146790D01*
X136534Y146860D01*
X136521Y146930D01*
X136504Y147000D01*
X136483Y147068D01*
X136459Y147135D01*
X136431Y147201D01*
X136400Y147265D01*
X136365Y147328D01*
X136327Y147388D01*
X136286Y147447D01*
X136242Y147503D01*
X136195Y147557D01*
X136146Y147608D01*
X136093Y147656D01*
X136038Y147702D01*
X135981Y147744D01*
X135921Y147784D01*
X135860Y147820D01*
X135796Y147853D01*
X135731Y147882D01*
X135665Y147908D01*
X135597Y147931D01*
X135528Y147950D01*
X135458Y147965D01*
X135388Y147976D01*
X135317Y147984D01*
X135246Y147988D01*
X135174Y147988D01*
X135103Y147984D01*
X135032Y147976D01*
X134962Y147965D01*
X134892Y147950D01*
X134823Y147931D01*
X134755Y147908D01*
X134689Y147882D01*
X134624Y147853D01*
X134560Y147820D01*
X134499Y147784D01*
X134439Y147744D01*
X134382Y147702D01*
X134327Y147656D01*
X134274Y147608D01*
X134225Y147557D01*
X134178Y147503D01*
X134134Y147447D01*
X134093Y147388D01*
X134055Y147328D01*
X134020Y147265D01*
X133989Y147201D01*
X133961Y147135D01*
X133937Y147068D01*
X133916Y147000D01*
X133899Y146930D01*
X133886Y146860D01*
X133877Y146790D01*
X133871Y146718D01*
X133869Y146647D01*
X131725Y146916D02*
X131725Y145307D01*
X131725Y146916D02*
X131727Y146981D01*
X131733Y147045D01*
X131743Y147109D01*
X131756Y147173D01*
X131774Y147235D01*
X131795Y147296D01*
X131819Y147356D01*
X131848Y147414D01*
X131880Y147471D01*
X131915Y147525D01*
X131953Y147577D01*
X131995Y147627D01*
X132039Y147674D01*
X132086Y147718D01*
X132136Y147760D01*
X132188Y147798D01*
X132242Y147833D01*
X132299Y147865D01*
X132357Y147894D01*
X132417Y147918D01*
X132478Y147939D01*
X132540Y147957D01*
X132604Y147970D01*
X132668Y147980D01*
X132732Y147986D01*
X132797Y147988D01*
X132862Y147986D01*
X132926Y147980D01*
X132990Y147970D01*
X133054Y147957D01*
X133116Y147939D01*
X133177Y147918D01*
X133237Y147894D01*
X133295Y147865D01*
X133352Y147833D01*
X133406Y147798D01*
X133458Y147760D01*
X133508Y147718D01*
X133555Y147674D01*
X133599Y147627D01*
X133641Y147577D01*
X133679Y147525D01*
X133714Y147471D01*
X133746Y147414D01*
X133775Y147356D01*
X133799Y147296D01*
X133820Y147235D01*
X133838Y147173D01*
X133851Y147109D01*
X133861Y147045D01*
X133867Y146981D01*
X133869Y146916D01*
X133870Y146916D02*
X133870Y145843D01*
X112775Y88757D02*
X112775Y87685D01*
X112773Y87620D01*
X112767Y87556D01*
X112757Y87492D01*
X112744Y87428D01*
X112726Y87366D01*
X112705Y87305D01*
X112681Y87245D01*
X112652Y87187D01*
X112620Y87130D01*
X112585Y87076D01*
X112547Y87024D01*
X112505Y86974D01*
X112461Y86927D01*
X112414Y86883D01*
X112364Y86841D01*
X112312Y86803D01*
X112258Y86768D01*
X112201Y86736D01*
X112143Y86707D01*
X112083Y86683D01*
X112022Y86662D01*
X111960Y86644D01*
X111896Y86631D01*
X111832Y86621D01*
X111768Y86615D01*
X111703Y86613D01*
X111703Y86612D02*
X109021Y86612D01*
X108956Y86614D01*
X108892Y86620D01*
X108828Y86630D01*
X108764Y86643D01*
X108702Y86661D01*
X108641Y86682D01*
X108581Y86707D01*
X108522Y86735D01*
X108466Y86767D01*
X108411Y86802D01*
X108359Y86840D01*
X108309Y86882D01*
X108262Y86926D01*
X108218Y86973D01*
X108176Y87023D01*
X108138Y87075D01*
X108103Y87130D01*
X108071Y87186D01*
X108043Y87245D01*
X108018Y87304D01*
X107997Y87366D01*
X107979Y87428D01*
X107966Y87492D01*
X107956Y87556D01*
X107950Y87620D01*
X107948Y87685D01*
X107949Y87685D02*
X107949Y88757D01*
X107949Y91542D02*
X112775Y91542D01*
X107949Y91542D02*
X107949Y92883D01*
X107951Y92954D01*
X107957Y93026D01*
X107966Y93096D01*
X107979Y93166D01*
X107996Y93236D01*
X108017Y93304D01*
X108041Y93371D01*
X108069Y93437D01*
X108100Y93501D01*
X108135Y93564D01*
X108173Y93624D01*
X108214Y93683D01*
X108258Y93739D01*
X108305Y93793D01*
X108354Y93844D01*
X108407Y93892D01*
X108462Y93938D01*
X108519Y93980D01*
X108579Y94020D01*
X108640Y94056D01*
X108704Y94089D01*
X108769Y94118D01*
X108835Y94144D01*
X108903Y94167D01*
X108972Y94186D01*
X109042Y94201D01*
X109112Y94212D01*
X109183Y94220D01*
X109254Y94224D01*
X109326Y94224D01*
X109397Y94220D01*
X109468Y94212D01*
X109538Y94201D01*
X109608Y94186D01*
X109677Y94167D01*
X109745Y94144D01*
X109811Y94118D01*
X109876Y94089D01*
X109940Y94056D01*
X110001Y94020D01*
X110061Y93980D01*
X110118Y93938D01*
X110173Y93892D01*
X110226Y93844D01*
X110275Y93793D01*
X110322Y93739D01*
X110366Y93683D01*
X110407Y93624D01*
X110445Y93564D01*
X110480Y93501D01*
X110511Y93437D01*
X110539Y93371D01*
X110563Y93304D01*
X110584Y93236D01*
X110601Y93166D01*
X110614Y93096D01*
X110623Y93026D01*
X110629Y92954D01*
X110631Y92883D01*
X110630Y92883D02*
X110630Y91542D01*
X107949Y96626D02*
X112775Y97699D01*
X109558Y98771D01*
X112775Y99844D01*
X107949Y100916D01*
X107949Y103895D02*
X112775Y103895D01*
X107949Y103895D02*
X107949Y105236D01*
X107951Y105307D01*
X107957Y105379D01*
X107966Y105449D01*
X107979Y105519D01*
X107996Y105589D01*
X108017Y105657D01*
X108041Y105724D01*
X108069Y105790D01*
X108100Y105854D01*
X108135Y105917D01*
X108173Y105977D01*
X108214Y106036D01*
X108258Y106092D01*
X108305Y106146D01*
X108354Y106197D01*
X108407Y106245D01*
X108462Y106291D01*
X108519Y106333D01*
X108579Y106373D01*
X108640Y106409D01*
X108704Y106442D01*
X108769Y106471D01*
X108835Y106497D01*
X108903Y106520D01*
X108972Y106539D01*
X109042Y106554D01*
X109112Y106565D01*
X109183Y106573D01*
X109254Y106577D01*
X109326Y106577D01*
X109397Y106573D01*
X109468Y106565D01*
X109538Y106554D01*
X109608Y106539D01*
X109677Y106520D01*
X109745Y106497D01*
X109811Y106471D01*
X109876Y106442D01*
X109940Y106409D01*
X110001Y106373D01*
X110061Y106333D01*
X110118Y106291D01*
X110173Y106245D01*
X110226Y106197D01*
X110275Y106146D01*
X110322Y106092D01*
X110366Y106036D01*
X110407Y105977D01*
X110445Y105917D01*
X110480Y105854D01*
X110511Y105790D01*
X110539Y105724D01*
X110563Y105657D01*
X110584Y105589D01*
X110601Y105519D01*
X110614Y105449D01*
X110623Y105379D01*
X110629Y105307D01*
X110631Y105236D01*
X110630Y105236D02*
X110630Y103895D01*
X110630Y105504D02*
X112775Y106576D01*
X113311Y109037D02*
X113311Y111182D01*
X111703Y113707D02*
X107949Y114779D01*
X111703Y113707D02*
X111703Y116388D01*
X110630Y115584D02*
X112775Y115584D01*
D11*
X154188Y88202D02*
X193812Y88202D01*
X193812Y157798D01*
X154188Y157798D01*
X154188Y88202D01*
D12*
X137643Y152662D02*
X137643Y156641D01*
X137643Y152662D02*
X139964Y149677D01*
X137643Y152662D02*
X135321Y149677D01*
X137643Y152662D02*
X141290Y153988D01*
X137643Y152662D02*
X133995Y153988D01*
D13*
X80000Y55000D03*
X100000Y55000D03*
X120000Y55000D03*
X140000Y55000D03*
X160000Y55000D03*
X480000Y55000D03*
X500000Y55000D03*
X520000Y55000D03*
X540000Y55000D03*
X560000Y55000D03*
X605000Y140000D03*
X605000Y120000D03*
X605000Y100000D03*
X605000Y80000D03*
X605000Y60000D03*
X35000Y60000D03*
X35000Y80000D03*
X35000Y100000D03*
X35000Y120000D03*
X35000Y140000D03*
X180000Y55000D03*
X460000Y55000D03*
X542500Y100000D03*
X542500Y120000D03*
X542500Y140000D03*
X562500Y100000D03*
X562500Y120000D03*
X562500Y140000D03*
X97500Y100000D03*
X97500Y120000D03*
X97500Y140000D03*
X77500Y100000D03*
X77500Y120000D03*
X77500Y140000D03*
X230000Y55000D03*
X410000Y55000D03*
X320000Y217000D03*
M02*
