G04 EAGLE Gerber X2 export*
G04 #@! %TF.Part,Single*
G04 #@! %TF.FileFunction,Soldermask,Top,1*
G04 #@! %TF.FilePolarity,Negative*
G04 #@! %TF.GenerationSoftware,Autodesk,EAGLE,8.6.0*
G04 #@! %TF.CreationDate,2018-03-03T07:32:50Z*
G75*
%MOMM*%
%FSLAX34Y34*%
%LPD*%
%AMOC8*
5,1,8,0,0,1.08239X$1,22.5*%
G01*
%ADD10R,1.608000X1.508000*%
%ADD11R,1.308000X1.708000*%
%ADD12R,1.708000X1.308000*%
%ADD13R,1.708000X0.808000*%
%ADD14R,0.808000X1.708000*%
%ADD15R,2.508000X1.808000*%
%ADD16R,2.108200X1.346200*%
%ADD17R,2.108200X3.606800*%
%ADD18C,1.930400*%
%ADD19C,1.112000*%


D10*
X480520Y132989D03*
X497520Y132989D03*
X481491Y95118D03*
X498491Y95118D03*
D11*
X359018Y218477D03*
X341018Y218477D03*
D12*
X237992Y151009D03*
X237992Y169009D03*
D11*
X376001Y84012D03*
X394001Y84012D03*
D12*
X375024Y218995D03*
X375024Y200995D03*
D11*
X238008Y83993D03*
X256008Y83993D03*
X279004Y218003D03*
X297004Y218003D03*
G36*
X249771Y192797D02*
X237481Y197270D01*
X243323Y213319D01*
X255613Y208846D01*
X249771Y192797D01*
G37*
G36*
X266686Y186641D02*
X254396Y191114D01*
X260238Y207163D01*
X272528Y202690D01*
X266686Y186641D01*
G37*
G36*
X233996Y97453D02*
X227181Y86290D01*
X212604Y95189D01*
X219419Y106352D01*
X233996Y97453D01*
G37*
G36*
X243374Y112817D02*
X236559Y101654D01*
X221982Y110553D01*
X228797Y121716D01*
X243374Y112817D01*
G37*
D12*
X410008Y101019D03*
X410008Y83019D03*
D13*
X377514Y137488D03*
X377514Y142488D03*
X377514Y147488D03*
X377514Y132488D03*
X377514Y127488D03*
X377514Y122488D03*
X377514Y117488D03*
X377514Y112488D03*
X377514Y102488D03*
X377514Y107488D03*
X377514Y152488D03*
X377514Y157488D03*
X377514Y162488D03*
X377514Y167488D03*
X377514Y172488D03*
X377514Y177488D03*
D14*
X322514Y197488D03*
X327514Y197488D03*
X332514Y197488D03*
X337514Y197488D03*
X342514Y197488D03*
X347514Y197488D03*
X352514Y197488D03*
X357514Y197488D03*
X317514Y197488D03*
X312514Y197488D03*
X307514Y197488D03*
X302514Y197488D03*
X297514Y197488D03*
X292514Y197488D03*
X287514Y197488D03*
X282514Y197488D03*
D13*
X262514Y137488D03*
X262514Y142488D03*
X262514Y147488D03*
X262514Y132488D03*
X262514Y127488D03*
X262514Y122488D03*
X262514Y117488D03*
X262514Y112488D03*
X262514Y102488D03*
X262514Y107488D03*
X262514Y152488D03*
X262514Y157488D03*
X262514Y162488D03*
X262514Y167488D03*
X262514Y172488D03*
X262514Y177488D03*
D14*
X322514Y82488D03*
X327514Y82488D03*
X332514Y82488D03*
X337514Y82488D03*
X342514Y82488D03*
X347514Y82488D03*
X352514Y82488D03*
X357514Y82488D03*
X317514Y82488D03*
X312514Y82488D03*
X307514Y82488D03*
X302514Y82488D03*
X297514Y82488D03*
X292514Y82488D03*
X287514Y82488D03*
X282514Y82488D03*
D15*
X455001Y95002D03*
X455001Y133002D03*
D12*
X122200Y142100D03*
X122200Y124100D03*
X122300Y92500D03*
X122300Y110500D03*
D16*
X141996Y146000D03*
X141996Y123000D03*
X141996Y100000D03*
D17*
X206004Y123000D03*
D18*
X80000Y55000D03*
X100000Y55000D03*
X120000Y55000D03*
X140000Y55000D03*
X160000Y55000D03*
X480000Y55000D03*
X500000Y55000D03*
X520000Y55000D03*
X540000Y55000D03*
X560000Y55000D03*
X605000Y140000D03*
X605000Y120000D03*
X605000Y100000D03*
X605000Y80000D03*
X605000Y60000D03*
X35000Y60000D03*
X35000Y80000D03*
X35000Y100000D03*
X35000Y120000D03*
X35000Y140000D03*
X180000Y55000D03*
X460000Y55000D03*
X542500Y100000D03*
X542500Y120000D03*
X542500Y140000D03*
X562500Y100000D03*
X562500Y120000D03*
X562500Y140000D03*
X97500Y100000D03*
X97500Y120000D03*
X97500Y140000D03*
X77500Y100000D03*
X77500Y120000D03*
X77500Y140000D03*
X230000Y55000D03*
X410000Y55000D03*
X320000Y217000D03*
D19*
X206000Y93000D03*
X345000Y153000D03*
X389000Y212000D03*
X308000Y179000D03*
X425000Y88000D03*
X509000Y95000D03*
X297500Y170000D03*
X317900Y162100D03*
X260000Y218000D03*
X300000Y129000D03*
X220000Y157000D03*
X160000Y105186D03*
X366000Y84000D03*
X343000Y120000D03*
X396000Y203000D03*
X323000Y178000D03*
X396611Y183611D03*
X342000Y182286D03*
X395000Y174000D03*
X333328Y182286D03*
X285000Y176000D03*
X180000Y84000D03*
X186000Y100000D03*
X242000Y184186D03*
X284000Y185000D03*
X157000Y85000D03*
X176000Y98000D03*
X234200Y190000D03*
X280000Y96000D03*
X290000Y114000D03*
X295000Y123186D03*
X355000Y127000D03*
X437000Y78000D03*
X338000Y106000D03*
X422000Y111000D03*
X322000Y105000D03*
X305000Y45600D03*
X286000Y104000D03*
X415000Y124000D03*
X403000Y131000D03*
X401000Y139000D03*
X518000Y147000D03*
X297512Y162436D03*
X578000Y72000D03*
X318000Y116000D03*
X337000Y97000D03*
X321000Y131000D03*
X327000Y144000D03*
X245000Y132814D03*
M02*
