G04 EAGLE Gerber X2 export*
G04 #@! %TF.Part,Single*
G04 #@! %TF.FileFunction,Copper,L1,Top,Mixed*
G04 #@! %TF.FilePolarity,Positive*
G04 #@! %TF.GenerationSoftware,Autodesk,EAGLE,8.6.0*
G04 #@! %TF.CreationDate,2018-03-03T07:31:48Z*
G75*
%MOMM*%
%FSLAX34Y34*%
%LPD*%
%AMOC8*
5,1,8,0,0,1.08239X$1,22.5*%
G01*
%ADD10C,1.422400*%
%ADD11R,0.800000X1.200000*%
%ADD12R,2.550000X2.700000*%
%ADD13P,1.649562X8X168.200000*%
%ADD14P,1.649562X8X57.000000*%
%ADD15R,0.950000X0.300000*%
%ADD16R,1.550000X0.600000*%
%ADD17R,1.200000X0.800000*%
%ADD18R,0.838200X1.600200*%
%ADD19R,3.098800X1.600200*%
%ADD20P,2.089446X8X22.500000*%
%ADD21P,1.814519X8X22.500000*%
%ADD22C,0.604000*%
%ADD23C,0.508000*%
%ADD24C,0.304800*%
%ADD25C,0.254000*%

G36*
X500800Y135096D02*
X500800Y135096D01*
X500919Y135103D01*
X500957Y135116D01*
X500998Y135121D01*
X501108Y135164D01*
X501221Y135201D01*
X501256Y135223D01*
X501293Y135238D01*
X501389Y135307D01*
X501490Y135371D01*
X501518Y135401D01*
X501551Y135424D01*
X501627Y135516D01*
X501708Y135603D01*
X501728Y135638D01*
X501753Y135669D01*
X501804Y135777D01*
X501862Y135881D01*
X501872Y135921D01*
X501889Y135957D01*
X501911Y136074D01*
X501941Y136189D01*
X501945Y136249D01*
X501949Y136269D01*
X501947Y136290D01*
X501951Y136350D01*
X501951Y149163D01*
X503040Y150251D01*
X503100Y150329D01*
X503168Y150401D01*
X503197Y150454D01*
X503234Y150502D01*
X503274Y150593D01*
X503322Y150680D01*
X503337Y150739D01*
X503361Y150794D01*
X503376Y150892D01*
X503401Y150988D01*
X503407Y151088D01*
X503411Y151108D01*
X503409Y151121D01*
X503411Y151149D01*
X503411Y155112D01*
X504278Y157204D01*
X504300Y157233D01*
X504391Y157351D01*
X504395Y157360D01*
X504401Y157368D01*
X504472Y157512D01*
X504855Y158438D01*
X506562Y160145D01*
X508793Y161069D01*
X511207Y161069D01*
X513438Y160145D01*
X515145Y158438D01*
X516069Y156207D01*
X516069Y153793D01*
X515106Y151470D01*
X515100Y151461D01*
X515052Y151351D01*
X514998Y151245D01*
X514989Y151206D01*
X514973Y151169D01*
X514955Y151051D01*
X514929Y150935D01*
X514930Y150895D01*
X514923Y150855D01*
X514935Y150736D01*
X514938Y150617D01*
X514949Y150578D01*
X514953Y150538D01*
X514993Y150426D01*
X515027Y150312D01*
X515047Y150277D01*
X515061Y150239D01*
X515128Y150140D01*
X515188Y150038D01*
X515228Y149993D01*
X515239Y149976D01*
X515255Y149962D01*
X515295Y149917D01*
X516049Y149163D01*
X516049Y148463D01*
X516061Y148367D01*
X516063Y148271D01*
X516081Y148210D01*
X516089Y148147D01*
X516124Y148058D01*
X516150Y147965D01*
X516182Y147911D01*
X516206Y147852D01*
X516262Y147774D01*
X516311Y147691D01*
X516355Y147646D01*
X516392Y147594D01*
X516467Y147533D01*
X516534Y147464D01*
X516589Y147432D01*
X516637Y147392D01*
X516725Y147350D01*
X516807Y147301D01*
X516868Y147283D01*
X516925Y147256D01*
X517020Y147238D01*
X517112Y147211D01*
X517219Y147200D01*
X517237Y147196D01*
X517248Y147197D01*
X517272Y147195D01*
X527254Y146835D01*
X527396Y146848D01*
X527537Y146857D01*
X527554Y146862D01*
X527571Y146864D01*
X527705Y146911D01*
X527839Y146955D01*
X527854Y146964D01*
X527871Y146970D01*
X527988Y147049D01*
X528108Y147125D01*
X528120Y147138D01*
X528135Y147147D01*
X528229Y147253D01*
X528326Y147356D01*
X528335Y147372D01*
X528346Y147385D01*
X528411Y147511D01*
X528480Y147635D01*
X528484Y147652D01*
X528492Y147668D01*
X528524Y147806D01*
X528559Y147943D01*
X528561Y147967D01*
X528563Y147978D01*
X528562Y147997D01*
X528569Y148104D01*
X528569Y151735D01*
X535265Y158431D01*
X544735Y158431D01*
X549462Y153704D01*
X549556Y153631D01*
X549645Y153552D01*
X549681Y153534D01*
X549713Y153509D01*
X549822Y153461D01*
X549928Y153407D01*
X549968Y153399D01*
X550005Y153382D01*
X550123Y153364D01*
X550239Y153338D01*
X550279Y153339D01*
X550319Y153333D01*
X550438Y153344D01*
X550556Y153347D01*
X550595Y153359D01*
X550636Y153362D01*
X550748Y153403D01*
X550862Y153436D01*
X550897Y153456D01*
X550935Y153470D01*
X551034Y153537D01*
X551136Y153597D01*
X551181Y153637D01*
X551198Y153649D01*
X551211Y153664D01*
X551257Y153704D01*
X555476Y157923D01*
X557969Y157923D01*
X557969Y147762D01*
X557984Y147644D01*
X557991Y147525D01*
X558003Y147487D01*
X558009Y147447D01*
X558052Y147336D01*
X558089Y147223D01*
X558111Y147189D01*
X558126Y147151D01*
X558195Y147055D01*
X558259Y146954D01*
X558289Y146926D01*
X558312Y146894D01*
X558404Y146818D01*
X558491Y146736D01*
X558526Y146717D01*
X558557Y146691D01*
X558665Y146640D01*
X558769Y146583D01*
X558809Y146573D01*
X558845Y146555D01*
X558962Y146533D01*
X559077Y146503D01*
X559137Y146499D01*
X559157Y146496D01*
X559178Y146497D01*
X559238Y146493D01*
X559493Y146493D01*
X559493Y146238D01*
X559508Y146120D01*
X559515Y146001D01*
X559528Y145963D01*
X559533Y145922D01*
X559577Y145812D01*
X559613Y145699D01*
X559635Y145664D01*
X559650Y145627D01*
X559720Y145530D01*
X559783Y145430D01*
X559813Y145402D01*
X559837Y145369D01*
X559928Y145293D01*
X560015Y145212D01*
X560050Y145192D01*
X560082Y145167D01*
X560189Y145116D01*
X560294Y145058D01*
X560333Y145048D01*
X560369Y145031D01*
X560486Y145009D01*
X560602Y144979D01*
X560662Y144975D01*
X560682Y144971D01*
X560702Y144973D01*
X560762Y144969D01*
X570923Y144969D01*
X570923Y142476D01*
X565695Y137247D01*
X565609Y137138D01*
X565521Y137031D01*
X565512Y137012D01*
X565500Y136996D01*
X565444Y136868D01*
X565385Y136743D01*
X565381Y136723D01*
X565373Y136704D01*
X565351Y136566D01*
X565325Y136430D01*
X565327Y136410D01*
X565323Y136390D01*
X565336Y136251D01*
X565345Y136113D01*
X565351Y136094D01*
X565353Y136074D01*
X565400Y135942D01*
X565443Y135811D01*
X565454Y135793D01*
X565461Y135774D01*
X565539Y135659D01*
X565613Y135542D01*
X565628Y135528D01*
X565639Y135511D01*
X565744Y135419D01*
X565845Y135324D01*
X565863Y135314D01*
X565878Y135301D01*
X566002Y135237D01*
X566123Y135170D01*
X566143Y135165D01*
X566161Y135156D01*
X566297Y135126D01*
X566431Y135091D01*
X566459Y135089D01*
X566471Y135086D01*
X566492Y135087D01*
X566592Y135081D01*
X585190Y135081D01*
X585308Y135096D01*
X585427Y135103D01*
X585465Y135116D01*
X585506Y135121D01*
X585616Y135164D01*
X585729Y135201D01*
X585764Y135223D01*
X585801Y135238D01*
X585897Y135307D01*
X585998Y135371D01*
X586026Y135401D01*
X586059Y135424D01*
X586135Y135516D01*
X586216Y135603D01*
X586236Y135638D01*
X586261Y135669D01*
X586312Y135777D01*
X586370Y135881D01*
X586380Y135921D01*
X586397Y135957D01*
X586419Y136074D01*
X586449Y136189D01*
X586453Y136249D01*
X586457Y136269D01*
X586455Y136290D01*
X586459Y136350D01*
X586459Y140701D01*
X592270Y140701D01*
X592388Y140716D01*
X592507Y140723D01*
X592545Y140735D01*
X592585Y140741D01*
X592696Y140784D01*
X592809Y140821D01*
X592843Y140843D01*
X592881Y140858D01*
X592977Y140927D01*
X592994Y140938D01*
X593018Y140924D01*
X593050Y140899D01*
X593157Y140848D01*
X593262Y140790D01*
X593301Y140780D01*
X593337Y140763D01*
X593454Y140741D01*
X593570Y140711D01*
X593630Y140707D01*
X593650Y140703D01*
X593670Y140705D01*
X593730Y140701D01*
X599541Y140701D01*
X599541Y136350D01*
X599556Y136232D01*
X599563Y136113D01*
X599576Y136075D01*
X599581Y136034D01*
X599624Y135924D01*
X599661Y135811D01*
X599683Y135776D01*
X599698Y135739D01*
X599767Y135643D01*
X599831Y135542D01*
X599861Y135514D01*
X599884Y135481D01*
X599976Y135405D01*
X600063Y135324D01*
X600098Y135304D01*
X600129Y135279D01*
X600237Y135228D01*
X600341Y135170D01*
X600381Y135160D01*
X600417Y135143D01*
X600534Y135121D01*
X600649Y135091D01*
X600709Y135087D01*
X600729Y135083D01*
X600750Y135085D01*
X600810Y135081D01*
X602682Y135081D01*
X602800Y135096D01*
X602919Y135103D01*
X602957Y135116D01*
X602998Y135121D01*
X603108Y135164D01*
X603221Y135201D01*
X603256Y135223D01*
X603293Y135238D01*
X603389Y135307D01*
X603490Y135371D01*
X603518Y135401D01*
X603551Y135424D01*
X603627Y135516D01*
X603708Y135603D01*
X603728Y135638D01*
X603753Y135669D01*
X603804Y135777D01*
X603862Y135881D01*
X603872Y135921D01*
X603889Y135957D01*
X603911Y136074D01*
X603941Y136189D01*
X603945Y136249D01*
X603949Y136269D01*
X603947Y136290D01*
X603951Y136350D01*
X603951Y149963D01*
X605040Y151051D01*
X605100Y151129D01*
X605168Y151201D01*
X605197Y151254D01*
X605234Y151302D01*
X605274Y151393D01*
X605322Y151480D01*
X605337Y151539D01*
X605361Y151594D01*
X605376Y151692D01*
X605401Y151788D01*
X605407Y151888D01*
X605411Y151908D01*
X605409Y151921D01*
X605411Y151949D01*
X605411Y153382D01*
X605410Y153391D01*
X605411Y153400D01*
X605390Y153549D01*
X605371Y153697D01*
X605368Y153706D01*
X605367Y153715D01*
X605315Y153867D01*
X604931Y154793D01*
X604931Y157207D01*
X605855Y159438D01*
X607562Y161145D01*
X609793Y162069D01*
X612207Y162069D01*
X614438Y161145D01*
X616145Y159438D01*
X617069Y157207D01*
X617069Y154793D01*
X616685Y153867D01*
X616683Y153858D01*
X616678Y153850D01*
X616641Y153705D01*
X616601Y153561D01*
X616601Y153551D01*
X616599Y153542D01*
X616589Y153382D01*
X616589Y151949D01*
X616601Y151850D01*
X616604Y151751D01*
X616621Y151693D01*
X616629Y151633D01*
X616665Y151541D01*
X616693Y151446D01*
X616723Y151394D01*
X616746Y151337D01*
X616804Y151257D01*
X616854Y151172D01*
X616920Y151097D01*
X616932Y151080D01*
X616942Y151072D01*
X616960Y151051D01*
X617827Y150184D01*
X617940Y150097D01*
X618051Y150006D01*
X618066Y149999D01*
X618079Y149989D01*
X618210Y149932D01*
X618340Y149872D01*
X618356Y149869D01*
X618371Y149863D01*
X618512Y149840D01*
X618652Y149814D01*
X618669Y149815D01*
X618685Y149813D01*
X618827Y149826D01*
X618970Y149836D01*
X618985Y149841D01*
X619001Y149843D01*
X619136Y149891D01*
X619272Y149936D01*
X619285Y149945D01*
X619301Y149950D01*
X619419Y150031D01*
X619539Y150108D01*
X619550Y150120D01*
X619564Y150129D01*
X619658Y150236D01*
X619756Y150341D01*
X619763Y150355D01*
X619774Y150367D01*
X619839Y150494D01*
X619907Y150620D01*
X619914Y150642D01*
X619919Y150651D01*
X619923Y150669D01*
X619956Y150774D01*
X620034Y151086D01*
X620036Y151103D01*
X620048Y151145D01*
X620225Y152032D01*
X620290Y152152D01*
X620299Y152180D01*
X620305Y152192D01*
X620307Y152200D01*
X620828Y152904D01*
X620836Y152918D01*
X620863Y152953D01*
X621366Y153705D01*
X621473Y153791D01*
X621492Y153813D01*
X621501Y153822D01*
X621506Y153829D01*
X622257Y154279D01*
X622270Y154289D01*
X622308Y154311D01*
X696659Y203879D01*
X696692Y203908D01*
X696731Y203931D01*
X696852Y204037D01*
X697122Y204307D01*
X697481Y204456D01*
X697519Y204478D01*
X697560Y204492D01*
X697699Y204573D01*
X698023Y204788D01*
X698397Y204862D01*
X698440Y204876D01*
X698484Y204883D01*
X698637Y204935D01*
X698989Y205081D01*
X699378Y205081D01*
X699421Y205086D01*
X699465Y205084D01*
X699624Y205105D01*
X700005Y205180D01*
X700380Y205105D01*
X700425Y205102D01*
X700468Y205091D01*
X700629Y205081D01*
X790000Y205081D01*
X790020Y205083D01*
X790124Y205087D01*
X790836Y205157D01*
X790940Y205181D01*
X791045Y205195D01*
X791125Y205223D01*
X791147Y205228D01*
X791161Y205235D01*
X791198Y205247D01*
X792514Y205793D01*
X792522Y205797D01*
X792531Y205800D01*
X792660Y205876D01*
X792790Y205950D01*
X792796Y205956D01*
X792804Y205961D01*
X792925Y206068D01*
X793825Y206968D01*
X793911Y207078D01*
X794000Y207186D01*
X794008Y207204D01*
X794020Y207219D01*
X794076Y207348D01*
X794135Y207474D01*
X794139Y207493D01*
X794147Y207511D01*
X794169Y207649D01*
X794195Y207787D01*
X794193Y207806D01*
X794196Y207825D01*
X794183Y207965D01*
X794174Y208104D01*
X794168Y208122D01*
X794167Y208141D01*
X794119Y208273D01*
X794076Y208407D01*
X794065Y208423D01*
X794059Y208441D01*
X793981Y208556D01*
X793905Y208675D01*
X793891Y208688D01*
X793880Y208704D01*
X793776Y208796D01*
X793673Y208892D01*
X793656Y208902D01*
X793642Y208914D01*
X793518Y208978D01*
X793394Y209045D01*
X793376Y209050D01*
X793359Y209059D01*
X793222Y209090D01*
X793086Y209124D01*
X793060Y209126D01*
X793048Y209129D01*
X793028Y209128D01*
X792926Y209134D01*
X784167Y209119D01*
X784141Y223890D01*
X784126Y224008D01*
X784119Y224126D01*
X784106Y224165D01*
X784101Y224205D01*
X784057Y224316D01*
X784020Y224429D01*
X783998Y224463D01*
X783983Y224501D01*
X783913Y224597D01*
X783849Y224697D01*
X783820Y224725D01*
X783796Y224758D01*
X783704Y224833D01*
X783617Y224915D01*
X783582Y224934D01*
X783551Y224960D01*
X783443Y225011D01*
X783339Y225068D01*
X783299Y225078D01*
X783263Y225095D01*
X783146Y225117D01*
X783031Y225147D01*
X782970Y225150D01*
X782950Y225154D01*
X782930Y225153D01*
X782870Y225157D01*
X781599Y225154D01*
X781599Y225156D01*
X782870Y225158D01*
X782988Y225173D01*
X783107Y225181D01*
X783145Y225194D01*
X783185Y225199D01*
X783296Y225243D01*
X783409Y225280D01*
X783443Y225301D01*
X783481Y225316D01*
X783577Y225386D01*
X783677Y225450D01*
X783705Y225480D01*
X783738Y225504D01*
X783814Y225596D01*
X783895Y225682D01*
X783914Y225718D01*
X783940Y225749D01*
X783991Y225857D01*
X784048Y225961D01*
X784058Y226000D01*
X784075Y226037D01*
X784097Y226154D01*
X784127Y226269D01*
X784131Y226329D01*
X784134Y226349D01*
X784133Y226370D01*
X784134Y226386D01*
X784134Y226387D01*
X784137Y226430D01*
X784111Y241200D01*
X793652Y241217D01*
X793769Y241232D01*
X793887Y241239D01*
X793926Y241252D01*
X793968Y241257D01*
X794077Y241301D01*
X794189Y241337D01*
X794225Y241360D01*
X794263Y241375D01*
X794358Y241444D01*
X794458Y241508D01*
X794487Y241538D01*
X794520Y241562D01*
X794595Y241653D01*
X794676Y241739D01*
X794696Y241776D01*
X794723Y241808D01*
X794773Y241914D01*
X794830Y242018D01*
X794840Y242058D01*
X794858Y242096D01*
X794880Y242211D01*
X794909Y242326D01*
X794913Y242388D01*
X794917Y242408D01*
X794916Y242428D01*
X794919Y242486D01*
X794919Y249682D01*
X794904Y249800D01*
X794897Y249919D01*
X794884Y249957D01*
X794879Y249998D01*
X794836Y250108D01*
X794799Y250221D01*
X794777Y250256D01*
X794762Y250293D01*
X794693Y250389D01*
X794629Y250490D01*
X794599Y250518D01*
X794576Y250551D01*
X794484Y250627D01*
X794397Y250708D01*
X794362Y250728D01*
X794331Y250753D01*
X794223Y250804D01*
X794119Y250862D01*
X794079Y250872D01*
X794043Y250889D01*
X793926Y250911D01*
X793811Y250941D01*
X793751Y250945D01*
X793731Y250949D01*
X793710Y250947D01*
X793650Y250951D01*
X783737Y250951D01*
X781951Y252737D01*
X781951Y267263D01*
X783040Y268351D01*
X783100Y268429D01*
X783168Y268501D01*
X783197Y268554D01*
X783234Y268602D01*
X783274Y268693D01*
X783322Y268780D01*
X783337Y268839D01*
X783361Y268894D01*
X783376Y268992D01*
X783401Y269088D01*
X783407Y269188D01*
X783411Y269208D01*
X783409Y269221D01*
X783411Y269249D01*
X783411Y277158D01*
X783396Y277276D01*
X783389Y277395D01*
X783376Y277433D01*
X783371Y277474D01*
X783328Y277584D01*
X783291Y277697D01*
X783269Y277732D01*
X783254Y277769D01*
X783185Y277865D01*
X783121Y277966D01*
X783091Y277994D01*
X783068Y278027D01*
X782976Y278103D01*
X782889Y278184D01*
X782854Y278204D01*
X782823Y278229D01*
X782715Y278280D01*
X782611Y278338D01*
X782571Y278348D01*
X782535Y278365D01*
X782418Y278387D01*
X782303Y278417D01*
X782243Y278421D01*
X782223Y278425D01*
X782202Y278423D01*
X782142Y278427D01*
X770745Y278427D01*
X770607Y278410D01*
X770468Y278397D01*
X770449Y278390D01*
X770429Y278387D01*
X770300Y278336D01*
X770169Y278289D01*
X770152Y278278D01*
X770133Y278270D01*
X770021Y278189D01*
X769906Y278111D01*
X769892Y278095D01*
X769876Y278084D01*
X769787Y277976D01*
X769695Y277872D01*
X769686Y277854D01*
X769673Y277839D01*
X769614Y277713D01*
X769551Y277589D01*
X769546Y277569D01*
X769538Y277551D01*
X769512Y277415D01*
X769481Y277279D01*
X769482Y277258D01*
X769478Y277239D01*
X769487Y277100D01*
X769491Y276961D01*
X769496Y276941D01*
X769498Y276921D01*
X769540Y276789D01*
X769579Y276655D01*
X769589Y276638D01*
X769596Y276619D01*
X769670Y276501D01*
X769741Y276381D01*
X769759Y276360D01*
X769766Y276350D01*
X769781Y276336D01*
X769847Y276261D01*
X775319Y270789D01*
X775319Y270318D01*
X775334Y270200D01*
X775341Y270081D01*
X775354Y270043D01*
X775359Y270002D01*
X775402Y269892D01*
X775439Y269779D01*
X775461Y269744D01*
X775476Y269707D01*
X775545Y269611D01*
X775609Y269510D01*
X775639Y269482D01*
X775662Y269449D01*
X775754Y269373D01*
X775841Y269292D01*
X775876Y269272D01*
X775907Y269247D01*
X776015Y269196D01*
X776119Y269138D01*
X776159Y269128D01*
X776195Y269111D01*
X776202Y269110D01*
X778049Y267263D01*
X778049Y252737D01*
X776263Y250951D01*
X765737Y250951D01*
X763951Y252737D01*
X763951Y267263D01*
X764393Y267704D01*
X764466Y267798D01*
X764545Y267888D01*
X764563Y267924D01*
X764588Y267956D01*
X764635Y268065D01*
X764689Y268171D01*
X764698Y268210D01*
X764714Y268248D01*
X764733Y268365D01*
X764759Y268481D01*
X764758Y268522D01*
X764764Y268562D01*
X764753Y268680D01*
X764749Y268799D01*
X764738Y268838D01*
X764734Y268878D01*
X764694Y268990D01*
X764661Y269105D01*
X764640Y269140D01*
X764627Y269178D01*
X764560Y269276D01*
X764499Y269379D01*
X764459Y269424D01*
X764448Y269441D01*
X764433Y269454D01*
X764393Y269499D01*
X760115Y273777D01*
X760006Y273862D01*
X759899Y273951D01*
X759880Y273959D01*
X759864Y273972D01*
X759736Y274027D01*
X759611Y274086D01*
X759591Y274090D01*
X759572Y274098D01*
X759434Y274120D01*
X759298Y274146D01*
X759278Y274145D01*
X759258Y274148D01*
X759119Y274135D01*
X758981Y274126D01*
X758962Y274120D01*
X758942Y274118D01*
X758810Y274071D01*
X758679Y274028D01*
X758661Y274018D01*
X758642Y274011D01*
X758527Y273933D01*
X758410Y273858D01*
X758396Y273843D01*
X758379Y273832D01*
X758287Y273728D01*
X758192Y273627D01*
X758182Y273609D01*
X758169Y273594D01*
X758105Y273470D01*
X758038Y273348D01*
X758033Y273328D01*
X758024Y273310D01*
X757994Y273175D01*
X757959Y273040D01*
X757957Y273012D01*
X757954Y273000D01*
X757955Y272980D01*
X757949Y272879D01*
X757949Y270587D01*
X756163Y268801D01*
X744137Y268801D01*
X742351Y270587D01*
X742351Y275015D01*
X742339Y275114D01*
X742336Y275213D01*
X742319Y275271D01*
X742311Y275331D01*
X742275Y275423D01*
X742247Y275518D01*
X742217Y275570D01*
X742194Y275627D01*
X742136Y275707D01*
X742086Y275792D01*
X742020Y275867D01*
X742008Y275884D01*
X741998Y275892D01*
X741980Y275913D01*
X708284Y309608D01*
X708277Y309614D01*
X708271Y309621D01*
X708151Y309711D01*
X708033Y309803D01*
X708024Y309807D01*
X708017Y309813D01*
X707872Y309883D01*
X704244Y311386D01*
X701386Y314244D01*
X701173Y314760D01*
X701104Y314881D01*
X701039Y315004D01*
X701025Y315018D01*
X701015Y315036D01*
X700918Y315136D01*
X700825Y315239D01*
X700808Y315250D01*
X700794Y315265D01*
X700675Y315337D01*
X700559Y315414D01*
X700540Y315420D01*
X700523Y315431D01*
X700390Y315472D01*
X700258Y315517D01*
X700238Y315518D01*
X700219Y315524D01*
X700080Y315531D01*
X699941Y315542D01*
X699921Y315539D01*
X699901Y315540D01*
X699765Y315511D01*
X699628Y315488D01*
X699609Y315479D01*
X699590Y315475D01*
X699465Y315414D01*
X699338Y315357D01*
X699322Y315344D01*
X699304Y315336D01*
X699198Y315245D01*
X699090Y315158D01*
X699077Y315142D01*
X699062Y315129D01*
X698982Y315015D01*
X698898Y314904D01*
X698886Y314879D01*
X698879Y314869D01*
X698872Y314850D01*
X698827Y314760D01*
X698614Y314244D01*
X695756Y311386D01*
X692021Y309839D01*
X687979Y309839D01*
X684244Y311386D01*
X681386Y314244D01*
X679839Y317979D01*
X679839Y322021D01*
X681386Y325756D01*
X683383Y327753D01*
X683468Y327862D01*
X683557Y327969D01*
X683566Y327988D01*
X683578Y328004D01*
X683633Y328132D01*
X683692Y328257D01*
X683696Y328277D01*
X683704Y328296D01*
X683726Y328434D01*
X683752Y328570D01*
X683751Y328590D01*
X683754Y328610D01*
X683741Y328749D01*
X683733Y328887D01*
X683726Y328906D01*
X683724Y328926D01*
X683677Y329058D01*
X683634Y329189D01*
X683624Y329207D01*
X683617Y329226D01*
X683539Y329341D01*
X683464Y329458D01*
X683450Y329472D01*
X683438Y329489D01*
X683334Y329581D01*
X683233Y329676D01*
X683215Y329686D01*
X683200Y329699D01*
X683076Y329763D01*
X682954Y329830D01*
X682935Y329835D01*
X682917Y329844D01*
X682781Y329874D01*
X682646Y329909D01*
X682618Y329911D01*
X682606Y329914D01*
X682586Y329913D01*
X682486Y329919D01*
X550000Y329919D01*
X549882Y329904D01*
X549763Y329897D01*
X549725Y329884D01*
X549684Y329879D01*
X549574Y329836D01*
X549461Y329799D01*
X549426Y329777D01*
X549389Y329762D01*
X549293Y329693D01*
X549192Y329629D01*
X549164Y329599D01*
X549131Y329576D01*
X549056Y329484D01*
X548974Y329397D01*
X548954Y329362D01*
X548929Y329331D01*
X548878Y329223D01*
X548820Y329119D01*
X548810Y329079D01*
X548793Y329043D01*
X548771Y328926D01*
X548741Y328811D01*
X548737Y328751D01*
X548733Y328731D01*
X548735Y328710D01*
X548731Y328650D01*
X548731Y327123D01*
X548746Y327005D01*
X548753Y326886D01*
X548766Y326848D01*
X548771Y326807D01*
X548814Y326697D01*
X548851Y326584D01*
X548873Y326549D01*
X548888Y326512D01*
X548958Y326416D01*
X549021Y326315D01*
X549051Y326287D01*
X549074Y326254D01*
X549166Y326178D01*
X549253Y326097D01*
X549288Y326077D01*
X549319Y326052D01*
X549427Y326001D01*
X549531Y325943D01*
X549571Y325933D01*
X549607Y325916D01*
X549724Y325894D01*
X549839Y325864D01*
X549900Y325860D01*
X549920Y325856D01*
X549940Y325858D01*
X550000Y325854D01*
X555254Y325854D01*
X557040Y324068D01*
X557040Y313390D01*
X557052Y313291D01*
X557055Y313192D01*
X557072Y313134D01*
X557080Y313074D01*
X557116Y312982D01*
X557144Y312887D01*
X557174Y312835D01*
X557197Y312778D01*
X557255Y312698D01*
X557305Y312613D01*
X557371Y312538D01*
X557383Y312521D01*
X557393Y312513D01*
X557411Y312492D01*
X563902Y306002D01*
X564011Y305917D01*
X564118Y305828D01*
X564137Y305820D01*
X564153Y305807D01*
X564281Y305752D01*
X564406Y305693D01*
X564426Y305689D01*
X564445Y305681D01*
X564583Y305659D01*
X564719Y305633D01*
X564739Y305634D01*
X564759Y305631D01*
X564898Y305644D01*
X565036Y305653D01*
X565055Y305659D01*
X565075Y305661D01*
X565207Y305708D01*
X565338Y305751D01*
X565356Y305762D01*
X565375Y305768D01*
X565490Y305846D01*
X565607Y305921D01*
X565621Y305936D01*
X565638Y305947D01*
X565730Y306051D01*
X565825Y306152D01*
X565835Y306170D01*
X565848Y306185D01*
X565912Y306310D01*
X565979Y306431D01*
X565984Y306451D01*
X565993Y306469D01*
X566023Y306604D01*
X566058Y306739D01*
X566060Y306767D01*
X566063Y306779D01*
X566062Y306799D01*
X566068Y306900D01*
X566068Y312709D01*
X570705Y312709D01*
X570705Y304262D01*
X568706Y304262D01*
X568568Y304245D01*
X568429Y304232D01*
X568410Y304225D01*
X568390Y304222D01*
X568261Y304171D01*
X568130Y304124D01*
X568113Y304113D01*
X568094Y304105D01*
X567982Y304024D01*
X567867Y303946D01*
X567853Y303930D01*
X567837Y303919D01*
X567748Y303811D01*
X567656Y303707D01*
X567647Y303689D01*
X567634Y303674D01*
X567575Y303548D01*
X567512Y303424D01*
X567507Y303404D01*
X567499Y303386D01*
X567473Y303250D01*
X567442Y303114D01*
X567443Y303093D01*
X567439Y303074D01*
X567448Y302935D01*
X567452Y302796D01*
X567457Y302776D01*
X567459Y302756D01*
X567501Y302624D01*
X567540Y302490D01*
X567550Y302473D01*
X567557Y302454D01*
X567631Y302336D01*
X567702Y302216D01*
X567720Y302195D01*
X567727Y302185D01*
X567742Y302171D01*
X567808Y302096D01*
X577943Y291960D01*
X578021Y291900D01*
X578094Y291832D01*
X578147Y291803D01*
X578194Y291766D01*
X578285Y291726D01*
X578372Y291678D01*
X578431Y291663D01*
X578486Y291639D01*
X578584Y291624D01*
X578680Y291599D01*
X578780Y291593D01*
X578800Y291589D01*
X578813Y291591D01*
X578841Y291589D01*
X583159Y291589D01*
X583258Y291601D01*
X583357Y291604D01*
X583415Y291621D01*
X583475Y291629D01*
X583567Y291665D01*
X583662Y291693D01*
X583714Y291723D01*
X583771Y291746D01*
X583851Y291804D01*
X583936Y291854D01*
X584011Y291920D01*
X584028Y291932D01*
X584036Y291942D01*
X584057Y291960D01*
X587580Y295483D01*
X587640Y295561D01*
X587708Y295634D01*
X587737Y295687D01*
X587774Y295734D01*
X587814Y295825D01*
X587862Y295912D01*
X587877Y295971D01*
X587901Y296026D01*
X587916Y296124D01*
X587941Y296220D01*
X587947Y296320D01*
X587951Y296340D01*
X587949Y296353D01*
X587951Y296381D01*
X587951Y302263D01*
X589737Y304049D01*
X604263Y304049D01*
X606049Y302263D01*
X606049Y291737D01*
X604263Y289951D01*
X598381Y289951D01*
X598282Y289939D01*
X598183Y289936D01*
X598125Y289919D01*
X598065Y289911D01*
X597973Y289875D01*
X597878Y289847D01*
X597826Y289817D01*
X597769Y289794D01*
X597689Y289736D01*
X597604Y289686D01*
X597529Y289620D01*
X597512Y289608D01*
X597504Y289598D01*
X597483Y289580D01*
X589166Y281262D01*
X587112Y280411D01*
X578618Y280411D01*
X578609Y280410D01*
X578600Y280411D01*
X578451Y280390D01*
X578303Y280371D01*
X578294Y280368D01*
X578285Y280367D01*
X578133Y280315D01*
X577207Y279931D01*
X574793Y279931D01*
X572562Y280855D01*
X570855Y282562D01*
X570472Y283488D01*
X570467Y283496D01*
X570465Y283505D01*
X570389Y283634D01*
X570314Y283764D01*
X570308Y283771D01*
X570303Y283779D01*
X570197Y283900D01*
X557555Y296541D01*
X557446Y296626D01*
X557339Y296715D01*
X557320Y296723D01*
X557304Y296736D01*
X557176Y296791D01*
X557051Y296850D01*
X557031Y296854D01*
X557012Y296862D01*
X556874Y296884D01*
X556738Y296910D01*
X556718Y296909D01*
X556698Y296912D01*
X556559Y296899D01*
X556421Y296890D01*
X556402Y296884D01*
X556382Y296882D01*
X556250Y296835D01*
X556119Y296792D01*
X556101Y296781D01*
X556082Y296775D01*
X555967Y296697D01*
X555850Y296622D01*
X555836Y296607D01*
X555819Y296596D01*
X555727Y296492D01*
X555632Y296391D01*
X555622Y296373D01*
X555609Y296358D01*
X555545Y296234D01*
X555478Y296112D01*
X555473Y296092D01*
X555464Y296074D01*
X555434Y295939D01*
X555399Y295804D01*
X555397Y295776D01*
X555394Y295764D01*
X555395Y295744D01*
X555389Y295643D01*
X555389Y263115D01*
X555404Y262997D01*
X555411Y262878D01*
X555424Y262840D01*
X555429Y262799D01*
X555472Y262689D01*
X555509Y262576D01*
X555531Y262541D01*
X555546Y262504D01*
X555615Y262408D01*
X555679Y262307D01*
X555709Y262279D01*
X555732Y262246D01*
X555824Y262170D01*
X555911Y262089D01*
X555946Y262069D01*
X555977Y262044D01*
X556085Y261993D01*
X556189Y261935D01*
X556229Y261925D01*
X556265Y261908D01*
X556382Y261886D01*
X556497Y261856D01*
X556557Y261852D01*
X556577Y261848D01*
X556598Y261850D01*
X556658Y261846D01*
X566557Y261846D01*
X568343Y260060D01*
X568343Y243970D01*
X568358Y243852D01*
X568365Y243733D01*
X568378Y243695D01*
X568383Y243654D01*
X568426Y243544D01*
X568463Y243431D01*
X568485Y243396D01*
X568500Y243359D01*
X568569Y243263D01*
X568633Y243162D01*
X568663Y243134D01*
X568686Y243101D01*
X568778Y243025D01*
X568865Y242944D01*
X568900Y242924D01*
X568931Y242899D01*
X569039Y242848D01*
X569143Y242790D01*
X569183Y242780D01*
X569219Y242763D01*
X569336Y242741D01*
X569451Y242711D01*
X569511Y242707D01*
X569531Y242703D01*
X569552Y242705D01*
X569612Y242701D01*
X580261Y242701D01*
X587701Y235261D01*
X587701Y229873D01*
X587718Y229735D01*
X587731Y229596D01*
X587738Y229577D01*
X587741Y229557D01*
X587792Y229427D01*
X587839Y229297D01*
X587850Y229280D01*
X587858Y229261D01*
X587939Y229149D01*
X588017Y229034D01*
X588033Y229020D01*
X588044Y229004D01*
X588152Y228915D01*
X588256Y228823D01*
X588274Y228814D01*
X588289Y228801D01*
X588415Y228742D01*
X588539Y228679D01*
X588559Y228674D01*
X588577Y228666D01*
X588714Y228640D01*
X588849Y228609D01*
X588870Y228610D01*
X588889Y228606D01*
X589028Y228615D01*
X589167Y228619D01*
X589187Y228624D01*
X589207Y228626D01*
X589339Y228668D01*
X589473Y228707D01*
X589490Y228717D01*
X589509Y228724D01*
X589627Y228798D01*
X589747Y228869D01*
X589768Y228887D01*
X589778Y228894D01*
X589792Y228909D01*
X589867Y228975D01*
X590582Y229690D01*
X590583Y229690D01*
X603310Y242417D01*
X603370Y242495D01*
X603438Y242567D01*
X603467Y242620D01*
X603504Y242668D01*
X603544Y242759D01*
X603592Y242846D01*
X603607Y242905D01*
X603631Y242960D01*
X603646Y243058D01*
X603671Y243154D01*
X603677Y243254D01*
X603681Y243274D01*
X603679Y243287D01*
X603681Y243315D01*
X603681Y245126D01*
X603669Y245225D01*
X603666Y245324D01*
X603649Y245382D01*
X603641Y245442D01*
X603605Y245534D01*
X603577Y245629D01*
X603547Y245681D01*
X603524Y245738D01*
X603466Y245818D01*
X603416Y245903D01*
X603350Y245979D01*
X603338Y245995D01*
X603328Y246003D01*
X603310Y246024D01*
X602771Y246562D01*
X601847Y248793D01*
X601847Y251207D01*
X602771Y253438D01*
X604478Y255145D01*
X606709Y256069D01*
X608142Y256069D01*
X608260Y256084D01*
X608379Y256091D01*
X608417Y256104D01*
X608458Y256109D01*
X608568Y256152D01*
X608681Y256189D01*
X608716Y256211D01*
X608753Y256226D01*
X608849Y256295D01*
X608950Y256359D01*
X608978Y256389D01*
X609011Y256412D01*
X609087Y256504D01*
X609168Y256591D01*
X609188Y256626D01*
X609213Y256657D01*
X609264Y256765D01*
X609322Y256869D01*
X609332Y256909D01*
X609349Y256945D01*
X609371Y257062D01*
X609401Y257177D01*
X609405Y257237D01*
X609409Y257257D01*
X609407Y257278D01*
X609411Y257338D01*
X609411Y280112D01*
X610262Y282166D01*
X619043Y290946D01*
X621097Y291797D01*
X621858Y291797D01*
X621999Y291815D01*
X622141Y291829D01*
X622157Y291835D01*
X622174Y291837D01*
X622306Y291889D01*
X622440Y291938D01*
X622454Y291948D01*
X622470Y291954D01*
X622585Y292038D01*
X622702Y292118D01*
X622713Y292131D01*
X622727Y292141D01*
X622818Y292251D01*
X622911Y292358D01*
X622919Y292373D01*
X622930Y292386D01*
X622990Y292515D01*
X623055Y292642D01*
X623058Y292658D01*
X623065Y292674D01*
X623092Y292813D01*
X623123Y292952D01*
X623122Y292969D01*
X623125Y292986D01*
X623116Y293128D01*
X623111Y293270D01*
X623106Y293287D01*
X623105Y293303D01*
X623062Y293439D01*
X623021Y293575D01*
X623013Y293590D01*
X623007Y293606D01*
X622931Y293726D01*
X622858Y293848D01*
X622843Y293866D01*
X622837Y293875D01*
X622823Y293888D01*
X622751Y293969D01*
X622124Y294589D01*
X622080Y303115D01*
X623856Y304910D01*
X641882Y305004D01*
X642023Y304864D01*
X642099Y304806D01*
X642169Y304740D01*
X642225Y304709D01*
X642275Y304671D01*
X642363Y304633D01*
X642447Y304587D01*
X642509Y304571D01*
X642568Y304546D01*
X642662Y304531D01*
X642755Y304507D01*
X642863Y304500D01*
X642882Y304498D01*
X642893Y304499D01*
X642916Y304497D01*
X676638Y304497D01*
X676739Y304510D01*
X676841Y304514D01*
X676896Y304530D01*
X676953Y304537D01*
X677048Y304575D01*
X677146Y304604D01*
X677196Y304633D01*
X677249Y304654D01*
X677332Y304714D01*
X677420Y304767D01*
X677489Y304828D01*
X677506Y304841D01*
X677515Y304852D01*
X677540Y304874D01*
X677856Y305193D01*
X695881Y305287D01*
X697676Y303510D01*
X697682Y302304D01*
X697695Y302209D01*
X697698Y302113D01*
X697716Y302052D01*
X697724Y301988D01*
X697760Y301899D01*
X697786Y301807D01*
X697819Y301752D01*
X697842Y301693D01*
X697899Y301616D01*
X697948Y301533D01*
X698019Y301452D01*
X698031Y301437D01*
X698039Y301430D01*
X698054Y301413D01*
X701672Y297794D01*
X701751Y297734D01*
X701823Y297666D01*
X701876Y297637D01*
X701924Y297600D01*
X702015Y297560D01*
X702101Y297512D01*
X702160Y297497D01*
X702215Y297473D01*
X702313Y297458D01*
X702409Y297433D01*
X702509Y297427D01*
X702530Y297423D01*
X702542Y297425D01*
X702570Y297423D01*
X712880Y297423D01*
X712933Y297409D01*
X713033Y297403D01*
X713054Y297399D01*
X713066Y297401D01*
X713094Y297399D01*
X716663Y297399D01*
X718449Y295613D01*
X718449Y290087D01*
X718164Y289803D01*
X718099Y289719D01*
X718028Y289641D01*
X718002Y289594D01*
X717969Y289551D01*
X717927Y289454D01*
X717877Y289361D01*
X717864Y289309D01*
X717843Y289260D01*
X717826Y289155D01*
X717801Y289052D01*
X717801Y288999D01*
X717793Y288945D01*
X717803Y288840D01*
X717804Y288734D01*
X717821Y288651D01*
X717823Y288629D01*
X717828Y288614D01*
X717836Y288577D01*
X717941Y288185D01*
X717941Y287619D01*
X710650Y287619D01*
X703202Y287619D01*
X703133Y287715D01*
X703069Y287816D01*
X703039Y287844D01*
X703016Y287877D01*
X702924Y287953D01*
X702837Y288034D01*
X702802Y288054D01*
X702771Y288079D01*
X702663Y288130D01*
X702559Y288188D01*
X702519Y288198D01*
X702483Y288215D01*
X702366Y288237D01*
X702251Y288267D01*
X702191Y288271D01*
X702171Y288275D01*
X702150Y288273D01*
X702090Y288277D01*
X698524Y288277D01*
X698402Y288262D01*
X698280Y288254D01*
X698245Y288242D01*
X698208Y288237D01*
X698095Y288192D01*
X697978Y288154D01*
X697947Y288134D01*
X697913Y288120D01*
X697814Y288049D01*
X697812Y288047D01*
X687189Y287992D01*
X687071Y287976D01*
X686952Y287968D01*
X686945Y287966D01*
X686889Y287980D01*
X686829Y287983D01*
X686809Y287987D01*
X686789Y287986D01*
X686728Y287989D01*
X676668Y287937D01*
X676658Y289772D01*
X676828Y290419D01*
X677160Y291000D01*
X677315Y291158D01*
X677398Y291265D01*
X677485Y291370D01*
X677495Y291391D01*
X677509Y291410D01*
X677562Y291535D01*
X677620Y291658D01*
X677625Y291681D01*
X677634Y291702D01*
X677655Y291837D01*
X677680Y291970D01*
X677679Y291993D01*
X677682Y292017D01*
X677669Y292152D01*
X677660Y292287D01*
X677653Y292310D01*
X677651Y292333D01*
X677604Y292461D01*
X677562Y292590D01*
X677550Y292610D01*
X677542Y292632D01*
X677465Y292744D01*
X677392Y292858D01*
X677375Y292875D01*
X677362Y292894D01*
X677259Y292983D01*
X677160Y293076D01*
X677140Y293088D01*
X677122Y293103D01*
X677001Y293164D01*
X676882Y293230D01*
X676859Y293236D01*
X676838Y293246D01*
X676705Y293276D01*
X676574Y293309D01*
X676541Y293311D01*
X676527Y293314D01*
X676506Y293314D01*
X676413Y293320D01*
X644009Y293320D01*
X643868Y293302D01*
X643726Y293288D01*
X643710Y293282D01*
X643694Y293280D01*
X643562Y293228D01*
X643428Y293179D01*
X643414Y293169D01*
X643398Y293163D01*
X643283Y293079D01*
X643165Y292999D01*
X643154Y292986D01*
X643141Y292976D01*
X643050Y292866D01*
X642956Y292759D01*
X642949Y292744D01*
X642938Y292731D01*
X642877Y292602D01*
X642813Y292475D01*
X642810Y292458D01*
X642802Y292443D01*
X642776Y292304D01*
X642745Y292164D01*
X642746Y292147D01*
X642743Y292131D01*
X642751Y291989D01*
X642756Y291847D01*
X642761Y291830D01*
X642762Y291813D01*
X642806Y291678D01*
X642846Y291542D01*
X642855Y291527D01*
X642860Y291511D01*
X642937Y291390D01*
X643009Y291268D01*
X643025Y291251D01*
X643030Y291242D01*
X643044Y291229D01*
X643116Y291148D01*
X643743Y290528D01*
X643788Y282002D01*
X643053Y281259D01*
X642970Y281152D01*
X642884Y281047D01*
X642874Y281026D01*
X642859Y281007D01*
X642806Y280882D01*
X642748Y280760D01*
X642744Y280736D01*
X642734Y280715D01*
X642714Y280580D01*
X642688Y280447D01*
X642690Y280424D01*
X642686Y280400D01*
X642700Y280265D01*
X642708Y280130D01*
X642715Y280107D01*
X642718Y280084D01*
X642764Y279956D01*
X642806Y279827D01*
X642819Y279807D01*
X642827Y279785D01*
X642904Y279673D01*
X642976Y279559D01*
X642994Y279542D01*
X643007Y279523D01*
X643109Y279434D01*
X643208Y279341D01*
X643229Y279329D01*
X643246Y279314D01*
X643368Y279252D01*
X643486Y279187D01*
X643509Y279181D01*
X643530Y279171D01*
X643663Y279141D01*
X643794Y279108D01*
X643827Y279106D01*
X643841Y279103D01*
X643862Y279103D01*
X643955Y279097D01*
X646687Y279097D01*
X646746Y279081D01*
X646755Y279081D01*
X646764Y279079D01*
X646925Y279069D01*
X647207Y279069D01*
X649438Y278145D01*
X651145Y276438D01*
X652069Y274207D01*
X652069Y271793D01*
X651145Y269562D01*
X649480Y267898D01*
X649407Y267803D01*
X649328Y267714D01*
X649310Y267678D01*
X649285Y267646D01*
X649238Y267537D01*
X649184Y267431D01*
X649175Y267392D01*
X649159Y267354D01*
X649140Y267237D01*
X649114Y267121D01*
X649115Y267080D01*
X649109Y267040D01*
X649120Y266922D01*
X649124Y266803D01*
X649135Y266764D01*
X649139Y266724D01*
X649179Y266611D01*
X649212Y266497D01*
X649233Y266463D01*
X649246Y266424D01*
X649313Y266326D01*
X649374Y266223D01*
X649413Y266178D01*
X649425Y266161D01*
X649440Y266148D01*
X649480Y266103D01*
X651145Y264438D01*
X651969Y262447D01*
X652004Y262386D01*
X652030Y262321D01*
X652082Y262249D01*
X652127Y262171D01*
X652175Y262121D01*
X652216Y262064D01*
X652286Y262007D01*
X652348Y261942D01*
X652408Y261906D01*
X652461Y261861D01*
X652543Y261823D01*
X652619Y261776D01*
X652686Y261756D01*
X652749Y261726D01*
X652837Y261709D01*
X652923Y261682D01*
X652993Y261679D01*
X653062Y261666D01*
X653151Y261672D01*
X653241Y261667D01*
X653309Y261681D01*
X653379Y261686D01*
X653464Y261713D01*
X653552Y261732D01*
X653615Y261762D01*
X653681Y261784D01*
X653757Y261832D01*
X653838Y261871D01*
X653891Y261917D01*
X653950Y261954D01*
X654012Y262019D01*
X654080Y262078D01*
X654120Y262135D01*
X654168Y262186D01*
X654211Y262264D01*
X654263Y262338D01*
X654288Y262403D01*
X654322Y262464D01*
X654344Y262551D01*
X654376Y262635D01*
X654384Y262705D01*
X654401Y262772D01*
X654411Y262933D01*
X654411Y264112D01*
X655262Y266166D01*
X657013Y267916D01*
X665875Y276779D01*
X667626Y278529D01*
X669680Y279380D01*
X676646Y279380D01*
X676788Y279398D01*
X676929Y279412D01*
X676945Y279418D01*
X676962Y279420D01*
X677095Y279473D01*
X677228Y279521D01*
X677242Y279531D01*
X677258Y279537D01*
X677373Y279621D01*
X677490Y279701D01*
X677501Y279714D01*
X677515Y279724D01*
X677606Y279834D01*
X677699Y279941D01*
X677707Y279956D01*
X677718Y279969D01*
X677778Y280098D01*
X677843Y280225D01*
X677846Y280241D01*
X677853Y280257D01*
X677880Y280396D01*
X677911Y280535D01*
X677910Y280552D01*
X677913Y280569D01*
X677904Y280710D01*
X677899Y280853D01*
X677894Y280869D01*
X677893Y280886D01*
X677850Y281022D01*
X677809Y281158D01*
X677801Y281173D01*
X677795Y281189D01*
X677719Y281309D01*
X677646Y281431D01*
X677631Y281449D01*
X677625Y281458D01*
X677611Y281471D01*
X677539Y281552D01*
X677207Y281880D01*
X676870Y282458D01*
X676693Y283103D01*
X676684Y284938D01*
X686744Y284991D01*
X686862Y285006D01*
X686981Y285014D01*
X686988Y285017D01*
X687044Y285003D01*
X687104Y284999D01*
X687124Y284995D01*
X687144Y284997D01*
X687204Y284993D01*
X697265Y285046D01*
X697274Y283211D01*
X697105Y282564D01*
X696773Y281983D01*
X696243Y281446D01*
X696170Y281352D01*
X696092Y281263D01*
X696074Y281226D01*
X696049Y281194D01*
X696002Y281085D01*
X695949Y280979D01*
X695940Y280939D01*
X695924Y280902D01*
X695906Y280784D01*
X695881Y280668D01*
X695882Y280627D01*
X695876Y280587D01*
X695888Y280469D01*
X695892Y280350D01*
X695904Y280311D01*
X695908Y280271D01*
X695948Y280159D01*
X695982Y280045D01*
X696003Y280010D01*
X696017Y279972D01*
X696084Y279874D01*
X696145Y279772D01*
X696185Y279727D01*
X696197Y279710D01*
X696212Y279696D01*
X696252Y279652D01*
X696326Y279579D01*
X696418Y279508D01*
X696505Y279431D01*
X696543Y279411D01*
X696578Y279385D01*
X696685Y279339D01*
X696788Y279287D01*
X696830Y279277D01*
X696871Y279260D01*
X696985Y279242D01*
X697098Y279217D01*
X697142Y279218D01*
X697185Y279212D01*
X697300Y279223D01*
X697416Y279227D01*
X697458Y279239D01*
X697501Y279243D01*
X697610Y279283D01*
X697722Y279315D01*
X697759Y279337D01*
X697800Y279352D01*
X697896Y279418D01*
X697995Y279477D01*
X698045Y279520D01*
X698062Y279532D01*
X698075Y279547D01*
X698116Y279583D01*
X699478Y280944D01*
X702988Y284454D01*
X703048Y284533D01*
X703116Y284605D01*
X703145Y284658D01*
X703182Y284706D01*
X703222Y284797D01*
X703270Y284883D01*
X703285Y284942D01*
X703309Y284997D01*
X703322Y285081D01*
X710650Y285081D01*
X717941Y285081D01*
X717941Y284515D01*
X717836Y284123D01*
X717821Y284019D01*
X717798Y283916D01*
X717800Y283862D01*
X717792Y283808D01*
X717805Y283703D01*
X717808Y283598D01*
X717823Y283546D01*
X717829Y283492D01*
X717867Y283394D01*
X717896Y283292D01*
X717924Y283246D01*
X717943Y283196D01*
X718004Y283109D01*
X718058Y283018D01*
X718114Y282954D01*
X718127Y282936D01*
X718139Y282926D01*
X718164Y282897D01*
X718449Y282613D01*
X718449Y270587D01*
X716663Y268801D01*
X706842Y268801D01*
X706724Y268786D01*
X706605Y268779D01*
X706567Y268766D01*
X706526Y268761D01*
X706416Y268718D01*
X706303Y268681D01*
X706268Y268659D01*
X706231Y268644D01*
X706135Y268575D01*
X706034Y268511D01*
X706006Y268481D01*
X705973Y268458D01*
X705897Y268366D01*
X705816Y268279D01*
X705796Y268244D01*
X705771Y268213D01*
X705720Y268105D01*
X705662Y268001D01*
X705652Y267961D01*
X705635Y267925D01*
X705613Y267808D01*
X705583Y267693D01*
X705579Y267633D01*
X705575Y267613D01*
X705577Y267592D01*
X705573Y267532D01*
X705573Y262106D01*
X699986Y256519D01*
X698087Y256519D01*
X697986Y256506D01*
X697883Y256502D01*
X697829Y256486D01*
X697772Y256479D01*
X697677Y256441D01*
X697578Y256412D01*
X697529Y256383D01*
X697476Y256362D01*
X697393Y256302D01*
X697305Y256249D01*
X697236Y256188D01*
X697219Y256175D01*
X697210Y256164D01*
X697185Y256142D01*
X696144Y255090D01*
X678118Y254996D01*
X677977Y255136D01*
X677901Y255194D01*
X677831Y255260D01*
X677775Y255291D01*
X677725Y255329D01*
X677637Y255367D01*
X677553Y255413D01*
X677491Y255429D01*
X677432Y255454D01*
X677337Y255469D01*
X677245Y255493D01*
X677137Y255500D01*
X677118Y255502D01*
X677107Y255501D01*
X677084Y255503D01*
X676840Y255503D01*
X676830Y255502D01*
X676821Y255503D01*
X676672Y255482D01*
X676524Y255463D01*
X676515Y255460D01*
X676506Y255458D01*
X676354Y255406D01*
X675207Y254931D01*
X672793Y254931D01*
X670562Y255855D01*
X668855Y257562D01*
X668031Y259553D01*
X667996Y259614D01*
X667970Y259679D01*
X667918Y259751D01*
X667873Y259829D01*
X667825Y259879D01*
X667784Y259936D01*
X667714Y259993D01*
X667652Y260058D01*
X667592Y260094D01*
X667539Y260139D01*
X667457Y260177D01*
X667381Y260224D01*
X667314Y260244D01*
X667251Y260274D01*
X667163Y260291D01*
X667077Y260318D01*
X667007Y260321D01*
X666938Y260334D01*
X666849Y260328D01*
X666759Y260333D01*
X666691Y260319D01*
X666621Y260314D01*
X666536Y260287D01*
X666448Y260268D01*
X666385Y260238D01*
X666319Y260216D01*
X666243Y260168D01*
X666162Y260129D01*
X666109Y260083D01*
X666050Y260046D01*
X665988Y259981D01*
X665920Y259922D01*
X665880Y259865D01*
X665832Y259814D01*
X665789Y259736D01*
X665737Y259662D01*
X665712Y259597D01*
X665678Y259536D01*
X665656Y259449D01*
X665624Y259365D01*
X665616Y259295D01*
X665599Y259228D01*
X665589Y259067D01*
X665589Y244841D01*
X665601Y244742D01*
X665604Y244643D01*
X665621Y244585D01*
X665629Y244525D01*
X665665Y244433D01*
X665693Y244338D01*
X665723Y244286D01*
X665746Y244229D01*
X665804Y244149D01*
X665854Y244064D01*
X665920Y243989D01*
X665932Y243972D01*
X665942Y243964D01*
X665960Y243943D01*
X667738Y242166D01*
X668589Y240112D01*
X668589Y234841D01*
X668601Y234742D01*
X668604Y234643D01*
X668621Y234585D01*
X668629Y234525D01*
X668665Y234433D01*
X668693Y234338D01*
X668723Y234286D01*
X668746Y234229D01*
X668804Y234149D01*
X668854Y234064D01*
X668920Y233989D01*
X668932Y233972D01*
X668942Y233964D01*
X668960Y233943D01*
X671398Y231506D01*
X671448Y231467D01*
X671492Y231420D01*
X671623Y231327D01*
X671902Y231153D01*
X672218Y230710D01*
X672234Y230692D01*
X672247Y230671D01*
X672353Y230550D01*
X672738Y230166D01*
X672863Y229863D01*
X672895Y229807D01*
X672918Y229747D01*
X673003Y229611D01*
X681755Y217358D01*
X683194Y215344D01*
X683695Y213178D01*
X683289Y210736D01*
X683288Y210736D01*
X682729Y207380D01*
X682729Y207379D01*
X682729Y207378D01*
X682724Y207250D01*
X682508Y206054D01*
X682508Y206049D01*
X682505Y206037D01*
X682324Y204947D01*
X681726Y204017D01*
X681724Y204012D01*
X681717Y204003D01*
X681133Y203066D01*
X680224Y202435D01*
X680220Y202431D01*
X680210Y202425D01*
X679265Y201750D01*
X679246Y201743D01*
X679245Y201742D01*
X679244Y201742D01*
X679106Y201658D01*
X644692Y177759D01*
X644667Y177737D01*
X644639Y177721D01*
X644518Y177614D01*
X644166Y177262D01*
X643820Y177119D01*
X643772Y177091D01*
X643720Y177072D01*
X643582Y176989D01*
X643275Y176775D01*
X642788Y176670D01*
X642757Y176659D01*
X642724Y176654D01*
X642572Y176602D01*
X642112Y176411D01*
X641738Y176411D01*
X641682Y176404D01*
X641627Y176406D01*
X641468Y176382D01*
X641102Y176303D01*
X640612Y176391D01*
X640579Y176393D01*
X640547Y176401D01*
X640387Y176411D01*
X622776Y176411D01*
X622635Y176393D01*
X622494Y176380D01*
X622478Y176374D01*
X622460Y176371D01*
X622329Y176319D01*
X622195Y176271D01*
X622174Y176258D01*
X622165Y176254D01*
X622149Y176243D01*
X622057Y176188D01*
X618689Y173873D01*
X609999Y175484D01*
X604993Y182768D01*
X606603Y191458D01*
X613887Y196464D01*
X622577Y194853D01*
X627192Y188139D01*
X627229Y188097D01*
X627259Y188050D01*
X627335Y187979D01*
X627403Y187902D01*
X627450Y187870D01*
X627491Y187832D01*
X627582Y187782D01*
X627667Y187724D01*
X627720Y187705D01*
X627769Y187678D01*
X627870Y187653D01*
X627967Y187618D01*
X628023Y187613D01*
X628077Y187599D01*
X628238Y187589D01*
X630087Y187589D01*
X630110Y187592D01*
X630133Y187590D01*
X630267Y187611D01*
X630403Y187629D01*
X630424Y187637D01*
X630447Y187641D01*
X630572Y187695D01*
X630699Y187746D01*
X630717Y187759D01*
X630738Y187768D01*
X630846Y187852D01*
X630956Y187932D01*
X630971Y187950D01*
X630989Y187965D01*
X631072Y188072D01*
X631159Y188177D01*
X631169Y188198D01*
X631183Y188217D01*
X631236Y188342D01*
X631294Y188465D01*
X631299Y188488D01*
X631308Y188509D01*
X631328Y188644D01*
X631354Y188777D01*
X631353Y188801D01*
X631356Y188823D01*
X631343Y188959D01*
X631334Y189095D01*
X631327Y189117D01*
X631325Y189140D01*
X631278Y189268D01*
X631236Y189397D01*
X631224Y189417D01*
X631216Y189439D01*
X631133Y189577D01*
X625925Y197154D01*
X627536Y205845D01*
X634820Y210851D01*
X643510Y209240D01*
X648516Y201956D01*
X647391Y195886D01*
X647383Y195744D01*
X647371Y195602D01*
X647374Y195585D01*
X647373Y195568D01*
X647400Y195429D01*
X647424Y195289D01*
X647431Y195273D01*
X647434Y195256D01*
X647495Y195127D01*
X647553Y194998D01*
X647563Y194984D01*
X647571Y194969D01*
X647662Y194860D01*
X647750Y194748D01*
X647764Y194738D01*
X647775Y194725D01*
X647890Y194642D01*
X648003Y194556D01*
X648019Y194549D01*
X648033Y194539D01*
X648166Y194487D01*
X648296Y194432D01*
X648313Y194430D01*
X648329Y194424D01*
X648470Y194406D01*
X648611Y194385D01*
X648628Y194387D01*
X648645Y194385D01*
X648786Y194404D01*
X648927Y194418D01*
X648943Y194424D01*
X648960Y194426D01*
X649092Y194479D01*
X649225Y194529D01*
X649245Y194541D01*
X649255Y194545D01*
X649271Y194556D01*
X649363Y194612D01*
X658354Y200855D01*
X658455Y200946D01*
X658559Y201034D01*
X658573Y201053D01*
X658590Y201068D01*
X658665Y201181D01*
X658745Y201292D01*
X658753Y201314D01*
X658766Y201333D01*
X658811Y201461D01*
X658861Y201588D01*
X658863Y201611D01*
X658871Y201633D01*
X658883Y201768D01*
X658899Y201904D01*
X658896Y201927D01*
X658898Y201950D01*
X658875Y202084D01*
X658858Y202219D01*
X658849Y202241D01*
X658845Y202264D01*
X658790Y202388D01*
X658739Y202514D01*
X658726Y202533D01*
X658716Y202554D01*
X658632Y202661D01*
X658551Y202771D01*
X658533Y202785D01*
X658519Y202804D01*
X658411Y202886D01*
X658306Y202972D01*
X658284Y202982D01*
X658266Y202996D01*
X658141Y203049D01*
X658017Y203107D01*
X657985Y203115D01*
X657973Y203120D01*
X657952Y203123D01*
X657861Y203146D01*
X651864Y204257D01*
X646858Y211541D01*
X648469Y220231D01*
X655753Y225237D01*
X659229Y224593D01*
X659325Y224588D01*
X659420Y224573D01*
X659483Y224578D01*
X659546Y224575D01*
X659641Y224593D01*
X659737Y224602D01*
X659796Y224624D01*
X659859Y224636D01*
X659946Y224677D01*
X660036Y224710D01*
X660088Y224746D01*
X660146Y224773D01*
X660220Y224835D01*
X660299Y224889D01*
X660341Y224936D01*
X660390Y224977D01*
X660446Y225055D01*
X660510Y225127D01*
X660538Y225183D01*
X660575Y225235D01*
X660610Y225325D01*
X660654Y225410D01*
X660668Y225472D01*
X660691Y225531D01*
X660703Y225627D01*
X660724Y225721D01*
X660722Y225784D01*
X660729Y225847D01*
X660717Y225942D01*
X660714Y226038D01*
X660696Y226099D01*
X660688Y226162D01*
X660652Y226251D01*
X660626Y226344D01*
X660593Y226399D01*
X660570Y226457D01*
X660513Y226535D01*
X660464Y226618D01*
X660393Y226698D01*
X660382Y226714D01*
X660374Y226721D01*
X660358Y226739D01*
X660013Y227084D01*
X658262Y228834D01*
X657411Y230888D01*
X657411Y236137D01*
X657406Y236180D01*
X657408Y236223D01*
X657386Y236337D01*
X657371Y236452D01*
X657356Y236493D01*
X657347Y236535D01*
X657297Y236640D01*
X657254Y236748D01*
X657229Y236783D01*
X657210Y236822D01*
X657136Y236911D01*
X657068Y237005D01*
X657034Y237033D01*
X657006Y237066D01*
X656912Y237134D01*
X656823Y237208D01*
X656783Y237227D01*
X656748Y237252D01*
X656640Y237294D01*
X656535Y237344D01*
X656492Y237352D01*
X656452Y237368D01*
X656336Y237382D01*
X656223Y237403D01*
X656179Y237401D01*
X656136Y237406D01*
X656021Y237391D01*
X655905Y237384D01*
X655864Y237370D01*
X655821Y237365D01*
X655713Y237321D01*
X655603Y237286D01*
X655566Y237263D01*
X655526Y237246D01*
X655432Y237178D01*
X655334Y237116D01*
X655304Y237084D01*
X655269Y237058D01*
X655196Y236969D01*
X655116Y236884D01*
X655095Y236846D01*
X655068Y236812D01*
X655018Y236707D01*
X654962Y236605D01*
X654952Y236564D01*
X654933Y236524D01*
X654894Y236368D01*
X653452Y228585D01*
X646168Y223579D01*
X637478Y225190D01*
X632472Y232474D01*
X634082Y241164D01*
X641366Y246170D01*
X650056Y244560D01*
X652096Y241592D01*
X652160Y241520D01*
X652216Y241442D01*
X652265Y241402D01*
X652308Y241354D01*
X652387Y241301D01*
X652461Y241239D01*
X652519Y241212D01*
X652571Y241177D01*
X652662Y241145D01*
X652749Y241104D01*
X652811Y241092D01*
X652871Y241071D01*
X652967Y241062D01*
X653062Y241044D01*
X653125Y241048D01*
X653188Y241042D01*
X653283Y241058D01*
X653379Y241064D01*
X653439Y241083D01*
X653502Y241093D01*
X653590Y241132D01*
X653681Y241162D01*
X653735Y241196D01*
X653793Y241221D01*
X653869Y241280D01*
X653950Y241332D01*
X653994Y241378D01*
X654044Y241417D01*
X654102Y241493D01*
X654168Y241563D01*
X654199Y241619D01*
X654237Y241669D01*
X654275Y241758D01*
X654322Y241842D01*
X654337Y241903D01*
X654362Y241962D01*
X654377Y242057D01*
X654401Y242150D01*
X654408Y242257D01*
X654411Y242276D01*
X654410Y242287D01*
X654411Y242311D01*
X654411Y259067D01*
X654403Y259136D01*
X654404Y259206D01*
X654383Y259294D01*
X654371Y259383D01*
X654346Y259448D01*
X654329Y259516D01*
X654287Y259595D01*
X654254Y259679D01*
X654213Y259735D01*
X654181Y259797D01*
X654120Y259863D01*
X654068Y259936D01*
X654014Y259980D01*
X653967Y260032D01*
X653892Y260081D01*
X653823Y260139D01*
X653759Y260168D01*
X653701Y260207D01*
X653616Y260236D01*
X653535Y260274D01*
X653466Y260287D01*
X653400Y260310D01*
X653311Y260317D01*
X653223Y260334D01*
X653153Y260330D01*
X653083Y260335D01*
X652995Y260320D01*
X652905Y260314D01*
X652839Y260293D01*
X652770Y260281D01*
X652688Y260244D01*
X652603Y260216D01*
X652544Y260179D01*
X652480Y260150D01*
X652410Y260094D01*
X652334Y260046D01*
X652286Y259995D01*
X652232Y259952D01*
X652177Y259880D01*
X652116Y259814D01*
X652082Y259753D01*
X652040Y259698D01*
X651969Y259553D01*
X651145Y257562D01*
X649438Y255855D01*
X647207Y254931D01*
X644793Y254931D01*
X643867Y255315D01*
X643858Y255317D01*
X643850Y255322D01*
X643705Y255359D01*
X643561Y255399D01*
X643551Y255399D01*
X643542Y255401D01*
X643382Y255411D01*
X643272Y255411D01*
X643170Y255398D01*
X643068Y255395D01*
X643013Y255379D01*
X642956Y255371D01*
X642861Y255334D01*
X642763Y255305D01*
X642714Y255275D01*
X642660Y255254D01*
X642578Y255194D01*
X642490Y255142D01*
X642420Y255080D01*
X642403Y255068D01*
X642394Y255057D01*
X642369Y255035D01*
X642144Y254807D01*
X624119Y254713D01*
X622751Y256067D01*
X622643Y256150D01*
X622539Y256236D01*
X622517Y256246D01*
X622498Y256261D01*
X622373Y256314D01*
X622251Y256372D01*
X622228Y256376D01*
X622206Y256386D01*
X622071Y256406D01*
X621938Y256432D01*
X621915Y256430D01*
X621892Y256434D01*
X621756Y256420D01*
X621621Y256412D01*
X621599Y256405D01*
X621575Y256402D01*
X621447Y256356D01*
X621319Y256314D01*
X621299Y256301D01*
X621276Y256293D01*
X621164Y256216D01*
X621050Y256144D01*
X621034Y256127D01*
X621014Y256113D01*
X620925Y256011D01*
X620832Y255912D01*
X620821Y255891D01*
X620805Y255874D01*
X620744Y255752D01*
X620678Y255634D01*
X620673Y255611D01*
X620662Y255590D01*
X620633Y255457D01*
X620599Y255326D01*
X620597Y255293D01*
X620594Y255279D01*
X620595Y255258D01*
X620589Y255165D01*
X620589Y233888D01*
X620368Y233355D01*
X620343Y233266D01*
X620310Y233179D01*
X620301Y233113D01*
X620284Y233048D01*
X620282Y232956D01*
X620271Y232863D01*
X620280Y232797D01*
X620279Y232730D01*
X620300Y232640D01*
X620312Y232548D01*
X620337Y232486D01*
X620353Y232421D01*
X620396Y232339D01*
X620431Y232253D01*
X620470Y232199D01*
X620502Y232140D01*
X620564Y232071D01*
X620619Y231996D01*
X620671Y231954D01*
X620716Y231904D01*
X620793Y231854D01*
X620865Y231795D01*
X620925Y231766D01*
X620981Y231730D01*
X621069Y231700D01*
X621153Y231660D01*
X621266Y231632D01*
X621282Y231626D01*
X621291Y231626D01*
X621309Y231621D01*
X629123Y230173D01*
X634129Y222889D01*
X632519Y214199D01*
X625235Y209193D01*
X616545Y210803D01*
X611539Y218087D01*
X612056Y220878D01*
X612062Y220974D01*
X612077Y221069D01*
X612071Y221132D01*
X612074Y221196D01*
X612056Y221290D01*
X612047Y221386D01*
X612025Y221445D01*
X612013Y221508D01*
X611972Y221595D01*
X611939Y221685D01*
X611904Y221737D01*
X611876Y221795D01*
X611815Y221869D01*
X611761Y221948D01*
X611713Y221990D01*
X611672Y222039D01*
X611594Y222095D01*
X611522Y222159D01*
X611466Y222187D01*
X611414Y222224D01*
X611324Y222260D01*
X611239Y222303D01*
X611177Y222317D01*
X611118Y222340D01*
X611022Y222352D01*
X610929Y222373D01*
X610865Y222371D01*
X610802Y222379D01*
X610707Y222366D01*
X610611Y222363D01*
X610550Y222346D01*
X610487Y222337D01*
X610398Y222302D01*
X610305Y222275D01*
X610251Y222243D01*
X610192Y222219D01*
X610114Y222162D01*
X610031Y222113D01*
X609951Y222042D01*
X609935Y222031D01*
X609929Y222023D01*
X609910Y222007D01*
X607862Y219958D01*
X607801Y219880D01*
X607733Y219808D01*
X607704Y219755D01*
X607667Y219707D01*
X607627Y219616D01*
X607580Y219529D01*
X607565Y219471D01*
X607541Y219415D01*
X607525Y219317D01*
X607500Y219221D01*
X607494Y219121D01*
X607491Y219101D01*
X607492Y219089D01*
X607490Y219061D01*
X607490Y216972D01*
X607490Y216969D01*
X607490Y216966D01*
X607511Y216810D01*
X607530Y216656D01*
X607531Y216653D01*
X607531Y216651D01*
X607589Y216507D01*
X607647Y216360D01*
X607649Y216358D01*
X607650Y216355D01*
X607742Y216229D01*
X607834Y216103D01*
X607836Y216101D01*
X607838Y216099D01*
X607958Y216000D01*
X608079Y215900D01*
X608081Y215899D01*
X608084Y215897D01*
X608129Y215876D01*
X613197Y208502D01*
X611586Y199812D01*
X604302Y194806D01*
X595612Y196417D01*
X592634Y200750D01*
X592570Y200821D01*
X592514Y200899D01*
X592465Y200940D01*
X592422Y200987D01*
X592343Y201041D01*
X592269Y201102D01*
X592211Y201129D01*
X592159Y201164D01*
X592068Y201197D01*
X591981Y201238D01*
X591919Y201250D01*
X591859Y201271D01*
X591763Y201279D01*
X591668Y201297D01*
X591605Y201293D01*
X591542Y201299D01*
X591447Y201284D01*
X591351Y201278D01*
X591291Y201258D01*
X591228Y201248D01*
X591140Y201209D01*
X591049Y201180D01*
X590995Y201146D01*
X590937Y201120D01*
X590861Y201061D01*
X590780Y201009D01*
X590736Y200963D01*
X590686Y200924D01*
X590628Y200848D01*
X590562Y200778D01*
X590531Y200722D01*
X590493Y200672D01*
X590455Y200584D01*
X590408Y200499D01*
X590393Y200438D01*
X590368Y200380D01*
X590353Y200285D01*
X590329Y200191D01*
X590322Y200084D01*
X590319Y200065D01*
X590320Y200055D01*
X590319Y200031D01*
X590319Y198211D01*
X580789Y188681D01*
X561211Y188681D01*
X553481Y196411D01*
X553481Y197682D01*
X553466Y197800D01*
X553459Y197919D01*
X553446Y197957D01*
X553441Y197998D01*
X553398Y198108D01*
X553361Y198221D01*
X553339Y198256D01*
X553324Y198293D01*
X553255Y198389D01*
X553191Y198490D01*
X553161Y198518D01*
X553138Y198551D01*
X553046Y198627D01*
X552959Y198708D01*
X552924Y198728D01*
X552893Y198753D01*
X552785Y198804D01*
X552681Y198862D01*
X552641Y198872D01*
X552605Y198889D01*
X552598Y198890D01*
X550997Y200491D01*
X550903Y200564D01*
X550814Y200643D01*
X550778Y200661D01*
X550746Y200686D01*
X550637Y200733D01*
X550531Y200787D01*
X550492Y200796D01*
X550454Y200812D01*
X550337Y200831D01*
X550221Y200857D01*
X550180Y200856D01*
X550140Y200862D01*
X550022Y200851D01*
X549903Y200847D01*
X549864Y200836D01*
X549824Y200832D01*
X549712Y200792D01*
X549597Y200759D01*
X549562Y200738D01*
X549524Y200725D01*
X549426Y200658D01*
X549323Y200597D01*
X549278Y200558D01*
X549261Y200546D01*
X549248Y200531D01*
X549202Y200491D01*
X547663Y198951D01*
X537137Y198951D01*
X535351Y200737D01*
X535351Y215263D01*
X537137Y217049D01*
X547663Y217049D01*
X549202Y215509D01*
X549297Y215436D01*
X549386Y215357D01*
X549422Y215339D01*
X549454Y215314D01*
X549563Y215267D01*
X549669Y215213D01*
X549708Y215204D01*
X549746Y215188D01*
X549863Y215169D01*
X549979Y215143D01*
X550020Y215144D01*
X550060Y215138D01*
X550178Y215149D01*
X550297Y215153D01*
X550336Y215164D01*
X550376Y215168D01*
X550489Y215208D01*
X550603Y215241D01*
X550637Y215262D01*
X550676Y215275D01*
X550774Y215342D01*
X550877Y215403D01*
X550922Y215443D01*
X550939Y215454D01*
X550952Y215469D01*
X550997Y215509D01*
X552537Y217049D01*
X563063Y217049D01*
X564849Y215263D01*
X564849Y200737D01*
X564007Y199896D01*
X563934Y199801D01*
X563855Y199712D01*
X563837Y199676D01*
X563812Y199644D01*
X563765Y199535D01*
X563711Y199429D01*
X563702Y199389D01*
X563686Y199352D01*
X563667Y199235D01*
X563641Y199119D01*
X563642Y199078D01*
X563636Y199038D01*
X563647Y198919D01*
X563651Y198801D01*
X563662Y198762D01*
X563666Y198722D01*
X563706Y198610D01*
X563739Y198495D01*
X563760Y198460D01*
X563773Y198422D01*
X563840Y198324D01*
X563901Y198221D01*
X563941Y198176D01*
X563952Y198159D01*
X563967Y198146D01*
X564007Y198100D01*
X564417Y197690D01*
X564495Y197630D01*
X564568Y197562D01*
X564621Y197533D01*
X564668Y197496D01*
X564759Y197456D01*
X564846Y197408D01*
X564905Y197393D01*
X564960Y197369D01*
X565058Y197354D01*
X565154Y197329D01*
X565254Y197323D01*
X565274Y197319D01*
X565287Y197321D01*
X565315Y197319D01*
X570090Y197319D01*
X570235Y197337D01*
X570379Y197352D01*
X570392Y197357D01*
X570405Y197359D01*
X570541Y197412D01*
X570677Y197463D01*
X570689Y197471D01*
X570701Y197476D01*
X570819Y197561D01*
X570939Y197644D01*
X570948Y197655D01*
X570958Y197662D01*
X571051Y197774D01*
X571147Y197885D01*
X571153Y197897D01*
X571161Y197907D01*
X571223Y198039D01*
X571288Y198170D01*
X571291Y198183D01*
X571297Y198195D01*
X571324Y198338D01*
X571355Y198481D01*
X571354Y198494D01*
X571357Y198507D01*
X571348Y198653D01*
X571342Y198799D01*
X571338Y198811D01*
X571337Y198825D01*
X571292Y198964D01*
X571250Y199103D01*
X571243Y199115D01*
X571239Y199127D01*
X571161Y199251D01*
X571085Y199375D01*
X571076Y199385D01*
X571069Y199396D01*
X570963Y199496D01*
X570859Y199598D01*
X570843Y199608D01*
X570837Y199614D01*
X570822Y199622D01*
X570724Y199687D01*
X570240Y199967D01*
X569767Y200440D01*
X569432Y201019D01*
X569259Y201666D01*
X569259Y206001D01*
X575070Y206001D01*
X575188Y206016D01*
X575307Y206023D01*
X575345Y206035D01*
X575385Y206041D01*
X575496Y206084D01*
X575609Y206121D01*
X575643Y206143D01*
X575681Y206158D01*
X575777Y206227D01*
X575878Y206291D01*
X575906Y206321D01*
X575938Y206344D01*
X576014Y206436D01*
X576096Y206523D01*
X576115Y206558D01*
X576141Y206589D01*
X576192Y206697D01*
X576249Y206801D01*
X576259Y206841D01*
X576277Y206877D01*
X576299Y206994D01*
X576329Y207109D01*
X576333Y207169D01*
X576336Y207189D01*
X576335Y207210D01*
X576339Y207270D01*
X576339Y208730D01*
X576324Y208848D01*
X576317Y208967D01*
X576304Y209005D01*
X576299Y209046D01*
X576255Y209156D01*
X576219Y209269D01*
X576197Y209304D01*
X576182Y209341D01*
X576112Y209437D01*
X576049Y209538D01*
X576019Y209566D01*
X575995Y209599D01*
X575904Y209675D01*
X575817Y209756D01*
X575782Y209776D01*
X575750Y209801D01*
X575643Y209852D01*
X575538Y209910D01*
X575499Y209920D01*
X575463Y209937D01*
X575346Y209959D01*
X575230Y209989D01*
X575170Y209993D01*
X575150Y209997D01*
X575130Y209995D01*
X575070Y209999D01*
X569259Y209999D01*
X569259Y214334D01*
X569432Y214981D01*
X569794Y215607D01*
X569798Y215612D01*
X569877Y215702D01*
X569895Y215738D01*
X569920Y215769D01*
X569967Y215879D01*
X570022Y215985D01*
X570030Y216024D01*
X570046Y216061D01*
X570065Y216179D01*
X570091Y216295D01*
X570090Y216335D01*
X570096Y216375D01*
X570085Y216494D01*
X570082Y216613D01*
X570070Y216652D01*
X570067Y216692D01*
X570026Y216804D01*
X569993Y216919D01*
X569973Y216953D01*
X569959Y216991D01*
X569892Y217090D01*
X569832Y217192D01*
X569792Y217238D01*
X569780Y217254D01*
X569765Y217268D01*
X569725Y217313D01*
X562299Y224739D01*
X562299Y229867D01*
X562287Y229966D01*
X562284Y230065D01*
X562267Y230123D01*
X562259Y230183D01*
X562223Y230275D01*
X562195Y230370D01*
X562165Y230422D01*
X562142Y230479D01*
X562084Y230559D01*
X562034Y230644D01*
X561968Y230719D01*
X561956Y230736D01*
X561946Y230744D01*
X561928Y230765D01*
X553318Y239375D01*
X553240Y239435D01*
X553167Y239503D01*
X553114Y239532D01*
X553067Y239569D01*
X552976Y239609D01*
X552889Y239657D01*
X552830Y239672D01*
X552775Y239696D01*
X552677Y239711D01*
X552581Y239736D01*
X552481Y239742D01*
X552461Y239746D01*
X552448Y239744D01*
X552420Y239746D01*
X550000Y239746D01*
X549882Y239731D01*
X549763Y239724D01*
X549725Y239711D01*
X549684Y239706D01*
X549574Y239663D01*
X549461Y239626D01*
X549426Y239604D01*
X549389Y239589D01*
X549293Y239520D01*
X549192Y239456D01*
X549164Y239426D01*
X549131Y239403D01*
X549056Y239311D01*
X548974Y239224D01*
X548954Y239189D01*
X548929Y239158D01*
X548878Y239050D01*
X548820Y238946D01*
X548810Y238906D01*
X548793Y238870D01*
X548771Y238753D01*
X548741Y238638D01*
X548737Y238578D01*
X548733Y238558D01*
X548735Y238537D01*
X548731Y238477D01*
X548731Y231269D01*
X538970Y231269D01*
X538852Y231254D01*
X538733Y231247D01*
X538695Y231234D01*
X538654Y231229D01*
X538544Y231186D01*
X538431Y231149D01*
X538396Y231127D01*
X538359Y231112D01*
X538263Y231043D01*
X538162Y230979D01*
X538134Y230949D01*
X538101Y230926D01*
X538025Y230834D01*
X537944Y230747D01*
X537924Y230712D01*
X537899Y230681D01*
X537848Y230573D01*
X537790Y230469D01*
X537780Y230429D01*
X537763Y230393D01*
X537741Y230276D01*
X537711Y230161D01*
X537707Y230101D01*
X537703Y230081D01*
X537705Y230060D01*
X537701Y230000D01*
X537701Y224739D01*
X530734Y217773D01*
X530661Y217678D01*
X530582Y217589D01*
X530564Y217553D01*
X530539Y217521D01*
X530492Y217412D01*
X530438Y217306D01*
X530429Y217267D01*
X530413Y217229D01*
X530394Y217112D01*
X530368Y216996D01*
X530369Y216955D01*
X530363Y216915D01*
X530374Y216797D01*
X530378Y216678D01*
X530389Y216639D01*
X530393Y216599D01*
X530433Y216487D01*
X530466Y216372D01*
X530487Y216337D01*
X530500Y216299D01*
X530567Y216201D01*
X530628Y216098D01*
X530667Y216053D01*
X530679Y216036D01*
X530694Y216023D01*
X530734Y215978D01*
X531449Y215263D01*
X531449Y200737D01*
X530360Y199649D01*
X530300Y199571D01*
X530232Y199499D01*
X530203Y199446D01*
X530166Y199398D01*
X530126Y199307D01*
X530078Y199220D01*
X530063Y199161D01*
X530039Y199106D01*
X530024Y199008D01*
X529999Y198912D01*
X529993Y198812D01*
X529989Y198792D01*
X529991Y198779D01*
X529989Y198751D01*
X529989Y190018D01*
X529990Y190009D01*
X529989Y190000D01*
X530010Y189851D01*
X530029Y189703D01*
X530032Y189694D01*
X530033Y189685D01*
X530085Y189533D01*
X530469Y188607D01*
X530469Y186193D01*
X529545Y183962D01*
X527838Y182255D01*
X525607Y181331D01*
X523193Y181331D01*
X520962Y182255D01*
X519255Y183962D01*
X518331Y186193D01*
X518331Y188607D01*
X518715Y189533D01*
X518717Y189542D01*
X518722Y189550D01*
X518759Y189695D01*
X518799Y189839D01*
X518799Y189849D01*
X518801Y189858D01*
X518811Y190018D01*
X518811Y198751D01*
X518799Y198850D01*
X518796Y198949D01*
X518779Y199007D01*
X518771Y199067D01*
X518735Y199159D01*
X518707Y199254D01*
X518677Y199306D01*
X518654Y199363D01*
X518596Y199443D01*
X518546Y199528D01*
X518480Y199603D01*
X518468Y199620D01*
X518458Y199628D01*
X518440Y199649D01*
X517351Y200737D01*
X517351Y215263D01*
X518666Y216578D01*
X518739Y216672D01*
X518818Y216761D01*
X518836Y216797D01*
X518861Y216829D01*
X518908Y216938D01*
X518962Y217044D01*
X518971Y217083D01*
X518987Y217121D01*
X519006Y217238D01*
X519032Y217354D01*
X519031Y217395D01*
X519037Y217435D01*
X519026Y217553D01*
X519022Y217672D01*
X519011Y217711D01*
X519007Y217751D01*
X518967Y217864D01*
X518934Y217978D01*
X518913Y218013D01*
X518900Y218051D01*
X518833Y218149D01*
X518772Y218252D01*
X518733Y218297D01*
X518721Y218314D01*
X518706Y218327D01*
X518666Y218373D01*
X511983Y225056D01*
X511905Y225116D01*
X511833Y225184D01*
X511780Y225213D01*
X511732Y225250D01*
X511641Y225290D01*
X511554Y225338D01*
X511496Y225353D01*
X511440Y225377D01*
X511342Y225392D01*
X511246Y225417D01*
X511146Y225423D01*
X511126Y225427D01*
X511113Y225425D01*
X511085Y225427D01*
X508106Y225427D01*
X505919Y227614D01*
X505809Y227700D01*
X505702Y227788D01*
X505684Y227797D01*
X505667Y227809D01*
X505539Y227865D01*
X505414Y227924D01*
X505394Y227928D01*
X505376Y227936D01*
X505238Y227958D01*
X505102Y227984D01*
X505082Y227982D01*
X505062Y227986D01*
X504923Y227972D01*
X504784Y227964D01*
X504765Y227958D01*
X504745Y227956D01*
X504614Y227909D01*
X504482Y227866D01*
X504465Y227855D01*
X504446Y227848D01*
X504331Y227770D01*
X504213Y227696D01*
X504199Y227681D01*
X504183Y227670D01*
X504090Y227565D01*
X503995Y227464D01*
X503985Y227446D01*
X503972Y227431D01*
X503909Y227307D01*
X503842Y227186D01*
X503837Y227166D01*
X503827Y227148D01*
X503797Y227012D01*
X503762Y226878D01*
X503760Y226850D01*
X503758Y226838D01*
X503758Y226817D01*
X503752Y226717D01*
X503752Y215981D01*
X503759Y215923D01*
X503757Y215865D01*
X503779Y215766D01*
X503792Y215665D01*
X503813Y215611D01*
X503826Y215554D01*
X503872Y215464D01*
X503909Y215370D01*
X503943Y215322D01*
X503969Y215270D01*
X504036Y215194D01*
X504096Y215112D01*
X504141Y215075D01*
X504179Y215031D01*
X504306Y214932D01*
X507826Y212531D01*
X509467Y203846D01*
X504486Y196545D01*
X495802Y194904D01*
X488501Y199885D01*
X486860Y208569D01*
X491887Y215939D01*
X491969Y215991D01*
X492112Y216082D01*
X492113Y216082D01*
X492113Y216083D01*
X492220Y216196D01*
X492331Y216313D01*
X492331Y216314D01*
X492404Y216447D01*
X492484Y216591D01*
X492485Y216592D01*
X492485Y216593D01*
X492518Y216722D01*
X492564Y216899D01*
X492564Y216900D01*
X492564Y216901D01*
X492575Y217061D01*
X492575Y223996D01*
X492562Y224094D01*
X492559Y224193D01*
X492542Y224252D01*
X492535Y224312D01*
X492498Y224404D01*
X492471Y224499D01*
X492440Y224551D01*
X492418Y224607D01*
X492360Y224687D01*
X492309Y224773D01*
X492243Y224848D01*
X492231Y224865D01*
X492221Y224872D01*
X492203Y224894D01*
X488957Y228139D01*
X488879Y228199D01*
X488808Y228267D01*
X488754Y228296D01*
X488706Y228334D01*
X488616Y228373D01*
X488530Y228421D01*
X488470Y228436D01*
X488414Y228460D01*
X488322Y228475D01*
X488307Y228526D01*
X488282Y228642D01*
X488263Y228678D01*
X488252Y228718D01*
X488192Y228820D01*
X488138Y228926D01*
X488111Y228957D01*
X488090Y228992D01*
X487984Y229113D01*
X479262Y237834D01*
X478411Y239888D01*
X478411Y254216D01*
X478394Y254352D01*
X478381Y254490D01*
X478374Y254510D01*
X478371Y254531D01*
X478321Y254659D01*
X478274Y254789D01*
X478262Y254807D01*
X478254Y254827D01*
X478173Y254939D01*
X478096Y255053D01*
X478080Y255067D01*
X478068Y255084D01*
X477961Y255172D01*
X477858Y255264D01*
X477839Y255273D01*
X477823Y255287D01*
X477698Y255345D01*
X477575Y255409D01*
X477554Y255413D01*
X477535Y255422D01*
X477400Y255448D01*
X477265Y255479D01*
X477244Y255478D01*
X477223Y255482D01*
X477085Y255474D01*
X476947Y255470D01*
X476926Y255464D01*
X476905Y255463D01*
X476774Y255420D01*
X476641Y255382D01*
X476623Y255371D01*
X476603Y255364D01*
X476486Y255291D01*
X476367Y255221D01*
X476345Y255201D01*
X476334Y255194D01*
X476320Y255179D01*
X476246Y255115D01*
X475969Y254838D01*
X457897Y254870D01*
X457854Y254903D01*
X457762Y254943D01*
X457674Y254992D01*
X457617Y255006D01*
X457562Y255030D01*
X457463Y255046D01*
X457366Y255071D01*
X457269Y255077D01*
X457248Y255081D01*
X457235Y255079D01*
X457206Y255081D01*
X455358Y255081D01*
X455349Y255080D01*
X455340Y255081D01*
X455191Y255060D01*
X455043Y255041D01*
X455034Y255038D01*
X455025Y255037D01*
X454873Y254985D01*
X453947Y254601D01*
X451533Y254601D01*
X449302Y255525D01*
X447755Y257072D01*
X447646Y257157D01*
X447539Y257246D01*
X447520Y257255D01*
X447504Y257267D01*
X447376Y257322D01*
X447251Y257381D01*
X447231Y257385D01*
X447212Y257393D01*
X447074Y257415D01*
X446938Y257441D01*
X446918Y257440D01*
X446898Y257443D01*
X446759Y257430D01*
X446621Y257421D01*
X446602Y257415D01*
X446582Y257413D01*
X446450Y257366D01*
X446319Y257323D01*
X446301Y257313D01*
X446282Y257306D01*
X446167Y257228D01*
X446050Y257153D01*
X446036Y257139D01*
X446019Y257127D01*
X445927Y257023D01*
X445832Y256922D01*
X445822Y256904D01*
X445809Y256889D01*
X445745Y256765D01*
X445678Y256643D01*
X445673Y256624D01*
X445664Y256606D01*
X445634Y256469D01*
X445599Y256335D01*
X445597Y256307D01*
X445594Y256295D01*
X445595Y256275D01*
X445589Y256175D01*
X445589Y242888D01*
X445361Y242338D01*
X445353Y242310D01*
X445340Y242285D01*
X445311Y242158D01*
X445277Y242032D01*
X445276Y242003D01*
X445270Y241974D01*
X445274Y241844D01*
X445272Y241714D01*
X445279Y241685D01*
X445279Y241657D01*
X445316Y241531D01*
X445346Y241404D01*
X445360Y241379D01*
X445368Y241351D01*
X445434Y241239D01*
X445495Y241123D01*
X445514Y241102D01*
X445529Y241077D01*
X445621Y240984D01*
X445709Y240888D01*
X445733Y240872D01*
X445753Y240851D01*
X445865Y240785D01*
X445974Y240713D01*
X446002Y240704D01*
X446027Y240689D01*
X446151Y240652D01*
X446275Y240610D01*
X446304Y240608D01*
X446332Y240599D01*
X446462Y240595D01*
X446592Y240585D01*
X446621Y240590D01*
X446650Y240589D01*
X446777Y240617D01*
X446906Y240639D01*
X446932Y240651D01*
X446960Y240657D01*
X447076Y240716D01*
X447196Y240770D01*
X447218Y240788D01*
X447244Y240801D01*
X447342Y240887D01*
X447444Y240968D01*
X447461Y240991D01*
X447483Y241010D01*
X447582Y241137D01*
X449874Y244498D01*
X458559Y246139D01*
X465860Y241158D01*
X467501Y232474D01*
X462521Y225172D01*
X453836Y223531D01*
X446535Y228512D01*
X444894Y237197D01*
X445398Y237936D01*
X445417Y237972D01*
X445442Y238005D01*
X445489Y238113D01*
X445543Y238219D01*
X445552Y238259D01*
X445568Y238296D01*
X445587Y238414D01*
X445613Y238529D01*
X445612Y238570D01*
X445618Y238611D01*
X445607Y238729D01*
X445603Y238847D01*
X445592Y238886D01*
X445588Y238927D01*
X445548Y239039D01*
X445515Y239152D01*
X445495Y239188D01*
X445481Y239226D01*
X445414Y239324D01*
X445354Y239426D01*
X445325Y239456D01*
X445302Y239490D01*
X445213Y239568D01*
X445130Y239652D01*
X445094Y239673D01*
X445064Y239700D01*
X444958Y239754D01*
X444856Y239814D01*
X444817Y239826D01*
X444780Y239845D01*
X444665Y239871D01*
X444551Y239904D01*
X444510Y239905D01*
X444470Y239914D01*
X444352Y239911D01*
X444233Y239915D01*
X444193Y239906D01*
X444152Y239905D01*
X444038Y239872D01*
X443923Y239846D01*
X443886Y239828D01*
X443847Y239816D01*
X443745Y239756D01*
X443639Y239703D01*
X443608Y239676D01*
X443573Y239655D01*
X443452Y239548D01*
X423960Y220057D01*
X423900Y219979D01*
X423832Y219906D01*
X423803Y219853D01*
X423766Y219806D01*
X423726Y219715D01*
X423678Y219628D01*
X423663Y219569D01*
X423639Y219514D01*
X423624Y219416D01*
X423599Y219320D01*
X423593Y219220D01*
X423589Y219200D01*
X423591Y219187D01*
X423589Y219159D01*
X423589Y214841D01*
X423601Y214742D01*
X423604Y214643D01*
X423621Y214585D01*
X423629Y214525D01*
X423665Y214433D01*
X423693Y214338D01*
X423723Y214286D01*
X423746Y214229D01*
X423804Y214149D01*
X423854Y214064D01*
X423920Y213989D01*
X423932Y213972D01*
X423942Y213964D01*
X423960Y213943D01*
X424527Y213376D01*
X424551Y213358D01*
X424571Y213335D01*
X424697Y213234D01*
X429572Y209822D01*
X429702Y209753D01*
X429830Y209682D01*
X429842Y209679D01*
X429853Y209673D01*
X429996Y209639D01*
X430138Y209602D01*
X430150Y209602D01*
X430163Y209600D01*
X430309Y209602D01*
X430456Y209602D01*
X430468Y209605D01*
X430481Y209605D01*
X430622Y209644D01*
X430764Y209680D01*
X430775Y209686D01*
X430787Y209689D01*
X430914Y209762D01*
X431043Y209833D01*
X431052Y209841D01*
X431063Y209847D01*
X431168Y209949D01*
X431276Y210050D01*
X431282Y210060D01*
X431291Y210069D01*
X431368Y210195D01*
X431447Y210318D01*
X431451Y210330D01*
X431457Y210340D01*
X431500Y210481D01*
X431546Y210620D01*
X431547Y210632D01*
X431550Y210644D01*
X431557Y210791D01*
X431567Y210937D01*
X431565Y210954D01*
X431565Y210962D01*
X431562Y210978D01*
X431547Y211097D01*
X430580Y216214D01*
X435561Y223515D01*
X444245Y225156D01*
X451547Y220175D01*
X453188Y211491D01*
X448207Y204189D01*
X442829Y203173D01*
X442704Y203133D01*
X442577Y203098D01*
X442553Y203084D01*
X442526Y203075D01*
X442416Y203005D01*
X442301Y202940D01*
X442281Y202920D01*
X442257Y202906D01*
X442167Y202810D01*
X442073Y202718D01*
X442058Y202695D01*
X442039Y202674D01*
X441976Y202559D01*
X441907Y202447D01*
X441899Y202420D01*
X441885Y202396D01*
X441853Y202269D01*
X441814Y202143D01*
X441813Y202115D01*
X441806Y202088D01*
X441805Y201956D01*
X441799Y201825D01*
X441805Y201798D01*
X441805Y201770D01*
X441837Y201642D01*
X441864Y201514D01*
X441876Y201489D01*
X441883Y201462D01*
X441946Y201346D01*
X442004Y201228D01*
X442022Y201207D01*
X442036Y201183D01*
X442125Y201087D01*
X442211Y200987D01*
X442242Y200962D01*
X442253Y200950D01*
X442271Y200939D01*
X442337Y200886D01*
X450636Y195076D01*
X450766Y195008D01*
X450894Y194937D01*
X450907Y194934D01*
X450918Y194928D01*
X451060Y194894D01*
X451202Y194857D01*
X451215Y194857D01*
X451227Y194854D01*
X451374Y194857D01*
X451520Y194857D01*
X451533Y194860D01*
X451545Y194860D01*
X451687Y194899D01*
X451829Y194935D01*
X451840Y194941D01*
X451852Y194944D01*
X451979Y195017D01*
X452108Y195087D01*
X452117Y195096D01*
X452128Y195102D01*
X452233Y195205D01*
X452340Y195305D01*
X452347Y195315D01*
X452356Y195324D01*
X452432Y195449D01*
X452511Y195573D01*
X452515Y195584D01*
X452522Y195595D01*
X452565Y195735D01*
X452610Y195875D01*
X452611Y195887D01*
X452615Y195899D01*
X452622Y196046D01*
X452631Y196192D01*
X452629Y196209D01*
X452630Y196217D01*
X452626Y196233D01*
X452611Y196352D01*
X451563Y201900D01*
X456544Y209201D01*
X465228Y210842D01*
X472530Y205862D01*
X474171Y197177D01*
X469597Y190473D01*
X469535Y190351D01*
X469469Y190232D01*
X469463Y190210D01*
X469452Y190190D01*
X469422Y190057D01*
X469388Y189925D01*
X469388Y189902D01*
X469383Y189880D01*
X469387Y189743D01*
X469386Y189607D01*
X469391Y189585D01*
X469392Y189562D01*
X469430Y189431D01*
X469463Y189298D01*
X469474Y189278D01*
X469480Y189256D01*
X469549Y189139D01*
X469614Y189018D01*
X469630Y189002D01*
X469641Y188982D01*
X469738Y188885D01*
X469830Y188785D01*
X469849Y188773D01*
X469866Y188757D01*
X469983Y188687D01*
X470098Y188613D01*
X470119Y188606D01*
X470139Y188594D01*
X470269Y188556D01*
X470400Y188513D01*
X470422Y188511D01*
X470444Y188505D01*
X470580Y188500D01*
X470717Y188491D01*
X470748Y188494D01*
X470762Y188494D01*
X470782Y188498D01*
X470877Y188510D01*
X472988Y188900D01*
X473085Y188931D01*
X473184Y188953D01*
X473236Y188979D01*
X473291Y188997D01*
X473377Y189050D01*
X473467Y189096D01*
X473511Y189135D01*
X473560Y189165D01*
X473630Y189239D01*
X473707Y189306D01*
X473765Y189381D01*
X473779Y189396D01*
X473786Y189408D01*
X473806Y189433D01*
X477527Y194888D01*
X486211Y196529D01*
X493512Y191548D01*
X495153Y182864D01*
X490173Y175562D01*
X481488Y173921D01*
X475942Y177705D01*
X475856Y177749D01*
X475775Y177801D01*
X475715Y177821D01*
X475659Y177850D01*
X475565Y177871D01*
X475473Y177901D01*
X475410Y177906D01*
X475348Y177920D01*
X475252Y177917D01*
X475156Y177924D01*
X475050Y177911D01*
X475031Y177910D01*
X475020Y177907D01*
X474996Y177904D01*
X463329Y175747D01*
X463325Y175746D01*
X463321Y175746D01*
X463246Y175721D01*
X461998Y175501D01*
X461994Y175500D01*
X461987Y175499D01*
X460900Y175298D01*
X459820Y175537D01*
X459817Y175537D01*
X459810Y175539D01*
X458725Y175770D01*
X457819Y176405D01*
X457816Y176406D01*
X457810Y176411D01*
X456823Y177090D01*
X456701Y177187D01*
X418410Y203991D01*
X418359Y204018D01*
X418312Y204053D01*
X418168Y204124D01*
X417834Y204262D01*
X417473Y204623D01*
X417449Y204642D01*
X417429Y204665D01*
X417303Y204766D01*
X416884Y205059D01*
X416690Y205364D01*
X416653Y205408D01*
X416624Y205458D01*
X416517Y205579D01*
X413262Y208834D01*
X412411Y210888D01*
X412411Y223112D01*
X413262Y225166D01*
X434040Y245943D01*
X434100Y246021D01*
X434168Y246094D01*
X434197Y246147D01*
X434234Y246194D01*
X434274Y246285D01*
X434322Y246372D01*
X434337Y246431D01*
X434361Y246486D01*
X434376Y246584D01*
X434401Y246680D01*
X434407Y246780D01*
X434411Y246800D01*
X434409Y246813D01*
X434411Y246841D01*
X434411Y257603D01*
X434403Y257672D01*
X434404Y257742D01*
X434383Y257829D01*
X434371Y257918D01*
X434346Y257983D01*
X434329Y258051D01*
X434287Y258131D01*
X434254Y258214D01*
X434213Y258271D01*
X434181Y258332D01*
X434120Y258399D01*
X434068Y258471D01*
X434014Y258516D01*
X433967Y258568D01*
X433892Y258617D01*
X433823Y258674D01*
X433759Y258704D01*
X433701Y258742D01*
X433616Y258772D01*
X433535Y258810D01*
X433466Y258823D01*
X433400Y258846D01*
X433311Y258853D01*
X433223Y258870D01*
X433153Y258865D01*
X433083Y258871D01*
X432995Y258855D01*
X432905Y258850D01*
X432839Y258828D01*
X432770Y258816D01*
X432688Y258779D01*
X432603Y258752D01*
X432544Y258714D01*
X432480Y258686D01*
X432410Y258630D01*
X432334Y258582D01*
X432286Y258531D01*
X432232Y258487D01*
X432178Y258416D01*
X432116Y258350D01*
X432082Y258289D01*
X432040Y258233D01*
X431969Y258089D01*
X431735Y257522D01*
X430028Y255815D01*
X427797Y254891D01*
X425383Y254891D01*
X424368Y255312D01*
X424359Y255314D01*
X424351Y255319D01*
X424205Y255356D01*
X424061Y255396D01*
X424052Y255396D01*
X424043Y255398D01*
X423882Y255408D01*
X422971Y255408D01*
X422874Y255396D01*
X422776Y255393D01*
X422717Y255376D01*
X422655Y255369D01*
X422564Y255333D01*
X422470Y255305D01*
X422417Y255274D01*
X422360Y255252D01*
X422280Y255194D01*
X422196Y255144D01*
X422118Y255076D01*
X422102Y255065D01*
X422095Y255056D01*
X422075Y255038D01*
X421969Y254933D01*
X403943Y254964D01*
X402161Y256753D01*
X402170Y261836D01*
X402157Y261935D01*
X402154Y262035D01*
X402138Y262092D01*
X402130Y262151D01*
X402094Y262245D01*
X402066Y262341D01*
X402036Y262392D01*
X402014Y262447D01*
X401955Y262528D01*
X401904Y262615D01*
X401839Y262688D01*
X401827Y262705D01*
X401818Y262713D01*
X401798Y262735D01*
X395628Y268906D01*
X395549Y268966D01*
X395477Y269034D01*
X395424Y269063D01*
X395376Y269100D01*
X395285Y269140D01*
X395199Y269188D01*
X395140Y269203D01*
X395085Y269227D01*
X394987Y269242D01*
X394891Y269267D01*
X394791Y269273D01*
X394770Y269277D01*
X394758Y269275D01*
X394730Y269277D01*
X388620Y269277D01*
X388567Y269291D01*
X388467Y269297D01*
X388446Y269301D01*
X388434Y269299D01*
X388406Y269301D01*
X384837Y269301D01*
X383051Y271087D01*
X383051Y276613D01*
X383336Y276897D01*
X383401Y276981D01*
X383472Y277059D01*
X383498Y277106D01*
X383531Y277149D01*
X383573Y277246D01*
X383623Y277339D01*
X383636Y277391D01*
X383657Y277441D01*
X383674Y277545D01*
X383699Y277648D01*
X383698Y277701D01*
X383707Y277755D01*
X383697Y277860D01*
X383696Y277966D01*
X383679Y278049D01*
X383677Y278071D01*
X383672Y278086D01*
X383664Y278123D01*
X383559Y278515D01*
X383559Y279081D01*
X390850Y279081D01*
X398298Y279081D01*
X398367Y278985D01*
X398431Y278884D01*
X398461Y278856D01*
X398484Y278823D01*
X398576Y278747D01*
X398663Y278666D01*
X398698Y278646D01*
X398729Y278621D01*
X398837Y278570D01*
X398941Y278512D01*
X398959Y278508D01*
X400667Y276800D01*
X400771Y276719D01*
X400871Y276635D01*
X400896Y276622D01*
X400918Y276605D01*
X401039Y276553D01*
X401157Y276496D01*
X401184Y276490D01*
X401210Y276479D01*
X401340Y276458D01*
X401468Y276432D01*
X401496Y276433D01*
X401524Y276429D01*
X401655Y276441D01*
X401786Y276448D01*
X401813Y276456D01*
X401841Y276459D01*
X401964Y276503D01*
X402090Y276542D01*
X402113Y276557D01*
X402140Y276566D01*
X402249Y276640D01*
X402360Y276709D01*
X402380Y276729D01*
X402403Y276745D01*
X402490Y276843D01*
X402581Y276938D01*
X402595Y276962D01*
X402614Y276983D01*
X402673Y277100D01*
X402738Y277214D01*
X402751Y277252D01*
X402758Y277267D01*
X402763Y277288D01*
X402790Y277367D01*
X402878Y277695D01*
X403214Y278274D01*
X403748Y278806D01*
X403821Y278901D01*
X403900Y278990D01*
X403919Y279026D01*
X403943Y279057D01*
X403991Y279167D01*
X404045Y279273D01*
X404054Y279312D01*
X404070Y279349D01*
X404089Y279467D01*
X404115Y279583D01*
X404114Y279623D01*
X404121Y279663D01*
X404110Y279781D01*
X404106Y279901D01*
X404095Y279940D01*
X404091Y279980D01*
X404051Y280092D01*
X404018Y280206D01*
X403998Y280241D01*
X403984Y280279D01*
X403918Y280378D01*
X403857Y280480D01*
X403818Y280526D01*
X403806Y280543D01*
X403791Y280556D01*
X403751Y280602D01*
X402205Y282153D01*
X402208Y283674D01*
X402190Y283812D01*
X402177Y283953D01*
X402171Y283971D01*
X402168Y283990D01*
X402117Y284120D01*
X402070Y284252D01*
X402059Y284268D01*
X402052Y284286D01*
X401970Y284399D01*
X401891Y284515D01*
X401877Y284528D01*
X401865Y284544D01*
X401757Y284633D01*
X401653Y284726D01*
X401635Y284735D01*
X401621Y284747D01*
X401494Y284807D01*
X401369Y284870D01*
X401351Y284875D01*
X401333Y284883D01*
X401195Y284909D01*
X401059Y284940D01*
X401040Y284939D01*
X401021Y284943D01*
X400881Y284935D01*
X400741Y284930D01*
X400723Y284925D01*
X400704Y284924D01*
X400570Y284881D01*
X400436Y284842D01*
X400419Y284832D01*
X400401Y284826D01*
X400283Y284752D01*
X400162Y284680D01*
X400142Y284663D01*
X400132Y284657D01*
X400118Y284642D01*
X400041Y284574D01*
X398512Y283046D01*
X398452Y282967D01*
X398384Y282895D01*
X398355Y282842D01*
X398318Y282794D01*
X398278Y282703D01*
X398230Y282617D01*
X398215Y282558D01*
X398191Y282503D01*
X398176Y282405D01*
X398151Y282309D01*
X398145Y282209D01*
X398141Y282188D01*
X398143Y282176D01*
X398141Y282148D01*
X398141Y281619D01*
X390850Y281619D01*
X383559Y281619D01*
X383559Y282185D01*
X383664Y282577D01*
X383679Y282681D01*
X383702Y282784D01*
X383700Y282838D01*
X383708Y282892D01*
X383695Y282997D01*
X383692Y283102D01*
X383677Y283154D01*
X383671Y283208D01*
X383633Y283306D01*
X383604Y283408D01*
X383576Y283454D01*
X383557Y283505D01*
X383496Y283591D01*
X383442Y283682D01*
X383386Y283746D01*
X383373Y283764D01*
X383361Y283774D01*
X383336Y283803D01*
X383051Y284087D01*
X383051Y289879D01*
X383034Y290017D01*
X383021Y290156D01*
X383014Y290175D01*
X383011Y290195D01*
X382960Y290324D01*
X382913Y290455D01*
X382902Y290472D01*
X382894Y290491D01*
X382813Y290603D01*
X382735Y290718D01*
X382719Y290732D01*
X382708Y290748D01*
X382600Y290837D01*
X382496Y290929D01*
X382478Y290938D01*
X382463Y290951D01*
X382337Y291010D01*
X382213Y291073D01*
X382193Y291078D01*
X382175Y291086D01*
X382039Y291112D01*
X381903Y291143D01*
X381882Y291142D01*
X381863Y291146D01*
X381724Y291137D01*
X381585Y291133D01*
X381565Y291128D01*
X381545Y291126D01*
X381413Y291084D01*
X381279Y291045D01*
X381262Y291035D01*
X381243Y291028D01*
X381125Y290954D01*
X381005Y290883D01*
X380984Y290865D01*
X380974Y290858D01*
X380960Y290843D01*
X380885Y290777D01*
X359639Y269531D01*
X358119Y269531D01*
X358020Y269519D01*
X357921Y269516D01*
X357863Y269499D01*
X357803Y269491D01*
X357711Y269455D01*
X357616Y269427D01*
X357564Y269397D01*
X357507Y269374D01*
X357427Y269316D01*
X357402Y269301D01*
X345035Y269301D01*
X344936Y269289D01*
X344837Y269286D01*
X344779Y269269D01*
X344719Y269261D01*
X344627Y269225D01*
X344532Y269197D01*
X344480Y269167D01*
X344423Y269144D01*
X344343Y269086D01*
X344258Y269036D01*
X344183Y268970D01*
X344166Y268958D01*
X344158Y268948D01*
X344137Y268930D01*
X336420Y261213D01*
X336360Y261135D01*
X336292Y261062D01*
X336263Y261009D01*
X336226Y260962D01*
X336186Y260871D01*
X336138Y260784D01*
X336123Y260725D01*
X336099Y260670D01*
X336084Y260572D01*
X336059Y260476D01*
X336053Y260376D01*
X336049Y260356D01*
X336051Y260343D01*
X336049Y260315D01*
X336049Y252637D01*
X334263Y250851D01*
X323737Y250851D01*
X321951Y252637D01*
X321951Y267163D01*
X323737Y268949D01*
X331415Y268949D01*
X331514Y268961D01*
X331613Y268964D01*
X331671Y268981D01*
X331731Y268989D01*
X331823Y269025D01*
X331918Y269053D01*
X331970Y269083D01*
X332027Y269106D01*
X332107Y269164D01*
X332192Y269214D01*
X332267Y269280D01*
X332284Y269292D01*
X332292Y269302D01*
X332313Y269320D01*
X333253Y270261D01*
X333338Y270370D01*
X333427Y270477D01*
X333435Y270496D01*
X333448Y270512D01*
X333503Y270640D01*
X333562Y270765D01*
X333566Y270785D01*
X333574Y270804D01*
X333596Y270942D01*
X333622Y271078D01*
X333621Y271098D01*
X333624Y271118D01*
X333611Y271257D01*
X333602Y271395D01*
X333596Y271414D01*
X333594Y271434D01*
X333547Y271566D01*
X333504Y271697D01*
X333494Y271715D01*
X333487Y271734D01*
X333409Y271849D01*
X333334Y271966D01*
X333319Y271980D01*
X333308Y271997D01*
X333204Y272089D01*
X333103Y272184D01*
X333085Y272194D01*
X333070Y272207D01*
X332946Y272270D01*
X332824Y272338D01*
X332804Y272343D01*
X332786Y272352D01*
X332651Y272382D01*
X332516Y272417D01*
X332488Y272419D01*
X332476Y272422D01*
X332456Y272421D01*
X332355Y272427D01*
X317858Y272427D01*
X317740Y272412D01*
X317621Y272405D01*
X317583Y272392D01*
X317542Y272387D01*
X317432Y272344D01*
X317319Y272307D01*
X317284Y272285D01*
X317247Y272270D01*
X317151Y272201D01*
X317050Y272137D01*
X317022Y272107D01*
X316989Y272084D01*
X316913Y271992D01*
X316832Y271905D01*
X316812Y271870D01*
X316787Y271839D01*
X316736Y271731D01*
X316678Y271627D01*
X316668Y271587D01*
X316651Y271551D01*
X316629Y271434D01*
X316599Y271319D01*
X316595Y271259D01*
X316591Y271239D01*
X316593Y271218D01*
X316589Y271158D01*
X316589Y269149D01*
X316601Y269050D01*
X316604Y268951D01*
X316621Y268893D01*
X316629Y268833D01*
X316665Y268741D01*
X316693Y268646D01*
X316723Y268594D01*
X316746Y268537D01*
X316804Y268457D01*
X316854Y268372D01*
X316920Y268297D01*
X316932Y268280D01*
X316942Y268272D01*
X316960Y268251D01*
X318049Y267163D01*
X318049Y252637D01*
X316263Y250851D01*
X306350Y250851D01*
X306232Y250836D01*
X306113Y250829D01*
X306075Y250816D01*
X306034Y250811D01*
X305924Y250768D01*
X305811Y250731D01*
X305776Y250709D01*
X305739Y250694D01*
X305643Y250625D01*
X305542Y250561D01*
X305514Y250531D01*
X305481Y250508D01*
X305405Y250416D01*
X305324Y250329D01*
X305304Y250294D01*
X305279Y250263D01*
X305228Y250155D01*
X305170Y250051D01*
X305160Y250011D01*
X305143Y249975D01*
X305121Y249858D01*
X305091Y249743D01*
X305087Y249683D01*
X305083Y249663D01*
X305085Y249642D01*
X305081Y249582D01*
X305081Y242410D01*
X305096Y242292D01*
X305103Y242173D01*
X305116Y242135D01*
X305121Y242094D01*
X305164Y241984D01*
X305201Y241871D01*
X305223Y241836D01*
X305238Y241799D01*
X305307Y241703D01*
X305371Y241602D01*
X305401Y241574D01*
X305424Y241541D01*
X305516Y241465D01*
X305603Y241384D01*
X305638Y241364D01*
X305669Y241339D01*
X305777Y241288D01*
X305881Y241230D01*
X305921Y241220D01*
X305957Y241203D01*
X306074Y241181D01*
X306189Y241151D01*
X306249Y241147D01*
X306269Y241143D01*
X306290Y241145D01*
X306350Y241141D01*
X315461Y241141D01*
X315461Y226370D01*
X315476Y226252D01*
X315483Y226133D01*
X315496Y226095D01*
X315501Y226055D01*
X315544Y225944D01*
X315581Y225831D01*
X315603Y225796D01*
X315618Y225759D01*
X315688Y225663D01*
X315751Y225562D01*
X315781Y225534D01*
X315805Y225502D01*
X315896Y225426D01*
X315983Y225344D01*
X316018Y225325D01*
X316049Y225299D01*
X316157Y225248D01*
X316261Y225191D01*
X316301Y225180D01*
X316337Y225163D01*
X316454Y225141D01*
X316569Y225111D01*
X316630Y225107D01*
X316650Y225103D01*
X316670Y225105D01*
X316730Y225101D01*
X318001Y225101D01*
X318001Y225099D01*
X316730Y225099D01*
X316612Y225084D01*
X316493Y225077D01*
X316455Y225064D01*
X316415Y225059D01*
X316304Y225015D01*
X316191Y224979D01*
X316156Y224957D01*
X316119Y224942D01*
X316023Y224872D01*
X315922Y224809D01*
X315894Y224779D01*
X315861Y224755D01*
X315786Y224664D01*
X315704Y224577D01*
X315684Y224542D01*
X315659Y224510D01*
X315608Y224403D01*
X315550Y224299D01*
X315540Y224259D01*
X315523Y224223D01*
X315501Y224106D01*
X315471Y223991D01*
X315467Y223930D01*
X315463Y223910D01*
X315465Y223890D01*
X315461Y223830D01*
X315461Y209059D01*
X307147Y209059D01*
X307009Y209042D01*
X306871Y209029D01*
X306852Y209022D01*
X306832Y209019D01*
X306703Y208968D01*
X306572Y208921D01*
X306555Y208910D01*
X306536Y208902D01*
X306424Y208821D01*
X306308Y208743D01*
X306295Y208727D01*
X306279Y208716D01*
X306190Y208608D01*
X306098Y208504D01*
X306089Y208486D01*
X306076Y208471D01*
X306017Y208345D01*
X305953Y208221D01*
X305949Y208201D01*
X305940Y208183D01*
X305914Y208046D01*
X305884Y207911D01*
X305884Y207890D01*
X305881Y207871D01*
X305889Y207732D01*
X305893Y207593D01*
X305899Y207573D01*
X305900Y207553D01*
X305943Y207421D01*
X305982Y207287D01*
X305992Y207270D01*
X305998Y207251D01*
X306073Y207133D01*
X306143Y207013D01*
X306162Y206992D01*
X306169Y206982D01*
X306183Y206968D01*
X306250Y206893D01*
X307075Y206068D01*
X307082Y206062D01*
X307088Y206055D01*
X307208Y205964D01*
X307326Y205873D01*
X307334Y205869D01*
X307342Y205863D01*
X307486Y205793D01*
X308802Y205247D01*
X308905Y205219D01*
X309005Y205183D01*
X309088Y205169D01*
X309109Y205164D01*
X309125Y205163D01*
X309163Y205157D01*
X309876Y205087D01*
X309895Y205087D01*
X310000Y205081D01*
X399371Y205081D01*
X399416Y205086D01*
X399461Y205084D01*
X399620Y205105D01*
X399995Y205180D01*
X400376Y205105D01*
X400419Y205102D01*
X400461Y205091D01*
X400622Y205081D01*
X401011Y205081D01*
X401363Y204935D01*
X401407Y204923D01*
X401447Y204903D01*
X401603Y204862D01*
X401977Y204788D01*
X402301Y204573D01*
X402340Y204553D01*
X402374Y204527D01*
X402519Y204456D01*
X402878Y204307D01*
X403148Y204037D01*
X403183Y204010D01*
X403213Y203976D01*
X403341Y203879D01*
X477692Y154311D01*
X477708Y154304D01*
X477743Y154279D01*
X478520Y153813D01*
X478611Y153711D01*
X478634Y153693D01*
X478643Y153684D01*
X478651Y153680D01*
X479137Y152953D01*
X479148Y152940D01*
X479172Y152903D01*
X479711Y152176D01*
X479756Y152047D01*
X479771Y152021D01*
X479776Y152010D01*
X479781Y152002D01*
X479952Y151145D01*
X479958Y151129D01*
X479966Y151086D01*
X481959Y143114D01*
X481960Y143110D01*
X481961Y143106D01*
X482018Y142962D01*
X482074Y142817D01*
X482076Y142814D01*
X482078Y142810D01*
X482167Y142687D01*
X482259Y142559D01*
X482262Y142556D01*
X482264Y142553D01*
X482385Y142453D01*
X482503Y142355D01*
X482506Y142353D01*
X482509Y142350D01*
X482651Y142284D01*
X482790Y142217D01*
X482794Y142216D01*
X482797Y142215D01*
X482949Y142186D01*
X483102Y142155D01*
X483106Y142156D01*
X483110Y142155D01*
X483263Y142164D01*
X483419Y142173D01*
X483423Y142174D01*
X483427Y142175D01*
X483573Y142222D01*
X483722Y142269D01*
X483726Y142271D01*
X483729Y142273D01*
X483859Y142355D01*
X483992Y142438D01*
X483995Y142441D01*
X483998Y142443D01*
X484104Y142555D01*
X484211Y142668D01*
X484213Y142672D01*
X484216Y142674D01*
X484291Y142810D01*
X484367Y142946D01*
X484368Y142950D01*
X484370Y142953D01*
X484408Y143103D01*
X484448Y143253D01*
X484448Y143257D01*
X484449Y143261D01*
X484459Y143422D01*
X484459Y148234D01*
X484632Y148881D01*
X484967Y149460D01*
X485440Y149933D01*
X486019Y150268D01*
X486666Y150441D01*
X489001Y150441D01*
X489001Y142630D01*
X489016Y142512D01*
X489023Y142393D01*
X489035Y142355D01*
X489041Y142315D01*
X489084Y142204D01*
X489121Y142091D01*
X489143Y142057D01*
X489158Y142019D01*
X489227Y141923D01*
X489291Y141822D01*
X489321Y141794D01*
X489344Y141762D01*
X489436Y141686D01*
X489523Y141604D01*
X489558Y141585D01*
X489589Y141559D01*
X489697Y141508D01*
X489801Y141451D01*
X489841Y141441D01*
X489877Y141423D01*
X489994Y141401D01*
X490109Y141371D01*
X490169Y141367D01*
X490189Y141364D01*
X490210Y141365D01*
X490270Y141361D01*
X490461Y141361D01*
X490461Y141170D01*
X490476Y141052D01*
X490483Y140933D01*
X490496Y140895D01*
X490501Y140854D01*
X490545Y140744D01*
X490581Y140631D01*
X490603Y140596D01*
X490618Y140559D01*
X490688Y140462D01*
X490751Y140362D01*
X490781Y140334D01*
X490805Y140301D01*
X490896Y140225D01*
X490983Y140144D01*
X491018Y140124D01*
X491050Y140099D01*
X491157Y140048D01*
X491262Y139990D01*
X491301Y139980D01*
X491337Y139963D01*
X491454Y139941D01*
X491570Y139911D01*
X491630Y139907D01*
X491650Y139903D01*
X491670Y139905D01*
X491730Y139901D01*
X497541Y139901D01*
X497541Y136350D01*
X497556Y136232D01*
X497563Y136113D01*
X497576Y136075D01*
X497581Y136034D01*
X497624Y135924D01*
X497661Y135811D01*
X497683Y135776D01*
X497698Y135739D01*
X497767Y135643D01*
X497831Y135542D01*
X497861Y135514D01*
X497884Y135481D01*
X497976Y135405D01*
X498063Y135324D01*
X498098Y135304D01*
X498129Y135279D01*
X498237Y135228D01*
X498341Y135170D01*
X498381Y135160D01*
X498417Y135143D01*
X498534Y135121D01*
X498649Y135091D01*
X498709Y135087D01*
X498729Y135083D01*
X498750Y135085D01*
X498810Y135081D01*
X500682Y135081D01*
X500800Y135096D01*
G37*
G36*
X530614Y248346D02*
X530614Y248346D01*
X530733Y248353D01*
X530771Y248366D01*
X530812Y248371D01*
X530922Y248414D01*
X531035Y248451D01*
X531070Y248473D01*
X531107Y248488D01*
X531203Y248558D01*
X531304Y248621D01*
X531332Y248651D01*
X531365Y248674D01*
X531441Y248766D01*
X531522Y248853D01*
X531542Y248888D01*
X531567Y248919D01*
X531618Y249027D01*
X531676Y249131D01*
X531686Y249171D01*
X531703Y249207D01*
X531725Y249324D01*
X531755Y249439D01*
X531759Y249500D01*
X531763Y249520D01*
X531761Y249540D01*
X531765Y249600D01*
X531765Y259849D01*
X533254Y261338D01*
X540200Y261338D01*
X540318Y261353D01*
X540437Y261360D01*
X540475Y261373D01*
X540516Y261378D01*
X540626Y261421D01*
X540739Y261458D01*
X540774Y261480D01*
X540811Y261495D01*
X540907Y261564D01*
X541008Y261628D01*
X541036Y261658D01*
X541069Y261681D01*
X541145Y261773D01*
X541226Y261860D01*
X541246Y261895D01*
X541271Y261926D01*
X541322Y262034D01*
X541380Y262138D01*
X541390Y262178D01*
X541407Y262214D01*
X541429Y262331D01*
X541459Y262446D01*
X541463Y262506D01*
X541467Y262526D01*
X541465Y262547D01*
X541469Y262607D01*
X541469Y328650D01*
X541454Y328768D01*
X541447Y328887D01*
X541434Y328925D01*
X541429Y328966D01*
X541386Y329076D01*
X541349Y329189D01*
X541327Y329224D01*
X541312Y329261D01*
X541243Y329357D01*
X541179Y329458D01*
X541149Y329486D01*
X541126Y329519D01*
X541034Y329595D01*
X540947Y329676D01*
X540912Y329696D01*
X540881Y329721D01*
X540773Y329772D01*
X540669Y329830D01*
X540629Y329840D01*
X540593Y329857D01*
X540476Y329879D01*
X540361Y329909D01*
X540301Y329913D01*
X540281Y329917D01*
X540260Y329915D01*
X540200Y329919D01*
X416796Y329919D01*
X416659Y329902D01*
X416520Y329889D01*
X416500Y329882D01*
X416480Y329879D01*
X416352Y329828D01*
X416220Y329781D01*
X416204Y329770D01*
X416185Y329762D01*
X416072Y329681D01*
X415957Y329603D01*
X415944Y329587D01*
X415927Y329576D01*
X415839Y329468D01*
X415747Y329364D01*
X415738Y329346D01*
X415725Y329331D01*
X415665Y329205D01*
X415602Y329081D01*
X415598Y329061D01*
X415589Y329043D01*
X415563Y328907D01*
X415532Y328771D01*
X415533Y328750D01*
X415529Y328731D01*
X415538Y328592D01*
X415542Y328453D01*
X415548Y328433D01*
X415549Y328413D01*
X415592Y328281D01*
X415631Y328147D01*
X415641Y328130D01*
X415647Y328111D01*
X415722Y327993D01*
X415792Y327873D01*
X415811Y327852D01*
X415817Y327842D01*
X415832Y327828D01*
X415898Y327753D01*
X418183Y325468D01*
X419653Y321920D01*
X419653Y318080D01*
X419396Y317460D01*
X419388Y317432D01*
X419375Y317406D01*
X419346Y317279D01*
X419312Y317154D01*
X419312Y317124D01*
X419305Y317095D01*
X419309Y316966D01*
X419307Y316836D01*
X419314Y316807D01*
X419315Y316777D01*
X419351Y316653D01*
X419381Y316526D01*
X419395Y316500D01*
X419403Y316472D01*
X419469Y316360D01*
X419530Y316245D01*
X419550Y316223D01*
X419565Y316198D01*
X419671Y316077D01*
X424312Y311436D01*
X424390Y311376D01*
X424462Y311308D01*
X424515Y311279D01*
X424563Y311242D01*
X424654Y311202D01*
X424741Y311154D01*
X424799Y311139D01*
X424855Y311115D01*
X424953Y311100D01*
X425049Y311075D01*
X425149Y311069D01*
X425169Y311065D01*
X425181Y311067D01*
X425209Y311065D01*
X478684Y311065D01*
X491293Y298456D01*
X491402Y298371D01*
X491509Y298282D01*
X491528Y298273D01*
X491544Y298261D01*
X491672Y298205D01*
X491797Y298146D01*
X491817Y298143D01*
X491836Y298135D01*
X491974Y298113D01*
X492110Y298087D01*
X492130Y298088D01*
X492150Y298085D01*
X492289Y298098D01*
X492427Y298106D01*
X492446Y298113D01*
X492466Y298115D01*
X492598Y298162D01*
X492729Y298204D01*
X492747Y298215D01*
X492766Y298222D01*
X492881Y298300D01*
X492998Y298375D01*
X493012Y298389D01*
X493029Y298401D01*
X493120Y298504D01*
X493216Y298606D01*
X493226Y298624D01*
X493239Y298639D01*
X493303Y298763D01*
X493370Y298885D01*
X493375Y298904D01*
X493384Y298922D01*
X493414Y299058D01*
X493449Y299193D01*
X493451Y299221D01*
X493454Y299233D01*
X493453Y299253D01*
X493459Y299353D01*
X493459Y302052D01*
X494948Y303541D01*
X509052Y303541D01*
X510541Y302052D01*
X510541Y298830D01*
X510556Y298712D01*
X510563Y298593D01*
X510576Y298555D01*
X510581Y298514D01*
X510624Y298404D01*
X510661Y298291D01*
X510683Y298256D01*
X510698Y298219D01*
X510767Y298123D01*
X510831Y298022D01*
X510861Y297994D01*
X510884Y297961D01*
X510976Y297885D01*
X511063Y297804D01*
X511098Y297784D01*
X511129Y297759D01*
X511237Y297708D01*
X511341Y297650D01*
X511381Y297640D01*
X511417Y297623D01*
X511534Y297601D01*
X511649Y297571D01*
X511709Y297567D01*
X511729Y297563D01*
X511750Y297565D01*
X511810Y297561D01*
X514106Y297561D01*
X516150Y296714D01*
X517714Y295150D01*
X518561Y293106D01*
X518561Y290894D01*
X517714Y288850D01*
X516150Y287286D01*
X514106Y286439D01*
X511894Y286439D01*
X510968Y286823D01*
X510959Y286825D01*
X510951Y286830D01*
X510806Y286867D01*
X510662Y286907D01*
X510652Y286907D01*
X510643Y286909D01*
X510483Y286919D01*
X505989Y286919D01*
X504122Y287693D01*
X502514Y289301D01*
X501727Y290087D01*
X501649Y290148D01*
X501577Y290216D01*
X501524Y290245D01*
X501476Y290282D01*
X501385Y290322D01*
X501298Y290370D01*
X501240Y290385D01*
X501184Y290409D01*
X501086Y290424D01*
X500990Y290449D01*
X500890Y290455D01*
X500870Y290459D01*
X500858Y290457D01*
X500830Y290459D01*
X497834Y290459D01*
X497716Y290444D01*
X497597Y290437D01*
X497559Y290424D01*
X497518Y290419D01*
X497408Y290376D01*
X497295Y290339D01*
X497260Y290317D01*
X497223Y290302D01*
X497127Y290233D01*
X497026Y290169D01*
X496998Y290139D01*
X496965Y290116D01*
X496889Y290024D01*
X496808Y289937D01*
X496788Y289902D01*
X496763Y289871D01*
X496712Y289763D01*
X496654Y289659D01*
X496644Y289619D01*
X496627Y289583D01*
X496605Y289466D01*
X496575Y289351D01*
X496571Y289290D01*
X496567Y289271D01*
X496569Y289250D01*
X496565Y289190D01*
X496565Y249709D01*
X496577Y249611D01*
X496580Y249512D01*
X496597Y249454D01*
X496605Y249394D01*
X496641Y249302D01*
X496669Y249207D01*
X496699Y249155D01*
X496722Y249098D01*
X496780Y249018D01*
X496830Y248933D01*
X496896Y248857D01*
X496908Y248841D01*
X496918Y248833D01*
X496936Y248812D01*
X497046Y248703D01*
X497124Y248642D01*
X497196Y248574D01*
X497249Y248545D01*
X497297Y248508D01*
X497388Y248468D01*
X497475Y248420D01*
X497533Y248405D01*
X497589Y248381D01*
X497687Y248366D01*
X497783Y248341D01*
X497883Y248335D01*
X497903Y248331D01*
X497915Y248333D01*
X497943Y248331D01*
X530496Y248331D01*
X530614Y248346D01*
G37*
%LPC*%
G36*
X367387Y208551D02*
X367387Y208551D01*
X365601Y210337D01*
X365601Y239863D01*
X367387Y241649D01*
X369705Y241649D01*
X369842Y241666D01*
X369981Y241679D01*
X370000Y241686D01*
X370020Y241689D01*
X370149Y241740D01*
X370280Y241787D01*
X370297Y241798D01*
X370316Y241806D01*
X370428Y241887D01*
X370543Y241965D01*
X370557Y241981D01*
X370573Y241992D01*
X370662Y242100D01*
X370754Y242204D01*
X370763Y242222D01*
X370776Y242237D01*
X370835Y242363D01*
X370898Y242487D01*
X370903Y242507D01*
X370911Y242525D01*
X370938Y242662D01*
X370968Y242797D01*
X370967Y242818D01*
X370971Y242837D01*
X370963Y242976D01*
X370958Y243115D01*
X370953Y243135D01*
X370951Y243155D01*
X370909Y243287D01*
X370870Y243421D01*
X370860Y243438D01*
X370853Y243457D01*
X370779Y243575D01*
X370708Y243695D01*
X370690Y243716D01*
X370683Y243726D01*
X370668Y243740D01*
X370602Y243815D01*
X368855Y245562D01*
X367931Y247793D01*
X367931Y250207D01*
X368855Y252438D01*
X370562Y254145D01*
X372793Y255069D01*
X375207Y255069D01*
X377438Y254145D01*
X379145Y252438D01*
X379528Y251512D01*
X379533Y251504D01*
X379535Y251495D01*
X379611Y251367D01*
X379686Y251236D01*
X379692Y251229D01*
X379697Y251221D01*
X379803Y251100D01*
X386138Y244766D01*
X387026Y242621D01*
X387029Y242602D01*
X387072Y242492D01*
X387109Y242379D01*
X387131Y242344D01*
X387146Y242307D01*
X387215Y242211D01*
X387279Y242110D01*
X387309Y242082D01*
X387332Y242049D01*
X387424Y241973D01*
X387511Y241892D01*
X387546Y241872D01*
X387577Y241847D01*
X387685Y241796D01*
X387789Y241738D01*
X387829Y241728D01*
X387865Y241711D01*
X387982Y241689D01*
X388097Y241659D01*
X388157Y241655D01*
X388177Y241651D01*
X388198Y241653D01*
X388258Y241649D01*
X395413Y241649D01*
X397199Y239863D01*
X397199Y210337D01*
X395413Y208551D01*
X367387Y208551D01*
G37*
%LPD*%
%LPC*%
G36*
X702427Y210254D02*
X702427Y210254D01*
X702376Y239780D01*
X704158Y241569D01*
X711463Y241582D01*
X711491Y241585D01*
X711520Y241583D01*
X711649Y241605D01*
X711778Y241622D01*
X711805Y241633D01*
X711833Y241637D01*
X711952Y241691D01*
X712074Y241740D01*
X712097Y241756D01*
X712123Y241768D01*
X712225Y241850D01*
X712331Y241927D01*
X712349Y241949D01*
X712371Y241967D01*
X712450Y242071D01*
X712533Y242172D01*
X712545Y242198D01*
X712563Y242221D01*
X712633Y242365D01*
X713462Y244366D01*
X719197Y250100D01*
X719202Y250108D01*
X719210Y250113D01*
X719300Y250233D01*
X719392Y250352D01*
X719395Y250360D01*
X719401Y250368D01*
X719472Y250512D01*
X719855Y251438D01*
X721562Y253145D01*
X723793Y254069D01*
X726207Y254069D01*
X728438Y253145D01*
X730145Y251438D01*
X731069Y249207D01*
X731069Y246793D01*
X730145Y244562D01*
X729364Y243781D01*
X729278Y243671D01*
X729189Y243562D01*
X729180Y243545D01*
X729169Y243530D01*
X729113Y243401D01*
X729054Y243274D01*
X729050Y243256D01*
X729042Y243238D01*
X729020Y243099D01*
X728994Y242962D01*
X728996Y242943D01*
X728993Y242924D01*
X729006Y242784D01*
X729015Y242645D01*
X729021Y242626D01*
X729022Y242607D01*
X729070Y242476D01*
X729113Y242342D01*
X729123Y242326D01*
X729130Y242308D01*
X729208Y242193D01*
X729284Y242074D01*
X729298Y242061D01*
X729309Y242045D01*
X729413Y241953D01*
X729516Y241856D01*
X729533Y241847D01*
X729547Y241834D01*
X729671Y241771D01*
X729795Y241703D01*
X729813Y241699D01*
X729830Y241690D01*
X729967Y241659D01*
X730103Y241624D01*
X730129Y241623D01*
X730141Y241620D01*
X730161Y241621D01*
X730263Y241614D01*
X732184Y241618D01*
X733973Y239835D01*
X734025Y210309D01*
X732242Y208520D01*
X704216Y208471D01*
X702427Y210254D01*
G37*
%LPD*%
%LPC*%
G36*
X467518Y214198D02*
X467518Y214198D01*
X465877Y222883D01*
X470857Y230184D01*
X479542Y231825D01*
X486371Y227167D01*
X486407Y227148D01*
X486440Y227123D01*
X486549Y227076D01*
X486654Y227022D01*
X486694Y227013D01*
X486732Y226996D01*
X486817Y226983D01*
X488484Y218160D01*
X483504Y210859D01*
X474819Y209218D01*
X467518Y214198D01*
G37*
%LPD*%
%LPC*%
G36*
X320539Y227639D02*
X320539Y227639D01*
X320539Y241141D01*
X331084Y241141D01*
X331731Y240968D01*
X332310Y240633D01*
X332783Y240160D01*
X333118Y239581D01*
X333291Y238934D01*
X333291Y227639D01*
X320539Y227639D01*
G37*
%LPD*%
%LPC*%
G36*
X766285Y238963D02*
X766285Y238963D01*
X766457Y239610D01*
X766791Y240190D01*
X767263Y240663D01*
X767842Y240999D01*
X768487Y241173D01*
X779033Y241192D01*
X779056Y227690D01*
X766305Y227668D01*
X766285Y238963D01*
G37*
%LPD*%
%LPC*%
G36*
X320539Y209059D02*
X320539Y209059D01*
X320539Y222561D01*
X333291Y222561D01*
X333291Y211266D01*
X333118Y210619D01*
X332783Y210040D01*
X332310Y209567D01*
X331731Y209232D01*
X331084Y209059D01*
X320539Y209059D01*
G37*
%LPD*%
%LPC*%
G36*
X767897Y209264D02*
X767897Y209264D01*
X767317Y209597D01*
X766843Y210070D01*
X766508Y210648D01*
X766333Y211294D01*
X766314Y222589D01*
X779065Y222612D01*
X779089Y209110D01*
X768543Y209092D01*
X767897Y209264D01*
G37*
%LPD*%
G36*
X433151Y263056D02*
X433151Y263056D01*
X433241Y263052D01*
X433309Y263066D01*
X433379Y263070D01*
X433464Y263098D01*
X433552Y263116D01*
X433615Y263147D01*
X433681Y263168D01*
X433757Y263216D01*
X433838Y263256D01*
X433891Y263301D01*
X433950Y263338D01*
X434012Y263404D01*
X434080Y263462D01*
X434120Y263519D01*
X434168Y263570D01*
X434212Y263649D01*
X434263Y263722D01*
X434288Y263787D01*
X434322Y263848D01*
X434344Y263935D01*
X434376Y264019D01*
X434384Y264089D01*
X434401Y264156D01*
X434411Y264317D01*
X434411Y265159D01*
X434399Y265258D01*
X434396Y265357D01*
X434379Y265415D01*
X434371Y265475D01*
X434335Y265567D01*
X434307Y265662D01*
X434277Y265714D01*
X434254Y265771D01*
X434196Y265851D01*
X434146Y265936D01*
X434080Y266011D01*
X434068Y266028D01*
X434058Y266036D01*
X434040Y266057D01*
X425292Y274805D01*
X425214Y274865D01*
X425143Y274932D01*
X425089Y274962D01*
X425040Y275000D01*
X424950Y275039D01*
X424865Y275086D01*
X424805Y275101D01*
X424749Y275126D01*
X424652Y275141D01*
X424557Y275166D01*
X424454Y275173D01*
X424434Y275176D01*
X424423Y275175D01*
X424396Y275176D01*
X413222Y275196D01*
X413104Y275181D01*
X412985Y275174D01*
X412978Y275172D01*
X412922Y275186D01*
X412862Y275190D01*
X412842Y275194D01*
X412821Y275193D01*
X412761Y275197D01*
X405323Y275210D01*
X405185Y275192D01*
X405045Y275179D01*
X405027Y275173D01*
X405008Y275170D01*
X404878Y275119D01*
X404746Y275072D01*
X404730Y275061D01*
X404712Y275054D01*
X404599Y274972D01*
X404483Y274893D01*
X404470Y274879D01*
X404454Y274868D01*
X404365Y274760D01*
X404272Y274655D01*
X404263Y274638D01*
X404251Y274623D01*
X404191Y274496D01*
X404127Y274371D01*
X404123Y274353D01*
X404115Y274335D01*
X404088Y274198D01*
X404058Y274061D01*
X404058Y274042D01*
X404055Y274023D01*
X404063Y273884D01*
X404067Y273743D01*
X404073Y273725D01*
X404074Y273706D01*
X404117Y273573D01*
X404156Y273438D01*
X404166Y273421D01*
X404171Y273403D01*
X404246Y273285D01*
X404317Y273164D01*
X404335Y273144D01*
X404341Y273134D01*
X404356Y273120D01*
X404424Y273043D01*
X404885Y272582D01*
X404962Y272522D01*
X405033Y272455D01*
X405087Y272425D01*
X405136Y272387D01*
X405226Y272348D01*
X405311Y272301D01*
X405371Y272285D01*
X405428Y272261D01*
X405525Y272245D01*
X405619Y272221D01*
X405722Y272214D01*
X405742Y272211D01*
X405754Y272212D01*
X405780Y272210D01*
X412756Y272198D01*
X412874Y272213D01*
X412993Y272220D01*
X413000Y272222D01*
X413056Y272208D01*
X413116Y272204D01*
X413136Y272200D01*
X413156Y272201D01*
X413217Y272197D01*
X423277Y272180D01*
X423274Y270345D01*
X423100Y269699D01*
X422764Y269120D01*
X422397Y268754D01*
X422311Y268644D01*
X422221Y268536D01*
X422213Y268518D01*
X422202Y268503D01*
X422145Y268374D01*
X422086Y268248D01*
X422082Y268229D01*
X422075Y268212D01*
X422052Y268073D01*
X422026Y267936D01*
X422027Y267917D01*
X422024Y267898D01*
X422037Y267758D01*
X422046Y267618D01*
X422052Y267600D01*
X422054Y267581D01*
X422101Y267449D01*
X422144Y267316D01*
X422154Y267299D01*
X422161Y267281D01*
X422239Y267166D01*
X422314Y267047D01*
X422328Y267034D01*
X422339Y267018D01*
X422443Y266925D01*
X422546Y266829D01*
X422562Y266820D01*
X422577Y266807D01*
X422702Y266743D01*
X422824Y266676D01*
X422843Y266671D01*
X422860Y266662D01*
X422997Y266631D01*
X423132Y266596D01*
X423159Y266594D01*
X423170Y266592D01*
X423190Y266592D01*
X423293Y266586D01*
X424061Y266586D01*
X424070Y266587D01*
X424080Y266586D01*
X424228Y266607D01*
X424377Y266626D01*
X424385Y266629D01*
X424395Y266630D01*
X424547Y266682D01*
X425383Y267029D01*
X427797Y267029D01*
X430028Y266105D01*
X431735Y264398D01*
X431969Y263831D01*
X432004Y263771D01*
X432030Y263706D01*
X432082Y263633D01*
X432127Y263555D01*
X432175Y263505D01*
X432216Y263449D01*
X432286Y263391D01*
X432348Y263327D01*
X432408Y263290D01*
X432461Y263246D01*
X432543Y263207D01*
X432619Y263160D01*
X432686Y263140D01*
X432749Y263110D01*
X432837Y263093D01*
X432923Y263067D01*
X432993Y263064D01*
X433062Y263050D01*
X433151Y263056D01*
G37*
%LPC*%
G36*
X562031Y149031D02*
X562031Y149031D01*
X562031Y157923D01*
X564524Y157923D01*
X570923Y151524D01*
X570923Y149031D01*
X562031Y149031D01*
G37*
%LPD*%
%LPC*%
G36*
X528895Y316899D02*
X528895Y316899D01*
X528895Y325346D01*
X531325Y325346D01*
X531972Y325173D01*
X532551Y324838D01*
X533024Y324365D01*
X533359Y323786D01*
X533532Y323139D01*
X533532Y316899D01*
X528895Y316899D01*
G37*
%LPD*%
%LPC*%
G36*
X574895Y316899D02*
X574895Y316899D01*
X574895Y325346D01*
X577325Y325346D01*
X577972Y325173D01*
X578551Y324838D01*
X579024Y324365D01*
X579359Y323786D01*
X579532Y323139D01*
X579532Y316899D01*
X574895Y316899D01*
G37*
%LPD*%
%LPC*%
G36*
X574895Y304262D02*
X574895Y304262D01*
X574895Y312709D01*
X579532Y312709D01*
X579532Y306469D01*
X579359Y305822D01*
X579024Y305243D01*
X578551Y304770D01*
X577972Y304435D01*
X577325Y304262D01*
X574895Y304262D01*
G37*
%LPD*%
%LPC*%
G36*
X528895Y304262D02*
X528895Y304262D01*
X528895Y312709D01*
X533532Y312709D01*
X533532Y306469D01*
X533359Y305822D01*
X533024Y305243D01*
X532551Y304770D01*
X531972Y304435D01*
X531325Y304262D01*
X528895Y304262D01*
G37*
%LPD*%
%LPC*%
G36*
X520068Y316899D02*
X520068Y316899D01*
X520068Y323139D01*
X520241Y323786D01*
X520576Y324365D01*
X521049Y324838D01*
X521628Y325173D01*
X522275Y325346D01*
X524705Y325346D01*
X524705Y316899D01*
X520068Y316899D01*
G37*
%LPD*%
%LPC*%
G36*
X566068Y316899D02*
X566068Y316899D01*
X566068Y323139D01*
X566241Y323786D01*
X566576Y324365D01*
X567049Y324838D01*
X567628Y325173D01*
X568275Y325346D01*
X570705Y325346D01*
X570705Y316899D01*
X566068Y316899D01*
G37*
%LPD*%
%LPC*%
G36*
X522275Y304262D02*
X522275Y304262D01*
X521628Y304435D01*
X521049Y304770D01*
X520576Y305243D01*
X520241Y305822D01*
X520068Y306469D01*
X520068Y312709D01*
X524705Y312709D01*
X524705Y304262D01*
X522275Y304262D01*
G37*
%LPD*%
%LPC*%
G36*
X503999Y316999D02*
X503999Y316999D01*
X503999Y321541D01*
X508334Y321541D01*
X508981Y321368D01*
X509560Y321033D01*
X510033Y320560D01*
X510368Y319981D01*
X510541Y319334D01*
X510541Y316999D01*
X503999Y316999D01*
G37*
%LPD*%
%LPC*%
G36*
X598999Y316999D02*
X598999Y316999D01*
X598999Y321541D01*
X603334Y321541D01*
X603981Y321368D01*
X604560Y321033D01*
X605033Y320560D01*
X605368Y319981D01*
X605541Y319334D01*
X605541Y316999D01*
X598999Y316999D01*
G37*
%LPD*%
%LPC*%
G36*
X594999Y144699D02*
X594999Y144699D01*
X594999Y151241D01*
X597334Y151241D01*
X597981Y151068D01*
X598560Y150733D01*
X599033Y150260D01*
X599368Y149681D01*
X599541Y149034D01*
X599541Y144699D01*
X594999Y144699D01*
G37*
%LPD*%
%LPC*%
G36*
X492999Y143899D02*
X492999Y143899D01*
X492999Y150441D01*
X495334Y150441D01*
X495981Y150268D01*
X496560Y149933D01*
X497033Y149460D01*
X497368Y148881D01*
X497541Y148234D01*
X497541Y143899D01*
X492999Y143899D01*
G37*
%LPD*%
%LPC*%
G36*
X586459Y144699D02*
X586459Y144699D01*
X586459Y149034D01*
X586632Y149681D01*
X586967Y150260D01*
X587440Y150733D01*
X588019Y151068D01*
X588666Y151241D01*
X591001Y151241D01*
X591001Y144699D01*
X586459Y144699D01*
G37*
%LPD*%
%LPC*%
G36*
X493459Y316999D02*
X493459Y316999D01*
X493459Y319334D01*
X493632Y319981D01*
X493967Y320560D01*
X494440Y321033D01*
X495019Y321368D01*
X495666Y321541D01*
X500001Y321541D01*
X500001Y316999D01*
X493459Y316999D01*
G37*
%LPD*%
%LPC*%
G36*
X588459Y316999D02*
X588459Y316999D01*
X588459Y319334D01*
X588632Y319981D01*
X588967Y320560D01*
X589440Y321033D01*
X590019Y321368D01*
X590666Y321541D01*
X595001Y321541D01*
X595001Y316999D01*
X588459Y316999D01*
G37*
%LPD*%
%LPC*%
G36*
X503999Y308459D02*
X503999Y308459D01*
X503999Y313001D01*
X510541Y313001D01*
X510541Y310666D01*
X510368Y310019D01*
X510033Y309440D01*
X509560Y308967D01*
X508981Y308632D01*
X508334Y308459D01*
X503999Y308459D01*
G37*
%LPD*%
%LPC*%
G36*
X598999Y308459D02*
X598999Y308459D01*
X598999Y313001D01*
X605541Y313001D01*
X605541Y310666D01*
X605368Y310019D01*
X605033Y309440D01*
X604560Y308967D01*
X603981Y308632D01*
X603334Y308459D01*
X598999Y308459D01*
G37*
%LPD*%
%LPC*%
G36*
X495666Y308459D02*
X495666Y308459D01*
X495019Y308632D01*
X494440Y308967D01*
X493967Y309440D01*
X493632Y310019D01*
X493459Y310666D01*
X493459Y313001D01*
X500001Y313001D01*
X500001Y308459D01*
X495666Y308459D01*
G37*
%LPD*%
%LPC*%
G36*
X590666Y308459D02*
X590666Y308459D01*
X590019Y308632D01*
X589440Y308967D01*
X588967Y309440D01*
X588632Y310019D01*
X588459Y310666D01*
X588459Y313001D01*
X595001Y313001D01*
X595001Y308459D01*
X590666Y308459D01*
G37*
%LPD*%
D10*
X310000Y320000D03*
D11*
X509000Y141900D03*
X491000Y141900D03*
D12*
X381400Y225100D03*
X318000Y225100D03*
D11*
X611000Y142700D03*
X593000Y142700D03*
D12*
G36*
X705427Y238522D02*
X730926Y238567D01*
X730973Y211568D01*
X705474Y211523D01*
X705427Y238522D01*
G37*
G36*
X768827Y238632D02*
X794326Y238677D01*
X794373Y211678D01*
X768874Y211633D01*
X768827Y238632D01*
G37*
D13*
X498163Y206208D03*
X483850Y185225D03*
X477180Y220521D03*
X462867Y199539D03*
X456198Y234835D03*
X441884Y213852D03*
D10*
X330000Y320000D03*
X350000Y320000D03*
X370000Y320000D03*
X390000Y320000D03*
D14*
X616288Y185169D03*
X601901Y206101D03*
X637221Y199555D03*
X622834Y220488D03*
X658154Y213942D03*
X643767Y234875D03*
D10*
X710000Y320000D03*
X730000Y320000D03*
X750000Y320000D03*
X770000Y320000D03*
D11*
X311000Y259900D03*
X329000Y259900D03*
X311000Y290000D03*
X329000Y290000D03*
X789000Y260000D03*
X771000Y260000D03*
X789000Y294000D03*
X771000Y294000D03*
D15*
X351350Y280350D03*
X351350Y273850D03*
X351350Y286850D03*
X351350Y293350D03*
X390850Y293350D03*
X390850Y286850D03*
X390850Y280350D03*
X390850Y273850D03*
D16*
G36*
X405267Y289410D02*
X420766Y289383D01*
X420755Y283384D01*
X405256Y283411D01*
X405267Y289410D01*
G37*
G36*
X405289Y302110D02*
X420788Y302083D01*
X420777Y296084D01*
X405278Y296111D01*
X405289Y302110D01*
G37*
G36*
X405245Y276710D02*
X420744Y276683D01*
X420733Y270684D01*
X405234Y270711D01*
X405245Y276710D01*
G37*
G36*
X405223Y264010D02*
X420722Y263983D01*
X420711Y257984D01*
X405212Y258011D01*
X405223Y264010D01*
G37*
G36*
X459223Y263916D02*
X474722Y263889D01*
X474711Y257890D01*
X459212Y257917D01*
X459223Y263916D01*
G37*
G36*
X459245Y276616D02*
X474744Y276589D01*
X474733Y270590D01*
X459234Y270617D01*
X459245Y276616D01*
G37*
G36*
X459267Y289316D02*
X474766Y289289D01*
X474755Y283290D01*
X459256Y283317D01*
X459267Y289316D01*
G37*
G36*
X459289Y302016D02*
X474788Y301989D01*
X474777Y295990D01*
X459278Y296017D01*
X459289Y302016D01*
G37*
D15*
X750150Y286350D03*
X750150Y292850D03*
X750150Y279850D03*
X750150Y273350D03*
X710650Y273350D03*
X710650Y279850D03*
X710650Y286350D03*
X710650Y292850D03*
D16*
G36*
X694798Y270832D02*
X679299Y270751D01*
X679268Y276750D01*
X694767Y276831D01*
X694798Y270832D01*
G37*
G36*
X694864Y258133D02*
X679365Y258052D01*
X679334Y264051D01*
X694833Y264132D01*
X694864Y258133D01*
G37*
G36*
X694731Y283532D02*
X679232Y283451D01*
X679201Y289450D01*
X694700Y289531D01*
X694731Y283532D01*
G37*
G36*
X694665Y296232D02*
X679166Y296151D01*
X679135Y302150D01*
X694634Y302231D01*
X694665Y296232D01*
G37*
G36*
X640666Y295949D02*
X625167Y295868D01*
X625136Y301867D01*
X640635Y301948D01*
X640666Y295949D01*
G37*
G36*
X640732Y283250D02*
X625233Y283169D01*
X625202Y289168D01*
X640701Y289249D01*
X640732Y283250D01*
G37*
G36*
X640799Y270550D02*
X625300Y270469D01*
X625269Y276468D01*
X640768Y276549D01*
X640799Y270550D01*
G37*
G36*
X640865Y257850D02*
X625366Y257769D01*
X625335Y263768D01*
X640834Y263849D01*
X640865Y257850D01*
G37*
D17*
X597000Y315000D03*
X597000Y297000D03*
D18*
X572800Y314804D03*
X549800Y314804D03*
X526800Y314804D03*
D19*
X549800Y250796D03*
D17*
X502000Y315000D03*
X502000Y297000D03*
D11*
X524400Y208000D03*
X542400Y208000D03*
X557800Y208000D03*
X575800Y208000D03*
D10*
X690000Y320000D03*
X410000Y320000D03*
D20*
X575000Y230000D03*
X525000Y230000D03*
D21*
X540000Y147000D03*
X560000Y147000D03*
D22*
X374000Y249000D03*
D23*
X311000Y277000D02*
X311000Y290000D01*
D22*
X311000Y277000D03*
D23*
X311000Y259900D01*
X718200Y241200D02*
X718200Y225045D01*
X718200Y241200D02*
X725000Y248000D01*
D22*
X725000Y248000D03*
D24*
X351350Y280350D02*
X337350Y280350D01*
X334000Y277000D01*
X311000Y277000D01*
D23*
X789000Y294000D02*
X789900Y294900D01*
X789000Y294000D02*
X789000Y283000D01*
X789000Y260000D01*
D24*
X762650Y286350D02*
X750150Y286350D01*
X762650Y286350D02*
X766000Y283000D01*
X789000Y283000D01*
D23*
X480000Y286000D02*
X479697Y286303D01*
D22*
X480000Y286000D03*
D23*
X633034Y273509D02*
X645491Y273509D01*
X646000Y273000D01*
D22*
X646000Y273000D03*
D23*
X549800Y251200D02*
X549800Y314804D01*
X549800Y251200D02*
X550000Y251000D01*
X472000Y286000D02*
X471697Y286303D01*
X381400Y241600D02*
X381400Y225100D01*
X381400Y241600D02*
X374000Y249000D01*
X479697Y286303D02*
X480000Y286000D01*
X479697Y286303D02*
X467011Y286303D01*
X471697Y286303D01*
X471697Y286303D01*
X549800Y250796D02*
X570596Y230000D01*
X575000Y230000D01*
X586000Y286000D02*
X597000Y297000D01*
X586000Y286000D02*
X576000Y286000D01*
D22*
X576000Y286000D03*
D23*
X549800Y312200D02*
X549800Y314804D01*
X549800Y312200D02*
X576000Y286000D01*
X549800Y251200D02*
X549800Y250796D01*
X507000Y292000D02*
X502000Y297000D01*
X507000Y292000D02*
X513000Y292000D01*
D22*
X513000Y292000D03*
D23*
X524400Y208000D02*
X524400Y187400D01*
X540000Y147000D02*
X534000Y141000D01*
X509000Y141900D01*
X611000Y142700D02*
X611000Y156000D01*
D22*
X611000Y156000D03*
D23*
X509000Y154000D02*
X509000Y141900D01*
X509000Y154000D02*
X510000Y155000D01*
D22*
X510000Y155000D03*
X524400Y187400D03*
D23*
X789000Y294000D02*
X789000Y306000D01*
D22*
X789000Y306000D03*
X503000Y281900D03*
X362000Y304000D03*
D24*
X326000Y304000D01*
X310000Y320000D01*
D22*
X503000Y253000D03*
D24*
X503000Y281900D01*
X395850Y286850D02*
X390850Y286850D01*
X395850Y286850D02*
X408097Y299097D01*
D23*
X413033Y299097D02*
X458000Y299097D01*
X458094Y299003D01*
X467033Y299003D01*
D24*
X413033Y299097D02*
X408097Y299097D01*
X413033Y299097D02*
X413033Y299097D01*
D25*
X467033Y299003D02*
X467033Y299003D01*
D24*
X397150Y273850D02*
X390850Y273850D01*
X410003Y260997D02*
X412967Y260997D01*
X410003Y260997D02*
X397150Y273850D01*
D23*
X412967Y260997D02*
X426553Y260997D01*
X426590Y260960D01*
D22*
X426590Y260960D03*
X452740Y260670D03*
D23*
X466734Y260670D01*
X466967Y260903D01*
X412967Y260997D02*
X412967Y260997D01*
X484000Y266000D02*
X484000Y241000D01*
X498163Y226837D01*
X484000Y266000D02*
X476397Y273603D01*
X466989Y273603D01*
X498163Y226837D02*
X498163Y206208D01*
X421603Y286397D02*
X413011Y286397D01*
X418000Y222000D02*
X418000Y212000D01*
X421000Y209000D01*
X461000Y181000D01*
X483850Y185225D01*
X440000Y268000D02*
X421603Y286397D01*
X440000Y268000D02*
X440000Y244000D01*
X418000Y222000D01*
X413011Y286397D02*
X413011Y286397D01*
D25*
X483850Y185225D02*
X483850Y185225D01*
D24*
X704850Y279850D02*
X710650Y279850D01*
X704850Y279850D02*
X701000Y276000D01*
X701000Y264000D01*
X698092Y261092D02*
X687099Y261092D01*
X698092Y261092D02*
X701000Y264000D01*
D23*
X687099Y261092D02*
X674092Y261092D01*
X674000Y261000D01*
D22*
X674000Y261000D03*
X646000Y261000D03*
D23*
X633291Y261000D01*
X633100Y260809D01*
D24*
X700150Y292850D02*
X710650Y292850D01*
X693809Y299191D02*
X686900Y299191D01*
X693809Y299191D02*
X700150Y292850D01*
D23*
X686617Y298908D02*
X632901Y298908D01*
X686617Y298908D02*
X686900Y299191D01*
X632967Y286209D02*
X622209Y286209D01*
X615000Y279000D01*
X615000Y235000D01*
X601901Y221901D02*
X601901Y206101D01*
X601901Y221901D02*
X615000Y235000D01*
X601901Y206101D02*
X601901Y206101D01*
X668000Y227000D02*
X678000Y213000D01*
X677000Y207000D01*
X641000Y182000D01*
X660000Y263000D02*
X670791Y273791D01*
X687033Y273791D01*
X663000Y232000D02*
X668000Y227000D01*
X663000Y232000D02*
X663000Y239000D01*
X660000Y242000D01*
X660000Y263000D01*
X641000Y182000D02*
X619457Y182000D01*
X616288Y185169D01*
X616288Y185169D01*
D24*
X400650Y280350D02*
X390850Y280350D01*
X407303Y273697D02*
X412989Y273697D01*
X407303Y273697D02*
X400650Y280350D01*
D25*
X351350Y286850D02*
X338150Y286850D01*
X335000Y290000D01*
X329000Y290000D01*
X351350Y286850D02*
X355850Y286850D01*
X370000Y301000D02*
X370000Y320000D01*
X370000Y301000D02*
X355850Y286850D01*
X342950Y273850D02*
X329000Y259900D01*
X342950Y273850D02*
X351350Y273850D01*
X357850Y273850D01*
X390000Y306000D02*
X390000Y320000D01*
X390000Y306000D02*
X357850Y273850D01*
X771000Y269000D02*
X771000Y260000D01*
X760150Y279850D02*
X750150Y279850D01*
X760150Y279850D02*
X771000Y269000D01*
X750150Y279850D02*
X744150Y279850D01*
X710000Y314000D02*
X710000Y320000D01*
X710000Y314000D02*
X744150Y279850D01*
X744150Y292850D02*
X750150Y292850D01*
X730000Y307000D02*
X730000Y320000D01*
X730000Y307000D02*
X744150Y292850D01*
X750150Y292850D02*
X769850Y292850D01*
X771000Y294000D01*
X557800Y208000D02*
X542400Y208000D01*
X592000Y225000D02*
X608000Y241000D01*
X608000Y249916D01*
X607916Y250000D01*
D22*
X607916Y250000D03*
D25*
X592000Y219000D02*
X586000Y213000D01*
X592000Y219000D02*
X592000Y225000D01*
X557800Y208000D02*
X557800Y198200D01*
X563000Y193000D01*
X579000Y193000D01*
X586000Y200000D01*
X586000Y213000D01*
D24*
X423000Y307000D02*
X410000Y320000D01*
X423000Y307000D02*
X477000Y307000D01*
X492500Y247500D02*
X510000Y230000D01*
X525000Y230000D01*
X492500Y247500D02*
X492500Y291500D01*
X477000Y307000D01*
M02*
