G04 EAGLE Gerber X2 export*
G04 #@! %TF.Part,Single*
G04 #@! %TF.FileFunction,Copper,L2,Bot,Mixed*
G04 #@! %TF.FilePolarity,Positive*
G04 #@! %TF.GenerationSoftware,Autodesk,EAGLE,8.6.0*
G04 #@! %TF.CreationDate,2018-03-03T07:31:49Z*
G75*
%MOMM*%
%FSLAX34Y34*%
%LPD*%
%AMOC8*
5,1,8,0,0,1.08239X$1,22.5*%
G01*
%ADD10C,1.422400*%
%ADD11P,1.649562X8X168.200000*%
%ADD12P,1.649562X8X57.000000*%
%ADD13P,2.089446X8X22.500000*%
%ADD14P,1.814519X8X22.500000*%
%ADD15C,0.604000*%
%ADD16C,0.508000*%
%ADD17C,0.304800*%
%ADD18C,0.254000*%

G36*
X534705Y135092D02*
X534705Y135092D01*
X534777Y135094D01*
X534826Y135112D01*
X534877Y135120D01*
X534940Y135154D01*
X535008Y135179D01*
X535048Y135211D01*
X535095Y135236D01*
X535144Y135288D01*
X535200Y135332D01*
X535228Y135376D01*
X535264Y135414D01*
X535294Y135479D01*
X535333Y135539D01*
X535346Y135590D01*
X535368Y135637D01*
X535375Y135708D01*
X535393Y135778D01*
X535389Y135830D01*
X535395Y135881D01*
X535379Y135952D01*
X535374Y136023D01*
X535353Y136071D01*
X535342Y136122D01*
X535306Y136183D01*
X535277Y136249D01*
X535233Y136305D01*
X535216Y136333D01*
X535198Y136348D01*
X535173Y136380D01*
X529077Y142476D01*
X529077Y145477D01*
X539238Y145477D01*
X539258Y145480D01*
X539277Y145478D01*
X539379Y145500D01*
X539481Y145517D01*
X539498Y145526D01*
X539518Y145530D01*
X539607Y145583D01*
X539698Y145632D01*
X539712Y145646D01*
X539729Y145656D01*
X539796Y145735D01*
X539867Y145810D01*
X539876Y145828D01*
X539889Y145843D01*
X539927Y145939D01*
X539971Y146033D01*
X539973Y146053D01*
X539981Y146071D01*
X539999Y146238D01*
X539999Y147001D01*
X540762Y147001D01*
X540782Y147004D01*
X540801Y147002D01*
X540903Y147024D01*
X541005Y147041D01*
X541022Y147050D01*
X541042Y147054D01*
X541131Y147107D01*
X541222Y147156D01*
X541236Y147170D01*
X541253Y147180D01*
X541320Y147259D01*
X541391Y147334D01*
X541400Y147352D01*
X541413Y147367D01*
X541452Y147463D01*
X541495Y147557D01*
X541497Y147577D01*
X541505Y147595D01*
X541523Y147762D01*
X541523Y157923D01*
X544524Y157923D01*
X549103Y153345D01*
X549119Y153333D01*
X549131Y153317D01*
X549218Y153261D01*
X549302Y153201D01*
X549321Y153195D01*
X549338Y153184D01*
X549439Y153159D01*
X549537Y153129D01*
X549557Y153129D01*
X549577Y153124D01*
X549680Y153132D01*
X549783Y153135D01*
X549802Y153142D01*
X549822Y153143D01*
X549917Y153184D01*
X550014Y153219D01*
X550030Y153232D01*
X550048Y153240D01*
X550179Y153345D01*
X555265Y158431D01*
X564735Y158431D01*
X571431Y151735D01*
X571431Y142265D01*
X565546Y136380D01*
X565504Y136322D01*
X565455Y136270D01*
X565433Y136223D01*
X565402Y136181D01*
X565381Y136112D01*
X565351Y136047D01*
X565345Y135995D01*
X565330Y135945D01*
X565332Y135874D01*
X565324Y135803D01*
X565335Y135752D01*
X565336Y135700D01*
X565361Y135632D01*
X565376Y135562D01*
X565403Y135517D01*
X565421Y135469D01*
X565466Y135413D01*
X565502Y135351D01*
X565542Y135317D01*
X565574Y135277D01*
X565635Y135238D01*
X565689Y135191D01*
X565737Y135172D01*
X565781Y135144D01*
X565851Y135126D01*
X565917Y135099D01*
X565989Y135091D01*
X566020Y135083D01*
X566043Y135085D01*
X566084Y135081D01*
X615439Y135081D01*
X615488Y135089D01*
X615538Y135087D01*
X615609Y135109D01*
X615681Y135120D01*
X615726Y135144D01*
X615774Y135159D01*
X615834Y135201D01*
X615899Y135236D01*
X615933Y135272D01*
X615974Y135301D01*
X616018Y135361D01*
X616068Y135414D01*
X616089Y135459D01*
X616119Y135500D01*
X616161Y135614D01*
X616172Y135637D01*
X616173Y135645D01*
X616177Y135657D01*
X620037Y151098D01*
X620038Y151112D01*
X620045Y151133D01*
X620438Y153098D01*
X620445Y153108D01*
X620482Y153142D01*
X620517Y153207D01*
X620554Y153258D01*
X622267Y154285D01*
X622278Y154294D01*
X622298Y154305D01*
X696700Y203907D01*
X696717Y203922D01*
X696816Y204002D01*
X697895Y205081D01*
X698231Y205081D01*
X698247Y205083D01*
X698264Y205081D01*
X698369Y205103D01*
X698474Y205120D01*
X698488Y205128D01*
X698505Y205131D01*
X698653Y205209D01*
X698933Y205395D01*
X700429Y205096D01*
X700452Y205095D01*
X700578Y205081D01*
X790000Y205081D01*
X790026Y205085D01*
X790075Y205084D01*
X790886Y205164D01*
X790913Y205172D01*
X790941Y205172D01*
X791102Y205219D01*
X792601Y205839D01*
X792657Y205874D01*
X792717Y205900D01*
X792782Y205951D01*
X792810Y205969D01*
X792823Y205984D01*
X792848Y206004D01*
X793996Y207152D01*
X794034Y207205D01*
X794080Y207252D01*
X794120Y207325D01*
X794139Y207351D01*
X794145Y207370D01*
X794161Y207399D01*
X794781Y208898D01*
X794788Y208925D01*
X794801Y208950D01*
X794836Y209114D01*
X794916Y209925D01*
X794914Y209952D01*
X794919Y210000D01*
X794919Y292105D01*
X799696Y296882D01*
X799749Y296956D01*
X799809Y297025D01*
X799821Y297055D01*
X799840Y297081D01*
X799867Y297168D01*
X799901Y297253D01*
X799905Y297294D01*
X799912Y297316D01*
X799911Y297349D01*
X799919Y297420D01*
X799919Y325000D01*
X799915Y325026D01*
X799916Y325075D01*
X799836Y325886D01*
X799828Y325913D01*
X799828Y325941D01*
X799781Y326102D01*
X799161Y327601D01*
X799126Y327657D01*
X799100Y327717D01*
X799049Y327782D01*
X799031Y327810D01*
X799016Y327823D01*
X798996Y327848D01*
X797848Y328996D01*
X797795Y329034D01*
X797748Y329080D01*
X797742Y329083D01*
X797738Y329087D01*
X797721Y329095D01*
X797675Y329120D01*
X797649Y329139D01*
X797630Y329145D01*
X797601Y329161D01*
X796103Y329781D01*
X796075Y329788D01*
X796050Y329801D01*
X795886Y329836D01*
X795075Y329916D01*
X795048Y329914D01*
X795000Y329919D01*
X776288Y329919D01*
X776217Y329908D01*
X776146Y329906D01*
X776097Y329888D01*
X776045Y329880D01*
X775982Y329846D01*
X775915Y329821D01*
X775874Y329789D01*
X775828Y329764D01*
X775779Y329712D01*
X775723Y329668D01*
X775694Y329624D01*
X775658Y329586D01*
X775628Y329521D01*
X775590Y329461D01*
X775577Y329410D01*
X775555Y329363D01*
X775547Y329292D01*
X775529Y329222D01*
X775534Y329170D01*
X775528Y329119D01*
X775543Y329048D01*
X775549Y328977D01*
X775569Y328929D01*
X775580Y328878D01*
X775617Y328817D01*
X775645Y328751D01*
X775690Y328695D01*
X775706Y328667D01*
X775724Y328652D01*
X775750Y328620D01*
X778614Y325756D01*
X780161Y322021D01*
X780161Y317979D01*
X778614Y314244D01*
X775756Y311386D01*
X772021Y309839D01*
X767979Y309839D01*
X767012Y310240D01*
X766898Y310266D01*
X766785Y310295D01*
X766779Y310295D01*
X766772Y310296D01*
X766656Y310285D01*
X766540Y310276D01*
X766534Y310273D01*
X766528Y310273D01*
X766420Y310225D01*
X766313Y310180D01*
X766307Y310175D01*
X766303Y310173D01*
X766289Y310160D01*
X766182Y310075D01*
X668933Y212826D01*
X668921Y212808D01*
X668904Y212794D01*
X668849Y212708D01*
X668790Y212626D01*
X668783Y212605D01*
X668772Y212587D01*
X668723Y212426D01*
X667838Y207653D01*
X660555Y202647D01*
X651864Y204257D01*
X646858Y211541D01*
X648469Y220231D01*
X655753Y225237D01*
X664443Y223627D01*
X665178Y222558D01*
X665239Y222494D01*
X665295Y222424D01*
X665324Y222405D01*
X665348Y222380D01*
X665427Y222339D01*
X665502Y222291D01*
X665535Y222282D01*
X665566Y222266D01*
X665654Y222252D01*
X665741Y222231D01*
X665775Y222233D01*
X665809Y222228D01*
X665897Y222243D01*
X665986Y222250D01*
X666017Y222263D01*
X666051Y222269D01*
X666130Y222311D01*
X666212Y222346D01*
X666246Y222373D01*
X666268Y222385D01*
X666290Y222408D01*
X666343Y222451D01*
X752432Y308540D01*
X752474Y308598D01*
X752523Y308650D01*
X752545Y308697D01*
X752576Y308739D01*
X752597Y308808D01*
X752627Y308873D01*
X752633Y308925D01*
X752648Y308975D01*
X752646Y309046D01*
X752654Y309117D01*
X752643Y309168D01*
X752642Y309220D01*
X752617Y309288D01*
X752602Y309358D01*
X752575Y309402D01*
X752557Y309451D01*
X752512Y309507D01*
X752476Y309569D01*
X752436Y309603D01*
X752404Y309643D01*
X752343Y309682D01*
X752289Y309729D01*
X752240Y309748D01*
X752197Y309776D01*
X752127Y309794D01*
X752061Y309821D01*
X751989Y309829D01*
X751958Y309837D01*
X751935Y309835D01*
X751894Y309839D01*
X747979Y309839D01*
X747012Y310240D01*
X746898Y310266D01*
X746785Y310295D01*
X746779Y310295D01*
X746772Y310296D01*
X746656Y310285D01*
X746540Y310276D01*
X746534Y310273D01*
X746528Y310273D01*
X746420Y310225D01*
X746313Y310180D01*
X746307Y310175D01*
X746303Y310173D01*
X746289Y310160D01*
X746182Y310075D01*
X669417Y233309D01*
X666664Y230556D01*
X654450Y230556D01*
X654377Y230544D01*
X654304Y230542D01*
X654257Y230524D01*
X654207Y230516D01*
X654142Y230482D01*
X654073Y230456D01*
X654034Y230425D01*
X653990Y230401D01*
X653939Y230348D01*
X653882Y230302D01*
X653855Y230259D01*
X653820Y230223D01*
X653789Y230156D01*
X653750Y230094D01*
X653730Y230029D01*
X653717Y230000D01*
X653714Y229976D01*
X653701Y229934D01*
X653452Y228586D01*
X646168Y223579D01*
X637478Y225190D01*
X632472Y232474D01*
X634082Y241164D01*
X641366Y246170D01*
X650056Y244560D01*
X653517Y239524D01*
X653544Y239496D01*
X653563Y239464D01*
X653628Y239408D01*
X653688Y239346D01*
X653721Y239329D01*
X653750Y239304D01*
X653830Y239272D01*
X653906Y239232D01*
X653943Y239226D01*
X653978Y239212D01*
X654145Y239194D01*
X662771Y239194D01*
X662861Y239208D01*
X662952Y239215D01*
X662981Y239228D01*
X663013Y239233D01*
X663094Y239276D01*
X663178Y239312D01*
X663210Y239337D01*
X663231Y239348D01*
X663253Y239372D01*
X663309Y239417D01*
X732432Y308540D01*
X732474Y308598D01*
X732523Y308650D01*
X732545Y308697D01*
X732576Y308739D01*
X732597Y308808D01*
X732627Y308873D01*
X732633Y308925D01*
X732648Y308975D01*
X732646Y309046D01*
X732654Y309117D01*
X732643Y309168D01*
X732642Y309220D01*
X732617Y309288D01*
X732602Y309358D01*
X732575Y309403D01*
X732557Y309451D01*
X732512Y309507D01*
X732476Y309569D01*
X732436Y309603D01*
X732404Y309643D01*
X732343Y309682D01*
X732289Y309729D01*
X732240Y309748D01*
X732197Y309776D01*
X732127Y309794D01*
X732061Y309821D01*
X731989Y309829D01*
X731958Y309837D01*
X731935Y309835D01*
X731894Y309839D01*
X727979Y309839D01*
X724244Y311386D01*
X721386Y314244D01*
X720703Y315893D01*
X720665Y315954D01*
X720636Y316019D01*
X720601Y316058D01*
X720574Y316102D01*
X720518Y316148D01*
X720470Y316201D01*
X720424Y316226D01*
X720384Y316259D01*
X720317Y316285D01*
X720254Y316319D01*
X720203Y316328D01*
X720155Y316347D01*
X720083Y316350D01*
X720012Y316363D01*
X719961Y316355D01*
X719909Y316357D01*
X719840Y316337D01*
X719769Y316327D01*
X719723Y316303D01*
X719673Y316289D01*
X719614Y316248D01*
X719550Y316216D01*
X719513Y316178D01*
X719471Y316149D01*
X719428Y316091D01*
X719378Y316040D01*
X719343Y315977D01*
X719324Y315951D01*
X719317Y315929D01*
X719297Y315893D01*
X718614Y314244D01*
X715756Y311386D01*
X712021Y309839D01*
X707979Y309839D01*
X704244Y311386D01*
X701386Y314244D01*
X700703Y315893D01*
X700665Y315954D01*
X700636Y316019D01*
X700601Y316058D01*
X700574Y316102D01*
X700518Y316148D01*
X700470Y316201D01*
X700424Y316226D01*
X700384Y316259D01*
X700317Y316285D01*
X700254Y316319D01*
X700203Y316328D01*
X700155Y316347D01*
X700083Y316350D01*
X700012Y316363D01*
X699961Y316355D01*
X699909Y316357D01*
X699840Y316337D01*
X699769Y316327D01*
X699723Y316303D01*
X699673Y316289D01*
X699614Y316248D01*
X699550Y316216D01*
X699513Y316178D01*
X699471Y316149D01*
X699428Y316091D01*
X699378Y316040D01*
X699343Y315977D01*
X699324Y315951D01*
X699317Y315929D01*
X699297Y315893D01*
X698614Y314244D01*
X695756Y311386D01*
X692021Y309839D01*
X687979Y309839D01*
X687012Y310240D01*
X686898Y310266D01*
X686785Y310295D01*
X686779Y310295D01*
X686772Y310296D01*
X686656Y310285D01*
X686540Y310276D01*
X686534Y310273D01*
X686528Y310273D01*
X686420Y310225D01*
X686313Y310180D01*
X686307Y310175D01*
X686303Y310173D01*
X686289Y310160D01*
X686182Y310075D01*
X679789Y303681D01*
X628104Y303681D01*
X628014Y303667D01*
X627923Y303659D01*
X627893Y303647D01*
X627861Y303642D01*
X627781Y303599D01*
X627697Y303563D01*
X627665Y303537D01*
X627644Y303526D01*
X627622Y303503D01*
X627566Y303458D01*
X622542Y298434D01*
X622489Y298360D01*
X622429Y298291D01*
X622417Y298261D01*
X622398Y298234D01*
X622371Y298147D01*
X622337Y298063D01*
X622333Y298022D01*
X622326Y297999D01*
X622327Y297967D01*
X622319Y297896D01*
X622319Y292211D01*
X612458Y282350D01*
X612405Y282276D01*
X612345Y282207D01*
X612333Y282177D01*
X612314Y282150D01*
X612287Y282063D01*
X612253Y281979D01*
X612249Y281938D01*
X612242Y281915D01*
X612243Y281883D01*
X612235Y281812D01*
X612235Y254579D01*
X612237Y254567D01*
X612236Y254558D01*
X612246Y254511D01*
X612250Y254489D01*
X612257Y254398D01*
X612269Y254368D01*
X612274Y254336D01*
X612317Y254256D01*
X612353Y254172D01*
X612379Y254140D01*
X612390Y254119D01*
X612413Y254097D01*
X612458Y254041D01*
X613061Y253438D01*
X613985Y251207D01*
X613985Y248793D01*
X613061Y246562D01*
X611354Y244855D01*
X609123Y243931D01*
X607696Y243931D01*
X607625Y243920D01*
X607553Y243918D01*
X607504Y243900D01*
X607453Y243892D01*
X607390Y243858D01*
X607322Y243833D01*
X607281Y243801D01*
X607235Y243776D01*
X607186Y243725D01*
X607130Y243680D01*
X607102Y243636D01*
X607066Y243598D01*
X607036Y243533D01*
X606997Y243473D01*
X606984Y243422D01*
X606962Y243375D01*
X606955Y243304D01*
X606937Y243234D01*
X606941Y243182D01*
X606935Y243131D01*
X606951Y243060D01*
X606956Y242989D01*
X606977Y242941D01*
X606988Y242890D01*
X607024Y242829D01*
X607052Y242763D01*
X607097Y242707D01*
X607114Y242679D01*
X607132Y242664D01*
X607157Y242632D01*
X618547Y231242D01*
X618606Y231199D01*
X618660Y231149D01*
X618706Y231128D01*
X618746Y231099D01*
X618817Y231077D01*
X618884Y231046D01*
X618934Y231041D01*
X618982Y231026D01*
X619055Y231028D01*
X619128Y231021D01*
X619177Y231031D01*
X619227Y231033D01*
X619297Y231058D01*
X619368Y231074D01*
X619428Y231106D01*
X619458Y231117D01*
X619478Y231133D01*
X619516Y231153D01*
X620433Y231784D01*
X629123Y230173D01*
X634129Y222889D01*
X632519Y214199D01*
X625235Y209193D01*
X616545Y210803D01*
X611539Y218087D01*
X612596Y223792D01*
X612597Y223830D01*
X612606Y223867D01*
X612599Y223953D01*
X612601Y224038D01*
X612590Y224075D01*
X612587Y224112D01*
X612553Y224191D01*
X612528Y224273D01*
X612506Y224304D01*
X612491Y224339D01*
X612386Y224469D01*
X559751Y277104D01*
X559677Y277157D01*
X559608Y277217D01*
X559578Y277229D01*
X559551Y277248D01*
X559464Y277275D01*
X559380Y277309D01*
X559339Y277313D01*
X559316Y277320D01*
X559284Y277319D01*
X559213Y277327D01*
X507325Y277327D01*
X507235Y277313D01*
X507144Y277305D01*
X507114Y277293D01*
X507082Y277288D01*
X507002Y277245D01*
X506918Y277209D01*
X506886Y277183D01*
X506865Y277172D01*
X506843Y277149D01*
X506787Y277104D01*
X506438Y276755D01*
X504207Y275831D01*
X501793Y275831D01*
X499562Y276755D01*
X499213Y277104D01*
X499139Y277157D01*
X499070Y277217D01*
X499040Y277229D01*
X499013Y277248D01*
X498927Y277275D01*
X498842Y277309D01*
X498801Y277313D01*
X498778Y277320D01*
X498746Y277319D01*
X498675Y277327D01*
X494206Y277327D01*
X483329Y288204D01*
X483255Y288257D01*
X483185Y288317D01*
X483155Y288329D01*
X483129Y288348D01*
X483042Y288375D01*
X482957Y288409D01*
X482916Y288413D01*
X482894Y288420D01*
X482862Y288419D01*
X482791Y288427D01*
X405106Y288427D01*
X394329Y299204D01*
X394255Y299257D01*
X394185Y299317D01*
X394155Y299329D01*
X394129Y299348D01*
X394042Y299375D01*
X393957Y299409D01*
X393916Y299413D01*
X393894Y299420D01*
X393862Y299419D01*
X393791Y299427D01*
X366325Y299427D01*
X366235Y299413D01*
X366144Y299405D01*
X366114Y299393D01*
X366082Y299388D01*
X366002Y299345D01*
X365918Y299309D01*
X365886Y299283D01*
X365865Y299272D01*
X365843Y299249D01*
X365787Y299204D01*
X365438Y298855D01*
X363207Y297931D01*
X361373Y297931D01*
X361303Y297920D01*
X361231Y297918D01*
X361182Y297900D01*
X361131Y297892D01*
X361067Y297858D01*
X361000Y297833D01*
X360959Y297801D01*
X360913Y297776D01*
X360864Y297724D01*
X360808Y297680D01*
X360780Y297636D01*
X360744Y297598D01*
X360714Y297533D01*
X360675Y297473D01*
X360662Y297422D01*
X360640Y297375D01*
X360632Y297304D01*
X360615Y297234D01*
X360619Y297182D01*
X360613Y297131D01*
X360628Y297060D01*
X360634Y296989D01*
X360654Y296941D01*
X360665Y296890D01*
X360702Y296829D01*
X360730Y296763D01*
X360775Y296707D01*
X360792Y296679D01*
X360809Y296664D01*
X360835Y296632D01*
X400671Y256796D01*
X400745Y256743D01*
X400815Y256683D01*
X400845Y256671D01*
X400871Y256652D01*
X400958Y256625D01*
X401043Y256591D01*
X401084Y256587D01*
X401106Y256580D01*
X401138Y256581D01*
X401209Y256573D01*
X408894Y256573D01*
X425836Y239631D01*
X425910Y239578D01*
X425980Y239518D01*
X426010Y239506D01*
X426036Y239487D01*
X426123Y239460D01*
X426208Y239426D01*
X426249Y239422D01*
X426271Y239415D01*
X426303Y239416D01*
X426374Y239408D01*
X446000Y239408D01*
X446039Y239414D01*
X446078Y239412D01*
X446159Y239434D01*
X446243Y239448D01*
X446277Y239466D01*
X446315Y239476D01*
X446386Y239523D01*
X446460Y239563D01*
X446487Y239591D01*
X446520Y239613D01*
X446629Y239740D01*
X447124Y240466D01*
X447124Y240467D01*
X447644Y241228D01*
X448163Y241989D01*
X449201Y243511D01*
X449202Y243511D01*
X449202Y243512D01*
X449721Y244273D01*
X449874Y244498D01*
X458559Y246139D01*
X465860Y241158D01*
X467501Y232474D01*
X462521Y225172D01*
X453836Y223531D01*
X446535Y228512D01*
X446321Y229642D01*
X446296Y229710D01*
X446281Y229781D01*
X446255Y229825D01*
X446237Y229874D01*
X446192Y229930D01*
X446155Y229992D01*
X446116Y230026D01*
X446084Y230066D01*
X446023Y230105D01*
X445968Y230152D01*
X445920Y230171D01*
X445877Y230199D01*
X445807Y230217D01*
X445740Y230244D01*
X445670Y230252D01*
X445639Y230259D01*
X445615Y230258D01*
X445573Y230262D01*
X423042Y230262D01*
X422972Y230251D01*
X422900Y230249D01*
X422851Y230231D01*
X422800Y230223D01*
X422736Y230189D01*
X422669Y230164D01*
X422628Y230132D01*
X422582Y230107D01*
X422533Y230056D01*
X422477Y230011D01*
X422449Y229967D01*
X422413Y229929D01*
X422383Y229864D01*
X422344Y229804D01*
X422331Y229753D01*
X422309Y229706D01*
X422301Y229635D01*
X422284Y229565D01*
X422288Y229513D01*
X422282Y229462D01*
X422297Y229391D01*
X422303Y229320D01*
X422323Y229272D01*
X422334Y229221D01*
X422371Y229160D01*
X422399Y229094D01*
X422444Y229038D01*
X422461Y229010D01*
X422478Y228995D01*
X422484Y228988D01*
X422486Y228985D01*
X422488Y228983D01*
X422504Y228963D01*
X431826Y219641D01*
X431899Y219588D01*
X431968Y219529D01*
X431999Y219517D01*
X432025Y219498D01*
X432112Y219471D01*
X432196Y219437D01*
X432229Y219435D01*
X432261Y219425D01*
X432351Y219428D01*
X432442Y219422D01*
X432474Y219431D01*
X432506Y219432D01*
X432592Y219463D01*
X432679Y219486D01*
X432706Y219505D01*
X432737Y219516D01*
X432808Y219573D01*
X432884Y219623D01*
X432911Y219655D01*
X432929Y219670D01*
X432947Y219697D01*
X432993Y219750D01*
X433104Y219913D01*
X434661Y222196D01*
X434662Y222197D01*
X435181Y222958D01*
X435561Y223515D01*
X444245Y225156D01*
X451547Y220175D01*
X453188Y211491D01*
X448207Y204189D01*
X439522Y202548D01*
X432221Y207529D01*
X432008Y208659D01*
X431983Y208727D01*
X431968Y208798D01*
X431941Y208842D01*
X431924Y208891D01*
X431878Y208947D01*
X431841Y209009D01*
X431802Y209043D01*
X431770Y209083D01*
X431709Y209122D01*
X431654Y209169D01*
X431607Y209188D01*
X431563Y209216D01*
X431493Y209234D01*
X431426Y209261D01*
X431356Y209269D01*
X431325Y209277D01*
X431301Y209275D01*
X431260Y209279D01*
X429254Y209279D01*
X398329Y240204D01*
X398255Y240257D01*
X398185Y240317D01*
X398155Y240329D01*
X398129Y240348D01*
X398042Y240375D01*
X397957Y240409D01*
X397916Y240413D01*
X397894Y240420D01*
X397862Y240419D01*
X397791Y240427D01*
X392106Y240427D01*
X325427Y307106D01*
X325427Y310388D01*
X325409Y310501D01*
X325391Y310618D01*
X325389Y310624D01*
X325388Y310630D01*
X325333Y310733D01*
X325280Y310838D01*
X325275Y310842D01*
X325272Y310848D01*
X325188Y310928D01*
X325104Y311010D01*
X325098Y311014D01*
X325094Y311017D01*
X325077Y311025D01*
X324957Y311091D01*
X324244Y311386D01*
X321386Y314244D01*
X320703Y315893D01*
X320666Y315954D01*
X320636Y316019D01*
X320601Y316058D01*
X320574Y316102D01*
X320518Y316148D01*
X320470Y316201D01*
X320424Y316226D01*
X320384Y316259D01*
X320317Y316285D01*
X320254Y316319D01*
X320203Y316328D01*
X320155Y316347D01*
X320083Y316350D01*
X320012Y316363D01*
X319961Y316355D01*
X319909Y316357D01*
X319840Y316337D01*
X319769Y316327D01*
X319723Y316303D01*
X319673Y316289D01*
X319614Y316248D01*
X319550Y316216D01*
X319513Y316178D01*
X319471Y316149D01*
X319428Y316091D01*
X319378Y316040D01*
X319343Y315977D01*
X319324Y315951D01*
X319317Y315929D01*
X319297Y315893D01*
X318614Y314244D01*
X315756Y311386D01*
X312021Y309839D01*
X307979Y309839D01*
X304244Y311386D01*
X301380Y314250D01*
X301322Y314292D01*
X301270Y314342D01*
X301223Y314363D01*
X301181Y314394D01*
X301112Y314415D01*
X301047Y314445D01*
X300995Y314451D01*
X300945Y314466D01*
X300874Y314464D01*
X300803Y314472D01*
X300752Y314461D01*
X300700Y314460D01*
X300632Y314435D01*
X300562Y314420D01*
X300517Y314393D01*
X300469Y314375D01*
X300413Y314331D01*
X300351Y314294D01*
X300317Y314254D01*
X300277Y314222D01*
X300238Y314161D01*
X300191Y314107D01*
X300172Y314059D01*
X300144Y314015D01*
X300126Y313945D01*
X300099Y313879D01*
X300091Y313807D01*
X300083Y313776D01*
X300085Y313753D01*
X300081Y313712D01*
X300081Y297420D01*
X300095Y297330D01*
X300103Y297239D01*
X300115Y297209D01*
X300120Y297177D01*
X300163Y297096D01*
X300199Y297013D01*
X300225Y296980D01*
X300236Y296960D01*
X300259Y296938D01*
X300304Y296882D01*
X305081Y292105D01*
X305081Y210000D01*
X305085Y209974D01*
X305084Y209925D01*
X305164Y209114D01*
X305172Y209087D01*
X305172Y209059D01*
X305219Y208898D01*
X305839Y207399D01*
X305874Y207343D01*
X305900Y207283D01*
X305951Y207218D01*
X305969Y207190D01*
X305984Y207177D01*
X306004Y207152D01*
X307152Y206004D01*
X307205Y205966D01*
X307252Y205920D01*
X307325Y205880D01*
X307351Y205861D01*
X307370Y205855D01*
X307399Y205839D01*
X308897Y205219D01*
X308925Y205212D01*
X308950Y205199D01*
X309114Y205164D01*
X309925Y205084D01*
X309952Y205086D01*
X310000Y205081D01*
X399421Y205081D01*
X399445Y205085D01*
X399571Y205096D01*
X401067Y205395D01*
X401347Y205209D01*
X401361Y205202D01*
X401374Y205191D01*
X401474Y205151D01*
X401571Y205107D01*
X401587Y205105D01*
X401602Y205099D01*
X401769Y205081D01*
X402105Y205081D01*
X403184Y204002D01*
X403202Y203988D01*
X403300Y203907D01*
X477703Y154305D01*
X477715Y154299D01*
X477733Y154285D01*
X479452Y153254D01*
X479459Y153244D01*
X479479Y153198D01*
X479528Y153143D01*
X479563Y153091D01*
X479955Y151133D01*
X479960Y151120D01*
X479963Y151097D01*
X483823Y135657D01*
X483843Y135611D01*
X483853Y135562D01*
X483891Y135499D01*
X483920Y135432D01*
X483954Y135394D01*
X483980Y135351D01*
X484035Y135303D01*
X484085Y135249D01*
X484128Y135224D01*
X484166Y135191D01*
X484235Y135164D01*
X484299Y135127D01*
X484348Y135118D01*
X484395Y135099D01*
X484515Y135086D01*
X484540Y135081D01*
X484549Y135082D01*
X484561Y135081D01*
X534634Y135081D01*
X534705Y135092D01*
G37*
G36*
X601176Y249030D02*
X601176Y249030D01*
X601228Y249032D01*
X601296Y249056D01*
X601366Y249072D01*
X601411Y249098D01*
X601459Y249116D01*
X601515Y249161D01*
X601577Y249198D01*
X601611Y249237D01*
X601651Y249270D01*
X601690Y249330D01*
X601737Y249385D01*
X601756Y249433D01*
X601784Y249477D01*
X601802Y249546D01*
X601829Y249613D01*
X601837Y249684D01*
X601845Y249715D01*
X601843Y249739D01*
X601847Y249780D01*
X601847Y251207D01*
X602771Y253438D01*
X603374Y254041D01*
X603427Y254115D01*
X603487Y254184D01*
X603499Y254214D01*
X603518Y254241D01*
X603545Y254327D01*
X603579Y254412D01*
X603583Y254453D01*
X603590Y254476D01*
X603589Y254508D01*
X603597Y254579D01*
X603597Y285705D01*
X613458Y295566D01*
X613511Y295640D01*
X613571Y295709D01*
X613583Y295739D01*
X613602Y295766D01*
X613629Y295853D01*
X613663Y295937D01*
X613667Y295978D01*
X613674Y296001D01*
X613673Y296033D01*
X613681Y296104D01*
X613681Y301789D01*
X624211Y312319D01*
X675896Y312319D01*
X675986Y312333D01*
X676077Y312341D01*
X676107Y312353D01*
X676139Y312358D01*
X676219Y312401D01*
X676303Y312437D01*
X676335Y312463D01*
X676356Y312474D01*
X676378Y312497D01*
X676434Y312542D01*
X680075Y316182D01*
X680143Y316277D01*
X680213Y316371D01*
X680215Y316377D01*
X680218Y316382D01*
X680253Y316493D01*
X680289Y316605D01*
X680289Y316611D01*
X680291Y316617D01*
X680288Y316734D01*
X680287Y316851D01*
X680284Y316858D01*
X680284Y316863D01*
X680278Y316880D01*
X680240Y317012D01*
X679839Y317979D01*
X679839Y322021D01*
X681386Y325756D01*
X684250Y328620D01*
X684292Y328678D01*
X684342Y328730D01*
X684363Y328777D01*
X684394Y328819D01*
X684415Y328888D01*
X684445Y328953D01*
X684451Y329005D01*
X684466Y329055D01*
X684464Y329126D01*
X684472Y329197D01*
X684461Y329248D01*
X684460Y329300D01*
X684435Y329368D01*
X684420Y329438D01*
X684393Y329483D01*
X684375Y329531D01*
X684331Y329587D01*
X684294Y329649D01*
X684254Y329683D01*
X684222Y329723D01*
X684161Y329762D01*
X684107Y329809D01*
X684059Y329828D01*
X684015Y329856D01*
X683945Y329874D01*
X683879Y329901D01*
X683807Y329909D01*
X683776Y329917D01*
X683753Y329915D01*
X683712Y329919D01*
X416288Y329919D01*
X416217Y329908D01*
X416146Y329906D01*
X416097Y329888D01*
X416045Y329880D01*
X415982Y329846D01*
X415915Y329821D01*
X415874Y329789D01*
X415828Y329764D01*
X415779Y329712D01*
X415723Y329668D01*
X415694Y329624D01*
X415658Y329586D01*
X415628Y329521D01*
X415590Y329461D01*
X415577Y329410D01*
X415555Y329363D01*
X415547Y329292D01*
X415529Y329222D01*
X415534Y329170D01*
X415528Y329119D01*
X415543Y329048D01*
X415549Y328977D01*
X415569Y328929D01*
X415580Y328878D01*
X415617Y328817D01*
X415645Y328751D01*
X415690Y328695D01*
X415706Y328667D01*
X415724Y328652D01*
X415750Y328620D01*
X418614Y325756D01*
X420161Y322021D01*
X420161Y317979D01*
X418614Y314244D01*
X415756Y311386D01*
X412021Y309839D01*
X407979Y309839D01*
X404244Y311386D01*
X401386Y314244D01*
X400703Y315893D01*
X400665Y315954D01*
X400636Y316019D01*
X400601Y316058D01*
X400574Y316102D01*
X400518Y316148D01*
X400470Y316201D01*
X400424Y316226D01*
X400384Y316259D01*
X400317Y316285D01*
X400254Y316319D01*
X400203Y316328D01*
X400155Y316347D01*
X400083Y316350D01*
X400012Y316363D01*
X399961Y316355D01*
X399909Y316357D01*
X399840Y316337D01*
X399769Y316327D01*
X399723Y316303D01*
X399673Y316289D01*
X399614Y316248D01*
X399550Y316216D01*
X399513Y316178D01*
X399471Y316149D01*
X399428Y316091D01*
X399378Y316040D01*
X399343Y315977D01*
X399324Y315951D01*
X399317Y315929D01*
X399297Y315893D01*
X398614Y314244D01*
X395756Y311386D01*
X392499Y310037D01*
X392416Y309986D01*
X392330Y309940D01*
X392312Y309921D01*
X392290Y309908D01*
X392228Y309833D01*
X392161Y309762D01*
X392150Y309738D01*
X392133Y309718D01*
X392098Y309627D01*
X392057Y309539D01*
X392054Y309513D01*
X392045Y309489D01*
X392041Y309391D01*
X392030Y309295D01*
X392036Y309269D01*
X392035Y309243D01*
X392062Y309149D01*
X392082Y309054D01*
X392096Y309032D01*
X392103Y309007D01*
X392159Y308927D01*
X392209Y308843D01*
X392228Y308826D01*
X392243Y308805D01*
X392322Y308746D01*
X392396Y308683D01*
X392420Y308673D01*
X392441Y308658D01*
X392533Y308628D01*
X392624Y308591D01*
X392656Y308588D01*
X392675Y308582D01*
X392708Y308582D01*
X392790Y308573D01*
X397894Y308573D01*
X408671Y297796D01*
X408745Y297743D01*
X408815Y297683D01*
X408845Y297671D01*
X408871Y297652D01*
X408958Y297625D01*
X409043Y297591D01*
X409084Y297587D01*
X409106Y297580D01*
X409138Y297581D01*
X409209Y297573D01*
X486894Y297573D01*
X497771Y286696D01*
X497845Y286643D01*
X497915Y286583D01*
X497945Y286571D01*
X497971Y286552D01*
X498058Y286525D01*
X498143Y286491D01*
X498184Y286487D01*
X498206Y286480D01*
X498238Y286481D01*
X498309Y286473D01*
X498675Y286473D01*
X498765Y286487D01*
X498856Y286495D01*
X498886Y286507D01*
X498918Y286512D01*
X498998Y286555D01*
X499082Y286591D01*
X499114Y286617D01*
X499135Y286628D01*
X499157Y286651D01*
X499213Y286696D01*
X499562Y287045D01*
X501793Y287969D01*
X504207Y287969D01*
X506438Y287045D01*
X506787Y286696D01*
X506861Y286643D01*
X506930Y286583D01*
X506960Y286571D01*
X506987Y286552D01*
X507073Y286525D01*
X507158Y286491D01*
X507199Y286487D01*
X507222Y286480D01*
X507254Y286481D01*
X507325Y286473D01*
X563316Y286473D01*
X566218Y283571D01*
X600548Y249241D01*
X600606Y249199D01*
X600658Y249150D01*
X600705Y249128D01*
X600747Y249098D01*
X600816Y249077D01*
X600881Y249046D01*
X600933Y249041D01*
X600983Y249025D01*
X601054Y249027D01*
X601125Y249019D01*
X601176Y249030D01*
G37*
%LPC*%
G36*
X481018Y162119D02*
X481018Y162119D01*
X479472Y163189D01*
X479463Y163193D01*
X479450Y163203D01*
X466845Y171306D01*
X466836Y171310D01*
X466828Y171317D01*
X466723Y171359D01*
X466619Y171404D01*
X466609Y171405D01*
X466600Y171409D01*
X466433Y171427D01*
X466106Y171427D01*
X465172Y172361D01*
X465164Y172367D01*
X465045Y172463D01*
X463934Y173178D01*
X463864Y173498D01*
X463861Y173507D01*
X463860Y173517D01*
X463816Y173621D01*
X463774Y173726D01*
X463768Y173734D01*
X463764Y173743D01*
X463659Y173874D01*
X461196Y176337D01*
X458294Y179239D01*
X458294Y189341D01*
X458288Y189380D01*
X458290Y189419D01*
X458268Y189501D01*
X458254Y189584D01*
X458236Y189618D01*
X458226Y189656D01*
X458179Y189727D01*
X458139Y189801D01*
X458111Y189828D01*
X458089Y189861D01*
X457962Y189970D01*
X453204Y193215D01*
X451563Y201900D01*
X456544Y209201D01*
X465228Y210842D01*
X472530Y205862D01*
X474171Y197177D01*
X469190Y189876D01*
X468059Y189662D01*
X467992Y189638D01*
X467921Y189622D01*
X467877Y189596D01*
X467828Y189578D01*
X467772Y189533D01*
X467710Y189496D01*
X467676Y189457D01*
X467636Y189425D01*
X467597Y189364D01*
X467550Y189309D01*
X467531Y189261D01*
X467503Y189218D01*
X467485Y189148D01*
X467458Y189081D01*
X467450Y189011D01*
X467442Y188980D01*
X467444Y188956D01*
X467440Y188914D01*
X467440Y183343D01*
X467454Y183253D01*
X467461Y183162D01*
X467474Y183132D01*
X467479Y183100D01*
X467522Y183019D01*
X467558Y182935D01*
X467583Y182903D01*
X467594Y182882D01*
X467618Y182860D01*
X467663Y182804D01*
X470828Y179639D01*
X470836Y179633D01*
X470955Y179537D01*
X473009Y178216D01*
X473066Y178191D01*
X473117Y178158D01*
X473178Y178143D01*
X473235Y178118D01*
X473296Y178113D01*
X473356Y178098D01*
X473418Y178102D01*
X473480Y178097D01*
X473540Y178112D01*
X473601Y178116D01*
X473658Y178141D01*
X473719Y178156D01*
X473771Y178189D01*
X473827Y178212D01*
X473874Y178254D01*
X473927Y178287D01*
X473965Y178335D01*
X474011Y178376D01*
X474042Y178430D01*
X474082Y178478D01*
X474103Y178536D01*
X474134Y178589D01*
X474146Y178650D01*
X474168Y178709D01*
X474170Y178770D01*
X474182Y178830D01*
X474175Y178922D01*
X474176Y178955D01*
X474171Y178971D01*
X474169Y178998D01*
X472546Y187586D01*
X477527Y194888D01*
X486211Y196529D01*
X493512Y191548D01*
X495159Y182835D01*
X495185Y182764D01*
X495201Y182690D01*
X495226Y182649D01*
X495243Y182604D01*
X495290Y182545D01*
X495330Y182480D01*
X495366Y182449D01*
X495396Y182411D01*
X495460Y182371D01*
X495518Y182322D01*
X495563Y182304D01*
X495603Y182278D01*
X495676Y182260D01*
X495747Y182232D01*
X495795Y182230D01*
X495842Y182218D01*
X495917Y182224D01*
X495993Y182220D01*
X496039Y182233D01*
X496087Y182237D01*
X496156Y182266D01*
X496229Y182287D01*
X496269Y182314D01*
X496313Y182333D01*
X496370Y182383D01*
X496432Y182425D01*
X496474Y182475D01*
X496497Y182496D01*
X496510Y182518D01*
X496540Y182554D01*
X505063Y195337D01*
X505091Y195399D01*
X505127Y195456D01*
X505141Y195510D01*
X505164Y195561D01*
X505171Y195629D01*
X505188Y195694D01*
X505183Y195750D01*
X505189Y195806D01*
X505174Y195872D01*
X505169Y195940D01*
X505147Y195991D01*
X505134Y196046D01*
X505099Y196104D01*
X505073Y196166D01*
X505036Y196208D01*
X505006Y196256D01*
X504955Y196299D01*
X504910Y196350D01*
X504861Y196378D01*
X504818Y196414D01*
X504755Y196439D01*
X504696Y196472D01*
X504641Y196483D01*
X504589Y196504D01*
X504521Y196507D01*
X504455Y196520D01*
X504376Y196514D01*
X504343Y196516D01*
X504323Y196510D01*
X504288Y196508D01*
X495802Y194904D01*
X488501Y199885D01*
X486860Y208569D01*
X490962Y214584D01*
X491840Y215871D01*
X500525Y217512D01*
X507826Y212531D01*
X508918Y206752D01*
X508936Y206702D01*
X508945Y206650D01*
X508978Y206588D01*
X509002Y206521D01*
X509035Y206479D01*
X509060Y206433D01*
X509111Y206384D01*
X509156Y206328D01*
X509200Y206300D01*
X509238Y206264D01*
X509302Y206234D01*
X509362Y206195D01*
X509413Y206182D01*
X509461Y206160D01*
X509532Y206152D01*
X509601Y206135D01*
X509653Y206139D01*
X509705Y206133D01*
X509775Y206148D01*
X509846Y206153D01*
X509894Y206174D01*
X509946Y206185D01*
X510007Y206222D01*
X510072Y206249D01*
X510112Y206284D01*
X510157Y206311D01*
X510203Y206365D01*
X510256Y206413D01*
X510283Y206458D01*
X510317Y206498D01*
X510343Y206564D01*
X510379Y206626D01*
X510389Y206678D01*
X510409Y206726D01*
X510421Y206840D01*
X510427Y206867D01*
X510426Y206880D01*
X510427Y206893D01*
X510427Y213791D01*
X510413Y213881D01*
X510405Y213972D01*
X510393Y214001D01*
X510388Y214033D01*
X510345Y214114D01*
X510309Y214198D01*
X510283Y214230D01*
X510272Y214251D01*
X510249Y214273D01*
X510204Y214329D01*
X498427Y226106D01*
X498427Y248675D01*
X498413Y248765D01*
X498405Y248856D01*
X498393Y248886D01*
X498388Y248918D01*
X498345Y248998D01*
X498309Y249082D01*
X498283Y249114D01*
X498272Y249135D01*
X498249Y249157D01*
X498204Y249213D01*
X497855Y249562D01*
X496931Y251793D01*
X496931Y254207D01*
X497855Y256438D01*
X499562Y258145D01*
X501793Y259069D01*
X504207Y259069D01*
X506438Y258145D01*
X508145Y256438D01*
X509069Y254207D01*
X509069Y251793D01*
X508145Y249562D01*
X507796Y249213D01*
X507743Y249139D01*
X507683Y249070D01*
X507671Y249040D01*
X507652Y249013D01*
X507625Y248927D01*
X507591Y248842D01*
X507587Y248801D01*
X507580Y248778D01*
X507581Y248746D01*
X507573Y248675D01*
X507573Y230209D01*
X507574Y230201D01*
X507574Y230198D01*
X507577Y230180D01*
X507587Y230119D01*
X507595Y230028D01*
X507607Y229999D01*
X507612Y229967D01*
X507655Y229886D01*
X507691Y229802D01*
X507717Y229770D01*
X507728Y229749D01*
X507751Y229727D01*
X507796Y229671D01*
X511000Y226467D01*
X511058Y226425D01*
X511110Y226376D01*
X511157Y226354D01*
X511199Y226324D01*
X511268Y226302D01*
X511333Y226272D01*
X511385Y226267D01*
X511435Y226251D01*
X511506Y226253D01*
X511577Y226245D01*
X511628Y226256D01*
X511680Y226258D01*
X511748Y226282D01*
X511818Y226297D01*
X511863Y226324D01*
X511911Y226342D01*
X511967Y226387D01*
X512029Y226424D01*
X512063Y226463D01*
X512103Y226496D01*
X512142Y226556D01*
X512189Y226610D01*
X512208Y226659D01*
X512236Y226703D01*
X512254Y226772D01*
X512281Y226839D01*
X512289Y226910D01*
X512297Y226941D01*
X512295Y226964D01*
X512299Y227005D01*
X512299Y235261D01*
X519739Y242701D01*
X530261Y242701D01*
X537701Y235261D01*
X537701Y224739D01*
X530261Y217299D01*
X520334Y217299D01*
X520314Y217296D01*
X520295Y217298D01*
X520193Y217276D01*
X520091Y217260D01*
X520074Y217250D01*
X520054Y217246D01*
X519965Y217193D01*
X519874Y217144D01*
X519860Y217130D01*
X519843Y217120D01*
X519776Y217041D01*
X519704Y216966D01*
X519696Y216948D01*
X519683Y216933D01*
X519644Y216837D01*
X519601Y216743D01*
X519599Y216723D01*
X519591Y216705D01*
X519573Y216538D01*
X519573Y202528D01*
X519577Y202505D01*
X519588Y202379D01*
X519855Y201040D01*
X519701Y200807D01*
X519694Y200792D01*
X519683Y200780D01*
X519643Y200680D01*
X519599Y200583D01*
X519597Y200567D01*
X519591Y200552D01*
X519573Y200385D01*
X519573Y200106D01*
X518607Y199140D01*
X518593Y199121D01*
X518512Y199024D01*
X498000Y168256D01*
X497965Y168179D01*
X497922Y168106D01*
X497915Y168068D01*
X497911Y168060D01*
X496786Y166436D01*
X496784Y166431D01*
X496779Y166425D01*
X495728Y164848D01*
X493865Y164510D01*
X493860Y164508D01*
X493852Y164507D01*
X491908Y164118D01*
X491865Y164127D01*
X491815Y164124D01*
X491788Y164126D01*
X491759Y164120D01*
X491698Y164116D01*
X482908Y162517D01*
X482898Y162514D01*
X482882Y162512D01*
X481056Y162115D01*
X481018Y162119D01*
G37*
%LPD*%
%LPC*%
G36*
X644793Y254931D02*
X644793Y254931D01*
X642562Y255855D01*
X640855Y257562D01*
X639931Y259793D01*
X639931Y262207D01*
X640855Y264438D01*
X642562Y266145D01*
X644793Y267069D01*
X647207Y267069D01*
X648226Y266647D01*
X648290Y266632D01*
X648351Y266607D01*
X648434Y266598D01*
X648466Y266591D01*
X648485Y266592D01*
X648517Y266589D01*
X671483Y266589D01*
X671547Y266599D01*
X671613Y266600D01*
X671693Y266623D01*
X671725Y266628D01*
X671743Y266638D01*
X671774Y266647D01*
X672793Y267069D01*
X675207Y267069D01*
X677438Y266145D01*
X679145Y264438D01*
X680069Y262207D01*
X680069Y259793D01*
X679145Y257562D01*
X677438Y255855D01*
X675207Y254931D01*
X672793Y254931D01*
X671774Y255353D01*
X671710Y255368D01*
X671649Y255393D01*
X671566Y255402D01*
X671534Y255409D01*
X671515Y255408D01*
X671483Y255411D01*
X648517Y255411D01*
X648453Y255401D01*
X648387Y255400D01*
X648307Y255377D01*
X648275Y255372D01*
X648257Y255362D01*
X648226Y255353D01*
X647207Y254931D01*
X644793Y254931D01*
G37*
%LPD*%
%LPC*%
G36*
X451533Y254601D02*
X451533Y254601D01*
X449814Y255313D01*
X449750Y255328D01*
X449689Y255353D01*
X449606Y255362D01*
X449574Y255369D01*
X449555Y255368D01*
X449523Y255371D01*
X429107Y255371D01*
X429043Y255361D01*
X428977Y255360D01*
X428897Y255337D01*
X428865Y255332D01*
X428847Y255322D01*
X428835Y255319D01*
X428833Y255318D01*
X428832Y255318D01*
X428816Y255313D01*
X427797Y254891D01*
X425383Y254891D01*
X423152Y255815D01*
X421445Y257522D01*
X420521Y259753D01*
X420521Y262167D01*
X421445Y264398D01*
X423152Y266105D01*
X425383Y267029D01*
X427797Y267029D01*
X428816Y266607D01*
X428880Y266592D01*
X428941Y266567D01*
X429024Y266558D01*
X429056Y266551D01*
X429075Y266552D01*
X429107Y266549D01*
X450923Y266549D01*
X450987Y266559D01*
X451053Y266560D01*
X451133Y266583D01*
X451165Y266588D01*
X451183Y266598D01*
X451214Y266607D01*
X451533Y266739D01*
X453947Y266739D01*
X456178Y265815D01*
X457885Y264108D01*
X458809Y261877D01*
X458809Y259463D01*
X457885Y257232D01*
X456178Y255525D01*
X453947Y254601D01*
X451533Y254601D01*
G37*
%LPD*%
%LPC*%
G36*
X595612Y196417D02*
X595612Y196417D01*
X590606Y203701D01*
X592217Y212391D01*
X599500Y217397D01*
X608191Y215786D01*
X613197Y208502D01*
X611586Y199812D01*
X604302Y194806D01*
X595612Y196417D01*
G37*
%LPD*%
%LPC*%
G36*
X609999Y175484D02*
X609999Y175484D01*
X604993Y182768D01*
X606603Y191458D01*
X613887Y196464D01*
X622577Y194853D01*
X627583Y187570D01*
X625973Y178879D01*
X618689Y173873D01*
X609999Y175484D01*
G37*
%LPD*%
%LPC*%
G36*
X576523Y231523D02*
X576523Y231523D01*
X576523Y242193D01*
X580050Y242193D01*
X587193Y235050D01*
X587193Y231523D01*
X576523Y231523D01*
G37*
%LPD*%
%LPC*%
G36*
X562807Y231523D02*
X562807Y231523D01*
X562807Y235050D01*
X569950Y242193D01*
X573477Y242193D01*
X573477Y231523D01*
X562807Y231523D01*
G37*
%LPD*%
%LPC*%
G36*
X576523Y217807D02*
X576523Y217807D01*
X576523Y228477D01*
X587193Y228477D01*
X587193Y224950D01*
X580050Y217807D01*
X576523Y217807D01*
G37*
%LPD*%
%LPC*%
G36*
X569950Y217807D02*
X569950Y217807D01*
X562807Y224950D01*
X562807Y228477D01*
X573477Y228477D01*
X573477Y217807D01*
X569950Y217807D01*
G37*
%LPD*%
%LPC*%
G36*
X529077Y148523D02*
X529077Y148523D01*
X529077Y151524D01*
X535476Y157923D01*
X538477Y157923D01*
X538477Y148523D01*
X529077Y148523D01*
G37*
%LPD*%
%LPC*%
G36*
X479297Y220921D02*
X479297Y220921D01*
X479647Y221435D01*
X479648Y221435D01*
X480167Y222196D01*
X480167Y222197D01*
X480686Y222958D01*
X481725Y224480D01*
X482244Y225241D01*
X482244Y225242D01*
X482763Y226003D01*
X483802Y227525D01*
X484164Y228057D01*
X486383Y226544D01*
X487946Y218272D01*
X486432Y216054D01*
X479297Y220921D01*
G37*
%LPD*%
%LPC*%
G36*
X469645Y227506D02*
X469645Y227506D01*
X471158Y229724D01*
X479429Y231287D01*
X481648Y229774D01*
X480698Y228381D01*
X480179Y227620D01*
X479660Y226859D01*
X479659Y226859D01*
X478621Y225336D01*
X478102Y224575D01*
X477582Y223814D01*
X476780Y222638D01*
X469645Y227506D01*
G37*
%LPD*%
%LPC*%
G36*
X632721Y208792D02*
X632721Y208792D01*
X634934Y210313D01*
X643211Y208779D01*
X644732Y206566D01*
X637613Y201673D01*
X632721Y208792D01*
G37*
%LPD*%
%LPC*%
G36*
X639339Y199163D02*
X639339Y199163D01*
X646457Y204055D01*
X647978Y201842D01*
X646444Y193565D01*
X644231Y192044D01*
X639339Y199163D01*
G37*
%LPD*%
%LPC*%
G36*
X626463Y197269D02*
X626463Y197269D01*
X627997Y205545D01*
X630210Y207066D01*
X635103Y199948D01*
X627984Y195056D01*
X626463Y197269D01*
G37*
%LPD*%
%LPC*%
G36*
X472713Y211269D02*
X472713Y211269D01*
X474455Y213823D01*
X477580Y218405D01*
X484716Y213537D01*
X484456Y213156D01*
X483937Y212395D01*
X483936Y212395D01*
X483417Y211634D01*
X483202Y211319D01*
X474931Y209756D01*
X472713Y211269D01*
G37*
%LPD*%
%LPC*%
G36*
X631231Y190332D02*
X631231Y190332D01*
X629710Y192545D01*
X636828Y197437D01*
X641721Y190319D01*
X639507Y188798D01*
X631231Y190332D01*
G37*
%LPD*%
%LPC*%
G36*
X467978Y214499D02*
X467978Y214499D01*
X466415Y222770D01*
X467928Y224989D01*
X475064Y220121D01*
X474467Y219246D01*
X473947Y218485D01*
X473428Y217724D01*
X472390Y216201D01*
X472389Y216201D01*
X471870Y215440D01*
X471351Y214679D01*
X470832Y213918D01*
X470832Y213917D01*
X470196Y212986D01*
X467978Y214499D01*
G37*
%LPD*%
%LPC*%
G36*
X574999Y229999D02*
X574999Y229999D01*
X574999Y230001D01*
X575001Y230001D01*
X575001Y229999D01*
X574999Y229999D01*
G37*
%LPD*%
%LPC*%
G36*
X477179Y220521D02*
X477179Y220521D01*
X477180Y220523D01*
X477182Y220522D01*
X477181Y220520D01*
X477179Y220521D01*
G37*
%LPD*%
%LPC*%
G36*
X637220Y199556D02*
X637220Y199556D01*
X637221Y199557D01*
X637222Y199555D01*
X637221Y199554D01*
X637220Y199556D01*
G37*
%LPD*%
D10*
X310000Y320000D03*
D11*
X498163Y206208D03*
X483850Y185225D03*
X477180Y220521D03*
X462867Y199539D03*
X456198Y234835D03*
X441884Y213852D03*
D10*
X330000Y320000D03*
X350000Y320000D03*
X370000Y320000D03*
X390000Y320000D03*
D12*
X616288Y185169D03*
X601901Y206101D03*
X637221Y199555D03*
X622834Y220488D03*
X658154Y213942D03*
X643767Y234875D03*
D10*
X710000Y320000D03*
X730000Y320000D03*
X750000Y320000D03*
X770000Y320000D03*
X690000Y320000D03*
X410000Y320000D03*
D13*
X575000Y230000D03*
X525000Y230000D03*
D14*
X540000Y147000D03*
X560000Y147000D03*
D15*
X374000Y249000D03*
X311000Y277000D03*
X725000Y248000D03*
X480000Y286000D03*
X646000Y273000D03*
X576000Y286000D03*
X513000Y292000D03*
X611000Y156000D03*
D16*
X612000Y156000D01*
D15*
X510000Y155000D03*
X524400Y187400D03*
X789000Y306000D03*
D17*
X468000Y176000D02*
X462867Y181133D01*
X468000Y176000D02*
X482000Y167000D01*
X493000Y169000D01*
X515000Y202000D01*
X462867Y199539D02*
X462867Y181133D01*
X622834Y220488D02*
X622834Y220488D01*
D18*
X462867Y199539D02*
X462867Y199539D01*
D15*
X503000Y281900D03*
D17*
X496100Y281900D01*
X485000Y293000D01*
X407000Y293000D01*
X396000Y304000D01*
X362000Y304000D01*
D15*
X362000Y304000D03*
D17*
X561422Y281900D02*
X622834Y220488D01*
X561422Y281900D02*
X503000Y281900D01*
X515000Y216000D02*
X515000Y202000D01*
X515000Y216000D02*
X503000Y228000D01*
X503000Y253000D01*
D15*
X503000Y253000D03*
X426590Y260960D03*
D16*
X452450Y260960D01*
X452740Y260670D01*
D15*
X452740Y260670D03*
X674000Y261000D03*
D16*
X646000Y261000D01*
D15*
X646000Y261000D03*
D17*
X441884Y213852D02*
X431148Y213852D01*
X400000Y245000D01*
X394000Y245000D01*
X330000Y309000D01*
X330000Y320000D01*
D18*
X664875Y234875D02*
X750000Y320000D01*
X664875Y234875D02*
X643767Y234875D01*
X643767Y234875D01*
X663942Y213942D02*
X770000Y320000D01*
X663942Y213942D02*
X658154Y213942D01*
D17*
X456197Y234835D02*
X424165Y234835D01*
D18*
X456197Y234835D02*
X456198Y234835D01*
D17*
X424165Y234835D02*
X407000Y252000D01*
X399000Y252000D01*
X350000Y301000D01*
X350000Y320000D01*
D15*
X607916Y250000D03*
D18*
X607916Y283916D01*
X618000Y294000D01*
X618000Y300000D01*
X626000Y308000D02*
X678000Y308000D01*
X690000Y320000D01*
X626000Y308000D02*
X618000Y300000D01*
M02*
