M48
;GenerationSoftware,Autodesk,EAGLE,8.6.0*%
;CreationDate,2018-03-03T07:31:48Z*%
FMAT,2
ICI,OFF
METRIC,TZ,000.000
T4C0.350
T3C0.800
T2C0.813
T1C1.016
%
G90
M71
T1
X44188Y21385
X45620Y23484
X46287Y19954
X47718Y22052
X49816Y20621
X48385Y18523
X52500Y23000
X57500Y23000
X64377Y23487
X65815Y21394
X62283Y22049
X63722Y19956
X60190Y20610
X61629Y18517
T2
X56000Y14700
X54000Y14700
T3
X71000Y32000
X73000Y32000
X75000Y32000
X77000Y32000
X41000Y32000
X69000Y32000
X31000Y32000
X37000Y32000
X33000Y32000
X35000Y32000
X39000Y32000
T4
X37400Y24900
X31100Y27700
X72500Y24800
X48000Y28600
X64600Y27300
X51300Y29200
X36200Y30400
X50300Y28190
X78900Y30600
X67400Y26100
X60792Y25000
X64600Y26100
X45274Y26067
X57600Y28600
X42659Y26096
X52440Y18740
X51000Y15500
X61100Y15600
X50300Y25300
M30