G04 EAGLE Gerber X2 export*
G04 #@! %TF.Part,Single*
G04 #@! %TF.FileFunction,Profile,NP*
G04 #@! %TF.FilePolarity,Positive*
G04 #@! %TF.GenerationSoftware,Autodesk,EAGLE,8.6.0*
G04 #@! %TF.CreationDate,2018-03-03T07:31:49Z*
G75*
%MOMM*%
%FSLAX34Y34*%
%LPD*%
%AMOC8*
5,1,8,0,0,1.08239X$1,22.5*%
G01*
%ADD10C,0.254000*%


D10*
X295000Y295000D02*
X300000Y290000D01*
X300000Y210000D01*
X300038Y209128D01*
X300152Y208264D01*
X300341Y207412D01*
X300603Y206580D01*
X300937Y205774D01*
X301340Y205000D01*
X301808Y204264D01*
X302340Y203572D01*
X302929Y202929D01*
X303572Y202340D01*
X304264Y201808D01*
X305000Y201340D01*
X305774Y200937D01*
X306580Y200603D01*
X307412Y200341D01*
X308264Y200152D01*
X309128Y200038D01*
X310000Y200000D01*
X400000Y200000D01*
X475000Y150000D01*
X480000Y130000D01*
X620000Y130000D01*
X625000Y150000D01*
X700000Y200000D01*
X790000Y200000D01*
X790872Y200038D01*
X791736Y200152D01*
X792588Y200341D01*
X793420Y200603D01*
X794226Y200937D01*
X795000Y201340D01*
X795736Y201808D01*
X796428Y202340D01*
X797071Y202929D01*
X797660Y203572D01*
X798192Y204264D01*
X798660Y205000D01*
X799063Y205774D01*
X799397Y206580D01*
X799659Y207412D01*
X799848Y208264D01*
X799962Y209128D01*
X800000Y210000D01*
X800000Y290000D01*
X805000Y295000D01*
X805000Y325000D01*
X804962Y325872D01*
X804848Y326736D01*
X804659Y327588D01*
X804397Y328420D01*
X804063Y329226D01*
X803660Y330000D01*
X803192Y330736D01*
X802660Y331428D01*
X802071Y332071D01*
X801428Y332660D01*
X800736Y333192D01*
X800000Y333660D01*
X799226Y334063D01*
X798420Y334397D01*
X797588Y334659D01*
X796736Y334848D01*
X795872Y334962D01*
X795000Y335000D01*
X305000Y335000D01*
X304128Y334962D01*
X303264Y334848D01*
X302412Y334659D01*
X301580Y334397D01*
X300774Y334063D01*
X300000Y333660D01*
X299264Y333192D01*
X298572Y332660D01*
X297929Y332071D01*
X297340Y331428D01*
X296808Y330736D01*
X296340Y330000D01*
X295937Y329226D01*
X295603Y328420D01*
X295341Y327588D01*
X295152Y326736D01*
X295038Y325872D01*
X295000Y325000D01*
X295000Y295000D01*
M02*
