G04 EAGLE Gerber X2 export*
G04 #@! %TF.Part,Single*
G04 #@! %TF.FileFunction,Soldermask,Top,1*
G04 #@! %TF.FilePolarity,Negative*
G04 #@! %TF.GenerationSoftware,Autodesk,EAGLE,8.6.0*
G04 #@! %TF.CreationDate,2018-03-03T07:31:49Z*
G75*
%MOMM*%
%FSLAX34Y34*%
%LPD*%
%AMOC8*
5,1,8,0,0,1.08239X$1,22.5*%
G01*
%ADD10C,1.549400*%
%ADD11R,0.927000X1.327000*%
%ADD12R,2.677000X2.827000*%
%ADD13P,1.787026X8X168.200000*%
%ADD14P,1.787026X8X57.000000*%
%ADD15R,1.077000X0.427000*%
%ADD16R,1.677000X0.727000*%
%ADD17R,1.327000X0.927000*%
%ADD18R,0.965200X1.727200*%
%ADD19R,3.225800X1.727200*%
%ADD20P,2.226909X8X22.500000*%
%ADD21P,1.951982X8X22.500000*%
%ADD22C,0.731000*%


D10*
X310000Y320000D03*
D11*
X509000Y141900D03*
X491000Y141900D03*
D12*
X381400Y225100D03*
X318000Y225100D03*
D11*
X611000Y142700D03*
X593000Y142700D03*
D12*
G36*
X704791Y239156D02*
X731560Y239203D01*
X731609Y210934D01*
X704840Y210887D01*
X704791Y239156D01*
G37*
G36*
X768191Y239266D02*
X794960Y239313D01*
X795009Y211044D01*
X768240Y210997D01*
X768191Y239266D01*
G37*
D13*
X498163Y206208D03*
X483850Y185225D03*
X477180Y220521D03*
X462867Y199539D03*
X456198Y234835D03*
X441884Y213852D03*
D10*
X330000Y320000D03*
X350000Y320000D03*
X370000Y320000D03*
X390000Y320000D03*
D14*
X616288Y185169D03*
X601901Y206101D03*
X637221Y199555D03*
X622834Y220488D03*
X658154Y213942D03*
X643767Y234875D03*
D10*
X710000Y320000D03*
X730000Y320000D03*
X750000Y320000D03*
X770000Y320000D03*
D11*
X311000Y259900D03*
X329000Y259900D03*
X311000Y290000D03*
X329000Y290000D03*
X789000Y260000D03*
X771000Y260000D03*
X789000Y294000D03*
X771000Y294000D03*
D15*
X351350Y280350D03*
X351350Y273850D03*
X351350Y286850D03*
X351350Y293350D03*
X390850Y293350D03*
X390850Y286850D03*
X390850Y280350D03*
X390850Y273850D03*
D16*
G36*
X404633Y290046D02*
X421402Y290017D01*
X421389Y282748D01*
X404620Y282777D01*
X404633Y290046D01*
G37*
G36*
X404655Y302746D02*
X421424Y302717D01*
X421411Y295448D01*
X404642Y295477D01*
X404655Y302746D01*
G37*
G36*
X404611Y277346D02*
X421380Y277317D01*
X421367Y270048D01*
X404598Y270077D01*
X404611Y277346D01*
G37*
G36*
X404589Y264646D02*
X421358Y264617D01*
X421345Y257348D01*
X404576Y257377D01*
X404589Y264646D01*
G37*
G36*
X458589Y264552D02*
X475358Y264523D01*
X475345Y257254D01*
X458576Y257283D01*
X458589Y264552D01*
G37*
G36*
X458611Y277252D02*
X475380Y277223D01*
X475367Y269954D01*
X458598Y269983D01*
X458611Y277252D01*
G37*
G36*
X458633Y289952D02*
X475402Y289923D01*
X475389Y282654D01*
X458620Y282683D01*
X458633Y289952D01*
G37*
G36*
X458655Y302652D02*
X475424Y302623D01*
X475411Y295354D01*
X458642Y295383D01*
X458655Y302652D01*
G37*
D15*
X750150Y286350D03*
X750150Y292850D03*
X750150Y279850D03*
X750150Y273350D03*
X710650Y273350D03*
X710650Y279850D03*
X710650Y286350D03*
X710650Y292850D03*
D16*
G36*
X695436Y270200D02*
X678668Y270113D01*
X678630Y277382D01*
X695398Y277469D01*
X695436Y270200D01*
G37*
G36*
X695502Y257501D02*
X678734Y257414D01*
X678696Y264683D01*
X695464Y264770D01*
X695502Y257501D01*
G37*
G36*
X695369Y282900D02*
X678601Y282813D01*
X678563Y290082D01*
X695331Y290169D01*
X695369Y282900D01*
G37*
G36*
X695303Y295600D02*
X678535Y295513D01*
X678497Y302782D01*
X695265Y302869D01*
X695303Y295600D01*
G37*
G36*
X641304Y295317D02*
X624536Y295230D01*
X624498Y302499D01*
X641266Y302586D01*
X641304Y295317D01*
G37*
G36*
X641370Y282618D02*
X624602Y282531D01*
X624564Y289800D01*
X641332Y289887D01*
X641370Y282618D01*
G37*
G36*
X641437Y269918D02*
X624669Y269831D01*
X624631Y277100D01*
X641399Y277187D01*
X641437Y269918D01*
G37*
G36*
X641503Y257218D02*
X624735Y257131D01*
X624697Y264400D01*
X641465Y264487D01*
X641503Y257218D01*
G37*
D17*
X597000Y315000D03*
X597000Y297000D03*
D18*
X572800Y314804D03*
X549800Y314804D03*
X526800Y314804D03*
D19*
X549800Y250796D03*
D17*
X502000Y315000D03*
X502000Y297000D03*
D11*
X524400Y208000D03*
X542400Y208000D03*
X557800Y208000D03*
X575800Y208000D03*
D10*
X690000Y320000D03*
X410000Y320000D03*
D20*
X575000Y230000D03*
X525000Y230000D03*
D21*
X540000Y147000D03*
X560000Y147000D03*
D22*
X374000Y249000D03*
X311000Y277000D03*
X725000Y248000D03*
X480000Y286000D03*
X646000Y273000D03*
X576000Y286000D03*
X513000Y292000D03*
X611000Y156000D03*
X510000Y155000D03*
X524400Y187400D03*
X789000Y306000D03*
X503000Y281900D03*
X362000Y304000D03*
X503000Y253000D03*
X426590Y260960D03*
X452740Y260670D03*
X674000Y261000D03*
X646000Y261000D03*
X607916Y250000D03*
M02*
