G04 EAGLE Gerber X2 export*
G04 #@! %TF.Part,Single*
G04 #@! %TF.FileFunction,Soldermask,Bot,1*
G04 #@! %TF.FilePolarity,Negative*
G04 #@! %TF.GenerationSoftware,Autodesk,EAGLE,8.6.0*
G04 #@! %TF.CreationDate,2018-03-03T07:31:49Z*
G75*
%MOMM*%
%FSLAX34Y34*%
%LPD*%
%AMOC8*
5,1,8,0,0,1.08239X$1,22.5*%
G01*
%ADD10C,1.549400*%
%ADD11P,1.787026X8X168.200000*%
%ADD12P,1.787026X8X57.000000*%
%ADD13P,2.226909X8X22.500000*%
%ADD14P,1.951982X8X22.500000*%
%ADD15C,0.731000*%


D10*
X310000Y320000D03*
D11*
X498163Y206208D03*
X483850Y185225D03*
X477180Y220521D03*
X462867Y199539D03*
X456198Y234835D03*
X441884Y213852D03*
D10*
X330000Y320000D03*
X350000Y320000D03*
X370000Y320000D03*
X390000Y320000D03*
D12*
X616288Y185169D03*
X601901Y206101D03*
X637221Y199555D03*
X622834Y220488D03*
X658154Y213942D03*
X643767Y234875D03*
D10*
X710000Y320000D03*
X730000Y320000D03*
X750000Y320000D03*
X770000Y320000D03*
X690000Y320000D03*
X410000Y320000D03*
D13*
X575000Y230000D03*
X525000Y230000D03*
D14*
X540000Y147000D03*
X560000Y147000D03*
D15*
X374000Y249000D03*
X311000Y277000D03*
X725000Y248000D03*
X480000Y286000D03*
X646000Y273000D03*
X576000Y286000D03*
X513000Y292000D03*
X611000Y156000D03*
X510000Y155000D03*
X524400Y187400D03*
X789000Y306000D03*
X503000Y281900D03*
X362000Y304000D03*
X503000Y253000D03*
X426590Y260960D03*
X452740Y260670D03*
X674000Y261000D03*
X646000Y261000D03*
X607916Y250000D03*
M02*
