G04 EAGLE Gerber X2 export*
G04 #@! %TF.Part,Single*
G04 #@! %TF.FileFunction,Paste,Top*
G04 #@! %TF.FilePolarity,Positive*
G04 #@! %TF.GenerationSoftware,Autodesk,EAGLE,8.6.0*
G04 #@! %TF.CreationDate,2018-03-03T07:31:49Z*
G75*
%MOMM*%
%FSLAX34Y34*%
%LPD*%
%AMOC8*
5,1,8,0,0,1.08239X$1,22.5*%
G01*
%ADD10R,0.800000X1.200000*%
%ADD11R,2.550000X2.700000*%
%ADD12R,0.950000X0.300000*%
%ADD13R,1.550000X0.600000*%
%ADD14R,1.200000X0.800000*%
%ADD15R,0.838200X1.600200*%
%ADD16R,3.098800X1.600200*%


D10*
X509000Y141900D03*
X491000Y141900D03*
D11*
X381400Y225100D03*
X318000Y225100D03*
D10*
X611000Y142700D03*
X593000Y142700D03*
D11*
G36*
X705427Y238522D02*
X730926Y238567D01*
X730973Y211568D01*
X705474Y211523D01*
X705427Y238522D01*
G37*
G36*
X768827Y238632D02*
X794326Y238677D01*
X794373Y211678D01*
X768874Y211633D01*
X768827Y238632D01*
G37*
D10*
X311000Y259900D03*
X329000Y259900D03*
X311000Y290000D03*
X329000Y290000D03*
X789000Y260000D03*
X771000Y260000D03*
X789000Y294000D03*
X771000Y294000D03*
D12*
X351350Y280350D03*
X351350Y273850D03*
X351350Y286850D03*
X351350Y293350D03*
X390850Y293350D03*
X390850Y286850D03*
X390850Y280350D03*
X390850Y273850D03*
D13*
G36*
X405267Y289410D02*
X420766Y289383D01*
X420755Y283384D01*
X405256Y283411D01*
X405267Y289410D01*
G37*
G36*
X405289Y302110D02*
X420788Y302083D01*
X420777Y296084D01*
X405278Y296111D01*
X405289Y302110D01*
G37*
G36*
X405245Y276710D02*
X420744Y276683D01*
X420733Y270684D01*
X405234Y270711D01*
X405245Y276710D01*
G37*
G36*
X405223Y264010D02*
X420722Y263983D01*
X420711Y257984D01*
X405212Y258011D01*
X405223Y264010D01*
G37*
G36*
X459223Y263916D02*
X474722Y263889D01*
X474711Y257890D01*
X459212Y257917D01*
X459223Y263916D01*
G37*
G36*
X459245Y276616D02*
X474744Y276589D01*
X474733Y270590D01*
X459234Y270617D01*
X459245Y276616D01*
G37*
G36*
X459267Y289316D02*
X474766Y289289D01*
X474755Y283290D01*
X459256Y283317D01*
X459267Y289316D01*
G37*
G36*
X459289Y302016D02*
X474788Y301989D01*
X474777Y295990D01*
X459278Y296017D01*
X459289Y302016D01*
G37*
D12*
X750150Y286350D03*
X750150Y292850D03*
X750150Y279850D03*
X750150Y273350D03*
X710650Y273350D03*
X710650Y279850D03*
X710650Y286350D03*
X710650Y292850D03*
D13*
G36*
X694798Y270832D02*
X679299Y270751D01*
X679268Y276750D01*
X694767Y276831D01*
X694798Y270832D01*
G37*
G36*
X694864Y258133D02*
X679365Y258052D01*
X679334Y264051D01*
X694833Y264132D01*
X694864Y258133D01*
G37*
G36*
X694731Y283532D02*
X679232Y283451D01*
X679201Y289450D01*
X694700Y289531D01*
X694731Y283532D01*
G37*
G36*
X694665Y296232D02*
X679166Y296151D01*
X679135Y302150D01*
X694634Y302231D01*
X694665Y296232D01*
G37*
G36*
X640666Y295949D02*
X625167Y295868D01*
X625136Y301867D01*
X640635Y301948D01*
X640666Y295949D01*
G37*
G36*
X640732Y283250D02*
X625233Y283169D01*
X625202Y289168D01*
X640701Y289249D01*
X640732Y283250D01*
G37*
G36*
X640799Y270550D02*
X625300Y270469D01*
X625269Y276468D01*
X640768Y276549D01*
X640799Y270550D01*
G37*
G36*
X640865Y257850D02*
X625366Y257769D01*
X625335Y263768D01*
X640834Y263849D01*
X640865Y257850D01*
G37*
D14*
X597000Y315000D03*
X597000Y297000D03*
D15*
X572800Y314804D03*
X549800Y314804D03*
X526800Y314804D03*
D16*
X549800Y250796D03*
D14*
X502000Y315000D03*
X502000Y297000D03*
D10*
X524400Y208000D03*
X542400Y208000D03*
X557800Y208000D03*
X575800Y208000D03*
M02*
